<?xml version="1.0" encoding="utf-8"?>
<svg id="ic_fluent_cloud_arrow_down_20_regular" width="16" height="16"
    style="width:16px;height:16px;" version="1.1" xmlns="http://www.w3.org/2000/svg"
    viewBox="0 0 500 500" enable-background="new 0 0 500 500" xml:space="preserve"><path fill="#ffffff" d="M250 0 q63.75 0 102.5 38.75 q37.5 36.25 42.5 93.75 l2.5 0 q42.5 0 72.5 31.25 q30 31.25 30 75 l0 8.75 q-15 -18.75 -35 -33.75 q-7.5 -22.5 -26.25 -36.25 q-18.75 -13.75 -41.25 -13.75 l-2.5 0 q-11.25 0 -20.63 -8.13 q-9.38 -8.13 -10.63 -19.38 q-5 -48.75 -35 -76.88 q-30 -28.13 -78.75 -28.13 q-48.75 0 -78.75 28.13 q-30 28.13 -35 76.88 q-1.25 11.25 -10.63 19.38 q-9.38 8.13 -20.63 8.13 l-2.5 0 q-30 0 -50.63 21.88 q-20.63 21.88 -20.63 52.5 q0 30.63 20.63 52.5 q20.63 21.88 50.63 21.88 l83.75 0 q-5 15 -6.25 31.25 l-77.5 0 q-42.5 0 -72.5 -30.63 q-30 -30.63 -30 -73.75 q0 -43.13 28.13 -73.75 q28.13 -30.63 69.38 -33.13 l7.5 0 q5 -57.5 42.5 -93.75 q38.75 -38.75 102.5 -38.75 ZM360 500 q-38.75 0 -71.25 -18.75 q-32.5 -18.75 -51.25 -51.25 q-18.75 -32.5 -18.75 -70.63 q0 -38.13 18.75 -70.63 q18.75 -32.5 51.25 -51.25 q32.5 -18.75 70.63 -18.75 q38.13 0 70.63 18.75 q32.5 18.75 51.25 51.25 q18.75 32.5 18.75 70.63 q0 38.13 -18.75 70.63 q-18.75 32.5 -51.25 51.25 q-32.5 18.75 -70 18.75 ZM410 347.5 l-35 33.75 l0 -85 q0 -6.25 -4.38 -10.63 q-4.38 -4.38 -11.25 -4.38 q-6.88 0 -11.25 4.38 q-4.38 4.38 -4.38 10.63 l0 85 l-35 -33.75 q-6.25 -7.5 -16.25 -5 q-10 2.5 -12.5 12.5 q-2.5 10 5 16.25 l62.5 62.5 q5 6.25 11.88 6.25 q6.88 0 11.88 -6.25 l62.5 -62.5 q7.5 -6.25 5 -16.25 q-2.5 -10 -12.5 -12.5 q-10 -2.5 -16.25 5 Z"/></svg>