<?xml version="1.0" encoding="utf-8"?><!DOCTYPE svg PUBLIC "-//W3C//DTD SVG 1.1//EN" "http://www.w3.org/Graphics/SVG/1.1/DTD/svg11.dtd"><svg id="ic_fluent_multiselect_ltr_16_regular" width="16" height="16" style="width:16px;height:16px;" version="1.1" xmlns="http://www.w3.org/2000/svg" viewBox="0 0 500 500" enable-background="new 0 0 500 500" xml:space="preserve"><path fill="#000000" d="M138.26 5.71 q4.56 5.7 4.56 13.12 q0 7.42 -4.56 11.98 l-71.89 71.89 q-4.57 4.57 -11.99 4.57 q-7.41 0 -13.13 -4.57 l-35.37 -36.51 q-7.99 -6.85 -5.14 -16.55 q2.85 -9.7 13.12 -12.56 q10.27 -2.85 17.12 4 l22.82 23.97 l59.34 -59.34 q4.57 -5.71 11.98 -5.71 q7.42 0 13.12 5.71 ZM481.74 71.89 l-285.28 0 q-6.85 0 -12.56 -5.14 q-5.71 -5.13 -5.14 -12.55 q0.57 -7.41 5.71 -12.55 q5.13 -5.13 11.98 -5.13 l285.28 0 q7.99 0 13.13 5.13 q5.13 5.13 5.13 12.55 q0 7.41 -5.13 12.55 q-5.13 5.14 -13.13 5.14 ZM179.34 214.53 q0 -6.84 5.14 -12.54 q5.13 -5.71 11.98 -5.71 l285.28 0 q7.99 0 13.13 5.71 q5.13 5.7 5.13 12.55 q0 6.84 -5.13 12.55 q-5.13 5.71 -13.13 5.71 l-285.28 0 q-6.85 0 -12.56 -5.71 q-5.71 -5.7 -5.71 -12.55 l1.14 0 ZM138.26 326.37 q4.56 5.7 4.56 13.12 q0 7.42 -4.56 11.98 l-71.89 71.89 q-4.57 5.71 -11.99 5.71 q-7.41 0 -13.13 -5.71 l-35.37 -35.37 q-5.71 -5.71 -5.71 -13.13 q0 -7.42 5.13 -12.55 q5.13 -5.13 12.55 -5.13 q7.42 0 13.12 5.7 l22.82 22.83 l59.34 -59.34 q4.57 -4.57 11.98 -4.57 q7.42 0 13.12 4.57 ZM481.74 392.55 l-285.28 0 q-6.85 0 -12.56 -5.14 q-5.71 -5.13 -5.14 -12.55 q0.57 -7.42 5.71 -12.55 q5.13 -5.13 11.98 -5.13 l285.28 0 q7.99 0 13.13 5.13 q5.13 5.13 5.13 12.55 q0 7.41 -5.13 12.55 q-5.13 5.14 -13.13 5.14 Z"/></svg>