<svg width="32" height="32" viewBox="0 0 32 32" fill="none" xmlns="http://www.w3.org/2000/svg">
    <rect x="18.5171" y="16.1411" width="4.275" height="1.70472" rx="0.844227"
        transform="rotate(-34.9063 18.5171 16.1411)" fill="url(#paint0_linear_18_12611)" />
    <rect x="18.5171" y="16.1411" width="4.275" height="1.70472" rx="0.844227"
        transform="rotate(-34.9063 18.5171 16.1411)" fill="url(#paint1_linear_18_12611)" />
    <rect x="18.5171" y="16.1411" width="4.275" height="1.70472" rx="0.844227"
        transform="rotate(-34.9063 18.5171 16.1411)" fill="url(#paint2_radial_18_12611)" />
    <rect x="13.7544" y="8.15063" width="4.275" height="1.70472" rx="0.844227"
        transform="rotate(-34.9063 13.7544 8.15063)" fill="url(#paint3_linear_18_12611)" />
    <rect x="13.7544" y="8.15063" width="4.275" height="1.70472" rx="0.844227"
        transform="rotate(-34.9063 13.7544 8.15063)" fill="url(#paint4_linear_18_12611)" />
    <rect x="13.7544" y="8.15063" width="4.275" height="1.70472" rx="0.844227"
        transform="rotate(-34.9063 13.7544 8.15063)" fill="url(#paint5_radial_18_12611)" />
    <rect x="1.80127" y="24.0569" width="28.0016" height="5.88049"
        fill="url(#paint6_linear_18_12611)" />
    <path
        d="M17.4142 12.3003L24.1642 8.4003L10.6542 5.4603C10.2442 5.3703 9.81416 5.4403 9.45416 5.6503C8.27416 6.3303 8.34416 8.0603 9.58416 8.6403L17.4142 12.3003Z"
        fill="url(#paint7_linear_18_12611)" />
    <path
        d="M17.4142 12.3003L24.1642 8.4003L10.6542 5.4603C10.2442 5.3703 9.81416 5.4403 9.45416 5.6503C8.27416 6.3303 8.34416 8.0603 9.58416 8.6403L17.4142 12.3003Z"
        fill="url(#paint8_linear_18_12611)" />
    <path
        d="M17.4142 12.3003L24.1642 8.4003L10.6542 5.4603C10.2442 5.3703 9.81416 5.4403 9.45416 5.6503C8.27416 6.3303 8.34416 8.0603 9.58416 8.6403L17.4142 12.3003Z"
        fill="url(#paint9_linear_18_12611)" />
    <path
        d="M17.4142 12.3003L24.1642 8.4003L10.6542 5.4603C10.2442 5.3703 9.81416 5.4403 9.45416 5.6503C8.27416 6.3303 8.34416 8.0603 9.58416 8.6403L17.4142 12.3003Z"
        fill="url(#paint10_linear_18_12611)" />
    <path
        d="M4.01416 14.4103L4.49416 15.2503C5.41416 16.8503 7.03416 17.9103 8.86416 18.1303C10.1142 18.2803 11.3742 18.0203 12.4642 17.3903L28.1842 8.32029C29.7542 7.41029 30.2742 5.36029 29.3342 3.73029C28.3942 2.10029 26.3542 1.52029 24.7842 2.43029L4.01416 14.4103Z"
        fill="#D7D4E2" />
    <path
        d="M4.01416 14.4103L4.49416 15.2503C5.41416 16.8503 7.03416 17.9103 8.86416 18.1303C10.1142 18.2803 11.3742 18.0203 12.4642 17.3903L28.1842 8.32029C29.7542 7.41029 30.2742 5.36029 29.3342 3.73029C28.3942 2.10029 26.3542 1.52029 24.7842 2.43029L4.01416 14.4103Z"
        fill="url(#paint11_linear_18_12611)" />
    <path
        d="M4.01416 14.4103L4.49416 15.2503C5.41416 16.8503 7.03416 17.9103 8.86416 18.1303C10.1142 18.2803 11.3742 18.0203 12.4642 17.3903L28.1842 8.32029C29.7542 7.41029 30.2742 5.36029 29.3342 3.73029C28.3942 2.10029 26.3542 1.52029 24.7842 2.43029L4.01416 14.4103Z"
        fill="url(#paint12_linear_18_12611)" />
    <path
        d="M4.01416 14.4103L4.49416 15.2503C5.41416 16.8503 7.03416 17.9103 8.86416 18.1303C10.1142 18.2803 11.3742 18.0203 12.4642 17.3903L28.1842 8.32029C29.7542 7.41029 30.2742 5.36029 29.3342 3.73029C28.3942 2.10029 26.3542 1.52029 24.7842 2.43029L4.01416 14.4103Z"
        fill="url(#paint13_radial_18_12611)" />
    <path
        d="M4.01416 14.4103L4.49416 15.2503C5.41416 16.8503 7.03416 17.9103 8.86416 18.1303C10.1142 18.2803 11.3742 18.0203 12.4642 17.3903L28.1842 8.32029C29.7542 7.41029 30.2742 5.36029 29.3342 3.73029C28.3942 2.10029 26.3542 1.52029 24.7842 2.43029L4.01416 14.4103Z"
        fill="url(#paint14_linear_18_12611)" />
    <path
        d="M4.01416 14.4103L4.49416 15.2503C5.41416 16.8503 7.03416 17.9103 8.86416 18.1303C10.1142 18.2803 11.3742 18.0203 12.4642 17.3903L28.1842 8.32029C29.7542 7.41029 30.2742 5.36029 29.3342 3.73029C28.3942 2.10029 26.3542 1.52029 24.7842 2.43029L4.01416 14.4103Z"
        fill="url(#paint15_radial_18_12611)" />
    <path
        d="M4.01416 14.4103L4.49416 15.2503C5.41416 16.8503 7.03416 17.9103 8.86416 18.1303C10.1142 18.2803 11.3742 18.0203 12.4642 17.3903L28.1842 8.32029C29.7542 7.41029 30.2742 5.36029 29.3342 3.73029C28.3942 2.10029 26.3542 1.52029 24.7842 2.43029L4.01416 14.4103Z"
        fill="url(#paint16_radial_18_12611)" />
    <path fill-rule="evenodd" clip-rule="evenodd"
        d="M28.3328 2.62671L25.324 4.36026C24.964 4.56026 24.844 5.01026 25.054 5.36026C25.254 5.71026 25.704 5.83026 26.054 5.63026L29.3365 3.73463C29.3356 3.73319 29.3348 3.73175 29.334 3.73031C29.0736 3.27874 28.7287 2.90775 28.3328 2.62671Z"
        fill="url(#paint17_linear_18_12611)" />
    <path fill-rule="evenodd" clip-rule="evenodd"
        d="M28.3328 2.62671L25.324 4.36026C24.964 4.56026 24.844 5.01026 25.054 5.36026C25.254 5.71026 25.704 5.83026 26.054 5.63026L29.3365 3.73463C29.3356 3.73319 29.3348 3.73175 29.334 3.73031C29.0736 3.27874 28.7287 2.90775 28.3328 2.62671Z"
        fill="url(#paint18_linear_18_12611)" />
    <path fill-rule="evenodd" clip-rule="evenodd"
        d="M28.3328 2.62671L25.324 4.36026C24.964 4.56026 24.844 5.01026 25.054 5.36026C25.254 5.71026 25.704 5.83026 26.054 5.63026L29.3365 3.73463C29.3356 3.73319 29.3348 3.73175 29.334 3.73031C29.0736 3.27874 28.7287 2.90775 28.3328 2.62671Z"
        fill="url(#paint19_linear_18_12611)" />
    <path
        d="M9.08424 11.4902L6.14424 9.85022C4.88424 9.16022 3.35424 9.17022 2.10424 9.89022C1.81424 10.0602 1.71424 10.4302 1.88424 10.7202L4.01424 14.4102L9.08424 11.4902Z"
        fill="url(#paint20_linear_18_12611)" />
    <path
        d="M9.08424 11.4902L6.14424 9.85022C4.88424 9.16022 3.35424 9.17022 2.10424 9.89022C1.81424 10.0602 1.71424 10.4302 1.88424 10.7202L4.01424 14.4102L9.08424 11.4902Z"
        fill="url(#paint21_linear_18_12611)" />
    <path
        d="M9.08424 11.4902L6.14424 9.85022C4.88424 9.16022 3.35424 9.17022 2.10424 9.89022C1.81424 10.0602 1.71424 10.4302 1.88424 10.7202L4.01424 14.4102L9.08424 11.4902Z"
        fill="url(#paint22_linear_18_12611)" />
    <path
        d="M9.08424 11.4902L6.14424 9.85022C4.88424 9.16022 3.35424 9.17022 2.10424 9.89022C1.81424 10.0602 1.71424 10.4302 1.88424 10.7202L4.01424 14.4102L9.08424 11.4902Z"
        fill="url(#paint23_linear_18_12611)" />
    <path
        d="M9.08424 11.4902L6.14424 9.85022C4.88424 9.16022 3.35424 9.17022 2.10424 9.89022C1.81424 10.0602 1.71424 10.4302 1.88424 10.7202L4.01424 14.4102L9.08424 11.4902Z"
        fill="url(#paint24_linear_18_12611)" />
    <path
        d="M17.4741 11.1403L21.6241 8.74029C22.3441 8.32029 23.2041 9.01029 22.9541 9.81029L19.4641 20.7303C19.3341 21.1303 19.0641 21.4703 18.7041 21.6803C17.5241 22.3603 16.0541 21.4303 16.1741 20.0703L16.8741 12.0903C16.9141 11.6903 17.1341 11.3303 17.4741 11.1403Z"
        fill="url(#paint25_linear_18_12611)" />
    <path
        d="M17.4741 11.1403L21.6241 8.74029C22.3441 8.32029 23.2041 9.01029 22.9541 9.81029L19.4641 20.7303C19.3341 21.1303 19.0641 21.4703 18.7041 21.6803C17.5241 22.3603 16.0541 21.4303 16.1741 20.0703L16.8741 12.0903C16.9141 11.6903 17.1341 11.3303 17.4741 11.1403Z"
        fill="url(#paint26_linear_18_12611)" />
    <path
        d="M17.4741 11.1403L21.6241 8.74029C22.3441 8.32029 23.2041 9.01029 22.9541 9.81029L19.4641 20.7303C19.3341 21.1303 19.0641 21.4703 18.7041 21.6803C17.5241 22.3603 16.0541 21.4303 16.1741 20.0703L16.8741 12.0903C16.9141 11.6903 17.1341 11.3303 17.4741 11.1403Z"
        fill="url(#paint27_linear_18_12611)" />
    <path
        d="M17.4741 11.1403L21.6241 8.74029C22.3441 8.32029 23.2041 9.01029 22.9541 9.81029L19.4641 20.7303C19.3341 21.1303 19.0641 21.4703 18.7041 21.6803C17.5241 22.3603 16.0541 21.4303 16.1741 20.0703L16.8741 12.0903C16.9141 11.6903 17.1341 11.3303 17.4741 11.1403Z"
        fill="url(#paint28_linear_18_12611)" />
    <path
        d="M17.4741 11.1403L21.6241 8.74029C22.3441 8.32029 23.2041 9.01029 22.9541 9.81029L19.4641 20.7303C19.3341 21.1303 19.0641 21.4703 18.7041 21.6803C17.5241 22.3603 16.0541 21.4303 16.1741 20.0703L16.8741 12.0903C16.9141 11.6903 17.1341 11.3303 17.4741 11.1403Z"
        fill="url(#paint29_linear_18_12611)" />
    <path
        d="M17.4741 11.1403L21.6241 8.74029C22.3441 8.32029 23.2041 9.01029 22.9541 9.81029L19.4641 20.7303C19.3341 21.1303 19.0641 21.4703 18.7041 21.6803C17.5241 22.3603 16.0541 21.4303 16.1741 20.0703L16.8741 12.0903C16.9141 11.6903 17.1341 11.3303 17.4741 11.1403Z"
        fill="url(#paint30_linear_18_12611)" />
    <rect x="3.44849" y="26.4167" width="4.03478" height="1.08044" rx="0.540222" fill="#A6A3B4" />
    <rect x="10.1675" y="26.4167" width="4.03478" height="1.08044" rx="0.540222" fill="#A6A3B4" />
    <rect x="16.7322" y="26.4167" width="4.03478" height="1.08044" rx="0.540222" fill="#A6A3B4" />
    <rect x="23.4512" y="26.4167" width="4.03478" height="1.08044" rx="0.540222" fill="#A6A3B4" />
    <defs>
        <linearGradient id="paint0_linear_18_12611" x1="20.899" y1="16.1449" x2="20.6546"
            y2="17.8458" gradientUnits="userSpaceOnUse">
            <stop stop-color="#626A78" />
            <stop offset="0.5617" stop-color="#818094" />
        </linearGradient>
        <linearGradient id="paint1_linear_18_12611" x1="21.0252" y1="17.9573" x2="21.0427"
            y2="17.6455" gradientUnits="userSpaceOnUse">
            <stop stop-color="#75708A" />
            <stop offset="1" stop-color="#75708A" stop-opacity="0" />
        </linearGradient>
        <radialGradient id="paint2_radial_18_12611" cx="0" cy="0" r="1"
            gradientUnits="userSpaceOnUse"
            gradientTransform="translate(22.7929 17.0063) rotate(179.625) scale(1.04691 1.12192)">
            <stop offset="0.103693" stop-color="#AEADB3" />
            <stop offset="1" stop-color="#AEADB3" stop-opacity="0" />
        </radialGradient>
        <linearGradient id="paint3_linear_18_12611" x1="16.1363" y1="8.15441" x2="15.8919"
            y2="9.85535" gradientUnits="userSpaceOnUse">
            <stop stop-color="#626A78" />
            <stop offset="0.5617" stop-color="#818094" />
        </linearGradient>
        <linearGradient id="paint4_linear_18_12611" x1="16.2625" y1="9.96677" x2="16.28"
            y2="9.65505" gradientUnits="userSpaceOnUse">
            <stop stop-color="#75708A" />
            <stop offset="1" stop-color="#75708A" stop-opacity="0" />
        </linearGradient>
        <radialGradient id="paint5_radial_18_12611" cx="0" cy="0" r="1"
            gradientUnits="userSpaceOnUse"
            gradientTransform="translate(18.5755 9.07271) rotate(177.789) scale(1.36279 1.46044)">
            <stop offset="0.103693" stop-color="#AEADB3" />
            <stop offset="1" stop-color="#AEADB3" stop-opacity="0" />
        </radialGradient>
        <linearGradient id="paint6_linear_18_12611" x1="15.802" y1="24.0569" x2="15.802"
            y2="29.9374" gradientUnits="userSpaceOnUse">
            <stop stop-color="#605E6B" />
            <stop offset="1" stop-color="#777484" />
        </linearGradient>
        <linearGradient id="paint7_linear_18_12611" x1="16.4353" y1="8.77801" x2="7.29129"
            y2="5.43333" gradientUnits="userSpaceOnUse">
            <stop stop-color="#328CC4" />
            <stop offset="1" stop-color="#34A5E4" />
        </linearGradient>
        <linearGradient id="paint8_linear_18_12611" x1="14" y1="6" x2="10.5" y2="20.5"
            gradientUnits="userSpaceOnUse">
            <stop offset="0.00793187" stop-color="#4BBDFD" />
            <stop offset="0.0416774" stop-color="#4BBDFD" stop-opacity="0" />
        </linearGradient>
        <linearGradient id="paint9_linear_18_12611" x1="14.8425" y1="6.26312" x2="14.749"
            y2="6.67847" gradientUnits="userSpaceOnUse">
            <stop stop-color="#49AEE8" />
            <stop offset="1" stop-color="#49AEE8" stop-opacity="0" />
        </linearGradient>
        <linearGradient id="paint10_linear_18_12611" x1="11" y1="9.5" x2="13" y2="5"
            gradientUnits="userSpaceOnUse">
            <stop offset="0.0624999" stop-color="#4685C2" />
            <stop offset="0.149807" stop-color="#4685C2" stop-opacity="0" />
        </linearGradient>
        <linearGradient id="paint11_linear_18_12611" x1="11.5" y1="19" x2="5.5" y2="8"
            gradientUnits="userSpaceOnUse">
            <stop stop-color="#998FBC" />
            <stop offset="0.251124" stop-color="#998FBC" stop-opacity="0" />
            <stop offset="0.578026" stop-color="#998FBC" stop-opacity="0" />
            <stop offset="0.832006" stop-color="#998FBC" />
        </linearGradient>
        <linearGradient id="paint12_linear_18_12611" x1="6" y1="17" x2="10" y2="8"
            gradientUnits="userSpaceOnUse">
            <stop offset="0.0133971" stop-color="#958BBA" />
            <stop offset="0.231742" stop-color="#958BBA" stop-opacity="0" />
        </linearGradient>
        <radialGradient id="paint13_radial_18_12611" cx="0" cy="0" r="1"
            gradientUnits="userSpaceOnUse"
            gradientTransform="translate(8.9826 16.468) rotate(-33.7669) scale(24.4605 12.6694)">
            <stop offset="0.868331" stop-color="white" stop-opacity="0" />
            <stop offset="1" stop-color="white" />
        </radialGradient>
        <linearGradient id="paint14_linear_18_12611" x1="14.2435" y1="7.54224" x2="14.9528"
            y2="8.75402" gradientUnits="userSpaceOnUse">
            <stop stop-color="#B6B6B7" />
            <stop offset="1" stop-color="#B6B6B7" stop-opacity="0" />
        </linearGradient>
        <radialGradient id="paint15_radial_18_12611" cx="0" cy="0" r="1"
            gradientUnits="userSpaceOnUse"
            gradientTransform="translate(16.6913 14.7812) rotate(115.547) scale(5.50719 1.30826)">
            <stop offset="0.086715" stop-color="#7F81A3" />
            <stop offset="1" stop-color="#7F81A3" stop-opacity="0" />
        </radialGradient>
        <radialGradient id="paint16_radial_18_12611" cx="0" cy="0" r="1"
            gradientUnits="userSpaceOnUse"
            gradientTransform="translate(4.19128 14.3437) rotate(-1.24536) scale(4.31352 1.65729)">
            <stop stop-color="#C2C2C8" />
            <stop offset="1" stop-color="#C2C2C8" stop-opacity="0" />
        </radialGradient>
        <linearGradient id="paint17_linear_18_12611" x1="25.0458" y1="5.50295" x2="30.08"
            y2="2.45582" gradientUnits="userSpaceOnUse">
            <stop stop-color="#83F6FF" />
            <stop offset="0.100353" stop-color="#95E9F7" />
        </linearGradient>
        <linearGradient id="paint18_linear_18_12611" x1="26.7536" y1="3.51564" x2="26.863"
            y2="3.70314" gradientUnits="userSpaceOnUse">
            <stop stop-color="#71C9DE" />
            <stop offset="1" stop-color="#71C9DE" stop-opacity="0" />
        </linearGradient>
        <linearGradient id="paint19_linear_18_12611" x1="27.5192" y1="4.90627" x2="27.238"
            y2="4.42189" gradientUnits="userSpaceOnUse">
            <stop stop-color="#71C9DE" />
            <stop offset="1" stop-color="#71C9DE" stop-opacity="0" />
        </linearGradient>
        <linearGradient id="paint20_linear_18_12611" x1="6.86784" y1="13.3448" x2="3.79423"
            y2="8.85895" gradientUnits="userSpaceOnUse">
            <stop offset="0.0722477" stop-color="#399BDA" />
            <stop offset="1" stop-color="#3BA9F1" />
        </linearGradient>
        <linearGradient id="paint21_linear_18_12611" x1="3.43185" y1="13.2766" x2="3.8544"
            y2="13.0295" gradientUnits="userSpaceOnUse">
            <stop stop-color="#4685C2" />
            <stop offset="1" stop-color="#4685C2" stop-opacity="0" />
        </linearGradient>
        <linearGradient id="paint22_linear_18_12611" x1="7.00012" y1="9.99988" x2="5.00012"
            y2="13.4999" gradientUnits="userSpaceOnUse">
            <stop offset="0.111489" stop-color="#4BBDFD" />
            <stop offset="0.198068" stop-color="#4BBDFD" stop-opacity="0" />
        </linearGradient>
        <linearGradient id="paint23_linear_18_12611" x1="3.00012" y1="9.49988" x2="6.00012"
            y2="20.9999" gradientUnits="userSpaceOnUse">
            <stop offset="0.00793187" stop-color="#4BBDFD" />
            <stop offset="0.0468346" stop-color="#4BBDFD" stop-opacity="0" />
        </linearGradient>
        <linearGradient id="paint24_linear_18_12611" x1="5.00012" y1="9.49988" x2="2.00012"
            y2="20.9999" gradientUnits="userSpaceOnUse">
            <stop offset="0.00793187" stop-color="#4BBDFD" />
            <stop offset="0.0416774" stop-color="#4BBDFD" stop-opacity="0" />
        </linearGradient>
        <linearGradient id="paint25_linear_18_12611" x1="21.5975" y1="8.61328" x2="17.41" y2="22.25"
            gradientUnits="userSpaceOnUse">
            <stop stop-color="#2E83C4" />
            <stop offset="1" stop-color="#32AEF4" />
        </linearGradient>
        <linearGradient id="paint26_linear_18_12611" x1="21.2928" y1="15.6568" x2="20.5044"
            y2="15.394" gradientUnits="userSpaceOnUse">
            <stop stop-color="#41B6FD" />
            <stop offset="1" stop-color="#41B6FD" stop-opacity="0" />
        </linearGradient>
        <linearGradient id="paint27_linear_18_12611" x1="21.2928" y1="15.6568" x2="20.5044"
            y2="15.394" gradientUnits="userSpaceOnUse">
            <stop offset="0.242308" stop-color="#4EB0F0" />
            <stop offset="0.741742" stop-color="#4EB0F0" stop-opacity="0" />
        </linearGradient>
        <linearGradient id="paint28_linear_18_12611" x1="17.5" y1="22" x2="18.5" y2="16"
            gradientUnits="userSpaceOnUse">
            <stop offset="0.0346283" stop-color="#2F7ACF" />
            <stop offset="0.104307" stop-color="#2F7ACF" stop-opacity="0" />
        </linearGradient>
        <linearGradient id="paint29_linear_18_12611" x1="16" y1="18" x2="25" y2="19"
            gradientUnits="userSpaceOnUse">
            <stop offset="0.0283918" stop-color="#2F7ACF" />
            <stop offset="0.0750762" stop-color="#2F7ACF" stop-opacity="0" />
        </linearGradient>
        <linearGradient id="paint30_linear_18_12611" x1="16" y1="21.5" x2="23.5" y2="16"
            gradientUnits="userSpaceOnUse">
            <stop offset="0.0630871" stop-color="#2F7ACF" />
            <stop offset="0.121749" stop-color="#2F7ACF" stop-opacity="0" />
        </linearGradient>
    </defs>
</svg>