<svg width="32" height="32" viewBox="0 0 32 32" fill="none" xmlns="http://www.w3.org/2000/svg">
    <rect x="15.7065" y="6.67175" width="13.6135" height="12.7533"
        transform="rotate(45 15.7065 6.67175)" fill="#C4C4C4" />
    <path
        d="M4.17488 28.0659L3.93406 27.8251C1.35531 25.2464 1.35531 21.022 3.93406 18.4333L18.4333 3.93406C21.012 1.35531 25.2363 1.35531 27.8251 3.93406L28.0659 4.17488C30.6447 6.75363 30.6447 10.978 28.0659 13.5667L13.5667 28.0659C10.988 30.6447 6.75363 30.6447 4.17488 28.0659Z"
        fill="url(#paint0_linear_18_25310)" />
    <path
        d="M4.17488 28.0659L3.93406 27.8251C1.35531 25.2464 1.35531 21.022 3.93406 18.4333L18.4333 3.93406C21.012 1.35531 25.2363 1.35531 27.8251 3.93406L28.0659 4.17488C30.6447 6.75363 30.6447 10.978 28.0659 13.5667L13.5667 28.0659C10.988 30.6447 6.75363 30.6447 4.17488 28.0659Z"
        fill="url(#paint1_linear_18_25310)" />
    <path
        d="M4.17488 28.0659L3.93406 27.8251C1.35531 25.2464 1.35531 21.022 3.93406 18.4333L18.4333 3.93406C21.012 1.35531 25.2363 1.35531 27.8251 3.93406L28.0659 4.17488C30.6447 6.75363 30.6447 10.978 28.0659 13.5667L13.5667 28.0659C10.988 30.6447 6.75363 30.6447 4.17488 28.0659Z"
        fill="url(#paint2_radial_18_25310)" />
    <path
        d="M4.17488 28.0659L3.93406 27.8251C1.35531 25.2464 1.35531 21.022 3.93406 18.4333L18.4333 3.93406C21.012 1.35531 25.2363 1.35531 27.8251 3.93406L28.0659 4.17488C30.6447 6.75363 30.6447 10.978 28.0659 13.5667L13.5667 28.0659C10.988 30.6447 6.75363 30.6447 4.17488 28.0659Z"
        fill="url(#paint3_radial_18_25310)" />
    <path
        d="M4.17488 28.0659L3.93406 27.8251C1.35531 25.2464 1.35531 21.022 3.93406 18.4333L18.4333 3.93406C21.012 1.35531 25.2363 1.35531 27.8251 3.93406L28.0659 4.17488C30.6447 6.75363 30.6447 10.978 28.0659 13.5667L13.5667 28.0659C10.988 30.6447 6.75363 30.6447 4.17488 28.0659Z"
        fill="url(#paint4_linear_18_25310)" />
    <path
        d="M20.5 8.025C20.7899 8.025 21.025 7.78995 21.025 7.5C21.025 7.21005 20.7899 6.975 20.5 6.975C20.2101 6.975 19.975 7.21005 19.975 7.5C19.975 7.78995 20.2101 8.025 20.5 8.025Z"
        fill="url(#paint5_radial_18_25310)" stroke="url(#paint6_linear_18_25310)"
        stroke-width="0.05" />
    <path
        d="M22.5 10.025C22.7899 10.025 23.025 9.78995 23.025 9.5C23.025 9.21005 22.7899 8.975 22.5 8.975C22.2101 8.975 21.975 9.21005 21.975 9.5C21.975 9.78995 22.2101 10.025 22.5 10.025Z"
        fill="url(#paint7_radial_18_25310)" stroke="url(#paint8_linear_18_25310)"
        stroke-width="0.05" />
    <path
        d="M24.5 12.025C24.7899 12.025 25.025 11.7899 25.025 11.5C25.025 11.2101 24.7899 10.975 24.5 10.975C24.2101 10.975 23.975 11.2101 23.975 11.5C23.975 11.7899 24.2101 12.025 24.5 12.025Z"
        fill="url(#paint9_radial_18_25310)" stroke="url(#paint10_linear_18_25310)"
        stroke-width="0.05" />
    <path
        d="M22.5 6.025C22.7899 6.025 23.025 5.78995 23.025 5.5C23.025 5.21005 22.7899 4.975 22.5 4.975C22.2101 4.975 21.975 5.21005 21.975 5.5C21.975 5.78995 22.2101 6.025 22.5 6.025Z"
        fill="url(#paint11_radial_18_25310)" stroke="url(#paint12_linear_18_25310)"
        stroke-width="0.05" />
    <path
        d="M24.5 8.025C24.7899 8.025 25.025 7.78995 25.025 7.5C25.025 7.21005 24.7899 6.975 24.5 6.975C24.2101 6.975 23.975 7.21005 23.975 7.5C23.975 7.78995 24.2101 8.025 24.5 8.025Z"
        fill="url(#paint13_radial_18_25310)" stroke="url(#paint14_linear_18_25310)"
        stroke-width="0.05" />
    <path
        d="M26.5 10.025C26.7899 10.025 27.025 9.78995 27.025 9.5C27.025 9.21005 26.7899 8.975 26.5 8.975C26.2101 8.975 25.975 9.21005 25.975 9.5C25.975 9.78995 26.2101 10.025 26.5 10.025Z"
        fill="url(#paint15_radial_18_25310)" stroke="url(#paint16_linear_18_25310)"
        stroke-width="0.05" />
    <path
        d="M7.5 21.025C7.78995 21.025 8.025 20.7899 8.025 20.5C8.025 20.21 7.78995 19.975 7.5 19.975C7.21005 19.975 6.975 20.21 6.975 20.5C6.975 20.7899 7.21005 21.025 7.5 21.025Z"
        fill="url(#paint17_radial_18_25310)" stroke="url(#paint18_linear_18_25310)"
        stroke-width="0.05" />
    <path
        d="M5.5 23.025C5.78995 23.025 6.025 22.7899 6.025 22.5C6.025 22.21 5.78995 21.975 5.5 21.975C5.21005 21.975 4.975 22.21 4.975 22.5C4.975 22.7899 5.21005 23.025 5.5 23.025Z"
        fill="url(#paint19_radial_18_25310)" stroke="url(#paint20_linear_18_25310)"
        stroke-width="0.05" />
    <path
        d="M9.5 23.025C9.78995 23.025 10.025 22.79 10.025 22.5C10.025 22.2101 9.78995 21.975 9.5 21.975C9.21005 21.975 8.975 22.2101 8.975 22.5C8.975 22.79 9.21005 23.025 9.5 23.025Z"
        fill="url(#paint21_radial_18_25310)" stroke="url(#paint22_linear_18_25310)"
        stroke-width="0.05" />
    <path
        d="M7.5 25.025C7.78995 25.025 8.025 24.79 8.025 24.5C8.025 24.2101 7.78995 23.975 7.5 23.975C7.21005 23.975 6.975 24.2101 6.975 24.5C6.975 24.79 7.21005 25.025 7.5 25.025Z"
        fill="url(#paint23_radial_18_25310)" stroke="url(#paint24_linear_18_25310)"
        stroke-width="0.05" />
    <path
        d="M11.5 25.025C11.7899 25.025 12.025 24.79 12.025 24.5C12.025 24.2101 11.7899 23.975 11.5 23.975C11.21 23.975 10.975 24.2101 10.975 24.5C10.975 24.79 11.2101 25.025 11.5 25.025Z"
        fill="url(#paint25_radial_18_25310)" stroke="url(#paint26_linear_18_25310)"
        stroke-width="0.05" />
    <path
        d="M9.5 27.025C9.78995 27.025 10.025 26.79 10.025 26.5C10.025 26.2101 9.78995 25.975 9.5 25.975C9.21005 25.975 8.975 26.2101 8.975 26.5C8.975 26.79 9.21005 27.025 9.5 27.025Z"
        fill="url(#paint27_radial_18_25310)" stroke="url(#paint28_linear_18_25310)"
        stroke-width="0.05" />
    <rect x="16.02" y="6.12061" width="13.9337" height="13.9722" rx="0.25"
        transform="rotate(45 16.02 6.12061)" fill="url(#paint29_linear_18_25310)" />
    <rect x="16.02" y="6.12061" width="13.9337" height="13.9722" rx="0.25"
        transform="rotate(45 16.02 6.12061)" fill="url(#paint30_linear_18_25310)" />
    <defs>
        <linearGradient id="paint0_linear_18_25310" x1="11.1839" y1="11.1832" x2="20.815"
            y2="20.8143" gradientUnits="userSpaceOnUse">
            <stop offset="0.174903" stop-color="#59D7FF" />
            <stop offset="0.868578" stop-color="#3CB7FF" />
        </linearGradient>
        <linearGradient id="paint1_linear_18_25310" x1="15.4062" y1="26.4846" x2="15.1914"
            y2="26.2659" gradientUnits="userSpaceOnUse">
            <stop offset="0.306682" stop-color="#2E63E8" />
            <stop offset="1" stop-color="#2E63E8" stop-opacity="0" />
        </linearGradient>
        <radialGradient id="paint2_radial_18_25310" cx="0" cy="0" r="1"
            gradientUnits="userSpaceOnUse"
            gradientTransform="translate(9.6242 22.9723) rotate(-46.1751) scale(7.72755)">
            <stop offset="0.928842" stop-color="#41ACCD" stop-opacity="0" />
            <stop offset="1" stop-color="#3388A3" />
        </radialGradient>
        <radialGradient id="paint3_radial_18_25310" cx="0" cy="0" r="1"
            gradientUnits="userSpaceOnUse"
            gradientTransform="translate(19.2616 3.36136) rotate(48.5035) scale(17.5052)">
            <stop offset="0.174903" stop-color="#59D7FF" />
            <stop offset="0.705538" stop-color="#3CB7FF" />
            <stop offset="0.918385" stop-color="#3CB7FF" stop-opacity="0" />
        </radialGradient>
        <linearGradient id="paint4_linear_18_25310" x1="4.77841" y1="8.19568" x2="12.1638"
            y2="15.581" gradientUnits="userSpaceOnUse">
            <stop offset="0.615183" stop-color="#3388A3" />
            <stop offset="0.671875" stop-color="#41ACCD" stop-opacity="0" />
        </linearGradient>
        <radialGradient id="paint5_radial_18_25310" cx="0" cy="0" r="1"
            gradientUnits="userSpaceOnUse"
            gradientTransform="translate(20.1753 7.83182) rotate(-45) scale(1.02199 0.820861)">
            <stop offset="0.194595" stop-color="#33ABE8" />
            <stop offset="0.572222" stop-color="#138DD5" />
            <stop offset="1" stop-color="#1771C8" />
        </radialGradient>
        <linearGradient id="paint6_linear_18_25310" x1="20.0937" y1="7.87526" x2="20.4531" y2="7.5"
            gradientUnits="userSpaceOnUse">
            <stop stop-color="#64DCFF" />
            <stop offset="1" stop-color="#64DCFF" stop-opacity="0" />
        </linearGradient>
        <radialGradient id="paint7_radial_18_25310" cx="0" cy="0" r="1"
            gradientUnits="userSpaceOnUse"
            gradientTransform="translate(22.1753 9.83182) rotate(-45) scale(1.02199 0.820861)">
            <stop offset="0.194595" stop-color="#33ABE8" />
            <stop offset="0.572222" stop-color="#138DD5" />
            <stop offset="1" stop-color="#1771C8" />
        </radialGradient>
        <linearGradient id="paint8_linear_18_25310" x1="22.0937" y1="9.87526" x2="22.4531" y2="9.5"
            gradientUnits="userSpaceOnUse">
            <stop stop-color="#64DCFF" />
            <stop offset="1" stop-color="#64DCFF" stop-opacity="0" />
        </linearGradient>
        <radialGradient id="paint9_radial_18_25310" cx="0" cy="0" r="1"
            gradientUnits="userSpaceOnUse"
            gradientTransform="translate(24.1753 11.8318) rotate(-45) scale(1.02199 0.820861)">
            <stop offset="0.194595" stop-color="#33ABE8" />
            <stop offset="0.572222" stop-color="#138DD5" />
            <stop offset="1" stop-color="#1771C8" />
        </radialGradient>
        <linearGradient id="paint10_linear_18_25310" x1="24.0937" y1="11.8753" x2="24.4531"
            y2="11.5" gradientUnits="userSpaceOnUse">
            <stop stop-color="#64DCFF" />
            <stop offset="1" stop-color="#64DCFF" stop-opacity="0" />
        </linearGradient>
        <radialGradient id="paint11_radial_18_25310" cx="0" cy="0" r="1"
            gradientUnits="userSpaceOnUse"
            gradientTransform="translate(22.1753 5.83182) rotate(-45) scale(1.02199 0.820861)">
            <stop offset="0.194595" stop-color="#33ABE8" />
            <stop offset="0.572222" stop-color="#138DD5" />
            <stop offset="1" stop-color="#1771C8" />
        </radialGradient>
        <linearGradient id="paint12_linear_18_25310" x1="22.0937" y1="5.87526" x2="22.4531" y2="5.5"
            gradientUnits="userSpaceOnUse">
            <stop stop-color="#64DCFF" />
            <stop offset="1" stop-color="#64DCFF" stop-opacity="0" />
        </linearGradient>
        <radialGradient id="paint13_radial_18_25310" cx="0" cy="0" r="1"
            gradientUnits="userSpaceOnUse"
            gradientTransform="translate(24.1753 7.83182) rotate(-45) scale(1.02199 0.820861)">
            <stop offset="0.194595" stop-color="#33ABE8" />
            <stop offset="0.572222" stop-color="#138DD5" />
            <stop offset="1" stop-color="#1771C8" />
        </radialGradient>
        <linearGradient id="paint14_linear_18_25310" x1="24.0937" y1="7.87526" x2="24.4531" y2="7.5"
            gradientUnits="userSpaceOnUse">
            <stop stop-color="#64DCFF" />
            <stop offset="1" stop-color="#64DCFF" stop-opacity="0" />
        </linearGradient>
        <radialGradient id="paint15_radial_18_25310" cx="0" cy="0" r="1"
            gradientUnits="userSpaceOnUse"
            gradientTransform="translate(26.1753 9.83182) rotate(-45) scale(1.02199 0.820861)">
            <stop offset="0.194595" stop-color="#33ABE8" />
            <stop offset="0.572222" stop-color="#138DD5" />
            <stop offset="1" stop-color="#1771C8" />
        </radialGradient>
        <linearGradient id="paint16_linear_18_25310" x1="26.0937" y1="9.87526" x2="26.4531" y2="9.5"
            gradientUnits="userSpaceOnUse">
            <stop stop-color="#64DCFF" />
            <stop offset="1" stop-color="#64DCFF" stop-opacity="0" />
        </linearGradient>
        <radialGradient id="paint17_radial_18_25310" cx="0" cy="0" r="1"
            gradientUnits="userSpaceOnUse"
            gradientTransform="translate(7.17531 20.8318) rotate(-45) scale(1.02199 0.820861)">
            <stop offset="0.194595" stop-color="#33ABE8" />
            <stop offset="0.572222" stop-color="#138DD5" />
            <stop offset="1" stop-color="#1771C8" />
        </radialGradient>
        <linearGradient id="paint18_linear_18_25310" x1="7.09375" y1="20.8753" x2="7.45313"
            y2="20.5" gradientUnits="userSpaceOnUse">
            <stop stop-color="#64DCFF" />
            <stop offset="1" stop-color="#64DCFF" stop-opacity="0" />
        </linearGradient>
        <radialGradient id="paint19_radial_18_25310" cx="0" cy="0" r="1"
            gradientUnits="userSpaceOnUse"
            gradientTransform="translate(5.17531 22.8318) rotate(-45) scale(1.02199 0.820861)">
            <stop offset="0.194595" stop-color="#33ABE8" />
            <stop offset="0.572222" stop-color="#138DD5" />
            <stop offset="1" stop-color="#1771C8" />
        </radialGradient>
        <linearGradient id="paint20_linear_18_25310" x1="5.09375" y1="22.8753" x2="5.45313"
            y2="22.5" gradientUnits="userSpaceOnUse">
            <stop stop-color="#64DCFF" />
            <stop offset="1" stop-color="#64DCFF" stop-opacity="0" />
        </linearGradient>
        <radialGradient id="paint21_radial_18_25310" cx="0" cy="0" r="1"
            gradientUnits="userSpaceOnUse"
            gradientTransform="translate(9.17531 22.8318) rotate(-45) scale(1.02199 0.820861)">
            <stop offset="0.194595" stop-color="#33ABE8" />
            <stop offset="0.572222" stop-color="#138DD5" />
            <stop offset="1" stop-color="#1771C8" />
        </radialGradient>
        <linearGradient id="paint22_linear_18_25310" x1="9.09375" y1="22.8753" x2="9.45313"
            y2="22.5" gradientUnits="userSpaceOnUse">
            <stop stop-color="#64DCFF" />
            <stop offset="1" stop-color="#64DCFF" stop-opacity="0" />
        </linearGradient>
        <radialGradient id="paint23_radial_18_25310" cx="0" cy="0" r="1"
            gradientUnits="userSpaceOnUse"
            gradientTransform="translate(7.17531 24.8318) rotate(-45) scale(1.02199 0.820861)">
            <stop offset="0.194595" stop-color="#33ABE8" />
            <stop offset="0.572222" stop-color="#138DD5" />
            <stop offset="1" stop-color="#1771C8" />
        </radialGradient>
        <linearGradient id="paint24_linear_18_25310" x1="7.09375" y1="24.8753" x2="7.45313"
            y2="24.5" gradientUnits="userSpaceOnUse">
            <stop stop-color="#64DCFF" />
            <stop offset="1" stop-color="#64DCFF" stop-opacity="0" />
        </linearGradient>
        <radialGradient id="paint25_radial_18_25310" cx="0" cy="0" r="1"
            gradientUnits="userSpaceOnUse"
            gradientTransform="translate(11.1753 24.8318) rotate(-45) scale(1.02199 0.820861)">
            <stop offset="0.194595" stop-color="#33ABE8" />
            <stop offset="0.572222" stop-color="#138DD5" />
            <stop offset="1" stop-color="#1771C8" />
        </radialGradient>
        <linearGradient id="paint26_linear_18_25310" x1="11.0937" y1="24.8753" x2="11.4531"
            y2="24.5" gradientUnits="userSpaceOnUse">
            <stop stop-color="#64DCFF" />
            <stop offset="1" stop-color="#64DCFF" stop-opacity="0" />
        </linearGradient>
        <radialGradient id="paint27_radial_18_25310" cx="0" cy="0" r="1"
            gradientUnits="userSpaceOnUse"
            gradientTransform="translate(9.17531 26.8318) rotate(-45) scale(1.02199 0.820861)">
            <stop offset="0.194595" stop-color="#33ABE8" />
            <stop offset="0.572222" stop-color="#138DD5" />
            <stop offset="1" stop-color="#1771C8" />
        </radialGradient>
        <linearGradient id="paint28_linear_18_25310" x1="9.09375" y1="26.8753" x2="9.45313"
            y2="26.5" gradientUnits="userSpaceOnUse">
            <stop stop-color="#64DCFF" />
            <stop offset="1" stop-color="#64DCFF" stop-opacity="0" />
        </linearGradient>
        <linearGradient id="paint29_linear_18_25310" x1="16.4445" y1="6.56438" x2="30.3657"
            y2="20.4855" gradientUnits="userSpaceOnUse">
            <stop offset="0.196825" stop-color="#32A3F0" />
            <stop offset="1" stop-color="#337DC0" />
        </linearGradient>
        <linearGradient id="paint30_linear_18_25310" x1="22.9869" y1="4.01164" x2="22.9869"
            y2="7.6206" gradientUnits="userSpaceOnUse">
            <stop offset="0.557725" stop-color="#7ADEFF" />
            <stop offset="0.682292" stop-color="#5BD5FD" stop-opacity="0" />
        </linearGradient>
    </defs>
</svg>