<svg width="32" height="32" viewBox="0 0 32 32" fill="none" xmlns="http://www.w3.org/2000/svg">
    <path
        d="M2.10938 5.85925C2.10938 3.78819 3.78831 2.10925 5.85937 2.10925H26.1409C28.212 2.10925 29.8909 3.78818 29.8909 5.85925V26.1408C29.8909 28.2119 28.212 29.8908 26.1409 29.8908H5.85938C3.78831 29.8908 2.10938 28.2119 2.10938 26.1408V5.85925Z"
        fill="url(#paint0_linear_18_18246)" />
    <path
        d="M2.10938 5.85925C2.10938 3.78819 3.78831 2.10925 5.85937 2.10925H26.1409C28.212 2.10925 29.8909 3.78818 29.8909 5.85925V26.1408C29.8909 28.2119 28.212 29.8908 26.1409 29.8908H5.85938C3.78831 29.8908 2.10938 28.2119 2.10938 26.1408V5.85925Z"
        fill="url(#paint1_linear_18_18246)" fill-opacity="0.8" />
    <path
        d="M2.10938 5.85925C2.10938 3.78819 3.78831 2.10925 5.85937 2.10925H26.1409C28.212 2.10925 29.8909 3.78818 29.8909 5.85925V26.1408C29.8909 28.2119 28.212 29.8908 26.1409 29.8908H5.85938C3.78831 29.8908 2.10938 28.2119 2.10938 26.1408V5.85925Z"
        fill="url(#paint2_linear_18_18246)" fill-opacity="0.8" />
    <path
        d="M2.10938 5.85925C2.10938 3.78819 3.78831 2.10925 5.85937 2.10925H26.1409C28.212 2.10925 29.8909 3.78818 29.8909 5.85925V26.1408C29.8909 28.2119 28.212 29.8908 26.1409 29.8908H5.85938C3.78831 29.8908 2.10938 28.2119 2.10938 26.1408V5.85925Z"
        fill="url(#paint3_linear_18_18246)" fill-opacity="0.8" />
    <path
        d="M2.10938 5.85925C2.10938 3.78819 3.78831 2.10925 5.85937 2.10925H26.1409C28.212 2.10925 29.8909 3.78818 29.8909 5.85925V26.1408C29.8909 28.2119 28.212 29.8908 26.1409 29.8908H5.85938C3.78831 29.8908 2.10938 28.2119 2.10938 26.1408V5.85925Z"
        fill="url(#paint4_linear_18_18246)" fill-opacity="0.8" />
    <path
        d="M2.10938 5.85925C2.10938 3.78819 3.78831 2.10925 5.85937 2.10925H26.1409C28.212 2.10925 29.8909 3.78818 29.8909 5.85925V26.1408C29.8909 28.2119 28.212 29.8908 26.1409 29.8908H5.85938C3.78831 29.8908 2.10938 28.2119 2.10938 26.1408V5.85925Z"
        fill="url(#paint5_linear_18_18246)" />
    <path
        d="M2.10938 5.85925C2.10938 3.78819 3.78831 2.10925 5.85937 2.10925H26.1409C28.212 2.10925 29.8909 3.78818 29.8909 5.85925V26.1408C29.8909 28.2119 28.212 29.8908 26.1409 29.8908H5.85938C3.78831 29.8908 2.10938 28.2119 2.10938 26.1408V5.85925Z"
        fill="url(#paint6_linear_18_18246)" fill-opacity="0.7" />
    <path
        d="M2.10938 5.85925C2.10938 3.78819 3.78831 2.10925 5.85937 2.10925H26.1409C28.212 2.10925 29.8909 3.78818 29.8909 5.85925V26.1408C29.8909 28.2119 28.212 29.8908 26.1409 29.8908H5.85938C3.78831 29.8908 2.10938 28.2119 2.10938 26.1408V5.85925Z"
        fill="url(#paint7_linear_18_18246)" fill-opacity="0.9" />
    <path
        d="M2.10938 5.85925C2.10938 3.78819 3.78831 2.10925 5.85937 2.10925H26.1409C28.212 2.10925 29.8909 3.78818 29.8909 5.85925V26.1408C29.8909 28.2119 28.212 29.8908 26.1409 29.8908H5.85938C3.78831 29.8908 2.10938 28.2119 2.10938 26.1408V5.85925Z"
        fill="url(#paint8_linear_18_18246)" fill-opacity="0.8" />
    <circle cx="9.38211" cy="11.0172" r="4.54983" fill="url(#paint9_linear_18_18246)" />
    <circle cx="9.38211" cy="11.0172" r="4.54983" fill="url(#paint10_radial_18_18246)"
        fill-opacity="0.4" />
    <circle cx="9.3821" cy="11.0172" r="3.41238" fill="url(#paint11_linear_18_18246)" />
    <circle cx="9.3821" cy="11.0172" r="3.41238" fill="url(#paint12_radial_18_18246)"
        fill-opacity="0.55" />
    <rect x="11.1216" y="8.43958" width="1.06852" height="3.52857" rx="0.53426"
        transform="rotate(45 11.1216 8.43958)" fill="#D8CEE4" />
    <rect x="11.1216" y="8.43958" width="1.06852" height="3.52857" rx="0.53426"
        transform="rotate(45 11.1216 8.43958)" fill="url(#paint13_linear_18_18246)"
        fill-opacity="0.8" />
    <circle cx="22.6524" cy="22.8054" r="4.54983" transform="rotate(-90 22.6524 22.8054)"
        fill="url(#paint14_linear_18_18246)" />
    <circle cx="22.6524" cy="22.8054" r="4.54983" transform="rotate(-90 22.6524 22.8054)"
        fill="url(#paint15_radial_18_18246)" fill-opacity="0.5" />
    <circle cx="22.6526" cy="22.8054" r="3.41238" transform="rotate(-180 22.6526 22.8054)"
        fill="url(#paint16_radial_18_18246)" />
    <circle cx="22.6526" cy="22.8054" r="3.41238" transform="rotate(-180 22.6526 22.8054)"
        fill="url(#paint17_radial_18_18246)" fill-opacity="0.55" />
    <rect x="20.0747" y="21.0659" width="1.06852" height="3.52857" rx="0.53426"
        transform="rotate(-45 20.0747 21.0659)" fill="#D8CEE4" />
    <rect x="20.0747" y="21.0659" width="1.06852" height="3.52857" rx="0.53426"
        transform="rotate(-45 20.0747 21.0659)" fill="url(#paint18_linear_18_18246)" />
    <circle cx="22.6524" cy="11.0172" r="4.54983" fill="url(#paint19_linear_18_18246)" />
    <circle cx="22.6524" cy="11.0172" r="4.54983" fill="url(#paint20_radial_18_18246)"
        fill-opacity="0.7" />
    <circle cx="22.6524" cy="11.0172" r="3.41238" fill="url(#paint21_linear_18_18246)" />
    <circle cx="22.6524" cy="11.0172" r="3.41238" fill="url(#paint22_radial_18_18246)"
        fill-opacity="0.55" />
    <circle cx="9.38205" cy="22.8054" r="4.54983" transform="rotate(-180 9.38205 22.8054)"
        fill="url(#paint23_linear_18_18246)" fill-opacity="0.7" />
    <circle cx="9.38205" cy="22.8054" r="4.54983" transform="rotate(-180 9.38205 22.8054)"
        fill="url(#paint24_radial_18_18246)" fill-opacity="0.4" />
    <circle cx="9.38206" cy="22.8054" r="3.41238" transform="rotate(-180 9.38206 22.8054)"
        fill="url(#paint25_radial_18_18246)" />
    <circle cx="9.38206" cy="22.8054" r="3.41238" transform="rotate(-180 9.38206 22.8054)"
        fill="url(#paint26_radial_18_18246)" fill-opacity="0.55" />
    <rect x="23.115" y="10.4829" width="1.06852" height="3.52857" rx="0.53426"
        transform="rotate(90 23.115 10.4829)" fill="#D8CEE4" />
    <rect x="23.115" y="10.4829" width="1.06852" height="3.52857" rx="0.53426"
        transform="rotate(90 23.115 10.4829)" fill="url(#paint27_linear_18_18246)"
        fill-opacity="0.8" />
    <rect width="1.21501" height="2.02502" rx="0.607505" transform="matrix(-1 0 0 1 10.106 4.1925)"
        fill="#A09DA6" />
    <rect width="1.21501" height="2.02502" rx="0.607505" transform="matrix(-1 0 0 1 10.106 4.1925)"
        fill="url(#paint28_linear_18_18246)" />
    <rect width="1.21501" height="2.02502" rx="0.607505" transform="matrix(-1 0 0 1 10.106 4.1925)"
        fill="url(#paint29_linear_18_18246)" />
    <rect x="5.53076" y="5.44263" width="1.21501" height="2.02502" rx="0.607505"
        transform="rotate(-33.3167 5.53076 5.44263)" fill="#A09DA6" />
    <rect x="5.53076" y="5.44263" width="1.21501" height="2.02502" rx="0.607505"
        transform="rotate(-33.3167 5.53076 5.44263)" fill="url(#paint30_linear_18_18246)" />
    <rect x="5.53076" y="5.44263" width="1.21501" height="2.02502" rx="0.607505"
        transform="rotate(-33.3167 5.53076 5.44263)" fill="url(#paint31_linear_18_18246)" />
    <rect width="1.21501" height="2.02502" rx="0.607505"
        transform="matrix(-0.835647 -0.549267 -0.549267 0.835647 13.4666 5.44263)" fill="#A09DA6" />
    <rect width="1.21501" height="2.02502" rx="0.607505"
        transform="matrix(-0.835647 -0.549267 -0.549267 0.835647 13.4666 5.44263)"
        fill="url(#paint32_linear_18_18246)" />
    <rect width="1.21501" height="2.02502" rx="0.607505"
        transform="matrix(-0.835647 -0.549267 -0.549267 0.835647 13.4666 5.44263)"
        fill="url(#paint33_linear_18_18246)" />
    <rect x="22.0447" y="4.1925" width="1.21501" height="2.02502" rx="0.607505" fill="#A09DA6" />
    <rect x="22.0447" y="4.1925" width="1.21501" height="2.02502" rx="0.607505"
        fill="url(#paint34_linear_18_18246)" />
    <rect x="22.0447" y="4.1925" width="1.21501" height="2.02502" rx="0.607505"
        fill="url(#paint35_linear_18_18246)" />
    <rect x="18.6846" y="5.44263" width="1.21501" height="2.02502" rx="0.607505"
        transform="rotate(-33.3167 18.6846 5.44263)" fill="#A09DA6" />
    <rect x="18.6846" y="5.44263" width="1.21501" height="2.02502" rx="0.607505"
        transform="rotate(-33.3167 18.6846 5.44263)" fill="url(#paint36_linear_18_18246)" />
    <rect x="18.6846" y="5.44263" width="1.21501" height="2.02502" rx="0.607505"
        transform="rotate(-33.3167 18.6846 5.44263)" fill="url(#paint37_linear_18_18246)" />
    <rect width="1.21501" height="2.02502" rx="0.607505"
        transform="matrix(-0.835647 -0.549267 -0.549267 0.835647 26.6204 5.44263)" fill="#A09DA6" />
    <rect width="1.21501" height="2.02502" rx="0.607505"
        transform="matrix(-0.835647 -0.549267 -0.549267 0.835647 26.6204 5.44263)"
        fill="url(#paint38_linear_18_18246)" />
    <rect width="1.21501" height="2.02502" rx="0.607505"
        transform="matrix(-0.835647 -0.549267 -0.549267 0.835647 26.6204 5.44263)"
        fill="url(#paint39_linear_18_18246)" />
    <rect x="22.0447" y="16.0089" width="1.21501" height="2.02502" rx="0.607505" fill="#A09DA6" />
    <rect x="22.0447" y="16.0089" width="1.21501" height="2.02502" rx="0.607505"
        fill="url(#paint40_linear_18_18246)" />
    <rect x="22.0447" y="16.0089" width="1.21501" height="2.02502" rx="0.607505"
        fill="url(#paint41_linear_18_18246)" />
    <rect x="18.6846" y="17.259" width="1.21501" height="2.02502" rx="0.607505"
        transform="rotate(-33.3167 18.6846 17.259)" fill="#A09DA6" />
    <rect x="18.6846" y="17.259" width="1.21501" height="2.02502" rx="0.607505"
        transform="rotate(-33.3167 18.6846 17.259)" fill="url(#paint42_linear_18_18246)" />
    <rect x="18.6846" y="17.259" width="1.21501" height="2.02502" rx="0.607505"
        transform="rotate(-33.3167 18.6846 17.259)" fill="url(#paint43_linear_18_18246)" />
    <rect width="1.21501" height="2.02502" rx="0.607505"
        transform="matrix(-0.835647 -0.549267 -0.549267 0.835647 26.6204 17.259)" fill="#A09DA6" />
    <rect width="1.21501" height="2.02502" rx="0.607505"
        transform="matrix(-0.835647 -0.549267 -0.549267 0.835647 26.6204 17.259)"
        fill="url(#paint44_linear_18_18246)" />
    <rect width="1.21501" height="2.02502" rx="0.607505"
        transform="matrix(-0.835647 -0.549267 -0.549267 0.835647 26.6204 17.259)"
        fill="url(#paint45_linear_18_18246)" />
    <rect x="8.77441" y="16.0089" width="1.21501" height="2.02502" rx="0.607505" fill="#A09DA6" />
    <rect x="8.77441" y="16.0089" width="1.21501" height="2.02502" rx="0.607505"
        fill="url(#paint46_linear_18_18246)" />
    <rect x="8.77441" y="16.0089" width="1.21501" height="2.02502" rx="0.607505"
        fill="url(#paint47_linear_18_18246)" />
    <rect x="5.41406" y="17.259" width="1.21501" height="2.02502" rx="0.607505"
        transform="rotate(-33.3167 5.41406 17.259)" fill="#A09DA6" />
    <rect x="5.41406" y="17.259" width="1.21501" height="2.02502" rx="0.607505"
        transform="rotate(-33.3167 5.41406 17.259)" fill="url(#paint48_linear_18_18246)" />
    <rect x="5.41406" y="17.259" width="1.21501" height="2.02502" rx="0.607505"
        transform="rotate(-33.3167 5.41406 17.259)" fill="url(#paint49_linear_18_18246)" />
    <rect width="1.21501" height="2.02502" rx="0.607505"
        transform="matrix(-0.835647 -0.549267 -0.549267 0.835647 13.3501 17.259)" fill="#A09DA6" />
    <rect width="1.21501" height="2.02502" rx="0.607505"
        transform="matrix(-0.835647 -0.549267 -0.549267 0.835647 13.3501 17.259)"
        fill="url(#paint50_linear_18_18246)" />
    <rect width="1.21501" height="2.02502" rx="0.607505"
        transform="matrix(-0.835647 -0.549267 -0.549267 0.835647 13.3501 17.259)"
        fill="url(#paint51_linear_18_18246)" />
    <rect x="8.91943" y="23.3397" width="1.06852" height="3.52857" rx="0.53426"
        transform="rotate(-90 8.91943 23.3397)" fill="#D8CEE4" />
    <rect x="8.91943" y="23.3397" width="1.06852" height="3.52857" rx="0.53426"
        transform="rotate(-90 8.91943 23.3397)" fill="url(#paint52_linear_18_18246)" />
    <defs>
        <linearGradient id="paint0_linear_18_18246" x1="27.2753" y1="3.2368" x2="14.8083"
            y2="28.5499" gradientUnits="userSpaceOnUse">
            <stop stop-color="#E7E1F0" />
            <stop offset="1" stop-color="#D7C8E9" />
            <stop offset="1" stop-color="#D1C2E2" />
        </linearGradient>
        <linearGradient id="paint1_linear_18_18246" x1="-3.10906" y1="23.3477" x2="9.83163"
            y2="23.3477" gradientUnits="userSpaceOnUse">
            <stop offset="0.412095" stop-color="#B8AEC5" />
            <stop offset="0.491687" stop-color="#DDD0EB" stop-opacity="0" />
        </linearGradient>
        <linearGradient id="paint2_linear_18_18246" x1="31.857" y1="23.3477" x2="25.3171"
            y2="23.3477" gradientUnits="userSpaceOnUse">
            <stop offset="0.213955" stop-color="#DBCFEA" />
            <stop offset="0.368791" stop-color="#F1EAFB" stop-opacity="0.87" />
            <stop offset="0.531528" stop-color="#E5DBF2" stop-opacity="0" />
        </linearGradient>
        <linearGradient id="paint3_linear_18_18246" x1="29.3708" y1="0.913316" x2="24.3637"
            y2="5.20992" gradientUnits="userSpaceOnUse">
            <stop offset="0.08295" stop-color="#DBCFEA" />
            <stop offset="0.347891" stop-color="#F1EAFB" stop-opacity="0.87" />
            <stop offset="0.531528" stop-color="#E5DBF2" stop-opacity="0" />
        </linearGradient>
        <linearGradient id="paint4_linear_18_18246" x1="0.510892" y1="2.10925" x2="8.41583"
            y2="7.91251" gradientUnits="userSpaceOnUse">
            <stop offset="0.242338" stop-color="#CCC6D3" />
            <stop offset="0.531528" stop-color="#CCC6D3" stop-opacity="0" />
        </linearGradient>
        <linearGradient id="paint5_linear_18_18246" x1="1.89343" y1="29.8908" x2="5.10299"
            y2="25.7487" gradientUnits="userSpaceOnUse">
            <stop offset="0.3294" stop-color="#BEAED0" />
            <stop offset="0.556332" stop-color="#CFBBE5" stop-opacity="0" />
        </linearGradient>
        <linearGradient id="paint6_linear_18_18246" x1="30.5437" y1="29.8908" x2="27.244"
            y2="25.9956" gradientUnits="userSpaceOnUse">
            <stop offset="0.287753" stop-color="#BEAED0" />
            <stop offset="0.631891" stop-color="#CFBBE5" stop-opacity="0" />
        </linearGradient>
        <linearGradient id="paint7_linear_18_18246" x1="9.83163" y1="31.7352" x2="9.83163"
            y2="27.4956" gradientUnits="userSpaceOnUse">
            <stop offset="0.147399" stop-color="#C3BACD" />
            <stop offset="0.433532" stop-color="#BCACCE" />
            <stop offset="0.763322" stop-color="#DDD0EB" stop-opacity="0" />
        </linearGradient>
        <linearGradient id="paint8_linear_18_18246" x1="9.83163" y1="-0.948269" x2="9.83163"
            y2="7.23636" gradientUnits="userSpaceOnUse">
            <stop offset="0.349276" stop-color="#C0BBC6" />
            <stop offset="0.506559" stop-color="#DDD0EB" stop-opacity="0" />
        </linearGradient>
        <linearGradient id="paint9_linear_18_18246" x1="12.7945" y1="9.10425" x2="5.45271"
            y2="13.4817" gradientUnits="userSpaceOnUse">
            <stop stop-color="#ADB1C9" />
            <stop offset="1" stop-color="#A09BB4" />
        </linearGradient>
        <radialGradient id="paint10_radial_18_18246" cx="0" cy="0" r="1"
            gradientUnits="userSpaceOnUse"
            gradientTransform="translate(9.38208 11.0172) rotate(90) scale(4.62729 4.62726)">
            <stop offset="0.930541" stop-color="#B0AEC8" stop-opacity="0" />
            <stop offset="0.983961" stop-color="white" />
            <stop offset="1" stop-color="#8A8A8A" stop-opacity="0" />
        </radialGradient>
        <linearGradient id="paint11_linear_18_18246" x1="6.93484" y1="13.3094" x2="12.0706"
            y2="8.86296" gradientUnits="userSpaceOnUse">
            <stop stop-color="#2A6AB5" />
            <stop stop-color="#2C6DB8" />
            <stop offset="1" stop-color="#53A5E4" />
        </linearGradient>
        <radialGradient id="paint12_radial_18_18246" cx="0" cy="0" r="1"
            gradientUnits="userSpaceOnUse"
            gradientTransform="translate(9.38208 11.0172) rotate(-45) scale(3.92212)">
            <stop offset="0.603577" stop-color="#3B91DB" />
            <stop offset="0.702992" stop-color="#61A8F3" stop-opacity="0.1" />
            <stop offset="0.771756" stop-color="#3867B9" stop-opacity="0" />
        </radialGradient>
        <linearGradient id="paint13_linear_18_18246" x1="12.6865" y1="8.83756" x2="10.9755"
            y2="9.84444" gradientUnits="userSpaceOnUse">
            <stop offset="0.305274" stop-color="#C3BACD" />
            <stop offset="1" stop-color="#D8CEE4" stop-opacity="0" />
        </linearGradient>
        <linearGradient id="paint14_linear_18_18246" x1="20.5326" y1="26.9071" x2="23.4624"
            y2="20.8752" gradientUnits="userSpaceOnUse">
            <stop stop-color="#ADB1C9" />
            <stop offset="1" stop-color="#A09BB4" />
        </linearGradient>
        <radialGradient id="paint15_radial_18_18246" cx="0" cy="0" r="1"
            gradientUnits="userSpaceOnUse"
            gradientTransform="translate(22.6523 22.8054) rotate(90) scale(4.62729 4.62726)">
            <stop offset="0.930541" stop-color="#B0AEC8" stop-opacity="0" />
            <stop offset="0.983961" stop-color="white" />
            <stop offset="1" stop-color="#8A8A8A" stop-opacity="0" />
        </radialGradient>
        <radialGradient id="paint16_radial_18_18246" cx="0" cy="0" r="1"
            gradientUnits="userSpaceOnUse"
            gradientTransform="translate(19.964 24.9252) rotate(-40.6749) scale(5.81731)">
            <stop offset="0.377475" stop-color="#57A9EB" />
            <stop offset="1" stop-color="#386ABC" />
        </radialGradient>
        <radialGradient id="paint17_radial_18_18246" cx="0" cy="0" r="1"
            gradientUnits="userSpaceOnUse"
            gradientTransform="translate(22.6525 22.8054) rotate(-45) scale(3.92212)">
            <stop offset="0.603577" stop-color="#3B91DB" />
            <stop offset="0.702992" stop-color="#61A8F3" stop-opacity="0.1" />
            <stop offset="0.771756" stop-color="#3867B9" stop-opacity="0" />
        </radialGradient>
        <linearGradient id="paint18_linear_18_18246" x1="21.6396" y1="21.4639" x2="19.9286"
            y2="22.4708" gradientUnits="userSpaceOnUse">
            <stop offset="0.305274" stop-color="#C3BACD" />
            <stop offset="1" stop-color="#D8CEE4" stop-opacity="0" />
        </linearGradient>
        <linearGradient id="paint19_linear_18_18246" x1="26.1337" y1="13.206" x2="18.1025"
            y2="9.65574" gradientUnits="userSpaceOnUse">
            <stop stop-color="#B0AEC8" />
            <stop offset="1" stop-color="#A5A2B8" />
        </linearGradient>
        <radialGradient id="paint20_radial_18_18246" cx="0" cy="0" r="1"
            gradientUnits="userSpaceOnUse"
            gradientTransform="translate(22.6523 11.0172) rotate(90) scale(4.62729 4.62726)">
            <stop offset="0.930541" stop-color="#B0AEC8" stop-opacity="0" />
            <stop offset="0.983961" stop-color="white" />
            <stop offset="1" stop-color="#8A8A8A" stop-opacity="0" />
        </radialGradient>
        <linearGradient id="paint21_linear_18_18246" x1="20.2051" y1="13.3094" x2="24.7894"
            y2="9.44892" gradientUnits="userSpaceOnUse">
            <stop stop-color="#2A6AB5" />
            <stop offset="1" stop-color="#52A8E7" />
        </linearGradient>
        <radialGradient id="paint22_radial_18_18246" cx="0" cy="0" r="1"
            gradientUnits="userSpaceOnUse"
            gradientTransform="translate(22.6523 11.0172) rotate(-45) scale(3.92212)">
            <stop offset="0.603577" stop-color="#3B91DB" />
            <stop offset="0.702992" stop-color="#61A8F3" stop-opacity="0.1" />
            <stop offset="0.771756" stop-color="#3867B9" stop-opacity="0" />
        </radialGradient>
        <linearGradient id="paint23_linear_18_18246" x1="6.27989" y1="21.6507" x2="12.8289"
            y2="25.132" gradientUnits="userSpaceOnUse">
            <stop stop-color="#ABA7C8" />
            <stop offset="1" stop-color="#A6A2B9" />
        </linearGradient>
        <radialGradient id="paint24_radial_18_18246" cx="0" cy="0" r="1"
            gradientUnits="userSpaceOnUse"
            gradientTransform="translate(9.38202 22.8054) rotate(90) scale(4.62729 4.62726)">
            <stop offset="0.930541" stop-color="#B0AEC8" stop-opacity="0" />
            <stop offset="0.983961" stop-color="white" />
            <stop offset="1" stop-color="#8A8A8A" stop-opacity="0" />
        </radialGradient>
        <radialGradient id="paint25_radial_18_18246" cx="0" cy="0" r="1"
            gradientUnits="userSpaceOnUse"
            gradientTransform="translate(6.69352 24.9252) rotate(-40.6749) scale(5.81731)">
            <stop stop-color="#4CA1E5" />
            <stop offset="1" stop-color="#3867B9" />
        </radialGradient>
        <radialGradient id="paint26_radial_18_18246" cx="0" cy="0" r="1"
            gradientUnits="userSpaceOnUse"
            gradientTransform="translate(9.38204 22.8054) rotate(-45) scale(3.92212)">
            <stop offset="0.603577" stop-color="#3B91DB" />
            <stop offset="0.702992" stop-color="#61A8F3" stop-opacity="0.1" />
            <stop offset="0.771756" stop-color="#3867B9" stop-opacity="0" />
        </radialGradient>
        <linearGradient id="paint27_linear_18_18246" x1="24.6799" y1="10.8809" x2="22.9689"
            y2="11.8878" gradientUnits="userSpaceOnUse">
            <stop offset="0.305274" stop-color="#C3BACD" />
            <stop offset="1" stop-color="#D8CEE4" stop-opacity="0" />
        </linearGradient>
        <linearGradient id="paint28_linear_18_18246" x1="0.0835901" y1="-1.95072" x2="0.59916"
            y2="1.40471" gradientUnits="userSpaceOnUse">
            <stop offset="0.579956" stop-color="#827E88" />
            <stop offset="0.85926" stop-color="#97949E" stop-opacity="0" />
        </linearGradient>
        <linearGradient id="paint29_linear_18_18246" x1="-1.11764" y1="0.915431" x2="1.03186"
            y2="1.22987" gradientUnits="userSpaceOnUse">
            <stop offset="0.506043" stop-color="#827E88" />
            <stop offset="0.877599" stop-color="#97949E" stop-opacity="0" />
        </linearGradient>
        <linearGradient id="paint30_linear_18_18246" x1="7.08865" y1="6.94594" x2="5.52048"
            y2="6.82518" gradientUnits="userSpaceOnUse">
            <stop offset="0.215363" stop-color="#78767D" />
            <stop offset="0.776121" stop-color="#97949E" stop-opacity="0" />
        </linearGradient>
        <linearGradient id="paint31_linear_18_18246" x1="6.60399" y1="4.81961" x2="5.7103"
            y2="6.05525" gradientUnits="userSpaceOnUse">
            <stop offset="0.376018" stop-color="#7E7D81" />
            <stop offset="0.877599" stop-color="#97949E" stop-opacity="0" />
        </linearGradient>
        <linearGradient id="paint32_linear_18_18246" x1="1.10038" y1="-2.38376" x2="0.599161"
            y2="1.40471" gradientUnits="userSpaceOnUse">
            <stop offset="0.627026" stop-color="#827E88" />
            <stop offset="0.85926" stop-color="#97949E" stop-opacity="0" />
        </linearGradient>
        <linearGradient id="paint33_linear_18_18246" x1="-1.46078" y1="0.916987" x2="0.875235"
            y2="1.18849" gradientUnits="userSpaceOnUse">
            <stop offset="0.627026" stop-color="#827E88" />
            <stop offset="0.877599" stop-color="#97949E" stop-opacity="0" />
        </linearGradient>
        <linearGradient id="paint34_linear_18_18246" x1="22.1283" y1="2.24178" x2="22.6438"
            y2="5.59722" gradientUnits="userSpaceOnUse">
            <stop offset="0.579956" stop-color="#827E88" />
            <stop offset="0.85926" stop-color="#97949E" stop-opacity="0" />
        </linearGradient>
        <linearGradient id="paint35_linear_18_18246" x1="20.927" y1="5.10794" x2="23.0765"
            y2="5.42238" gradientUnits="userSpaceOnUse">
            <stop offset="0.506043" stop-color="#827E88" />
            <stop offset="0.877599" stop-color="#97949E" stop-opacity="0" />
        </linearGradient>
        <linearGradient id="paint36_linear_18_18246" x1="20.2425" y1="6.94594" x2="18.6743"
            y2="6.82518" gradientUnits="userSpaceOnUse">
            <stop offset="0.215363" stop-color="#78767D" />
            <stop offset="0.776121" stop-color="#97949E" stop-opacity="0" />
        </linearGradient>
        <linearGradient id="paint37_linear_18_18246" x1="19.7578" y1="4.81961" x2="18.8641"
            y2="6.05525" gradientUnits="userSpaceOnUse">
            <stop offset="0.376018" stop-color="#7E7D81" />
            <stop offset="0.877599" stop-color="#97949E" stop-opacity="0" />
        </linearGradient>
        <linearGradient id="paint38_linear_18_18246" x1="1.10038" y1="-2.38376" x2="0.599161"
            y2="1.40471" gradientUnits="userSpaceOnUse">
            <stop offset="0.627026" stop-color="#827E88" />
            <stop offset="0.85926" stop-color="#97949E" stop-opacity="0" />
        </linearGradient>
        <linearGradient id="paint39_linear_18_18246" x1="-1.46078" y1="0.916987" x2="0.875235"
            y2="1.18849" gradientUnits="userSpaceOnUse">
            <stop offset="0.627026" stop-color="#827E88" />
            <stop offset="0.877599" stop-color="#97949E" stop-opacity="0" />
        </linearGradient>
        <linearGradient id="paint40_linear_18_18246" x1="22.1283" y1="14.0582" x2="22.6438"
            y2="17.4136" gradientUnits="userSpaceOnUse">
            <stop offset="0.579956" stop-color="#827E88" />
            <stop offset="0.85926" stop-color="#97949E" stop-opacity="0" />
        </linearGradient>
        <linearGradient id="paint41_linear_18_18246" x1="20.927" y1="16.9243" x2="23.0765"
            y2="17.2388" gradientUnits="userSpaceOnUse">
            <stop offset="0.506043" stop-color="#827E88" />
            <stop offset="0.877599" stop-color="#97949E" stop-opacity="0" />
        </linearGradient>
        <linearGradient id="paint42_linear_18_18246" x1="20.2425" y1="18.7623" x2="18.6743"
            y2="18.6416" gradientUnits="userSpaceOnUse">
            <stop offset="0.215363" stop-color="#78767D" />
            <stop offset="0.776121" stop-color="#97949E" stop-opacity="0" />
        </linearGradient>
        <linearGradient id="paint43_linear_18_18246" x1="19.7578" y1="16.636" x2="18.8641"
            y2="17.8717" gradientUnits="userSpaceOnUse">
            <stop offset="0.376018" stop-color="#7E7D81" />
            <stop offset="0.877599" stop-color="#97949E" stop-opacity="0" />
        </linearGradient>
        <linearGradient id="paint44_linear_18_18246" x1="1.10038" y1="-2.38376" x2="0.599161"
            y2="1.40471" gradientUnits="userSpaceOnUse">
            <stop offset="0.627026" stop-color="#827E88" />
            <stop offset="0.85926" stop-color="#97949E" stop-opacity="0" />
        </linearGradient>
        <linearGradient id="paint45_linear_18_18246" x1="-1.46078" y1="0.916987" x2="0.875235"
            y2="1.18849" gradientUnits="userSpaceOnUse">
            <stop offset="0.627026" stop-color="#827E88" />
            <stop offset="0.877599" stop-color="#97949E" stop-opacity="0" />
        </linearGradient>
        <linearGradient id="paint46_linear_18_18246" x1="8.858" y1="14.0582" x2="9.37357"
            y2="17.4136" gradientUnits="userSpaceOnUse">
            <stop offset="0.579956" stop-color="#827E88" />
            <stop offset="0.85926" stop-color="#97949E" stop-opacity="0" />
        </linearGradient>
        <linearGradient id="paint47_linear_18_18246" x1="7.65678" y1="16.9243" x2="9.80627"
            y2="17.2388" gradientUnits="userSpaceOnUse">
            <stop offset="0.506043" stop-color="#827E88" />
            <stop offset="0.877599" stop-color="#97949E" stop-opacity="0" />
        </linearGradient>
        <linearGradient id="paint48_linear_18_18246" x1="6.97195" y1="18.7623" x2="5.40379"
            y2="18.6416" gradientUnits="userSpaceOnUse">
            <stop offset="0.215363" stop-color="#78767D" />
            <stop offset="0.776121" stop-color="#97949E" stop-opacity="0" />
        </linearGradient>
        <linearGradient id="paint49_linear_18_18246" x1="6.48729" y1="16.636" x2="5.5936"
            y2="17.8717" gradientUnits="userSpaceOnUse">
            <stop offset="0.376018" stop-color="#7E7D81" />
            <stop offset="0.877599" stop-color="#97949E" stop-opacity="0" />
        </linearGradient>
        <linearGradient id="paint50_linear_18_18246" x1="1.10038" y1="-2.38376" x2="0.599161"
            y2="1.40471" gradientUnits="userSpaceOnUse">
            <stop offset="0.627026" stop-color="#827E88" />
            <stop offset="0.85926" stop-color="#97949E" stop-opacity="0" />
        </linearGradient>
        <linearGradient id="paint51_linear_18_18246" x1="-1.46078" y1="0.916987" x2="0.875235"
            y2="1.18849" gradientUnits="userSpaceOnUse">
            <stop offset="0.627026" stop-color="#827E88" />
            <stop offset="0.877599" stop-color="#97949E" stop-opacity="0" />
        </linearGradient>
        <linearGradient id="paint52_linear_18_18246" x1="9.98795" y1="27.4058" x2="8.77336"
            y2="24.7446" gradientUnits="userSpaceOnUse">
            <stop offset="0.305274" stop-color="#C3BACD" />
            <stop offset="1" stop-color="#D8CEE4" stop-opacity="0" />
        </linearGradient>
    </defs>
</svg>