<svg width="32" height="32" viewBox="0 0 32 32" fill="none" xmlns="http://www.w3.org/2000/svg">
    <path
        d="M2 16C2 25.29 8.27 30 16 30C23.73 30 30 25.26 30 16C30 6.57 23.73 2 16 2C8.27 2 2 6.43 2 16Z"
        fill="#DDB78F" />
    <path
        d="M2 16C2 25.29 8.27 30 16 30C23.73 30 30 25.26 30 16C30 6.57 23.73 2 16 2C8.27 2 2 6.43 2 16Z"
        fill="url(#paint0_radial_18_31730)" />
    <path
        d="M2 16C2 25.29 8.27 30 16 30C23.73 30 30 25.26 30 16C30 6.57 23.73 2 16 2C8.27 2 2 6.43 2 16Z"
        fill="url(#paint1_radial_18_31730)" />
    <path
        d="M2 16C2 25.29 8.27 30 16 30C23.73 30 30 25.26 30 16C30 6.57 23.73 2 16 2C8.27 2 2 6.43 2 16Z"
        fill="url(#paint2_radial_18_31730)" />
    <path
        d="M26.92 14.61L26.96 13.99C27 13.42 26.52 12.94 25.95 12.98L25.34 13.02C25.1 13.03 24.85 13.11 24.63 13.24C24.01 13.63 23.76 14.42 24.04 15.09C24.38 15.89 25.32 16.23 26.09 15.85C26.59 15.62 26.88 15.13 26.92 14.61Z"
        fill="#6F434A" />
    <path
        d="M26.92 14.61L26.96 13.99C27 13.42 26.52 12.94 25.95 12.98L25.34 13.02C25.1 13.03 24.85 13.11 24.63 13.24C24.01 13.63 23.76 14.42 24.04 15.09C24.38 15.89 25.32 16.23 26.09 15.85C26.59 15.62 26.88 15.13 26.92 14.61Z"
        fill="url(#paint3_radial_18_31730)" />
    <path
        d="M26.92 14.61L26.96 13.99C27 13.42 26.52 12.94 25.95 12.98L25.34 13.02C25.1 13.03 24.85 13.11 24.63 13.24C24.01 13.63 23.76 14.42 24.04 15.09C24.38 15.89 25.32 16.23 26.09 15.85C26.59 15.62 26.88 15.13 26.92 14.61Z"
        fill="url(#paint4_radial_18_31730)" />
    <path
        d="M26.92 14.61L26.96 13.99C27 13.42 26.52 12.94 25.95 12.98L25.34 13.02C25.1 13.03 24.85 13.11 24.63 13.24C24.01 13.63 23.76 14.42 24.04 15.09C24.38 15.89 25.32 16.23 26.09 15.85C26.59 15.62 26.88 15.13 26.92 14.61Z"
        fill="url(#paint5_radial_18_31730)" />
    <path
        d="M26.92 14.61L26.96 13.99C27 13.42 26.52 12.94 25.95 12.98L25.34 13.02C25.1 13.03 24.85 13.11 24.63 13.24C24.01 13.63 23.76 14.42 24.04 15.09C24.38 15.89 25.32 16.23 26.09 15.85C26.59 15.62 26.88 15.13 26.92 14.61Z"
        fill="url(#paint6_radial_18_31730)" />
    <path
        d="M26.92 14.61L26.96 13.99C27 13.42 26.52 12.94 25.95 12.98L25.34 13.02C25.1 13.03 24.85 13.11 24.63 13.24C24.01 13.63 23.76 14.42 24.04 15.09C24.38 15.89 25.32 16.23 26.09 15.85C26.59 15.62 26.88 15.13 26.92 14.61Z"
        fill="url(#paint7_radial_18_31730)" />
    <path
        d="M19.89 8.32001L20.51 8.36001C21.08 8.40001 21.56 7.92001 21.52 7.35001L21.48 6.74001C21.47 6.50001 21.39 6.25001 21.26 6.03001C20.87 5.41001 20.08 5.16001 19.41 5.44001C18.61 5.78001 18.27 6.72001 18.65 7.49001C18.88 7.99001 19.37 8.28001 19.89 8.32001Z"
        fill="#6F434A" />
    <path
        d="M19.89 8.32001L20.51 8.36001C21.08 8.40001 21.56 7.92001 21.52 7.35001L21.48 6.74001C21.47 6.50001 21.39 6.25001 21.26 6.03001C20.87 5.41001 20.08 5.16001 19.41 5.44001C18.61 5.78001 18.27 6.72001 18.65 7.49001C18.88 7.99001 19.37 8.28001 19.89 8.32001Z"
        fill="url(#paint8_radial_18_31730)" />
    <path
        d="M19.89 8.32001L20.51 8.36001C21.08 8.40001 21.56 7.92001 21.52 7.35001L21.48 6.74001C21.47 6.50001 21.39 6.25001 21.26 6.03001C20.87 5.41001 20.08 5.16001 19.41 5.44001C18.61 5.78001 18.27 6.72001 18.65 7.49001C18.88 7.99001 19.37 8.28001 19.89 8.32001Z"
        fill="url(#paint9_radial_18_31730)" />
    <path
        d="M19.89 8.32001L20.51 8.36001C21.08 8.40001 21.56 7.92001 21.52 7.35001L21.48 6.74001C21.47 6.50001 21.39 6.25001 21.26 6.03001C20.87 5.41001 20.08 5.16001 19.41 5.44001C18.61 5.78001 18.27 6.72001 18.65 7.49001C18.88 7.99001 19.37 8.28001 19.89 8.32001Z"
        fill="url(#paint10_radial_18_31730)" />
    <path
        d="M19.89 8.32001L20.51 8.36001C21.08 8.40001 21.56 7.92001 21.52 7.35001L21.48 6.74001C21.47 6.50001 21.39 6.25001 21.26 6.03001C20.87 5.41001 20.08 5.16001 19.41 5.44001C18.61 5.78001 18.27 6.72001 18.65 7.49001C18.88 7.99001 19.37 8.28001 19.89 8.32001Z"
        fill="url(#paint11_radial_18_31730)" />
    <path
        d="M10.67 23.75L10.62 24.52C10.57 25.23 11.16 25.82 11.87 25.77L12.63 25.72C12.93 25.7 13.23 25.61 13.51 25.44C14.28 24.96 14.59 23.98 14.24 23.14C13.82 22.14 12.65 21.72 11.7 22.2C11.08 22.51 10.71 23.11 10.67 23.75Z"
        fill="#6F434A" />
    <path
        d="M10.67 23.75L10.62 24.52C10.57 25.23 11.16 25.82 11.87 25.77L12.63 25.72C12.93 25.7 13.23 25.61 13.51 25.44C14.28 24.96 14.59 23.98 14.24 23.14C13.82 22.14 12.65 21.72 11.7 22.2C11.08 22.51 10.71 23.11 10.67 23.75Z"
        fill="url(#paint12_radial_18_31730)" />
    <path
        d="M10.67 23.75L10.62 24.52C10.57 25.23 11.16 25.82 11.87 25.77L12.63 25.72C12.93 25.7 13.23 25.61 13.51 25.44C14.28 24.96 14.59 23.98 14.24 23.14C13.82 22.14 12.65 21.72 11.7 22.2C11.08 22.51 10.71 23.11 10.67 23.75Z"
        fill="url(#paint13_radial_18_31730)" />
    <path
        d="M10.67 23.75L10.62 24.52C10.57 25.23 11.16 25.82 11.87 25.77L12.63 25.72C12.93 25.7 13.23 25.61 13.51 25.44C14.28 24.96 14.59 23.98 14.24 23.14C13.82 22.14 12.65 21.72 11.7 22.2C11.08 22.51 10.71 23.11 10.67 23.75Z"
        fill="url(#paint14_radial_18_31730)" />
    <path
        d="M10.67 23.75L10.62 24.52C10.57 25.23 11.16 25.82 11.87 25.77L12.63 25.72C12.93 25.7 13.23 25.61 13.51 25.44C14.28 24.96 14.59 23.98 14.24 23.14C13.82 22.14 12.65 21.72 11.7 22.2C11.08 22.51 10.71 23.11 10.67 23.75Z"
        fill="url(#paint15_radial_18_31730)" />
    <path
        d="M10.67 23.75L10.62 24.52C10.57 25.23 11.16 25.82 11.87 25.77L12.63 25.72C12.93 25.7 13.23 25.61 13.51 25.44C14.28 24.96 14.59 23.98 14.24 23.14C13.82 22.14 12.65 21.72 11.7 22.2C11.08 22.51 10.71 23.11 10.67 23.75Z"
        fill="url(#paint16_radial_18_31730)" />
    <path
        d="M20.4 15.19L20.43 14.73C20.53 13.22 19.28 11.97 17.76 12.06L17.31 12.09C16.86 12.11 16.41 12.24 15.99 12.49C14.75 13.22 14.22 14.78 14.77 16.11C15.42 17.7 17.27 18.37 18.78 17.62C19.76 17.15 20.34 16.2 20.4 15.19Z"
        fill="#6F434A" />
    <path
        d="M20.4 15.19L20.43 14.73C20.53 13.22 19.28 11.97 17.76 12.06L17.31 12.09C16.86 12.11 16.41 12.24 15.99 12.49C14.75 13.22 14.22 14.78 14.77 16.11C15.42 17.7 17.27 18.37 18.78 17.62C19.76 17.15 20.34 16.2 20.4 15.19Z"
        fill="url(#paint17_radial_18_31730)" />
    <path
        d="M20.4 15.19L20.43 14.73C20.53 13.22 19.28 11.97 17.76 12.06L17.31 12.09C16.86 12.11 16.41 12.24 15.99 12.49C14.75 13.22 14.22 14.78 14.77 16.11C15.42 17.7 17.27 18.37 18.78 17.62C19.76 17.15 20.34 16.2 20.4 15.19Z"
        fill="url(#paint18_radial_18_31730)" />
    <path
        d="M20.4 15.19L20.43 14.73C20.53 13.22 19.28 11.97 17.76 12.06L17.31 12.09C16.86 12.11 16.41 12.24 15.99 12.49C14.75 13.22 14.22 14.78 14.77 16.11C15.42 17.7 17.27 18.37 18.78 17.62C19.76 17.15 20.34 16.2 20.4 15.19Z"
        fill="url(#paint19_radial_18_31730)" />
    <path
        d="M20.4 15.19L20.43 14.73C20.53 13.22 19.28 11.97 17.76 12.06L17.31 12.09C16.86 12.11 16.41 12.24 15.99 12.49C14.75 13.22 14.22 14.78 14.77 16.11C15.42 17.7 17.27 18.37 18.78 17.62C19.76 17.15 20.34 16.2 20.4 15.19Z"
        fill="url(#paint20_radial_18_31730)" />
    <path
        d="M20.4 15.19L20.43 14.73C20.53 13.22 19.28 11.97 17.76 12.06L17.31 12.09C16.86 12.11 16.41 12.24 15.99 12.49C14.75 13.22 14.22 14.78 14.77 16.11C15.42 17.7 17.27 18.37 18.78 17.62C19.76 17.15 20.34 16.2 20.4 15.19Z"
        fill="url(#paint21_radial_18_31730)" />
    <path
        d="M7.68 9.41994L7.65 8.99994C7.57 7.62994 8.7 6.48994 10.07 6.57994L10.48 6.60994C10.89 6.62994 11.3 6.74994 11.68 6.96994C12.81 7.62994 13.28 9.04994 12.79 10.2599C12.2 11.6999 10.52 12.3099 9.15 11.6299C8.27 11.1899 7.74 10.3299 7.68 9.41994Z"
        fill="url(#paint22_radial_18_31730)" />
    <path
        d="M7.68 9.41994L7.65 8.99994C7.57 7.62994 8.7 6.48994 10.07 6.57994L10.48 6.60994C10.89 6.62994 11.3 6.74994 11.68 6.96994C12.81 7.62994 13.28 9.04994 12.79 10.2599C12.2 11.6999 10.52 12.3099 9.15 11.6299C8.27 11.1899 7.74 10.3299 7.68 9.41994Z"
        fill="url(#paint23_radial_18_31730)" />
    <path
        d="M7.68 9.41994L7.65 8.99994C7.57 7.62994 8.7 6.48994 10.07 6.57994L10.48 6.60994C10.89 6.62994 11.3 6.74994 11.68 6.96994C12.81 7.62994 13.28 9.04994 12.79 10.2599C12.2 11.6999 10.52 12.3099 9.15 11.6299C8.27 11.1899 7.74 10.3299 7.68 9.41994Z"
        fill="url(#paint24_radial_18_31730)" />
    <path
        d="M7.68 9.41994L7.65 8.99994C7.57 7.62994 8.7 6.48994 10.07 6.57994L10.48 6.60994C10.89 6.62994 11.3 6.74994 11.68 6.96994C12.81 7.62994 13.28 9.04994 12.79 10.2599C12.2 11.6999 10.52 12.3099 9.15 11.6299C8.27 11.1899 7.74 10.3299 7.68 9.41994Z"
        fill="url(#paint25_radial_18_31730)" />
    <path
        d="M7.68 9.41994L7.65 8.99994C7.57 7.62994 8.7 6.48994 10.07 6.57994L10.48 6.60994C10.89 6.62994 11.3 6.74994 11.68 6.96994C12.81 7.62994 13.28 9.04994 12.79 10.2599C12.2 11.6999 10.52 12.3099 9.15 11.6299C8.27 11.1899 7.74 10.3299 7.68 9.41994Z"
        fill="url(#paint26_radial_18_31730)" />
    <path
        d="M24.26 22.82L24.28 23.18C24.36 24.35 23.38 25.33 22.21 25.25L21.86 25.23C21.51 25.21 21.16 25.11 20.83 24.92C19.86 24.35 19.46 23.14 19.88 22.11C20.39 20.88 21.82 20.35 23 20.94C23.76 21.3 24.21 22.03 24.26 22.82Z"
        fill="#6F434A" />
    <path
        d="M24.26 22.82L24.28 23.18C24.36 24.35 23.38 25.33 22.21 25.25L21.86 25.23C21.51 25.21 21.16 25.11 20.83 24.92C19.86 24.35 19.46 23.14 19.88 22.11C20.39 20.88 21.82 20.35 23 20.94C23.76 21.3 24.21 22.03 24.26 22.82Z"
        fill="url(#paint27_radial_18_31730)" />
    <path
        d="M24.26 22.82L24.28 23.18C24.36 24.35 23.38 25.33 22.21 25.25L21.86 25.23C21.51 25.21 21.16 25.11 20.83 24.92C19.86 24.35 19.46 23.14 19.88 22.11C20.39 20.88 21.82 20.35 23 20.94C23.76 21.3 24.21 22.03 24.26 22.82Z"
        fill="url(#paint28_radial_18_31730)" />
    <path
        d="M24.26 22.82L24.28 23.18C24.36 24.35 23.38 25.33 22.21 25.25L21.86 25.23C21.51 25.21 21.16 25.11 20.83 24.92C19.86 24.35 19.46 23.14 19.88 22.11C20.39 20.88 21.82 20.35 23 20.94C23.76 21.3 24.21 22.03 24.26 22.82Z"
        fill="url(#paint29_radial_18_31730)" />
    <path
        d="M24.26 22.82L24.28 23.18C24.36 24.35 23.38 25.33 22.21 25.25L21.86 25.23C21.51 25.21 21.16 25.11 20.83 24.92C19.86 24.35 19.46 23.14 19.88 22.11C20.39 20.88 21.82 20.35 23 20.94C23.76 21.3 24.21 22.03 24.26 22.82Z"
        fill="url(#paint30_radial_18_31730)" />
    <path
        d="M24.26 22.82L24.28 23.18C24.36 24.35 23.38 25.33 22.21 25.25L21.86 25.23C21.51 25.21 21.16 25.11 20.83 24.92C19.86 24.35 19.46 23.14 19.88 22.11C20.39 20.88 21.82 20.35 23 20.94C23.76 21.3 24.21 22.03 24.26 22.82Z"
        fill="url(#paint31_radial_18_31730)" />
    <path
        d="M5.91001 17.54L5.87001 16.92C5.83001 16.35 6.31001 15.87 6.88001 15.91L7.49001 15.95C7.73001 15.96 7.98001 16.04 8.20001 16.17C8.82001 16.56 9.07001 17.35 8.79001 18.02C8.45001 18.82 7.51001 19.16 6.74001 18.78C6.24001 18.55 5.94001 18.06 5.91001 17.54Z"
        fill="#6F434A" />
    <path
        d="M5.91001 17.54L5.87001 16.92C5.83001 16.35 6.31001 15.87 6.88001 15.91L7.49001 15.95C7.73001 15.96 7.98001 16.04 8.20001 16.17C8.82001 16.56 9.07001 17.35 8.79001 18.02C8.45001 18.82 7.51001 19.16 6.74001 18.78C6.24001 18.55 5.94001 18.06 5.91001 17.54Z"
        fill="url(#paint32_radial_18_31730)" />
    <path
        d="M5.91001 17.54L5.87001 16.92C5.83001 16.35 6.31001 15.87 6.88001 15.91L7.49001 15.95C7.73001 15.96 7.98001 16.04 8.20001 16.17C8.82001 16.56 9.07001 17.35 8.79001 18.02C8.45001 18.82 7.51001 19.16 6.74001 18.78C6.24001 18.55 5.94001 18.06 5.91001 17.54Z"
        fill="url(#paint33_radial_18_31730)" />
    <path
        d="M5.91001 17.54L5.87001 16.92C5.83001 16.35 6.31001 15.87 6.88001 15.91L7.49001 15.95C7.73001 15.96 7.98001 16.04 8.20001 16.17C8.82001 16.56 9.07001 17.35 8.79001 18.02C8.45001 18.82 7.51001 19.16 6.74001 18.78C6.24001 18.55 5.94001 18.06 5.91001 17.54Z"
        fill="url(#paint34_radial_18_31730)" />
    <path
        d="M5.91001 17.54L5.87001 16.92C5.83001 16.35 6.31001 15.87 6.88001 15.91L7.49001 15.95C7.73001 15.96 7.98001 16.04 8.20001 16.17C8.82001 16.56 9.07001 17.35 8.79001 18.02C8.45001 18.82 7.51001 19.16 6.74001 18.78C6.24001 18.55 5.94001 18.06 5.91001 17.54Z"
        fill="url(#paint35_radial_18_31730)" />
    <path
        d="M5.91001 17.54L5.87001 16.92C5.83001 16.35 6.31001 15.87 6.88001 15.91L7.49001 15.95C7.73001 15.96 7.98001 16.04 8.20001 16.17C8.82001 16.56 9.07001 17.35 8.79001 18.02C8.45001 18.82 7.51001 19.16 6.74001 18.78C6.24001 18.55 5.94001 18.06 5.91001 17.54Z"
        fill="url(#paint36_radial_18_31730)" />
    <defs>
        <radialGradient id="paint0_radial_18_31730" cx="0" cy="0" r="1"
            gradientUnits="userSpaceOnUse"
            gradientTransform="translate(23.4375 7.8125) rotate(119.554) scale(20.9077)">
            <stop stop-color="#FFDAAE" />
            <stop offset="1" stop-color="#D59077" stop-opacity="0" />
        </radialGradient>
        <radialGradient id="paint1_radial_18_31730" cx="0" cy="0" r="1"
            gradientUnits="userSpaceOnUse"
            gradientTransform="translate(17.375 16) rotate(83.2902) scale(17.1172 16.2696)">
            <stop offset="0.772068" stop-color="#BF9E7A" stop-opacity="0" />
            <stop offset="1" stop-color="#C4A47E" />
        </radialGradient>
        <radialGradient id="paint2_radial_18_31730" cx="0" cy="0" r="1"
            gradientUnits="userSpaceOnUse"
            gradientTransform="translate(19.375 6.5) rotate(92.6808) scale(37.4159)">
            <stop offset="0.324983" stop-color="#E9AB8B" stop-opacity="0" />
            <stop offset="0.505034" stop-color="#DE9A80" />
            <stop offset="0.656015" stop-color="#D07067" />
        </radialGradient>
        <radialGradient id="paint3_radial_18_31730" cx="0" cy="0" r="1"
            gradientUnits="userSpaceOnUse"
            gradientTransform="translate(26.3142 14.4916) rotate(143.275) scale(2.08515 2.08549)">
            <stop stop-color="#996A67" />
            <stop offset="1" stop-color="#60383B" />
        </radialGradient>
        <radialGradient id="paint4_radial_18_31730" cx="0" cy="0" r="1"
            gradientUnits="userSpaceOnUse"
            gradientTransform="translate(27.5475 13.6018) rotate(141.398) scale(1.14451 3.44671)">
            <stop stop-color="#694946" />
            <stop offset="1" stop-color="#60383B" stop-opacity="0" />
        </radialGradient>
        <radialGradient id="paint5_radial_18_31730" cx="0" cy="0" r="1"
            gradientUnits="userSpaceOnUse"
            gradientTransform="translate(27.5588 14.4916) rotate(174.725) scale(1.01775 2.0901)">
            <stop stop-color="#694946" />
            <stop offset="1" stop-color="#60383B" stop-opacity="0" />
        </radialGradient>
        <radialGradient id="paint6_radial_18_31730" cx="0" cy="0" r="1"
            gradientUnits="userSpaceOnUse"
            gradientTransform="translate(27.2921 15.6143) rotate(-130.66) scale(0.982355 2.02214)">
            <stop stop-color="#694946" />
            <stop offset="1" stop-color="#60383B" stop-opacity="0" />
        </radialGradient>
        <radialGradient id="paint7_radial_18_31730" cx="0" cy="0" r="1"
            gradientUnits="userSpaceOnUse"
            gradientTransform="translate(24.4651 14.9223) rotate(26.1077) scale(2.21758 2.36259)">
            <stop stop-color="#6F434A" />
            <stop offset="0.737877" stop-color="#60383B" stop-opacity="0" />
        </radialGradient>
        <radialGradient id="paint8_radial_18_31730" cx="0" cy="0" r="1"
            gradientUnits="userSpaceOnUse"
            gradientTransform="translate(20.876 6.84413) rotate(143.121) scale(2.0835 2.08715)">
            <stop stop-color="#916866" />
            <stop offset="1" stop-color="#60383B" />
        </radialGradient>
        <radialGradient id="paint9_radial_18_31730" cx="0" cy="0" r="1"
            gradientUnits="userSpaceOnUse"
            gradientTransform="translate(22.1059 5.95185) rotate(141.241) scale(1.14381 3.44883)">
            <stop stop-color="#694946" />
            <stop offset="1" stop-color="#60383B" stop-opacity="0" />
        </radialGradient>
        <radialGradient id="paint10_radial_18_31730" cx="0" cy="0" r="1"
            gradientUnits="userSpaceOnUse"
            gradientTransform="translate(22.1171 6.84413) rotate(174.696) scale(1.01495 2.09588)">
            <stop stop-color="#694946" />
            <stop offset="1" stop-color="#60383B" stop-opacity="0" />
        </radialGradient>
        <radialGradient id="paint11_radial_18_31730" cx="0" cy="0" r="1"
            gradientUnits="userSpaceOnUse"
            gradientTransform="translate(21.8512 7.96995) rotate(-130.501) scale(0.982779 2.02126)">
            <stop stop-color="#694946" />
            <stop offset="1" stop-color="#60383B" stop-opacity="0" />
        </radialGradient>
        <radialGradient id="paint12_radial_18_31730" cx="0" cy="0" r="1"
            gradientUnits="userSpaceOnUse"
            gradientTransform="translate(13.5793 23.8872) rotate(143.159) scale(2.59019 2.59372)">
            <stop stop-color="#996765" />
            <stop offset="1" stop-color="#60383B" />
        </radialGradient>
        <radialGradient id="paint13_radial_18_31730" cx="0" cy="0" r="1"
            gradientUnits="userSpaceOnUse"
            gradientTransform="translate(15.1091 22.7789) rotate(141.279) scale(1.42191 4.28608)">
            <stop stop-color="#694946" />
            <stop offset="1" stop-color="#60383B" stop-opacity="0" />
        </radialGradient>
        <radialGradient id="paint14_radial_18_31730" cx="0" cy="0" r="1"
            gradientUnits="userSpaceOnUse"
            gradientTransform="translate(15.123 23.8872) rotate(174.703) scale(1.26238 2.6033)">
            <stop stop-color="#694946" />
            <stop offset="1" stop-color="#60383B" stop-opacity="0" />
        </radialGradient>
        <radialGradient id="paint15_radial_18_31730" cx="0" cy="0" r="1"
            gradientUnits="userSpaceOnUse"
            gradientTransform="translate(14.7922 25.2856) rotate(-130.54) scale(1.22141 2.5126)">
            <stop stop-color="#694946" />
            <stop offset="1" stop-color="#60383B" stop-opacity="0" />
        </radialGradient>
        <radialGradient id="paint16_radial_18_31730" cx="0" cy="0" r="1"
            gradientUnits="userSpaceOnUse"
            gradientTransform="translate(11.2859 24.4237) rotate(26.2036) scale(2.75278 2.94038)">
            <stop stop-color="#6F434A" />
            <stop offset="0.737877" stop-color="#60383B" stop-opacity="0" />
        </radialGradient>
        <radialGradient id="paint17_radial_18_31730" cx="0" cy="0" r="1"
            gradientUnits="userSpaceOnUse"
            gradientTransform="translate(19.18 14.9912) rotate(143.248) scale(4.04086 4.04266)">
            <stop stop-color="#A27472" />
            <stop offset="0.0001" stop-color="#966866" />
            <stop offset="1" stop-color="#60383B" />
        </radialGradient>
        <radialGradient id="paint18_radial_18_31730" cx="0" cy="0" r="1"
            gradientUnits="userSpaceOnUse"
            gradientTransform="translate(21.5693 13.2658) rotate(141.37) scale(2.21804 6.68112)">
            <stop stop-color="#694946" />
            <stop offset="1" stop-color="#60383B" stop-opacity="0" />
        </radialGradient>
        <radialGradient id="paint19_radial_18_31730" cx="0" cy="0" r="1"
            gradientUnits="userSpaceOnUse"
            gradientTransform="translate(21.5911 14.9912) rotate(174.72) scale(1.97163 4.05301)">
            <stop stop-color="#694946" />
            <stop offset="1" stop-color="#60383B" stop-opacity="0" />
        </radialGradient>
        <radialGradient id="paint20_radial_18_31730" cx="0" cy="0" r="1"
            gradientUnits="userSpaceOnUse"
            gradientTransform="translate(21.0744 17.1682) rotate(-130.631) scale(1.90414 3.91899)">
            <stop stop-color="#694946" />
            <stop offset="1" stop-color="#60383B" stop-opacity="0" />
        </radialGradient>
        <radialGradient id="paint21_radial_18_31730" cx="0" cy="0" r="1"
            gradientUnits="userSpaceOnUse"
            gradientTransform="translate(15.5979 15.8264) rotate(26.1302) scale(4.29679 4.58054)">
            <stop stop-color="#6F434A" />
            <stop offset="0.737877" stop-color="#60383B" stop-opacity="0" />
        </radialGradient>
        <radialGradient id="paint22_radial_18_31730" cx="0" cy="0" r="1"
            gradientUnits="userSpaceOnUse"
            gradientTransform="translate(11.8437 9.24139) rotate(143.219) scale(3.66763 3.67037)">
            <stop stop-color="#A27472" />
            <stop offset="1" stop-color="#60383B" />
        </radialGradient>
        <radialGradient id="paint23_radial_18_31730" cx="0" cy="0" r="1"
            gradientUnits="userSpaceOnUse"
            gradientTransform="translate(14.0115 7.67427) rotate(141.34) scale(2.01324 6.06566)">
            <stop stop-color="#694946" />
            <stop offset="1" stop-color="#60383B" stop-opacity="0" />
        </radialGradient>
        <radialGradient id="paint24_radial_18_31730" cx="0" cy="0" r="1"
            gradientUnits="userSpaceOnUse"
            gradientTransform="translate(14.0312 9.24139) rotate(174.714) scale(1.78886 3.68113)">
            <stop stop-color="#694946" />
            <stop offset="1" stop-color="#60383B" stop-opacity="0" />
        </radialGradient>
        <radialGradient id="paint25_radial_18_31730" cx="0" cy="0" r="1"
            gradientUnits="userSpaceOnUse"
            gradientTransform="translate(13.5625 11.2187) rotate(-130.601) scale(1.72866 3.55727)">
            <stop stop-color="#694946" />
            <stop offset="1" stop-color="#60383B" stop-opacity="0" />
        </radialGradient>
        <radialGradient id="paint26_radial_18_31730" cx="0" cy="0" r="1"
            gradientUnits="userSpaceOnUse"
            gradientTransform="translate(8.59375 9.99994) rotate(26.1543) scale(3.89924 4.15945)">
            <stop stop-color="#6F434A" />
            <stop offset="0.737877" stop-color="#60383B" stop-opacity="0" />
        </radialGradient>
        <radialGradient id="paint27_radial_18_31730" cx="0" cy="0" r="1"
            gradientUnits="userSpaceOnUse"
            gradientTransform="translate(23.3091 22.9766) rotate(143.285) scale(3.13816 3.13836)">
            <stop stop-color="#9B6865" />
            <stop offset="1" stop-color="#60383B" />
        </radialGradient>
        <radialGradient id="paint28_radial_18_31730" cx="0" cy="0" r="1"
            gradientUnits="userSpaceOnUse"
            gradientTransform="translate(25.1655 21.6378) rotate(141.407) scale(1.72247 5.18685)">
            <stop stop-color="#694946" />
            <stop offset="1" stop-color="#60383B" stop-opacity="0" />
        </radialGradient>
        <radialGradient id="paint29_radial_18_31730" cx="0" cy="0" r="1"
            gradientUnits="userSpaceOnUse"
            gradientTransform="translate(25.1824 22.9766) rotate(174.727) scale(1.5319 3.14492)">
            <stop stop-color="#694946" />
            <stop offset="1" stop-color="#60383B" stop-opacity="0" />
        </radialGradient>
        <radialGradient id="paint30_radial_18_31730" cx="0" cy="0" r="1"
            gradientUnits="userSpaceOnUse"
            gradientTransform="translate(24.781 24.6658) rotate(-130.669) scale(1.47833 3.04325)">
            <stop stop-color="#694946" />
            <stop offset="1" stop-color="#60383B" stop-opacity="0" />
        </radialGradient>
        <radialGradient id="paint31_radial_18_31730" cx="0" cy="0" r="1"
            gradientUnits="userSpaceOnUse"
            gradientTransform="translate(20.5258 23.6246) rotate(26.0998) scale(3.33766 3.55514)">
            <stop stop-color="#6F434A" />
            <stop offset="0.737877" stop-color="#60383B" stop-opacity="0" />
        </radialGradient>
        <radialGradient id="paint32_radial_18_31730" cx="0" cy="0" r="1"
            gradientUnits="userSpaceOnUse"
            gradientTransform="translate(8.25598 17.4217) rotate(143.275) scale(2.08516 2.08549)">
            <stop stop-color="#A27472" />
            <stop offset="1" stop-color="#60383B" />
        </radialGradient>
        <radialGradient id="paint33_radial_18_31730" cx="0" cy="0" r="1"
            gradientUnits="userSpaceOnUse"
            gradientTransform="translate(9.48932 16.5319) rotate(141.398) scale(1.14451 3.44671)">
            <stop stop-color="#694946" />
            <stop offset="1" stop-color="#60383B" stop-opacity="0" />
        </radialGradient>
        <radialGradient id="paint34_radial_18_31730" cx="0" cy="0" r="1"
            gradientUnits="userSpaceOnUse"
            gradientTransform="translate(9.50056 17.4217) rotate(174.725) scale(1.01775 2.0901)">
            <stop stop-color="#694946" />
            <stop offset="1" stop-color="#60383B" stop-opacity="0" />
        </radialGradient>
        <radialGradient id="paint35_radial_18_31730" cx="0" cy="0" r="1"
            gradientUnits="userSpaceOnUse"
            gradientTransform="translate(9.23386 18.5443) rotate(-130.66) scale(0.982355 2.02214)">
            <stop stop-color="#694946" />
            <stop offset="1" stop-color="#60383B" stop-opacity="0" />
        </radialGradient>
        <radialGradient id="paint36_radial_18_31730" cx="0" cy="0" r="1"
            gradientUnits="userSpaceOnUse"
            gradientTransform="translate(6.4069 17.8523) rotate(26.1077) scale(2.21758 2.36259)">
            <stop stop-color="#6F434A" />
            <stop offset="0.737877" stop-color="#60383B" stop-opacity="0" />
        </radialGradient>
    </defs>
</svg>