<svg width="32" height="32" viewBox="0 0 32 32" fill="none" xmlns="http://www.w3.org/2000/svg">
    <path fill-rule="evenodd" clip-rule="evenodd"
        d="M11.0796 2.73559C11.7779 3.59138 11.6503 4.85127 10.7945 5.54961C7.86908 7.9368 6 11.5672 6 15.6401C6 21.1655 10.4746 25.6401 16 25.6401C21.5254 25.6401 26 21.1655 26 15.6401C26 11.7746 22.8654 8.64006 19 8.64006C15.1346 8.64006 12 11.7746 12 15.6401C12 17.8555 13.7846 19.6401 16 19.6401C18.2154 19.6401 20 17.8555 20 15.6401C20 15.0846 19.5554 14.6401 19 14.6401C18.4446 14.6401 18 15.0846 18 15.6401C18 16.7446 17.1046 17.6401 16 17.6401C14.8954 17.6401 14 16.7446 14 15.6401C14 12.8755 16.2354 10.6401 19 10.6401C21.7646 10.6401 24 12.8755 24 15.6401C24 20.0646 20.4246 23.6401 16 23.6401C11.5754 23.6401 8 20.0646 8 15.6401C8 9.56549 12.9254 4.64006 19 4.64006C25.0746 4.64006 30 9.56549 30 15.6401C30 23.3746 23.7346 29.6401 16 29.6401C8.26543 29.6401 2 23.3746 2 15.6401C2 10.3129 4.45092 5.56332 8.26553 2.45051C9.12132 1.75216 10.3812 1.8798 11.0796 2.73559Z"
        fill="url(#paint0_radial_18_15367)" />
    <path fill-rule="evenodd" clip-rule="evenodd"
        d="M11.0796 2.73559C11.7779 3.59138 11.6503 4.85127 10.7945 5.54961C7.86908 7.9368 6 11.5672 6 15.6401C6 21.1655 10.4746 25.6401 16 25.6401C21.5254 25.6401 26 21.1655 26 15.6401C26 11.7746 22.8654 8.64006 19 8.64006C15.1346 8.64006 12 11.7746 12 15.6401C12 17.8555 13.7846 19.6401 16 19.6401C18.2154 19.6401 20 17.8555 20 15.6401C20 15.0846 19.5554 14.6401 19 14.6401C18.4446 14.6401 18 15.0846 18 15.6401C18 16.7446 17.1046 17.6401 16 17.6401C14.8954 17.6401 14 16.7446 14 15.6401C14 12.8755 16.2354 10.6401 19 10.6401C21.7646 10.6401 24 12.8755 24 15.6401C24 20.0646 20.4246 23.6401 16 23.6401C11.5754 23.6401 8 20.0646 8 15.6401C8 9.56549 12.9254 4.64006 19 4.64006C25.0746 4.64006 30 9.56549 30 15.6401C30 23.3746 23.7346 29.6401 16 29.6401C8.26543 29.6401 2 23.3746 2 15.6401C2 10.3129 4.45092 5.56332 8.26553 2.45051C9.12132 1.75216 10.3812 1.8798 11.0796 2.73559Z"
        fill="url(#paint1_radial_18_15367)" />
    <path fill-rule="evenodd" clip-rule="evenodd"
        d="M11.0796 2.73559C11.7779 3.59138 11.6503 4.85127 10.7945 5.54961C7.86908 7.9368 6 11.5672 6 15.6401C6 21.1655 10.4746 25.6401 16 25.6401C21.5254 25.6401 26 21.1655 26 15.6401C26 11.7746 22.8654 8.64006 19 8.64006C15.1346 8.64006 12 11.7746 12 15.6401C12 17.8555 13.7846 19.6401 16 19.6401C18.2154 19.6401 20 17.8555 20 15.6401C20 15.0846 19.5554 14.6401 19 14.6401C18.4446 14.6401 18 15.0846 18 15.6401C18 16.7446 17.1046 17.6401 16 17.6401C14.8954 17.6401 14 16.7446 14 15.6401C14 12.8755 16.2354 10.6401 19 10.6401C21.7646 10.6401 24 12.8755 24 15.6401C24 20.0646 20.4246 23.6401 16 23.6401C11.5754 23.6401 8 20.0646 8 15.6401C8 9.56549 12.9254 4.64006 19 4.64006C25.0746 4.64006 30 9.56549 30 15.6401C30 23.3746 23.7346 29.6401 16 29.6401C8.26543 29.6401 2 23.3746 2 15.6401C2 10.3129 4.45092 5.56332 8.26553 2.45051C9.12132 1.75216 10.3812 1.8798 11.0796 2.73559Z"
        fill="url(#paint2_radial_18_15367)" />
    <path fill-rule="evenodd" clip-rule="evenodd"
        d="M10 13.64C11.1046 13.64 12 14.5354 12 15.64C12 17.8554 13.7846 19.64 16 19.64C18.2154 19.64 20 17.8554 20 15.64C20 14.5354 20.8954 13.64 22 13.64C23.1046 13.64 24 14.5354 24 15.64C24 20.0646 20.4246 23.64 16 23.64C11.5754 23.64 8 20.0646 8 15.64C8 14.5354 8.89543 13.64 10 13.64Z"
        fill="url(#paint3_radial_18_15367)" />
    <path fill-rule="evenodd" clip-rule="evenodd"
        d="M8 15.64C8 9.56545 12.9254 4.64001 19 4.64001C25.0746 4.64001 30 9.56544 30 15.64C30 16.7446 29.1046 17.64 28 17.64C26.8954 17.64 26 16.7446 26 15.64C26 11.7746 22.8654 8.64001 19 8.64001C15.1346 8.64001 12 11.7746 12 15.64C12 16.7446 11.1046 17.64 10 17.64C8.89543 17.64 8 16.7446 8 15.64Z"
        fill="url(#paint4_radial_18_15367)" />
    <path fill-rule="evenodd" clip-rule="evenodd"
        d="M14 15.64C14 12.8754 16.2354 10.64 19 10.64C21.7646 10.64 24 12.8754 24 15.64C24 16.7446 23.1046 17.64 22 17.64C20.8954 17.64 20 16.7446 20 15.64C20 15.0846 19.5554 14.64 19 14.64C18.4446 14.64 18 15.0846 18 15.64C18 16.7446 17.1046 17.64 16 17.64C14.8954 17.64 14 16.7446 14 15.64Z"
        fill="url(#paint5_radial_18_15367)" />
    <path fill-rule="evenodd" clip-rule="evenodd"
        d="M14 15.64C14 12.8754 16.2354 10.64 19 10.64C21.7646 10.64 24 12.8754 24 15.64C24 16.7446 23.1046 17.64 22 17.64C20.8954 17.64 20 16.7446 20 15.64C20 15.0846 19.5554 14.64 19 14.64C18.4446 14.64 18 15.0846 18 15.64C18 16.7446 17.1046 17.64 16 17.64C14.8954 17.64 14 16.7446 14 15.64Z"
        fill="url(#paint6_radial_18_15367)" />
    <path fill-rule="evenodd" clip-rule="evenodd"
        d="M14 15.64C14 12.8754 16.2354 10.64 19 10.64C21.7646 10.64 24 12.8754 24 15.64C24 16.7446 23.1046 17.64 22 17.64C20.8954 17.64 20 16.7446 20 15.64C20 15.0846 19.5554 14.64 19 14.64C18.4446 14.64 18 15.0846 18 15.64C18 16.7446 17.1046 17.64 16 17.64C14.8954 17.64 14 16.7446 14 15.64Z"
        fill="url(#paint7_radial_18_15367)" />
    <path fill-rule="evenodd" clip-rule="evenodd"
        d="M14 15.64C14 12.8754 16.2354 10.64 19 10.64C21.7646 10.64 24 12.8754 24 15.64C24 16.7446 23.1046 17.64 22 17.64C20.8954 17.64 20 16.7446 20 15.64C20 15.0846 19.5554 14.64 19 14.64C18.4446 14.64 18 15.0846 18 15.64C18 16.7446 17.1046 17.64 16 17.64C14.8954 17.64 14 16.7446 14 15.64Z"
        fill="url(#paint8_radial_18_15367)" />
    <defs>
        <radialGradient id="paint0_radial_18_15367" cx="0" cy="0" r="1"
            gradientUnits="userSpaceOnUse"
            gradientTransform="translate(17 14) rotate(132.709) scale(17.6918)">
            <stop offset="0.529131" stop-color="#2A3BFD" />
            <stop offset="0.68231" stop-color="#5A69FF" />
            <stop offset="0.716682" stop-color="#5A69FF" />
            <stop offset="0.875621" stop-color="#2A3BFD" />
        </radialGradient>
        <radialGradient id="paint1_radial_18_15367" cx="0" cy="0" r="1"
            gradientUnits="userSpaceOnUse"
            gradientTransform="translate(17.14 15.0513) rotate(86.853) scale(17.4762 15.6102)">
            <stop offset="0.834529" stop-color="#3F4CD8" stop-opacity="0" />
            <stop offset="0.987736" stop-color="#3F4CD8" />
        </radialGradient>
        <radialGradient id="paint2_radial_18_15367" cx="0" cy="0" r="1"
            gradientUnits="userSpaceOnUse"
            gradientTransform="translate(10.2637 3.55539) rotate(99.1634) scale(2.51425 2.54699)">
            <stop stop-color="#788CFF" />
            <stop offset="1" stop-color="#5B71F3" stop-opacity="0" />
        </radialGradient>
        <radialGradient id="paint3_radial_18_15367" cx="0" cy="0" r="1"
            gradientUnits="userSpaceOnUse"
            gradientTransform="translate(16.3508 15.5896) rotate(-136.02) scale(9.27263 9.27631)">
            <stop offset="0.457014" stop-color="#2A3BFD" />
            <stop offset="0.636668" stop-color="#5A69FF" />
            <stop offset="0.716682" stop-color="#5A69FF" />
            <stop offset="0.929955" stop-color="#2A3BFD" />
        </radialGradient>
        <radialGradient id="paint4_radial_18_15367" cx="0" cy="0" r="1"
            gradientUnits="userSpaceOnUse"
            gradientTransform="translate(19.4344 15.5503) rotate(-109.46) scale(13.3107 13.2081)">
            <stop offset="0.529131" stop-color="#2A3BFD" />
            <stop offset="0.68231" stop-color="#5A69FF" />
            <stop offset="0.742792" stop-color="#5A69FF" />
            <stop offset="0.875621" stop-color="#2A3BFD" />
        </radialGradient>
        <radialGradient id="paint5_radial_18_15367" cx="0" cy="0" r="1"
            gradientUnits="userSpaceOnUse"
            gradientTransform="translate(19 16.0589) rotate(-75.6517) scale(5.90959 5.39027)">
            <stop offset="0.328083" stop-color="#2A3BFD" />
            <stop offset="0.586663" stop-color="#5A69FF" />
            <stop offset="0.795247" stop-color="#5A69FF" />
            <stop offset="1" stop-color="#2A3BFD" />
        </radialGradient>
        <radialGradient id="paint6_radial_18_15367" cx="0" cy="0" r="1"
            gradientUnits="userSpaceOnUse"
            gradientTransform="translate(19.6439 15.5569) rotate(-177.105) scale(5.32982 5.05391)">
            <stop offset="0.736287" stop-color="#2A3BFD" stop-opacity="0" />
            <stop offset="1" stop-color="#2A3BFD" />
        </radialGradient>
        <radialGradient id="paint7_radial_18_15367" cx="0" cy="0" r="1"
            gradientUnits="userSpaceOnUse"
            gradientTransform="translate(16.0382 17.0544) rotate(-149.913) scale(3.33873 3.16589)">
            <stop offset="0.0104167" stop-color="#2A3BFD" />
            <stop offset="1" stop-color="#2A3BFD" stop-opacity="0" />
        </radialGradient>
        <radialGradient id="paint8_radial_18_15367" cx="0" cy="0" r="1"
            gradientUnits="userSpaceOnUse"
            gradientTransform="translate(16.6716 14.7403) rotate(32.3073) scale(1.47483 2.10691)">
            <stop stop-color="#5A69FF" />
            <stop offset="1" stop-color="#5A69FF" stop-opacity="0" />
        </radialGradient>
    </defs>
</svg>