<svg width="32" height="32" viewBox="0 0 32 32" fill="none" xmlns="http://www.w3.org/2000/svg">
    <path fill-rule="evenodd" clip-rule="evenodd"
        d="M12.8739 6.61911C12.8204 7.25437 12.0535 7.57167 11.567 7.15971C10.9306 6.62087 10.2557 6.09323 9.75422 5.81154C8.39232 5.04653 7.57546 4.89731 6.25736 6.18167L6.22156 6.21769C6.21512 6.22405 6.20877 6.2306 6.20243 6.23716L6.186 6.25394C4.90164 7.57204 5.05041 8.38845 5.81542 9.75035C6.10031 10.2575 6.63678 10.9421 7.18198 11.5848C7.59488 12.0715 7.27671 12.8397 6.64058 12.892C5.80116 12.9609 4.93859 13.0656 4.37891 13.2227C2.87495 13.6447 2.19182 14.1168 2.16797 15.957L2.16813 16.0078C2.16807 16.0169 2.16822 16.026 2.16837 16.0351L2.16862 16.0586C2.19247 17.8988 2.87495 18.3709 4.37891 18.793C4.93043 18.9477 5.77609 19.0517 6.60388 19.1206C7.23918 19.1736 7.55691 19.9403 7.1454 20.4272C6.6129 21.0572 6.09394 21.7226 5.81542 22.2184C5.05041 23.5803 4.90164 24.3967 6.186 25.7148L6.20242 25.7316C6.20878 25.7381 6.21511 25.7447 6.22156 25.7511L6.25736 25.7871C7.57546 27.0714 8.39232 26.9222 9.75422 26.1572C10.2624 25.8718 10.9485 25.3338 11.5923 24.7876C12.079 24.3746 12.8473 24.6928 12.8995 25.329C12.9685 26.1694 13.0732 27.0334 13.2305 27.5938C13.6525 29.0977 14.1246 29.7808 15.9648 29.8047L16.0156 29.8045C16.0324 29.8046 16.0494 29.804 16.0664 29.804C17.9066 29.7802 18.3787 29.0977 18.8008 27.5938C18.9538 27.0484 19.0571 26.2154 19.1261 25.3965C19.1796 24.7613 19.9465 24.444 20.433 24.8559C21.0694 25.3948 21.7443 25.9224 22.2458 26.2041C23.6077 26.9691 24.4245 27.1183 25.7426 25.834L25.7784 25.7979L25.7904 25.7859L25.7976 25.7784L25.814 25.7617C27.0984 24.4436 26.9496 23.6272 26.1846 22.2653C25.8997 21.7581 25.3632 21.0735 24.818 20.4308C24.4051 19.9441 24.7233 19.1759 25.3594 19.1237C26.1988 19.0547 27.0614 18.95 27.6211 18.793C29.125 18.3709 29.8082 17.8988 29.832 16.0586L29.8319 16.0078C29.8319 15.9988 29.8318 15.9896 29.8316 15.9805L29.8314 15.957C29.8075 14.1168 29.125 13.6447 27.6211 13.2227C27.0696 13.0679 26.2239 12.964 25.3961 12.895C24.7608 12.8421 24.4431 12.0754 24.8546 11.5885C25.3871 10.9584 25.9061 10.2931 26.1846 9.79722C26.9496 8.43532 27.0984 7.61891 25.814 6.30082L25.7976 6.28405C25.7912 6.27748 25.7849 6.27094 25.7784 6.26456L25.7426 6.22854C24.4245 4.94418 23.6077 5.09341 22.2458 5.85842C21.7376 6.14384 21.0515 6.6818 20.4077 7.22806C19.921 7.64107 19.1527 7.32286 19.1005 6.68666C19.0315 5.84626 18.9268 4.98225 18.7695 4.42188C18.3475 2.91792 17.8754 2.23479 16.0352 2.21094L15.9844 2.2111C15.9753 2.21104 15.9662 2.21119 15.9571 2.21133L15.9336 2.21159C14.0934 2.23544 13.6213 2.91792 13.1992 4.42188C13.0462 4.96724 12.9429 5.80021 12.8739 6.61911ZM15.9961 21.4141C18.9819 21.4141 21.4023 18.9936 21.4023 16.0078C21.4023 13.022 18.9819 10.6016 15.9961 10.6016C13.0103 10.6016 10.5898 13.022 10.5898 16.0078C10.5898 18.9936 13.0103 21.4141 15.9961 21.4141Z"
        fill="url(#paint0_linear_18_24453)" />
    <path fill-rule="evenodd" clip-rule="evenodd"
        d="M12.8739 6.61911C12.8204 7.25437 12.0535 7.57167 11.567 7.15971C10.9306 6.62087 10.2557 6.09323 9.75422 5.81154C8.39232 5.04653 7.57546 4.89731 6.25736 6.18167L6.22156 6.21769C6.21512 6.22405 6.20877 6.2306 6.20243 6.23716L6.186 6.25394C4.90164 7.57204 5.05041 8.38845 5.81542 9.75035C6.10031 10.2575 6.63678 10.9421 7.18198 11.5848C7.59488 12.0715 7.27671 12.8397 6.64058 12.892C5.80116 12.9609 4.93859 13.0656 4.37891 13.2227C2.87495 13.6447 2.19182 14.1168 2.16797 15.957L2.16813 16.0078C2.16807 16.0169 2.16822 16.026 2.16837 16.0351L2.16862 16.0586C2.19247 17.8988 2.87495 18.3709 4.37891 18.793C4.93043 18.9477 5.77609 19.0517 6.60388 19.1206C7.23918 19.1736 7.55691 19.9403 7.1454 20.4272C6.6129 21.0572 6.09394 21.7226 5.81542 22.2184C5.05041 23.5803 4.90164 24.3967 6.186 25.7148L6.20242 25.7316C6.20878 25.7381 6.21511 25.7447 6.22156 25.7511L6.25736 25.7871C7.57546 27.0714 8.39232 26.9222 9.75422 26.1572C10.2624 25.8718 10.9485 25.3338 11.5923 24.7876C12.079 24.3746 12.8473 24.6928 12.8995 25.329C12.9685 26.1694 13.0732 27.0334 13.2305 27.5938C13.6525 29.0977 14.1246 29.7808 15.9648 29.8047L16.0156 29.8045C16.0324 29.8046 16.0494 29.804 16.0664 29.804C17.9066 29.7802 18.3787 29.0977 18.8008 27.5938C18.9538 27.0484 19.0571 26.2154 19.1261 25.3965C19.1796 24.7613 19.9465 24.444 20.433 24.8559C21.0694 25.3948 21.7443 25.9224 22.2458 26.2041C23.6077 26.9691 24.4245 27.1183 25.7426 25.834L25.7784 25.7979L25.7904 25.7859L25.7976 25.7784L25.814 25.7617C27.0984 24.4436 26.9496 23.6272 26.1846 22.2653C25.8997 21.7581 25.3632 21.0735 24.818 20.4308C24.4051 19.9441 24.7233 19.1759 25.3594 19.1237C26.1988 19.0547 27.0614 18.95 27.6211 18.793C29.125 18.3709 29.8082 17.8988 29.832 16.0586L29.8319 16.0078C29.8319 15.9988 29.8318 15.9896 29.8316 15.9805L29.8314 15.957C29.8075 14.1168 29.125 13.6447 27.6211 13.2227C27.0696 13.0679 26.2239 12.964 25.3961 12.895C24.7608 12.8421 24.4431 12.0754 24.8546 11.5885C25.3871 10.9584 25.9061 10.2931 26.1846 9.79722C26.9496 8.43532 27.0984 7.61891 25.814 6.30082L25.7976 6.28405C25.7912 6.27748 25.7849 6.27094 25.7784 6.26456L25.7426 6.22854C24.4245 4.94418 23.6077 5.09341 22.2458 5.85842C21.7376 6.14384 21.0515 6.6818 20.4077 7.22806C19.921 7.64107 19.1527 7.32286 19.1005 6.68666C19.0315 5.84626 18.9268 4.98225 18.7695 4.42188C18.3475 2.91792 17.8754 2.23479 16.0352 2.21094L15.9844 2.2111C15.9753 2.21104 15.9662 2.21119 15.9571 2.21133L15.9336 2.21159C14.0934 2.23544 13.6213 2.91792 13.1992 4.42188C13.0462 4.96724 12.9429 5.80021 12.8739 6.61911ZM15.9961 21.4141C18.9819 21.4141 21.4023 18.9936 21.4023 16.0078C21.4023 13.022 18.9819 10.6016 15.9961 10.6016C13.0103 10.6016 10.5898 13.022 10.5898 16.0078C10.5898 18.9936 13.0103 21.4141 15.9961 21.4141Z"
        fill="url(#paint1_radial_18_24453)" />
    <path fill-rule="evenodd" clip-rule="evenodd"
        d="M12.8739 6.61911C12.8204 7.25437 12.0535 7.57167 11.567 7.15971C10.9306 6.62087 10.2557 6.09323 9.75422 5.81154C8.39232 5.04653 7.57546 4.89731 6.25736 6.18167L6.22156 6.21769C6.21512 6.22405 6.20877 6.2306 6.20243 6.23716L6.186 6.25394C4.90164 7.57204 5.05041 8.38845 5.81542 9.75035C6.10031 10.2575 6.63678 10.9421 7.18198 11.5848C7.59488 12.0715 7.27671 12.8397 6.64058 12.892C5.80116 12.9609 4.93859 13.0656 4.37891 13.2227C2.87495 13.6447 2.19182 14.1168 2.16797 15.957L2.16813 16.0078C2.16807 16.0169 2.16822 16.026 2.16837 16.0351L2.16862 16.0586C2.19247 17.8988 2.87495 18.3709 4.37891 18.793C4.93043 18.9477 5.77609 19.0517 6.60388 19.1206C7.23918 19.1736 7.55691 19.9403 7.1454 20.4272C6.6129 21.0572 6.09394 21.7226 5.81542 22.2184C5.05041 23.5803 4.90164 24.3967 6.186 25.7148L6.20242 25.7316C6.20878 25.7381 6.21511 25.7447 6.22156 25.7511L6.25736 25.7871C7.57546 27.0714 8.39232 26.9222 9.75422 26.1572C10.2624 25.8718 10.9485 25.3338 11.5923 24.7876C12.079 24.3746 12.8473 24.6928 12.8995 25.329C12.9685 26.1694 13.0732 27.0334 13.2305 27.5938C13.6525 29.0977 14.1246 29.7808 15.9648 29.8047L16.0156 29.8045C16.0324 29.8046 16.0494 29.804 16.0664 29.804C17.9066 29.7802 18.3787 29.0977 18.8008 27.5938C18.9538 27.0484 19.0571 26.2154 19.1261 25.3965C19.1796 24.7613 19.9465 24.444 20.433 24.8559C21.0694 25.3948 21.7443 25.9224 22.2458 26.2041C23.6077 26.9691 24.4245 27.1183 25.7426 25.834L25.7784 25.7979L25.7904 25.7859L25.7976 25.7784L25.814 25.7617C27.0984 24.4436 26.9496 23.6272 26.1846 22.2653C25.8997 21.7581 25.3632 21.0735 24.818 20.4308C24.4051 19.9441 24.7233 19.1759 25.3594 19.1237C26.1988 19.0547 27.0614 18.95 27.6211 18.793C29.125 18.3709 29.8082 17.8988 29.832 16.0586L29.8319 16.0078C29.8319 15.9988 29.8318 15.9896 29.8316 15.9805L29.8314 15.957C29.8075 14.1168 29.125 13.6447 27.6211 13.2227C27.0696 13.0679 26.2239 12.964 25.3961 12.895C24.7608 12.8421 24.4431 12.0754 24.8546 11.5885C25.3871 10.9584 25.9061 10.2931 26.1846 9.79722C26.9496 8.43532 27.0984 7.61891 25.814 6.30082L25.7976 6.28405C25.7912 6.27748 25.7849 6.27094 25.7784 6.26456L25.7426 6.22854C24.4245 4.94418 23.6077 5.09341 22.2458 5.85842C21.7376 6.14384 21.0515 6.6818 20.4077 7.22806C19.921 7.64107 19.1527 7.32286 19.1005 6.68666C19.0315 5.84626 18.9268 4.98225 18.7695 4.42188C18.3475 2.91792 17.8754 2.23479 16.0352 2.21094L15.9844 2.2111C15.9753 2.21104 15.9662 2.21119 15.9571 2.21133L15.9336 2.21159C14.0934 2.23544 13.6213 2.91792 13.1992 4.42188C13.0462 4.96724 12.9429 5.80021 12.8739 6.61911ZM15.9961 21.4141C18.9819 21.4141 21.4023 18.9936 21.4023 16.0078C21.4023 13.022 18.9819 10.6016 15.9961 10.6016C13.0103 10.6016 10.5898 13.022 10.5898 16.0078C10.5898 18.9936 13.0103 21.4141 15.9961 21.4141Z"
        fill="url(#paint2_radial_18_24453)" />
    <path fill-rule="evenodd" clip-rule="evenodd"
        d="M12.8739 6.61911C12.8204 7.25437 12.0535 7.57167 11.567 7.15971C10.9306 6.62087 10.2557 6.09323 9.75422 5.81154C8.39232 5.04653 7.57546 4.89731 6.25736 6.18167L6.22156 6.21769C6.21512 6.22405 6.20877 6.2306 6.20243 6.23716L6.186 6.25394C4.90164 7.57204 5.05041 8.38845 5.81542 9.75035C6.10031 10.2575 6.63678 10.9421 7.18198 11.5848C7.59488 12.0715 7.27671 12.8397 6.64058 12.892C5.80116 12.9609 4.93859 13.0656 4.37891 13.2227C2.87495 13.6447 2.19182 14.1168 2.16797 15.957L2.16813 16.0078C2.16807 16.0169 2.16822 16.026 2.16837 16.0351L2.16862 16.0586C2.19247 17.8988 2.87495 18.3709 4.37891 18.793C4.93043 18.9477 5.77609 19.0517 6.60388 19.1206C7.23918 19.1736 7.55691 19.9403 7.1454 20.4272C6.6129 21.0572 6.09394 21.7226 5.81542 22.2184C5.05041 23.5803 4.90164 24.3967 6.186 25.7148L6.20242 25.7316C6.20878 25.7381 6.21511 25.7447 6.22156 25.7511L6.25736 25.7871C7.57546 27.0714 8.39232 26.9222 9.75422 26.1572C10.2624 25.8718 10.9485 25.3338 11.5923 24.7876C12.079 24.3746 12.8473 24.6928 12.8995 25.329C12.9685 26.1694 13.0732 27.0334 13.2305 27.5938C13.6525 29.0977 14.1246 29.7808 15.9648 29.8047L16.0156 29.8045C16.0324 29.8046 16.0494 29.804 16.0664 29.804C17.9066 29.7802 18.3787 29.0977 18.8008 27.5938C18.9538 27.0484 19.0571 26.2154 19.1261 25.3965C19.1796 24.7613 19.9465 24.444 20.433 24.8559C21.0694 25.3948 21.7443 25.9224 22.2458 26.2041C23.6077 26.9691 24.4245 27.1183 25.7426 25.834L25.7784 25.7979L25.7904 25.7859L25.7976 25.7784L25.814 25.7617C27.0984 24.4436 26.9496 23.6272 26.1846 22.2653C25.8997 21.7581 25.3632 21.0735 24.818 20.4308C24.4051 19.9441 24.7233 19.1759 25.3594 19.1237C26.1988 19.0547 27.0614 18.95 27.6211 18.793C29.125 18.3709 29.8082 17.8988 29.832 16.0586L29.8319 16.0078C29.8319 15.9988 29.8318 15.9896 29.8316 15.9805L29.8314 15.957C29.8075 14.1168 29.125 13.6447 27.6211 13.2227C27.0696 13.0679 26.2239 12.964 25.3961 12.895C24.7608 12.8421 24.4431 12.0754 24.8546 11.5885C25.3871 10.9584 25.9061 10.2931 26.1846 9.79722C26.9496 8.43532 27.0984 7.61891 25.814 6.30082L25.7976 6.28405C25.7912 6.27748 25.7849 6.27094 25.7784 6.26456L25.7426 6.22854C24.4245 4.94418 23.6077 5.09341 22.2458 5.85842C21.7376 6.14384 21.0515 6.6818 20.4077 7.22806C19.921 7.64107 19.1527 7.32286 19.1005 6.68666C19.0315 5.84626 18.9268 4.98225 18.7695 4.42188C18.3475 2.91792 17.8754 2.23479 16.0352 2.21094L15.9844 2.2111C15.9753 2.21104 15.9662 2.21119 15.9571 2.21133L15.9336 2.21159C14.0934 2.23544 13.6213 2.91792 13.1992 4.42188C13.0462 4.96724 12.9429 5.80021 12.8739 6.61911ZM15.9961 21.4141C18.9819 21.4141 21.4023 18.9936 21.4023 16.0078C21.4023 13.022 18.9819 10.6016 15.9961 10.6016C13.0103 10.6016 10.5898 13.022 10.5898 16.0078C10.5898 18.9936 13.0103 21.4141 15.9961 21.4141Z"
        fill="url(#paint3_radial_18_24453)" />
    <path fill-rule="evenodd" clip-rule="evenodd"
        d="M12.8739 6.61911C12.8204 7.25437 12.0535 7.57167 11.567 7.15971C10.9306 6.62087 10.2557 6.09323 9.75422 5.81154C8.39232 5.04653 7.57546 4.89731 6.25736 6.18167L6.22156 6.21769C6.21512 6.22405 6.20877 6.2306 6.20243 6.23716L6.186 6.25394C4.90164 7.57204 5.05041 8.38845 5.81542 9.75035C6.10031 10.2575 6.63678 10.9421 7.18198 11.5848C7.59488 12.0715 7.27671 12.8397 6.64058 12.892C5.80116 12.9609 4.93859 13.0656 4.37891 13.2227C2.87495 13.6447 2.19182 14.1168 2.16797 15.957L2.16813 16.0078C2.16807 16.0169 2.16822 16.026 2.16837 16.0351L2.16862 16.0586C2.19247 17.8988 2.87495 18.3709 4.37891 18.793C4.93043 18.9477 5.77609 19.0517 6.60388 19.1206C7.23918 19.1736 7.55691 19.9403 7.1454 20.4272C6.6129 21.0572 6.09394 21.7226 5.81542 22.2184C5.05041 23.5803 4.90164 24.3967 6.186 25.7148L6.20242 25.7316C6.20878 25.7381 6.21511 25.7447 6.22156 25.7511L6.25736 25.7871C7.57546 27.0714 8.39232 26.9222 9.75422 26.1572C10.2624 25.8718 10.9485 25.3338 11.5923 24.7876C12.079 24.3746 12.8473 24.6928 12.8995 25.329C12.9685 26.1694 13.0732 27.0334 13.2305 27.5938C13.6525 29.0977 14.1246 29.7808 15.9648 29.8047L16.0156 29.8045C16.0324 29.8046 16.0494 29.804 16.0664 29.804C17.9066 29.7802 18.3787 29.0977 18.8008 27.5938C18.9538 27.0484 19.0571 26.2154 19.1261 25.3965C19.1796 24.7613 19.9465 24.444 20.433 24.8559C21.0694 25.3948 21.7443 25.9224 22.2458 26.2041C23.6077 26.9691 24.4245 27.1183 25.7426 25.834L25.7784 25.7979L25.7904 25.7859L25.7976 25.7784L25.814 25.7617C27.0984 24.4436 26.9496 23.6272 26.1846 22.2653C25.8997 21.7581 25.3632 21.0735 24.818 20.4308C24.4051 19.9441 24.7233 19.1759 25.3594 19.1237C26.1988 19.0547 27.0614 18.95 27.6211 18.793C29.125 18.3709 29.8082 17.8988 29.832 16.0586L29.8319 16.0078C29.8319 15.9988 29.8318 15.9896 29.8316 15.9805L29.8314 15.957C29.8075 14.1168 29.125 13.6447 27.6211 13.2227C27.0696 13.0679 26.2239 12.964 25.3961 12.895C24.7608 12.8421 24.4431 12.0754 24.8546 11.5885C25.3871 10.9584 25.9061 10.2931 26.1846 9.79722C26.9496 8.43532 27.0984 7.61891 25.814 6.30082L25.7976 6.28405C25.7912 6.27748 25.7849 6.27094 25.7784 6.26456L25.7426 6.22854C24.4245 4.94418 23.6077 5.09341 22.2458 5.85842C21.7376 6.14384 21.0515 6.6818 20.4077 7.22806C19.921 7.64107 19.1527 7.32286 19.1005 6.68666C19.0315 5.84626 18.9268 4.98225 18.7695 4.42188C18.3475 2.91792 17.8754 2.23479 16.0352 2.21094L15.9844 2.2111C15.9753 2.21104 15.9662 2.21119 15.9571 2.21133L15.9336 2.21159C14.0934 2.23544 13.6213 2.91792 13.1992 4.42188C13.0462 4.96724 12.9429 5.80021 12.8739 6.61911ZM15.9961 21.4141C18.9819 21.4141 21.4023 18.9936 21.4023 16.0078C21.4023 13.022 18.9819 10.6016 15.9961 10.6016C13.0103 10.6016 10.5898 13.022 10.5898 16.0078C10.5898 18.9936 13.0103 21.4141 15.9961 21.4141Z"
        fill="url(#paint4_radial_18_24453)" />
    <path fill-rule="evenodd" clip-rule="evenodd"
        d="M12.8739 6.61911C12.8204 7.25437 12.0535 7.57167 11.567 7.15971C10.9306 6.62087 10.2557 6.09323 9.75422 5.81154C8.39232 5.04653 7.57546 4.89731 6.25736 6.18167L6.22156 6.21769C6.21512 6.22405 6.20877 6.2306 6.20243 6.23716L6.186 6.25394C4.90164 7.57204 5.05041 8.38845 5.81542 9.75035C6.10031 10.2575 6.63678 10.9421 7.18198 11.5848C7.59488 12.0715 7.27671 12.8397 6.64058 12.892C5.80116 12.9609 4.93859 13.0656 4.37891 13.2227C2.87495 13.6447 2.19182 14.1168 2.16797 15.957L2.16813 16.0078C2.16807 16.0169 2.16822 16.026 2.16837 16.0351L2.16862 16.0586C2.19247 17.8988 2.87495 18.3709 4.37891 18.793C4.93043 18.9477 5.77609 19.0517 6.60388 19.1206C7.23918 19.1736 7.55691 19.9403 7.1454 20.4272C6.6129 21.0572 6.09394 21.7226 5.81542 22.2184C5.05041 23.5803 4.90164 24.3967 6.186 25.7148L6.20242 25.7316C6.20878 25.7381 6.21511 25.7447 6.22156 25.7511L6.25736 25.7871C7.57546 27.0714 8.39232 26.9222 9.75422 26.1572C10.2624 25.8718 10.9485 25.3338 11.5923 24.7876C12.079 24.3746 12.8473 24.6928 12.8995 25.329C12.9685 26.1694 13.0732 27.0334 13.2305 27.5938C13.6525 29.0977 14.1246 29.7808 15.9648 29.8047L16.0156 29.8045C16.0324 29.8046 16.0494 29.804 16.0664 29.804C17.9066 29.7802 18.3787 29.0977 18.8008 27.5938C18.9538 27.0484 19.0571 26.2154 19.1261 25.3965C19.1796 24.7613 19.9465 24.444 20.433 24.8559C21.0694 25.3948 21.7443 25.9224 22.2458 26.2041C23.6077 26.9691 24.4245 27.1183 25.7426 25.834L25.7784 25.7979L25.7904 25.7859L25.7976 25.7784L25.814 25.7617C27.0984 24.4436 26.9496 23.6272 26.1846 22.2653C25.8997 21.7581 25.3632 21.0735 24.818 20.4308C24.4051 19.9441 24.7233 19.1759 25.3594 19.1237C26.1988 19.0547 27.0614 18.95 27.6211 18.793C29.125 18.3709 29.8082 17.8988 29.832 16.0586L29.8319 16.0078C29.8319 15.9988 29.8318 15.9896 29.8316 15.9805L29.8314 15.957C29.8075 14.1168 29.125 13.6447 27.6211 13.2227C27.0696 13.0679 26.2239 12.964 25.3961 12.895C24.7608 12.8421 24.4431 12.0754 24.8546 11.5885C25.3871 10.9584 25.9061 10.2931 26.1846 9.79722C26.9496 8.43532 27.0984 7.61891 25.814 6.30082L25.7976 6.28405C25.7912 6.27748 25.7849 6.27094 25.7784 6.26456L25.7426 6.22854C24.4245 4.94418 23.6077 5.09341 22.2458 5.85842C21.7376 6.14384 21.0515 6.6818 20.4077 7.22806C19.921 7.64107 19.1527 7.32286 19.1005 6.68666C19.0315 5.84626 18.9268 4.98225 18.7695 4.42188C18.3475 2.91792 17.8754 2.23479 16.0352 2.21094L15.9844 2.2111C15.9753 2.21104 15.9662 2.21119 15.9571 2.21133L15.9336 2.21159C14.0934 2.23544 13.6213 2.91792 13.1992 4.42188C13.0462 4.96724 12.9429 5.80021 12.8739 6.61911ZM15.9961 21.4141C18.9819 21.4141 21.4023 18.9936 21.4023 16.0078C21.4023 13.022 18.9819 10.6016 15.9961 10.6016C13.0103 10.6016 10.5898 13.022 10.5898 16.0078C10.5898 18.9936 13.0103 21.4141 15.9961 21.4141Z"
        fill="url(#paint5_radial_18_24453)" />
    <path fill-rule="evenodd" clip-rule="evenodd"
        d="M12.8739 6.61911C12.8204 7.25437 12.0535 7.57167 11.567 7.15971C10.9306 6.62087 10.2557 6.09323 9.75422 5.81154C8.39232 5.04653 7.57546 4.89731 6.25736 6.18167L6.22156 6.21769C6.21512 6.22405 6.20877 6.2306 6.20243 6.23716L6.186 6.25394C4.90164 7.57204 5.05041 8.38845 5.81542 9.75035C6.10031 10.2575 6.63678 10.9421 7.18198 11.5848C7.59488 12.0715 7.27671 12.8397 6.64058 12.892C5.80116 12.9609 4.93859 13.0656 4.37891 13.2227C2.87495 13.6447 2.19182 14.1168 2.16797 15.957L2.16813 16.0078C2.16807 16.0169 2.16822 16.026 2.16837 16.0351L2.16862 16.0586C2.19247 17.8988 2.87495 18.3709 4.37891 18.793C4.93043 18.9477 5.77609 19.0517 6.60388 19.1206C7.23918 19.1736 7.55691 19.9403 7.1454 20.4272C6.6129 21.0572 6.09394 21.7226 5.81542 22.2184C5.05041 23.5803 4.90164 24.3967 6.186 25.7148L6.20242 25.7316C6.20878 25.7381 6.21511 25.7447 6.22156 25.7511L6.25736 25.7871C7.57546 27.0714 8.39232 26.9222 9.75422 26.1572C10.2624 25.8718 10.9485 25.3338 11.5923 24.7876C12.079 24.3746 12.8473 24.6928 12.8995 25.329C12.9685 26.1694 13.0732 27.0334 13.2305 27.5938C13.6525 29.0977 14.1246 29.7808 15.9648 29.8047L16.0156 29.8045C16.0324 29.8046 16.0494 29.804 16.0664 29.804C17.9066 29.7802 18.3787 29.0977 18.8008 27.5938C18.9538 27.0484 19.0571 26.2154 19.1261 25.3965C19.1796 24.7613 19.9465 24.444 20.433 24.8559C21.0694 25.3948 21.7443 25.9224 22.2458 26.2041C23.6077 26.9691 24.4245 27.1183 25.7426 25.834L25.7784 25.7979L25.7904 25.7859L25.7976 25.7784L25.814 25.7617C27.0984 24.4436 26.9496 23.6272 26.1846 22.2653C25.8997 21.7581 25.3632 21.0735 24.818 20.4308C24.4051 19.9441 24.7233 19.1759 25.3594 19.1237C26.1988 19.0547 27.0614 18.95 27.6211 18.793C29.125 18.3709 29.8082 17.8988 29.832 16.0586L29.8319 16.0078C29.8319 15.9988 29.8318 15.9896 29.8316 15.9805L29.8314 15.957C29.8075 14.1168 29.125 13.6447 27.6211 13.2227C27.0696 13.0679 26.2239 12.964 25.3961 12.895C24.7608 12.8421 24.4431 12.0754 24.8546 11.5885C25.3871 10.9584 25.9061 10.2931 26.1846 9.79722C26.9496 8.43532 27.0984 7.61891 25.814 6.30082L25.7976 6.28405C25.7912 6.27748 25.7849 6.27094 25.7784 6.26456L25.7426 6.22854C24.4245 4.94418 23.6077 5.09341 22.2458 5.85842C21.7376 6.14384 21.0515 6.6818 20.4077 7.22806C19.921 7.64107 19.1527 7.32286 19.1005 6.68666C19.0315 5.84626 18.9268 4.98225 18.7695 4.42188C18.3475 2.91792 17.8754 2.23479 16.0352 2.21094L15.9844 2.2111C15.9753 2.21104 15.9662 2.21119 15.9571 2.21133L15.9336 2.21159C14.0934 2.23544 13.6213 2.91792 13.1992 4.42188C13.0462 4.96724 12.9429 5.80021 12.8739 6.61911ZM15.9961 21.4141C18.9819 21.4141 21.4023 18.9936 21.4023 16.0078C21.4023 13.022 18.9819 10.6016 15.9961 10.6016C13.0103 10.6016 10.5898 13.022 10.5898 16.0078C10.5898 18.9936 13.0103 21.4141 15.9961 21.4141Z"
        fill="url(#paint6_radial_18_24453)" />
    <path fill-rule="evenodd" clip-rule="evenodd"
        d="M12.8739 6.61911C12.8204 7.25437 12.0535 7.57167 11.567 7.15971C10.9306 6.62087 10.2557 6.09323 9.75422 5.81154C8.39232 5.04653 7.57546 4.89731 6.25736 6.18167L6.22156 6.21769C6.21512 6.22405 6.20877 6.2306 6.20243 6.23716L6.186 6.25394C4.90164 7.57204 5.05041 8.38845 5.81542 9.75035C6.10031 10.2575 6.63678 10.9421 7.18198 11.5848C7.59488 12.0715 7.27671 12.8397 6.64058 12.892C5.80116 12.9609 4.93859 13.0656 4.37891 13.2227C2.87495 13.6447 2.19182 14.1168 2.16797 15.957L2.16813 16.0078C2.16807 16.0169 2.16822 16.026 2.16837 16.0351L2.16862 16.0586C2.19247 17.8988 2.87495 18.3709 4.37891 18.793C4.93043 18.9477 5.77609 19.0517 6.60388 19.1206C7.23918 19.1736 7.55691 19.9403 7.1454 20.4272C6.6129 21.0572 6.09394 21.7226 5.81542 22.2184C5.05041 23.5803 4.90164 24.3967 6.186 25.7148L6.20242 25.7316C6.20878 25.7381 6.21511 25.7447 6.22156 25.7511L6.25736 25.7871C7.57546 27.0714 8.39232 26.9222 9.75422 26.1572C10.2624 25.8718 10.9485 25.3338 11.5923 24.7876C12.079 24.3746 12.8473 24.6928 12.8995 25.329C12.9685 26.1694 13.0732 27.0334 13.2305 27.5938C13.6525 29.0977 14.1246 29.7808 15.9648 29.8047L16.0156 29.8045C16.0324 29.8046 16.0494 29.804 16.0664 29.804C17.9066 29.7802 18.3787 29.0977 18.8008 27.5938C18.9538 27.0484 19.0571 26.2154 19.1261 25.3965C19.1796 24.7613 19.9465 24.444 20.433 24.8559C21.0694 25.3948 21.7443 25.9224 22.2458 26.2041C23.6077 26.9691 24.4245 27.1183 25.7426 25.834L25.7784 25.7979L25.7904 25.7859L25.7976 25.7784L25.814 25.7617C27.0984 24.4436 26.9496 23.6272 26.1846 22.2653C25.8997 21.7581 25.3632 21.0735 24.818 20.4308C24.4051 19.9441 24.7233 19.1759 25.3594 19.1237C26.1988 19.0547 27.0614 18.95 27.6211 18.793C29.125 18.3709 29.8082 17.8988 29.832 16.0586L29.8319 16.0078C29.8319 15.9988 29.8318 15.9896 29.8316 15.9805L29.8314 15.957C29.8075 14.1168 29.125 13.6447 27.6211 13.2227C27.0696 13.0679 26.2239 12.964 25.3961 12.895C24.7608 12.8421 24.4431 12.0754 24.8546 11.5885C25.3871 10.9584 25.9061 10.2931 26.1846 9.79722C26.9496 8.43532 27.0984 7.61891 25.814 6.30082L25.7976 6.28405C25.7912 6.27748 25.7849 6.27094 25.7784 6.26456L25.7426 6.22854C24.4245 4.94418 23.6077 5.09341 22.2458 5.85842C21.7376 6.14384 21.0515 6.6818 20.4077 7.22806C19.921 7.64107 19.1527 7.32286 19.1005 6.68666C19.0315 5.84626 18.9268 4.98225 18.7695 4.42188C18.3475 2.91792 17.8754 2.23479 16.0352 2.21094L15.9844 2.2111C15.9753 2.21104 15.9662 2.21119 15.9571 2.21133L15.9336 2.21159C14.0934 2.23544 13.6213 2.91792 13.1992 4.42188C13.0462 4.96724 12.9429 5.80021 12.8739 6.61911ZM15.9961 21.4141C18.9819 21.4141 21.4023 18.9936 21.4023 16.0078C21.4023 13.022 18.9819 10.6016 15.9961 10.6016C13.0103 10.6016 10.5898 13.022 10.5898 16.0078C10.5898 18.9936 13.0103 21.4141 15.9961 21.4141Z"
        fill="url(#paint7_radial_18_24453)" />
    <path fill-rule="evenodd" clip-rule="evenodd"
        d="M12.8739 6.61911C12.8204 7.25437 12.0535 7.57167 11.567 7.15971C10.9306 6.62087 10.2557 6.09323 9.75422 5.81154C8.39232 5.04653 7.57546 4.89731 6.25736 6.18167L6.22156 6.21769C6.21512 6.22405 6.20877 6.2306 6.20243 6.23716L6.186 6.25394C4.90164 7.57204 5.05041 8.38845 5.81542 9.75035C6.10031 10.2575 6.63678 10.9421 7.18198 11.5848C7.59488 12.0715 7.27671 12.8397 6.64058 12.892C5.80116 12.9609 4.93859 13.0656 4.37891 13.2227C2.87495 13.6447 2.19182 14.1168 2.16797 15.957L2.16813 16.0078C2.16807 16.0169 2.16822 16.026 2.16837 16.0351L2.16862 16.0586C2.19247 17.8988 2.87495 18.3709 4.37891 18.793C4.93043 18.9477 5.77609 19.0517 6.60388 19.1206C7.23918 19.1736 7.55691 19.9403 7.1454 20.4272C6.6129 21.0572 6.09394 21.7226 5.81542 22.2184C5.05041 23.5803 4.90164 24.3967 6.186 25.7148L6.20242 25.7316C6.20878 25.7381 6.21511 25.7447 6.22156 25.7511L6.25736 25.7871C7.57546 27.0714 8.39232 26.9222 9.75422 26.1572C10.2624 25.8718 10.9485 25.3338 11.5923 24.7876C12.079 24.3746 12.8473 24.6928 12.8995 25.329C12.9685 26.1694 13.0732 27.0334 13.2305 27.5938C13.6525 29.0977 14.1246 29.7808 15.9648 29.8047L16.0156 29.8045C16.0324 29.8046 16.0494 29.804 16.0664 29.804C17.9066 29.7802 18.3787 29.0977 18.8008 27.5938C18.9538 27.0484 19.0571 26.2154 19.1261 25.3965C19.1796 24.7613 19.9465 24.444 20.433 24.8559C21.0694 25.3948 21.7443 25.9224 22.2458 26.2041C23.6077 26.9691 24.4245 27.1183 25.7426 25.834L25.7784 25.7979L25.7904 25.7859L25.7976 25.7784L25.814 25.7617C27.0984 24.4436 26.9496 23.6272 26.1846 22.2653C25.8997 21.7581 25.3632 21.0735 24.818 20.4308C24.4051 19.9441 24.7233 19.1759 25.3594 19.1237C26.1988 19.0547 27.0614 18.95 27.6211 18.793C29.125 18.3709 29.8082 17.8988 29.832 16.0586L29.8319 16.0078C29.8319 15.9988 29.8318 15.9896 29.8316 15.9805L29.8314 15.957C29.8075 14.1168 29.125 13.6447 27.6211 13.2227C27.0696 13.0679 26.2239 12.964 25.3961 12.895C24.7608 12.8421 24.4431 12.0754 24.8546 11.5885C25.3871 10.9584 25.9061 10.2931 26.1846 9.79722C26.9496 8.43532 27.0984 7.61891 25.814 6.30082L25.7976 6.28405C25.7912 6.27748 25.7849 6.27094 25.7784 6.26456L25.7426 6.22854C24.4245 4.94418 23.6077 5.09341 22.2458 5.85842C21.7376 6.14384 21.0515 6.6818 20.4077 7.22806C19.921 7.64107 19.1527 7.32286 19.1005 6.68666C19.0315 5.84626 18.9268 4.98225 18.7695 4.42188C18.3475 2.91792 17.8754 2.23479 16.0352 2.21094L15.9844 2.2111C15.9753 2.21104 15.9662 2.21119 15.9571 2.21133L15.9336 2.21159C14.0934 2.23544 13.6213 2.91792 13.1992 4.42188C13.0462 4.96724 12.9429 5.80021 12.8739 6.61911ZM15.9961 21.4141C18.9819 21.4141 21.4023 18.9936 21.4023 16.0078C21.4023 13.022 18.9819 10.6016 15.9961 10.6016C13.0103 10.6016 10.5898 13.022 10.5898 16.0078C10.5898 18.9936 13.0103 21.4141 15.9961 21.4141Z"
        fill="url(#paint8_radial_18_24453)" />
    <path fill-rule="evenodd" clip-rule="evenodd"
        d="M12.8739 6.61911C12.8204 7.25437 12.0535 7.57167 11.567 7.15971C10.9306 6.62087 10.2557 6.09323 9.75422 5.81154C8.39232 5.04653 7.57546 4.89731 6.25736 6.18167L6.22156 6.21769C6.21512 6.22405 6.20877 6.2306 6.20243 6.23716L6.186 6.25394C4.90164 7.57204 5.05041 8.38845 5.81542 9.75035C6.10031 10.2575 6.63678 10.9421 7.18198 11.5848C7.59488 12.0715 7.27671 12.8397 6.64058 12.892C5.80116 12.9609 4.93859 13.0656 4.37891 13.2227C2.87495 13.6447 2.19182 14.1168 2.16797 15.957L2.16813 16.0078C2.16807 16.0169 2.16822 16.026 2.16837 16.0351L2.16862 16.0586C2.19247 17.8988 2.87495 18.3709 4.37891 18.793C4.93043 18.9477 5.77609 19.0517 6.60388 19.1206C7.23918 19.1736 7.55691 19.9403 7.1454 20.4272C6.6129 21.0572 6.09394 21.7226 5.81542 22.2184C5.05041 23.5803 4.90164 24.3967 6.186 25.7148L6.20242 25.7316C6.20878 25.7381 6.21511 25.7447 6.22156 25.7511L6.25736 25.7871C7.57546 27.0714 8.39232 26.9222 9.75422 26.1572C10.2624 25.8718 10.9485 25.3338 11.5923 24.7876C12.079 24.3746 12.8473 24.6928 12.8995 25.329C12.9685 26.1694 13.0732 27.0334 13.2305 27.5938C13.6525 29.0977 14.1246 29.7808 15.9648 29.8047L16.0156 29.8045C16.0324 29.8046 16.0494 29.804 16.0664 29.804C17.9066 29.7802 18.3787 29.0977 18.8008 27.5938C18.9538 27.0484 19.0571 26.2154 19.1261 25.3965C19.1796 24.7613 19.9465 24.444 20.433 24.8559C21.0694 25.3948 21.7443 25.9224 22.2458 26.2041C23.6077 26.9691 24.4245 27.1183 25.7426 25.834L25.7784 25.7979L25.7904 25.7859L25.7976 25.7784L25.814 25.7617C27.0984 24.4436 26.9496 23.6272 26.1846 22.2653C25.8997 21.7581 25.3632 21.0735 24.818 20.4308C24.4051 19.9441 24.7233 19.1759 25.3594 19.1237C26.1988 19.0547 27.0614 18.95 27.6211 18.793C29.125 18.3709 29.8082 17.8988 29.832 16.0586L29.8319 16.0078C29.8319 15.9988 29.8318 15.9896 29.8316 15.9805L29.8314 15.957C29.8075 14.1168 29.125 13.6447 27.6211 13.2227C27.0696 13.0679 26.2239 12.964 25.3961 12.895C24.7608 12.8421 24.4431 12.0754 24.8546 11.5885C25.3871 10.9584 25.9061 10.2931 26.1846 9.79722C26.9496 8.43532 27.0984 7.61891 25.814 6.30082L25.7976 6.28405C25.7912 6.27748 25.7849 6.27094 25.7784 6.26456L25.7426 6.22854C24.4245 4.94418 23.6077 5.09341 22.2458 5.85842C21.7376 6.14384 21.0515 6.6818 20.4077 7.22806C19.921 7.64107 19.1527 7.32286 19.1005 6.68666C19.0315 5.84626 18.9268 4.98225 18.7695 4.42188C18.3475 2.91792 17.8754 2.23479 16.0352 2.21094L15.9844 2.2111C15.9753 2.21104 15.9662 2.21119 15.9571 2.21133L15.9336 2.21159C14.0934 2.23544 13.6213 2.91792 13.1992 4.42188C13.0462 4.96724 12.9429 5.80021 12.8739 6.61911ZM15.9961 21.4141C18.9819 21.4141 21.4023 18.9936 21.4023 16.0078C21.4023 13.022 18.9819 10.6016 15.9961 10.6016C13.0103 10.6016 10.5898 13.022 10.5898 16.0078C10.5898 18.9936 13.0103 21.4141 15.9961 21.4141Z"
        fill="url(#paint9_radial_18_24453)" />
    <path fill-rule="evenodd" clip-rule="evenodd"
        d="M12.8739 6.61911C12.8204 7.25437 12.0535 7.57167 11.567 7.15971C10.9306 6.62087 10.2557 6.09323 9.75422 5.81154C8.39232 5.04653 7.57546 4.89731 6.25736 6.18167L6.22156 6.21769C6.21512 6.22405 6.20877 6.2306 6.20243 6.23716L6.186 6.25394C4.90164 7.57204 5.05041 8.38845 5.81542 9.75035C6.10031 10.2575 6.63678 10.9421 7.18198 11.5848C7.59488 12.0715 7.27671 12.8397 6.64058 12.892C5.80116 12.9609 4.93859 13.0656 4.37891 13.2227C2.87495 13.6447 2.19182 14.1168 2.16797 15.957L2.16813 16.0078C2.16807 16.0169 2.16822 16.026 2.16837 16.0351L2.16862 16.0586C2.19247 17.8988 2.87495 18.3709 4.37891 18.793C4.93043 18.9477 5.77609 19.0517 6.60388 19.1206C7.23918 19.1736 7.55691 19.9403 7.1454 20.4272C6.6129 21.0572 6.09394 21.7226 5.81542 22.2184C5.05041 23.5803 4.90164 24.3967 6.186 25.7148L6.20242 25.7316C6.20878 25.7381 6.21511 25.7447 6.22156 25.7511L6.25736 25.7871C7.57546 27.0714 8.39232 26.9222 9.75422 26.1572C10.2624 25.8718 10.9485 25.3338 11.5923 24.7876C12.079 24.3746 12.8473 24.6928 12.8995 25.329C12.9685 26.1694 13.0732 27.0334 13.2305 27.5938C13.6525 29.0977 14.1246 29.7808 15.9648 29.8047L16.0156 29.8045C16.0324 29.8046 16.0494 29.804 16.0664 29.804C17.9066 29.7802 18.3787 29.0977 18.8008 27.5938C18.9538 27.0484 19.0571 26.2154 19.1261 25.3965C19.1796 24.7613 19.9465 24.444 20.433 24.8559C21.0694 25.3948 21.7443 25.9224 22.2458 26.2041C23.6077 26.9691 24.4245 27.1183 25.7426 25.834L25.7784 25.7979L25.7904 25.7859L25.7976 25.7784L25.814 25.7617C27.0984 24.4436 26.9496 23.6272 26.1846 22.2653C25.8997 21.7581 25.3632 21.0735 24.818 20.4308C24.4051 19.9441 24.7233 19.1759 25.3594 19.1237C26.1988 19.0547 27.0614 18.95 27.6211 18.793C29.125 18.3709 29.8082 17.8988 29.832 16.0586L29.8319 16.0078C29.8319 15.9988 29.8318 15.9896 29.8316 15.9805L29.8314 15.957C29.8075 14.1168 29.125 13.6447 27.6211 13.2227C27.0696 13.0679 26.2239 12.964 25.3961 12.895C24.7608 12.8421 24.4431 12.0754 24.8546 11.5885C25.3871 10.9584 25.9061 10.2931 26.1846 9.79722C26.9496 8.43532 27.0984 7.61891 25.814 6.30082L25.7976 6.28405C25.7912 6.27748 25.7849 6.27094 25.7784 6.26456L25.7426 6.22854C24.4245 4.94418 23.6077 5.09341 22.2458 5.85842C21.7376 6.14384 21.0515 6.6818 20.4077 7.22806C19.921 7.64107 19.1527 7.32286 19.1005 6.68666C19.0315 5.84626 18.9268 4.98225 18.7695 4.42188C18.3475 2.91792 17.8754 2.23479 16.0352 2.21094L15.9844 2.2111C15.9753 2.21104 15.9662 2.21119 15.9571 2.21133L15.9336 2.21159C14.0934 2.23544 13.6213 2.91792 13.1992 4.42188C13.0462 4.96724 12.9429 5.80021 12.8739 6.61911ZM15.9961 21.4141C18.9819 21.4141 21.4023 18.9936 21.4023 16.0078C21.4023 13.022 18.9819 10.6016 15.9961 10.6016C13.0103 10.6016 10.5898 13.022 10.5898 16.0078C10.5898 18.9936 13.0103 21.4141 15.9961 21.4141Z"
        fill="url(#paint10_radial_18_24453)" />
    <path fill-rule="evenodd" clip-rule="evenodd"
        d="M12.8739 6.61911C12.8204 7.25437 12.0535 7.57167 11.567 7.15971C10.9306 6.62087 10.2557 6.09323 9.75422 5.81154C8.39232 5.04653 7.57546 4.89731 6.25736 6.18167L6.22156 6.21769C6.21512 6.22405 6.20877 6.2306 6.20243 6.23716L6.186 6.25394C4.90164 7.57204 5.05041 8.38845 5.81542 9.75035C6.10031 10.2575 6.63678 10.9421 7.18198 11.5848C7.59488 12.0715 7.27671 12.8397 6.64058 12.892C5.80116 12.9609 4.93859 13.0656 4.37891 13.2227C2.87495 13.6447 2.19182 14.1168 2.16797 15.957L2.16813 16.0078C2.16807 16.0169 2.16822 16.026 2.16837 16.0351L2.16862 16.0586C2.19247 17.8988 2.87495 18.3709 4.37891 18.793C4.93043 18.9477 5.77609 19.0517 6.60388 19.1206C7.23918 19.1736 7.55691 19.9403 7.1454 20.4272C6.6129 21.0572 6.09394 21.7226 5.81542 22.2184C5.05041 23.5803 4.90164 24.3967 6.186 25.7148L6.20242 25.7316C6.20878 25.7381 6.21511 25.7447 6.22156 25.7511L6.25736 25.7871C7.57546 27.0714 8.39232 26.9222 9.75422 26.1572C10.2624 25.8718 10.9485 25.3338 11.5923 24.7876C12.079 24.3746 12.8473 24.6928 12.8995 25.329C12.9685 26.1694 13.0732 27.0334 13.2305 27.5938C13.6525 29.0977 14.1246 29.7808 15.9648 29.8047L16.0156 29.8045C16.0324 29.8046 16.0494 29.804 16.0664 29.804C17.9066 29.7802 18.3787 29.0977 18.8008 27.5938C18.9538 27.0484 19.0571 26.2154 19.1261 25.3965C19.1796 24.7613 19.9465 24.444 20.433 24.8559C21.0694 25.3948 21.7443 25.9224 22.2458 26.2041C23.6077 26.9691 24.4245 27.1183 25.7426 25.834L25.7784 25.7979L25.7904 25.7859L25.7976 25.7784L25.814 25.7617C27.0984 24.4436 26.9496 23.6272 26.1846 22.2653C25.8997 21.7581 25.3632 21.0735 24.818 20.4308C24.4051 19.9441 24.7233 19.1759 25.3594 19.1237C26.1988 19.0547 27.0614 18.95 27.6211 18.793C29.125 18.3709 29.8082 17.8988 29.832 16.0586L29.8319 16.0078C29.8319 15.9988 29.8318 15.9896 29.8316 15.9805L29.8314 15.957C29.8075 14.1168 29.125 13.6447 27.6211 13.2227C27.0696 13.0679 26.2239 12.964 25.3961 12.895C24.7608 12.8421 24.4431 12.0754 24.8546 11.5885C25.3871 10.9584 25.9061 10.2931 26.1846 9.79722C26.9496 8.43532 27.0984 7.61891 25.814 6.30082L25.7976 6.28405C25.7912 6.27748 25.7849 6.27094 25.7784 6.26456L25.7426 6.22854C24.4245 4.94418 23.6077 5.09341 22.2458 5.85842C21.7376 6.14384 21.0515 6.6818 20.4077 7.22806C19.921 7.64107 19.1527 7.32286 19.1005 6.68666C19.0315 5.84626 18.9268 4.98225 18.7695 4.42188C18.3475 2.91792 17.8754 2.23479 16.0352 2.21094L15.9844 2.2111C15.9753 2.21104 15.9662 2.21119 15.9571 2.21133L15.9336 2.21159C14.0934 2.23544 13.6213 2.91792 13.1992 4.42188C13.0462 4.96724 12.9429 5.80021 12.8739 6.61911ZM15.9961 21.4141C18.9819 21.4141 21.4023 18.9936 21.4023 16.0078C21.4023 13.022 18.9819 10.6016 15.9961 10.6016C13.0103 10.6016 10.5898 13.022 10.5898 16.0078C10.5898 18.9936 13.0103 21.4141 15.9961 21.4141Z"
        fill="url(#paint11_radial_18_24453)" />
    <path
        d="M6.32796 6.32342L6.32696 6.32442C6.32191 6.3294 6.31674 6.33474 6.31019 6.34151L6.30963 6.34208L6.29343 6.35862C5.66203 7.00662 5.407 7.50731 5.382 7.99342C5.35666 8.48602 5.56456 8.99748 5.9462 9.67688C6.22331 10.1702 6.75121 10.8451 7.29637 11.4878C7.78825 12.0676 7.41067 12.9792 6.65286 13.0415C5.81351 13.1104 4.96384 13.2143 4.41944 13.3671C3.66916 13.5776 3.16032 13.7923 2.82975 14.1585C2.50369 14.5198 2.32984 15.0539 2.31797 15.9578L2.31813 16.0073L2.31813 16.0088C2.31808 16.0159 2.31819 16.0233 2.31835 16.0327L2.31836 16.0335L2.31861 16.0566C2.33033 16.9613 2.50405 17.4957 2.8301 17.8571C3.1605 18.2233 3.66916 18.438 4.41944 18.6485C4.95582 18.7991 5.78872 18.9022 6.61633 18.9712C7.37314 19.0342 7.75013 19.944 7.25997 20.524C6.7276 21.1539 6.21704 21.8097 5.9462 22.2919C5.56456 22.9713 5.35666 23.4827 5.382 23.9753C5.407 24.4614 5.66199 24.9621 6.2933 25.61C6.29335 25.61 6.29339 25.6101 6.29343 25.6101L6.30961 25.6267L6.31018 25.6272C6.31674 25.634 6.3219 25.6393 6.32696 25.6443L6.32797 25.6453L6.36204 25.6797C6.36233 25.6799 6.36261 25.6802 6.3629 25.6805C7.01045 26.3113 7.51103 26.566 7.99704 26.5909C8.48976 26.6161 9.00135 26.4081 9.68076 26.0264C10.175 25.7488 10.8515 25.2194 11.4952 24.6732C12.0751 24.1812 12.9868 24.5588 13.049 25.3167C13.118 26.157 13.2219 27.0081 13.3749 27.5532C13.5854 28.3035 13.8001 28.8123 14.1664 29.1429C14.5276 29.469 15.0617 29.6428 15.9656 29.6547L16.0152 29.6545L16.0166 29.6545C16.0276 29.6546 16.0323 29.6545 16.0371 29.6544L6.32796 6.32342ZM6.32796 6.32342L6.3629 6.28826C7.01046 5.65749 7.51103 5.40278 7.99704 5.37789C8.48976 5.35266 9.00135 5.56068 9.68076 5.94232C10.1685 6.21629 10.8338 6.73544 11.47 7.27419C12.0497 7.76496 12.9596 7.38834 13.0233 6.6317C13.0923 5.81305 13.1948 4.99273 13.3436 4.4624C13.5542 3.71213 13.7688 3.20347 14.1351 2.87307C14.4965 2.54701 15.0309 2.3733 15.9355 2.36157L15.9587 2.36133L15.9595 2.36131C15.9689 2.36116 15.9763 2.36105 15.9834 2.3611L15.9848 2.3611L16.0344 2.36094C16.9383 2.37281 17.4724 2.54666 17.8336 2.87272C18.1999 3.20329 18.4146 3.71213 18.6251 4.4624C18.7781 5.00748 18.882 5.85859 18.951 6.69892C19.0132 7.45682 19.9249 7.83445 20.5047 7.34243C21.1485 6.79621 21.825 6.26684 22.3192 5.9892C22.9987 5.60755 23.5102 5.39954 24.003 5.42477C24.489 5.44966 24.9896 5.70437 25.6371 6.33515C25.6374 6.33542 25.6377 6.3357 25.638 6.33597L25.672 6.3703L25.6731 6.37131C25.6781 6.37629 25.6833 6.38161 25.6898 6.38839L25.6904 6.38897L25.7066 6.4055L6.32796 6.32342ZM25.6899 25.674L25.6904 25.6735L25.7066 25.657C26.338 25.009 26.593 24.5083 26.618 24.0222C26.6433 23.5296 26.4354 23.0181 26.0538 22.3387C25.7767 21.8454 25.2488 21.1705 24.7036 20.5279C24.2118 19.948 24.5893 19.0364 25.3471 18.9742C26.1865 18.9052 27.0362 18.8013 27.5806 18.6485C28.3308 18.438 28.8397 18.2233 29.1702 17.8571C29.4963 17.4958 29.6702 16.9618 29.682 16.0578L29.6819 16.0083L29.6819 16.0069C29.6819 15.9998 29.6818 15.9923 29.6817 15.9829L29.6816 15.9821L29.6814 15.959C29.6697 15.0543 29.496 14.5199 29.1699 14.1585C28.8395 13.7923 28.3308 13.5776 27.5806 13.3671C27.0442 13.2165 26.2113 13.1134 25.3837 13.0445C24.6269 12.9814 24.2499 12.0716 24.74 11.4917C25.2724 10.8618 25.783 10.2059 26.0538 9.72376C26.4354 9.04435 26.6433 8.53289 26.618 8.0403C26.593 7.55424 26.338 7.05361 25.7068 6.40574L25.6899 25.674ZM25.6899 25.674L25.6838 25.6803L25.6827 25.6815L25.672 25.6922L25.6719 25.6924L25.638 25.7265C25.6377 25.7268 25.6374 25.7271 25.6371 25.7274C24.9895 26.3581 24.489 26.6128 24.003 26.6377C23.5102 26.663 22.9987 26.4549 22.3192 26.0733C21.8315 25.7993 21.1662 25.2802 20.53 24.7414C19.9503 24.2507 19.0404 24.6273 18.9767 25.3839C18.9077 26.2026 18.8052 27.0229 18.6564 27.5532C18.4458 28.3035 18.2312 28.8122 17.8649 29.1426C17.5036 29.4685 16.9695 29.6422 16.0653 29.654L25.6899 25.674ZM15.9961 21.5641C19.0647 21.5641 21.5523 19.0764 21.5523 16.0078C21.5523 12.9392 19.0647 10.4516 15.9961 10.4516C12.9275 10.4516 10.4398 12.9392 10.4398 16.0078C10.4398 19.0764 12.9275 21.5641 15.9961 21.5641Z"
        stroke="url(#paint12_radial_18_24453)" stroke-width="0.3" />
    <path
        d="M6.32796 6.32342L6.32696 6.32442C6.32191 6.3294 6.31674 6.33474 6.31019 6.34151L6.30963 6.34208L6.29343 6.35862C5.66203 7.00662 5.407 7.50731 5.382 7.99342C5.35666 8.48602 5.56456 8.99748 5.9462 9.67688C6.22331 10.1702 6.75121 10.8451 7.29637 11.4878C7.78825 12.0676 7.41067 12.9792 6.65286 13.0415C5.81351 13.1104 4.96384 13.2143 4.41944 13.3671C3.66916 13.5776 3.16032 13.7923 2.82975 14.1585C2.50369 14.5198 2.32984 15.0539 2.31797 15.9578L2.31813 16.0073L2.31813 16.0088C2.31808 16.0159 2.31819 16.0233 2.31835 16.0327L2.31836 16.0335L2.31861 16.0566C2.33033 16.9613 2.50405 17.4957 2.8301 17.8571C3.1605 18.2233 3.66916 18.438 4.41944 18.6485C4.95582 18.7991 5.78872 18.9022 6.61633 18.9712C7.37314 19.0342 7.75013 19.944 7.25997 20.524C6.7276 21.1539 6.21704 21.8097 5.9462 22.2919C5.56456 22.9713 5.35666 23.4827 5.382 23.9753C5.407 24.4614 5.66199 24.9621 6.2933 25.61C6.29335 25.61 6.29339 25.6101 6.29343 25.6101L6.30961 25.6267L6.31018 25.6272C6.31674 25.634 6.3219 25.6393 6.32696 25.6443L6.32797 25.6453L6.36204 25.6797C6.36233 25.6799 6.36261 25.6802 6.3629 25.6805C7.01045 26.3113 7.51103 26.566 7.99704 26.5909C8.48976 26.6161 9.00135 26.4081 9.68076 26.0264C10.175 25.7488 10.8515 25.2194 11.4952 24.6732C12.0751 24.1812 12.9868 24.5588 13.049 25.3167C13.118 26.157 13.2219 27.0081 13.3749 27.5532C13.5854 28.3035 13.8001 28.8123 14.1664 29.1429C14.5276 29.469 15.0617 29.6428 15.9656 29.6547L16.0152 29.6545L16.0166 29.6545C16.0276 29.6546 16.0323 29.6545 16.0371 29.6544L6.32796 6.32342ZM6.32796 6.32342L6.3629 6.28826C7.01046 5.65749 7.51103 5.40278 7.99704 5.37789C8.48976 5.35266 9.00135 5.56068 9.68076 5.94232C10.1685 6.21629 10.8338 6.73544 11.47 7.27419C12.0497 7.76496 12.9596 7.38834 13.0233 6.6317C13.0923 5.81305 13.1948 4.99273 13.3436 4.4624C13.5542 3.71213 13.7688 3.20347 14.1351 2.87307C14.4965 2.54701 15.0309 2.3733 15.9355 2.36157L15.9587 2.36133L15.9595 2.36131C15.9689 2.36116 15.9763 2.36105 15.9834 2.3611L15.9848 2.3611L16.0344 2.36094C16.9383 2.37281 17.4724 2.54666 17.8336 2.87272C18.1999 3.20329 18.4146 3.71213 18.6251 4.4624C18.7781 5.00748 18.882 5.85859 18.951 6.69892C19.0132 7.45682 19.9249 7.83445 20.5047 7.34243C21.1485 6.79621 21.825 6.26684 22.3192 5.9892C22.9987 5.60755 23.5102 5.39954 24.003 5.42477C24.489 5.44966 24.9896 5.70437 25.6371 6.33515C25.6374 6.33542 25.6377 6.3357 25.638 6.33597L25.672 6.3703L25.6731 6.37131C25.6781 6.37629 25.6833 6.38161 25.6898 6.38839L25.6904 6.38897L25.7066 6.4055L6.32796 6.32342ZM25.6899 25.674L25.6904 25.6735L25.7066 25.657C26.338 25.009 26.593 24.5083 26.618 24.0222C26.6433 23.5296 26.4354 23.0181 26.0538 22.3387C25.7767 21.8454 25.2488 21.1705 24.7036 20.5279C24.2118 19.948 24.5893 19.0364 25.3471 18.9742C26.1865 18.9052 27.0362 18.8013 27.5806 18.6485C28.3308 18.438 28.8397 18.2233 29.1702 17.8571C29.4963 17.4958 29.6702 16.9618 29.682 16.0578L29.6819 16.0083L29.6819 16.0069C29.6819 15.9998 29.6818 15.9923 29.6817 15.9829L29.6816 15.9821L29.6814 15.959C29.6697 15.0543 29.496 14.5199 29.1699 14.1585C28.8395 13.7923 28.3308 13.5776 27.5806 13.3671C27.0442 13.2165 26.2113 13.1134 25.3837 13.0445C24.6269 12.9814 24.2499 12.0716 24.74 11.4917C25.2724 10.8618 25.783 10.2059 26.0538 9.72376C26.4354 9.04435 26.6433 8.53289 26.618 8.0403C26.593 7.55424 26.338 7.05361 25.7068 6.40574L25.6899 25.674ZM25.6899 25.674L25.6838 25.6803L25.6827 25.6815L25.672 25.6922L25.6719 25.6924L25.638 25.7265C25.6377 25.7268 25.6374 25.7271 25.6371 25.7274C24.9895 26.3581 24.489 26.6128 24.003 26.6377C23.5102 26.663 22.9987 26.4549 22.3192 26.0733C21.8315 25.7993 21.1662 25.2802 20.53 24.7414C19.9503 24.2507 19.0404 24.6273 18.9767 25.3839C18.9077 26.2026 18.8052 27.0229 18.6564 27.5532C18.4458 28.3035 18.2312 28.8122 17.8649 29.1426C17.5036 29.4685 16.9695 29.6422 16.0653 29.654L25.6899 25.674ZM15.9961 21.5641C19.0647 21.5641 21.5523 19.0764 21.5523 16.0078C21.5523 12.9392 19.0647 10.4516 15.9961 10.4516C12.9275 10.4516 10.4398 12.9392 10.4398 16.0078C10.4398 19.0764 12.9275 21.5641 15.9961 21.5641Z"
        stroke="url(#paint13_radial_18_24453)" stroke-width="0.3" />
    <path
        d="M6.32796 6.32342L6.32696 6.32442C6.32191 6.3294 6.31674 6.33474 6.31019 6.34151L6.30963 6.34208L6.29343 6.35862C5.66203 7.00662 5.407 7.50731 5.382 7.99342C5.35666 8.48602 5.56456 8.99748 5.9462 9.67688C6.22331 10.1702 6.75121 10.8451 7.29637 11.4878C7.78825 12.0676 7.41067 12.9792 6.65286 13.0415C5.81351 13.1104 4.96384 13.2143 4.41944 13.3671C3.66916 13.5776 3.16032 13.7923 2.82975 14.1585C2.50369 14.5198 2.32984 15.0539 2.31797 15.9578L2.31813 16.0073L2.31813 16.0088C2.31808 16.0159 2.31819 16.0233 2.31835 16.0327L2.31836 16.0335L2.31861 16.0566C2.33033 16.9613 2.50405 17.4957 2.8301 17.8571C3.1605 18.2233 3.66916 18.438 4.41944 18.6485C4.95582 18.7991 5.78872 18.9022 6.61633 18.9712C7.37314 19.0342 7.75013 19.944 7.25997 20.524C6.7276 21.1539 6.21704 21.8097 5.9462 22.2919C5.56456 22.9713 5.35666 23.4827 5.382 23.9753C5.407 24.4614 5.66199 24.9621 6.2933 25.61C6.29335 25.61 6.29339 25.6101 6.29343 25.6101L6.30961 25.6267L6.31018 25.6272C6.31674 25.634 6.3219 25.6393 6.32696 25.6443L6.32797 25.6453L6.36204 25.6797C6.36233 25.6799 6.36261 25.6802 6.3629 25.6805C7.01045 26.3113 7.51103 26.566 7.99704 26.5909C8.48976 26.6161 9.00135 26.4081 9.68076 26.0264C10.175 25.7488 10.8515 25.2194 11.4952 24.6732C12.0751 24.1812 12.9868 24.5588 13.049 25.3167C13.118 26.157 13.2219 27.0081 13.3749 27.5532C13.5854 28.3035 13.8001 28.8123 14.1664 29.1429C14.5276 29.469 15.0617 29.6428 15.9656 29.6547L16.0152 29.6545L16.0166 29.6545C16.0276 29.6546 16.0323 29.6545 16.0371 29.6544L6.32796 6.32342ZM6.32796 6.32342L6.3629 6.28826C7.01046 5.65749 7.51103 5.40278 7.99704 5.37789C8.48976 5.35266 9.00135 5.56068 9.68076 5.94232C10.1685 6.21629 10.8338 6.73544 11.47 7.27419C12.0497 7.76496 12.9596 7.38834 13.0233 6.6317C13.0923 5.81305 13.1948 4.99273 13.3436 4.4624C13.5542 3.71213 13.7688 3.20347 14.1351 2.87307C14.4965 2.54701 15.0309 2.3733 15.9355 2.36157L15.9587 2.36133L15.9595 2.36131C15.9689 2.36116 15.9763 2.36105 15.9834 2.3611L15.9848 2.3611L16.0344 2.36094C16.9383 2.37281 17.4724 2.54666 17.8336 2.87272C18.1999 3.20329 18.4146 3.71213 18.6251 4.4624C18.7781 5.00748 18.882 5.85859 18.951 6.69892C19.0132 7.45682 19.9249 7.83445 20.5047 7.34243C21.1485 6.79621 21.825 6.26684 22.3192 5.9892C22.9987 5.60755 23.5102 5.39954 24.003 5.42477C24.489 5.44966 24.9896 5.70437 25.6371 6.33515C25.6374 6.33542 25.6377 6.3357 25.638 6.33597L25.672 6.3703L25.6731 6.37131C25.6781 6.37629 25.6833 6.38161 25.6898 6.38839L25.6904 6.38897L25.7066 6.4055L6.32796 6.32342ZM25.6899 25.674L25.6904 25.6735L25.7066 25.657C26.338 25.009 26.593 24.5083 26.618 24.0222C26.6433 23.5296 26.4354 23.0181 26.0538 22.3387C25.7767 21.8454 25.2488 21.1705 24.7036 20.5279C24.2118 19.948 24.5893 19.0364 25.3471 18.9742C26.1865 18.9052 27.0362 18.8013 27.5806 18.6485C28.3308 18.438 28.8397 18.2233 29.1702 17.8571C29.4963 17.4958 29.6702 16.9618 29.682 16.0578L29.6819 16.0083L29.6819 16.0069C29.6819 15.9998 29.6818 15.9923 29.6817 15.9829L29.6816 15.9821L29.6814 15.959C29.6697 15.0543 29.496 14.5199 29.1699 14.1585C28.8395 13.7923 28.3308 13.5776 27.5806 13.3671C27.0442 13.2165 26.2113 13.1134 25.3837 13.0445C24.6269 12.9814 24.2499 12.0716 24.74 11.4917C25.2724 10.8618 25.783 10.2059 26.0538 9.72376C26.4354 9.04435 26.6433 8.53289 26.618 8.0403C26.593 7.55424 26.338 7.05361 25.7068 6.40574L25.6899 25.674ZM25.6899 25.674L25.6838 25.6803L25.6827 25.6815L25.672 25.6922L25.6719 25.6924L25.638 25.7265C25.6377 25.7268 25.6374 25.7271 25.6371 25.7274C24.9895 26.3581 24.489 26.6128 24.003 26.6377C23.5102 26.663 22.9987 26.4549 22.3192 26.0733C21.8315 25.7993 21.1662 25.2802 20.53 24.7414C19.9503 24.2507 19.0404 24.6273 18.9767 25.3839C18.9077 26.2026 18.8052 27.0229 18.6564 27.5532C18.4458 28.3035 18.2312 28.8122 17.8649 29.1426C17.5036 29.4685 16.9695 29.6422 16.0653 29.654L25.6899 25.674ZM15.9961 21.5641C19.0647 21.5641 21.5523 19.0764 21.5523 16.0078C21.5523 12.9392 19.0647 10.4516 15.9961 10.4516C12.9275 10.4516 10.4398 12.9392 10.4398 16.0078C10.4398 19.0764 12.9275 21.5641 15.9961 21.5641Z"
        stroke="url(#paint14_radial_18_24453)" stroke-width="0.3" />
    <path
        d="M6.32796 6.32342L6.32696 6.32442C6.32191 6.3294 6.31674 6.33474 6.31019 6.34151L6.30963 6.34208L6.29343 6.35862C5.66203 7.00662 5.407 7.50731 5.382 7.99342C5.35666 8.48602 5.56456 8.99748 5.9462 9.67688C6.22331 10.1702 6.75121 10.8451 7.29637 11.4878C7.78825 12.0676 7.41067 12.9792 6.65286 13.0415C5.81351 13.1104 4.96384 13.2143 4.41944 13.3671C3.66916 13.5776 3.16032 13.7923 2.82975 14.1585C2.50369 14.5198 2.32984 15.0539 2.31797 15.9578L2.31813 16.0073L2.31813 16.0088C2.31808 16.0159 2.31819 16.0233 2.31835 16.0327L2.31836 16.0335L2.31861 16.0566C2.33033 16.9613 2.50405 17.4957 2.8301 17.8571C3.1605 18.2233 3.66916 18.438 4.41944 18.6485C4.95582 18.7991 5.78872 18.9022 6.61633 18.9712C7.37314 19.0342 7.75013 19.944 7.25997 20.524C6.7276 21.1539 6.21704 21.8097 5.9462 22.2919C5.56456 22.9713 5.35666 23.4827 5.382 23.9753C5.407 24.4614 5.66199 24.9621 6.2933 25.61C6.29335 25.61 6.29339 25.6101 6.29343 25.6101L6.30961 25.6267L6.31018 25.6272C6.31674 25.634 6.3219 25.6393 6.32696 25.6443L6.32797 25.6453L6.36204 25.6797C6.36233 25.6799 6.36261 25.6802 6.3629 25.6805C7.01045 26.3113 7.51103 26.566 7.99704 26.5909C8.48976 26.6161 9.00135 26.4081 9.68076 26.0264C10.175 25.7488 10.8515 25.2194 11.4952 24.6732C12.0751 24.1812 12.9868 24.5588 13.049 25.3167C13.118 26.157 13.2219 27.0081 13.3749 27.5532C13.5854 28.3035 13.8001 28.8123 14.1664 29.1429C14.5276 29.469 15.0617 29.6428 15.9656 29.6547L16.0152 29.6545L16.0166 29.6545C16.0276 29.6546 16.0323 29.6545 16.0371 29.6544L6.32796 6.32342ZM6.32796 6.32342L6.3629 6.28826C7.01046 5.65749 7.51103 5.40278 7.99704 5.37789C8.48976 5.35266 9.00135 5.56068 9.68076 5.94232C10.1685 6.21629 10.8338 6.73544 11.47 7.27419C12.0497 7.76496 12.9596 7.38834 13.0233 6.6317C13.0923 5.81305 13.1948 4.99273 13.3436 4.4624C13.5542 3.71213 13.7688 3.20347 14.1351 2.87307C14.4965 2.54701 15.0309 2.3733 15.9355 2.36157L15.9587 2.36133L15.9595 2.36131C15.9689 2.36116 15.9763 2.36105 15.9834 2.3611L15.9848 2.3611L16.0344 2.36094C16.9383 2.37281 17.4724 2.54666 17.8336 2.87272C18.1999 3.20329 18.4146 3.71213 18.6251 4.4624C18.7781 5.00748 18.882 5.85859 18.951 6.69892C19.0132 7.45682 19.9249 7.83445 20.5047 7.34243C21.1485 6.79621 21.825 6.26684 22.3192 5.9892C22.9987 5.60755 23.5102 5.39954 24.003 5.42477C24.489 5.44966 24.9896 5.70437 25.6371 6.33515C25.6374 6.33542 25.6377 6.3357 25.638 6.33597L25.672 6.3703L25.6731 6.37131C25.6781 6.37629 25.6833 6.38161 25.6898 6.38839L25.6904 6.38897L25.7066 6.4055L6.32796 6.32342ZM25.6899 25.674L25.6904 25.6735L25.7066 25.657C26.338 25.009 26.593 24.5083 26.618 24.0222C26.6433 23.5296 26.4354 23.0181 26.0538 22.3387C25.7767 21.8454 25.2488 21.1705 24.7036 20.5279C24.2118 19.948 24.5893 19.0364 25.3471 18.9742C26.1865 18.9052 27.0362 18.8013 27.5806 18.6485C28.3308 18.438 28.8397 18.2233 29.1702 17.8571C29.4963 17.4958 29.6702 16.9618 29.682 16.0578L29.6819 16.0083L29.6819 16.0069C29.6819 15.9998 29.6818 15.9923 29.6817 15.9829L29.6816 15.9821L29.6814 15.959C29.6697 15.0543 29.496 14.5199 29.1699 14.1585C28.8395 13.7923 28.3308 13.5776 27.5806 13.3671C27.0442 13.2165 26.2113 13.1134 25.3837 13.0445C24.6269 12.9814 24.2499 12.0716 24.74 11.4917C25.2724 10.8618 25.783 10.2059 26.0538 9.72376C26.4354 9.04435 26.6433 8.53289 26.618 8.0403C26.593 7.55424 26.338 7.05361 25.7068 6.40574L25.6899 25.674ZM25.6899 25.674L25.6838 25.6803L25.6827 25.6815L25.672 25.6922L25.6719 25.6924L25.638 25.7265C25.6377 25.7268 25.6374 25.7271 25.6371 25.7274C24.9895 26.3581 24.489 26.6128 24.003 26.6377C23.5102 26.663 22.9987 26.4549 22.3192 26.0733C21.8315 25.7993 21.1662 25.2802 20.53 24.7414C19.9503 24.2507 19.0404 24.6273 18.9767 25.3839C18.9077 26.2026 18.8052 27.0229 18.6564 27.5532C18.4458 28.3035 18.2312 28.8122 17.8649 29.1426C17.5036 29.4685 16.9695 29.6422 16.0653 29.654L25.6899 25.674ZM15.9961 21.5641C19.0647 21.5641 21.5523 19.0764 21.5523 16.0078C21.5523 12.9392 19.0647 10.4516 15.9961 10.4516C12.9275 10.4516 10.4398 12.9392 10.4398 16.0078C10.4398 19.0764 12.9275 21.5641 15.9961 21.5641Z"
        stroke="url(#paint15_radial_18_24453)" stroke-width="0.3" />
    <path
        d="M6.32796 6.32342L6.32696 6.32442C6.32191 6.3294 6.31674 6.33474 6.31019 6.34151L6.30963 6.34208L6.29343 6.35862C5.66203 7.00662 5.407 7.50731 5.382 7.99342C5.35666 8.48602 5.56456 8.99748 5.9462 9.67688C6.22331 10.1702 6.75121 10.8451 7.29637 11.4878C7.78825 12.0676 7.41067 12.9792 6.65286 13.0415C5.81351 13.1104 4.96384 13.2143 4.41944 13.3671C3.66916 13.5776 3.16032 13.7923 2.82975 14.1585C2.50369 14.5198 2.32984 15.0539 2.31797 15.9578L2.31813 16.0073L2.31813 16.0088C2.31808 16.0159 2.31819 16.0233 2.31835 16.0327L2.31836 16.0335L2.31861 16.0566C2.33033 16.9613 2.50405 17.4957 2.8301 17.8571C3.1605 18.2233 3.66916 18.438 4.41944 18.6485C4.95582 18.7991 5.78872 18.9022 6.61633 18.9712C7.37314 19.0342 7.75013 19.944 7.25997 20.524C6.7276 21.1539 6.21704 21.8097 5.9462 22.2919C5.56456 22.9713 5.35666 23.4827 5.382 23.9753C5.407 24.4614 5.66199 24.9621 6.2933 25.61C6.29335 25.61 6.29339 25.6101 6.29343 25.6101L6.30961 25.6267L6.31018 25.6272C6.31674 25.634 6.3219 25.6393 6.32696 25.6443L6.32797 25.6453L6.36204 25.6797C6.36233 25.6799 6.36261 25.6802 6.3629 25.6805C7.01045 26.3113 7.51103 26.566 7.99704 26.5909C8.48976 26.6161 9.00135 26.4081 9.68076 26.0264C10.175 25.7488 10.8515 25.2194 11.4952 24.6732C12.0751 24.1812 12.9868 24.5588 13.049 25.3167C13.118 26.157 13.2219 27.0081 13.3749 27.5532C13.5854 28.3035 13.8001 28.8123 14.1664 29.1429C14.5276 29.469 15.0617 29.6428 15.9656 29.6547L16.0152 29.6545L16.0166 29.6545C16.0276 29.6546 16.0323 29.6545 16.0371 29.6544L6.32796 6.32342ZM6.32796 6.32342L6.3629 6.28826C7.01046 5.65749 7.51103 5.40278 7.99704 5.37789C8.48976 5.35266 9.00135 5.56068 9.68076 5.94232C10.1685 6.21629 10.8338 6.73544 11.47 7.27419C12.0497 7.76496 12.9596 7.38834 13.0233 6.6317C13.0923 5.81305 13.1948 4.99273 13.3436 4.4624C13.5542 3.71213 13.7688 3.20347 14.1351 2.87307C14.4965 2.54701 15.0309 2.3733 15.9355 2.36157L15.9587 2.36133L15.9595 2.36131C15.9689 2.36116 15.9763 2.36105 15.9834 2.3611L15.9848 2.3611L16.0344 2.36094C16.9383 2.37281 17.4724 2.54666 17.8336 2.87272C18.1999 3.20329 18.4146 3.71213 18.6251 4.4624C18.7781 5.00748 18.882 5.85859 18.951 6.69892C19.0132 7.45682 19.9249 7.83445 20.5047 7.34243C21.1485 6.79621 21.825 6.26684 22.3192 5.9892C22.9987 5.60755 23.5102 5.39954 24.003 5.42477C24.489 5.44966 24.9896 5.70437 25.6371 6.33515C25.6374 6.33542 25.6377 6.3357 25.638 6.33597L25.672 6.3703L25.6731 6.37131C25.6781 6.37629 25.6833 6.38161 25.6898 6.38839L25.6904 6.38897L25.7066 6.4055L6.32796 6.32342ZM25.6899 25.674L25.6904 25.6735L25.7066 25.657C26.338 25.009 26.593 24.5083 26.618 24.0222C26.6433 23.5296 26.4354 23.0181 26.0538 22.3387C25.7767 21.8454 25.2488 21.1705 24.7036 20.5279C24.2118 19.948 24.5893 19.0364 25.3471 18.9742C26.1865 18.9052 27.0362 18.8013 27.5806 18.6485C28.3308 18.438 28.8397 18.2233 29.1702 17.8571C29.4963 17.4958 29.6702 16.9618 29.682 16.0578L29.6819 16.0083L29.6819 16.0069C29.6819 15.9998 29.6818 15.9923 29.6817 15.9829L29.6816 15.9821L29.6814 15.959C29.6697 15.0543 29.496 14.5199 29.1699 14.1585C28.8395 13.7923 28.3308 13.5776 27.5806 13.3671C27.0442 13.2165 26.2113 13.1134 25.3837 13.0445C24.6269 12.9814 24.2499 12.0716 24.74 11.4917C25.2724 10.8618 25.783 10.2059 26.0538 9.72376C26.4354 9.04435 26.6433 8.53289 26.618 8.0403C26.593 7.55424 26.338 7.05361 25.7068 6.40574L25.6899 25.674ZM25.6899 25.674L25.6838 25.6803L25.6827 25.6815L25.672 25.6922L25.6719 25.6924L25.638 25.7265C25.6377 25.7268 25.6374 25.7271 25.6371 25.7274C24.9895 26.3581 24.489 26.6128 24.003 26.6377C23.5102 26.663 22.9987 26.4549 22.3192 26.0733C21.8315 25.7993 21.1662 25.2802 20.53 24.7414C19.9503 24.2507 19.0404 24.6273 18.9767 25.3839C18.9077 26.2026 18.8052 27.0229 18.6564 27.5532C18.4458 28.3035 18.2312 28.8122 17.8649 29.1426C17.5036 29.4685 16.9695 29.6422 16.0653 29.654L25.6899 25.674ZM15.9961 21.5641C19.0647 21.5641 21.5523 19.0764 21.5523 16.0078C21.5523 12.9392 19.0647 10.4516 15.9961 10.4516C12.9275 10.4516 10.4398 12.9392 10.4398 16.0078C10.4398 19.0764 12.9275 21.5641 15.9961 21.5641Z"
        stroke="url(#paint16_radial_18_24453)" stroke-width="0.3" />
    <path
        d="M6.32796 6.32342L6.32696 6.32442C6.32191 6.3294 6.31674 6.33474 6.31019 6.34151L6.30963 6.34208L6.29343 6.35862C5.66203 7.00662 5.407 7.50731 5.382 7.99342C5.35666 8.48602 5.56456 8.99748 5.9462 9.67688C6.22331 10.1702 6.75121 10.8451 7.29637 11.4878C7.78825 12.0676 7.41067 12.9792 6.65286 13.0415C5.81351 13.1104 4.96384 13.2143 4.41944 13.3671C3.66916 13.5776 3.16032 13.7923 2.82975 14.1585C2.50369 14.5198 2.32984 15.0539 2.31797 15.9578L2.31813 16.0073L2.31813 16.0088C2.31808 16.0159 2.31819 16.0233 2.31835 16.0327L2.31836 16.0335L2.31861 16.0566C2.33033 16.9613 2.50405 17.4957 2.8301 17.8571C3.1605 18.2233 3.66916 18.438 4.41944 18.6485C4.95582 18.7991 5.78872 18.9022 6.61633 18.9712C7.37314 19.0342 7.75013 19.944 7.25997 20.524C6.7276 21.1539 6.21704 21.8097 5.9462 22.2919C5.56456 22.9713 5.35666 23.4827 5.382 23.9753C5.407 24.4614 5.66199 24.9621 6.2933 25.61C6.29335 25.61 6.29339 25.6101 6.29343 25.6101L6.30961 25.6267L6.31018 25.6272C6.31674 25.634 6.3219 25.6393 6.32696 25.6443L6.32797 25.6453L6.36204 25.6797C6.36233 25.6799 6.36261 25.6802 6.3629 25.6805C7.01045 26.3113 7.51103 26.566 7.99704 26.5909C8.48976 26.6161 9.00135 26.4081 9.68076 26.0264C10.175 25.7488 10.8515 25.2194 11.4952 24.6732C12.0751 24.1812 12.9868 24.5588 13.049 25.3167C13.118 26.157 13.2219 27.0081 13.3749 27.5532C13.5854 28.3035 13.8001 28.8123 14.1664 29.1429C14.5276 29.469 15.0617 29.6428 15.9656 29.6547L16.0152 29.6545L16.0166 29.6545C16.0276 29.6546 16.0323 29.6545 16.0371 29.6544L6.32796 6.32342ZM6.32796 6.32342L6.3629 6.28826C7.01046 5.65749 7.51103 5.40278 7.99704 5.37789C8.48976 5.35266 9.00135 5.56068 9.68076 5.94232C10.1685 6.21629 10.8338 6.73544 11.47 7.27419C12.0497 7.76496 12.9596 7.38834 13.0233 6.6317C13.0923 5.81305 13.1948 4.99273 13.3436 4.4624C13.5542 3.71213 13.7688 3.20347 14.1351 2.87307C14.4965 2.54701 15.0309 2.3733 15.9355 2.36157L15.9587 2.36133L15.9595 2.36131C15.9689 2.36116 15.9763 2.36105 15.9834 2.3611L15.9848 2.3611L16.0344 2.36094C16.9383 2.37281 17.4724 2.54666 17.8336 2.87272C18.1999 3.20329 18.4146 3.71213 18.6251 4.4624C18.7781 5.00748 18.882 5.85859 18.951 6.69892C19.0132 7.45682 19.9249 7.83445 20.5047 7.34243C21.1485 6.79621 21.825 6.26684 22.3192 5.9892C22.9987 5.60755 23.5102 5.39954 24.003 5.42477C24.489 5.44966 24.9896 5.70437 25.6371 6.33515C25.6374 6.33542 25.6377 6.3357 25.638 6.33597L25.672 6.3703L25.6731 6.37131C25.6781 6.37629 25.6833 6.38161 25.6898 6.38839L25.6904 6.38897L25.7066 6.4055L6.32796 6.32342ZM25.6899 25.674L25.6904 25.6735L25.7066 25.657C26.338 25.009 26.593 24.5083 26.618 24.0222C26.6433 23.5296 26.4354 23.0181 26.0538 22.3387C25.7767 21.8454 25.2488 21.1705 24.7036 20.5279C24.2118 19.948 24.5893 19.0364 25.3471 18.9742C26.1865 18.9052 27.0362 18.8013 27.5806 18.6485C28.3308 18.438 28.8397 18.2233 29.1702 17.8571C29.4963 17.4958 29.6702 16.9618 29.682 16.0578L29.6819 16.0083L29.6819 16.0069C29.6819 15.9998 29.6818 15.9923 29.6817 15.9829L29.6816 15.9821L29.6814 15.959C29.6697 15.0543 29.496 14.5199 29.1699 14.1585C28.8395 13.7923 28.3308 13.5776 27.5806 13.3671C27.0442 13.2165 26.2113 13.1134 25.3837 13.0445C24.6269 12.9814 24.2499 12.0716 24.74 11.4917C25.2724 10.8618 25.783 10.2059 26.0538 9.72376C26.4354 9.04435 26.6433 8.53289 26.618 8.0403C26.593 7.55424 26.338 7.05361 25.7068 6.40574L25.6899 25.674ZM25.6899 25.674L25.6838 25.6803L25.6827 25.6815L25.672 25.6922L25.6719 25.6924L25.638 25.7265C25.6377 25.7268 25.6374 25.7271 25.6371 25.7274C24.9895 26.3581 24.489 26.6128 24.003 26.6377C23.5102 26.663 22.9987 26.4549 22.3192 26.0733C21.8315 25.7993 21.1662 25.2802 20.53 24.7414C19.9503 24.2507 19.0404 24.6273 18.9767 25.3839C18.9077 26.2026 18.8052 27.0229 18.6564 27.5532C18.4458 28.3035 18.2312 28.8122 17.8649 29.1426C17.5036 29.4685 16.9695 29.6422 16.0653 29.654L25.6899 25.674ZM15.9961 21.5641C19.0647 21.5641 21.5523 19.0764 21.5523 16.0078C21.5523 12.9392 19.0647 10.4516 15.9961 10.4516C12.9275 10.4516 10.4398 12.9392 10.4398 16.0078C10.4398 19.0764 12.9275 21.5641 15.9961 21.5641Z"
        stroke="url(#paint17_radial_18_24453)" stroke-width="0.3" />
    <path
        d="M6.32796 6.32342L6.32696 6.32442C6.32191 6.3294 6.31674 6.33474 6.31019 6.34151L6.30963 6.34208L6.29343 6.35862C5.66203 7.00662 5.407 7.50731 5.382 7.99342C5.35666 8.48602 5.56456 8.99748 5.9462 9.67688C6.22331 10.1702 6.75121 10.8451 7.29637 11.4878C7.78825 12.0676 7.41067 12.9792 6.65286 13.0415C5.81351 13.1104 4.96384 13.2143 4.41944 13.3671C3.66916 13.5776 3.16032 13.7923 2.82975 14.1585C2.50369 14.5198 2.32984 15.0539 2.31797 15.9578L2.31813 16.0073L2.31813 16.0088C2.31808 16.0159 2.31819 16.0233 2.31835 16.0327L2.31836 16.0335L2.31861 16.0566C2.33033 16.9613 2.50405 17.4957 2.8301 17.8571C3.1605 18.2233 3.66916 18.438 4.41944 18.6485C4.95582 18.7991 5.78872 18.9022 6.61633 18.9712C7.37314 19.0342 7.75013 19.944 7.25997 20.524C6.7276 21.1539 6.21704 21.8097 5.9462 22.2919C5.56456 22.9713 5.35666 23.4827 5.382 23.9753C5.407 24.4614 5.66199 24.9621 6.2933 25.61C6.29335 25.61 6.29339 25.6101 6.29343 25.6101L6.30961 25.6267L6.31018 25.6272C6.31674 25.634 6.3219 25.6393 6.32696 25.6443L6.32797 25.6453L6.36204 25.6797C6.36233 25.6799 6.36261 25.6802 6.3629 25.6805C7.01045 26.3113 7.51103 26.566 7.99704 26.5909C8.48976 26.6161 9.00135 26.4081 9.68076 26.0264C10.175 25.7488 10.8515 25.2194 11.4952 24.6732C12.0751 24.1812 12.9868 24.5588 13.049 25.3167C13.118 26.157 13.2219 27.0081 13.3749 27.5532C13.5854 28.3035 13.8001 28.8123 14.1664 29.1429C14.5276 29.469 15.0617 29.6428 15.9656 29.6547L16.0152 29.6545L16.0166 29.6545C16.0276 29.6546 16.0323 29.6545 16.0371 29.6544L6.32796 6.32342ZM6.32796 6.32342L6.3629 6.28826C7.01046 5.65749 7.51103 5.40278 7.99704 5.37789C8.48976 5.35266 9.00135 5.56068 9.68076 5.94232C10.1685 6.21629 10.8338 6.73544 11.47 7.27419C12.0497 7.76496 12.9596 7.38834 13.0233 6.6317C13.0923 5.81305 13.1948 4.99273 13.3436 4.4624C13.5542 3.71213 13.7688 3.20347 14.1351 2.87307C14.4965 2.54701 15.0309 2.3733 15.9355 2.36157L15.9587 2.36133L15.9595 2.36131C15.9689 2.36116 15.9763 2.36105 15.9834 2.3611L15.9848 2.3611L16.0344 2.36094C16.9383 2.37281 17.4724 2.54666 17.8336 2.87272C18.1999 3.20329 18.4146 3.71213 18.6251 4.4624C18.7781 5.00748 18.882 5.85859 18.951 6.69892C19.0132 7.45682 19.9249 7.83445 20.5047 7.34243C21.1485 6.79621 21.825 6.26684 22.3192 5.9892C22.9987 5.60755 23.5102 5.39954 24.003 5.42477C24.489 5.44966 24.9896 5.70437 25.6371 6.33515C25.6374 6.33542 25.6377 6.3357 25.638 6.33597L25.672 6.3703L25.6731 6.37131C25.6781 6.37629 25.6833 6.38161 25.6898 6.38839L25.6904 6.38897L25.7066 6.4055L6.32796 6.32342ZM25.6899 25.674L25.6904 25.6735L25.7066 25.657C26.338 25.009 26.593 24.5083 26.618 24.0222C26.6433 23.5296 26.4354 23.0181 26.0538 22.3387C25.7767 21.8454 25.2488 21.1705 24.7036 20.5279C24.2118 19.948 24.5893 19.0364 25.3471 18.9742C26.1865 18.9052 27.0362 18.8013 27.5806 18.6485C28.3308 18.438 28.8397 18.2233 29.1702 17.8571C29.4963 17.4958 29.6702 16.9618 29.682 16.0578L29.6819 16.0083L29.6819 16.0069C29.6819 15.9998 29.6818 15.9923 29.6817 15.9829L29.6816 15.9821L29.6814 15.959C29.6697 15.0543 29.496 14.5199 29.1699 14.1585C28.8395 13.7923 28.3308 13.5776 27.5806 13.3671C27.0442 13.2165 26.2113 13.1134 25.3837 13.0445C24.6269 12.9814 24.2499 12.0716 24.74 11.4917C25.2724 10.8618 25.783 10.2059 26.0538 9.72376C26.4354 9.04435 26.6433 8.53289 26.618 8.0403C26.593 7.55424 26.338 7.05361 25.7068 6.40574L25.6899 25.674ZM25.6899 25.674L25.6838 25.6803L25.6827 25.6815L25.672 25.6922L25.6719 25.6924L25.638 25.7265C25.6377 25.7268 25.6374 25.7271 25.6371 25.7274C24.9895 26.3581 24.489 26.6128 24.003 26.6377C23.5102 26.663 22.9987 26.4549 22.3192 26.0733C21.8315 25.7993 21.1662 25.2802 20.53 24.7414C19.9503 24.2507 19.0404 24.6273 18.9767 25.3839C18.9077 26.2026 18.8052 27.0229 18.6564 27.5532C18.4458 28.3035 18.2312 28.8122 17.8649 29.1426C17.5036 29.4685 16.9695 29.6422 16.0653 29.654L25.6899 25.674ZM15.9961 21.5641C19.0647 21.5641 21.5523 19.0764 21.5523 16.0078C21.5523 12.9392 19.0647 10.4516 15.9961 10.4516C12.9275 10.4516 10.4398 12.9392 10.4398 16.0078C10.4398 19.0764 12.9275 21.5641 15.9961 21.5641Z"
        stroke="url(#paint18_radial_18_24453)" stroke-width="0.3" />
    <path
        d="M6.32796 6.32342L6.32696 6.32442C6.32191 6.3294 6.31674 6.33474 6.31019 6.34151L6.30963 6.34208L6.29343 6.35862C5.66203 7.00662 5.407 7.50731 5.382 7.99342C5.35666 8.48602 5.56456 8.99748 5.9462 9.67688C6.22331 10.1702 6.75121 10.8451 7.29637 11.4878C7.78825 12.0676 7.41067 12.9792 6.65286 13.0415C5.81351 13.1104 4.96384 13.2143 4.41944 13.3671C3.66916 13.5776 3.16032 13.7923 2.82975 14.1585C2.50369 14.5198 2.32984 15.0539 2.31797 15.9578L2.31813 16.0073L2.31813 16.0088C2.31808 16.0159 2.31819 16.0233 2.31835 16.0327L2.31836 16.0335L2.31861 16.0566C2.33033 16.9613 2.50405 17.4957 2.8301 17.8571C3.1605 18.2233 3.66916 18.438 4.41944 18.6485C4.95582 18.7991 5.78872 18.9022 6.61633 18.9712C7.37314 19.0342 7.75013 19.944 7.25997 20.524C6.7276 21.1539 6.21704 21.8097 5.9462 22.2919C5.56456 22.9713 5.35666 23.4827 5.382 23.9753C5.407 24.4614 5.66199 24.9621 6.2933 25.61C6.29335 25.61 6.29339 25.6101 6.29343 25.6101L6.30961 25.6267L6.31018 25.6272C6.31674 25.634 6.3219 25.6393 6.32696 25.6443L6.32797 25.6453L6.36204 25.6797C6.36233 25.6799 6.36261 25.6802 6.3629 25.6805C7.01045 26.3113 7.51103 26.566 7.99704 26.5909C8.48976 26.6161 9.00135 26.4081 9.68076 26.0264C10.175 25.7488 10.8515 25.2194 11.4952 24.6732C12.0751 24.1812 12.9868 24.5588 13.049 25.3167C13.118 26.157 13.2219 27.0081 13.3749 27.5532C13.5854 28.3035 13.8001 28.8123 14.1664 29.1429C14.5276 29.469 15.0617 29.6428 15.9656 29.6547L16.0152 29.6545L16.0166 29.6545C16.0276 29.6546 16.0323 29.6545 16.0371 29.6544L6.32796 6.32342ZM6.32796 6.32342L6.3629 6.28826C7.01046 5.65749 7.51103 5.40278 7.99704 5.37789C8.48976 5.35266 9.00135 5.56068 9.68076 5.94232C10.1685 6.21629 10.8338 6.73544 11.47 7.27419C12.0497 7.76496 12.9596 7.38834 13.0233 6.6317C13.0923 5.81305 13.1948 4.99273 13.3436 4.4624C13.5542 3.71213 13.7688 3.20347 14.1351 2.87307C14.4965 2.54701 15.0309 2.3733 15.9355 2.36157L15.9587 2.36133L15.9595 2.36131C15.9689 2.36116 15.9763 2.36105 15.9834 2.3611L15.9848 2.3611L16.0344 2.36094C16.9383 2.37281 17.4724 2.54666 17.8336 2.87272C18.1999 3.20329 18.4146 3.71213 18.6251 4.4624C18.7781 5.00748 18.882 5.85859 18.951 6.69892C19.0132 7.45682 19.9249 7.83445 20.5047 7.34243C21.1485 6.79621 21.825 6.26684 22.3192 5.9892C22.9987 5.60755 23.5102 5.39954 24.003 5.42477C24.489 5.44966 24.9896 5.70437 25.6371 6.33515C25.6374 6.33542 25.6377 6.3357 25.638 6.33597L25.672 6.3703L25.6731 6.37131C25.6781 6.37629 25.6833 6.38161 25.6898 6.38839L25.6904 6.38897L25.7066 6.4055L6.32796 6.32342ZM25.6899 25.674L25.6904 25.6735L25.7066 25.657C26.338 25.009 26.593 24.5083 26.618 24.0222C26.6433 23.5296 26.4354 23.0181 26.0538 22.3387C25.7767 21.8454 25.2488 21.1705 24.7036 20.5279C24.2118 19.948 24.5893 19.0364 25.3471 18.9742C26.1865 18.9052 27.0362 18.8013 27.5806 18.6485C28.3308 18.438 28.8397 18.2233 29.1702 17.8571C29.4963 17.4958 29.6702 16.9618 29.682 16.0578L29.6819 16.0083L29.6819 16.0069C29.6819 15.9998 29.6818 15.9923 29.6817 15.9829L29.6816 15.9821L29.6814 15.959C29.6697 15.0543 29.496 14.5199 29.1699 14.1585C28.8395 13.7923 28.3308 13.5776 27.5806 13.3671C27.0442 13.2165 26.2113 13.1134 25.3837 13.0445C24.6269 12.9814 24.2499 12.0716 24.74 11.4917C25.2724 10.8618 25.783 10.2059 26.0538 9.72376C26.4354 9.04435 26.6433 8.53289 26.618 8.0403C26.593 7.55424 26.338 7.05361 25.7068 6.40574L25.6899 25.674ZM25.6899 25.674L25.6838 25.6803L25.6827 25.6815L25.672 25.6922L25.6719 25.6924L25.638 25.7265C25.6377 25.7268 25.6374 25.7271 25.6371 25.7274C24.9895 26.3581 24.489 26.6128 24.003 26.6377C23.5102 26.663 22.9987 26.4549 22.3192 26.0733C21.8315 25.7993 21.1662 25.2802 20.53 24.7414C19.9503 24.2507 19.0404 24.6273 18.9767 25.3839C18.9077 26.2026 18.8052 27.0229 18.6564 27.5532C18.4458 28.3035 18.2312 28.8122 17.8649 29.1426C17.5036 29.4685 16.9695 29.6422 16.0653 29.654L25.6899 25.674ZM15.9961 21.5641C19.0647 21.5641 21.5523 19.0764 21.5523 16.0078C21.5523 12.9392 19.0647 10.4516 15.9961 10.4516C12.9275 10.4516 10.4398 12.9392 10.4398 16.0078C10.4398 19.0764 12.9275 21.5641 15.9961 21.5641Z"
        stroke="url(#paint19_radial_18_24453)" stroke-width="0.3" />
    <path
        d="M6.32796 6.32342L6.32696 6.32442C6.32191 6.3294 6.31674 6.33474 6.31019 6.34151L6.30963 6.34208L6.29343 6.35862C5.66203 7.00662 5.407 7.50731 5.382 7.99342C5.35666 8.48602 5.56456 8.99748 5.9462 9.67688C6.22331 10.1702 6.75121 10.8451 7.29637 11.4878C7.78825 12.0676 7.41067 12.9792 6.65286 13.0415C5.81351 13.1104 4.96384 13.2143 4.41944 13.3671C3.66916 13.5776 3.16032 13.7923 2.82975 14.1585C2.50369 14.5198 2.32984 15.0539 2.31797 15.9578L2.31813 16.0073L2.31813 16.0088C2.31808 16.0159 2.31819 16.0233 2.31835 16.0327L2.31836 16.0335L2.31861 16.0566C2.33033 16.9613 2.50405 17.4957 2.8301 17.8571C3.1605 18.2233 3.66916 18.438 4.41944 18.6485C4.95582 18.7991 5.78872 18.9022 6.61633 18.9712C7.37314 19.0342 7.75013 19.944 7.25997 20.524C6.7276 21.1539 6.21704 21.8097 5.9462 22.2919C5.56456 22.9713 5.35666 23.4827 5.382 23.9753C5.407 24.4614 5.66199 24.9621 6.2933 25.61C6.29335 25.61 6.29339 25.6101 6.29343 25.6101L6.30961 25.6267L6.31018 25.6272C6.31674 25.634 6.3219 25.6393 6.32696 25.6443L6.32797 25.6453L6.36204 25.6797C6.36233 25.6799 6.36261 25.6802 6.3629 25.6805C7.01045 26.3113 7.51103 26.566 7.99704 26.5909C8.48976 26.6161 9.00135 26.4081 9.68076 26.0264C10.175 25.7488 10.8515 25.2194 11.4952 24.6732C12.0751 24.1812 12.9868 24.5588 13.049 25.3167C13.118 26.157 13.2219 27.0081 13.3749 27.5532C13.5854 28.3035 13.8001 28.8123 14.1664 29.1429C14.5276 29.469 15.0617 29.6428 15.9656 29.6547L16.0152 29.6545L16.0166 29.6545C16.0276 29.6546 16.0323 29.6545 16.0371 29.6544L6.32796 6.32342ZM6.32796 6.32342L6.3629 6.28826C7.01046 5.65749 7.51103 5.40278 7.99704 5.37789C8.48976 5.35266 9.00135 5.56068 9.68076 5.94232C10.1685 6.21629 10.8338 6.73544 11.47 7.27419C12.0497 7.76496 12.9596 7.38834 13.0233 6.6317C13.0923 5.81305 13.1948 4.99273 13.3436 4.4624C13.5542 3.71213 13.7688 3.20347 14.1351 2.87307C14.4965 2.54701 15.0309 2.3733 15.9355 2.36157L15.9587 2.36133L15.9595 2.36131C15.9689 2.36116 15.9763 2.36105 15.9834 2.3611L15.9848 2.3611L16.0344 2.36094C16.9383 2.37281 17.4724 2.54666 17.8336 2.87272C18.1999 3.20329 18.4146 3.71213 18.6251 4.4624C18.7781 5.00748 18.882 5.85859 18.951 6.69892C19.0132 7.45682 19.9249 7.83445 20.5047 7.34243C21.1485 6.79621 21.825 6.26684 22.3192 5.9892C22.9987 5.60755 23.5102 5.39954 24.003 5.42477C24.489 5.44966 24.9896 5.70437 25.6371 6.33515C25.6374 6.33542 25.6377 6.3357 25.638 6.33597L25.672 6.3703L25.6731 6.37131C25.6781 6.37629 25.6833 6.38161 25.6898 6.38839L25.6904 6.38897L25.7066 6.4055L6.32796 6.32342ZM25.6899 25.674L25.6904 25.6735L25.7066 25.657C26.338 25.009 26.593 24.5083 26.618 24.0222C26.6433 23.5296 26.4354 23.0181 26.0538 22.3387C25.7767 21.8454 25.2488 21.1705 24.7036 20.5279C24.2118 19.948 24.5893 19.0364 25.3471 18.9742C26.1865 18.9052 27.0362 18.8013 27.5806 18.6485C28.3308 18.438 28.8397 18.2233 29.1702 17.8571C29.4963 17.4958 29.6702 16.9618 29.682 16.0578L29.6819 16.0083L29.6819 16.0069C29.6819 15.9998 29.6818 15.9923 29.6817 15.9829L29.6816 15.9821L29.6814 15.959C29.6697 15.0543 29.496 14.5199 29.1699 14.1585C28.8395 13.7923 28.3308 13.5776 27.5806 13.3671C27.0442 13.2165 26.2113 13.1134 25.3837 13.0445C24.6269 12.9814 24.2499 12.0716 24.74 11.4917C25.2724 10.8618 25.783 10.2059 26.0538 9.72376C26.4354 9.04435 26.6433 8.53289 26.618 8.0403C26.593 7.55424 26.338 7.05361 25.7068 6.40574L25.6899 25.674ZM25.6899 25.674L25.6838 25.6803L25.6827 25.6815L25.672 25.6922L25.6719 25.6924L25.638 25.7265C25.6377 25.7268 25.6374 25.7271 25.6371 25.7274C24.9895 26.3581 24.489 26.6128 24.003 26.6377C23.5102 26.663 22.9987 26.4549 22.3192 26.0733C21.8315 25.7993 21.1662 25.2802 20.53 24.7414C19.9503 24.2507 19.0404 24.6273 18.9767 25.3839C18.9077 26.2026 18.8052 27.0229 18.6564 27.5532C18.4458 28.3035 18.2312 28.8122 17.8649 29.1426C17.5036 29.4685 16.9695 29.6422 16.0653 29.654L25.6899 25.674ZM15.9961 21.5641C19.0647 21.5641 21.5523 19.0764 21.5523 16.0078C21.5523 12.9392 19.0647 10.4516 15.9961 10.4516C12.9275 10.4516 10.4398 12.9392 10.4398 16.0078C10.4398 19.0764 12.9275 21.5641 15.9961 21.5641Z"
        stroke="url(#paint20_radial_18_24453)" stroke-width="0.3" />
    <path fill-rule="evenodd" clip-rule="evenodd"
        d="M16 23.9023C20.36 23.9023 23.8945 20.3678 23.8945 16.0078C23.8945 11.6478 20.36 8.11328 16 8.11328C11.64 8.11328 8.10547 11.6478 8.10547 16.0078C8.10547 20.3678 11.64 23.9023 16 23.9023ZM16 20.8594C18.6794 20.8594 20.8516 18.6873 20.8516 16.0078C20.8516 13.3284 18.6794 11.1562 16 11.1562C13.3206 11.1562 11.1484 13.3284 11.1484 16.0078C11.1484 18.6873 13.3206 20.8594 16 20.8594Z"
        fill="url(#paint21_radial_18_24453)" />
    <path fill-rule="evenodd" clip-rule="evenodd"
        d="M16 23.9023C20.36 23.9023 23.8945 20.3678 23.8945 16.0078C23.8945 11.6478 20.36 8.11328 16 8.11328C11.64 8.11328 8.10547 11.6478 8.10547 16.0078C8.10547 20.3678 11.64 23.9023 16 23.9023ZM16 20.8594C18.6794 20.8594 20.8516 18.6873 20.8516 16.0078C20.8516 13.3284 18.6794 11.1562 16 11.1562C13.3206 11.1562 11.1484 13.3284 11.1484 16.0078C11.1484 18.6873 13.3206 20.8594 16 20.8594Z"
        fill="url(#paint22_radial_18_24453)" />
    <path fill-rule="evenodd" clip-rule="evenodd"
        d="M16 23.9023C20.36 23.9023 23.8945 20.3678 23.8945 16.0078C23.8945 11.6478 20.36 8.11328 16 8.11328C11.64 8.11328 8.10547 11.6478 8.10547 16.0078C8.10547 20.3678 11.64 23.9023 16 23.9023ZM16 20.8594C18.6794 20.8594 20.8516 18.6873 20.8516 16.0078C20.8516 13.3284 18.6794 11.1562 16 11.1562C13.3206 11.1562 11.1484 13.3284 11.1484 16.0078C11.1484 18.6873 13.3206 20.8594 16 20.8594Z"
        fill="url(#paint23_radial_18_24453)" />
    <path fill-rule="evenodd" clip-rule="evenodd"
        d="M16 23.9023C20.36 23.9023 23.8945 20.3678 23.8945 16.0078C23.8945 11.6478 20.36 8.11328 16 8.11328C11.64 8.11328 8.10547 11.6478 8.10547 16.0078C8.10547 20.3678 11.64 23.9023 16 23.9023ZM16 20.8594C18.6794 20.8594 20.8516 18.6873 20.8516 16.0078C20.8516 13.3284 18.6794 11.1562 16 11.1562C13.3206 11.1562 11.1484 13.3284 11.1484 16.0078C11.1484 18.6873 13.3206 20.8594 16 20.8594Z"
        fill="url(#paint24_radial_18_24453)" />
    <path fill-rule="evenodd" clip-rule="evenodd"
        d="M16 23.9023C20.36 23.9023 23.8945 20.3678 23.8945 16.0078C23.8945 11.6478 20.36 8.11328 16 8.11328C11.64 8.11328 8.10547 11.6478 8.10547 16.0078C8.10547 20.3678 11.64 23.9023 16 23.9023ZM16 20.8594C18.6794 20.8594 20.8516 18.6873 20.8516 16.0078C20.8516 13.3284 18.6794 11.1562 16 11.1562C13.3206 11.1562 11.1484 13.3284 11.1484 16.0078C11.1484 18.6873 13.3206 20.8594 16 20.8594Z"
        fill="url(#paint25_radial_18_24453)" />
    <path fill-rule="evenodd" clip-rule="evenodd"
        d="M16 21.4766C19.0203 21.4766 21.4688 19.0281 21.4688 16.0078C21.4688 12.9875 19.0203 10.5391 16 10.5391C12.9797 10.5391 10.5312 12.9875 10.5312 16.0078C10.5312 19.0281 12.9797 21.4766 16 21.4766ZM16 20.3359C18.3904 20.3359 20.3281 18.3982 20.3281 16.0078C20.3281 13.6175 18.3904 11.6797 16 11.6797C13.6096 11.6797 11.6719 13.6175 11.6719 16.0078C11.6719 18.3982 13.6096 20.3359 16 20.3359Z"
        fill="url(#paint26_radial_18_24453)" />
    <path fill-rule="evenodd" clip-rule="evenodd"
        d="M16 21.4766C19.0203 21.4766 21.4688 19.0281 21.4688 16.0078C21.4688 12.9875 19.0203 10.5391 16 10.5391C12.9797 10.5391 10.5312 12.9875 10.5312 16.0078C10.5312 19.0281 12.9797 21.4766 16 21.4766ZM16 20.3359C18.3904 20.3359 20.3281 18.3982 20.3281 16.0078C20.3281 13.6175 18.3904 11.6797 16 11.6797C13.6096 11.6797 11.6719 13.6175 11.6719 16.0078C11.6719 18.3982 13.6096 20.3359 16 20.3359Z"
        fill="url(#paint27_radial_18_24453)" />
    <path fill-rule="evenodd" clip-rule="evenodd"
        d="M16 20.9453C18.7269 20.9453 20.9375 18.7347 20.9375 16.0078C20.9375 13.2809 18.7269 11.0703 16 11.0703C13.2731 11.0703 11.0625 13.2809 11.0625 16.0078C11.0625 18.7347 13.2731 20.9453 16 20.9453ZM20.3281 16.0078C20.3281 18.3982 18.3904 20.3359 16 20.3359C13.6096 20.3359 11.6719 18.3982 11.6719 16.0078C11.6719 13.6175 13.6096 11.6797 16 11.6797C18.3904 11.6797 20.3281 13.6175 20.3281 16.0078Z"
        fill="url(#paint28_radial_18_24453)" />
    <path fill-rule="evenodd" clip-rule="evenodd"
        d="M16 20.9453C18.7269 20.9453 20.9375 18.7347 20.9375 16.0078C20.9375 13.2809 18.7269 11.0703 16 11.0703C13.2731 11.0703 11.0625 13.2809 11.0625 16.0078C11.0625 18.7347 13.2731 20.9453 16 20.9453ZM20.3281 16.0078C20.3281 18.3982 18.3904 20.3359 16 20.3359C13.6096 20.3359 11.6719 18.3982 11.6719 16.0078C11.6719 13.6175 13.6096 11.6797 16 11.6797C18.3904 11.6797 20.3281 13.6175 20.3281 16.0078Z"
        fill="url(#paint29_radial_18_24453)" />
    <path fill-rule="evenodd" clip-rule="evenodd"
        d="M16 20.9453C18.7269 20.9453 20.9375 18.7347 20.9375 16.0078C20.9375 13.2809 18.7269 11.0703 16 11.0703C13.2731 11.0703 11.0625 13.2809 11.0625 16.0078C11.0625 18.7347 13.2731 20.9453 16 20.9453ZM20.3281 16.0078C20.3281 18.3982 18.3904 20.3359 16 20.3359C13.6096 20.3359 11.6719 18.3982 11.6719 16.0078C11.6719 13.6175 13.6096 11.6797 16 11.6797C18.3904 11.6797 20.3281 13.6175 20.3281 16.0078Z"
        fill="url(#paint30_radial_18_24453)" />
    <defs>
        <linearGradient id="paint0_linear_18_24453" x1="25.8125" y1="6.0625" x2="6.125" y2="25.6875"
            gradientUnits="userSpaceOnUse">
            <stop stop-color="#DED6EC" />
            <stop offset="0.916008" stop-color="#BCADD3" />
        </linearGradient>
        <radialGradient id="paint1_radial_18_24453" cx="0" cy="0" r="1"
            gradientUnits="userSpaceOnUse"
            gradientTransform="translate(16.9913 15.4619) rotate(176.473) scale(8.87405 10.2158)">
            <stop offset="0.7" stop-color="#D0CCD9" />
            <stop offset="0.870062" stop-color="#D0CCD9" stop-opacity="0" />
        </radialGradient>
        <radialGradient id="paint2_radial_18_24453" cx="0" cy="0" r="1"
            gradientUnits="userSpaceOnUse"
            gradientTransform="translate(15.8018 16.2536) rotate(96.9184) scale(8.59495)">
            <stop offset="0.876332" stop-color="#9B8BAE" />
            <stop offset="0.952383" stop-color="#9B8BAE" stop-opacity="0" />
        </radialGradient>
        <radialGradient id="paint3_radial_18_24453" cx="0" cy="0" r="1"
            gradientUnits="userSpaceOnUse"
            gradientTransform="translate(9.66622 5.19927) rotate(38.976) scale(3.30978 1.88806)">
            <stop stop-color="#F0F0F5" />
            <stop offset="1" stop-color="#F0F0F5" stop-opacity="0" />
        </radialGradient>
        <radialGradient id="paint4_radial_18_24453" cx="0" cy="0" r="1"
            gradientUnits="userSpaceOnUse"
            gradientTransform="translate(19.1721 3.89474) rotate(82.355) scale(4.07535 1.34599)">
            <stop stop-color="#F0F0F5" />
            <stop offset="1" stop-color="#F0F0F5" stop-opacity="0" />
        </radialGradient>
        <radialGradient id="paint5_radial_18_24453" cx="0" cy="0" r="1"
            gradientUnits="userSpaceOnUse"
            gradientTransform="translate(24.7898 12.3253) rotate(67.543) scale(1.53417 0.408352)">
            <stop stop-color="#F0F0F5" />
            <stop offset="0.895851" stop-color="#F0F0F5" stop-opacity="0" />
        </radialGradient>
        <radialGradient id="paint6_radial_18_24453" cx="0" cy="0" r="1"
            gradientUnits="userSpaceOnUse"
            gradientTransform="translate(25.8467 6.15434) rotate(44.7582) scale(2.89869 0.701593)">
            <stop stop-color="#F0F0F5" />
            <stop offset="0.895851" stop-color="#F0F0F5" stop-opacity="0" />
        </radialGradient>
        <radialGradient id="paint7_radial_18_24453" cx="0" cy="0" r="1"
            gradientUnits="userSpaceOnUse"
            gradientTransform="translate(26.8239 7.68852) rotate(71.7005) scale(1.85576 0.568459)">
            <stop stop-color="#F0F0F5" />
            <stop offset="0.895851" stop-color="#F0F0F5" stop-opacity="0" />
        </radialGradient>
        <radialGradient id="paint8_radial_18_24453" cx="0" cy="0" r="1"
            gradientUnits="userSpaceOnUse"
            gradientTransform="translate(26.2684 21.9603) rotate(53.8646) scale(3.22309 0.987303)">
            <stop stop-color="#F0F0F5" />
            <stop offset="0.895851" stop-color="#F0F0F5" stop-opacity="0" />
        </radialGradient>
        <radialGradient id="paint9_radial_18_24453" cx="0" cy="0" r="1"
            gradientUnits="userSpaceOnUse"
            gradientTransform="translate(26.9295 23.5304) rotate(81.085) scale(2.133 0.749937)">
            <stop stop-color="#F0F0F5" />
            <stop offset="0.895851" stop-color="#F0F0F5" stop-opacity="0" />
        </radialGradient>
        <radialGradient id="paint10_radial_18_24453" cx="0" cy="0" r="1"
            gradientUnits="userSpaceOnUse"
            gradientTransform="translate(28.1435 12.8945) rotate(14.9314) scale(3.61017 1.26929)">
            <stop stop-color="#F0F0F5" />
            <stop offset="0.895851" stop-color="#F0F0F5" stop-opacity="0" />
        </radialGradient>
        <radialGradient id="paint11_radial_18_24453" cx="0" cy="0" r="1"
            gradientUnits="userSpaceOnUse"
            gradientTransform="translate(29.832 13.97) rotate(64.4074) scale(3.96444 1.39385)">
            <stop stop-color="#F0F0F5" />
            <stop offset="0.895851" stop-color="#F0F0F5" stop-opacity="0" />
        </radialGradient>
        <radialGradient id="paint12_radial_18_24453" cx="0" cy="0" r="1"
            gradientUnits="userSpaceOnUse"
            gradientTransform="translate(7.08007 9.13607) rotate(49.4546) scale(9.04306 2.99875)">
            <stop stop-color="#A196B2" />
            <stop offset="1" stop-color="#A196B2" stop-opacity="0" />
        </radialGradient>
        <radialGradient id="paint13_radial_18_24453" cx="0" cy="0" r="1"
            gradientUnits="userSpaceOnUse"
            gradientTransform="translate(4.20744 17.0306) rotate(6.05418) scale(8.5899 4.3792)">
            <stop stop-color="#A196B2" />
            <stop offset="1" stop-color="#A196B2" stop-opacity="0" />
        </radialGradient>
        <radialGradient id="paint14_radial_18_24453" cx="0" cy="0" r="1"
            gradientUnits="userSpaceOnUse"
            gradientTransform="translate(7.96793 22.5854) rotate(-20.0467) scale(7.93976 2.31131)">
            <stop stop-color="#A196B2" />
            <stop offset="1" stop-color="#A196B2" stop-opacity="0" />
        </radialGradient>
        <radialGradient id="paint15_radial_18_24453" cx="0" cy="0" r="1"
            gradientUnits="userSpaceOnUse"
            gradientTransform="translate(9.47845 24.6987) rotate(-39.1054) scale(7.66534 2.23142)">
            <stop stop-color="#A389C1" />
            <stop offset="1" stop-color="#A389C1" stop-opacity="0" />
        </radialGradient>
        <radialGradient id="paint16_radial_18_24453" cx="0" cy="0" r="1"
            gradientUnits="userSpaceOnUse"
            gradientTransform="translate(15.296 26.0391) rotate(-88.7877) scale(6.17671 2.97997)">
            <stop stop-color="#A389C1" />
            <stop offset="1" stop-color="#A389C1" stop-opacity="0" />
        </radialGradient>
        <radialGradient id="paint17_radial_18_24453" cx="0" cy="0" r="1"
            gradientUnits="userSpaceOnUse"
            gradientTransform="translate(22.7222 24.9803) rotate(-127.786) scale(5.89273 2.84296)">
            <stop stop-color="#A389C1" />
            <stop offset="1" stop-color="#A389C1" stop-opacity="0" />
        </radialGradient>
        <radialGradient id="paint18_radial_18_24453" cx="0" cy="0" r="1"
            gradientUnits="userSpaceOnUse"
            gradientTransform="translate(25.9141 17.3406) rotate(-173.863) scale(4.89443 2.36133)">
            <stop stop-color="#A389C1" />
            <stop offset="1" stop-color="#A389C1" stop-opacity="0" />
        </radialGradient>
        <radialGradient id="paint19_radial_18_24453" cx="0" cy="0" r="1"
            gradientUnits="userSpaceOnUse"
            gradientTransform="translate(14.9048 5.4233) rotate(89.3758) scale(4.28155 3.06738)">
            <stop stop-color="#9E9BA3" />
            <stop offset="1" stop-color="#9E9BA3" stop-opacity="0" />
        </radialGradient>
        <radialGradient id="paint20_radial_18_24453" cx="0" cy="0" r="1"
            gradientUnits="userSpaceOnUse"
            gradientTransform="translate(22.3683 7.91112) rotate(130.292) scale(3.26162 2.33668)">
            <stop stop-color="#9E9BA3" />
            <stop offset="1" stop-color="#9E9BA3" stop-opacity="0" />
        </radialGradient>
        <radialGradient id="paint21_radial_18_24453" cx="0" cy="0" r="1"
            gradientUnits="userSpaceOnUse"
            gradientTransform="translate(20.9687 11.1562) rotate(133.81) scale(14.8967 19.4343)">
            <stop offset="0.032715" stop-color="#E5DFF0" />
            <stop offset="1" stop-color="#9A8BAD" />
        </radialGradient>
        <radialGradient id="paint22_radial_18_24453" cx="0" cy="0" r="1"
            gradientUnits="userSpaceOnUse"
            gradientTransform="translate(10.319 15.4717) rotate(52.3524) scale(7.55628)">
            <stop stop-color="#A097AC" />
            <stop offset="1" stop-color="#A097AC" stop-opacity="0" />
        </radialGradient>
        <radialGradient id="paint23_radial_18_24453" cx="0" cy="0" r="1"
            gradientUnits="userSpaceOnUse"
            gradientTransform="translate(16.9044 15.0735) rotate(134.864) scale(10.5035)">
            <stop offset="0.770833" stop-color="#A091B3" stop-opacity="0" />
            <stop offset="0.833333" stop-color="#9885AE" />
        </radialGradient>
        <radialGradient id="paint24_radial_18_24453" cx="0" cy="0" r="1"
            gradientUnits="userSpaceOnUse"
            gradientTransform="translate(16 16.0078) rotate(90) scale(6.95154)">
            <stop offset="0.673149" stop-color="#AEA9B7" />
            <stop offset="0.816075" stop-color="#9888AC" stop-opacity="0" />
        </radialGradient>
        <radialGradient id="paint25_radial_18_24453" cx="0" cy="0" r="1"
            gradientUnits="userSpaceOnUse"
            gradientTransform="translate(15.7125 16.8897) rotate(87.2876) scale(6.07642)">
            <stop offset="0.676529" stop-color="#9988AE" />
            <stop offset="0.842892" stop-color="#9988AE" stop-opacity="0" />
        </radialGradient>
        <radialGradient id="paint26_radial_18_24453" cx="0" cy="0" r="1"
            gradientUnits="userSpaceOnUse"
            gradientTransform="translate(20.4375 12.7813) rotate(128.71) scale(11.1432)">
            <stop stop-color="#E6E0F1" />
            <stop offset="1" stop-color="#A89ABA" />
        </radialGradient>
        <radialGradient id="paint27_radial_18_24453" cx="0" cy="0" r="1"
            gradientUnits="userSpaceOnUse"
            gradientTransform="translate(11.1875 12.9687) rotate(32.5741) scale(5.34 10.7649)">
            <stop stop-color="#90899A" />
            <stop offset="1" stop-color="#90899A" stop-opacity="0" />
        </radialGradient>
        <radialGradient id="paint28_radial_18_24453" cx="0" cy="0" r="1"
            gradientUnits="userSpaceOnUse"
            gradientTransform="translate(19.5937 12.9375) rotate(136.338) scale(9.46013 9.40439)">
            <stop offset="0.246219" stop-color="#C9BFD7" />
            <stop offset="1" stop-color="#ADA4BB" />
        </radialGradient>
        <radialGradient id="paint29_radial_18_24453" cx="0" cy="0" r="1"
            gradientUnits="userSpaceOnUse"
            gradientTransform="translate(12.0625 19.6875) rotate(-45.5162) scale(4.90575 7.79856)">
            <stop offset="0.342773" stop-color="#BCB6C4" />
            <stop offset="1" stop-color="#BCB6C4" stop-opacity="0" />
        </radialGradient>
        <radialGradient id="paint30_radial_18_24453" cx="0" cy="0" r="1"
            gradientUnits="userSpaceOnUse"
            gradientTransform="translate(12.7812 11.6563) rotate(49.2589) scale(4.16575 7.39539)">
            <stop offset="0.193614" stop-color="#A294B3" />
            <stop offset="1" stop-color="#A294B3" stop-opacity="0" />
        </radialGradient>
    </defs>
</svg>