<svg width="32" height="32" viewBox="0 0 32 32" fill="none" xmlns="http://www.w3.org/2000/svg">
    <path fill-rule="evenodd" clip-rule="evenodd"
        d="M1.5 16C1.5 23.72 7.78 30 15.5 30C23.22 30 29.5 23.72 29.5 16C29.5 8.28 23.22 2 15.5 2C7.78 2 1.5 8.28 1.5 16ZM3.75845 15C3.64149 15 3.54934 14.9 3.56109 14.7836C3.73161 13.0951 4.2532 11.5091 5.05162 10.1C5.08679 10.0379 5.15284 10 5.22419 10H8.36354C8.50529 10 8.60216 10.1434 8.55158 10.2758C8.00219 11.7142 7.65879 13.2395 7.54342 14.8124C7.53569 14.9178 7.44839 15 7.34271 15H3.75845ZM9.74991 15C9.6339 15 9.54209 14.9016 9.55204 14.786C9.69291 13.1487 10.1171 11.5718 10.7919 10.1146C10.8244 10.0444 10.8949 10 10.9721 10H14.3C14.4105 10 14.5 10.0895 14.5 10.2V14.8C14.5 14.9105 14.4105 15 14.3 15H9.74991ZM14.5 17.2C14.5 17.0895 14.4105 17 14.3 17H9.74991C9.63389 17 9.54209 17.0984 9.55203 17.214C9.69291 18.8513 10.1171 20.4282 10.7919 21.8854C10.8244 21.9556 10.8949 22 10.9721 22H14.3C14.4105 22 14.5 21.9105 14.5 21.8V17.2ZM14.5 24.2C14.5 24.0895 14.4105 24 14.3 24H12.3891C12.2275 24 12.1333 24.1813 12.2293 24.3113C12.7984 25.0824 13.4495 25.7989 14.1754 26.4483C14.3021 26.5617 14.5 26.4703 14.5 26.3002V24.2ZM19.0553 27.0732C18.9122 27.2223 19.0528 27.4657 19.2491 27.4011C21.1233 26.7838 22.7945 25.7167 24.1344 24.3278C24.2545 24.2034 24.1645 24 23.9915 24H21.4802C21.4087 24 21.3428 24.0382 21.3066 24.0998C20.6784 25.1696 19.9241 26.1678 19.0553 27.0732ZM22.4483 21.7241C22.3977 21.8565 22.4945 22 22.6363 22L25.7459 22.0004C25.8351 22.0004 25.9177 21.953 25.9615 21.8753C26.7521 20.4723 27.2694 18.8951 27.4389 17.2164C27.4507 17.1 27.3585 17 27.2416 17H23.6573C23.5516 17 23.4643 17.0822 23.4566 17.1876C23.3412 18.7606 22.9978 20.2861 22.4483 21.7241ZM21.2501 17C21.3661 17 21.4579 17.0984 21.448 17.214C21.3071 18.8513 20.8829 20.4282 20.2081 21.8854C20.1756 21.9556 20.1052 22 20.0279 22H16.7C16.5895 22 16.5 21.9105 16.5 21.8V17.2C16.5 17.0895 16.5895 17 16.7 17H21.2501ZM23.4566 14.8124C23.4643 14.9178 23.5516 15 23.6573 15H27.2416C27.3585 15 27.4507 14.9 27.4389 14.7836C27.2694 13.1049 26.7521 11.5277 25.9615 10.1247C25.9177 10.047 25.8351 9.99961 25.7459 9.99962L22.6364 10C22.4947 10 22.3978 10.1434 22.4484 10.2758C22.9978 11.7142 23.3412 13.2395 23.4566 14.8124ZM20.0279 10C20.1051 10 20.1756 10.0444 20.208 10.1146C20.8829 11.5718 21.3071 13.1487 21.448 14.786C21.4579 14.9016 21.3661 15 21.2501 15H16.7C16.5895 15 16.5 14.9105 16.5 14.8V10.2C16.5 10.0895 16.5895 10 16.7 10H20.0279ZM21.3074 7.90017C21.3435 7.96181 21.4095 8 21.481 8H23.9915C24.1645 8 24.2545 7.79661 24.1344 7.67215C22.7959 6.28483 21.1269 5.21847 19.2552 4.6009C19.0591 4.53619 18.9183 4.77932 19.0611 4.92851C19.9278 5.83408 20.6804 6.83153 21.3074 7.90017ZM16.8246 5.55173C16.6979 5.43836 16.5 5.52978 16.5 5.69982V7.8C16.5 7.91046 16.5895 8 16.7 8H18.6109C18.7725 8 18.8667 7.81872 18.7707 7.6887C18.2015 6.91763 17.5505 6.20115 16.8246 5.55173ZM14.5 5.69979C14.5 5.52976 14.3021 5.43833 14.1754 5.5517C13.4495 6.20113 12.7985 6.91762 12.2293 7.6887C12.1333 7.81872 12.2275 8 12.3891 8H14.3C14.4105 8 14.5 7.91046 14.5 7.8V5.69979ZM16.7 24C16.5895 24 16.5 24.0895 16.5 24.2V26.3003C16.5 26.4703 16.6979 26.5617 16.8246 26.4483C17.5505 25.7989 18.2016 25.0824 18.7708 24.3113C18.8667 24.1813 18.7725 24 18.6109 24H16.7ZM5.05162 21.9C5.08679 21.9621 5.15284 22 5.22419 22H8.36636C8.50817 22 8.60505 21.8564 8.55434 21.724C8.00357 20.2853 7.65927 18.7599 7.54357 17.1876C7.53581 17.0822 7.44851 17 7.34285 17H3.75845C3.64149 17 3.54934 17.1 3.56109 17.2164C3.73161 18.9049 4.25321 20.4909 5.05162 21.9ZM11.7588 27.4037C11.955 27.4682 12.0955 27.2249 11.9525 27.0759C11.0824 26.1691 10.327 25.1701 9.69775 24.0997C9.66156 24.0381 9.59565 24 9.52424 24H7.00846C6.83553 24 6.74552 24.2034 6.8656 24.3278C8.20741 25.7186 9.88141 26.7868 11.7588 27.4037ZM9.519 8C9.59047 8 9.65643 7.96181 9.69259 7.90017C10.3196 6.83153 11.0722 5.8341 11.9388 4.92853C12.0816 4.77934 11.9409 4.53621 11.7448 4.60092C9.87306 5.2185 8.20406 6.28485 6.86559 7.67215C6.74552 7.79661 6.83553 8 7.00846 8H9.519Z"
        fill="#4FC0FF" />
    <path fill-rule="evenodd" clip-rule="evenodd"
        d="M1.5 16C1.5 23.72 7.78 30 15.5 30C23.22 30 29.5 23.72 29.5 16C29.5 8.28 23.22 2 15.5 2C7.78 2 1.5 8.28 1.5 16ZM3.75845 15C3.64149 15 3.54934 14.9 3.56109 14.7836C3.73161 13.0951 4.2532 11.5091 5.05162 10.1C5.08679 10.0379 5.15284 10 5.22419 10H8.36354C8.50529 10 8.60216 10.1434 8.55158 10.2758C8.00219 11.7142 7.65879 13.2395 7.54342 14.8124C7.53569 14.9178 7.44839 15 7.34271 15H3.75845ZM9.74991 15C9.6339 15 9.54209 14.9016 9.55204 14.786C9.69291 13.1487 10.1171 11.5718 10.7919 10.1146C10.8244 10.0444 10.8949 10 10.9721 10H14.3C14.4105 10 14.5 10.0895 14.5 10.2V14.8C14.5 14.9105 14.4105 15 14.3 15H9.74991ZM14.5 17.2C14.5 17.0895 14.4105 17 14.3 17H9.74991C9.63389 17 9.54209 17.0984 9.55203 17.214C9.69291 18.8513 10.1171 20.4282 10.7919 21.8854C10.8244 21.9556 10.8949 22 10.9721 22H14.3C14.4105 22 14.5 21.9105 14.5 21.8V17.2ZM14.5 24.2C14.5 24.0895 14.4105 24 14.3 24H12.3891C12.2275 24 12.1333 24.1813 12.2293 24.3113C12.7984 25.0824 13.4495 25.7989 14.1754 26.4483C14.3021 26.5617 14.5 26.4703 14.5 26.3002V24.2ZM19.0553 27.0732C18.9122 27.2223 19.0528 27.4657 19.2491 27.4011C21.1233 26.7838 22.7945 25.7167 24.1344 24.3278C24.2545 24.2034 24.1645 24 23.9915 24H21.4802C21.4087 24 21.3428 24.0382 21.3066 24.0998C20.6784 25.1696 19.9241 26.1678 19.0553 27.0732ZM22.4483 21.7241C22.3977 21.8565 22.4945 22 22.6363 22L25.7459 22.0004C25.8351 22.0004 25.9177 21.953 25.9615 21.8753C26.7521 20.4723 27.2694 18.8951 27.4389 17.2164C27.4507 17.1 27.3585 17 27.2416 17H23.6573C23.5516 17 23.4643 17.0822 23.4566 17.1876C23.3412 18.7606 22.9978 20.2861 22.4483 21.7241ZM21.2501 17C21.3661 17 21.4579 17.0984 21.448 17.214C21.3071 18.8513 20.8829 20.4282 20.2081 21.8854C20.1756 21.9556 20.1052 22 20.0279 22H16.7C16.5895 22 16.5 21.9105 16.5 21.8V17.2C16.5 17.0895 16.5895 17 16.7 17H21.2501ZM23.4566 14.8124C23.4643 14.9178 23.5516 15 23.6573 15H27.2416C27.3585 15 27.4507 14.9 27.4389 14.7836C27.2694 13.1049 26.7521 11.5277 25.9615 10.1247C25.9177 10.047 25.8351 9.99961 25.7459 9.99962L22.6364 10C22.4947 10 22.3978 10.1434 22.4484 10.2758C22.9978 11.7142 23.3412 13.2395 23.4566 14.8124ZM20.0279 10C20.1051 10 20.1756 10.0444 20.208 10.1146C20.8829 11.5718 21.3071 13.1487 21.448 14.786C21.4579 14.9016 21.3661 15 21.2501 15H16.7C16.5895 15 16.5 14.9105 16.5 14.8V10.2C16.5 10.0895 16.5895 10 16.7 10H20.0279ZM21.3074 7.90017C21.3435 7.96181 21.4095 8 21.481 8H23.9915C24.1645 8 24.2545 7.79661 24.1344 7.67215C22.7959 6.28483 21.1269 5.21847 19.2552 4.6009C19.0591 4.53619 18.9183 4.77932 19.0611 4.92851C19.9278 5.83408 20.6804 6.83153 21.3074 7.90017ZM16.8246 5.55173C16.6979 5.43836 16.5 5.52978 16.5 5.69982V7.8C16.5 7.91046 16.5895 8 16.7 8H18.6109C18.7725 8 18.8667 7.81872 18.7707 7.6887C18.2015 6.91763 17.5505 6.20115 16.8246 5.55173ZM14.5 5.69979C14.5 5.52976 14.3021 5.43833 14.1754 5.5517C13.4495 6.20113 12.7985 6.91762 12.2293 7.6887C12.1333 7.81872 12.2275 8 12.3891 8H14.3C14.4105 8 14.5 7.91046 14.5 7.8V5.69979ZM16.7 24C16.5895 24 16.5 24.0895 16.5 24.2V26.3003C16.5 26.4703 16.6979 26.5617 16.8246 26.4483C17.5505 25.7989 18.2016 25.0824 18.7708 24.3113C18.8667 24.1813 18.7725 24 18.6109 24H16.7ZM5.05162 21.9C5.08679 21.9621 5.15284 22 5.22419 22H8.36636C8.50817 22 8.60505 21.8564 8.55434 21.724C8.00357 20.2853 7.65927 18.7599 7.54357 17.1876C7.53581 17.0822 7.44851 17 7.34285 17H3.75845C3.64149 17 3.54934 17.1 3.56109 17.2164C3.73161 18.9049 4.25321 20.4909 5.05162 21.9ZM11.7588 27.4037C11.955 27.4682 12.0955 27.2249 11.9525 27.0759C11.0824 26.1691 10.327 25.1701 9.69775 24.0997C9.66156 24.0381 9.59565 24 9.52424 24H7.00846C6.83553 24 6.74552 24.2034 6.8656 24.3278C8.20741 25.7186 9.88141 26.7868 11.7588 27.4037ZM9.519 8C9.59047 8 9.65643 7.96181 9.69259 7.90017C10.3196 6.83153 11.0722 5.8341 11.9388 4.92853C12.0816 4.77934 11.9409 4.53621 11.7448 4.60092C9.87306 5.2185 8.20406 6.28485 6.86559 7.67215C6.74552 7.79661 6.83553 8 7.00846 8H9.519Z"
        fill="url(#paint0_radial_18_4808)" />
    <path fill-rule="evenodd" clip-rule="evenodd"
        d="M1.5 16C1.5 23.72 7.78 30 15.5 30C23.22 30 29.5 23.72 29.5 16C29.5 8.28 23.22 2 15.5 2C7.78 2 1.5 8.28 1.5 16ZM3.75845 15C3.64149 15 3.54934 14.9 3.56109 14.7836C3.73161 13.0951 4.2532 11.5091 5.05162 10.1C5.08679 10.0379 5.15284 10 5.22419 10H8.36354C8.50529 10 8.60216 10.1434 8.55158 10.2758C8.00219 11.7142 7.65879 13.2395 7.54342 14.8124C7.53569 14.9178 7.44839 15 7.34271 15H3.75845ZM9.74991 15C9.6339 15 9.54209 14.9016 9.55204 14.786C9.69291 13.1487 10.1171 11.5718 10.7919 10.1146C10.8244 10.0444 10.8949 10 10.9721 10H14.3C14.4105 10 14.5 10.0895 14.5 10.2V14.8C14.5 14.9105 14.4105 15 14.3 15H9.74991ZM14.5 17.2C14.5 17.0895 14.4105 17 14.3 17H9.74991C9.63389 17 9.54209 17.0984 9.55203 17.214C9.69291 18.8513 10.1171 20.4282 10.7919 21.8854C10.8244 21.9556 10.8949 22 10.9721 22H14.3C14.4105 22 14.5 21.9105 14.5 21.8V17.2ZM14.5 24.2C14.5 24.0895 14.4105 24 14.3 24H12.3891C12.2275 24 12.1333 24.1813 12.2293 24.3113C12.7984 25.0824 13.4495 25.7989 14.1754 26.4483C14.3021 26.5617 14.5 26.4703 14.5 26.3002V24.2ZM19.0553 27.0732C18.9122 27.2223 19.0528 27.4657 19.2491 27.4011C21.1233 26.7838 22.7945 25.7167 24.1344 24.3278C24.2545 24.2034 24.1645 24 23.9915 24H21.4802C21.4087 24 21.3428 24.0382 21.3066 24.0998C20.6784 25.1696 19.9241 26.1678 19.0553 27.0732ZM22.4483 21.7241C22.3977 21.8565 22.4945 22 22.6363 22L25.7459 22.0004C25.8351 22.0004 25.9177 21.953 25.9615 21.8753C26.7521 20.4723 27.2694 18.8951 27.4389 17.2164C27.4507 17.1 27.3585 17 27.2416 17H23.6573C23.5516 17 23.4643 17.0822 23.4566 17.1876C23.3412 18.7606 22.9978 20.2861 22.4483 21.7241ZM21.2501 17C21.3661 17 21.4579 17.0984 21.448 17.214C21.3071 18.8513 20.8829 20.4282 20.2081 21.8854C20.1756 21.9556 20.1052 22 20.0279 22H16.7C16.5895 22 16.5 21.9105 16.5 21.8V17.2C16.5 17.0895 16.5895 17 16.7 17H21.2501ZM23.4566 14.8124C23.4643 14.9178 23.5516 15 23.6573 15H27.2416C27.3585 15 27.4507 14.9 27.4389 14.7836C27.2694 13.1049 26.7521 11.5277 25.9615 10.1247C25.9177 10.047 25.8351 9.99961 25.7459 9.99962L22.6364 10C22.4947 10 22.3978 10.1434 22.4484 10.2758C22.9978 11.7142 23.3412 13.2395 23.4566 14.8124ZM20.0279 10C20.1051 10 20.1756 10.0444 20.208 10.1146C20.8829 11.5718 21.3071 13.1487 21.448 14.786C21.4579 14.9016 21.3661 15 21.2501 15H16.7C16.5895 15 16.5 14.9105 16.5 14.8V10.2C16.5 10.0895 16.5895 10 16.7 10H20.0279ZM21.3074 7.90017C21.3435 7.96181 21.4095 8 21.481 8H23.9915C24.1645 8 24.2545 7.79661 24.1344 7.67215C22.7959 6.28483 21.1269 5.21847 19.2552 4.6009C19.0591 4.53619 18.9183 4.77932 19.0611 4.92851C19.9278 5.83408 20.6804 6.83153 21.3074 7.90017ZM16.8246 5.55173C16.6979 5.43836 16.5 5.52978 16.5 5.69982V7.8C16.5 7.91046 16.5895 8 16.7 8H18.6109C18.7725 8 18.8667 7.81872 18.7707 7.6887C18.2015 6.91763 17.5505 6.20115 16.8246 5.55173ZM14.5 5.69979C14.5 5.52976 14.3021 5.43833 14.1754 5.5517C13.4495 6.20113 12.7985 6.91762 12.2293 7.6887C12.1333 7.81872 12.2275 8 12.3891 8H14.3C14.4105 8 14.5 7.91046 14.5 7.8V5.69979ZM16.7 24C16.5895 24 16.5 24.0895 16.5 24.2V26.3003C16.5 26.4703 16.6979 26.5617 16.8246 26.4483C17.5505 25.7989 18.2016 25.0824 18.7708 24.3113C18.8667 24.1813 18.7725 24 18.6109 24H16.7ZM5.05162 21.9C5.08679 21.9621 5.15284 22 5.22419 22H8.36636C8.50817 22 8.60505 21.8564 8.55434 21.724C8.00357 20.2853 7.65927 18.7599 7.54357 17.1876C7.53581 17.0822 7.44851 17 7.34285 17H3.75845C3.64149 17 3.54934 17.1 3.56109 17.2164C3.73161 18.9049 4.25321 20.4909 5.05162 21.9ZM11.7588 27.4037C11.955 27.4682 12.0955 27.2249 11.9525 27.0759C11.0824 26.1691 10.327 25.1701 9.69775 24.0997C9.66156 24.0381 9.59565 24 9.52424 24H7.00846C6.83553 24 6.74552 24.2034 6.8656 24.3278C8.20741 25.7186 9.88141 26.7868 11.7588 27.4037ZM9.519 8C9.59047 8 9.65643 7.96181 9.69259 7.90017C10.3196 6.83153 11.0722 5.8341 11.9388 4.92853C12.0816 4.77934 11.9409 4.53621 11.7448 4.60092C9.87306 5.2185 8.20406 6.28485 6.86559 7.67215C6.74552 7.79661 6.83553 8 7.00846 8H9.519Z"
        fill="url(#paint1_radial_18_4808)" />
    <path fill-rule="evenodd" clip-rule="evenodd"
        d="M1.5 16C1.5 23.72 7.78 30 15.5 30C23.22 30 29.5 23.72 29.5 16C29.5 8.28 23.22 2 15.5 2C7.78 2 1.5 8.28 1.5 16ZM3.75845 15C3.64149 15 3.54934 14.9 3.56109 14.7836C3.73161 13.0951 4.2532 11.5091 5.05162 10.1C5.08679 10.0379 5.15284 10 5.22419 10H8.36354C8.50529 10 8.60216 10.1434 8.55158 10.2758C8.00219 11.7142 7.65879 13.2395 7.54342 14.8124C7.53569 14.9178 7.44839 15 7.34271 15H3.75845ZM9.74991 15C9.6339 15 9.54209 14.9016 9.55204 14.786C9.69291 13.1487 10.1171 11.5718 10.7919 10.1146C10.8244 10.0444 10.8949 10 10.9721 10H14.3C14.4105 10 14.5 10.0895 14.5 10.2V14.8C14.5 14.9105 14.4105 15 14.3 15H9.74991ZM14.5 17.2C14.5 17.0895 14.4105 17 14.3 17H9.74991C9.63389 17 9.54209 17.0984 9.55203 17.214C9.69291 18.8513 10.1171 20.4282 10.7919 21.8854C10.8244 21.9556 10.8949 22 10.9721 22H14.3C14.4105 22 14.5 21.9105 14.5 21.8V17.2ZM14.5 24.2C14.5 24.0895 14.4105 24 14.3 24H12.3891C12.2275 24 12.1333 24.1813 12.2293 24.3113C12.7984 25.0824 13.4495 25.7989 14.1754 26.4483C14.3021 26.5617 14.5 26.4703 14.5 26.3002V24.2ZM19.0553 27.0732C18.9122 27.2223 19.0528 27.4657 19.2491 27.4011C21.1233 26.7838 22.7945 25.7167 24.1344 24.3278C24.2545 24.2034 24.1645 24 23.9915 24H21.4802C21.4087 24 21.3428 24.0382 21.3066 24.0998C20.6784 25.1696 19.9241 26.1678 19.0553 27.0732ZM22.4483 21.7241C22.3977 21.8565 22.4945 22 22.6363 22L25.7459 22.0004C25.8351 22.0004 25.9177 21.953 25.9615 21.8753C26.7521 20.4723 27.2694 18.8951 27.4389 17.2164C27.4507 17.1 27.3585 17 27.2416 17H23.6573C23.5516 17 23.4643 17.0822 23.4566 17.1876C23.3412 18.7606 22.9978 20.2861 22.4483 21.7241ZM21.2501 17C21.3661 17 21.4579 17.0984 21.448 17.214C21.3071 18.8513 20.8829 20.4282 20.2081 21.8854C20.1756 21.9556 20.1052 22 20.0279 22H16.7C16.5895 22 16.5 21.9105 16.5 21.8V17.2C16.5 17.0895 16.5895 17 16.7 17H21.2501ZM23.4566 14.8124C23.4643 14.9178 23.5516 15 23.6573 15H27.2416C27.3585 15 27.4507 14.9 27.4389 14.7836C27.2694 13.1049 26.7521 11.5277 25.9615 10.1247C25.9177 10.047 25.8351 9.99961 25.7459 9.99962L22.6364 10C22.4947 10 22.3978 10.1434 22.4484 10.2758C22.9978 11.7142 23.3412 13.2395 23.4566 14.8124ZM20.0279 10C20.1051 10 20.1756 10.0444 20.208 10.1146C20.8829 11.5718 21.3071 13.1487 21.448 14.786C21.4579 14.9016 21.3661 15 21.2501 15H16.7C16.5895 15 16.5 14.9105 16.5 14.8V10.2C16.5 10.0895 16.5895 10 16.7 10H20.0279ZM21.3074 7.90017C21.3435 7.96181 21.4095 8 21.481 8H23.9915C24.1645 8 24.2545 7.79661 24.1344 7.67215C22.7959 6.28483 21.1269 5.21847 19.2552 4.6009C19.0591 4.53619 18.9183 4.77932 19.0611 4.92851C19.9278 5.83408 20.6804 6.83153 21.3074 7.90017ZM16.8246 5.55173C16.6979 5.43836 16.5 5.52978 16.5 5.69982V7.8C16.5 7.91046 16.5895 8 16.7 8H18.6109C18.7725 8 18.8667 7.81872 18.7707 7.6887C18.2015 6.91763 17.5505 6.20115 16.8246 5.55173ZM14.5 5.69979C14.5 5.52976 14.3021 5.43833 14.1754 5.5517C13.4495 6.20113 12.7985 6.91762 12.2293 7.6887C12.1333 7.81872 12.2275 8 12.3891 8H14.3C14.4105 8 14.5 7.91046 14.5 7.8V5.69979ZM16.7 24C16.5895 24 16.5 24.0895 16.5 24.2V26.3003C16.5 26.4703 16.6979 26.5617 16.8246 26.4483C17.5505 25.7989 18.2016 25.0824 18.7708 24.3113C18.8667 24.1813 18.7725 24 18.6109 24H16.7ZM5.05162 21.9C5.08679 21.9621 5.15284 22 5.22419 22H8.36636C8.50817 22 8.60505 21.8564 8.55434 21.724C8.00357 20.2853 7.65927 18.7599 7.54357 17.1876C7.53581 17.0822 7.44851 17 7.34285 17H3.75845C3.64149 17 3.54934 17.1 3.56109 17.2164C3.73161 18.9049 4.25321 20.4909 5.05162 21.9ZM11.7588 27.4037C11.955 27.4682 12.0955 27.2249 11.9525 27.0759C11.0824 26.1691 10.327 25.1701 9.69775 24.0997C9.66156 24.0381 9.59565 24 9.52424 24H7.00846C6.83553 24 6.74552 24.2034 6.8656 24.3278C8.20741 25.7186 9.88141 26.7868 11.7588 27.4037ZM9.519 8C9.59047 8 9.65643 7.96181 9.69259 7.90017C10.3196 6.83153 11.0722 5.8341 11.9388 4.92853C12.0816 4.77934 11.9409 4.53621 11.7448 4.60092C9.87306 5.2185 8.20406 6.28485 6.86559 7.67215C6.74552 7.79661 6.83553 8 7.00846 8H9.519Z"
        fill="url(#paint2_linear_18_4808)" />
    <path fill-rule="evenodd" clip-rule="evenodd"
        d="M1.5 16C1.5 23.72 7.78 30 15.5 30C23.22 30 29.5 23.72 29.5 16C29.5 8.28 23.22 2 15.5 2C7.78 2 1.5 8.28 1.5 16ZM3.75845 15C3.64149 15 3.54934 14.9 3.56109 14.7836C3.73161 13.0951 4.2532 11.5091 5.05162 10.1C5.08679 10.0379 5.15284 10 5.22419 10H8.36354C8.50529 10 8.60216 10.1434 8.55158 10.2758C8.00219 11.7142 7.65879 13.2395 7.54342 14.8124C7.53569 14.9178 7.44839 15 7.34271 15H3.75845ZM9.74991 15C9.6339 15 9.54209 14.9016 9.55204 14.786C9.69291 13.1487 10.1171 11.5718 10.7919 10.1146C10.8244 10.0444 10.8949 10 10.9721 10H14.3C14.4105 10 14.5 10.0895 14.5 10.2V14.8C14.5 14.9105 14.4105 15 14.3 15H9.74991ZM14.5 17.2C14.5 17.0895 14.4105 17 14.3 17H9.74991C9.63389 17 9.54209 17.0984 9.55203 17.214C9.69291 18.8513 10.1171 20.4282 10.7919 21.8854C10.8244 21.9556 10.8949 22 10.9721 22H14.3C14.4105 22 14.5 21.9105 14.5 21.8V17.2ZM14.5 24.2C14.5 24.0895 14.4105 24 14.3 24H12.3891C12.2275 24 12.1333 24.1813 12.2293 24.3113C12.7984 25.0824 13.4495 25.7989 14.1754 26.4483C14.3021 26.5617 14.5 26.4703 14.5 26.3002V24.2ZM19.0553 27.0732C18.9122 27.2223 19.0528 27.4657 19.2491 27.4011C21.1233 26.7838 22.7945 25.7167 24.1344 24.3278C24.2545 24.2034 24.1645 24 23.9915 24H21.4802C21.4087 24 21.3428 24.0382 21.3066 24.0998C20.6784 25.1696 19.9241 26.1678 19.0553 27.0732ZM22.4483 21.7241C22.3977 21.8565 22.4945 22 22.6363 22L25.7459 22.0004C25.8351 22.0004 25.9177 21.953 25.9615 21.8753C26.7521 20.4723 27.2694 18.8951 27.4389 17.2164C27.4507 17.1 27.3585 17 27.2416 17H23.6573C23.5516 17 23.4643 17.0822 23.4566 17.1876C23.3412 18.7606 22.9978 20.2861 22.4483 21.7241ZM21.2501 17C21.3661 17 21.4579 17.0984 21.448 17.214C21.3071 18.8513 20.8829 20.4282 20.2081 21.8854C20.1756 21.9556 20.1052 22 20.0279 22H16.7C16.5895 22 16.5 21.9105 16.5 21.8V17.2C16.5 17.0895 16.5895 17 16.7 17H21.2501ZM23.4566 14.8124C23.4643 14.9178 23.5516 15 23.6573 15H27.2416C27.3585 15 27.4507 14.9 27.4389 14.7836C27.2694 13.1049 26.7521 11.5277 25.9615 10.1247C25.9177 10.047 25.8351 9.99961 25.7459 9.99962L22.6364 10C22.4947 10 22.3978 10.1434 22.4484 10.2758C22.9978 11.7142 23.3412 13.2395 23.4566 14.8124ZM20.0279 10C20.1051 10 20.1756 10.0444 20.208 10.1146C20.8829 11.5718 21.3071 13.1487 21.448 14.786C21.4579 14.9016 21.3661 15 21.2501 15H16.7C16.5895 15 16.5 14.9105 16.5 14.8V10.2C16.5 10.0895 16.5895 10 16.7 10H20.0279ZM21.3074 7.90017C21.3435 7.96181 21.4095 8 21.481 8H23.9915C24.1645 8 24.2545 7.79661 24.1344 7.67215C22.7959 6.28483 21.1269 5.21847 19.2552 4.6009C19.0591 4.53619 18.9183 4.77932 19.0611 4.92851C19.9278 5.83408 20.6804 6.83153 21.3074 7.90017ZM16.8246 5.55173C16.6979 5.43836 16.5 5.52978 16.5 5.69982V7.8C16.5 7.91046 16.5895 8 16.7 8H18.6109C18.7725 8 18.8667 7.81872 18.7707 7.6887C18.2015 6.91763 17.5505 6.20115 16.8246 5.55173ZM14.5 5.69979C14.5 5.52976 14.3021 5.43833 14.1754 5.5517C13.4495 6.20113 12.7985 6.91762 12.2293 7.6887C12.1333 7.81872 12.2275 8 12.3891 8H14.3C14.4105 8 14.5 7.91046 14.5 7.8V5.69979ZM16.7 24C16.5895 24 16.5 24.0895 16.5 24.2V26.3003C16.5 26.4703 16.6979 26.5617 16.8246 26.4483C17.5505 25.7989 18.2016 25.0824 18.7708 24.3113C18.8667 24.1813 18.7725 24 18.6109 24H16.7ZM5.05162 21.9C5.08679 21.9621 5.15284 22 5.22419 22H8.36636C8.50817 22 8.60505 21.8564 8.55434 21.724C8.00357 20.2853 7.65927 18.7599 7.54357 17.1876C7.53581 17.0822 7.44851 17 7.34285 17H3.75845C3.64149 17 3.54934 17.1 3.56109 17.2164C3.73161 18.9049 4.25321 20.4909 5.05162 21.9ZM11.7588 27.4037C11.955 27.4682 12.0955 27.2249 11.9525 27.0759C11.0824 26.1691 10.327 25.1701 9.69775 24.0997C9.66156 24.0381 9.59565 24 9.52424 24H7.00846C6.83553 24 6.74552 24.2034 6.8656 24.3278C8.20741 25.7186 9.88141 26.7868 11.7588 27.4037ZM9.519 8C9.59047 8 9.65643 7.96181 9.69259 7.90017C10.3196 6.83153 11.0722 5.8341 11.9388 4.92853C12.0816 4.77934 11.9409 4.53621 11.7448 4.60092C9.87306 5.2185 8.20406 6.28485 6.86559 7.67215C6.74552 7.79661 6.83553 8 7.00846 8H9.519Z"
        fill="url(#paint3_linear_18_4808)" />
    <path fill-rule="evenodd" clip-rule="evenodd"
        d="M1.5 16C1.5 23.72 7.78 30 15.5 30C23.22 30 29.5 23.72 29.5 16C29.5 8.28 23.22 2 15.5 2C7.78 2 1.5 8.28 1.5 16ZM3.75845 15C3.64149 15 3.54934 14.9 3.56109 14.7836C3.73161 13.0951 4.2532 11.5091 5.05162 10.1C5.08679 10.0379 5.15284 10 5.22419 10H8.36354C8.50529 10 8.60216 10.1434 8.55158 10.2758C8.00219 11.7142 7.65879 13.2395 7.54342 14.8124C7.53569 14.9178 7.44839 15 7.34271 15H3.75845ZM9.74991 15C9.6339 15 9.54209 14.9016 9.55204 14.786C9.69291 13.1487 10.1171 11.5718 10.7919 10.1146C10.8244 10.0444 10.8949 10 10.9721 10H14.3C14.4105 10 14.5 10.0895 14.5 10.2V14.8C14.5 14.9105 14.4105 15 14.3 15H9.74991ZM14.5 17.2C14.5 17.0895 14.4105 17 14.3 17H9.74991C9.63389 17 9.54209 17.0984 9.55203 17.214C9.69291 18.8513 10.1171 20.4282 10.7919 21.8854C10.8244 21.9556 10.8949 22 10.9721 22H14.3C14.4105 22 14.5 21.9105 14.5 21.8V17.2ZM14.5 24.2C14.5 24.0895 14.4105 24 14.3 24H12.3891C12.2275 24 12.1333 24.1813 12.2293 24.3113C12.7984 25.0824 13.4495 25.7989 14.1754 26.4483C14.3021 26.5617 14.5 26.4703 14.5 26.3002V24.2ZM19.0553 27.0732C18.9122 27.2223 19.0528 27.4657 19.2491 27.4011C21.1233 26.7838 22.7945 25.7167 24.1344 24.3278C24.2545 24.2034 24.1645 24 23.9915 24H21.4802C21.4087 24 21.3428 24.0382 21.3066 24.0998C20.6784 25.1696 19.9241 26.1678 19.0553 27.0732ZM22.4483 21.7241C22.3977 21.8565 22.4945 22 22.6363 22L25.7459 22.0004C25.8351 22.0004 25.9177 21.953 25.9615 21.8753C26.7521 20.4723 27.2694 18.8951 27.4389 17.2164C27.4507 17.1 27.3585 17 27.2416 17H23.6573C23.5516 17 23.4643 17.0822 23.4566 17.1876C23.3412 18.7606 22.9978 20.2861 22.4483 21.7241ZM21.2501 17C21.3661 17 21.4579 17.0984 21.448 17.214C21.3071 18.8513 20.8829 20.4282 20.2081 21.8854C20.1756 21.9556 20.1052 22 20.0279 22H16.7C16.5895 22 16.5 21.9105 16.5 21.8V17.2C16.5 17.0895 16.5895 17 16.7 17H21.2501ZM23.4566 14.8124C23.4643 14.9178 23.5516 15 23.6573 15H27.2416C27.3585 15 27.4507 14.9 27.4389 14.7836C27.2694 13.1049 26.7521 11.5277 25.9615 10.1247C25.9177 10.047 25.8351 9.99961 25.7459 9.99962L22.6364 10C22.4947 10 22.3978 10.1434 22.4484 10.2758C22.9978 11.7142 23.3412 13.2395 23.4566 14.8124ZM20.0279 10C20.1051 10 20.1756 10.0444 20.208 10.1146C20.8829 11.5718 21.3071 13.1487 21.448 14.786C21.4579 14.9016 21.3661 15 21.2501 15H16.7C16.5895 15 16.5 14.9105 16.5 14.8V10.2C16.5 10.0895 16.5895 10 16.7 10H20.0279ZM21.3074 7.90017C21.3435 7.96181 21.4095 8 21.481 8H23.9915C24.1645 8 24.2545 7.79661 24.1344 7.67215C22.7959 6.28483 21.1269 5.21847 19.2552 4.6009C19.0591 4.53619 18.9183 4.77932 19.0611 4.92851C19.9278 5.83408 20.6804 6.83153 21.3074 7.90017ZM16.8246 5.55173C16.6979 5.43836 16.5 5.52978 16.5 5.69982V7.8C16.5 7.91046 16.5895 8 16.7 8H18.6109C18.7725 8 18.8667 7.81872 18.7707 7.6887C18.2015 6.91763 17.5505 6.20115 16.8246 5.55173ZM14.5 5.69979C14.5 5.52976 14.3021 5.43833 14.1754 5.5517C13.4495 6.20113 12.7985 6.91762 12.2293 7.6887C12.1333 7.81872 12.2275 8 12.3891 8H14.3C14.4105 8 14.5 7.91046 14.5 7.8V5.69979ZM16.7 24C16.5895 24 16.5 24.0895 16.5 24.2V26.3003C16.5 26.4703 16.6979 26.5617 16.8246 26.4483C17.5505 25.7989 18.2016 25.0824 18.7708 24.3113C18.8667 24.1813 18.7725 24 18.6109 24H16.7ZM5.05162 21.9C5.08679 21.9621 5.15284 22 5.22419 22H8.36636C8.50817 22 8.60505 21.8564 8.55434 21.724C8.00357 20.2853 7.65927 18.7599 7.54357 17.1876C7.53581 17.0822 7.44851 17 7.34285 17H3.75845C3.64149 17 3.54934 17.1 3.56109 17.2164C3.73161 18.9049 4.25321 20.4909 5.05162 21.9ZM11.7588 27.4037C11.955 27.4682 12.0955 27.2249 11.9525 27.0759C11.0824 26.1691 10.327 25.1701 9.69775 24.0997C9.66156 24.0381 9.59565 24 9.52424 24H7.00846C6.83553 24 6.74552 24.2034 6.8656 24.3278C8.20741 25.7186 9.88141 26.7868 11.7588 27.4037ZM9.519 8C9.59047 8 9.65643 7.96181 9.69259 7.90017C10.3196 6.83153 11.0722 5.8341 11.9388 4.92853C12.0816 4.77934 11.9409 4.53621 11.7448 4.60092C9.87306 5.2185 8.20406 6.28485 6.86559 7.67215C6.74552 7.79661 6.83553 8 7.00846 8H9.519Z"
        fill="url(#paint4_linear_18_4808)" />
    <path fill-rule="evenodd" clip-rule="evenodd"
        d="M1.5 16C1.5 23.72 7.78 30 15.5 30C23.22 30 29.5 23.72 29.5 16C29.5 8.28 23.22 2 15.5 2C7.78 2 1.5 8.28 1.5 16ZM3.75845 15C3.64149 15 3.54934 14.9 3.56109 14.7836C3.73161 13.0951 4.2532 11.5091 5.05162 10.1C5.08679 10.0379 5.15284 10 5.22419 10H8.36354C8.50529 10 8.60216 10.1434 8.55158 10.2758C8.00219 11.7142 7.65879 13.2395 7.54342 14.8124C7.53569 14.9178 7.44839 15 7.34271 15H3.75845ZM9.74991 15C9.6339 15 9.54209 14.9016 9.55204 14.786C9.69291 13.1487 10.1171 11.5718 10.7919 10.1146C10.8244 10.0444 10.8949 10 10.9721 10H14.3C14.4105 10 14.5 10.0895 14.5 10.2V14.8C14.5 14.9105 14.4105 15 14.3 15H9.74991ZM14.5 17.2C14.5 17.0895 14.4105 17 14.3 17H9.74991C9.63389 17 9.54209 17.0984 9.55203 17.214C9.69291 18.8513 10.1171 20.4282 10.7919 21.8854C10.8244 21.9556 10.8949 22 10.9721 22H14.3C14.4105 22 14.5 21.9105 14.5 21.8V17.2ZM14.5 24.2C14.5 24.0895 14.4105 24 14.3 24H12.3891C12.2275 24 12.1333 24.1813 12.2293 24.3113C12.7984 25.0824 13.4495 25.7989 14.1754 26.4483C14.3021 26.5617 14.5 26.4703 14.5 26.3002V24.2ZM19.0553 27.0732C18.9122 27.2223 19.0528 27.4657 19.2491 27.4011C21.1233 26.7838 22.7945 25.7167 24.1344 24.3278C24.2545 24.2034 24.1645 24 23.9915 24H21.4802C21.4087 24 21.3428 24.0382 21.3066 24.0998C20.6784 25.1696 19.9241 26.1678 19.0553 27.0732ZM22.4483 21.7241C22.3977 21.8565 22.4945 22 22.6363 22L25.7459 22.0004C25.8351 22.0004 25.9177 21.953 25.9615 21.8753C26.7521 20.4723 27.2694 18.8951 27.4389 17.2164C27.4507 17.1 27.3585 17 27.2416 17H23.6573C23.5516 17 23.4643 17.0822 23.4566 17.1876C23.3412 18.7606 22.9978 20.2861 22.4483 21.7241ZM21.2501 17C21.3661 17 21.4579 17.0984 21.448 17.214C21.3071 18.8513 20.8829 20.4282 20.2081 21.8854C20.1756 21.9556 20.1052 22 20.0279 22H16.7C16.5895 22 16.5 21.9105 16.5 21.8V17.2C16.5 17.0895 16.5895 17 16.7 17H21.2501ZM23.4566 14.8124C23.4643 14.9178 23.5516 15 23.6573 15H27.2416C27.3585 15 27.4507 14.9 27.4389 14.7836C27.2694 13.1049 26.7521 11.5277 25.9615 10.1247C25.9177 10.047 25.8351 9.99961 25.7459 9.99962L22.6364 10C22.4947 10 22.3978 10.1434 22.4484 10.2758C22.9978 11.7142 23.3412 13.2395 23.4566 14.8124ZM20.0279 10C20.1051 10 20.1756 10.0444 20.208 10.1146C20.8829 11.5718 21.3071 13.1487 21.448 14.786C21.4579 14.9016 21.3661 15 21.2501 15H16.7C16.5895 15 16.5 14.9105 16.5 14.8V10.2C16.5 10.0895 16.5895 10 16.7 10H20.0279ZM21.3074 7.90017C21.3435 7.96181 21.4095 8 21.481 8H23.9915C24.1645 8 24.2545 7.79661 24.1344 7.67215C22.7959 6.28483 21.1269 5.21847 19.2552 4.6009C19.0591 4.53619 18.9183 4.77932 19.0611 4.92851C19.9278 5.83408 20.6804 6.83153 21.3074 7.90017ZM16.8246 5.55173C16.6979 5.43836 16.5 5.52978 16.5 5.69982V7.8C16.5 7.91046 16.5895 8 16.7 8H18.6109C18.7725 8 18.8667 7.81872 18.7707 7.6887C18.2015 6.91763 17.5505 6.20115 16.8246 5.55173ZM14.5 5.69979C14.5 5.52976 14.3021 5.43833 14.1754 5.5517C13.4495 6.20113 12.7985 6.91762 12.2293 7.6887C12.1333 7.81872 12.2275 8 12.3891 8H14.3C14.4105 8 14.5 7.91046 14.5 7.8V5.69979ZM16.7 24C16.5895 24 16.5 24.0895 16.5 24.2V26.3003C16.5 26.4703 16.6979 26.5617 16.8246 26.4483C17.5505 25.7989 18.2016 25.0824 18.7708 24.3113C18.8667 24.1813 18.7725 24 18.6109 24H16.7ZM5.05162 21.9C5.08679 21.9621 5.15284 22 5.22419 22H8.36636C8.50817 22 8.60505 21.8564 8.55434 21.724C8.00357 20.2853 7.65927 18.7599 7.54357 17.1876C7.53581 17.0822 7.44851 17 7.34285 17H3.75845C3.64149 17 3.54934 17.1 3.56109 17.2164C3.73161 18.9049 4.25321 20.4909 5.05162 21.9ZM11.7588 27.4037C11.955 27.4682 12.0955 27.2249 11.9525 27.0759C11.0824 26.1691 10.327 25.1701 9.69775 24.0997C9.66156 24.0381 9.59565 24 9.52424 24H7.00846C6.83553 24 6.74552 24.2034 6.8656 24.3278C8.20741 25.7186 9.88141 26.7868 11.7588 27.4037ZM9.519 8C9.59047 8 9.65643 7.96181 9.69259 7.90017C10.3196 6.83153 11.0722 5.8341 11.9388 4.92853C12.0816 4.77934 11.9409 4.53621 11.7448 4.60092C9.87306 5.2185 8.20406 6.28485 6.86559 7.67215C6.74552 7.79661 6.83553 8 7.00846 8H9.519Z"
        fill="url(#paint5_radial_18_4808)" />
    <path fill-rule="evenodd" clip-rule="evenodd"
        d="M1.5 16C1.5 23.72 7.78 30 15.5 30C23.22 30 29.5 23.72 29.5 16C29.5 8.28 23.22 2 15.5 2C7.78 2 1.5 8.28 1.5 16ZM3.75845 15C3.64149 15 3.54934 14.9 3.56109 14.7836C3.73161 13.0951 4.2532 11.5091 5.05162 10.1C5.08679 10.0379 5.15284 10 5.22419 10H8.36354C8.50529 10 8.60216 10.1434 8.55158 10.2758C8.00219 11.7142 7.65879 13.2395 7.54342 14.8124C7.53569 14.9178 7.44839 15 7.34271 15H3.75845ZM9.74991 15C9.6339 15 9.54209 14.9016 9.55204 14.786C9.69291 13.1487 10.1171 11.5718 10.7919 10.1146C10.8244 10.0444 10.8949 10 10.9721 10H14.3C14.4105 10 14.5 10.0895 14.5 10.2V14.8C14.5 14.9105 14.4105 15 14.3 15H9.74991ZM14.5 17.2C14.5 17.0895 14.4105 17 14.3 17H9.74991C9.63389 17 9.54209 17.0984 9.55203 17.214C9.69291 18.8513 10.1171 20.4282 10.7919 21.8854C10.8244 21.9556 10.8949 22 10.9721 22H14.3C14.4105 22 14.5 21.9105 14.5 21.8V17.2ZM14.5 24.2C14.5 24.0895 14.4105 24 14.3 24H12.3891C12.2275 24 12.1333 24.1813 12.2293 24.3113C12.7984 25.0824 13.4495 25.7989 14.1754 26.4483C14.3021 26.5617 14.5 26.4703 14.5 26.3002V24.2ZM19.0553 27.0732C18.9122 27.2223 19.0528 27.4657 19.2491 27.4011C21.1233 26.7838 22.7945 25.7167 24.1344 24.3278C24.2545 24.2034 24.1645 24 23.9915 24H21.4802C21.4087 24 21.3428 24.0382 21.3066 24.0998C20.6784 25.1696 19.9241 26.1678 19.0553 27.0732ZM22.4483 21.7241C22.3977 21.8565 22.4945 22 22.6363 22L25.7459 22.0004C25.8351 22.0004 25.9177 21.953 25.9615 21.8753C26.7521 20.4723 27.2694 18.8951 27.4389 17.2164C27.4507 17.1 27.3585 17 27.2416 17H23.6573C23.5516 17 23.4643 17.0822 23.4566 17.1876C23.3412 18.7606 22.9978 20.2861 22.4483 21.7241ZM21.2501 17C21.3661 17 21.4579 17.0984 21.448 17.214C21.3071 18.8513 20.8829 20.4282 20.2081 21.8854C20.1756 21.9556 20.1052 22 20.0279 22H16.7C16.5895 22 16.5 21.9105 16.5 21.8V17.2C16.5 17.0895 16.5895 17 16.7 17H21.2501ZM23.4566 14.8124C23.4643 14.9178 23.5516 15 23.6573 15H27.2416C27.3585 15 27.4507 14.9 27.4389 14.7836C27.2694 13.1049 26.7521 11.5277 25.9615 10.1247C25.9177 10.047 25.8351 9.99961 25.7459 9.99962L22.6364 10C22.4947 10 22.3978 10.1434 22.4484 10.2758C22.9978 11.7142 23.3412 13.2395 23.4566 14.8124ZM20.0279 10C20.1051 10 20.1756 10.0444 20.208 10.1146C20.8829 11.5718 21.3071 13.1487 21.448 14.786C21.4579 14.9016 21.3661 15 21.2501 15H16.7C16.5895 15 16.5 14.9105 16.5 14.8V10.2C16.5 10.0895 16.5895 10 16.7 10H20.0279ZM21.3074 7.90017C21.3435 7.96181 21.4095 8 21.481 8H23.9915C24.1645 8 24.2545 7.79661 24.1344 7.67215C22.7959 6.28483 21.1269 5.21847 19.2552 4.6009C19.0591 4.53619 18.9183 4.77932 19.0611 4.92851C19.9278 5.83408 20.6804 6.83153 21.3074 7.90017ZM16.8246 5.55173C16.6979 5.43836 16.5 5.52978 16.5 5.69982V7.8C16.5 7.91046 16.5895 8 16.7 8H18.6109C18.7725 8 18.8667 7.81872 18.7707 7.6887C18.2015 6.91763 17.5505 6.20115 16.8246 5.55173ZM14.5 5.69979C14.5 5.52976 14.3021 5.43833 14.1754 5.5517C13.4495 6.20113 12.7985 6.91762 12.2293 7.6887C12.1333 7.81872 12.2275 8 12.3891 8H14.3C14.4105 8 14.5 7.91046 14.5 7.8V5.69979ZM16.7 24C16.5895 24 16.5 24.0895 16.5 24.2V26.3003C16.5 26.4703 16.6979 26.5617 16.8246 26.4483C17.5505 25.7989 18.2016 25.0824 18.7708 24.3113C18.8667 24.1813 18.7725 24 18.6109 24H16.7ZM5.05162 21.9C5.08679 21.9621 5.15284 22 5.22419 22H8.36636C8.50817 22 8.60505 21.8564 8.55434 21.724C8.00357 20.2853 7.65927 18.7599 7.54357 17.1876C7.53581 17.0822 7.44851 17 7.34285 17H3.75845C3.64149 17 3.54934 17.1 3.56109 17.2164C3.73161 18.9049 4.25321 20.4909 5.05162 21.9ZM11.7588 27.4037C11.955 27.4682 12.0955 27.2249 11.9525 27.0759C11.0824 26.1691 10.327 25.1701 9.69775 24.0997C9.66156 24.0381 9.59565 24 9.52424 24H7.00846C6.83553 24 6.74552 24.2034 6.8656 24.3278C8.20741 25.7186 9.88141 26.7868 11.7588 27.4037ZM9.519 8C9.59047 8 9.65643 7.96181 9.69259 7.90017C10.3196 6.83153 11.0722 5.8341 11.9388 4.92853C12.0816 4.77934 11.9409 4.53621 11.7448 4.60092C9.87306 5.2185 8.20406 6.28485 6.86559 7.67215C6.74552 7.79661 6.83553 8 7.00846 8H9.519Z"
        fill="url(#paint6_radial_18_4808)" />
    <path fill-rule="evenodd" clip-rule="evenodd"
        d="M1.5 16C1.5 23.72 7.78 30 15.5 30C23.22 30 29.5 23.72 29.5 16C29.5 8.28 23.22 2 15.5 2C7.78 2 1.5 8.28 1.5 16ZM3.75845 15C3.64149 15 3.54934 14.9 3.56109 14.7836C3.73161 13.0951 4.2532 11.5091 5.05162 10.1C5.08679 10.0379 5.15284 10 5.22419 10H8.36354C8.50529 10 8.60216 10.1434 8.55158 10.2758C8.00219 11.7142 7.65879 13.2395 7.54342 14.8124C7.53569 14.9178 7.44839 15 7.34271 15H3.75845ZM9.74991 15C9.6339 15 9.54209 14.9016 9.55204 14.786C9.69291 13.1487 10.1171 11.5718 10.7919 10.1146C10.8244 10.0444 10.8949 10 10.9721 10H14.3C14.4105 10 14.5 10.0895 14.5 10.2V14.8C14.5 14.9105 14.4105 15 14.3 15H9.74991ZM14.5 17.2C14.5 17.0895 14.4105 17 14.3 17H9.74991C9.63389 17 9.54209 17.0984 9.55203 17.214C9.69291 18.8513 10.1171 20.4282 10.7919 21.8854C10.8244 21.9556 10.8949 22 10.9721 22H14.3C14.4105 22 14.5 21.9105 14.5 21.8V17.2ZM14.5 24.2C14.5 24.0895 14.4105 24 14.3 24H12.3891C12.2275 24 12.1333 24.1813 12.2293 24.3113C12.7984 25.0824 13.4495 25.7989 14.1754 26.4483C14.3021 26.5617 14.5 26.4703 14.5 26.3002V24.2ZM19.0553 27.0732C18.9122 27.2223 19.0528 27.4657 19.2491 27.4011C21.1233 26.7838 22.7945 25.7167 24.1344 24.3278C24.2545 24.2034 24.1645 24 23.9915 24H21.4802C21.4087 24 21.3428 24.0382 21.3066 24.0998C20.6784 25.1696 19.9241 26.1678 19.0553 27.0732ZM22.4483 21.7241C22.3977 21.8565 22.4945 22 22.6363 22L25.7459 22.0004C25.8351 22.0004 25.9177 21.953 25.9615 21.8753C26.7521 20.4723 27.2694 18.8951 27.4389 17.2164C27.4507 17.1 27.3585 17 27.2416 17H23.6573C23.5516 17 23.4643 17.0822 23.4566 17.1876C23.3412 18.7606 22.9978 20.2861 22.4483 21.7241ZM21.2501 17C21.3661 17 21.4579 17.0984 21.448 17.214C21.3071 18.8513 20.8829 20.4282 20.2081 21.8854C20.1756 21.9556 20.1052 22 20.0279 22H16.7C16.5895 22 16.5 21.9105 16.5 21.8V17.2C16.5 17.0895 16.5895 17 16.7 17H21.2501ZM23.4566 14.8124C23.4643 14.9178 23.5516 15 23.6573 15H27.2416C27.3585 15 27.4507 14.9 27.4389 14.7836C27.2694 13.1049 26.7521 11.5277 25.9615 10.1247C25.9177 10.047 25.8351 9.99961 25.7459 9.99962L22.6364 10C22.4947 10 22.3978 10.1434 22.4484 10.2758C22.9978 11.7142 23.3412 13.2395 23.4566 14.8124ZM20.0279 10C20.1051 10 20.1756 10.0444 20.208 10.1146C20.8829 11.5718 21.3071 13.1487 21.448 14.786C21.4579 14.9016 21.3661 15 21.2501 15H16.7C16.5895 15 16.5 14.9105 16.5 14.8V10.2C16.5 10.0895 16.5895 10 16.7 10H20.0279ZM21.3074 7.90017C21.3435 7.96181 21.4095 8 21.481 8H23.9915C24.1645 8 24.2545 7.79661 24.1344 7.67215C22.7959 6.28483 21.1269 5.21847 19.2552 4.6009C19.0591 4.53619 18.9183 4.77932 19.0611 4.92851C19.9278 5.83408 20.6804 6.83153 21.3074 7.90017ZM16.8246 5.55173C16.6979 5.43836 16.5 5.52978 16.5 5.69982V7.8C16.5 7.91046 16.5895 8 16.7 8H18.6109C18.7725 8 18.8667 7.81872 18.7707 7.6887C18.2015 6.91763 17.5505 6.20115 16.8246 5.55173ZM14.5 5.69979C14.5 5.52976 14.3021 5.43833 14.1754 5.5517C13.4495 6.20113 12.7985 6.91762 12.2293 7.6887C12.1333 7.81872 12.2275 8 12.3891 8H14.3C14.4105 8 14.5 7.91046 14.5 7.8V5.69979ZM16.7 24C16.5895 24 16.5 24.0895 16.5 24.2V26.3003C16.5 26.4703 16.6979 26.5617 16.8246 26.4483C17.5505 25.7989 18.2016 25.0824 18.7708 24.3113C18.8667 24.1813 18.7725 24 18.6109 24H16.7ZM5.05162 21.9C5.08679 21.9621 5.15284 22 5.22419 22H8.36636C8.50817 22 8.60505 21.8564 8.55434 21.724C8.00357 20.2853 7.65927 18.7599 7.54357 17.1876C7.53581 17.0822 7.44851 17 7.34285 17H3.75845C3.64149 17 3.54934 17.1 3.56109 17.2164C3.73161 18.9049 4.25321 20.4909 5.05162 21.9ZM11.7588 27.4037C11.955 27.4682 12.0955 27.2249 11.9525 27.0759C11.0824 26.1691 10.327 25.1701 9.69775 24.0997C9.66156 24.0381 9.59565 24 9.52424 24H7.00846C6.83553 24 6.74552 24.2034 6.8656 24.3278C8.20741 25.7186 9.88141 26.7868 11.7588 27.4037ZM9.519 8C9.59047 8 9.65643 7.96181 9.69259 7.90017C10.3196 6.83153 11.0722 5.8341 11.9388 4.92853C12.0816 4.77934 11.9409 4.53621 11.7448 4.60092C9.87306 5.2185 8.20406 6.28485 6.86559 7.67215C6.74552 7.79661 6.83553 8 7.00846 8H9.519Z"
        fill="url(#paint7_radial_18_4808)" />
    <path fill-rule="evenodd" clip-rule="evenodd"
        d="M1.5 16C1.5 23.72 7.78 30 15.5 30C23.22 30 29.5 23.72 29.5 16C29.5 8.28 23.22 2 15.5 2C7.78 2 1.5 8.28 1.5 16ZM3.75845 15C3.64149 15 3.54934 14.9 3.56109 14.7836C3.73161 13.0951 4.2532 11.5091 5.05162 10.1C5.08679 10.0379 5.15284 10 5.22419 10H8.36354C8.50529 10 8.60216 10.1434 8.55158 10.2758C8.00219 11.7142 7.65879 13.2395 7.54342 14.8124C7.53569 14.9178 7.44839 15 7.34271 15H3.75845ZM9.74991 15C9.6339 15 9.54209 14.9016 9.55204 14.786C9.69291 13.1487 10.1171 11.5718 10.7919 10.1146C10.8244 10.0444 10.8949 10 10.9721 10H14.3C14.4105 10 14.5 10.0895 14.5 10.2V14.8C14.5 14.9105 14.4105 15 14.3 15H9.74991ZM14.5 17.2C14.5 17.0895 14.4105 17 14.3 17H9.74991C9.63389 17 9.54209 17.0984 9.55203 17.214C9.69291 18.8513 10.1171 20.4282 10.7919 21.8854C10.8244 21.9556 10.8949 22 10.9721 22H14.3C14.4105 22 14.5 21.9105 14.5 21.8V17.2ZM14.5 24.2C14.5 24.0895 14.4105 24 14.3 24H12.3891C12.2275 24 12.1333 24.1813 12.2293 24.3113C12.7984 25.0824 13.4495 25.7989 14.1754 26.4483C14.3021 26.5617 14.5 26.4703 14.5 26.3002V24.2ZM19.0553 27.0732C18.9122 27.2223 19.0528 27.4657 19.2491 27.4011C21.1233 26.7838 22.7945 25.7167 24.1344 24.3278C24.2545 24.2034 24.1645 24 23.9915 24H21.4802C21.4087 24 21.3428 24.0382 21.3066 24.0998C20.6784 25.1696 19.9241 26.1678 19.0553 27.0732ZM22.4483 21.7241C22.3977 21.8565 22.4945 22 22.6363 22L25.7459 22.0004C25.8351 22.0004 25.9177 21.953 25.9615 21.8753C26.7521 20.4723 27.2694 18.8951 27.4389 17.2164C27.4507 17.1 27.3585 17 27.2416 17H23.6573C23.5516 17 23.4643 17.0822 23.4566 17.1876C23.3412 18.7606 22.9978 20.2861 22.4483 21.7241ZM21.2501 17C21.3661 17 21.4579 17.0984 21.448 17.214C21.3071 18.8513 20.8829 20.4282 20.2081 21.8854C20.1756 21.9556 20.1052 22 20.0279 22H16.7C16.5895 22 16.5 21.9105 16.5 21.8V17.2C16.5 17.0895 16.5895 17 16.7 17H21.2501ZM23.4566 14.8124C23.4643 14.9178 23.5516 15 23.6573 15H27.2416C27.3585 15 27.4507 14.9 27.4389 14.7836C27.2694 13.1049 26.7521 11.5277 25.9615 10.1247C25.9177 10.047 25.8351 9.99961 25.7459 9.99962L22.6364 10C22.4947 10 22.3978 10.1434 22.4484 10.2758C22.9978 11.7142 23.3412 13.2395 23.4566 14.8124ZM20.0279 10C20.1051 10 20.1756 10.0444 20.208 10.1146C20.8829 11.5718 21.3071 13.1487 21.448 14.786C21.4579 14.9016 21.3661 15 21.2501 15H16.7C16.5895 15 16.5 14.9105 16.5 14.8V10.2C16.5 10.0895 16.5895 10 16.7 10H20.0279ZM21.3074 7.90017C21.3435 7.96181 21.4095 8 21.481 8H23.9915C24.1645 8 24.2545 7.79661 24.1344 7.67215C22.7959 6.28483 21.1269 5.21847 19.2552 4.6009C19.0591 4.53619 18.9183 4.77932 19.0611 4.92851C19.9278 5.83408 20.6804 6.83153 21.3074 7.90017ZM16.8246 5.55173C16.6979 5.43836 16.5 5.52978 16.5 5.69982V7.8C16.5 7.91046 16.5895 8 16.7 8H18.6109C18.7725 8 18.8667 7.81872 18.7707 7.6887C18.2015 6.91763 17.5505 6.20115 16.8246 5.55173ZM14.5 5.69979C14.5 5.52976 14.3021 5.43833 14.1754 5.5517C13.4495 6.20113 12.7985 6.91762 12.2293 7.6887C12.1333 7.81872 12.2275 8 12.3891 8H14.3C14.4105 8 14.5 7.91046 14.5 7.8V5.69979ZM16.7 24C16.5895 24 16.5 24.0895 16.5 24.2V26.3003C16.5 26.4703 16.6979 26.5617 16.8246 26.4483C17.5505 25.7989 18.2016 25.0824 18.7708 24.3113C18.8667 24.1813 18.7725 24 18.6109 24H16.7ZM5.05162 21.9C5.08679 21.9621 5.15284 22 5.22419 22H8.36636C8.50817 22 8.60505 21.8564 8.55434 21.724C8.00357 20.2853 7.65927 18.7599 7.54357 17.1876C7.53581 17.0822 7.44851 17 7.34285 17H3.75845C3.64149 17 3.54934 17.1 3.56109 17.2164C3.73161 18.9049 4.25321 20.4909 5.05162 21.9ZM11.7588 27.4037C11.955 27.4682 12.0955 27.2249 11.9525 27.0759C11.0824 26.1691 10.327 25.1701 9.69775 24.0997C9.66156 24.0381 9.59565 24 9.52424 24H7.00846C6.83553 24 6.74552 24.2034 6.8656 24.3278C8.20741 25.7186 9.88141 26.7868 11.7588 27.4037ZM9.519 8C9.59047 8 9.65643 7.96181 9.69259 7.90017C10.3196 6.83153 11.0722 5.8341 11.9388 4.92853C12.0816 4.77934 11.9409 4.53621 11.7448 4.60092C9.87306 5.2185 8.20406 6.28485 6.86559 7.67215C6.74552 7.79661 6.83553 8 7.00846 8H9.519Z"
        fill="url(#paint8_radial_18_4808)" />
    <path fill-rule="evenodd" clip-rule="evenodd"
        d="M1.5 16C1.5 23.72 7.78 30 15.5 30C23.22 30 29.5 23.72 29.5 16C29.5 8.28 23.22 2 15.5 2C7.78 2 1.5 8.28 1.5 16ZM3.75845 15C3.64149 15 3.54934 14.9 3.56109 14.7836C3.73161 13.0951 4.2532 11.5091 5.05162 10.1C5.08679 10.0379 5.15284 10 5.22419 10H8.36354C8.50529 10 8.60216 10.1434 8.55158 10.2758C8.00219 11.7142 7.65879 13.2395 7.54342 14.8124C7.53569 14.9178 7.44839 15 7.34271 15H3.75845ZM9.74991 15C9.6339 15 9.54209 14.9016 9.55204 14.786C9.69291 13.1487 10.1171 11.5718 10.7919 10.1146C10.8244 10.0444 10.8949 10 10.9721 10H14.3C14.4105 10 14.5 10.0895 14.5 10.2V14.8C14.5 14.9105 14.4105 15 14.3 15H9.74991ZM14.5 17.2C14.5 17.0895 14.4105 17 14.3 17H9.74991C9.63389 17 9.54209 17.0984 9.55203 17.214C9.69291 18.8513 10.1171 20.4282 10.7919 21.8854C10.8244 21.9556 10.8949 22 10.9721 22H14.3C14.4105 22 14.5 21.9105 14.5 21.8V17.2ZM14.5 24.2C14.5 24.0895 14.4105 24 14.3 24H12.3891C12.2275 24 12.1333 24.1813 12.2293 24.3113C12.7984 25.0824 13.4495 25.7989 14.1754 26.4483C14.3021 26.5617 14.5 26.4703 14.5 26.3002V24.2ZM19.0553 27.0732C18.9122 27.2223 19.0528 27.4657 19.2491 27.4011C21.1233 26.7838 22.7945 25.7167 24.1344 24.3278C24.2545 24.2034 24.1645 24 23.9915 24H21.4802C21.4087 24 21.3428 24.0382 21.3066 24.0998C20.6784 25.1696 19.9241 26.1678 19.0553 27.0732ZM22.4483 21.7241C22.3977 21.8565 22.4945 22 22.6363 22L25.7459 22.0004C25.8351 22.0004 25.9177 21.953 25.9615 21.8753C26.7521 20.4723 27.2694 18.8951 27.4389 17.2164C27.4507 17.1 27.3585 17 27.2416 17H23.6573C23.5516 17 23.4643 17.0822 23.4566 17.1876C23.3412 18.7606 22.9978 20.2861 22.4483 21.7241ZM21.2501 17C21.3661 17 21.4579 17.0984 21.448 17.214C21.3071 18.8513 20.8829 20.4282 20.2081 21.8854C20.1756 21.9556 20.1052 22 20.0279 22H16.7C16.5895 22 16.5 21.9105 16.5 21.8V17.2C16.5 17.0895 16.5895 17 16.7 17H21.2501ZM23.4566 14.8124C23.4643 14.9178 23.5516 15 23.6573 15H27.2416C27.3585 15 27.4507 14.9 27.4389 14.7836C27.2694 13.1049 26.7521 11.5277 25.9615 10.1247C25.9177 10.047 25.8351 9.99961 25.7459 9.99962L22.6364 10C22.4947 10 22.3978 10.1434 22.4484 10.2758C22.9978 11.7142 23.3412 13.2395 23.4566 14.8124ZM20.0279 10C20.1051 10 20.1756 10.0444 20.208 10.1146C20.8829 11.5718 21.3071 13.1487 21.448 14.786C21.4579 14.9016 21.3661 15 21.2501 15H16.7C16.5895 15 16.5 14.9105 16.5 14.8V10.2C16.5 10.0895 16.5895 10 16.7 10H20.0279ZM21.3074 7.90017C21.3435 7.96181 21.4095 8 21.481 8H23.9915C24.1645 8 24.2545 7.79661 24.1344 7.67215C22.7959 6.28483 21.1269 5.21847 19.2552 4.6009C19.0591 4.53619 18.9183 4.77932 19.0611 4.92851C19.9278 5.83408 20.6804 6.83153 21.3074 7.90017ZM16.8246 5.55173C16.6979 5.43836 16.5 5.52978 16.5 5.69982V7.8C16.5 7.91046 16.5895 8 16.7 8H18.6109C18.7725 8 18.8667 7.81872 18.7707 7.6887C18.2015 6.91763 17.5505 6.20115 16.8246 5.55173ZM14.5 5.69979C14.5 5.52976 14.3021 5.43833 14.1754 5.5517C13.4495 6.20113 12.7985 6.91762 12.2293 7.6887C12.1333 7.81872 12.2275 8 12.3891 8H14.3C14.4105 8 14.5 7.91046 14.5 7.8V5.69979ZM16.7 24C16.5895 24 16.5 24.0895 16.5 24.2V26.3003C16.5 26.4703 16.6979 26.5617 16.8246 26.4483C17.5505 25.7989 18.2016 25.0824 18.7708 24.3113C18.8667 24.1813 18.7725 24 18.6109 24H16.7ZM5.05162 21.9C5.08679 21.9621 5.15284 22 5.22419 22H8.36636C8.50817 22 8.60505 21.8564 8.55434 21.724C8.00357 20.2853 7.65927 18.7599 7.54357 17.1876C7.53581 17.0822 7.44851 17 7.34285 17H3.75845C3.64149 17 3.54934 17.1 3.56109 17.2164C3.73161 18.9049 4.25321 20.4909 5.05162 21.9ZM11.7588 27.4037C11.955 27.4682 12.0955 27.2249 11.9525 27.0759C11.0824 26.1691 10.327 25.1701 9.69775 24.0997C9.66156 24.0381 9.59565 24 9.52424 24H7.00846C6.83553 24 6.74552 24.2034 6.8656 24.3278C8.20741 25.7186 9.88141 26.7868 11.7588 27.4037ZM9.519 8C9.59047 8 9.65643 7.96181 9.69259 7.90017C10.3196 6.83153 11.0722 5.8341 11.9388 4.92853C12.0816 4.77934 11.9409 4.53621 11.7448 4.60092C9.87306 5.2185 8.20406 6.28485 6.86559 7.67215C6.74552 7.79661 6.83553 8 7.00846 8H9.519Z"
        fill="url(#paint9_radial_18_4808)" />
    <path fill-rule="evenodd" clip-rule="evenodd"
        d="M1.5 16C1.5 23.72 7.78 30 15.5 30C23.22 30 29.5 23.72 29.5 16C29.5 8.28 23.22 2 15.5 2C7.78 2 1.5 8.28 1.5 16ZM3.75845 15C3.64149 15 3.54934 14.9 3.56109 14.7836C3.73161 13.0951 4.2532 11.5091 5.05162 10.1C5.08679 10.0379 5.15284 10 5.22419 10H8.36354C8.50529 10 8.60216 10.1434 8.55158 10.2758C8.00219 11.7142 7.65879 13.2395 7.54342 14.8124C7.53569 14.9178 7.44839 15 7.34271 15H3.75845ZM9.74991 15C9.6339 15 9.54209 14.9016 9.55204 14.786C9.69291 13.1487 10.1171 11.5718 10.7919 10.1146C10.8244 10.0444 10.8949 10 10.9721 10H14.3C14.4105 10 14.5 10.0895 14.5 10.2V14.8C14.5 14.9105 14.4105 15 14.3 15H9.74991ZM14.5 17.2C14.5 17.0895 14.4105 17 14.3 17H9.74991C9.63389 17 9.54209 17.0984 9.55203 17.214C9.69291 18.8513 10.1171 20.4282 10.7919 21.8854C10.8244 21.9556 10.8949 22 10.9721 22H14.3C14.4105 22 14.5 21.9105 14.5 21.8V17.2ZM14.5 24.2C14.5 24.0895 14.4105 24 14.3 24H12.3891C12.2275 24 12.1333 24.1813 12.2293 24.3113C12.7984 25.0824 13.4495 25.7989 14.1754 26.4483C14.3021 26.5617 14.5 26.4703 14.5 26.3002V24.2ZM19.0553 27.0732C18.9122 27.2223 19.0528 27.4657 19.2491 27.4011C21.1233 26.7838 22.7945 25.7167 24.1344 24.3278C24.2545 24.2034 24.1645 24 23.9915 24H21.4802C21.4087 24 21.3428 24.0382 21.3066 24.0998C20.6784 25.1696 19.9241 26.1678 19.0553 27.0732ZM22.4483 21.7241C22.3977 21.8565 22.4945 22 22.6363 22L25.7459 22.0004C25.8351 22.0004 25.9177 21.953 25.9615 21.8753C26.7521 20.4723 27.2694 18.8951 27.4389 17.2164C27.4507 17.1 27.3585 17 27.2416 17H23.6573C23.5516 17 23.4643 17.0822 23.4566 17.1876C23.3412 18.7606 22.9978 20.2861 22.4483 21.7241ZM21.2501 17C21.3661 17 21.4579 17.0984 21.448 17.214C21.3071 18.8513 20.8829 20.4282 20.2081 21.8854C20.1756 21.9556 20.1052 22 20.0279 22H16.7C16.5895 22 16.5 21.9105 16.5 21.8V17.2C16.5 17.0895 16.5895 17 16.7 17H21.2501ZM23.4566 14.8124C23.4643 14.9178 23.5516 15 23.6573 15H27.2416C27.3585 15 27.4507 14.9 27.4389 14.7836C27.2694 13.1049 26.7521 11.5277 25.9615 10.1247C25.9177 10.047 25.8351 9.99961 25.7459 9.99962L22.6364 10C22.4947 10 22.3978 10.1434 22.4484 10.2758C22.9978 11.7142 23.3412 13.2395 23.4566 14.8124ZM20.0279 10C20.1051 10 20.1756 10.0444 20.208 10.1146C20.8829 11.5718 21.3071 13.1487 21.448 14.786C21.4579 14.9016 21.3661 15 21.2501 15H16.7C16.5895 15 16.5 14.9105 16.5 14.8V10.2C16.5 10.0895 16.5895 10 16.7 10H20.0279ZM21.3074 7.90017C21.3435 7.96181 21.4095 8 21.481 8H23.9915C24.1645 8 24.2545 7.79661 24.1344 7.67215C22.7959 6.28483 21.1269 5.21847 19.2552 4.6009C19.0591 4.53619 18.9183 4.77932 19.0611 4.92851C19.9278 5.83408 20.6804 6.83153 21.3074 7.90017ZM16.8246 5.55173C16.6979 5.43836 16.5 5.52978 16.5 5.69982V7.8C16.5 7.91046 16.5895 8 16.7 8H18.6109C18.7725 8 18.8667 7.81872 18.7707 7.6887C18.2015 6.91763 17.5505 6.20115 16.8246 5.55173ZM14.5 5.69979C14.5 5.52976 14.3021 5.43833 14.1754 5.5517C13.4495 6.20113 12.7985 6.91762 12.2293 7.6887C12.1333 7.81872 12.2275 8 12.3891 8H14.3C14.4105 8 14.5 7.91046 14.5 7.8V5.69979ZM16.7 24C16.5895 24 16.5 24.0895 16.5 24.2V26.3003C16.5 26.4703 16.6979 26.5617 16.8246 26.4483C17.5505 25.7989 18.2016 25.0824 18.7708 24.3113C18.8667 24.1813 18.7725 24 18.6109 24H16.7ZM5.05162 21.9C5.08679 21.9621 5.15284 22 5.22419 22H8.36636C8.50817 22 8.60505 21.8564 8.55434 21.724C8.00357 20.2853 7.65927 18.7599 7.54357 17.1876C7.53581 17.0822 7.44851 17 7.34285 17H3.75845C3.64149 17 3.54934 17.1 3.56109 17.2164C3.73161 18.9049 4.25321 20.4909 5.05162 21.9ZM11.7588 27.4037C11.955 27.4682 12.0955 27.2249 11.9525 27.0759C11.0824 26.1691 10.327 25.1701 9.69775 24.0997C9.66156 24.0381 9.59565 24 9.52424 24H7.00846C6.83553 24 6.74552 24.2034 6.8656 24.3278C8.20741 25.7186 9.88141 26.7868 11.7588 27.4037ZM9.519 8C9.59047 8 9.65643 7.96181 9.69259 7.90017C10.3196 6.83153 11.0722 5.8341 11.9388 4.92853C12.0816 4.77934 11.9409 4.53621 11.7448 4.60092C9.87306 5.2185 8.20406 6.28485 6.86559 7.67215C6.74552 7.79661 6.83553 8 7.00846 8H9.519Z"
        fill="url(#paint10_radial_18_4808)" />
    <path fill-rule="evenodd" clip-rule="evenodd"
        d="M1.5 16C1.5 23.72 7.78 30 15.5 30C23.22 30 29.5 23.72 29.5 16C29.5 8.28 23.22 2 15.5 2C7.78 2 1.5 8.28 1.5 16ZM3.75845 15C3.64149 15 3.54934 14.9 3.56109 14.7836C3.73161 13.0951 4.2532 11.5091 5.05162 10.1C5.08679 10.0379 5.15284 10 5.22419 10H8.36354C8.50529 10 8.60216 10.1434 8.55158 10.2758C8.00219 11.7142 7.65879 13.2395 7.54342 14.8124C7.53569 14.9178 7.44839 15 7.34271 15H3.75845ZM9.74991 15C9.6339 15 9.54209 14.9016 9.55204 14.786C9.69291 13.1487 10.1171 11.5718 10.7919 10.1146C10.8244 10.0444 10.8949 10 10.9721 10H14.3C14.4105 10 14.5 10.0895 14.5 10.2V14.8C14.5 14.9105 14.4105 15 14.3 15H9.74991ZM14.5 17.2C14.5 17.0895 14.4105 17 14.3 17H9.74991C9.63389 17 9.54209 17.0984 9.55203 17.214C9.69291 18.8513 10.1171 20.4282 10.7919 21.8854C10.8244 21.9556 10.8949 22 10.9721 22H14.3C14.4105 22 14.5 21.9105 14.5 21.8V17.2ZM14.5 24.2C14.5 24.0895 14.4105 24 14.3 24H12.3891C12.2275 24 12.1333 24.1813 12.2293 24.3113C12.7984 25.0824 13.4495 25.7989 14.1754 26.4483C14.3021 26.5617 14.5 26.4703 14.5 26.3002V24.2ZM19.0553 27.0732C18.9122 27.2223 19.0528 27.4657 19.2491 27.4011C21.1233 26.7838 22.7945 25.7167 24.1344 24.3278C24.2545 24.2034 24.1645 24 23.9915 24H21.4802C21.4087 24 21.3428 24.0382 21.3066 24.0998C20.6784 25.1696 19.9241 26.1678 19.0553 27.0732ZM22.4483 21.7241C22.3977 21.8565 22.4945 22 22.6363 22L25.7459 22.0004C25.8351 22.0004 25.9177 21.953 25.9615 21.8753C26.7521 20.4723 27.2694 18.8951 27.4389 17.2164C27.4507 17.1 27.3585 17 27.2416 17H23.6573C23.5516 17 23.4643 17.0822 23.4566 17.1876C23.3412 18.7606 22.9978 20.2861 22.4483 21.7241ZM21.2501 17C21.3661 17 21.4579 17.0984 21.448 17.214C21.3071 18.8513 20.8829 20.4282 20.2081 21.8854C20.1756 21.9556 20.1052 22 20.0279 22H16.7C16.5895 22 16.5 21.9105 16.5 21.8V17.2C16.5 17.0895 16.5895 17 16.7 17H21.2501ZM23.4566 14.8124C23.4643 14.9178 23.5516 15 23.6573 15H27.2416C27.3585 15 27.4507 14.9 27.4389 14.7836C27.2694 13.1049 26.7521 11.5277 25.9615 10.1247C25.9177 10.047 25.8351 9.99961 25.7459 9.99962L22.6364 10C22.4947 10 22.3978 10.1434 22.4484 10.2758C22.9978 11.7142 23.3412 13.2395 23.4566 14.8124ZM20.0279 10C20.1051 10 20.1756 10.0444 20.208 10.1146C20.8829 11.5718 21.3071 13.1487 21.448 14.786C21.4579 14.9016 21.3661 15 21.2501 15H16.7C16.5895 15 16.5 14.9105 16.5 14.8V10.2C16.5 10.0895 16.5895 10 16.7 10H20.0279ZM21.3074 7.90017C21.3435 7.96181 21.4095 8 21.481 8H23.9915C24.1645 8 24.2545 7.79661 24.1344 7.67215C22.7959 6.28483 21.1269 5.21847 19.2552 4.6009C19.0591 4.53619 18.9183 4.77932 19.0611 4.92851C19.9278 5.83408 20.6804 6.83153 21.3074 7.90017ZM16.8246 5.55173C16.6979 5.43836 16.5 5.52978 16.5 5.69982V7.8C16.5 7.91046 16.5895 8 16.7 8H18.6109C18.7725 8 18.8667 7.81872 18.7707 7.6887C18.2015 6.91763 17.5505 6.20115 16.8246 5.55173ZM14.5 5.69979C14.5 5.52976 14.3021 5.43833 14.1754 5.5517C13.4495 6.20113 12.7985 6.91762 12.2293 7.6887C12.1333 7.81872 12.2275 8 12.3891 8H14.3C14.4105 8 14.5 7.91046 14.5 7.8V5.69979ZM16.7 24C16.5895 24 16.5 24.0895 16.5 24.2V26.3003C16.5 26.4703 16.6979 26.5617 16.8246 26.4483C17.5505 25.7989 18.2016 25.0824 18.7708 24.3113C18.8667 24.1813 18.7725 24 18.6109 24H16.7ZM5.05162 21.9C5.08679 21.9621 5.15284 22 5.22419 22H8.36636C8.50817 22 8.60505 21.8564 8.55434 21.724C8.00357 20.2853 7.65927 18.7599 7.54357 17.1876C7.53581 17.0822 7.44851 17 7.34285 17H3.75845C3.64149 17 3.54934 17.1 3.56109 17.2164C3.73161 18.9049 4.25321 20.4909 5.05162 21.9ZM11.7588 27.4037C11.955 27.4682 12.0955 27.2249 11.9525 27.0759C11.0824 26.1691 10.327 25.1701 9.69775 24.0997C9.66156 24.0381 9.59565 24 9.52424 24H7.00846C6.83553 24 6.74552 24.2034 6.8656 24.3278C8.20741 25.7186 9.88141 26.7868 11.7588 27.4037ZM9.519 8C9.59047 8 9.65643 7.96181 9.69259 7.90017C10.3196 6.83153 11.0722 5.8341 11.9388 4.92853C12.0816 4.77934 11.9409 4.53621 11.7448 4.60092C9.87306 5.2185 8.20406 6.28485 6.86559 7.67215C6.74552 7.79661 6.83553 8 7.00846 8H9.519Z"
        fill="url(#paint11_radial_18_4808)" />
    <path fill-rule="evenodd" clip-rule="evenodd"
        d="M1.5 16C1.5 23.72 7.78 30 15.5 30C23.22 30 29.5 23.72 29.5 16C29.5 8.28 23.22 2 15.5 2C7.78 2 1.5 8.28 1.5 16ZM3.75845 15C3.64149 15 3.54934 14.9 3.56109 14.7836C3.73161 13.0951 4.2532 11.5091 5.05162 10.1C5.08679 10.0379 5.15284 10 5.22419 10H8.36354C8.50529 10 8.60216 10.1434 8.55158 10.2758C8.00219 11.7142 7.65879 13.2395 7.54342 14.8124C7.53569 14.9178 7.44839 15 7.34271 15H3.75845ZM9.74991 15C9.6339 15 9.54209 14.9016 9.55204 14.786C9.69291 13.1487 10.1171 11.5718 10.7919 10.1146C10.8244 10.0444 10.8949 10 10.9721 10H14.3C14.4105 10 14.5 10.0895 14.5 10.2V14.8C14.5 14.9105 14.4105 15 14.3 15H9.74991ZM14.5 17.2C14.5 17.0895 14.4105 17 14.3 17H9.74991C9.63389 17 9.54209 17.0984 9.55203 17.214C9.69291 18.8513 10.1171 20.4282 10.7919 21.8854C10.8244 21.9556 10.8949 22 10.9721 22H14.3C14.4105 22 14.5 21.9105 14.5 21.8V17.2ZM14.5 24.2C14.5 24.0895 14.4105 24 14.3 24H12.3891C12.2275 24 12.1333 24.1813 12.2293 24.3113C12.7984 25.0824 13.4495 25.7989 14.1754 26.4483C14.3021 26.5617 14.5 26.4703 14.5 26.3002V24.2ZM19.0553 27.0732C18.9122 27.2223 19.0528 27.4657 19.2491 27.4011C21.1233 26.7838 22.7945 25.7167 24.1344 24.3278C24.2545 24.2034 24.1645 24 23.9915 24H21.4802C21.4087 24 21.3428 24.0382 21.3066 24.0998C20.6784 25.1696 19.9241 26.1678 19.0553 27.0732ZM22.4483 21.7241C22.3977 21.8565 22.4945 22 22.6363 22L25.7459 22.0004C25.8351 22.0004 25.9177 21.953 25.9615 21.8753C26.7521 20.4723 27.2694 18.8951 27.4389 17.2164C27.4507 17.1 27.3585 17 27.2416 17H23.6573C23.5516 17 23.4643 17.0822 23.4566 17.1876C23.3412 18.7606 22.9978 20.2861 22.4483 21.7241ZM21.2501 17C21.3661 17 21.4579 17.0984 21.448 17.214C21.3071 18.8513 20.8829 20.4282 20.2081 21.8854C20.1756 21.9556 20.1052 22 20.0279 22H16.7C16.5895 22 16.5 21.9105 16.5 21.8V17.2C16.5 17.0895 16.5895 17 16.7 17H21.2501ZM23.4566 14.8124C23.4643 14.9178 23.5516 15 23.6573 15H27.2416C27.3585 15 27.4507 14.9 27.4389 14.7836C27.2694 13.1049 26.7521 11.5277 25.9615 10.1247C25.9177 10.047 25.8351 9.99961 25.7459 9.99962L22.6364 10C22.4947 10 22.3978 10.1434 22.4484 10.2758C22.9978 11.7142 23.3412 13.2395 23.4566 14.8124ZM20.0279 10C20.1051 10 20.1756 10.0444 20.208 10.1146C20.8829 11.5718 21.3071 13.1487 21.448 14.786C21.4579 14.9016 21.3661 15 21.2501 15H16.7C16.5895 15 16.5 14.9105 16.5 14.8V10.2C16.5 10.0895 16.5895 10 16.7 10H20.0279ZM21.3074 7.90017C21.3435 7.96181 21.4095 8 21.481 8H23.9915C24.1645 8 24.2545 7.79661 24.1344 7.67215C22.7959 6.28483 21.1269 5.21847 19.2552 4.6009C19.0591 4.53619 18.9183 4.77932 19.0611 4.92851C19.9278 5.83408 20.6804 6.83153 21.3074 7.90017ZM16.8246 5.55173C16.6979 5.43836 16.5 5.52978 16.5 5.69982V7.8C16.5 7.91046 16.5895 8 16.7 8H18.6109C18.7725 8 18.8667 7.81872 18.7707 7.6887C18.2015 6.91763 17.5505 6.20115 16.8246 5.55173ZM14.5 5.69979C14.5 5.52976 14.3021 5.43833 14.1754 5.5517C13.4495 6.20113 12.7985 6.91762 12.2293 7.6887C12.1333 7.81872 12.2275 8 12.3891 8H14.3C14.4105 8 14.5 7.91046 14.5 7.8V5.69979ZM16.7 24C16.5895 24 16.5 24.0895 16.5 24.2V26.3003C16.5 26.4703 16.6979 26.5617 16.8246 26.4483C17.5505 25.7989 18.2016 25.0824 18.7708 24.3113C18.8667 24.1813 18.7725 24 18.6109 24H16.7ZM5.05162 21.9C5.08679 21.9621 5.15284 22 5.22419 22H8.36636C8.50817 22 8.60505 21.8564 8.55434 21.724C8.00357 20.2853 7.65927 18.7599 7.54357 17.1876C7.53581 17.0822 7.44851 17 7.34285 17H3.75845C3.64149 17 3.54934 17.1 3.56109 17.2164C3.73161 18.9049 4.25321 20.4909 5.05162 21.9ZM11.7588 27.4037C11.955 27.4682 12.0955 27.2249 11.9525 27.0759C11.0824 26.1691 10.327 25.1701 9.69775 24.0997C9.66156 24.0381 9.59565 24 9.52424 24H7.00846C6.83553 24 6.74552 24.2034 6.8656 24.3278C8.20741 25.7186 9.88141 26.7868 11.7588 27.4037ZM9.519 8C9.59047 8 9.65643 7.96181 9.69259 7.90017C10.3196 6.83153 11.0722 5.8341 11.9388 4.92853C12.0816 4.77934 11.9409 4.53621 11.7448 4.60092C9.87306 5.2185 8.20406 6.28485 6.86559 7.67215C6.74552 7.79661 6.83553 8 7.00846 8H9.519Z"
        fill="url(#paint12_radial_18_4808)" />
    <path fill-rule="evenodd" clip-rule="evenodd"
        d="M1.5 16C1.5 23.72 7.78 30 15.5 30C23.22 30 29.5 23.72 29.5 16C29.5 8.28 23.22 2 15.5 2C7.78 2 1.5 8.28 1.5 16ZM3.75845 15C3.64149 15 3.54934 14.9 3.56109 14.7836C3.73161 13.0951 4.2532 11.5091 5.05162 10.1C5.08679 10.0379 5.15284 10 5.22419 10H8.36354C8.50529 10 8.60216 10.1434 8.55158 10.2758C8.00219 11.7142 7.65879 13.2395 7.54342 14.8124C7.53569 14.9178 7.44839 15 7.34271 15H3.75845ZM9.74991 15C9.6339 15 9.54209 14.9016 9.55204 14.786C9.69291 13.1487 10.1171 11.5718 10.7919 10.1146C10.8244 10.0444 10.8949 10 10.9721 10H14.3C14.4105 10 14.5 10.0895 14.5 10.2V14.8C14.5 14.9105 14.4105 15 14.3 15H9.74991ZM14.5 17.2C14.5 17.0895 14.4105 17 14.3 17H9.74991C9.63389 17 9.54209 17.0984 9.55203 17.214C9.69291 18.8513 10.1171 20.4282 10.7919 21.8854C10.8244 21.9556 10.8949 22 10.9721 22H14.3C14.4105 22 14.5 21.9105 14.5 21.8V17.2ZM14.5 24.2C14.5 24.0895 14.4105 24 14.3 24H12.3891C12.2275 24 12.1333 24.1813 12.2293 24.3113C12.7984 25.0824 13.4495 25.7989 14.1754 26.4483C14.3021 26.5617 14.5 26.4703 14.5 26.3002V24.2ZM19.0553 27.0732C18.9122 27.2223 19.0528 27.4657 19.2491 27.4011C21.1233 26.7838 22.7945 25.7167 24.1344 24.3278C24.2545 24.2034 24.1645 24 23.9915 24H21.4802C21.4087 24 21.3428 24.0382 21.3066 24.0998C20.6784 25.1696 19.9241 26.1678 19.0553 27.0732ZM22.4483 21.7241C22.3977 21.8565 22.4945 22 22.6363 22L25.7459 22.0004C25.8351 22.0004 25.9177 21.953 25.9615 21.8753C26.7521 20.4723 27.2694 18.8951 27.4389 17.2164C27.4507 17.1 27.3585 17 27.2416 17H23.6573C23.5516 17 23.4643 17.0822 23.4566 17.1876C23.3412 18.7606 22.9978 20.2861 22.4483 21.7241ZM21.2501 17C21.3661 17 21.4579 17.0984 21.448 17.214C21.3071 18.8513 20.8829 20.4282 20.2081 21.8854C20.1756 21.9556 20.1052 22 20.0279 22H16.7C16.5895 22 16.5 21.9105 16.5 21.8V17.2C16.5 17.0895 16.5895 17 16.7 17H21.2501ZM23.4566 14.8124C23.4643 14.9178 23.5516 15 23.6573 15H27.2416C27.3585 15 27.4507 14.9 27.4389 14.7836C27.2694 13.1049 26.7521 11.5277 25.9615 10.1247C25.9177 10.047 25.8351 9.99961 25.7459 9.99962L22.6364 10C22.4947 10 22.3978 10.1434 22.4484 10.2758C22.9978 11.7142 23.3412 13.2395 23.4566 14.8124ZM20.0279 10C20.1051 10 20.1756 10.0444 20.208 10.1146C20.8829 11.5718 21.3071 13.1487 21.448 14.786C21.4579 14.9016 21.3661 15 21.2501 15H16.7C16.5895 15 16.5 14.9105 16.5 14.8V10.2C16.5 10.0895 16.5895 10 16.7 10H20.0279ZM21.3074 7.90017C21.3435 7.96181 21.4095 8 21.481 8H23.9915C24.1645 8 24.2545 7.79661 24.1344 7.67215C22.7959 6.28483 21.1269 5.21847 19.2552 4.6009C19.0591 4.53619 18.9183 4.77932 19.0611 4.92851C19.9278 5.83408 20.6804 6.83153 21.3074 7.90017ZM16.8246 5.55173C16.6979 5.43836 16.5 5.52978 16.5 5.69982V7.8C16.5 7.91046 16.5895 8 16.7 8H18.6109C18.7725 8 18.8667 7.81872 18.7707 7.6887C18.2015 6.91763 17.5505 6.20115 16.8246 5.55173ZM14.5 5.69979C14.5 5.52976 14.3021 5.43833 14.1754 5.5517C13.4495 6.20113 12.7985 6.91762 12.2293 7.6887C12.1333 7.81872 12.2275 8 12.3891 8H14.3C14.4105 8 14.5 7.91046 14.5 7.8V5.69979ZM16.7 24C16.5895 24 16.5 24.0895 16.5 24.2V26.3003C16.5 26.4703 16.6979 26.5617 16.8246 26.4483C17.5505 25.7989 18.2016 25.0824 18.7708 24.3113C18.8667 24.1813 18.7725 24 18.6109 24H16.7ZM5.05162 21.9C5.08679 21.9621 5.15284 22 5.22419 22H8.36636C8.50817 22 8.60505 21.8564 8.55434 21.724C8.00357 20.2853 7.65927 18.7599 7.54357 17.1876C7.53581 17.0822 7.44851 17 7.34285 17H3.75845C3.64149 17 3.54934 17.1 3.56109 17.2164C3.73161 18.9049 4.25321 20.4909 5.05162 21.9ZM11.7588 27.4037C11.955 27.4682 12.0955 27.2249 11.9525 27.0759C11.0824 26.1691 10.327 25.1701 9.69775 24.0997C9.66156 24.0381 9.59565 24 9.52424 24H7.00846C6.83553 24 6.74552 24.2034 6.8656 24.3278C8.20741 25.7186 9.88141 26.7868 11.7588 27.4037ZM9.519 8C9.59047 8 9.65643 7.96181 9.69259 7.90017C10.3196 6.83153 11.0722 5.8341 11.9388 4.92853C12.0816 4.77934 11.9409 4.53621 11.7448 4.60092C9.87306 5.2185 8.20406 6.28485 6.86559 7.67215C6.74552 7.79661 6.83553 8 7.00846 8H9.519Z"
        fill="url(#paint13_radial_18_4808)" />
    <path fill-rule="evenodd" clip-rule="evenodd"
        d="M1.5 16C1.5 23.72 7.78 30 15.5 30C23.22 30 29.5 23.72 29.5 16C29.5 8.28 23.22 2 15.5 2C7.78 2 1.5 8.28 1.5 16ZM3.75845 15C3.64149 15 3.54934 14.9 3.56109 14.7836C3.73161 13.0951 4.2532 11.5091 5.05162 10.1C5.08679 10.0379 5.15284 10 5.22419 10H8.36354C8.50529 10 8.60216 10.1434 8.55158 10.2758C8.00219 11.7142 7.65879 13.2395 7.54342 14.8124C7.53569 14.9178 7.44839 15 7.34271 15H3.75845ZM9.74991 15C9.6339 15 9.54209 14.9016 9.55204 14.786C9.69291 13.1487 10.1171 11.5718 10.7919 10.1146C10.8244 10.0444 10.8949 10 10.9721 10H14.3C14.4105 10 14.5 10.0895 14.5 10.2V14.8C14.5 14.9105 14.4105 15 14.3 15H9.74991ZM14.5 17.2C14.5 17.0895 14.4105 17 14.3 17H9.74991C9.63389 17 9.54209 17.0984 9.55203 17.214C9.69291 18.8513 10.1171 20.4282 10.7919 21.8854C10.8244 21.9556 10.8949 22 10.9721 22H14.3C14.4105 22 14.5 21.9105 14.5 21.8V17.2ZM14.5 24.2C14.5 24.0895 14.4105 24 14.3 24H12.3891C12.2275 24 12.1333 24.1813 12.2293 24.3113C12.7984 25.0824 13.4495 25.7989 14.1754 26.4483C14.3021 26.5617 14.5 26.4703 14.5 26.3002V24.2ZM19.0553 27.0732C18.9122 27.2223 19.0528 27.4657 19.2491 27.4011C21.1233 26.7838 22.7945 25.7167 24.1344 24.3278C24.2545 24.2034 24.1645 24 23.9915 24H21.4802C21.4087 24 21.3428 24.0382 21.3066 24.0998C20.6784 25.1696 19.9241 26.1678 19.0553 27.0732ZM22.4483 21.7241C22.3977 21.8565 22.4945 22 22.6363 22L25.7459 22.0004C25.8351 22.0004 25.9177 21.953 25.9615 21.8753C26.7521 20.4723 27.2694 18.8951 27.4389 17.2164C27.4507 17.1 27.3585 17 27.2416 17H23.6573C23.5516 17 23.4643 17.0822 23.4566 17.1876C23.3412 18.7606 22.9978 20.2861 22.4483 21.7241ZM21.2501 17C21.3661 17 21.4579 17.0984 21.448 17.214C21.3071 18.8513 20.8829 20.4282 20.2081 21.8854C20.1756 21.9556 20.1052 22 20.0279 22H16.7C16.5895 22 16.5 21.9105 16.5 21.8V17.2C16.5 17.0895 16.5895 17 16.7 17H21.2501ZM23.4566 14.8124C23.4643 14.9178 23.5516 15 23.6573 15H27.2416C27.3585 15 27.4507 14.9 27.4389 14.7836C27.2694 13.1049 26.7521 11.5277 25.9615 10.1247C25.9177 10.047 25.8351 9.99961 25.7459 9.99962L22.6364 10C22.4947 10 22.3978 10.1434 22.4484 10.2758C22.9978 11.7142 23.3412 13.2395 23.4566 14.8124ZM20.0279 10C20.1051 10 20.1756 10.0444 20.208 10.1146C20.8829 11.5718 21.3071 13.1487 21.448 14.786C21.4579 14.9016 21.3661 15 21.2501 15H16.7C16.5895 15 16.5 14.9105 16.5 14.8V10.2C16.5 10.0895 16.5895 10 16.7 10H20.0279ZM21.3074 7.90017C21.3435 7.96181 21.4095 8 21.481 8H23.9915C24.1645 8 24.2545 7.79661 24.1344 7.67215C22.7959 6.28483 21.1269 5.21847 19.2552 4.6009C19.0591 4.53619 18.9183 4.77932 19.0611 4.92851C19.9278 5.83408 20.6804 6.83153 21.3074 7.90017ZM16.8246 5.55173C16.6979 5.43836 16.5 5.52978 16.5 5.69982V7.8C16.5 7.91046 16.5895 8 16.7 8H18.6109C18.7725 8 18.8667 7.81872 18.7707 7.6887C18.2015 6.91763 17.5505 6.20115 16.8246 5.55173ZM14.5 5.69979C14.5 5.52976 14.3021 5.43833 14.1754 5.5517C13.4495 6.20113 12.7985 6.91762 12.2293 7.6887C12.1333 7.81872 12.2275 8 12.3891 8H14.3C14.4105 8 14.5 7.91046 14.5 7.8V5.69979ZM16.7 24C16.5895 24 16.5 24.0895 16.5 24.2V26.3003C16.5 26.4703 16.6979 26.5617 16.8246 26.4483C17.5505 25.7989 18.2016 25.0824 18.7708 24.3113C18.8667 24.1813 18.7725 24 18.6109 24H16.7ZM5.05162 21.9C5.08679 21.9621 5.15284 22 5.22419 22H8.36636C8.50817 22 8.60505 21.8564 8.55434 21.724C8.00357 20.2853 7.65927 18.7599 7.54357 17.1876C7.53581 17.0822 7.44851 17 7.34285 17H3.75845C3.64149 17 3.54934 17.1 3.56109 17.2164C3.73161 18.9049 4.25321 20.4909 5.05162 21.9ZM11.7588 27.4037C11.955 27.4682 12.0955 27.2249 11.9525 27.0759C11.0824 26.1691 10.327 25.1701 9.69775 24.0997C9.66156 24.0381 9.59565 24 9.52424 24H7.00846C6.83553 24 6.74552 24.2034 6.8656 24.3278C8.20741 25.7186 9.88141 26.7868 11.7588 27.4037ZM9.519 8C9.59047 8 9.65643 7.96181 9.69259 7.90017C10.3196 6.83153 11.0722 5.8341 11.9388 4.92853C12.0816 4.77934 11.9409 4.53621 11.7448 4.60092C9.87306 5.2185 8.20406 6.28485 6.86559 7.67215C6.74552 7.79661 6.83553 8 7.00846 8H9.519Z"
        fill="url(#paint14_radial_18_4808)" />
    <path fill-rule="evenodd" clip-rule="evenodd"
        d="M1.5 16C1.5 23.72 7.78 30 15.5 30C23.22 30 29.5 23.72 29.5 16C29.5 8.28 23.22 2 15.5 2C7.78 2 1.5 8.28 1.5 16ZM3.75845 15C3.64149 15 3.54934 14.9 3.56109 14.7836C3.73161 13.0951 4.2532 11.5091 5.05162 10.1C5.08679 10.0379 5.15284 10 5.22419 10H8.36354C8.50529 10 8.60216 10.1434 8.55158 10.2758C8.00219 11.7142 7.65879 13.2395 7.54342 14.8124C7.53569 14.9178 7.44839 15 7.34271 15H3.75845ZM9.74991 15C9.6339 15 9.54209 14.9016 9.55204 14.786C9.69291 13.1487 10.1171 11.5718 10.7919 10.1146C10.8244 10.0444 10.8949 10 10.9721 10H14.3C14.4105 10 14.5 10.0895 14.5 10.2V14.8C14.5 14.9105 14.4105 15 14.3 15H9.74991ZM14.5 17.2C14.5 17.0895 14.4105 17 14.3 17H9.74991C9.63389 17 9.54209 17.0984 9.55203 17.214C9.69291 18.8513 10.1171 20.4282 10.7919 21.8854C10.8244 21.9556 10.8949 22 10.9721 22H14.3C14.4105 22 14.5 21.9105 14.5 21.8V17.2ZM14.5 24.2C14.5 24.0895 14.4105 24 14.3 24H12.3891C12.2275 24 12.1333 24.1813 12.2293 24.3113C12.7984 25.0824 13.4495 25.7989 14.1754 26.4483C14.3021 26.5617 14.5 26.4703 14.5 26.3002V24.2ZM19.0553 27.0732C18.9122 27.2223 19.0528 27.4657 19.2491 27.4011C21.1233 26.7838 22.7945 25.7167 24.1344 24.3278C24.2545 24.2034 24.1645 24 23.9915 24H21.4802C21.4087 24 21.3428 24.0382 21.3066 24.0998C20.6784 25.1696 19.9241 26.1678 19.0553 27.0732ZM22.4483 21.7241C22.3977 21.8565 22.4945 22 22.6363 22L25.7459 22.0004C25.8351 22.0004 25.9177 21.953 25.9615 21.8753C26.7521 20.4723 27.2694 18.8951 27.4389 17.2164C27.4507 17.1 27.3585 17 27.2416 17H23.6573C23.5516 17 23.4643 17.0822 23.4566 17.1876C23.3412 18.7606 22.9978 20.2861 22.4483 21.7241ZM21.2501 17C21.3661 17 21.4579 17.0984 21.448 17.214C21.3071 18.8513 20.8829 20.4282 20.2081 21.8854C20.1756 21.9556 20.1052 22 20.0279 22H16.7C16.5895 22 16.5 21.9105 16.5 21.8V17.2C16.5 17.0895 16.5895 17 16.7 17H21.2501ZM23.4566 14.8124C23.4643 14.9178 23.5516 15 23.6573 15H27.2416C27.3585 15 27.4507 14.9 27.4389 14.7836C27.2694 13.1049 26.7521 11.5277 25.9615 10.1247C25.9177 10.047 25.8351 9.99961 25.7459 9.99962L22.6364 10C22.4947 10 22.3978 10.1434 22.4484 10.2758C22.9978 11.7142 23.3412 13.2395 23.4566 14.8124ZM20.0279 10C20.1051 10 20.1756 10.0444 20.208 10.1146C20.8829 11.5718 21.3071 13.1487 21.448 14.786C21.4579 14.9016 21.3661 15 21.2501 15H16.7C16.5895 15 16.5 14.9105 16.5 14.8V10.2C16.5 10.0895 16.5895 10 16.7 10H20.0279ZM21.3074 7.90017C21.3435 7.96181 21.4095 8 21.481 8H23.9915C24.1645 8 24.2545 7.79661 24.1344 7.67215C22.7959 6.28483 21.1269 5.21847 19.2552 4.6009C19.0591 4.53619 18.9183 4.77932 19.0611 4.92851C19.9278 5.83408 20.6804 6.83153 21.3074 7.90017ZM16.8246 5.55173C16.6979 5.43836 16.5 5.52978 16.5 5.69982V7.8C16.5 7.91046 16.5895 8 16.7 8H18.6109C18.7725 8 18.8667 7.81872 18.7707 7.6887C18.2015 6.91763 17.5505 6.20115 16.8246 5.55173ZM14.5 5.69979C14.5 5.52976 14.3021 5.43833 14.1754 5.5517C13.4495 6.20113 12.7985 6.91762 12.2293 7.6887C12.1333 7.81872 12.2275 8 12.3891 8H14.3C14.4105 8 14.5 7.91046 14.5 7.8V5.69979ZM16.7 24C16.5895 24 16.5 24.0895 16.5 24.2V26.3003C16.5 26.4703 16.6979 26.5617 16.8246 26.4483C17.5505 25.7989 18.2016 25.0824 18.7708 24.3113C18.8667 24.1813 18.7725 24 18.6109 24H16.7ZM5.05162 21.9C5.08679 21.9621 5.15284 22 5.22419 22H8.36636C8.50817 22 8.60505 21.8564 8.55434 21.724C8.00357 20.2853 7.65927 18.7599 7.54357 17.1876C7.53581 17.0822 7.44851 17 7.34285 17H3.75845C3.64149 17 3.54934 17.1 3.56109 17.2164C3.73161 18.9049 4.25321 20.4909 5.05162 21.9ZM11.7588 27.4037C11.955 27.4682 12.0955 27.2249 11.9525 27.0759C11.0824 26.1691 10.327 25.1701 9.69775 24.0997C9.66156 24.0381 9.59565 24 9.52424 24H7.00846C6.83553 24 6.74552 24.2034 6.8656 24.3278C8.20741 25.7186 9.88141 26.7868 11.7588 27.4037ZM9.519 8C9.59047 8 9.65643 7.96181 9.69259 7.90017C10.3196 6.83153 11.0722 5.8341 11.9388 4.92853C12.0816 4.77934 11.9409 4.53621 11.7448 4.60092C9.87306 5.2185 8.20406 6.28485 6.86559 7.67215C6.74552 7.79661 6.83553 8 7.00846 8H9.519Z"
        fill="url(#paint15_radial_18_4808)" />
    <path fill-rule="evenodd" clip-rule="evenodd"
        d="M1.5 16C1.5 23.72 7.78 30 15.5 30C23.22 30 29.5 23.72 29.5 16C29.5 8.28 23.22 2 15.5 2C7.78 2 1.5 8.28 1.5 16ZM3.75845 15C3.64149 15 3.54934 14.9 3.56109 14.7836C3.73161 13.0951 4.2532 11.5091 5.05162 10.1C5.08679 10.0379 5.15284 10 5.22419 10H8.36354C8.50529 10 8.60216 10.1434 8.55158 10.2758C8.00219 11.7142 7.65879 13.2395 7.54342 14.8124C7.53569 14.9178 7.44839 15 7.34271 15H3.75845ZM9.74991 15C9.6339 15 9.54209 14.9016 9.55204 14.786C9.69291 13.1487 10.1171 11.5718 10.7919 10.1146C10.8244 10.0444 10.8949 10 10.9721 10H14.3C14.4105 10 14.5 10.0895 14.5 10.2V14.8C14.5 14.9105 14.4105 15 14.3 15H9.74991ZM14.5 17.2C14.5 17.0895 14.4105 17 14.3 17H9.74991C9.63389 17 9.54209 17.0984 9.55203 17.214C9.69291 18.8513 10.1171 20.4282 10.7919 21.8854C10.8244 21.9556 10.8949 22 10.9721 22H14.3C14.4105 22 14.5 21.9105 14.5 21.8V17.2ZM14.5 24.2C14.5 24.0895 14.4105 24 14.3 24H12.3891C12.2275 24 12.1333 24.1813 12.2293 24.3113C12.7984 25.0824 13.4495 25.7989 14.1754 26.4483C14.3021 26.5617 14.5 26.4703 14.5 26.3002V24.2ZM19.0553 27.0732C18.9122 27.2223 19.0528 27.4657 19.2491 27.4011C21.1233 26.7838 22.7945 25.7167 24.1344 24.3278C24.2545 24.2034 24.1645 24 23.9915 24H21.4802C21.4087 24 21.3428 24.0382 21.3066 24.0998C20.6784 25.1696 19.9241 26.1678 19.0553 27.0732ZM22.4483 21.7241C22.3977 21.8565 22.4945 22 22.6363 22L25.7459 22.0004C25.8351 22.0004 25.9177 21.953 25.9615 21.8753C26.7521 20.4723 27.2694 18.8951 27.4389 17.2164C27.4507 17.1 27.3585 17 27.2416 17H23.6573C23.5516 17 23.4643 17.0822 23.4566 17.1876C23.3412 18.7606 22.9978 20.2861 22.4483 21.7241ZM21.2501 17C21.3661 17 21.4579 17.0984 21.448 17.214C21.3071 18.8513 20.8829 20.4282 20.2081 21.8854C20.1756 21.9556 20.1052 22 20.0279 22H16.7C16.5895 22 16.5 21.9105 16.5 21.8V17.2C16.5 17.0895 16.5895 17 16.7 17H21.2501ZM23.4566 14.8124C23.4643 14.9178 23.5516 15 23.6573 15H27.2416C27.3585 15 27.4507 14.9 27.4389 14.7836C27.2694 13.1049 26.7521 11.5277 25.9615 10.1247C25.9177 10.047 25.8351 9.99961 25.7459 9.99962L22.6364 10C22.4947 10 22.3978 10.1434 22.4484 10.2758C22.9978 11.7142 23.3412 13.2395 23.4566 14.8124ZM20.0279 10C20.1051 10 20.1756 10.0444 20.208 10.1146C20.8829 11.5718 21.3071 13.1487 21.448 14.786C21.4579 14.9016 21.3661 15 21.2501 15H16.7C16.5895 15 16.5 14.9105 16.5 14.8V10.2C16.5 10.0895 16.5895 10 16.7 10H20.0279ZM21.3074 7.90017C21.3435 7.96181 21.4095 8 21.481 8H23.9915C24.1645 8 24.2545 7.79661 24.1344 7.67215C22.7959 6.28483 21.1269 5.21847 19.2552 4.6009C19.0591 4.53619 18.9183 4.77932 19.0611 4.92851C19.9278 5.83408 20.6804 6.83153 21.3074 7.90017ZM16.8246 5.55173C16.6979 5.43836 16.5 5.52978 16.5 5.69982V7.8C16.5 7.91046 16.5895 8 16.7 8H18.6109C18.7725 8 18.8667 7.81872 18.7707 7.6887C18.2015 6.91763 17.5505 6.20115 16.8246 5.55173ZM14.5 5.69979C14.5 5.52976 14.3021 5.43833 14.1754 5.5517C13.4495 6.20113 12.7985 6.91762 12.2293 7.6887C12.1333 7.81872 12.2275 8 12.3891 8H14.3C14.4105 8 14.5 7.91046 14.5 7.8V5.69979ZM16.7 24C16.5895 24 16.5 24.0895 16.5 24.2V26.3003C16.5 26.4703 16.6979 26.5617 16.8246 26.4483C17.5505 25.7989 18.2016 25.0824 18.7708 24.3113C18.8667 24.1813 18.7725 24 18.6109 24H16.7ZM5.05162 21.9C5.08679 21.9621 5.15284 22 5.22419 22H8.36636C8.50817 22 8.60505 21.8564 8.55434 21.724C8.00357 20.2853 7.65927 18.7599 7.54357 17.1876C7.53581 17.0822 7.44851 17 7.34285 17H3.75845C3.64149 17 3.54934 17.1 3.56109 17.2164C3.73161 18.9049 4.25321 20.4909 5.05162 21.9ZM11.7588 27.4037C11.955 27.4682 12.0955 27.2249 11.9525 27.0759C11.0824 26.1691 10.327 25.1701 9.69775 24.0997C9.66156 24.0381 9.59565 24 9.52424 24H7.00846C6.83553 24 6.74552 24.2034 6.8656 24.3278C8.20741 25.7186 9.88141 26.7868 11.7588 27.4037ZM9.519 8C9.59047 8 9.65643 7.96181 9.69259 7.90017C10.3196 6.83153 11.0722 5.8341 11.9388 4.92853C12.0816 4.77934 11.9409 4.53621 11.7448 4.60092C9.87306 5.2185 8.20406 6.28485 6.86559 7.67215C6.74552 7.79661 6.83553 8 7.00846 8H9.519Z"
        fill="url(#paint16_radial_18_4808)" />
    <path fill-rule="evenodd" clip-rule="evenodd"
        d="M1.5 16C1.5 23.72 7.78 30 15.5 30C23.22 30 29.5 23.72 29.5 16C29.5 8.28 23.22 2 15.5 2C7.78 2 1.5 8.28 1.5 16ZM3.75845 15C3.64149 15 3.54934 14.9 3.56109 14.7836C3.73161 13.0951 4.2532 11.5091 5.05162 10.1C5.08679 10.0379 5.15284 10 5.22419 10H8.36354C8.50529 10 8.60216 10.1434 8.55158 10.2758C8.00219 11.7142 7.65879 13.2395 7.54342 14.8124C7.53569 14.9178 7.44839 15 7.34271 15H3.75845ZM9.74991 15C9.6339 15 9.54209 14.9016 9.55204 14.786C9.69291 13.1487 10.1171 11.5718 10.7919 10.1146C10.8244 10.0444 10.8949 10 10.9721 10H14.3C14.4105 10 14.5 10.0895 14.5 10.2V14.8C14.5 14.9105 14.4105 15 14.3 15H9.74991ZM14.5 17.2C14.5 17.0895 14.4105 17 14.3 17H9.74991C9.63389 17 9.54209 17.0984 9.55203 17.214C9.69291 18.8513 10.1171 20.4282 10.7919 21.8854C10.8244 21.9556 10.8949 22 10.9721 22H14.3C14.4105 22 14.5 21.9105 14.5 21.8V17.2ZM14.5 24.2C14.5 24.0895 14.4105 24 14.3 24H12.3891C12.2275 24 12.1333 24.1813 12.2293 24.3113C12.7984 25.0824 13.4495 25.7989 14.1754 26.4483C14.3021 26.5617 14.5 26.4703 14.5 26.3002V24.2ZM19.0553 27.0732C18.9122 27.2223 19.0528 27.4657 19.2491 27.4011C21.1233 26.7838 22.7945 25.7167 24.1344 24.3278C24.2545 24.2034 24.1645 24 23.9915 24H21.4802C21.4087 24 21.3428 24.0382 21.3066 24.0998C20.6784 25.1696 19.9241 26.1678 19.0553 27.0732ZM22.4483 21.7241C22.3977 21.8565 22.4945 22 22.6363 22L25.7459 22.0004C25.8351 22.0004 25.9177 21.953 25.9615 21.8753C26.7521 20.4723 27.2694 18.8951 27.4389 17.2164C27.4507 17.1 27.3585 17 27.2416 17H23.6573C23.5516 17 23.4643 17.0822 23.4566 17.1876C23.3412 18.7606 22.9978 20.2861 22.4483 21.7241ZM21.2501 17C21.3661 17 21.4579 17.0984 21.448 17.214C21.3071 18.8513 20.8829 20.4282 20.2081 21.8854C20.1756 21.9556 20.1052 22 20.0279 22H16.7C16.5895 22 16.5 21.9105 16.5 21.8V17.2C16.5 17.0895 16.5895 17 16.7 17H21.2501ZM23.4566 14.8124C23.4643 14.9178 23.5516 15 23.6573 15H27.2416C27.3585 15 27.4507 14.9 27.4389 14.7836C27.2694 13.1049 26.7521 11.5277 25.9615 10.1247C25.9177 10.047 25.8351 9.99961 25.7459 9.99962L22.6364 10C22.4947 10 22.3978 10.1434 22.4484 10.2758C22.9978 11.7142 23.3412 13.2395 23.4566 14.8124ZM20.0279 10C20.1051 10 20.1756 10.0444 20.208 10.1146C20.8829 11.5718 21.3071 13.1487 21.448 14.786C21.4579 14.9016 21.3661 15 21.2501 15H16.7C16.5895 15 16.5 14.9105 16.5 14.8V10.2C16.5 10.0895 16.5895 10 16.7 10H20.0279ZM21.3074 7.90017C21.3435 7.96181 21.4095 8 21.481 8H23.9915C24.1645 8 24.2545 7.79661 24.1344 7.67215C22.7959 6.28483 21.1269 5.21847 19.2552 4.6009C19.0591 4.53619 18.9183 4.77932 19.0611 4.92851C19.9278 5.83408 20.6804 6.83153 21.3074 7.90017ZM16.8246 5.55173C16.6979 5.43836 16.5 5.52978 16.5 5.69982V7.8C16.5 7.91046 16.5895 8 16.7 8H18.6109C18.7725 8 18.8667 7.81872 18.7707 7.6887C18.2015 6.91763 17.5505 6.20115 16.8246 5.55173ZM14.5 5.69979C14.5 5.52976 14.3021 5.43833 14.1754 5.5517C13.4495 6.20113 12.7985 6.91762 12.2293 7.6887C12.1333 7.81872 12.2275 8 12.3891 8H14.3C14.4105 8 14.5 7.91046 14.5 7.8V5.69979ZM16.7 24C16.5895 24 16.5 24.0895 16.5 24.2V26.3003C16.5 26.4703 16.6979 26.5617 16.8246 26.4483C17.5505 25.7989 18.2016 25.0824 18.7708 24.3113C18.8667 24.1813 18.7725 24 18.6109 24H16.7ZM5.05162 21.9C5.08679 21.9621 5.15284 22 5.22419 22H8.36636C8.50817 22 8.60505 21.8564 8.55434 21.724C8.00357 20.2853 7.65927 18.7599 7.54357 17.1876C7.53581 17.0822 7.44851 17 7.34285 17H3.75845C3.64149 17 3.54934 17.1 3.56109 17.2164C3.73161 18.9049 4.25321 20.4909 5.05162 21.9ZM11.7588 27.4037C11.955 27.4682 12.0955 27.2249 11.9525 27.0759C11.0824 26.1691 10.327 25.1701 9.69775 24.0997C9.66156 24.0381 9.59565 24 9.52424 24H7.00846C6.83553 24 6.74552 24.2034 6.8656 24.3278C8.20741 25.7186 9.88141 26.7868 11.7588 27.4037ZM9.519 8C9.59047 8 9.65643 7.96181 9.69259 7.90017C10.3196 6.83153 11.0722 5.8341 11.9388 4.92853C12.0816 4.77934 11.9409 4.53621 11.7448 4.60092C9.87306 5.2185 8.20406 6.28485 6.86559 7.67215C6.74552 7.79661 6.83553 8 7.00846 8H9.519Z"
        fill="url(#paint17_radial_18_4808)" />
    <path fill-rule="evenodd" clip-rule="evenodd"
        d="M1.5 16C1.5 23.72 7.78 30 15.5 30C23.22 30 29.5 23.72 29.5 16C29.5 8.28 23.22 2 15.5 2C7.78 2 1.5 8.28 1.5 16ZM3.75845 15C3.64149 15 3.54934 14.9 3.56109 14.7836C3.73161 13.0951 4.2532 11.5091 5.05162 10.1C5.08679 10.0379 5.15284 10 5.22419 10H8.36354C8.50529 10 8.60216 10.1434 8.55158 10.2758C8.00219 11.7142 7.65879 13.2395 7.54342 14.8124C7.53569 14.9178 7.44839 15 7.34271 15H3.75845ZM9.74991 15C9.6339 15 9.54209 14.9016 9.55204 14.786C9.69291 13.1487 10.1171 11.5718 10.7919 10.1146C10.8244 10.0444 10.8949 10 10.9721 10H14.3C14.4105 10 14.5 10.0895 14.5 10.2V14.8C14.5 14.9105 14.4105 15 14.3 15H9.74991ZM14.5 17.2C14.5 17.0895 14.4105 17 14.3 17H9.74991C9.63389 17 9.54209 17.0984 9.55203 17.214C9.69291 18.8513 10.1171 20.4282 10.7919 21.8854C10.8244 21.9556 10.8949 22 10.9721 22H14.3C14.4105 22 14.5 21.9105 14.5 21.8V17.2ZM14.5 24.2C14.5 24.0895 14.4105 24 14.3 24H12.3891C12.2275 24 12.1333 24.1813 12.2293 24.3113C12.7984 25.0824 13.4495 25.7989 14.1754 26.4483C14.3021 26.5617 14.5 26.4703 14.5 26.3002V24.2ZM19.0553 27.0732C18.9122 27.2223 19.0528 27.4657 19.2491 27.4011C21.1233 26.7838 22.7945 25.7167 24.1344 24.3278C24.2545 24.2034 24.1645 24 23.9915 24H21.4802C21.4087 24 21.3428 24.0382 21.3066 24.0998C20.6784 25.1696 19.9241 26.1678 19.0553 27.0732ZM22.4483 21.7241C22.3977 21.8565 22.4945 22 22.6363 22L25.7459 22.0004C25.8351 22.0004 25.9177 21.953 25.9615 21.8753C26.7521 20.4723 27.2694 18.8951 27.4389 17.2164C27.4507 17.1 27.3585 17 27.2416 17H23.6573C23.5516 17 23.4643 17.0822 23.4566 17.1876C23.3412 18.7606 22.9978 20.2861 22.4483 21.7241ZM21.2501 17C21.3661 17 21.4579 17.0984 21.448 17.214C21.3071 18.8513 20.8829 20.4282 20.2081 21.8854C20.1756 21.9556 20.1052 22 20.0279 22H16.7C16.5895 22 16.5 21.9105 16.5 21.8V17.2C16.5 17.0895 16.5895 17 16.7 17H21.2501ZM23.4566 14.8124C23.4643 14.9178 23.5516 15 23.6573 15H27.2416C27.3585 15 27.4507 14.9 27.4389 14.7836C27.2694 13.1049 26.7521 11.5277 25.9615 10.1247C25.9177 10.047 25.8351 9.99961 25.7459 9.99962L22.6364 10C22.4947 10 22.3978 10.1434 22.4484 10.2758C22.9978 11.7142 23.3412 13.2395 23.4566 14.8124ZM20.0279 10C20.1051 10 20.1756 10.0444 20.208 10.1146C20.8829 11.5718 21.3071 13.1487 21.448 14.786C21.4579 14.9016 21.3661 15 21.2501 15H16.7C16.5895 15 16.5 14.9105 16.5 14.8V10.2C16.5 10.0895 16.5895 10 16.7 10H20.0279ZM21.3074 7.90017C21.3435 7.96181 21.4095 8 21.481 8H23.9915C24.1645 8 24.2545 7.79661 24.1344 7.67215C22.7959 6.28483 21.1269 5.21847 19.2552 4.6009C19.0591 4.53619 18.9183 4.77932 19.0611 4.92851C19.9278 5.83408 20.6804 6.83153 21.3074 7.90017ZM16.8246 5.55173C16.6979 5.43836 16.5 5.52978 16.5 5.69982V7.8C16.5 7.91046 16.5895 8 16.7 8H18.6109C18.7725 8 18.8667 7.81872 18.7707 7.6887C18.2015 6.91763 17.5505 6.20115 16.8246 5.55173ZM14.5 5.69979C14.5 5.52976 14.3021 5.43833 14.1754 5.5517C13.4495 6.20113 12.7985 6.91762 12.2293 7.6887C12.1333 7.81872 12.2275 8 12.3891 8H14.3C14.4105 8 14.5 7.91046 14.5 7.8V5.69979ZM16.7 24C16.5895 24 16.5 24.0895 16.5 24.2V26.3003C16.5 26.4703 16.6979 26.5617 16.8246 26.4483C17.5505 25.7989 18.2016 25.0824 18.7708 24.3113C18.8667 24.1813 18.7725 24 18.6109 24H16.7ZM5.05162 21.9C5.08679 21.9621 5.15284 22 5.22419 22H8.36636C8.50817 22 8.60505 21.8564 8.55434 21.724C8.00357 20.2853 7.65927 18.7599 7.54357 17.1876C7.53581 17.0822 7.44851 17 7.34285 17H3.75845C3.64149 17 3.54934 17.1 3.56109 17.2164C3.73161 18.9049 4.25321 20.4909 5.05162 21.9ZM11.7588 27.4037C11.955 27.4682 12.0955 27.2249 11.9525 27.0759C11.0824 26.1691 10.327 25.1701 9.69775 24.0997C9.66156 24.0381 9.59565 24 9.52424 24H7.00846C6.83553 24 6.74552 24.2034 6.8656 24.3278C8.20741 25.7186 9.88141 26.7868 11.7588 27.4037ZM9.519 8C9.59047 8 9.65643 7.96181 9.69259 7.90017C10.3196 6.83153 11.0722 5.8341 11.9388 4.92853C12.0816 4.77934 11.9409 4.53621 11.7448 4.60092C9.87306 5.2185 8.20406 6.28485 6.86559 7.67215C6.74552 7.79661 6.83553 8 7.00846 8H9.519Z"
        fill="url(#paint18_radial_18_4808)" />
    <path fill-rule="evenodd" clip-rule="evenodd"
        d="M1.5 16C1.5 23.72 7.78 30 15.5 30C23.22 30 29.5 23.72 29.5 16C29.5 8.28 23.22 2 15.5 2C7.78 2 1.5 8.28 1.5 16ZM3.75845 15C3.64149 15 3.54934 14.9 3.56109 14.7836C3.73161 13.0951 4.2532 11.5091 5.05162 10.1C5.08679 10.0379 5.15284 10 5.22419 10H8.36354C8.50529 10 8.60216 10.1434 8.55158 10.2758C8.00219 11.7142 7.65879 13.2395 7.54342 14.8124C7.53569 14.9178 7.44839 15 7.34271 15H3.75845ZM9.74991 15C9.6339 15 9.54209 14.9016 9.55204 14.786C9.69291 13.1487 10.1171 11.5718 10.7919 10.1146C10.8244 10.0444 10.8949 10 10.9721 10H14.3C14.4105 10 14.5 10.0895 14.5 10.2V14.8C14.5 14.9105 14.4105 15 14.3 15H9.74991ZM14.5 17.2C14.5 17.0895 14.4105 17 14.3 17H9.74991C9.63389 17 9.54209 17.0984 9.55203 17.214C9.69291 18.8513 10.1171 20.4282 10.7919 21.8854C10.8244 21.9556 10.8949 22 10.9721 22H14.3C14.4105 22 14.5 21.9105 14.5 21.8V17.2ZM14.5 24.2C14.5 24.0895 14.4105 24 14.3 24H12.3891C12.2275 24 12.1333 24.1813 12.2293 24.3113C12.7984 25.0824 13.4495 25.7989 14.1754 26.4483C14.3021 26.5617 14.5 26.4703 14.5 26.3002V24.2ZM19.0553 27.0732C18.9122 27.2223 19.0528 27.4657 19.2491 27.4011C21.1233 26.7838 22.7945 25.7167 24.1344 24.3278C24.2545 24.2034 24.1645 24 23.9915 24H21.4802C21.4087 24 21.3428 24.0382 21.3066 24.0998C20.6784 25.1696 19.9241 26.1678 19.0553 27.0732ZM22.4483 21.7241C22.3977 21.8565 22.4945 22 22.6363 22L25.7459 22.0004C25.8351 22.0004 25.9177 21.953 25.9615 21.8753C26.7521 20.4723 27.2694 18.8951 27.4389 17.2164C27.4507 17.1 27.3585 17 27.2416 17H23.6573C23.5516 17 23.4643 17.0822 23.4566 17.1876C23.3412 18.7606 22.9978 20.2861 22.4483 21.7241ZM21.2501 17C21.3661 17 21.4579 17.0984 21.448 17.214C21.3071 18.8513 20.8829 20.4282 20.2081 21.8854C20.1756 21.9556 20.1052 22 20.0279 22H16.7C16.5895 22 16.5 21.9105 16.5 21.8V17.2C16.5 17.0895 16.5895 17 16.7 17H21.2501ZM23.4566 14.8124C23.4643 14.9178 23.5516 15 23.6573 15H27.2416C27.3585 15 27.4507 14.9 27.4389 14.7836C27.2694 13.1049 26.7521 11.5277 25.9615 10.1247C25.9177 10.047 25.8351 9.99961 25.7459 9.99962L22.6364 10C22.4947 10 22.3978 10.1434 22.4484 10.2758C22.9978 11.7142 23.3412 13.2395 23.4566 14.8124ZM20.0279 10C20.1051 10 20.1756 10.0444 20.208 10.1146C20.8829 11.5718 21.3071 13.1487 21.448 14.786C21.4579 14.9016 21.3661 15 21.2501 15H16.7C16.5895 15 16.5 14.9105 16.5 14.8V10.2C16.5 10.0895 16.5895 10 16.7 10H20.0279ZM21.3074 7.90017C21.3435 7.96181 21.4095 8 21.481 8H23.9915C24.1645 8 24.2545 7.79661 24.1344 7.67215C22.7959 6.28483 21.1269 5.21847 19.2552 4.6009C19.0591 4.53619 18.9183 4.77932 19.0611 4.92851C19.9278 5.83408 20.6804 6.83153 21.3074 7.90017ZM16.8246 5.55173C16.6979 5.43836 16.5 5.52978 16.5 5.69982V7.8C16.5 7.91046 16.5895 8 16.7 8H18.6109C18.7725 8 18.8667 7.81872 18.7707 7.6887C18.2015 6.91763 17.5505 6.20115 16.8246 5.55173ZM14.5 5.69979C14.5 5.52976 14.3021 5.43833 14.1754 5.5517C13.4495 6.20113 12.7985 6.91762 12.2293 7.6887C12.1333 7.81872 12.2275 8 12.3891 8H14.3C14.4105 8 14.5 7.91046 14.5 7.8V5.69979ZM16.7 24C16.5895 24 16.5 24.0895 16.5 24.2V26.3003C16.5 26.4703 16.6979 26.5617 16.8246 26.4483C17.5505 25.7989 18.2016 25.0824 18.7708 24.3113C18.8667 24.1813 18.7725 24 18.6109 24H16.7ZM5.05162 21.9C5.08679 21.9621 5.15284 22 5.22419 22H8.36636C8.50817 22 8.60505 21.8564 8.55434 21.724C8.00357 20.2853 7.65927 18.7599 7.54357 17.1876C7.53581 17.0822 7.44851 17 7.34285 17H3.75845C3.64149 17 3.54934 17.1 3.56109 17.2164C3.73161 18.9049 4.25321 20.4909 5.05162 21.9ZM11.7588 27.4037C11.955 27.4682 12.0955 27.2249 11.9525 27.0759C11.0824 26.1691 10.327 25.1701 9.69775 24.0997C9.66156 24.0381 9.59565 24 9.52424 24H7.00846C6.83553 24 6.74552 24.2034 6.8656 24.3278C8.20741 25.7186 9.88141 26.7868 11.7588 27.4037ZM9.519 8C9.59047 8 9.65643 7.96181 9.69259 7.90017C10.3196 6.83153 11.0722 5.8341 11.9388 4.92853C12.0816 4.77934 11.9409 4.53621 11.7448 4.60092C9.87306 5.2185 8.20406 6.28485 6.86559 7.67215C6.74552 7.79661 6.83553 8 7.00846 8H9.519Z"
        fill="url(#paint19_radial_18_4808)" />
    <path fill-rule="evenodd" clip-rule="evenodd"
        d="M1.5 16C1.5 23.72 7.78 30 15.5 30C23.22 30 29.5 23.72 29.5 16C29.5 8.28 23.22 2 15.5 2C7.78 2 1.5 8.28 1.5 16ZM3.75845 15C3.64149 15 3.54934 14.9 3.56109 14.7836C3.73161 13.0951 4.2532 11.5091 5.05162 10.1C5.08679 10.0379 5.15284 10 5.22419 10H8.36354C8.50529 10 8.60216 10.1434 8.55158 10.2758C8.00219 11.7142 7.65879 13.2395 7.54342 14.8124C7.53569 14.9178 7.44839 15 7.34271 15H3.75845ZM9.74991 15C9.6339 15 9.54209 14.9016 9.55204 14.786C9.69291 13.1487 10.1171 11.5718 10.7919 10.1146C10.8244 10.0444 10.8949 10 10.9721 10H14.3C14.4105 10 14.5 10.0895 14.5 10.2V14.8C14.5 14.9105 14.4105 15 14.3 15H9.74991ZM14.5 17.2C14.5 17.0895 14.4105 17 14.3 17H9.74991C9.63389 17 9.54209 17.0984 9.55203 17.214C9.69291 18.8513 10.1171 20.4282 10.7919 21.8854C10.8244 21.9556 10.8949 22 10.9721 22H14.3C14.4105 22 14.5 21.9105 14.5 21.8V17.2ZM14.5 24.2C14.5 24.0895 14.4105 24 14.3 24H12.3891C12.2275 24 12.1333 24.1813 12.2293 24.3113C12.7984 25.0824 13.4495 25.7989 14.1754 26.4483C14.3021 26.5617 14.5 26.4703 14.5 26.3002V24.2ZM19.0553 27.0732C18.9122 27.2223 19.0528 27.4657 19.2491 27.4011C21.1233 26.7838 22.7945 25.7167 24.1344 24.3278C24.2545 24.2034 24.1645 24 23.9915 24H21.4802C21.4087 24 21.3428 24.0382 21.3066 24.0998C20.6784 25.1696 19.9241 26.1678 19.0553 27.0732ZM22.4483 21.7241C22.3977 21.8565 22.4945 22 22.6363 22L25.7459 22.0004C25.8351 22.0004 25.9177 21.953 25.9615 21.8753C26.7521 20.4723 27.2694 18.8951 27.4389 17.2164C27.4507 17.1 27.3585 17 27.2416 17H23.6573C23.5516 17 23.4643 17.0822 23.4566 17.1876C23.3412 18.7606 22.9978 20.2861 22.4483 21.7241ZM21.2501 17C21.3661 17 21.4579 17.0984 21.448 17.214C21.3071 18.8513 20.8829 20.4282 20.2081 21.8854C20.1756 21.9556 20.1052 22 20.0279 22H16.7C16.5895 22 16.5 21.9105 16.5 21.8V17.2C16.5 17.0895 16.5895 17 16.7 17H21.2501ZM23.4566 14.8124C23.4643 14.9178 23.5516 15 23.6573 15H27.2416C27.3585 15 27.4507 14.9 27.4389 14.7836C27.2694 13.1049 26.7521 11.5277 25.9615 10.1247C25.9177 10.047 25.8351 9.99961 25.7459 9.99962L22.6364 10C22.4947 10 22.3978 10.1434 22.4484 10.2758C22.9978 11.7142 23.3412 13.2395 23.4566 14.8124ZM20.0279 10C20.1051 10 20.1756 10.0444 20.208 10.1146C20.8829 11.5718 21.3071 13.1487 21.448 14.786C21.4579 14.9016 21.3661 15 21.2501 15H16.7C16.5895 15 16.5 14.9105 16.5 14.8V10.2C16.5 10.0895 16.5895 10 16.7 10H20.0279ZM21.3074 7.90017C21.3435 7.96181 21.4095 8 21.481 8H23.9915C24.1645 8 24.2545 7.79661 24.1344 7.67215C22.7959 6.28483 21.1269 5.21847 19.2552 4.6009C19.0591 4.53619 18.9183 4.77932 19.0611 4.92851C19.9278 5.83408 20.6804 6.83153 21.3074 7.90017ZM16.8246 5.55173C16.6979 5.43836 16.5 5.52978 16.5 5.69982V7.8C16.5 7.91046 16.5895 8 16.7 8H18.6109C18.7725 8 18.8667 7.81872 18.7707 7.6887C18.2015 6.91763 17.5505 6.20115 16.8246 5.55173ZM14.5 5.69979C14.5 5.52976 14.3021 5.43833 14.1754 5.5517C13.4495 6.20113 12.7985 6.91762 12.2293 7.6887C12.1333 7.81872 12.2275 8 12.3891 8H14.3C14.4105 8 14.5 7.91046 14.5 7.8V5.69979ZM16.7 24C16.5895 24 16.5 24.0895 16.5 24.2V26.3003C16.5 26.4703 16.6979 26.5617 16.8246 26.4483C17.5505 25.7989 18.2016 25.0824 18.7708 24.3113C18.8667 24.1813 18.7725 24 18.6109 24H16.7ZM5.05162 21.9C5.08679 21.9621 5.15284 22 5.22419 22H8.36636C8.50817 22 8.60505 21.8564 8.55434 21.724C8.00357 20.2853 7.65927 18.7599 7.54357 17.1876C7.53581 17.0822 7.44851 17 7.34285 17H3.75845C3.64149 17 3.54934 17.1 3.56109 17.2164C3.73161 18.9049 4.25321 20.4909 5.05162 21.9ZM11.7588 27.4037C11.955 27.4682 12.0955 27.2249 11.9525 27.0759C11.0824 26.1691 10.327 25.1701 9.69775 24.0997C9.66156 24.0381 9.59565 24 9.52424 24H7.00846C6.83553 24 6.74552 24.2034 6.8656 24.3278C8.20741 25.7186 9.88141 26.7868 11.7588 27.4037ZM9.519 8C9.59047 8 9.65643 7.96181 9.69259 7.90017C10.3196 6.83153 11.0722 5.8341 11.9388 4.92853C12.0816 4.77934 11.9409 4.53621 11.7448 4.60092C9.87306 5.2185 8.20406 6.28485 6.86559 7.67215C6.74552 7.79661 6.83553 8 7.00846 8H9.519Z"
        fill="url(#paint20_radial_18_4808)" />
    <defs>
        <radialGradient id="paint0_radial_18_4808" cx="0" cy="0" r="1"
            gradientUnits="userSpaceOnUse"
            gradientTransform="translate(15.5 16) rotate(90) scale(14 14)">
            <stop stop-color="#00A4FF" />
            <stop offset="1" stop-color="#4FC0FF" stop-opacity="0" />
        </radialGradient>
        <radialGradient id="paint1_radial_18_4808" cx="0" cy="0" r="1"
            gradientUnits="userSpaceOnUse"
            gradientTransform="translate(14.5857 16) rotate(90) scale(12.7433 7.70813)">
            <stop offset="0.717703" stop-color="#409FEE" stop-opacity="0" />
            <stop offset="0.875598" stop-color="#409FEE" />
            <stop offset="1" stop-color="#409FEE" stop-opacity="0" />
        </radialGradient>
        <linearGradient id="paint2_linear_18_4808" x1="13.4375" y1="8.0625" x2="13.4375"
            y2="24.4063" gradientUnits="userSpaceOnUse">
            <stop offset="0.0172084" stop-color="#3C98EB" stop-opacity="0" />
            <stop offset="0.116635" stop-color="#197FDC" />
            <stop offset="0.140535" stop-color="#3C98EB" stop-opacity="0" />
            <stop offset="0.474187" stop-color="#3C98EB" stop-opacity="0" />
            <stop offset="0.543977" stop-color="#197FDC" />
            <stop offset="0.571702" stop-color="#3C98EB" stop-opacity="0" />
            <stop offset="0.892925" stop-color="#3C98EB" stop-opacity="0" />
            <stop offset="0.972603" stop-color="#197FDC" />
            <stop offset="0.99044" stop-color="#3C98EB" stop-opacity="0" />
        </linearGradient>
        <linearGradient id="paint3_linear_18_4808" x1="13.4375" y1="7.625" x2="13.4375" y2="24.3437"
            gradientUnits="userSpaceOnUse">
            <stop stop-color="#70E4FE" stop-opacity="0" />
            <stop offset="0.0813084" stop-color="#70E4FE" />
            <stop offset="0.157944" stop-color="#70E4FE" stop-opacity="0" />
            <stop offset="0.419626" stop-color="#70E4FE" stop-opacity="0" />
            <stop offset="0.502804" stop-color="#70E4FE" />
            <stop offset="0.576636" stop-color="#70E4FE" stop-opacity="0" />
            <stop offset="0.830841" stop-color="#70E4FE" stop-opacity="0" />
            <stop offset="0.920561" stop-color="#70E4FE" />
            <stop offset="1" stop-color="#70E4FE" stop-opacity="0" />
        </linearGradient>
        <linearGradient id="paint4_linear_18_4808" x1="14.25" y1="19.5312" x2="16.9375" y2="19.5312"
            gradientUnits="userSpaceOnUse">
            <stop stop-color="#88FDFD" stop-opacity="0" />
            <stop offset="0.282121" stop-color="#88FDFD" stop-opacity="0.4" />
            <stop offset="0.468254" stop-color="#88FDFD" stop-opacity="0.5" />
            <stop offset="0.657304" stop-color="#88FDFD" stop-opacity="0.4" />
            <stop offset="1" stop-color="#88FDFD" stop-opacity="0" />
        </linearGradient>
        <radialGradient id="paint5_radial_18_4808" cx="0" cy="0" r="1"
            gradientUnits="userSpaceOnUse"
            gradientTransform="translate(14.4375 16.625) rotate(105.341) scale(14.6469 14.6469)">
            <stop offset="0.862127" stop-color="#378EE7" stop-opacity="0" />
            <stop offset="0.9375" stop-color="#378EE7" />
            <stop offset="1" stop-color="#378EE7" stop-opacity="0" />
        </radialGradient>
        <radialGradient id="paint6_radial_18_4808" cx="0" cy="0" r="1"
            gradientUnits="userSpaceOnUse"
            gradientTransform="translate(15.5 16) rotate(90) scale(13.0107 7.85438)">
            <stop offset="0.755981" stop-color="#88FDFD" stop-opacity="0" />
            <stop offset="0.875598" stop-color="#88FDFD" stop-opacity="0.6" />
            <stop offset="1" stop-color="#88FDFD" stop-opacity="0" />
        </radialGradient>
        <radialGradient id="paint7_radial_18_4808" cx="0" cy="0" r="1"
            gradientUnits="userSpaceOnUse"
            gradientTransform="translate(15.5 16) rotate(90) scale(14 14)">
            <stop offset="0.745792" stop-color="#4FC0FF" stop-opacity="0" />
            <stop offset="0.927277" stop-color="#4FC0FF" />
        </radialGradient>
        <radialGradient id="paint8_radial_18_4808" cx="0" cy="0" r="1"
            gradientUnits="userSpaceOnUse"
            gradientTransform="translate(15.5 28.056) rotate(90) scale(3.20779 2.05913)">
            <stop stop-color="#4FC0FF" />
            <stop offset="1" stop-color="#4FC0FF" stop-opacity="0" />
        </radialGradient>
        <radialGradient id="paint9_radial_18_4808" cx="0" cy="0" r="1"
            gradientUnits="userSpaceOnUse"
            gradientTransform="translate(15.5 4.0358) rotate(-90) scale(5.26994 3.38286)">
            <stop stop-color="#4FC0FF" />
            <stop offset="1" stop-color="#4FC0FF" stop-opacity="0" />
        </radialGradient>
        <radialGradient id="paint10_radial_18_4808" cx="0" cy="0" r="1"
            gradientUnits="userSpaceOnUse"
            gradientTransform="translate(9.9369 9.19118) rotate(-90) scale(2.55859)">
            <stop stop-color="#5AD0FF" stop-opacity="0.7" />
            <stop offset="1" stop-color="#5AD0FF" stop-opacity="0" />
        </radialGradient>
        <radialGradient id="paint11_radial_18_4808" cx="0" cy="0" r="1"
            gradientUnits="userSpaceOnUse"
            gradientTransform="translate(15.5 8.92386) rotate(-90) scale(2.8641)">
            <stop stop-color="#5AD0FF" stop-opacity="0.7" />
            <stop offset="1" stop-color="#5AD0FF" stop-opacity="0" />
        </radialGradient>
        <radialGradient id="paint12_radial_18_4808" cx="0" cy="0" r="1"
            gradientUnits="userSpaceOnUse"
            gradientTransform="translate(20.7059 8.88568) rotate(-90) scale(2.52041)">
            <stop stop-color="#5AD0FF" stop-opacity="0.7" />
            <stop offset="1" stop-color="#5AD0FF" stop-opacity="0" />
        </radialGradient>
        <radialGradient id="paint13_radial_18_4808" cx="0" cy="0" r="1"
            gradientUnits="userSpaceOnUse"
            gradientTransform="translate(22.5 16) rotate(-90) scale(3.0625)">
            <stop stop-color="#5AD0FF" stop-opacity="0.7" />
            <stop offset="1" stop-color="#5AD0FF" stop-opacity="0" />
        </radialGradient>
        <radialGradient id="paint14_radial_18_4808" cx="0" cy="0" r="1"
            gradientUnits="userSpaceOnUse"
            gradientTransform="translate(15.5 16) rotate(-90) scale(3.0625)">
            <stop stop-color="#5AD0FF" stop-opacity="0.7" />
            <stop offset="1" stop-color="#5AD0FF" stop-opacity="0" />
        </radialGradient>
        <radialGradient id="paint15_radial_18_4808" cx="0" cy="0" r="1"
            gradientUnits="userSpaceOnUse"
            gradientTransform="translate(8.6875 16) rotate(-90) scale(3.1875)">
            <stop stop-color="#5AD0FF" stop-opacity="0.7" />
            <stop offset="1" stop-color="#5AD0FF" stop-opacity="0" />
        </radialGradient>
        <radialGradient id="paint16_radial_18_4808" cx="0" cy="0" r="1"
            gradientUnits="userSpaceOnUse"
            gradientTransform="translate(10.125 22.8125) rotate(-90) scale(2.875)">
            <stop stop-color="#5AD0FF" stop-opacity="0.7" />
            <stop offset="1" stop-color="#5AD0FF" stop-opacity="0" />
        </radialGradient>
        <radialGradient id="paint17_radial_18_4808" cx="0" cy="0" r="1"
            gradientUnits="userSpaceOnUse"
            gradientTransform="translate(15.5 22.9375) rotate(-90) scale(3.625)">
            <stop stop-color="#5AD0FF" stop-opacity="0.7" />
            <stop offset="1" stop-color="#5AD0FF" stop-opacity="0" />
        </radialGradient>
        <radialGradient id="paint18_radial_18_4808" cx="0" cy="0" r="1"
            gradientUnits="userSpaceOnUse"
            gradientTransform="translate(20.8125 22.8125) rotate(-90) scale(4.0625)">
            <stop stop-color="#5AD0FF" stop-opacity="0.7" />
            <stop offset="1" stop-color="#5AD0FF" stop-opacity="0" />
        </radialGradient>
        <radialGradient id="paint19_radial_18_4808" cx="0" cy="0" r="1"
            gradientUnits="userSpaceOnUse"
            gradientTransform="translate(16.4375 15.125) rotate(101.889) scale(15.7759 15.7759)">
            <stop offset="0.875" stop-color="#487DD6" stop-opacity="0" />
            <stop offset="0.9375" stop-color="#487DD6" />
            <stop offset="1" stop-color="#487DD6" stop-opacity="0" />
        </radialGradient>
        <radialGradient id="paint20_radial_18_4808" cx="0" cy="0" r="1"
            gradientUnits="userSpaceOnUse"
            gradientTransform="translate(14.75 16.875) rotate(91.2683) scale(16.9416 16.9417)">
            <stop offset="0.77642" stop-color="#88FDFD" stop-opacity="0" />
            <stop offset="0.898295" stop-color="#88FDFD" />
            <stop offset="1" stop-color="#88FDFD" stop-opacity="0" />
        </radialGradient>
    </defs>
</svg>