<svg width="32" height="32" viewBox="0 0 32 32" fill="none" xmlns="http://www.w3.org/2000/svg">
    <rect x="4.86621" y="12.4233" width="22.2558" height="16.8906" rx="2.5"
        fill="url(#paint0_linear_18_21909)" />
    <rect x="4.86621" y="12.4233" width="22.2558" height="16.8906" rx="2.5"
        fill="url(#paint1_linear_18_21909)" />
    <rect x="4.86621" y="12.4233" width="22.2558" height="16.8906" rx="2.5"
        fill="url(#paint2_linear_18_21909)" />
    <rect x="4.86621" y="12.4233" width="22.2558" height="16.8906" rx="2.5"
        fill="url(#paint3_linear_18_21909)" />
    <path d="M19.9744 29.3138H12.0259V24.8925H19.9744V29.3138Z" fill="url(#paint4_linear_18_21909)" />
    <path d="M19.9744 29.3138H12.0259V24.8925H19.9744V29.3138Z" fill="url(#paint5_linear_18_21909)" />
    <path
        d="M12.1173 25.1656L12.0906 25.1071H12.0263H7.36621C6.0407 25.1071 4.96621 24.0326 4.96621 22.7071V10.8165C4.96621 9.49104 6.0407 8.41653 7.36621 8.41653H24.622C25.9475 8.41653 27.022 9.49104 27.022 10.8165V22.7071C27.022 24.0326 25.9475 25.1071 24.622 25.1071H19.9619H19.8975L19.8709 25.1656C19.2464 26.5364 17.7492 27.5082 15.9941 27.5082C14.2391 27.5082 12.7417 26.5364 12.1173 25.1656Z"
        fill="url(#paint6_linear_18_21909)" stroke="url(#paint7_linear_18_21909)" stroke-width="0.2" />
    <path
        d="M24.5144 12.5132C24.5144 11.4819 23.6991 10.6427 22.6894 10.6427H9.29883C8.2891 10.6427 7.47383 11.4819 7.47383 12.5132V20.4076C7.47383 21.4388 8.2891 22.2781 9.29883 22.2781H13.1822C13.3598 22.2781 13.5072 22.4264 13.5072 22.6135V22.6333C13.5072 23.6645 14.3224 24.5038 15.3322 24.5038H16.6013C17.611 24.5038 18.4263 23.6645 18.4263 22.6333V22.6135C18.4263 22.4264 18.5736 22.2781 18.7513 22.2781H22.6894C23.6991 22.2781 24.5144 21.4388 24.5144 20.4076V12.5132Z"
        fill="#A4A3C4" />
    <path
        d="M24.5144 12.5132C24.5144 11.4819 23.6991 10.6427 22.6894 10.6427H9.29883C8.2891 10.6427 7.47383 11.4819 7.47383 12.5132V20.4076C7.47383 21.4388 8.2891 22.2781 9.29883 22.2781H13.1822C13.3598 22.2781 13.5072 22.4264 13.5072 22.6135V22.6333C13.5072 23.6645 14.3224 24.5038 15.3322 24.5038H16.6013C17.611 24.5038 18.4263 23.6645 18.4263 22.6333V22.6135C18.4263 22.4264 18.5736 22.2781 18.7513 22.2781H22.6894C23.6991 22.2781 24.5144 21.4388 24.5144 20.4076V12.5132Z"
        fill="url(#paint8_linear_18_21909)" />
    <path
        d="M24.5144 12.5132C24.5144 11.4819 23.6991 10.6427 22.6894 10.6427H9.29883C8.2891 10.6427 7.47383 11.4819 7.47383 12.5132V20.4076C7.47383 21.4388 8.2891 22.2781 9.29883 22.2781H13.1822C13.3598 22.2781 13.5072 22.4264 13.5072 22.6135V22.6333C13.5072 23.6645 14.3224 24.5038 15.3322 24.5038H16.6013C17.611 24.5038 18.4263 23.6645 18.4263 22.6333V22.6135C18.4263 22.4264 18.5736 22.2781 18.7513 22.2781H22.6894C23.6991 22.2781 24.5144 21.4388 24.5144 20.4076V12.5132Z"
        fill="url(#paint9_linear_18_21909)" />
    <path
        d="M24.5144 12.5132C24.5144 11.4819 23.6991 10.6427 22.6894 10.6427H9.29883C8.2891 10.6427 7.47383 11.4819 7.47383 12.5132V20.4076C7.47383 21.4388 8.2891 22.2781 9.29883 22.2781H13.1822C13.3598 22.2781 13.5072 22.4264 13.5072 22.6135V22.6333C13.5072 23.6645 14.3224 24.5038 15.3322 24.5038H16.6013C17.611 24.5038 18.4263 23.6645 18.4263 22.6333V22.6135C18.4263 22.4264 18.5736 22.2781 18.7513 22.2781H22.6894C23.6991 22.2781 24.5144 21.4388 24.5144 20.4076V12.5132Z"
        stroke="url(#paint10_linear_18_21909)" stroke-width="0.15" />
    <path
        d="M24.5144 12.5132C24.5144 11.4819 23.6991 10.6427 22.6894 10.6427H9.29883C8.2891 10.6427 7.47383 11.4819 7.47383 12.5132V20.4076C7.47383 21.4388 8.2891 22.2781 9.29883 22.2781H13.1822C13.3598 22.2781 13.5072 22.4264 13.5072 22.6135V22.6333C13.5072 23.6645 14.3224 24.5038 15.3322 24.5038H16.6013C17.611 24.5038 18.4263 23.6645 18.4263 22.6333V22.6135C18.4263 22.4264 18.5736 22.2781 18.7513 22.2781H22.6894C23.6991 22.2781 24.5144 21.4388 24.5144 20.4076V12.5132Z"
        stroke="url(#paint11_linear_18_21909)" stroke-width="0.15" />
    <path
        d="M24.4394 12.8154C24.4394 11.8489 23.6559 11.0654 22.6894 11.0654H9.29883C8.33233 11.0654 7.54883 11.8489 7.54883 12.8154V20.5096C7.54883 21.4761 8.33233 22.2596 9.29883 22.2596H13.1822C13.4031 22.2596 13.5822 22.4387 13.5822 22.6596V22.6789C13.5822 23.6454 14.3657 24.4289 15.3322 24.4289H16.6013C17.5677 24.4289 18.3513 23.6454 18.3513 22.6789V22.6596C18.3513 22.4387 18.5303 22.2596 18.7513 22.2596H22.6894C23.6559 22.2596 24.4394 21.4761 24.4394 20.5096V12.8154Z"
        fill="#2C83D3" />
    <path
        d="M22.6894 11.1654C23.6007 11.1654 24.3394 11.9042 24.3394 12.8154V20.5096C24.3394 21.4208 23.6007 22.1596 22.6894 22.1596H18.7513C18.4751 22.1596 18.2513 22.3834 18.2513 22.6596V22.6789C18.2513 23.5901 17.5125 24.3289 16.6013 24.3289H15.3322C14.4209 24.3289 13.6822 23.5901 13.6822 22.6789V22.6596C13.6822 22.3834 13.4583 22.1596 13.1822 22.1596H9.29883C8.38756 22.1596 7.64883 21.4208 7.64883 20.5096V12.8154C7.64883 11.9042 8.38756 11.1654 9.29883 11.1654H22.6894Z"
        stroke="url(#paint12_linear_18_21909)" stroke-opacity="0.82" stroke-width="0.2" />
    <path
        d="M13.8597 1.32056C13.5007 1.32056 13.2097 1.61157 13.2097 1.97055L13.2097 9.2614L11.9644 9.2614C11.3176 9.2614 10.9741 10.0251 11.4032 10.509L15.439 15.0601C15.7378 15.3969 16.2639 15.3965 16.5621 15.0592L20.5856 10.5082C21.0137 10.024 20.6699 9.2614 20.0238 9.2614L18.7405 9.2614L18.7405 1.97055C18.7405 1.61157 18.4495 1.32056 18.0905 1.32056L13.8597 1.32056Z"
        fill="url(#paint13_linear_18_21909)" />
    <defs>
        <linearGradient id="paint0_linear_18_21909" x1="5.51829" y1="27.208" x2="25.8555"
            y2="27.208" gradientUnits="userSpaceOnUse">
            <stop stop-color="#BBA4D4" />
            <stop offset="1" stop-color="#BDA7D7" />
        </linearGradient>
        <linearGradient id="paint1_linear_18_21909" x1="4.86621" y1="26.7284" x2="8.68399"
            y2="26.7284" gradientUnits="userSpaceOnUse">
            <stop stop-color="#908A99" />
            <stop offset="1" stop-color="#A995C1" stop-opacity="0" />
        </linearGradient>
        <linearGradient id="paint2_linear_18_21909" x1="27.122" y1="26.7284" x2="23.745"
            y2="26.7284" gradientUnits="userSpaceOnUse">
            <stop stop-color="#DAD8E1" />
            <stop offset="1" stop-color="#CCBEDF" stop-opacity="0" />
        </linearGradient>
        <linearGradient id="paint3_linear_18_21909" x1="17.8686" y1="29.3139" x2="17.8686"
            y2="28.9631" gradientUnits="userSpaceOnUse">
            <stop offset="0.242816" stop-color="#AA93C3" />
            <stop offset="1" stop-color="#BEA8D8" stop-opacity="0" />
        </linearGradient>
        <linearGradient id="paint4_linear_18_21909" x1="19.5876" y1="25.588" x2="16.9001"
            y2="28.463" gradientUnits="userSpaceOnUse">
            <stop offset="0.0819774" stop-color="#D1C7E1" />
            <stop offset="1" stop-color="#967EAF" />
        </linearGradient>
        <linearGradient id="paint5_linear_18_21909" x1="12.2751" y1="29.7755" x2="13.7751"
            y2="28.4005" gradientUnits="userSpaceOnUse">
            <stop offset="0.0575471" stop-color="#A28ABC" />
            <stop offset="1" stop-color="#A28ABC" stop-opacity="0" />
        </linearGradient>
        <linearGradient id="paint6_linear_18_21909" x1="5.86859" y1="16.9318" x2="27.4936"
            y2="16.9318" gradientUnits="userSpaceOnUse">
            <stop stop-color="#D8D3DE" />
            <stop offset="1" stop-color="#D8D4DF" />
        </linearGradient>
        <linearGradient id="paint7_linear_18_21909" x1="3.99982" y1="11" x2="23.9998" y2="27"
            gradientUnits="userSpaceOnUse">
            <stop offset="0.183037" stop-color="#AFADB4" stop-opacity="0.905895" />
            <stop offset="1" stop-color="white" />
        </linearGradient>
        <linearGradient id="paint8_linear_18_21909" x1="7.54883" y1="12.3885" x2="10.2822"
            y2="12.3885" gradientUnits="userSpaceOnUse">
            <stop stop-color="#BFC0DE" />
            <stop offset="1" stop-color="#BFC0DE" stop-opacity="0" />
        </linearGradient>
        <linearGradient id="paint9_linear_18_21909" x1="24.1358" y1="11.6879" x2="21.3167"
            y2="11.6879" gradientUnits="userSpaceOnUse">
            <stop stop-color="#BBB3C6" />
            <stop offset="1" stop-color="#BBB3C6" stop-opacity="0" />
        </linearGradient>
        <linearGradient id="paint10_linear_18_21909" x1="7.35288" y1="16.3106" x2="14.3348"
            y2="16.3106" gradientUnits="userSpaceOnUse">
            <stop stop-color="#EDE9F5" />
            <stop offset="1" stop-color="#EDE9F5" stop-opacity="0" />
        </linearGradient>
        <linearGradient id="paint11_linear_18_21909" x1="25.7657" y1="16.4647" x2="13.4538"
            y2="16.4647" gradientUnits="userSpaceOnUse">
            <stop stop-color="#BFB5C9" />
            <stop offset="1" stop-color="#BFB5C9" stop-opacity="0" />
        </linearGradient>
        <linearGradient id="paint12_linear_18_21909" x1="20.0653" y1="22.965" x2="3.12096"
            y2="6.02068" gradientUnits="userSpaceOnUse">
            <stop stop-color="#2A5DB1" />
            <stop offset="1" stop-color="#2A5DB1" stop-opacity="0" />
        </linearGradient>
        <linearGradient id="paint13_linear_18_21909" x1="13.4048" y1="7.52758" x2="17.7486"
            y2="7.52758" gradientUnits="userSpaceOnUse">
            <stop stop-color="#DE2430" />
            <stop offset="1" stop-color="#CB2C7D" />
        </linearGradient>
    </defs>
</svg>