<svg width="32" height="32" viewBox="0 0 32 32" fill="none" xmlns="http://www.w3.org/2000/svg">
    <path fill-rule="evenodd" clip-rule="evenodd"
        d="M14.6051 12.869L14.6195 12.8546C14.5156 12.6025 14.4204 12.3411 14.3345 12.0704C13.4872 9.4113 14.2946 6.50036 16.2483 4.52616C18.9098 1.83682 23.1163 1.14182 26.2862 3.18653C30.7219 6.03703 31.1805 12.1208 27.6817 15.6562C25.6324 17.7322 22.7132 18.4287 20.0793 17.7473C17.6027 17.0308 15.5914 15.2182 14.6051 12.869ZM23.8839 8.46449C23.1662 7.73927 23.1662 6.55073 23.8839 5.82551C24.6016 5.10029 25.7778 5.10029 26.4955 5.82551C27.2132 6.55073 27.2132 7.73927 26.4955 8.46449C25.7778 9.18971 24.6115 9.18971 23.8839 8.46449Z"
        fill="url(#paint0_linear_18_23714)" />
    <path fill-rule="evenodd" clip-rule="evenodd"
        d="M14.6051 12.869L14.6195 12.8546C14.5156 12.6025 14.4204 12.3411 14.3345 12.0704C13.4872 9.4113 14.2946 6.50036 16.2483 4.52616C18.9098 1.83682 23.1163 1.14182 26.2862 3.18653C30.7219 6.03703 31.1805 12.1208 27.6817 15.6562C25.6324 17.7322 22.7132 18.4287 20.0793 17.7473C17.6027 17.0308 15.5914 15.2182 14.6051 12.869ZM23.8839 8.46449C23.1662 7.73927 23.1662 6.55073 23.8839 5.82551C24.6016 5.10029 25.7778 5.10029 26.4955 5.82551C27.2132 6.55073 27.2132 7.73927 26.4955 8.46449C25.7778 9.18971 24.6115 9.18971 23.8839 8.46449Z"
        fill="url(#paint1_radial_18_23714)" />
    <path fill-rule="evenodd" clip-rule="evenodd"
        d="M14.6051 12.869L14.6195 12.8546C14.5156 12.6025 14.4204 12.3411 14.3345 12.0704C13.4872 9.4113 14.2946 6.50036 16.2483 4.52616C18.9098 1.83682 23.1163 1.14182 26.2862 3.18653C30.7219 6.03703 31.1805 12.1208 27.6817 15.6562C25.6324 17.7322 22.7132 18.4287 20.0793 17.7473C17.6027 17.0308 15.5914 15.2182 14.6051 12.869ZM23.8839 8.46449C23.1662 7.73927 23.1662 6.55073 23.8839 5.82551C24.6016 5.10029 25.7778 5.10029 26.4955 5.82551C27.2132 6.55073 27.2132 7.73927 26.4955 8.46449C25.7778 9.18971 24.6115 9.18971 23.8839 8.46449Z"
        fill="url(#paint2_radial_18_23714)" />
    <path fill-rule="evenodd" clip-rule="evenodd"
        d="M14.6051 12.869L14.6195 12.8546C14.5156 12.6025 14.4204 12.3411 14.3345 12.0704C13.4872 9.4113 14.2946 6.50036 16.2483 4.52616C18.9098 1.83682 23.1163 1.14182 26.2862 3.18653C30.7219 6.03703 31.1805 12.1208 27.6817 15.6562C25.6324 17.7322 22.7132 18.4287 20.0793 17.7473C17.6027 17.0308 15.5914 15.2182 14.6051 12.869ZM23.8839 8.46449C23.1662 7.73927 23.1662 6.55073 23.8839 5.82551C24.6016 5.10029 25.7778 5.10029 26.4955 5.82551C27.2132 6.55073 27.2132 7.73927 26.4955 8.46449C25.7778 9.18971 24.6115 9.18971 23.8839 8.46449Z"
        fill="url(#paint3_radial_18_23714)" />
    <path fill-rule="evenodd" clip-rule="evenodd"
        d="M14.6051 12.869L14.6195 12.8546C14.5156 12.6025 14.4204 12.3411 14.3345 12.0704C13.4872 9.4113 14.2946 6.50036 16.2483 4.52616C18.9098 1.83682 23.1163 1.14182 26.2862 3.18653C30.7219 6.03703 31.1805 12.1208 27.6817 15.6562C25.6324 17.7322 22.7132 18.4287 20.0793 17.7473C17.6027 17.0308 15.5914 15.2182 14.6051 12.869ZM23.8839 8.46449C23.1662 7.73927 23.1662 6.55073 23.8839 5.82551C24.6016 5.10029 25.7778 5.10029 26.4955 5.82551C27.2132 6.55073 27.2132 7.73927 26.4955 8.46449C25.7778 9.18971 24.6115 9.18971 23.8839 8.46449Z"
        fill="url(#paint4_radial_18_23714)" />
    <path fill-rule="evenodd" clip-rule="evenodd"
        d="M14.6051 12.869L14.6195 12.8546C14.5156 12.6025 14.4204 12.3411 14.3345 12.0704C13.4872 9.4113 14.2946 6.50036 16.2483 4.52616C18.9098 1.83682 23.1163 1.14182 26.2862 3.18653C30.7219 6.03703 31.1805 12.1208 27.6817 15.6562C25.6324 17.7322 22.7132 18.4287 20.0793 17.7473C17.6027 17.0308 15.5914 15.2182 14.6051 12.869ZM23.8839 8.46449C23.1662 7.73927 23.1662 6.55073 23.8839 5.82551C24.6016 5.10029 25.7778 5.10029 26.4955 5.82551C27.2132 6.55073 27.2132 7.73927 26.4955 8.46449C25.7778 9.18971 24.6115 9.18971 23.8839 8.46449Z"
        fill="url(#paint5_radial_18_23714)" />
    <path fill-rule="evenodd" clip-rule="evenodd"
        d="M14.6051 12.869L14.6195 12.8546C14.5156 12.6025 14.4204 12.3411 14.3345 12.0704C13.4872 9.4113 14.2946 6.50036 16.2483 4.52616C18.9098 1.83682 23.1163 1.14182 26.2862 3.18653C30.7219 6.03703 31.1805 12.1208 27.6817 15.6562C25.6324 17.7322 22.7132 18.4287 20.0793 17.7473C17.6027 17.0308 15.5914 15.2182 14.6051 12.869ZM23.8839 8.46449C23.1662 7.73927 23.1662 6.55073 23.8839 5.82551C24.6016 5.10029 25.7778 5.10029 26.4955 5.82551C27.2132 6.55073 27.2132 7.73927 26.4955 8.46449C25.7778 9.18971 24.6115 9.18971 23.8839 8.46449Z"
        fill="url(#paint6_linear_18_23714)" />
    <path
        d="M14.6052 12.8196L19.3709 13.5087L19.1187 17.4317C19.1098 17.4281 19.101 17.4245 19.0921 17.4209C17.6761 18.8362 15.9246 20.5893 15.5 21.0254C15.29 21.2354 14.92 21.3454 14.58 21.2454C14.17 21.1254 13.74 21.1254 13.28 21.2754C12.75 21.4554 12.39 22.0854 12.41 22.3754C12.45 23.0054 12.35 23.2754 12.07 23.5654C11.7883 23.8609 11.4895 23.8921 11.1766 23.9246C10.812 23.9626 10.4282 24.0025 10.03 24.4654C9.62999 24.9354 9.55999 25.6454 9.69999 26.1754C9.77999 26.4854 9.67999 26.8554 9.39999 27.1354C8.89999 27.6354 7.54046 28.9749 7.54046 28.9749C6.51046 30.0049 4.89046 30.3149 3.63046 29.5849C1.72046 28.4849 1.49046 25.9749 2.93046 24.5349L14.6195 12.8545C14.6147 12.8429 14.61 12.8312 14.6052 12.8196Z"
        fill="url(#paint7_linear_18_23714)" />
    <path
        d="M14.6052 12.8196L19.3709 13.5087L19.1187 17.4317C19.1098 17.4281 19.101 17.4245 19.0921 17.4209C17.6761 18.8362 15.9246 20.5893 15.5 21.0254C15.29 21.2354 14.92 21.3454 14.58 21.2454C14.17 21.1254 13.74 21.1254 13.28 21.2754C12.75 21.4554 12.39 22.0854 12.41 22.3754C12.45 23.0054 12.35 23.2754 12.07 23.5654C11.7883 23.8609 11.4895 23.8921 11.1766 23.9246C10.812 23.9626 10.4282 24.0025 10.03 24.4654C9.62999 24.9354 9.55999 25.6454 9.69999 26.1754C9.77999 26.4854 9.67999 26.8554 9.39999 27.1354C8.89999 27.6354 7.54046 28.9749 7.54046 28.9749C6.51046 30.0049 4.89046 30.3149 3.63046 29.5849C1.72046 28.4849 1.49046 25.9749 2.93046 24.5349L14.6195 12.8545C14.6147 12.8429 14.61 12.8312 14.6052 12.8196Z"
        fill="url(#paint8_radial_18_23714)" fill-opacity="0.2" />
    <path
        d="M14.6052 12.8196L19.3709 13.5087L19.1187 17.4317C19.1098 17.4281 19.101 17.4245 19.0921 17.4209C17.6761 18.8362 15.9246 20.5893 15.5 21.0254C15.29 21.2354 14.92 21.3454 14.58 21.2454C14.17 21.1254 13.74 21.1254 13.28 21.2754C12.75 21.4554 12.39 22.0854 12.41 22.3754C12.45 23.0054 12.35 23.2754 12.07 23.5654C11.7883 23.8609 11.4895 23.8921 11.1766 23.9246C10.812 23.9626 10.4282 24.0025 10.03 24.4654C9.62999 24.9354 9.55999 25.6454 9.69999 26.1754C9.77999 26.4854 9.67999 26.8554 9.39999 27.1354C8.89999 27.6354 7.54046 28.9749 7.54046 28.9749C6.51046 30.0049 4.89046 30.3149 3.63046 29.5849C1.72046 28.4849 1.49046 25.9749 2.93046 24.5349L14.6195 12.8545C14.6147 12.8429 14.61 12.8312 14.6052 12.8196Z"
        fill="url(#paint9_linear_18_23714)" />
    <path
        d="M14.6052 12.8196L19.3709 13.5087L19.1187 17.4317C19.1098 17.4281 19.101 17.4245 19.0921 17.4209C17.6761 18.8362 15.9246 20.5893 15.5 21.0254C15.29 21.2354 14.92 21.3454 14.58 21.2454C14.17 21.1254 13.74 21.1254 13.28 21.2754C12.75 21.4554 12.39 22.0854 12.41 22.3754C12.45 23.0054 12.35 23.2754 12.07 23.5654C11.7883 23.8609 11.4895 23.8921 11.1766 23.9246C10.812 23.9626 10.4282 24.0025 10.03 24.4654C9.62999 24.9354 9.55999 25.6454 9.69999 26.1754C9.77999 26.4854 9.67999 26.8554 9.39999 27.1354C8.89999 27.6354 7.54046 28.9749 7.54046 28.9749C6.51046 30.0049 4.89046 30.3149 3.63046 29.5849C1.72046 28.4849 1.49046 25.9749 2.93046 24.5349L14.6195 12.8545C14.6147 12.8429 14.61 12.8312 14.6052 12.8196Z"
        fill="url(#paint10_linear_18_23714)" fill-opacity="0.2" />
    <path
        d="M14.6052 12.8196L19.3709 13.5087L19.1187 17.4317C19.1098 17.4281 19.101 17.4245 19.0921 17.4209C17.6761 18.8362 15.9246 20.5893 15.5 21.0254C15.29 21.2354 14.92 21.3454 14.58 21.2454C14.17 21.1254 13.74 21.1254 13.28 21.2754C12.75 21.4554 12.39 22.0854 12.41 22.3754C12.45 23.0054 12.35 23.2754 12.07 23.5654C11.7883 23.8609 11.4895 23.8921 11.1766 23.9246C10.812 23.9626 10.4282 24.0025 10.03 24.4654C9.62999 24.9354 9.55999 25.6454 9.69999 26.1754C9.77999 26.4854 9.67999 26.8554 9.39999 27.1354C8.89999 27.6354 7.54046 28.9749 7.54046 28.9749C6.51046 30.0049 4.89046 30.3149 3.63046 29.5849C1.72046 28.4849 1.49046 25.9749 2.93046 24.5349L14.6195 12.8545C14.6147 12.8429 14.61 12.8312 14.6052 12.8196Z"
        fill="url(#paint11_linear_18_23714)" />
    <path
        d="M14.6052 12.8196L19.3709 13.5087L19.1187 17.4317C19.1098 17.4281 19.101 17.4245 19.0921 17.4209C17.6761 18.8362 15.9246 20.5893 15.5 21.0254C15.29 21.2354 14.92 21.3454 14.58 21.2454C14.17 21.1254 13.74 21.1254 13.28 21.2754C12.75 21.4554 12.39 22.0854 12.41 22.3754C12.45 23.0054 12.35 23.2754 12.07 23.5654C11.7883 23.8609 11.4895 23.8921 11.1766 23.9246C10.812 23.9626 10.4282 24.0025 10.03 24.4654C9.62999 24.9354 9.55999 25.6454 9.69999 26.1754C9.77999 26.4854 9.67999 26.8554 9.39999 27.1354C8.89999 27.6354 7.54046 28.9749 7.54046 28.9749C6.51046 30.0049 4.89046 30.3149 3.63046 29.5849C1.72046 28.4849 1.49046 25.9749 2.93046 24.5349L14.6195 12.8545C14.6147 12.8429 14.61 12.8312 14.6052 12.8196Z"
        fill="url(#paint12_linear_18_23714)" fill-opacity="0.2" />
    <path
        d="M14.6052 12.8196L19.3709 13.5087L19.1187 17.4317C19.1098 17.4281 19.101 17.4245 19.0921 17.4209C17.6761 18.8362 15.9246 20.5893 15.5 21.0254C15.29 21.2354 14.92 21.3454 14.58 21.2454C14.17 21.1254 13.74 21.1254 13.28 21.2754C12.75 21.4554 12.39 22.0854 12.41 22.3754C12.45 23.0054 12.35 23.2754 12.07 23.5654C11.7883 23.8609 11.4895 23.8921 11.1766 23.9246C10.812 23.9626 10.4282 24.0025 10.03 24.4654C9.62999 24.9354 9.55999 25.6454 9.69999 26.1754C9.77999 26.4854 9.67999 26.8554 9.39999 27.1354C8.89999 27.6354 7.54046 28.9749 7.54046 28.9749C6.51046 30.0049 4.89046 30.3149 3.63046 29.5849C1.72046 28.4849 1.49046 25.9749 2.93046 24.5349L14.6195 12.8545C14.6147 12.8429 14.61 12.8312 14.6052 12.8196Z"
        fill="url(#paint13_radial_18_23714)" fill-opacity="0.2" />
    <path
        d="M14.6052 12.8196L19.3709 13.5087L19.1187 17.4317C19.1098 17.4281 19.101 17.4245 19.0921 17.4209C17.6761 18.8362 15.9246 20.5893 15.5 21.0254C15.29 21.2354 14.92 21.3454 14.58 21.2454C14.17 21.1254 13.74 21.1254 13.28 21.2754C12.75 21.4554 12.39 22.0854 12.41 22.3754C12.45 23.0054 12.35 23.2754 12.07 23.5654C11.7883 23.8609 11.4895 23.8921 11.1766 23.9246C10.812 23.9626 10.4282 24.0025 10.03 24.4654C9.62999 24.9354 9.55999 25.6454 9.69999 26.1754C9.77999 26.4854 9.67999 26.8554 9.39999 27.1354C8.89999 27.6354 7.54046 28.9749 7.54046 28.9749C6.51046 30.0049 4.89046 30.3149 3.63046 29.5849C1.72046 28.4849 1.49046 25.9749 2.93046 24.5349L14.6195 12.8545C14.6147 12.8429 14.61 12.8312 14.6052 12.8196Z"
        fill="url(#paint14_radial_18_23714)" fill-opacity="0.2" />
    <path
        d="M14.6052 12.8196L19.3709 13.5087L19.1187 17.4317C19.1098 17.4281 19.101 17.4245 19.0921 17.4209C17.6761 18.8362 15.9246 20.5893 15.5 21.0254C15.29 21.2354 14.92 21.3454 14.58 21.2454C14.17 21.1254 13.74 21.1254 13.28 21.2754C12.75 21.4554 12.39 22.0854 12.41 22.3754C12.45 23.0054 12.35 23.2754 12.07 23.5654C11.7883 23.8609 11.4895 23.8921 11.1766 23.9246C10.812 23.9626 10.4282 24.0025 10.03 24.4654C9.62999 24.9354 9.55999 25.6454 9.69999 26.1754C9.77999 26.4854 9.67999 26.8554 9.39999 27.1354C8.89999 27.6354 7.54046 28.9749 7.54046 28.9749C6.51046 30.0049 4.89046 30.3149 3.63046 29.5849C1.72046 28.4849 1.49046 25.9749 2.93046 24.5349L14.6195 12.8545C14.6147 12.8429 14.61 12.8312 14.6052 12.8196Z"
        fill="url(#paint15_radial_18_23714)" />
    <path
        d="M14.6052 12.8196L19.3709 13.5087L19.1187 17.4317C19.1098 17.4281 19.101 17.4245 19.0921 17.4209C17.6761 18.8362 15.9246 20.5893 15.5 21.0254C15.29 21.2354 14.92 21.3454 14.58 21.2454C14.17 21.1254 13.74 21.1254 13.28 21.2754C12.75 21.4554 12.39 22.0854 12.41 22.3754C12.45 23.0054 12.35 23.2754 12.07 23.5654C11.7883 23.8609 11.4895 23.8921 11.1766 23.9246C10.812 23.9626 10.4282 24.0025 10.03 24.4654C9.62999 24.9354 9.55999 25.6454 9.69999 26.1754C9.77999 26.4854 9.67999 26.8554 9.39999 27.1354C8.89999 27.6354 7.54046 28.9749 7.54046 28.9749C6.51046 30.0049 4.89046 30.3149 3.63046 29.5849C1.72046 28.4849 1.49046 25.9749 2.93046 24.5349L14.6195 12.8545C14.6147 12.8429 14.61 12.8312 14.6052 12.8196Z"
        fill="url(#paint16_radial_18_23714)" />
    <path
        d="M14.6052 12.8196L19.3709 13.5087L19.1187 17.4317C19.1098 17.4281 19.101 17.4245 19.0921 17.4209C17.6761 18.8362 15.9246 20.5893 15.5 21.0254C15.29 21.2354 14.92 21.3454 14.58 21.2454C14.17 21.1254 13.74 21.1254 13.28 21.2754C12.75 21.4554 12.39 22.0854 12.41 22.3754C12.45 23.0054 12.35 23.2754 12.07 23.5654C11.7883 23.8609 11.4895 23.8921 11.1766 23.9246C10.812 23.9626 10.4282 24.0025 10.03 24.4654C9.62999 24.9354 9.55999 25.6454 9.69999 26.1754C9.77999 26.4854 9.67999 26.8554 9.39999 27.1354C8.89999 27.6354 7.54046 28.9749 7.54046 28.9749C6.51046 30.0049 4.89046 30.3149 3.63046 29.5849C1.72046 28.4849 1.49046 25.9749 2.93046 24.5349L14.6195 12.8545C14.6147 12.8429 14.61 12.8312 14.6052 12.8196Z"
        fill="url(#paint17_radial_18_23714)" />
    <defs>
        <linearGradient id="paint0_linear_18_23714" x1="32.9134" y1="-1.3979" x2="7.13512"
            y2="28.547" gradientUnits="userSpaceOnUse">
            <stop stop-color="#FED347" />
            <stop offset="0.890055" stop-color="#F38E4A" />
        </linearGradient>
        <radialGradient id="paint1_radial_18_23714" cx="0" cy="0" r="1"
            gradientUnits="userSpaceOnUse"
            gradientTransform="translate(22.3752 9.56277) rotate(94.0856) scale(9.9774 9.98297)">
            <stop offset="0.776227" stop-color="#9B6232" stop-opacity="0" />
            <stop offset="0.845792" stop-color="#5B1515" />
        </radialGradient>
        <radialGradient id="paint2_radial_18_23714" cx="0" cy="0" r="1"
            gradientUnits="userSpaceOnUse"
            gradientTransform="translate(26.185 7.35618) rotate(45) scale(10.6232 10.6291)">
            <stop offset="0.243965" stop-color="#FFDC46" />
            <stop offset="1" stop-color="#FFDC46" stop-opacity="0" />
        </radialGradient>
        <radialGradient id="paint3_radial_18_23714" cx="0" cy="0" r="1"
            gradientUnits="userSpaceOnUse"
            gradientTransform="translate(20.6221 10.5196) rotate(84.8367) scale(11.4747 11.4811)">
            <stop offset="0.749541" stop-color="#FFFF6A" stop-opacity="0" />
            <stop offset="0.800583" stop-color="#FFFF6A" />
        </radialGradient>
        <radialGradient id="paint4_radial_18_23714" cx="0" cy="0" r="1"
            gradientUnits="userSpaceOnUse"
            gradientTransform="translate(25.3742 7.01589) rotate(104.33) scale(13.4204 13.4278)">
            <stop offset="0.119335" stop-color="#C5992F" />
            <stop offset="0.181771" stop-color="#DDAE3B" stop-opacity="0" />
        </radialGradient>
        <radialGradient id="paint5_radial_18_23714" cx="0" cy="0" r="1"
            gradientUnits="userSpaceOnUse"
            gradientTransform="translate(24.8828 7.38662) rotate(135.752) scale(4.70944 4.71207)">
            <stop offset="0.348169" stop-color="#FFFD5B" />
            <stop offset="0.481465" stop-color="#FEF95E" stop-opacity="0" />
        </radialGradient>
        <linearGradient id="paint6_linear_18_23714" x1="21.8755" y1="9.26062" x2="5.48886"
            y2="29.3179" gradientUnits="userSpaceOnUse">
            <stop stop-color="#FFDC46" stop-opacity="0" />
            <stop offset="0.369326" stop-color="#F9BF46" />
            <stop offset="0.890055" stop-color="#F38E4A" />
        </linearGradient>
        <linearGradient id="paint7_linear_18_23714" x1="21.1783" y1="10.7354" x2="5.39445"
            y2="29.2803" gradientUnits="userSpaceOnUse">
            <stop stop-color="#FED347" />
            <stop offset="0.890055" stop-color="#F38E4A" />
        </linearGradient>
        <radialGradient id="paint8_radial_18_23714" cx="0" cy="0" r="1"
            gradientUnits="userSpaceOnUse"
            gradientTransform="translate(5.90135 26.1292) rotate(133.964) scale(3.98848 3.48838)">
            <stop offset="0.871463" stop-color="#EDA14C" stop-opacity="0" />
            <stop offset="0.950188" stop-color="#5E1313" />
        </radialGradient>
        <linearGradient id="paint9_linear_18_23714" x1="21.1783" y1="10.7354" x2="5.39445"
            y2="29.2803" gradientUnits="userSpaceOnUse">
            <stop stop-color="#FED347" />
            <stop offset="0.830204" stop-color="#F4934A" />
            <stop offset="0.890055" stop-color="#F38E4A" stop-opacity="0" />
        </linearGradient>
        <linearGradient id="paint10_linear_18_23714" x1="16.2312" y1="21.1815" x2="15.0572"
            y2="20.0076" gradientUnits="userSpaceOnUse">
            <stop offset="0.453125" stop-color="#5E1313" />
            <stop offset="0.78125" stop-color="#EDA14C" stop-opacity="0" />
        </linearGradient>
        <linearGradient id="paint11_linear_18_23714" x1="9.82968" y1="15.5094" x2="11.5821"
            y2="17.2619" gradientUnits="userSpaceOnUse">
            <stop stop-color="#FFFF6B" />
            <stop offset="1" stop-color="#FFFF6B" stop-opacity="0" />
        </linearGradient>
        <linearGradient id="paint12_linear_18_23714" x1="10.6855" y1="15.6359" x2="12.1135"
            y2="17.0639" gradientUnits="userSpaceOnUse">
            <stop offset="0.470995" stop-color="#5E1313" />
            <stop offset="0.692708" stop-color="#EDA14C" stop-opacity="0" />
        </linearGradient>
        <radialGradient id="paint13_radial_18_23714" cx="0" cy="0" r="1"
            gradientUnits="userSpaceOnUse"
            gradientTransform="translate(13.9487 22.7861) rotate(45.3219) scale(3.24143 3.28035)">
            <stop offset="0.554945" stop-color="#5E1313" />
            <stop offset="0.708791" stop-color="#EDA14C" stop-opacity="0" />
        </radialGradient>
        <radialGradient id="paint14_radial_18_23714" cx="0" cy="0" r="1"
            gradientUnits="userSpaceOnUse"
            gradientTransform="translate(11.2262 25.5726) rotate(38.8953) scale(3.27363 3.31294)">
            <stop offset="0.554945" stop-color="#5E1313" />
            <stop offset="0.708791" stop-color="#EDA14C" stop-opacity="0" />
        </radialGradient>
        <radialGradient id="paint15_radial_18_23714" cx="0" cy="0" r="1"
            gradientUnits="userSpaceOnUse"
            gradientTransform="translate(19.1312 13.2118) rotate(96.9292) scale(5.20876 5.27131)">
            <stop offset="0.508547" stop-color="#FBC148" />
            <stop offset="0.809028" stop-color="#FBC148" stop-opacity="0" />
        </radialGradient>
        <radialGradient id="paint16_radial_18_23714" cx="0" cy="0" r="1"
            gradientUnits="userSpaceOnUse"
            gradientTransform="translate(16.5566 12.8196) rotate(80.0598) scale(1.86045 1.88279)">
            <stop offset="0.390296" stop-color="#FABE47" />
            <stop offset="0.762822" stop-color="#FABE47" stop-opacity="0" />
        </radialGradient>
        <radialGradient id="paint17_radial_18_23714" cx="0" cy="0" r="1"
            gradientUnits="userSpaceOnUse"
            gradientTransform="translate(19.1778 14.0081) rotate(144.197) scale(3.55213 3.59478)">
            <stop offset="0.390296" stop-color="#FABE47" />
            <stop offset="0.762822" stop-color="#FABE47" stop-opacity="0" />
        </radialGradient>
    </defs>
</svg>