<svg width="32" height="32" viewBox="0 0 32 32" fill="none" xmlns="http://www.w3.org/2000/svg">
    <rect x="6.04297" y="5.20312" width="22.7812" height="24.75" rx="1"
        fill="url(#paint0_linear_18_20934)" />
    <rect x="6.04297" y="5.20312" width="22.7812" height="24.75" rx="1"
        fill="url(#paint1_linear_18_20934)" fill-opacity="0.76" />
    <rect x="6.04297" y="5.20312" width="22.7812" height="24.75" rx="1"
        fill="url(#paint2_radial_18_20934)" fill-opacity="0.44" />
    <rect x="6.04297" y="5.20312" width="22.7812" height="24.75" rx="1"
        fill="url(#paint3_radial_18_20934)" />
    <rect x="6.04297" y="5.20312" width="22.7812" height="24.75" rx="1"
        fill="url(#paint4_radial_18_20934)" />
    <rect x="6.04297" y="5.20312" width="22.7812" height="24.75" rx="1"
        fill="url(#paint5_linear_18_20934)" fill-opacity="0.76" />
    <rect x="7.04297" y="5.20312" width="20.7812" height="23.5938" rx="1.2"
        fill="url(#paint6_linear_18_20934)" />
    <rect x="7.04297" y="5.20312" width="20.7812" height="23.5938" rx="1.2"
        fill="url(#paint7_linear_18_20934)" fill-opacity="0.24" />
    <rect x="7.04297" y="5.20312" width="20.7812" height="23.5938" rx="1.2"
        fill="url(#paint8_linear_18_20934)" fill-opacity="0.44" />
    <rect x="7.04297" y="5.20312" width="20.7812" height="23.5938" rx="1.2"
        fill="url(#paint9_linear_18_20934)" fill-opacity="0.41" />
    <rect x="6.04297" y="2.04688" width="22.7812" height="24.75" rx="1"
        fill="url(#paint10_linear_18_20934)" />
    <rect x="6.04297" y="2.04688" width="22.7812" height="24.75" rx="1"
        fill="url(#paint11_linear_18_20934)" fill-opacity="0.76" />
    <rect x="6.04297" y="2.04688" width="22.7812" height="24.75" rx="1"
        fill="url(#paint12_radial_18_20934)" fill-opacity="0.79" />
    <rect x="6.04297" y="2.04688" width="22.7812" height="24.75" rx="1"
        fill="url(#paint13_radial_18_20934)" fill-opacity="0.44" />
    <rect x="6.04297" y="2.04688" width="22.7812" height="24.75" rx="1"
        fill="url(#paint14_radial_18_20934)" />
    <rect x="6.04297" y="2.04688" width="22.7812" height="24.75" rx="1"
        fill="url(#paint15_radial_18_20934)" />
    <rect x="6.04297" y="2.04688" width="22.7812" height="24.75" rx="1"
        fill="url(#paint16_radial_18_20934)" />
    <rect x="6.04297" y="2.04688" width="22.7812" height="24.75" rx="1"
        fill="url(#paint17_radial_18_20934)" />
    <rect x="12.3242" y="7.75" width="10.2812" height="3.76562" rx="1"
        fill="url(#paint18_linear_18_20934)" />
    <path
        d="M4.56333 6.29302C4.56333 5.25792 5.40245 4.4188 6.43755 4.4188C7.41916 4.4188 8.22513 5.17392 8.30519 6.13446C8.33731 6.51973 8.67565 6.80601 9.06092 6.7739C9.44618 6.74179 9.73247 6.40344 9.70036 6.01818C9.56033 4.33813 8.15338 3.0188 6.43755 3.0188C4.62925 3.0188 3.16333 4.48472 3.16333 6.29302C3.16333 7.96779 4.42076 9.34888 6.04303 9.54371V8.12564C5.19737 7.94446 4.56333 7.19278 4.56333 6.29302Z"
        fill="url(#paint19_linear_18_20934)" />
    <path
        d="M4.56333 6.29302C4.56333 5.25792 5.40245 4.4188 6.43755 4.4188C7.41916 4.4188 8.22513 5.17392 8.30519 6.13446C8.33731 6.51973 8.67565 6.80601 9.06092 6.7739C9.44618 6.74179 9.73247 6.40344 9.70036 6.01818C9.56033 4.33813 8.15338 3.0188 6.43755 3.0188C4.62925 3.0188 3.16333 4.48472 3.16333 6.29302C3.16333 7.96779 4.42076 9.34888 6.04303 9.54371V8.12564C5.19737 7.94446 4.56333 7.19278 4.56333 6.29302Z"
        fill="url(#paint20_radial_18_20934)" />
    <path
        d="M4.56333 6.29302C4.56333 5.25792 5.40245 4.4188 6.43755 4.4188C7.41916 4.4188 8.22513 5.17392 8.30519 6.13446C8.33731 6.51973 8.67565 6.80601 9.06092 6.7739C9.44618 6.74179 9.73247 6.40344 9.70036 6.01818C9.56033 4.33813 8.15338 3.0188 6.43755 3.0188C4.62925 3.0188 3.16333 4.48472 3.16333 6.29302C3.16333 7.96779 4.42076 9.34888 6.04303 9.54371V8.12564C5.19737 7.94446 4.56333 7.19278 4.56333 6.29302Z"
        fill="url(#paint21_radial_18_20934)" />
    <path
        d="M4.56333 11.4297C4.56333 10.3946 5.40245 9.55552 6.43755 9.55552C7.41916 9.55552 8.22513 10.3106 8.30519 11.2712C8.33731 11.6564 8.67565 11.9427 9.06092 11.9106C9.44618 11.8785 9.73247 11.5402 9.70036 11.1549C9.56033 9.47485 8.15338 8.15552 6.43755 8.15552C4.62925 8.15552 3.16333 9.62144 3.16333 11.4297C3.16333 13.1045 4.42076 14.4856 6.04303 14.6804V13.2624C5.19737 13.0812 4.56333 12.3295 4.56333 11.4297Z"
        fill="url(#paint22_linear_18_20934)" />
    <path
        d="M4.56333 11.4297C4.56333 10.3946 5.40245 9.55552 6.43755 9.55552C7.41916 9.55552 8.22513 10.3106 8.30519 11.2712C8.33731 11.6564 8.67565 11.9427 9.06092 11.9106C9.44618 11.8785 9.73247 11.5402 9.70036 11.1549C9.56033 9.47485 8.15338 8.15552 6.43755 8.15552C4.62925 8.15552 3.16333 9.62144 3.16333 11.4297C3.16333 13.1045 4.42076 14.4856 6.04303 14.6804V13.2624C5.19737 13.0812 4.56333 12.3295 4.56333 11.4297Z"
        fill="url(#paint23_radial_18_20934)" />
    <path
        d="M4.56333 11.4297C4.56333 10.3946 5.40245 9.55552 6.43755 9.55552C7.41916 9.55552 8.22513 10.3106 8.30519 11.2712C8.33731 11.6564 8.67565 11.9427 9.06092 11.9106C9.44618 11.8785 9.73247 11.5402 9.70036 11.1549C9.56033 9.47485 8.15338 8.15552 6.43755 8.15552C4.62925 8.15552 3.16333 9.62144 3.16333 11.4297C3.16333 13.1045 4.42076 14.4856 6.04303 14.6804V13.2624C5.19737 13.0812 4.56333 12.3295 4.56333 11.4297Z"
        fill="url(#paint24_radial_18_20934)" />
    <path
        d="M4.56333 16.5899C4.56333 15.5548 5.40245 14.7157 6.43755 14.7157C7.41916 14.7157 8.22513 15.4708 8.30519 16.4313C8.33731 16.8166 8.67565 17.1029 9.06092 17.0708C9.44618 17.0387 9.73247 16.7003 9.70036 16.3151C9.56033 14.635 8.15338 13.3157 6.43755 13.3157C4.62925 13.3157 3.16333 14.7816 3.16333 16.5899C3.16333 18.2647 4.42076 19.6458 6.04303 19.8406V18.4225C5.19737 18.2413 4.56333 17.4897 4.56333 16.5899Z"
        fill="url(#paint25_linear_18_20934)" />
    <path
        d="M4.56333 16.5899C4.56333 15.5548 5.40245 14.7157 6.43755 14.7157C7.41916 14.7157 8.22513 15.4708 8.30519 16.4313C8.33731 16.8166 8.67565 17.1029 9.06092 17.0708C9.44618 17.0387 9.73247 16.7003 9.70036 16.3151C9.56033 14.635 8.15338 13.3157 6.43755 13.3157C4.62925 13.3157 3.16333 14.7816 3.16333 16.5899C3.16333 18.2647 4.42076 19.6458 6.04303 19.8406V18.4225C5.19737 18.2413 4.56333 17.4897 4.56333 16.5899Z"
        fill="url(#paint26_radial_18_20934)" />
    <path
        d="M4.56333 16.5899C4.56333 15.5548 5.40245 14.7157 6.43755 14.7157C7.41916 14.7157 8.22513 15.4708 8.30519 16.4313C8.33731 16.8166 8.67565 17.1029 9.06092 17.0708C9.44618 17.0387 9.73247 16.7003 9.70036 16.3151C9.56033 14.635 8.15338 13.3157 6.43755 13.3157C4.62925 13.3157 3.16333 14.7816 3.16333 16.5899C3.16333 18.2647 4.42076 19.6458 6.04303 19.8406V18.4225C5.19737 18.2413 4.56333 17.4897 4.56333 16.5899Z"
        fill="url(#paint27_radial_18_20934)" />
    <path
        d="M4.56333 21.7383C4.56333 20.7032 5.40245 19.8641 6.43755 19.8641C7.41916 19.8641 8.22513 20.6192 8.30519 21.5798C8.33731 21.965 8.67565 22.2513 9.06092 22.2192C9.44618 22.1871 9.73247 21.8488 9.70036 21.4635C9.56033 19.7834 8.15338 18.4641 6.43755 18.4641C4.62925 18.4641 3.16333 19.93 3.16333 21.7383C3.16333 23.4131 4.42076 24.7942 6.04303 24.989V23.571C5.19737 23.3898 4.56333 22.6381 4.56333 21.7383Z"
        fill="url(#paint28_linear_18_20934)" />
    <path
        d="M4.56333 21.7383C4.56333 20.7032 5.40245 19.8641 6.43755 19.8641C7.41916 19.8641 8.22513 20.6192 8.30519 21.5798C8.33731 21.965 8.67565 22.2513 9.06092 22.2192C9.44618 22.1871 9.73247 21.8488 9.70036 21.4635C9.56033 19.7834 8.15338 18.4641 6.43755 18.4641C4.62925 18.4641 3.16333 19.93 3.16333 21.7383C3.16333 23.4131 4.42076 24.7942 6.04303 24.989V23.571C5.19737 23.3898 4.56333 22.6381 4.56333 21.7383Z"
        fill="url(#paint29_radial_18_20934)" />
    <path
        d="M4.56333 21.7383C4.56333 20.7032 5.40245 19.8641 6.43755 19.8641C7.41916 19.8641 8.22513 20.6192 8.30519 21.5798C8.33731 21.965 8.67565 22.2513 9.06092 22.2192C9.44618 22.1871 9.73247 21.8488 9.70036 21.4635C9.56033 19.7834 8.15338 18.4641 6.43755 18.4641C4.62925 18.4641 3.16333 19.93 3.16333 21.7383C3.16333 23.4131 4.42076 24.7942 6.04303 24.989V23.571C5.19737 23.3898 4.56333 22.6381 4.56333 21.7383Z"
        fill="url(#paint30_radial_18_20934)" />
    <g opacity="0.54">
        <path
            d="M6.4375 8.63672C5.0158 8.63672 3.86328 7.4842 3.86328 6.0625C3.86328 4.6408 5.0158 3.48828 6.4375 3.48828C7.78622 3.48828 8.89268 4.52551 9.00273 5.8458"
            stroke="url(#paint31_radial_18_20934)" stroke-width="4" stroke-linecap="round" />
        <path
            d="M6.4375 8.63672C5.0158 8.63672 3.86328 7.4842 3.86328 6.0625C3.86328 4.6408 5.0158 3.48828 6.4375 3.48828C7.78622 3.48828 8.89268 4.52551 9.00273 5.8458"
            stroke="url(#paint32_radial_18_20934)" stroke-width="4" stroke-linecap="round" />
        <path
            d="M6.4375 8.63672C5.0158 8.63672 3.86328 7.4842 3.86328 6.0625C3.86328 4.6408 5.0158 3.48828 6.4375 3.48828C7.78622 3.48828 8.89268 4.52551 9.00273 5.8458"
            stroke="url(#paint33_radial_18_20934)" stroke-width="4" stroke-linecap="round" />
        <path
            d="M6.4375 8.63672C5.0158 8.63672 3.86328 7.4842 3.86328 6.0625C3.86328 4.6408 5.0158 3.48828 6.4375 3.48828C7.78622 3.48828 8.89268 4.52551 9.00273 5.8458"
            stroke="url(#paint34_radial_18_20934)" stroke-width="4" stroke-linecap="round" />
    </g>
    <g opacity="0.54">
        <path
            d="M6.4375 13.7852C5.0158 13.7852 3.86328 12.6326 3.86328 11.2109C3.86328 9.78924 5.0158 8.63672 6.4375 8.63672C7.78622 8.63672 8.89268 9.67395 9.00273 10.9942"
            stroke="url(#paint35_radial_18_20934)" stroke-width="4" stroke-linecap="round" />
        <path
            d="M6.4375 13.7852C5.0158 13.7852 3.86328 12.6326 3.86328 11.2109C3.86328 9.78924 5.0158 8.63672 6.4375 8.63672C7.78622 8.63672 8.89268 9.67395 9.00273 10.9942"
            stroke="url(#paint36_radial_18_20934)" stroke-width="4" stroke-linecap="round" />
        <path
            d="M6.4375 13.7852C5.0158 13.7852 3.86328 12.6326 3.86328 11.2109C3.86328 9.78924 5.0158 8.63672 6.4375 8.63672C7.78622 8.63672 8.89268 9.67395 9.00273 10.9942"
            stroke="url(#paint37_radial_18_20934)" stroke-width="4" stroke-linecap="round" />
        <path
            d="M6.4375 13.7852C5.0158 13.7852 3.86328 12.6326 3.86328 11.2109C3.86328 9.78924 5.0158 8.63672 6.4375 8.63672C7.78622 8.63672 8.89268 9.67395 9.00273 10.9942"
            stroke="url(#paint38_radial_18_20934)" stroke-width="4" stroke-linecap="round" />
    </g>
    <g opacity="0.54">
        <path
            d="M6.4375 18.9336C5.0158 18.9336 3.86328 17.7811 3.86328 16.3594C3.86328 14.9377 5.0158 13.7852 6.4375 13.7852C7.78622 13.7852 8.89268 14.8224 9.00273 16.1427"
            stroke="url(#paint39_radial_18_20934)" stroke-width="4" stroke-linecap="round" />
        <path
            d="M6.4375 18.9336C5.0158 18.9336 3.86328 17.7811 3.86328 16.3594C3.86328 14.9377 5.0158 13.7852 6.4375 13.7852C7.78622 13.7852 8.89268 14.8224 9.00273 16.1427"
            stroke="url(#paint40_radial_18_20934)" stroke-width="4" stroke-linecap="round" />
        <path
            d="M6.4375 18.9336C5.0158 18.9336 3.86328 17.7811 3.86328 16.3594C3.86328 14.9377 5.0158 13.7852 6.4375 13.7852C7.78622 13.7852 8.89268 14.8224 9.00273 16.1427"
            stroke="url(#paint41_radial_18_20934)" stroke-width="4" stroke-linecap="round" />
        <path
            d="M6.4375 18.9336C5.0158 18.9336 3.86328 17.7811 3.86328 16.3594C3.86328 14.9377 5.0158 13.7852 6.4375 13.7852C7.78622 13.7852 8.89268 14.8224 9.00273 16.1427"
            stroke="url(#paint42_radial_18_20934)" stroke-width="4" stroke-linecap="round" />
    </g>
    <g opacity="0.54">
        <path
            d="M6.4375 24.082C5.0158 24.082 3.86328 22.9295 3.86328 21.5078C3.86328 20.0861 5.0158 18.9336 6.4375 18.9336C7.78622 18.9336 8.89268 19.9708 9.00273 21.2911"
            stroke="url(#paint43_radial_18_20934)" stroke-width="4" stroke-linecap="round" />
        <path
            d="M6.4375 24.082C5.0158 24.082 3.86328 22.9295 3.86328 21.5078C3.86328 20.0861 5.0158 18.9336 6.4375 18.9336C7.78622 18.9336 8.89268 19.9708 9.00273 21.2911"
            stroke="url(#paint44_radial_18_20934)" stroke-width="4" stroke-linecap="round" />
        <path
            d="M6.4375 24.082C5.0158 24.082 3.86328 22.9295 3.86328 21.5078C3.86328 20.0861 5.0158 18.9336 6.4375 18.9336C7.78622 18.9336 8.89268 19.9708 9.00273 21.2911"
            stroke="url(#paint45_radial_18_20934)" stroke-width="4" stroke-linecap="round" />
        <path
            d="M6.4375 24.082C5.0158 24.082 3.86328 22.9295 3.86328 21.5078C3.86328 20.0861 5.0158 18.9336 6.4375 18.9336C7.78622 18.9336 8.89268 19.9708 9.00273 21.2911"
            stroke="url(#paint46_radial_18_20934)" stroke-width="4" stroke-linecap="round" />
    </g>
    <defs>
        <linearGradient id="paint0_linear_18_20934" x1="17.4336" y1="5.20312" x2="17.4336"
            y2="29.9531" gradientUnits="userSpaceOnUse">
            <stop stop-color="#FFEA3A" />
            <stop offset="1" stop-color="#FFD336" />
        </linearGradient>
        <linearGradient id="paint1_linear_18_20934" x1="17.4336" y1="30.0782" x2="17.4336"
            y2="29.2739" gradientUnits="userSpaceOnUse">
            <stop stop-color="#8F581B" />
            <stop offset="1" stop-color="#D18E27" stop-opacity="0" />
        </linearGradient>
        <radialGradient id="paint2_radial_18_20934" cx="0" cy="0" r="1"
            gradientUnits="userSpaceOnUse"
            gradientTransform="translate(28.9157 29.3547) rotate(-127.46) scale(0.500245 0.873428)">
            <stop stop-color="#8F581B" />
            <stop offset="1" stop-color="#D18E27" stop-opacity="0" />
        </radialGradient>
        <radialGradient id="paint3_radial_18_20934" cx="0" cy="0" r="1"
            gradientUnits="userSpaceOnUse"
            gradientTransform="translate(6.04297 25.3299) rotate(-30.0314) scale(23.3774 21.5179)">
            <stop offset="0.243034" stop-color="#E8B830" />
            <stop offset="1" stop-color="#EABB30" stop-opacity="0" />
        </radialGradient>
        <radialGradient id="paint4_radial_18_20934" cx="0" cy="0" r="1"
            gradientUnits="userSpaceOnUse"
            gradientTransform="translate(6.22541 29.9531) rotate(-160.19) scale(2.4776 0.933708)">
            <stop stop-color="#8F591B" />
            <stop offset="1" stop-color="#D18E27" stop-opacity="0" />
        </radialGradient>
        <linearGradient id="paint5_linear_18_20934" x1="17.4336" y1="30.0782" x2="17.4336"
            y2="29.2739" gradientUnits="userSpaceOnUse">
            <stop stop-color="#8F581B" />
            <stop offset="1" stop-color="#D18E27" stop-opacity="0" />
        </linearGradient>
        <linearGradient id="paint6_linear_18_20934" x1="17.4336" y1="27.1928" x2="17.4336"
            y2="27.9551" gradientUnits="userSpaceOnUse">
            <stop stop-color="#D1B0E9" />
            <stop offset="1" stop-color="#E4C1EA" />
            <stop offset="1" stop-color="#E4C1EA" stop-opacity="0" />
        </linearGradient>
        <linearGradient id="paint7_linear_18_20934" x1="17.4336" y1="28.3849" x2="17.4336"
            y2="27.9645" gradientUnits="userSpaceOnUse">
            <stop stop-color="white" />
            <stop offset="1" stop-color="#FFFDFE" stop-opacity="0" />
        </linearGradient>
        <linearGradient id="paint8_linear_18_20934" x1="27.755" y1="27.6333" x2="26.8746"
            y2="27.6231" gradientUnits="userSpaceOnUse">
            <stop stop-color="white" />
            <stop offset="1" stop-color="#FFFDFE" stop-opacity="0" />
        </linearGradient>
        <linearGradient id="paint9_linear_18_20934" x1="6.65414" y1="28.6645" x2="7.83004"
            y2="28.7969" gradientUnits="userSpaceOnUse">
            <stop stop-color="white" />
            <stop offset="1" stop-color="#FFFDFE" stop-opacity="0" />
        </linearGradient>
        <linearGradient id="paint10_linear_18_20934" x1="17.4336" y1="2.04687" x2="17.4336"
            y2="26.7969" gradientUnits="userSpaceOnUse">
            <stop stop-color="#FFEA3A" />
            <stop offset="1" stop-color="#FFD336" />
        </linearGradient>
        <linearGradient id="paint11_linear_18_20934" x1="17.4336" y1="26.9219" x2="17.4336"
            y2="26.1177" gradientUnits="userSpaceOnUse">
            <stop stop-color="#8F581B" />
            <stop offset="1" stop-color="#D18E27" stop-opacity="0" />
        </linearGradient>
        <radialGradient id="paint12_radial_18_20934" cx="0" cy="0" r="1"
            gradientUnits="userSpaceOnUse"
            gradientTransform="translate(5.93412 25.9405) rotate(57.2137) scale(1.41972 0.535035)">
            <stop stop-color="#8F581B" stop-opacity="0.77" />
            <stop offset="1" stop-color="#D18E27" stop-opacity="0" />
        </radialGradient>
        <radialGradient id="paint13_radial_18_20934" cx="0" cy="0" r="1"
            gradientUnits="userSpaceOnUse"
            gradientTransform="translate(28.9157 26.1985) rotate(-127.46) scale(0.500245 0.873428)">
            <stop stop-color="#8F581B" />
            <stop offset="1" stop-color="#D18E27" stop-opacity="0" />
        </radialGradient>
        <radialGradient id="paint14_radial_18_20934" cx="0" cy="0" r="1"
            gradientUnits="userSpaceOnUse"
            gradientTransform="translate(7.44323 20.8326) rotate(-154.564) scale(2.56151 0.884804)">
            <stop offset="0.231455" stop-color="#D39D2C" stop-opacity="0.83" />
            <stop offset="1" stop-color="#DBAB35" stop-opacity="0" />
        </radialGradient>
        <radialGradient id="paint15_radial_18_20934" cx="0" cy="0" r="1"
            gradientUnits="userSpaceOnUse"
            gradientTransform="translate(7.31629 15.7407) rotate(-156.001) scale(2.25419 0.872164)">
            <stop offset="0.231455" stop-color="#D39D2C" stop-opacity="0.83" />
            <stop offset="1" stop-color="#DBAB35" stop-opacity="0" />
        </radialGradient>
        <radialGradient id="paint16_radial_18_20934" cx="0" cy="0" r="1"
            gradientUnits="userSpaceOnUse"
            gradientTransform="translate(7.45734 10.5783) rotate(-153.932) scale(2.18262 0.844475)">
            <stop offset="0.231455" stop-color="#D39D2C" stop-opacity="0.83" />
            <stop offset="1" stop-color="#DBAB35" stop-opacity="0" />
        </radialGradient>
        <radialGradient id="paint17_radial_18_20934" cx="0" cy="0" r="1"
            gradientUnits="userSpaceOnUse"
            gradientTransform="translate(7.47144 5.44411) rotate(-153.435) scale(2.39701 0.927423)">
            <stop offset="0.231455" stop-color="#D39D2C" stop-opacity="0.83" />
            <stop offset="1" stop-color="#DBAB35" stop-opacity="0" />
        </radialGradient>
        <linearGradient id="paint18_linear_18_20934" x1="17.4648" y1="8.5449" x2="17.4648"
            y2="11.5156" gradientUnits="userSpaceOnUse">
            <stop stop-color="#FFD046" />
            <stop offset="1" stop-color="#FFBC41" />
        </linearGradient>
        <linearGradient id="paint19_linear_18_20934" x1="6.43307" y1="3.0188" x2="6.43307"
            y2="9.56724" gradientUnits="userSpaceOnUse">
            <stop stop-color="#C7C4CA" />
            <stop offset="1" stop-color="#A498AD" />
        </linearGradient>
        <radialGradient id="paint20_radial_18_20934" cx="0" cy="0" r="1"
            gradientUnits="userSpaceOnUse"
            gradientTransform="translate(6.43307 6.28125) rotate(-95.4788) scale(2.75095 3.10101)">
            <stop offset="0.402522" stop-color="#B8A5BD" />
            <stop offset="1" stop-color="#B8A5BD" stop-opacity="0" />
        </radialGradient>
        <radialGradient id="paint21_radial_18_20934" cx="0" cy="0" r="1"
            gradientUnits="userSpaceOnUse"
            gradientTransform="translate(7.01178 5.3125) rotate(119.954) scale(4.25597 3.94574)">
            <stop offset="0.707753" stop-color="#AA9DB4" stop-opacity="0" />
            <stop offset="1" stop-color="#8D7F98" />
        </radialGradient>
        <linearGradient id="paint22_linear_18_20934" x1="6.43307" y1="8.15552" x2="6.43307"
            y2="14.704" gradientUnits="userSpaceOnUse">
            <stop stop-color="#C7C4CA" />
            <stop offset="1" stop-color="#A498AD" />
        </linearGradient>
        <radialGradient id="paint23_radial_18_20934" cx="0" cy="0" r="1"
            gradientUnits="userSpaceOnUse"
            gradientTransform="translate(6.43307 11.418) rotate(-95.4788) scale(2.75095 3.10101)">
            <stop offset="0.402522" stop-color="#B8A5BD" />
            <stop offset="1" stop-color="#B8A5BD" stop-opacity="0" />
        </radialGradient>
        <radialGradient id="paint24_radial_18_20934" cx="0" cy="0" r="1"
            gradientUnits="userSpaceOnUse"
            gradientTransform="translate(7.01178 10.4492) rotate(119.954) scale(4.25597 3.94574)">
            <stop offset="0.707753" stop-color="#AA9DB4" stop-opacity="0" />
            <stop offset="1" stop-color="#8D7F98" />
        </radialGradient>
        <linearGradient id="paint25_linear_18_20934" x1="6.43307" y1="13.3157" x2="6.43307"
            y2="19.8641" gradientUnits="userSpaceOnUse">
            <stop stop-color="#C7C4CA" />
            <stop offset="1" stop-color="#A498AD" />
        </linearGradient>
        <radialGradient id="paint26_radial_18_20934" cx="0" cy="0" r="1"
            gradientUnits="userSpaceOnUse"
            gradientTransform="translate(6.43307 16.5781) rotate(-95.4788) scale(2.75095 3.10101)">
            <stop offset="0.402522" stop-color="#B8A5BD" />
            <stop offset="1" stop-color="#B8A5BD" stop-opacity="0" />
        </radialGradient>
        <radialGradient id="paint27_radial_18_20934" cx="0" cy="0" r="1"
            gradientUnits="userSpaceOnUse"
            gradientTransform="translate(7.01178 15.6094) rotate(119.954) scale(4.25597 3.94574)">
            <stop offset="0.707753" stop-color="#AA9DB4" stop-opacity="0" />
            <stop offset="1" stop-color="#8D7F98" />
        </radialGradient>
        <linearGradient id="paint28_linear_18_20934" x1="6.43307" y1="18.4641" x2="6.43307"
            y2="25.0125" gradientUnits="userSpaceOnUse">
            <stop stop-color="#C7C4CA" />
            <stop offset="1" stop-color="#A498AD" />
        </linearGradient>
        <radialGradient id="paint29_radial_18_20934" cx="0" cy="0" r="1"
            gradientUnits="userSpaceOnUse"
            gradientTransform="translate(6.43307 21.7266) rotate(-95.4788) scale(2.75095 3.10101)">
            <stop offset="0.402522" stop-color="#B8A5BD" />
            <stop offset="1" stop-color="#B8A5BD" stop-opacity="0" />
        </radialGradient>
        <radialGradient id="paint30_radial_18_20934" cx="0" cy="0" r="1"
            gradientUnits="userSpaceOnUse"
            gradientTransform="translate(7.01178 20.7578) rotate(119.954) scale(4.25597 3.94574)">
            <stop offset="0.707753" stop-color="#AA9DB4" stop-opacity="0" />
            <stop offset="1" stop-color="#8D7F98" />
        </radialGradient>
        <radialGradient id="paint31_radial_18_20934" cx="0" cy="0" r="1"
            gradientUnits="userSpaceOnUse"
            gradientTransform="translate(8.28691 4.50155) rotate(-131.795) scale(0.856921 0.35604)">
            <stop stop-color="#DDD7DD" />
            <stop offset="1" stop-color="#DDD7DD" stop-opacity="0" />
        </radialGradient>
        <radialGradient id="paint32_radial_18_20934" cx="0" cy="0" r="1"
            gradientUnits="userSpaceOnUse"
            gradientTransform="translate(7.79821 4.06561) rotate(-142.821) scale(0.832366 0.35)">
            <stop stop-color="#DDD7DD" />
            <stop offset="1" stop-color="#DDD7DD" stop-opacity="0" />
        </radialGradient>
        <radialGradient id="paint33_radial_18_20934" cx="0" cy="0" r="1"
            gradientUnits="userSpaceOnUse"
            gradientTransform="translate(7.34015 3.84075) rotate(-160.766) scale(0.872056 0.441572)">
            <stop stop-color="#DBD7DD" />
            <stop offset="1" stop-color="#DDD7DD" stop-opacity="0" />
        </radialGradient>
        <radialGradient id="paint34_radial_18_20934" cx="0" cy="0" r="1"
            gradientUnits="userSpaceOnUse"
            gradientTransform="translate(6.96777 3.73158) rotate(-166.676) scale(1.05569 0.379355)">
            <stop stop-color="#DDD7DD" />
            <stop offset="1" stop-color="#DDD7DD" stop-opacity="0" />
        </radialGradient>
        <radialGradient id="paint35_radial_18_20934" cx="0" cy="0" r="1"
            gradientUnits="userSpaceOnUse"
            gradientTransform="translate(8.28691 9.64999) rotate(-131.795) scale(0.856921 0.35604)">
            <stop stop-color="#DDD7DD" />
            <stop offset="1" stop-color="#DDD7DD" stop-opacity="0" />
        </radialGradient>
        <radialGradient id="paint36_radial_18_20934" cx="0" cy="0" r="1"
            gradientUnits="userSpaceOnUse"
            gradientTransform="translate(7.79821 9.21405) rotate(-142.821) scale(0.832366 0.35)">
            <stop stop-color="#DDD7DD" />
            <stop offset="1" stop-color="#DDD7DD" stop-opacity="0" />
        </radialGradient>
        <radialGradient id="paint37_radial_18_20934" cx="0" cy="0" r="1"
            gradientUnits="userSpaceOnUse"
            gradientTransform="translate(7.34015 8.98918) rotate(-160.766) scale(0.872056 0.441572)">
            <stop stop-color="#DBD7DD" />
            <stop offset="1" stop-color="#DDD7DD" stop-opacity="0" />
        </radialGradient>
        <radialGradient id="paint38_radial_18_20934" cx="0" cy="0" r="1"
            gradientUnits="userSpaceOnUse"
            gradientTransform="translate(6.96777 8.88002) rotate(-166.676) scale(1.05569 0.379355)">
            <stop stop-color="#DDD7DD" />
            <stop offset="1" stop-color="#DDD7DD" stop-opacity="0" />
        </radialGradient>
        <radialGradient id="paint39_radial_18_20934" cx="0" cy="0" r="1"
            gradientUnits="userSpaceOnUse"
            gradientTransform="translate(8.28691 14.7984) rotate(-131.795) scale(0.856921 0.35604)">
            <stop stop-color="#DDD7DD" />
            <stop offset="1" stop-color="#DDD7DD" stop-opacity="0" />
        </radialGradient>
        <radialGradient id="paint40_radial_18_20934" cx="0" cy="0" r="1"
            gradientUnits="userSpaceOnUse"
            gradientTransform="translate(7.79821 14.3625) rotate(-142.821) scale(0.832366 0.35)">
            <stop stop-color="#DDD7DD" />
            <stop offset="1" stop-color="#DDD7DD" stop-opacity="0" />
        </radialGradient>
        <radialGradient id="paint41_radial_18_20934" cx="0" cy="0" r="1"
            gradientUnits="userSpaceOnUse"
            gradientTransform="translate(7.34015 14.1376) rotate(-160.766) scale(0.872056 0.441572)">
            <stop stop-color="#DBD7DD" />
            <stop offset="1" stop-color="#DDD7DD" stop-opacity="0" />
        </radialGradient>
        <radialGradient id="paint42_radial_18_20934" cx="0" cy="0" r="1"
            gradientUnits="userSpaceOnUse"
            gradientTransform="translate(6.96777 14.0285) rotate(-166.676) scale(1.05569 0.379355)">
            <stop stop-color="#DDD7DD" />
            <stop offset="1" stop-color="#DDD7DD" stop-opacity="0" />
        </radialGradient>
        <radialGradient id="paint43_radial_18_20934" cx="0" cy="0" r="1"
            gradientUnits="userSpaceOnUse"
            gradientTransform="translate(8.28691 19.9469) rotate(-131.795) scale(0.856921 0.35604)">
            <stop stop-color="#DDD7DD" />
            <stop offset="1" stop-color="#DDD7DD" stop-opacity="0" />
        </radialGradient>
        <radialGradient id="paint44_radial_18_20934" cx="0" cy="0" r="1"
            gradientUnits="userSpaceOnUse"
            gradientTransform="translate(7.79821 19.5109) rotate(-142.821) scale(0.832366 0.35)">
            <stop stop-color="#DDD7DD" />
            <stop offset="1" stop-color="#DDD7DD" stop-opacity="0" />
        </radialGradient>
        <radialGradient id="paint45_radial_18_20934" cx="0" cy="0" r="1"
            gradientUnits="userSpaceOnUse"
            gradientTransform="translate(7.34015 19.2861) rotate(-160.766) scale(0.872056 0.441572)">
            <stop stop-color="#DBD7DD" />
            <stop offset="1" stop-color="#DDD7DD" stop-opacity="0" />
        </radialGradient>
        <radialGradient id="paint46_radial_18_20934" cx="0" cy="0" r="1"
            gradientUnits="userSpaceOnUse"
            gradientTransform="translate(6.96777 19.1769) rotate(-166.676) scale(1.05569 0.379355)">
            <stop stop-color="#DDD7DD" />
            <stop offset="1" stop-color="#DDD7DD" stop-opacity="0" />
        </radialGradient>
    </defs>
</svg>