<svg width="32" height="32" viewBox="0 0 32 32" fill="none" xmlns="http://www.w3.org/2000/svg">
    <circle cx="16.1766" cy="16.5001" r="9.02716" fill="url(#paint0_radial_18_14790)" />
    <circle cx="16.1766" cy="16.5001" r="9.02716" fill="url(#paint1_radial_18_14790)" />
    <path fill-rule="evenodd" clip-rule="evenodd"
        d="M7.17676 15.7899C8.33342 15.3627 10.3058 14.3254 12.1059 12.4041C14.4036 9.95184 15.0924 8.3788 15.3446 7.51074C10.9824 7.90927 7.51752 11.4112 7.17676 15.7899Z"
        fill="url(#paint2_radial_18_14790)" />
    <path fill-rule="evenodd" clip-rule="evenodd"
        d="M25.0465 14.8147C24.0225 16.6336 22.6483 18.6452 20.7438 20.7904C19.2147 22.5127 16.9548 24.0779 14.5996 25.39C12.4924 25.0188 10.6372 23.9167 9.30518 22.3549C11.3766 21.1319 13.6771 19.3817 16.1742 16.835C19.3331 13.6133 21.0491 10.8904 21.6862 9.34888C23.4023 10.673 24.6285 12.6011 25.0465 14.8147Z"
        fill="url(#paint3_radial_18_14790)" />
    <path fill-rule="evenodd" clip-rule="evenodd"
        d="M25.0465 14.8147C24.0225 16.6336 22.6483 18.6452 20.7438 20.7904C19.2147 22.5127 16.9548 24.0779 14.5996 25.39C12.4924 25.0188 10.6372 23.9167 9.30518 22.3549C11.3766 21.1319 13.6771 19.3817 16.1742 16.835C19.3331 13.6133 21.0491 10.8904 21.6862 9.34888C23.4023 10.673 24.6285 12.6011 25.0465 14.8147Z"
        fill="url(#paint4_radial_18_14790)" />
    <path fill-rule="evenodd" clip-rule="evenodd"
        d="M25.0465 14.8147C24.0225 16.6336 22.6483 18.6452 20.7438 20.7904C19.2147 22.5127 16.9548 24.0779 14.5996 25.39C12.4924 25.0188 10.6372 23.9167 9.30518 22.3549C11.3766 21.1319 13.6771 19.3817 16.1742 16.835C19.3331 13.6133 21.0491 10.8904 21.6862 9.34888C23.4023 10.673 24.6285 12.6011 25.0465 14.8147Z"
        fill="url(#paint5_radial_18_14790)" />
    <path fill-rule="evenodd" clip-rule="evenodd"
        d="M25.0465 14.8147C24.0225 16.6336 22.6483 18.6452 20.7438 20.7904C19.2147 22.5127 16.9548 24.0779 14.5996 25.39C12.4924 25.0188 10.6372 23.9167 9.30518 22.3549C11.3766 21.1319 13.6771 19.3817 16.1742 16.835C19.3331 13.6133 21.0491 10.8904 21.6862 9.34888C23.4023 10.673 24.6285 12.6011 25.0465 14.8147Z"
        fill="url(#paint6_radial_18_14790)" />
    <path fill-rule="evenodd" clip-rule="evenodd"
        d="M27.4217 5.41971C26.969 4.89285 26.3608 4.71679 25.838 4.7018C25.3416 4.68757 24.8473 4.81087 24.4129 4.96584C23.5377 5.27801 22.5534 5.84957 21.6013 6.48813C20.8769 6.97399 20.1289 7.52777 19.404 8.09647C20.2972 8.43352 21.123 8.90816 21.8554 9.49455C22.2576 9.1953 22.6588 8.90954 23.0496 8.6474C23.9479 8.04488 24.7189 7.61713 25.2864 7.41471C25.3094 7.40649 25.3316 7.39884 25.3529 7.39174C25.3253 7.50079 25.2823 7.63864 25.2155 7.81056C24.9355 8.53092 24.3748 9.47201 23.5831 10.5654C22.0131 12.7338 19.7331 15.234 17.6739 17.3175C15.6777 19.3374 12.9601 21.7464 10.5776 23.4865C9.37893 24.3619 8.31732 25.0294 7.50352 25.4022C7.33003 25.4817 7.17987 25.5421 7.05202 25.587C7.17701 25.247 7.41367 24.7937 7.77607 24.2201C8.16871 23.5986 8.65254 22.9214 9.17836 22.197C8.58414 21.4579 8.10395 20.6232 7.76447 19.7196C7.62028 19.919 7.47407 20.12 7.32692 20.3222L7.2557 20.4201C6.67003 21.2251 6.06841 22.0551 5.578 22.8313C5.10088 23.5865 4.65382 24.4046 4.4588 25.1815C4.25776 25.9825 4.26429 27.072 5.19578 27.8355C5.78554 28.3189 6.49398 28.3389 6.99844 28.2704C7.52181 28.1994 8.06667 28.004 8.58638 27.766C9.63537 27.2854 10.8613 26.4989 12.1111 25.5861C14.6253 23.7497 17.4477 21.2452 19.5232 19.1452C21.6159 17.0277 24.0038 14.4178 25.689 12.0902C26.5249 10.9357 27.2386 9.7824 27.6389 8.75231C27.994 7.83842 28.317 6.46179 27.4217 5.41971Z"
        fill="url(#paint7_linear_18_14790)" />
    <path fill-rule="evenodd" clip-rule="evenodd"
        d="M27.4217 5.41971C26.969 4.89285 26.3608 4.71679 25.838 4.7018C25.3416 4.68757 24.8473 4.81087 24.4129 4.96584C23.5377 5.27801 22.5534 5.84957 21.6013 6.48813C20.8769 6.97399 20.1289 7.52777 19.404 8.09647C20.2972 8.43352 21.123 8.90816 21.8554 9.49455C22.2576 9.1953 22.6588 8.90954 23.0496 8.6474C23.9479 8.04488 24.7189 7.61713 25.2864 7.41471C25.3094 7.40649 25.3316 7.39884 25.3529 7.39174C25.3253 7.50079 25.2823 7.63864 25.2155 7.81056C24.9355 8.53092 24.3748 9.47201 23.5831 10.5654C22.0131 12.7338 19.7331 15.234 17.6739 17.3175C15.6777 19.3374 12.9601 21.7464 10.5776 23.4865C9.37893 24.3619 8.31732 25.0294 7.50352 25.4022C7.33003 25.4817 7.17987 25.5421 7.05202 25.587C7.17701 25.247 7.41367 24.7937 7.77607 24.2201C8.16871 23.5986 8.65254 22.9214 9.17836 22.197C8.58414 21.4579 8.10395 20.6232 7.76447 19.7196C7.62028 19.919 7.47407 20.12 7.32692 20.3222L7.2557 20.4201C6.67003 21.2251 6.06841 22.0551 5.578 22.8313C5.10088 23.5865 4.65382 24.4046 4.4588 25.1815C4.25776 25.9825 4.26429 27.072 5.19578 27.8355C5.78554 28.3189 6.49398 28.3389 6.99844 28.2704C7.52181 28.1994 8.06667 28.004 8.58638 27.766C9.63537 27.2854 10.8613 26.4989 12.1111 25.5861C14.6253 23.7497 17.4477 21.2452 19.5232 19.1452C21.6159 17.0277 24.0038 14.4178 25.689 12.0902C26.5249 10.9357 27.2386 9.7824 27.6389 8.75231C27.994 7.83842 28.317 6.46179 27.4217 5.41971Z"
        fill="url(#paint8_radial_18_14790)" />
    <path fill-rule="evenodd" clip-rule="evenodd"
        d="M27.4217 5.41971C26.969 4.89285 26.3608 4.71679 25.838 4.7018C25.3416 4.68757 24.8473 4.81087 24.4129 4.96584C23.5377 5.27801 22.5534 5.84957 21.6013 6.48813C20.8769 6.97399 20.1289 7.52777 19.404 8.09647C20.2972 8.43352 21.123 8.90816 21.8554 9.49455C22.2576 9.1953 22.6588 8.90954 23.0496 8.6474C23.9479 8.04488 24.7189 7.61713 25.2864 7.41471C25.3094 7.40649 25.3316 7.39884 25.3529 7.39174C25.3253 7.50079 25.2823 7.63864 25.2155 7.81056C24.9355 8.53092 24.3748 9.47201 23.5831 10.5654C22.0131 12.7338 19.7331 15.234 17.6739 17.3175C15.6777 19.3374 12.9601 21.7464 10.5776 23.4865C9.37893 24.3619 8.31732 25.0294 7.50352 25.4022C7.33003 25.4817 7.17987 25.5421 7.05202 25.587C7.17701 25.247 7.41367 24.7937 7.77607 24.2201C8.16871 23.5986 8.65254 22.9214 9.17836 22.197C8.58414 21.4579 8.10395 20.6232 7.76447 19.7196C7.62028 19.919 7.47407 20.12 7.32692 20.3222L7.2557 20.4201C6.67003 21.2251 6.06841 22.0551 5.578 22.8313C5.10088 23.5865 4.65382 24.4046 4.4588 25.1815C4.25776 25.9825 4.26429 27.072 5.19578 27.8355C5.78554 28.3189 6.49398 28.3389 6.99844 28.2704C7.52181 28.1994 8.06667 28.004 8.58638 27.766C9.63537 27.2854 10.8613 26.4989 12.1111 25.5861C14.6253 23.7497 17.4477 21.2452 19.5232 19.1452C21.6159 17.0277 24.0038 14.4178 25.689 12.0902C26.5249 10.9357 27.2386 9.7824 27.6389 8.75231C27.994 7.83842 28.317 6.46179 27.4217 5.41971Z"
        fill="url(#paint9_radial_18_14790)" />
    <path fill-rule="evenodd" clip-rule="evenodd"
        d="M27.4217 5.41971C26.969 4.89285 26.3608 4.71679 25.838 4.7018C25.3416 4.68757 24.8473 4.81087 24.4129 4.96584C23.5377 5.27801 22.5534 5.84957 21.6013 6.48813C20.8769 6.97399 20.1289 7.52777 19.404 8.09647C20.2972 8.43352 21.123 8.90816 21.8554 9.49455C22.2576 9.1953 22.6588 8.90954 23.0496 8.6474C23.9479 8.04488 24.7189 7.61713 25.2864 7.41471C25.3094 7.40649 25.3316 7.39884 25.3529 7.39174C25.3253 7.50079 25.2823 7.63864 25.2155 7.81056C24.9355 8.53092 24.3748 9.47201 23.5831 10.5654C22.0131 12.7338 19.7331 15.234 17.6739 17.3175C15.6777 19.3374 12.9601 21.7464 10.5776 23.4865C9.37893 24.3619 8.31732 25.0294 7.50352 25.4022C7.33003 25.4817 7.17987 25.5421 7.05202 25.587C7.17701 25.247 7.41367 24.7937 7.77607 24.2201C8.16871 23.5986 8.65254 22.9214 9.17836 22.197C8.58414 21.4579 8.10395 20.6232 7.76447 19.7196C7.62028 19.919 7.47407 20.12 7.32692 20.3222L7.2557 20.4201C6.67003 21.2251 6.06841 22.0551 5.578 22.8313C5.10088 23.5865 4.65382 24.4046 4.4588 25.1815C4.25776 25.9825 4.26429 27.072 5.19578 27.8355C5.78554 28.3189 6.49398 28.3389 6.99844 28.2704C7.52181 28.1994 8.06667 28.004 8.58638 27.766C9.63537 27.2854 10.8613 26.4989 12.1111 25.5861C14.6253 23.7497 17.4477 21.2452 19.5232 19.1452C21.6159 17.0277 24.0038 14.4178 25.689 12.0902C26.5249 10.9357 27.2386 9.7824 27.6389 8.75231C27.994 7.83842 28.317 6.46179 27.4217 5.41971Z"
        fill="url(#paint10_radial_18_14790)" />
    <path fill-rule="evenodd" clip-rule="evenodd"
        d="M27.4217 5.41971C26.969 4.89285 26.3608 4.71679 25.838 4.7018C25.3416 4.68757 24.8473 4.81087 24.4129 4.96584C23.5377 5.27801 22.5534 5.84957 21.6013 6.48813C20.8769 6.97399 20.1289 7.52777 19.404 8.09647C20.2972 8.43352 21.123 8.90816 21.8554 9.49455C22.2576 9.1953 22.6588 8.90954 23.0496 8.6474C23.9479 8.04488 24.7189 7.61713 25.2864 7.41471C25.3094 7.40649 25.3316 7.39884 25.3529 7.39174C25.3253 7.50079 25.2823 7.63864 25.2155 7.81056C24.9355 8.53092 24.3748 9.47201 23.5831 10.5654C22.0131 12.7338 19.7331 15.234 17.6739 17.3175C15.6777 19.3374 12.9601 21.7464 10.5776 23.4865C9.37893 24.3619 8.31732 25.0294 7.50352 25.4022C7.33003 25.4817 7.17987 25.5421 7.05202 25.587C7.17701 25.247 7.41367 24.7937 7.77607 24.2201C8.16871 23.5986 8.65254 22.9214 9.17836 22.197C8.58414 21.4579 8.10395 20.6232 7.76447 19.7196C7.62028 19.919 7.47407 20.12 7.32692 20.3222L7.2557 20.4201C6.67003 21.2251 6.06841 22.0551 5.578 22.8313C5.10088 23.5865 4.65382 24.4046 4.4588 25.1815C4.25776 25.9825 4.26429 27.072 5.19578 27.8355C5.78554 28.3189 6.49398 28.3389 6.99844 28.2704C7.52181 28.1994 8.06667 28.004 8.58638 27.766C9.63537 27.2854 10.8613 26.4989 12.1111 25.5861C14.6253 23.7497 17.4477 21.2452 19.5232 19.1452C21.6159 17.0277 24.0038 14.4178 25.689 12.0902C26.5249 10.9357 27.2386 9.7824 27.6389 8.75231C27.994 7.83842 28.317 6.46179 27.4217 5.41971Z"
        fill="url(#paint11_radial_18_14790)" />
    <path fill-rule="evenodd" clip-rule="evenodd"
        d="M27.4217 5.41971C26.969 4.89285 26.3608 4.71679 25.838 4.7018C25.3416 4.68757 24.8473 4.81087 24.4129 4.96584C23.5377 5.27801 22.5534 5.84957 21.6013 6.48813C20.8769 6.97399 20.1289 7.52777 19.404 8.09647C20.2972 8.43352 21.123 8.90816 21.8554 9.49455C22.2576 9.1953 22.6588 8.90954 23.0496 8.6474C23.9479 8.04488 24.7189 7.61713 25.2864 7.41471C25.3094 7.40649 25.3316 7.39884 25.3529 7.39174C25.3253 7.50079 25.2823 7.63864 25.2155 7.81056C24.9355 8.53092 24.3748 9.47201 23.5831 10.5654C22.0131 12.7338 19.7331 15.234 17.6739 17.3175C15.6777 19.3374 12.9601 21.7464 10.5776 23.4865C9.37893 24.3619 8.31732 25.0294 7.50352 25.4022C7.33003 25.4817 7.17987 25.5421 7.05202 25.587C7.17701 25.247 7.41367 24.7937 7.77607 24.2201C8.16871 23.5986 8.65254 22.9214 9.17836 22.197C8.58414 21.4579 8.10395 20.6232 7.76447 19.7196C7.62028 19.919 7.47407 20.12 7.32692 20.3222L7.2557 20.4201C6.67003 21.2251 6.06841 22.0551 5.578 22.8313C5.10088 23.5865 4.65382 24.4046 4.4588 25.1815C4.25776 25.9825 4.26429 27.072 5.19578 27.8355C5.78554 28.3189 6.49398 28.3389 6.99844 28.2704C7.52181 28.1994 8.06667 28.004 8.58638 27.766C9.63537 27.2854 10.8613 26.4989 12.1111 25.5861C14.6253 23.7497 17.4477 21.2452 19.5232 19.1452C21.6159 17.0277 24.0038 14.4178 25.689 12.0902C26.5249 10.9357 27.2386 9.7824 27.6389 8.75231C27.994 7.83842 28.317 6.46179 27.4217 5.41971Z"
        fill="url(#paint12_radial_18_14790)" />
    <path fill-rule="evenodd" clip-rule="evenodd"
        d="M27.4217 5.41971C26.969 4.89285 26.3608 4.71679 25.838 4.7018C25.3416 4.68757 24.8473 4.81087 24.4129 4.96584C23.5377 5.27801 22.5534 5.84957 21.6013 6.48813C20.8769 6.97399 20.1289 7.52777 19.404 8.09647C20.2972 8.43352 21.123 8.90816 21.8554 9.49455C22.2576 9.1953 22.6588 8.90954 23.0496 8.6474C23.9479 8.04488 24.7189 7.61713 25.2864 7.41471C25.3094 7.40649 25.3316 7.39884 25.3529 7.39174C25.3253 7.50079 25.2823 7.63864 25.2155 7.81056C24.9355 8.53092 24.3748 9.47201 23.5831 10.5654C22.0131 12.7338 19.7331 15.234 17.6739 17.3175C15.6777 19.3374 12.9601 21.7464 10.5776 23.4865C9.37893 24.3619 8.31732 25.0294 7.50352 25.4022C7.33003 25.4817 7.17987 25.5421 7.05202 25.587C7.17701 25.247 7.41367 24.7937 7.77607 24.2201C8.16871 23.5986 8.65254 22.9214 9.17836 22.197C8.58414 21.4579 8.10395 20.6232 7.76447 19.7196C7.62028 19.919 7.47407 20.12 7.32692 20.3222L7.2557 20.4201C6.67003 21.2251 6.06841 22.0551 5.578 22.8313C5.10088 23.5865 4.65382 24.4046 4.4588 25.1815C4.25776 25.9825 4.26429 27.072 5.19578 27.8355C5.78554 28.3189 6.49398 28.3389 6.99844 28.2704C7.52181 28.1994 8.06667 28.004 8.58638 27.766C9.63537 27.2854 10.8613 26.4989 12.1111 25.5861C14.6253 23.7497 17.4477 21.2452 19.5232 19.1452C21.6159 17.0277 24.0038 14.4178 25.689 12.0902C26.5249 10.9357 27.2386 9.7824 27.6389 8.75231C27.994 7.83842 28.317 6.46179 27.4217 5.41971Z"
        fill="url(#paint13_radial_18_14790)" />
    <path fill-rule="evenodd" clip-rule="evenodd"
        d="M27.4217 5.41971C26.969 4.89285 26.3608 4.71679 25.838 4.7018C25.3416 4.68757 24.8473 4.81087 24.4129 4.96584C23.5377 5.27801 22.5534 5.84957 21.6013 6.48813C20.8769 6.97399 20.1289 7.52777 19.404 8.09647C20.2972 8.43352 21.123 8.90816 21.8554 9.49455C22.2576 9.1953 22.6588 8.90954 23.0496 8.6474C23.9479 8.04488 24.7189 7.61713 25.2864 7.41471C25.3094 7.40649 25.3316 7.39884 25.3529 7.39174C25.3253 7.50079 25.2823 7.63864 25.2155 7.81056C24.9355 8.53092 24.3748 9.47201 23.5831 10.5654C22.0131 12.7338 19.7331 15.234 17.6739 17.3175C15.6777 19.3374 12.9601 21.7464 10.5776 23.4865C9.37893 24.3619 8.31732 25.0294 7.50352 25.4022C7.33003 25.4817 7.17987 25.5421 7.05202 25.587C7.17701 25.247 7.41367 24.7937 7.77607 24.2201C8.16871 23.5986 8.65254 22.9214 9.17836 22.197C8.58414 21.4579 8.10395 20.6232 7.76447 19.7196C7.62028 19.919 7.47407 20.12 7.32692 20.3222L7.2557 20.4201C6.67003 21.2251 6.06841 22.0551 5.578 22.8313C5.10088 23.5865 4.65382 24.4046 4.4588 25.1815C4.25776 25.9825 4.26429 27.072 5.19578 27.8355C5.78554 28.3189 6.49398 28.3389 6.99844 28.2704C7.52181 28.1994 8.06667 28.004 8.58638 27.766C9.63537 27.2854 10.8613 26.4989 12.1111 25.5861C14.6253 23.7497 17.4477 21.2452 19.5232 19.1452C21.6159 17.0277 24.0038 14.4178 25.689 12.0902C26.5249 10.9357 27.2386 9.7824 27.6389 8.75231C27.994 7.83842 28.317 6.46179 27.4217 5.41971Z"
        fill="url(#paint14_radial_18_14790)" />
    <defs>
        <radialGradient id="paint0_radial_18_14790" cx="0" cy="0" r="1"
            gradientUnits="userSpaceOnUse"
            gradientTransform="translate(19.3064 10.8356) rotate(116.565) scale(15.7313 14.9746)">
            <stop stop-color="#FFB455" />
            <stop offset="1" stop-color="#EB6A38" />
        </radialGradient>
        <radialGradient id="paint1_radial_18_14790" cx="0" cy="0" r="1"
            gradientUnits="userSpaceOnUse"
            gradientTransform="translate(20.0693 13.5191) rotate(129.632) scale(13.4104)">
            <stop offset="0.594008" stop-color="#CC5934" stop-opacity="0" />
            <stop offset="1" stop-color="#CC5934" />
        </radialGradient>
        <radialGradient id="paint2_radial_18_14790" cx="0" cy="0" r="1"
            gradientUnits="userSpaceOnUse"
            gradientTransform="translate(9.38687 11.0576) rotate(12.3625) scale(4.6708 15.8222)">
            <stop stop-color="#D9957B" />
            <stop offset="1" stop-color="#FFBC94" />
        </radialGradient>
        <radialGradient id="paint3_radial_18_14790" cx="0" cy="0" r="1"
            gradientUnits="userSpaceOnUse"
            gradientTransform="translate(23.4907 16.3071) rotate(140.114) scale(11.5607 10.888)">
            <stop stop-color="#FFEAC1" />
            <stop offset="1" stop-color="#DE7C60" />
            <stop offset="1" stop-color="#DE7C60" />
            <stop offset="1" stop-color="#D4726B" />
        </radialGradient>
        <radialGradient id="paint4_radial_18_14790" cx="0" cy="0" r="1"
            gradientUnits="userSpaceOnUse"
            gradientTransform="translate(25.5119 13.1826) rotate(128.911) scale(6.66673 3.90395)">
            <stop stop-color="#FFE7C2" />
            <stop offset="1" stop-color="#FFE7C2" stop-opacity="0" />
        </radialGradient>
        <radialGradient id="paint5_radial_18_14790" cx="0" cy="0" r="1"
            gradientUnits="userSpaceOnUse"
            gradientTransform="translate(15.5744 25.39) rotate(-89.4071) scale(3.02005 5.43797)">
            <stop stop-color="#C46867" />
            <stop offset="1" stop-color="#C46867" stop-opacity="0" />
        </radialGradient>
        <radialGradient id="paint6_radial_18_14790" cx="0" cy="0" r="1"
            gradientUnits="userSpaceOnUse"
            gradientTransform="translate(16.0634 16.0113) rotate(48.1221) scale(1.39002 11.6681)">
            <stop stop-color="#FFBD91" />
            <stop offset="1" stop-color="#FFBD91" stop-opacity="0" />
        </radialGradient>
        <linearGradient id="paint7_linear_18_14790" x1="15.3656" y1="14.2903" x2="27.1781"
            y2="18.4153" gradientUnits="userSpaceOnUse">
            <stop stop-color="#E6AF22" />
            <stop offset="1" stop-color="#FFFB4B" />
        </linearGradient>
        <radialGradient id="paint8_radial_18_14790" cx="0" cy="0" r="1"
            gradientUnits="userSpaceOnUse"
            gradientTransform="translate(21.3969 9.75903) rotate(-48.4268) scale(7.39365 2.08562)">
            <stop offset="0.10149" stop-color="#F39D2B" />
            <stop offset="1" stop-color="#F39D2B" stop-opacity="0" />
        </radialGradient>
        <radialGradient id="paint9_radial_18_14790" cx="0" cy="0" r="1"
            gradientUnits="userSpaceOnUse"
            gradientTransform="translate(19.2719 8.69653) rotate(-33.3985) scale(6.8125 3.53104)">
            <stop stop-color="#F19C20" />
            <stop offset="1" stop-color="#F19C20" stop-opacity="0" />
        </radialGradient>
        <radialGradient id="paint10_radial_18_14790" cx="0" cy="0" r="1"
            gradientUnits="userSpaceOnUse"
            gradientTransform="translate(7.42813 28.7903) rotate(-94.0856) scale(4.38615 17.117)">
            <stop stop-color="#D08E28" />
            <stop offset="1" stop-color="#D08E28" stop-opacity="0" />
        </radialGradient>
        <radialGradient id="paint11_radial_18_14790" cx="0" cy="0" r="1"
            gradientUnits="userSpaceOnUse"
            gradientTransform="translate(7.75626 24.884) rotate(149.893) scale(2.14933 0.533074)">
            <stop stop-color="#E9C441" />
            <stop offset="1" stop-color="#E9AF41" stop-opacity="0" />
        </radialGradient>
        <radialGradient id="paint12_radial_18_14790" cx="0" cy="0" r="1"
            gradientUnits="userSpaceOnUse"
            gradientTransform="translate(9.17491 21.3107) rotate(124.301) scale(3.46478 0.893544)">
            <stop stop-color="#F1D338" />
            <stop offset="1" stop-color="#F1B338" stop-opacity="0" />
        </radialGradient>
        <radialGradient id="paint13_radial_18_14790" cx="0" cy="0" r="1"
            gradientUnits="userSpaceOnUse"
            gradientTransform="translate(22.887 9.74506) rotate(126.992) scale(5.86876 1.64082)">
            <stop offset="0.153613" stop-color="#ECA53B" />
            <stop offset="1" stop-color="#ECA53B" stop-opacity="0" />
        </radialGradient>
        <radialGradient id="paint14_radial_18_14790" cx="0" cy="0" r="1"
            gradientUnits="userSpaceOnUse"
            gradientTransform="translate(24 12) rotate(127.875) scale(5.70088 0.613176)">
            <stop offset="0.153613" stop-color="#F9E439" />
            <stop offset="1" stop-color="#F9E439" stop-opacity="0" />
        </radialGradient>
    </defs>
</svg>