<svg width="32" height="32" viewBox="0 0 32 32" fill="none" xmlns="http://www.w3.org/2000/svg">
    <path
        d="M14.496 27.0793C14.4173 26.8063 14.1656 26.6066 13.8672 26.6066C13.559 26.6066 13.3006 26.8196 13.2312 27.1065L12.6926 29.0948C12.6739 29.1791 12.6641 29.2667 12.6641 29.3566C12.6641 30.021 13.2027 30.5597 13.8672 30.5597C14.5317 30.5597 15.0703 30.021 15.0703 29.3566C15.0703 29.2028 15.0415 29.0558 14.9889 28.9206L14.496 27.0793Z"
        fill="url(#paint0_radial_18_17915)" />
    <path
        d="M14.496 27.0793C14.4173 26.8063 14.1656 26.6066 13.8672 26.6066C13.559 26.6066 13.3006 26.8196 13.2312 27.1065L12.6926 29.0948C12.6739 29.1791 12.6641 29.2667 12.6641 29.3566C12.6641 30.021 13.2027 30.5597 13.8672 30.5597C14.5317 30.5597 15.0703 30.021 15.0703 29.3566C15.0703 29.2028 15.0415 29.0558 14.9889 28.9206L14.496 27.0793Z"
        fill="url(#paint1_radial_18_17915)" />
    <path
        d="M17.3397 27.0793C17.261 26.8063 17.0093 26.6066 16.7109 26.6066C16.4028 26.6066 16.1444 26.8196 16.075 27.1065L15.5364 29.0948C15.5177 29.1791 15.5078 29.2667 15.5078 29.3566C15.5078 30.021 16.0465 30.5597 16.7109 30.5597C17.3754 30.5597 17.9141 30.021 17.9141 29.3566C17.9141 29.2028 17.8852 29.0558 17.8326 28.9206L17.3397 27.0793Z"
        fill="url(#paint2_radial_18_17915)" />
    <path
        d="M17.3397 27.0793C17.261 26.8063 17.0093 26.6066 16.7109 26.6066C16.4028 26.6066 16.1444 26.8196 16.075 27.1065L15.5364 29.0948C15.5177 29.1791 15.5078 29.2667 15.5078 29.3566C15.5078 30.021 16.0465 30.5597 16.7109 30.5597C17.3754 30.5597 17.9141 30.021 17.9141 29.3566C17.9141 29.2028 17.8852 29.0558 17.8326 28.9206L17.3397 27.0793Z"
        fill="url(#paint3_radial_18_17915)" />
    <rect x="13.6758" y="24.255" width="0.394531" height="1.49609" rx="0.197266"
        fill="url(#paint4_linear_18_17915)" />
    <rect x="16.5195" y="24.255" width="0.394531" height="1.49609" rx="0.197266"
        fill="url(#paint5_linear_18_17915)" />
    <rect x="5.64893" y="21.6555" width="8.49668" height="2.55867"
        fill="url(#paint6_linear_18_17915)" />
    <rect x="5.64893" y="21.6555" width="8.49668" height="2.55867"
        fill="url(#paint7_linear_18_17915)" />
    <rect x="5.64893" y="21.6555" width="8.49668" height="2.55867"
        fill="url(#paint8_radial_18_17915)" />
    <path fill-rule="evenodd" clip-rule="evenodd"
        d="M15.1882 10.5574C12.1304 10.5574 9.65155 13.0363 9.65155 16.0941C9.65155 19.1519 12.1304 21.6307 15.1882 21.6307C18.246 21.6307 20.7249 19.1519 20.7249 16.0941C20.7249 13.0363 18.246 10.5574 15.1882 10.5574ZM7.09155 16.0941C7.09155 11.6224 10.7165 7.99744 15.1882 7.99744C19.6599 7.99744 23.2849 11.6224 23.2849 16.0941C23.2849 20.5658 19.6599 24.1907 15.1882 24.1907C10.7165 24.1907 7.09155 20.5658 7.09155 16.0941Z"
        fill="url(#paint9_radial_18_17915)" />
    <path fill-rule="evenodd" clip-rule="evenodd"
        d="M15.1882 10.5574C12.1304 10.5574 9.65155 13.0363 9.65155 16.0941C9.65155 19.1519 12.1304 21.6307 15.1882 21.6307C18.246 21.6307 20.7249 19.1519 20.7249 16.0941C20.7249 13.0363 18.246 10.5574 15.1882 10.5574ZM7.09155 16.0941C7.09155 11.6224 10.7165 7.99744 15.1882 7.99744C19.6599 7.99744 23.2849 11.6224 23.2849 16.0941C23.2849 20.5658 19.6599 24.1907 15.1882 24.1907C10.7165 24.1907 7.09155 20.5658 7.09155 16.0941Z"
        fill="url(#paint10_radial_18_17915)" />
    <path fill-rule="evenodd" clip-rule="evenodd"
        d="M15.1882 10.5574C12.1304 10.5574 9.65155 13.0363 9.65155 16.0941C9.65155 19.1519 12.1304 21.6307 15.1882 21.6307C18.246 21.6307 20.7249 19.1519 20.7249 16.0941C20.7249 13.0363 18.246 10.5574 15.1882 10.5574ZM7.09155 16.0941C7.09155 11.6224 10.7165 7.99744 15.1882 7.99744C19.6599 7.99744 23.2849 11.6224 23.2849 16.0941C23.2849 20.5658 19.6599 24.1907 15.1882 24.1907C10.7165 24.1907 7.09155 20.5658 7.09155 16.0941Z"
        fill="url(#paint11_radial_18_17915)" />
    <path fill-rule="evenodd" clip-rule="evenodd"
        d="M15.1882 10.5574C12.1304 10.5574 9.65155 13.0363 9.65155 16.0941C9.65155 19.1519 12.1304 21.6307 15.1882 21.6307C18.246 21.6307 20.7249 19.1519 20.7249 16.0941C20.7249 13.0363 18.246 10.5574 15.1882 10.5574ZM7.09155 16.0941C7.09155 11.6224 10.7165 7.99744 15.1882 7.99744C19.6599 7.99744 23.2849 11.6224 23.2849 16.0941C23.2849 20.5658 19.6599 24.1907 15.1882 24.1907C10.7165 24.1907 7.09155 20.5658 7.09155 16.0941Z"
        fill="url(#paint12_radial_18_17915)" />
    <path fill-rule="evenodd" clip-rule="evenodd"
        d="M15.1882 10.5574C12.1304 10.5574 9.65155 13.0363 9.65155 16.0941C9.65155 19.1519 12.1304 21.6307 15.1882 21.6307C18.246 21.6307 20.7249 19.1519 20.7249 16.0941C20.7249 13.0363 18.246 10.5574 15.1882 10.5574ZM7.09155 16.0941C7.09155 11.6224 10.7165 7.99744 15.1882 7.99744C19.6599 7.99744 23.2849 11.6224 23.2849 16.0941C23.2849 20.5658 19.6599 24.1907 15.1882 24.1907C10.7165 24.1907 7.09155 20.5658 7.09155 16.0941Z"
        fill="url(#paint13_radial_18_17915)" />
    <path fill-rule="evenodd" clip-rule="evenodd"
        d="M15.1882 10.5574C12.1304 10.5574 9.65155 13.0363 9.65155 16.0941C9.65155 19.1519 12.1304 21.6307 15.1882 21.6307C18.246 21.6307 20.7249 19.1519 20.7249 16.0941C20.7249 13.0363 18.246 10.5574 15.1882 10.5574ZM7.09155 16.0941C7.09155 11.6224 10.7165 7.99744 15.1882 7.99744C19.6599 7.99744 23.2849 11.6224 23.2849 16.0941C23.2849 20.5658 19.6599 24.1907 15.1882 24.1907C10.7165 24.1907 7.09155 20.5658 7.09155 16.0941Z"
        fill="url(#paint14_radial_18_17915)" />
    <path fill-rule="evenodd" clip-rule="evenodd"
        d="M15.1882 10.5574C12.1304 10.5574 9.65155 13.0363 9.65155 16.0941C9.65155 19.1519 12.1304 21.6307 15.1882 21.6307C18.246 21.6307 20.7249 19.1519 20.7249 16.0941C20.7249 13.0363 18.246 10.5574 15.1882 10.5574ZM7.09155 16.0941C7.09155 11.6224 10.7165 7.99744 15.1882 7.99744C19.6599 7.99744 23.2849 11.6224 23.2849 16.0941C23.2849 20.5658 19.6599 24.1907 15.1882 24.1907C10.7165 24.1907 7.09155 20.5658 7.09155 16.0941Z"
        fill="url(#paint15_radial_18_17915)" fill-opacity="0.6" />
    <path fill-rule="evenodd" clip-rule="evenodd"
        d="M15.1882 10.5574C12.1304 10.5574 9.65155 13.0363 9.65155 16.0941C9.65155 19.1519 12.1304 21.6307 15.1882 21.6307C18.246 21.6307 20.7249 19.1519 20.7249 16.0941C20.7249 13.0363 18.246 10.5574 15.1882 10.5574ZM7.09155 16.0941C7.09155 11.6224 10.7165 7.99744 15.1882 7.99744C19.6599 7.99744 23.2849 11.6224 23.2849 16.0941C23.2849 20.5658 19.6599 24.1907 15.1882 24.1907C10.7165 24.1907 7.09155 20.5658 7.09155 16.0941Z"
        fill="url(#paint16_radial_18_17915)" />
    <path fill-rule="evenodd" clip-rule="evenodd"
        d="M15.1882 10.5574C12.1304 10.5574 9.65155 13.0363 9.65155 16.0941C9.65155 19.1519 12.1304 21.6307 15.1882 21.6307C18.246 21.6307 20.7249 19.1519 20.7249 16.0941C20.7249 13.0363 18.246 10.5574 15.1882 10.5574ZM7.09155 16.0941C7.09155 11.6224 10.7165 7.99744 15.1882 7.99744C19.6599 7.99744 23.2849 11.6224 23.2849 16.0941C23.2849 20.5658 19.6599 24.1907 15.1882 24.1907C10.7165 24.1907 7.09155 20.5658 7.09155 16.0941Z"
        fill="url(#paint17_radial_18_17915)" />
    <path
        d="M17.7567 2.71179C17.3008 2.71179 16.9312 3.08139 16.9312 3.53732C16.9312 3.84906 17.1039 4.12045 17.359 4.26093C18.5291 5.07571 20.7228 7.21771 20.7228 9.64435H20.725V16.1607C20.725 19.1817 18.276 21.6307 15.255 21.6307H14.667V24.1907H15.255C19.6899 24.1907 23.285 20.5956 23.285 16.1607L23.2851 9.64435C23.2851 7.22299 25.4693 5.08499 26.6413 4.26624C26.9017 4.12735 27.0789 3.85303 27.0789 3.53732C27.0789 3.08139 26.7093 2.71179 26.2534 2.71179H17.7567Z"
        fill="#FFB940" />
    <path
        d="M17.7567 2.71179C17.3008 2.71179 16.9312 3.08139 16.9312 3.53732C16.9312 3.84906 17.1039 4.12045 17.359 4.26093C18.5291 5.07571 20.7228 7.21771 20.7228 9.64435H20.725V16.1607C20.725 19.1817 18.276 21.6307 15.255 21.6307H14.667V24.1907H15.255C19.6899 24.1907 23.285 20.5956 23.285 16.1607L23.2851 9.64435C23.2851 7.22299 25.4693 5.08499 26.6413 4.26624C26.9017 4.12735 27.0789 3.85303 27.0789 3.53732C27.0789 3.08139 26.7093 2.71179 26.2534 2.71179H17.7567Z"
        fill="url(#paint18_radial_18_17915)" />
    <path
        d="M17.7567 2.71179C17.3008 2.71179 16.9312 3.08139 16.9312 3.53732C16.9312 3.84906 17.1039 4.12045 17.359 4.26093C18.5291 5.07571 20.7228 7.21771 20.7228 9.64435H20.725V16.1607C20.725 19.1817 18.276 21.6307 15.255 21.6307H14.667V24.1907H15.255C19.6899 24.1907 23.285 20.5956 23.285 16.1607L23.2851 9.64435C23.2851 7.22299 25.4693 5.08499 26.6413 4.26624C26.9017 4.12735 27.0789 3.85303 27.0789 3.53732C27.0789 3.08139 26.7093 2.71179 26.2534 2.71179H17.7567Z"
        fill="url(#paint19_radial_18_17915)" />
    <path
        d="M17.7567 2.71179C17.3008 2.71179 16.9312 3.08139 16.9312 3.53732C16.9312 3.84906 17.1039 4.12045 17.359 4.26093C18.5291 5.07571 20.7228 7.21771 20.7228 9.64435H20.725V16.1607C20.725 19.1817 18.276 21.6307 15.255 21.6307H14.667V24.1907H15.255C19.6899 24.1907 23.285 20.5956 23.285 16.1607L23.2851 9.64435C23.2851 7.22299 25.4693 5.08499 26.6413 4.26624C26.9017 4.12735 27.0789 3.85303 27.0789 3.53732C27.0789 3.08139 26.7093 2.71179 26.2534 2.71179H17.7567Z"
        fill="url(#paint20_linear_18_17915)" />
    <path
        d="M17.7567 2.71179C17.3008 2.71179 16.9312 3.08139 16.9312 3.53732C16.9312 3.84906 17.1039 4.12045 17.359 4.26093C18.5291 5.07571 20.7228 7.21771 20.7228 9.64435H20.725V16.1607C20.725 19.1817 18.276 21.6307 15.255 21.6307H14.667V24.1907H15.255C19.6899 24.1907 23.285 20.5956 23.285 16.1607L23.2851 9.64435C23.2851 7.22299 25.4693 5.08499 26.6413 4.26624C26.9017 4.12735 27.0789 3.85303 27.0789 3.53732C27.0789 3.08139 26.7093 2.71179 26.2534 2.71179H17.7567Z"
        fill="url(#paint21_radial_18_17915)" />
    <path
        d="M17.7567 2.71179C17.3008 2.71179 16.9312 3.08139 16.9312 3.53732C16.9312 3.84906 17.1039 4.12045 17.359 4.26093C18.5291 5.07571 20.7228 7.21771 20.7228 9.64435H20.725V16.1607C20.725 19.1817 18.276 21.6307 15.255 21.6307H14.667V24.1907H15.255C19.6899 24.1907 23.285 20.5956 23.285 16.1607L23.2851 9.64435C23.2851 7.22299 25.4693 5.08499 26.6413 4.26624C26.9017 4.12735 27.0789 3.85303 27.0789 3.53732C27.0789 3.08139 26.7093 2.71179 26.2534 2.71179H17.7567Z"
        fill="url(#paint22_radial_18_17915)" />
    <path
        d="M17.7567 2.71179C17.3008 2.71179 16.9312 3.08139 16.9312 3.53732C16.9312 3.84906 17.1039 4.12045 17.359 4.26093C18.5291 5.07571 20.7228 7.21771 20.7228 9.64435H20.725V16.1607C20.725 19.1817 18.276 21.6307 15.255 21.6307H14.667V24.1907H15.255C19.6899 24.1907 23.285 20.5956 23.285 16.1607L23.2851 9.64435C23.2851 7.22299 25.4693 5.08499 26.6413 4.26624C26.9017 4.12735 27.0789 3.85303 27.0789 3.53732C27.0789 3.08139 26.7093 2.71179 26.2534 2.71179H17.7567Z"
        fill="url(#paint23_radial_18_17915)" />
    <path
        d="M17.7567 2.71179C17.3008 2.71179 16.9312 3.08139 16.9312 3.53732C16.9312 3.84906 17.1039 4.12045 17.359 4.26093C18.5291 5.07571 20.7228 7.21771 20.7228 9.64435H20.725V16.1607C20.725 19.1817 18.276 21.6307 15.255 21.6307H14.667V24.1907H15.255C19.6899 24.1907 23.285 20.5956 23.285 16.1607L23.2851 9.64435C23.2851 7.22299 25.4693 5.08499 26.6413 4.26624C26.9017 4.12735 27.0789 3.85303 27.0789 3.53732C27.0789 3.08139 26.7093 2.71179 26.2534 2.71179H17.7567Z"
        fill="url(#paint24_radial_18_17915)" fill-opacity="0.6" />
    <path
        d="M17.7567 2.71179C17.3008 2.71179 16.9312 3.08139 16.9312 3.53732C16.9312 3.84906 17.1039 4.12045 17.359 4.26093C18.5291 5.07571 20.7228 7.21771 20.7228 9.64435H20.725V16.1607C20.725 19.1817 18.276 21.6307 15.255 21.6307H14.667V24.1907H15.255C19.6899 24.1907 23.285 20.5956 23.285 16.1607L23.2851 9.64435C23.2851 7.22299 25.4693 5.08499 26.6413 4.26624C26.9017 4.12735 27.0789 3.85303 27.0789 3.53732C27.0789 3.08139 26.7093 2.71179 26.2534 2.71179H17.7567Z"
        fill="url(#paint25_radial_18_17915)" fill-opacity="0.7" />
    <path
        d="M17.7567 2.71179C17.3008 2.71179 16.9312 3.08139 16.9312 3.53732C16.9312 3.84906 17.1039 4.12045 17.359 4.26093C18.5291 5.07571 20.7228 7.21771 20.7228 9.64435H20.725V16.1607C20.725 19.1817 18.276 21.6307 15.255 21.6307H14.667V24.1907H15.255C19.6899 24.1907 23.285 20.5956 23.285 16.1607L23.2851 9.64435C23.2851 7.22299 25.4693 5.08499 26.6413 4.26624C26.9017 4.12735 27.0789 3.85303 27.0789 3.53732C27.0789 3.08139 26.7093 2.71179 26.2534 2.71179H17.7567Z"
        fill="url(#paint26_radial_18_17915)" />
    <path
        d="M17.7567 2.71179C17.3008 2.71179 16.9312 3.08139 16.9312 3.53732C16.9312 3.84906 17.1039 4.12045 17.359 4.26093C18.5291 5.07571 20.7228 7.21771 20.7228 9.64435H20.725V16.1607C20.725 19.1817 18.276 21.6307 15.255 21.6307H14.667V24.1907H15.255C19.6899 24.1907 23.285 20.5956 23.285 16.1607L23.2851 9.64435C23.2851 7.22299 25.4693 5.08499 26.6413 4.26624C26.9017 4.12735 27.0789 3.85303 27.0789 3.53732C27.0789 3.08139 26.7093 2.71179 26.2534 2.71179H17.7567Z"
        fill="url(#paint27_radial_18_17915)" />
    <path
        d="M17.7567 2.71179C17.3008 2.71179 16.9312 3.08139 16.9312 3.53732C16.9312 3.84906 17.1039 4.12045 17.359 4.26093C18.5291 5.07571 20.7228 7.21771 20.7228 9.64435H20.725V16.1607C20.725 19.1817 18.276 21.6307 15.255 21.6307H14.667V24.1907H15.255C19.6899 24.1907 23.285 20.5956 23.285 16.1607L23.2851 9.64435C23.2851 7.22299 25.4693 5.08499 26.6413 4.26624C26.9017 4.12735 27.0789 3.85303 27.0789 3.53732C27.0789 3.08139 26.7093 2.71179 26.2534 2.71179H17.7567Z"
        fill="url(#paint28_radial_18_17915)" />
    <path
        d="M17.7567 2.71179C17.3008 2.71179 16.9312 3.08139 16.9312 3.53732C16.9312 3.84906 17.1039 4.12045 17.359 4.26093C18.5291 5.07571 20.7228 7.21771 20.7228 9.64435H20.725V16.1607C20.725 19.1817 18.276 21.6307 15.255 21.6307H14.667V24.1907H15.255C19.6899 24.1907 23.285 20.5956 23.285 16.1607L23.2851 9.64435C23.2851 7.22299 25.4693 5.08499 26.6413 4.26624C26.9017 4.12735 27.0789 3.85303 27.0789 3.53732C27.0789 3.08139 26.7093 2.71179 26.2534 2.71179H17.7567Z"
        fill="url(#paint29_radial_18_17915)" />
    <path
        d="M17.7567 2.71179C17.3008 2.71179 16.9312 3.08139 16.9312 3.53732C16.9312 3.84906 17.1039 4.12045 17.359 4.26093C18.5291 5.07571 20.7228 7.21771 20.7228 9.64435H20.725V16.1607C20.725 19.1817 18.276 21.6307 15.255 21.6307H14.667V24.1907H15.255C19.6899 24.1907 23.285 20.5956 23.285 16.1607L23.2851 9.64435C23.2851 7.22299 25.4693 5.08499 26.6413 4.26624C26.9017 4.12735 27.0789 3.85303 27.0789 3.53732C27.0789 3.08139 26.7093 2.71179 26.2534 2.71179H17.7567Z"
        fill="url(#paint30_radial_18_17915)" />
    <path
        d="M17.7567 2.71179C17.3008 2.71179 16.9312 3.08139 16.9312 3.53732C16.9312 3.84906 17.1039 4.12045 17.359 4.26093C18.5291 5.07571 20.7228 7.21771 20.7228 9.64435H20.725V16.1607C20.725 19.1817 18.276 21.6307 15.255 21.6307H14.667V24.1907H15.255C19.6899 24.1907 23.285 20.5956 23.285 16.1607L23.2851 9.64435C23.2851 7.22299 25.4693 5.08499 26.6413 4.26624C26.9017 4.12735 27.0789 3.85303 27.0789 3.53732C27.0789 3.08139 26.7093 2.71179 26.2534 2.71179H17.7567Z"
        fill="url(#paint31_radial_18_17915)" />
    <path
        d="M17.7567 2.71179C17.3008 2.71179 16.9312 3.08139 16.9312 3.53732C16.9312 3.84906 17.1039 4.12045 17.359 4.26093C18.5291 5.07571 20.7228 7.21771 20.7228 9.64435H20.725V16.1607C20.725 19.1817 18.276 21.6307 15.255 21.6307H14.667V24.1907H15.255C19.6899 24.1907 23.285 20.5956 23.285 16.1607L23.2851 9.64435C23.2851 7.22299 25.4693 5.08499 26.6413 4.26624C26.9017 4.12735 27.0789 3.85303 27.0789 3.53732C27.0789 3.08139 26.7093 2.71179 26.2534 2.71179H17.7567Z"
        fill="url(#paint32_radial_18_17915)" />
    <path
        d="M17.7567 2.71179C17.3008 2.71179 16.9312 3.08139 16.9312 3.53732C16.9312 3.84906 17.1039 4.12045 17.359 4.26093C18.5291 5.07571 20.7228 7.21771 20.7228 9.64435H20.725V16.1607C20.725 19.1817 18.276 21.6307 15.255 21.6307H14.667V24.1907H15.255C19.6899 24.1907 23.285 20.5956 23.285 16.1607L23.2851 9.64435C23.2851 7.22299 25.4693 5.08499 26.6413 4.26624C26.9017 4.12735 27.0789 3.85303 27.0789 3.53732C27.0789 3.08139 26.7093 2.71179 26.2534 2.71179H17.7567Z"
        fill="url(#paint33_linear_18_17915)" />
    <path
        d="M17.7567 2.71179C17.3008 2.71179 16.9312 3.08139 16.9312 3.53732C16.9312 3.84906 17.1039 4.12045 17.359 4.26093C18.5291 5.07571 20.7228 7.21771 20.7228 9.64435H20.725V16.1607C20.725 19.1817 18.276 21.6307 15.255 21.6307H14.667V24.1907H15.255C19.6899 24.1907 23.285 20.5956 23.285 16.1607L23.2851 9.64435C23.2851 7.22299 25.4693 5.08499 26.6413 4.26624C26.9017 4.12735 27.0789 3.85303 27.0789 3.53732C27.0789 3.08139 26.7093 2.71179 26.2534 2.71179H17.7567Z"
        fill="url(#paint34_radial_18_17915)" />
    <path
        d="M17.7567 2.71179C17.3008 2.71179 16.9312 3.08139 16.9312 3.53732C16.9312 3.84906 17.1039 4.12045 17.359 4.26093C18.5291 5.07571 20.7228 7.21771 20.7228 9.64435H20.725V16.1607C20.725 19.1817 18.276 21.6307 15.255 21.6307H14.667V24.1907H15.255C19.6899 24.1907 23.285 20.5956 23.285 16.1607L23.2851 9.64435C23.2851 7.22299 25.4693 5.08499 26.6413 4.26624C26.9017 4.12735 27.0789 3.85303 27.0789 3.53732C27.0789 3.08139 26.7093 2.71179 26.2534 2.71179H17.7567Z"
        fill="url(#paint35_radial_18_17915)" />
    <path
        d="M17.7567 2.71179C17.3008 2.71179 16.9312 3.08139 16.9312 3.53732C16.9312 3.84906 17.1039 4.12045 17.359 4.26093C18.5291 5.07571 20.7228 7.21771 20.7228 9.64435H20.725V16.1607C20.725 19.1817 18.276 21.6307 15.255 21.6307H14.667V24.1907H15.255C19.6899 24.1907 23.285 20.5956 23.285 16.1607L23.2851 9.64435C23.2851 7.22299 25.4693 5.08499 26.6413 4.26624C26.9017 4.12735 27.0789 3.85303 27.0789 3.53732C27.0789 3.08139 26.7093 2.71179 26.2534 2.71179H17.7567Z"
        fill="url(#paint36_radial_18_17915)" fill-opacity="0.7" />
    <path
        d="M17.7567 2.71179C17.3008 2.71179 16.9312 3.08139 16.9312 3.53732C16.9312 3.84906 17.1039 4.12045 17.359 4.26093C18.5291 5.07571 20.7228 7.21771 20.7228 9.64435H20.725V16.1607C20.725 19.1817 18.276 21.6307 15.255 21.6307H14.667V24.1907H15.255C19.6899 24.1907 23.285 20.5956 23.285 16.1607L23.2851 9.64435C23.2851 7.22299 25.4693 5.08499 26.6413 4.26624C26.9017 4.12735 27.0789 3.85303 27.0789 3.53732C27.0789 3.08139 26.7093 2.71179 26.2534 2.71179H17.7567Z"
        fill="url(#paint37_radial_18_17915)" fill-opacity="0.7" />
    <path
        d="M17.7567 2.71179C17.3008 2.71179 16.9312 3.08139 16.9312 3.53732C16.9312 3.84906 17.1039 4.12045 17.359 4.26093C18.5291 5.07571 20.7228 7.21771 20.7228 9.64435H20.725V16.1607C20.725 19.1817 18.276 21.6307 15.255 21.6307H14.667V24.1907H15.255C19.6899 24.1907 23.285 20.5956 23.285 16.1607L23.2851 9.64435C23.2851 7.22299 25.4693 5.08499 26.6413 4.26624C26.9017 4.12735 27.0789 3.85303 27.0789 3.53732C27.0789 3.08139 26.7093 2.71179 26.2534 2.71179H17.7567Z"
        fill="url(#paint38_radial_18_17915)" />
    <path
        d="M17.7567 2.71179C17.3008 2.71179 16.9312 3.08139 16.9312 3.53732C16.9312 3.84906 17.1039 4.12045 17.359 4.26093C18.5291 5.07571 20.7228 7.21771 20.7228 9.64435H20.725V16.1607C20.725 19.1817 18.276 21.6307 15.255 21.6307H14.667V24.1907H15.255C19.6899 24.1907 23.285 20.5956 23.285 16.1607L23.2851 9.64435C23.2851 7.22299 25.4693 5.08499 26.6413 4.26624C26.9017 4.12735 27.0789 3.85303 27.0789 3.53732C27.0789 3.08139 26.7093 2.71179 26.2534 2.71179H17.7567Z"
        fill="url(#paint39_radial_18_17915)" fill-opacity="0.6" />
    <rect x="13.1562" y="20.5128" width="1.42188" height="4.24219" rx="0.710938"
        fill="url(#paint40_linear_18_17915)" />
    <rect x="13.1562" y="20.5128" width="1.42188" height="4.24219" rx="0.710938"
        fill="url(#paint41_linear_18_17915)" />
    <rect x="13.1562" y="20.5128" width="1.42188" height="4.24219" rx="0.710938"
        fill="url(#paint42_radial_18_17915)" />
    <rect x="14.5781" y="20.5128" width="1.42188" height="4.24219" rx="0.710938"
        fill="url(#paint43_linear_18_17915)" />
    <rect x="14.5781" y="20.5128" width="1.42188" height="4.24219" rx="0.710938"
        fill="url(#paint44_linear_18_17915)" />
    <rect x="14.5781" y="20.5128" width="1.42188" height="4.24219" rx="0.710938"
        fill="url(#paint45_linear_18_17915)" />
    <rect x="14.5781" y="20.5128" width="1.42188" height="4.24219" rx="0.710938"
        fill="url(#paint46_radial_18_17915)" />
    <rect x="16" y="20.5128" width="1.42188" height="4.24219" rx="0.710938"
        fill="url(#paint47_linear_18_17915)" />
    <rect x="16" y="20.5128" width="1.42188" height="4.24219" rx="0.710938"
        fill="url(#paint48_linear_18_17915)" />
    <rect x="16" y="20.5128" width="1.42188" height="4.24219" rx="0.710938"
        fill="url(#paint49_radial_18_17915)" />
    <circle cx="13.8672" cy="26.046" r="0.724609" fill="url(#paint50_linear_18_17915)" />
    <circle cx="13.8672" cy="26.046" r="0.724609" fill="url(#paint51_radial_18_17915)" />
    <circle cx="13.8672" cy="26.046" r="0.724609" fill="url(#paint52_radial_18_17915)" />
    <circle cx="16.7109" cy="26.046" r="0.724609" fill="url(#paint53_linear_18_17915)" />
    <circle cx="16.7109" cy="26.046" r="0.724609" fill="url(#paint54_radial_18_17915)" />
    <circle cx="16.7109" cy="26.046" r="0.724609" fill="url(#paint55_radial_18_17915)" />
    <rect x="4.23926" y="20.7866" width="1.76692" height="4.36419" rx="0.883461"
        fill="url(#paint56_linear_18_17915)" />
    <rect x="4.23926" y="20.7866" width="1.76692" height="4.36419" rx="0.883461"
        fill="url(#paint57_radial_18_17915)" />
    <rect x="4.23926" y="20.7866" width="1.76692" height="4.36419" rx="0.883461"
        fill="url(#paint58_linear_18_17915)" />
    <rect x="4.23926" y="20.7866" width="1.76692" height="4.36419" rx="0.883461"
        fill="url(#paint59_linear_18_17915)" />
    <rect x="4.23926" y="20.7866" width="1.76692" height="4.36419" rx="0.883461"
        fill="url(#paint60_radial_18_17915)" />
    <rect x="4.23926" y="20.7866" width="1.76692" height="4.36419" rx="0.883461"
        fill="url(#paint61_radial_18_17915)" />
    <defs>
        <radialGradient id="paint0_radial_18_17915" cx="0" cy="0" r="1"
            gradientUnits="userSpaceOnUse"
            gradientTransform="translate(14.375 29.3644) rotate(-90) scale(2.60938 1.375)">
            <stop stop-color="#DF437F" />
            <stop offset="0.892216" stop-color="#D0395A" />
        </radialGradient>
        <radialGradient id="paint1_radial_18_17915" cx="0" cy="0" r="1"
            gradientUnits="userSpaceOnUse"
            gradientTransform="translate(13.8672 27.5519) rotate(90) scale(3.00781 2.66406)">
            <stop offset="0.612987" stop-color="#CF2A87" stop-opacity="0" />
            <stop offset="1" stop-color="#CF2A87" />
        </radialGradient>
        <radialGradient id="paint2_radial_18_17915" cx="0" cy="0" r="1"
            gradientUnits="userSpaceOnUse"
            gradientTransform="translate(17.2188 29.3644) rotate(-90) scale(2.60938 1.375)">
            <stop stop-color="#E64991" />
            <stop offset="0.892216" stop-color="#D11967" />
        </radialGradient>
        <radialGradient id="paint3_radial_18_17915" cx="0" cy="0" r="1"
            gradientUnits="userSpaceOnUse"
            gradientTransform="translate(16.7109 27.5519) rotate(90) scale(3.00781 2.66406)">
            <stop offset="0.612987" stop-color="#CF2A87" stop-opacity="0" />
            <stop offset="1" stop-color="#CF2A87" />
        </radialGradient>
        <linearGradient id="paint4_linear_18_17915" x1="13.873" y1="24.6456" x2="13.873"
            y2="25.7511" gradientUnits="userSpaceOnUse">
            <stop stop-color="#C72A59" />
            <stop offset="1" stop-color="#CC355B" />
        </linearGradient>
        <linearGradient id="paint5_linear_18_17915" x1="16.7168" y1="24.6456" x2="16.7168"
            y2="25.7511" gradientUnits="userSpaceOnUse">
            <stop stop-color="#C72A59" />
            <stop offset="1" stop-color="#CC355B" />
        </linearGradient>
        <linearGradient id="paint6_linear_18_17915" x1="9.89726" y1="22.0519" x2="9.89726"
            y2="24.2142" gradientUnits="userSpaceOnUse">
            <stop offset="0.169022" stop-color="#E69B2C" />
            <stop offset="1" stop-color="#DB734F" />
        </linearGradient>
        <linearGradient id="paint7_linear_18_17915" x1="9.89726" y1="24.4269" x2="9.89726"
            y2="23.8332" gradientUnits="userSpaceOnUse">
            <stop stop-color="#D77177" />
            <stop offset="1" stop-color="#D77177" stop-opacity="0" />
        </linearGradient>
        <radialGradient id="paint8_radial_18_17915" cx="0" cy="0" r="1"
            gradientUnits="userSpaceOnUse"
            gradientTransform="translate(6.0626 22.6613) scale(4.23438 1.39062)">
            <stop stop-color="#F7A443" />
            <stop offset="0.262622" stop-color="#F6A240" stop-opacity="0.895702" />
            <stop offset="1" stop-color="#EA9223" stop-opacity="0" />
        </radialGradient>
        <radialGradient id="paint9_radial_18_17915" cx="0" cy="0" r="1"
            gradientUnits="userSpaceOnUse"
            gradientTransform="translate(9.4843 13.1769) rotate(28.4669) scale(10.9488 19.636)">
            <stop stop-color="#F4B12A" />
            <stop offset="1" stop-color="#EB943B" />
        </radialGradient>
        <radialGradient id="paint10_radial_18_17915" cx="0" cy="0" r="1"
            gradientUnits="userSpaceOnUse"
            gradientTransform="translate(15.1882 15.8276) rotate(90) scale(7.93106)">
            <stop offset="0.620352" stop-color="#FFD15B" stop-opacity="0" />
            <stop offset="0.68389" stop-color="#FFD15B" stop-opacity="0.124421" />
            <stop offset="0.763413" stop-color="#FFD15B" stop-opacity="0.724152" />
            <stop offset="0.79702" stop-color="#FFD15B" stop-opacity="0.941826" />
            <stop offset="0.832023" stop-color="#FFD15B" />
            <stop offset="0.848625" stop-color="#FFD15B" stop-opacity="0.930414" />
            <stop offset="0.869074" stop-color="#FFD15B" stop-opacity="0.765369" />
            <stop offset="0.901725" stop-color="#FFD15B" stop-opacity="0.461574" />
            <stop offset="0.943779" stop-color="#FFD15B" stop-opacity="0.13" />
            <stop offset="1" stop-color="#FFD15B" stop-opacity="0" />
        </radialGradient>
        <radialGradient id="paint11_radial_18_17915" cx="0" cy="0" r="1"
            gradientUnits="userSpaceOnUse"
            gradientTransform="translate(12.8835 5.96227) rotate(80.6829) scale(10.4244)">
            <stop stop-color="#F4B12A" />
            <stop offset="0.36208" stop-color="#F4B12A" stop-opacity="0.810163" />
            <stop offset="1" stop-color="#F4B12A" stop-opacity="0" />
        </radialGradient>
        <radialGradient id="paint12_radial_18_17915" cx="0" cy="0" r="1"
            gradientUnits="userSpaceOnUse"
            gradientTransform="translate(21.5049 14.1501) rotate(-150.895) scale(7.86742)">
            <stop stop-color="#EB943B" />
            <stop offset="0.36208" stop-color="#EB943B" stop-opacity="0.810163" />
            <stop offset="1" stop-color="#EB943B" stop-opacity="0" />
        </radialGradient>
        <radialGradient id="paint13_radial_18_17915" cx="0" cy="0" r="1"
            gradientUnits="userSpaceOnUse"
            gradientTransform="translate(14.0806 23.4875) rotate(-139.038) scale(4.08462)">
            <stop stop-color="#EB943B" />
            <stop offset="0.36208" stop-color="#EB943B" stop-opacity="0.810163" />
            <stop offset="1" stop-color="#EB943B" stop-opacity="0" />
        </radialGradient>
        <radialGradient id="paint14_radial_18_17915" cx="0" cy="0" r="1"
            gradientUnits="userSpaceOnUse"
            gradientTransform="translate(21.1718 10.9269) rotate(-135.335) scale(3.77867 1.9887)">
            <stop stop-color="#FFC252" />
            <stop offset="0.32948" stop-color="#FFC252" stop-opacity="0.840884" />
            <stop offset="0.711325" stop-color="#FFC252" stop-opacity="0.219648" />
            <stop offset="1" stop-color="#FFC252" stop-opacity="0" />
        </radialGradient>
        <radialGradient id="paint15_radial_18_17915" cx="0" cy="0" r="1"
            gradientUnits="userSpaceOnUse"
            gradientTransform="translate(21.1718 10.9269) rotate(-135.335) scale(3.77867 1.9887)">
            <stop stop-color="#FFC252" />
            <stop offset="0.32948" stop-color="#FFD15B" stop-opacity="0.840884" />
            <stop offset="0.711325" stop-color="#FFD15B" stop-opacity="0.219648" />
            <stop offset="1" stop-color="#FFD15B" stop-opacity="0" />
        </radialGradient>
        <radialGradient id="paint16_radial_18_17915" cx="0" cy="0" r="1"
            gradientUnits="userSpaceOnUse"
            gradientTransform="translate(15.3685 15.7691) rotate(92.9806) scale(5.9951 6.21625)">
            <stop offset="0.853047" stop-color="#E27F4E" />
            <stop offset="0.939048" stop-color="#E27F4E" stop-opacity="0.29995" />
            <stop offset="0.972455" stop-color="#E27F4E" stop-opacity="0.104116" />
            <stop offset="1" stop-color="#E27F4E" stop-opacity="0" />
        </radialGradient>
        <radialGradient id="paint17_radial_18_17915" cx="0" cy="0" r="1"
            gradientUnits="userSpaceOnUse"
            gradientTransform="translate(15.1882 15.8083) rotate(90) scale(8.91969)">
            <stop stop-color="#E27F4E" stop-opacity="0" />
            <stop offset="0.807215" stop-color="#E27F4E" stop-opacity="0" />
            <stop offset="0.841903" stop-color="#E27F4E" stop-opacity="0.138942" />
            <stop offset="0.907776" stop-color="#E27F4E" stop-opacity="0.814022" />
            <stop offset="0.952273" stop-color="#E27F4E" />
        </radialGradient>
        <radialGradient id="paint18_radial_18_17915" cx="0" cy="0" r="1"
            gradientUnits="userSpaceOnUse"
            gradientTransform="translate(17.6022 2.71179) rotate(42.4901) scale(6.96986 11.6303)">
            <stop stop-color="#E58940" />
            <stop offset="1" stop-color="#E58940" stop-opacity="0" />
        </radialGradient>
        <radialGradient id="paint19_radial_18_17915" cx="0" cy="0" r="1"
            gradientUnits="userSpaceOnUse"
            gradientTransform="translate(27.9801 3.56503) rotate(142.275) scale(6.62283 9.89663)">
            <stop stop-color="#E1A152" />
            <stop offset="1" stop-color="#E1A152" stop-opacity="0" />
        </radialGradient>
        <linearGradient id="paint20_linear_18_17915" x1="20.8729" y1="2.71179" x2="20.8729"
            y2="4.50398" gradientUnits="userSpaceOnUse">
            <stop offset="0.294416" stop-color="#FFB529" />
            <stop offset="1" stop-color="#FFB529" stop-opacity="0" />
        </linearGradient>
        <radialGradient id="paint21_radial_18_17915" cx="0" cy="0" r="1"
            gradientUnits="userSpaceOnUse"
            gradientTransform="translate(24.422 3.2191) rotate(90) scale(1.11192 5.31497)">
            <stop offset="0.16" stop-color="#FFDE61" />
            <stop offset="0.322891" stop-color="#FFDB5D" stop-opacity="0.902273" />
            <stop offset="0.87093" stop-color="#FFC738" stop-opacity="0.101771" />
            <stop offset="1" stop-color="#FFC433" stop-opacity="0" />
        </radialGradient>
        <radialGradient id="paint22_radial_18_17915" cx="0" cy="0" r="1"
            gradientUnits="userSpaceOnUse"
            gradientTransform="translate(17.5034 2.10718) rotate(69.1791) scale(1.87693 4.06515)">
            <stop offset="0.284488" stop-color="#D6A148" />
            <stop offset="1" stop-color="#D6A148" stop-opacity="0" />
        </radialGradient>
        <radialGradient id="paint23_radial_18_17915" cx="0" cy="0" r="1"
            gradientUnits="userSpaceOnUse"
            gradientTransform="translate(15.4068 16.3353) rotate(45) scale(6.62406)">
            <stop offset="0.800222" stop-color="#F19E2E" />
            <stop offset="0.944018" stop-color="#F19E2E" stop-opacity="0.142205" />
            <stop offset="1" stop-color="#F19E2E" stop-opacity="0" />
        </radialGradient>
        <radialGradient id="paint24_radial_18_17915" cx="0" cy="0" r="1"
            gradientUnits="userSpaceOnUse"
            gradientTransform="translate(19.5782 7.30657) rotate(71.9657) scale(3.07872 9.0494)">
            <stop stop-color="#E78A77" stop-opacity="0.79" />
            <stop offset="0.606849" stop-color="#E78A77" stop-opacity="0.405154" />
            <stop offset="0.880085" stop-color="#E78A77" stop-opacity="0.0629433" />
            <stop offset="1" stop-color="#E78A77" stop-opacity="0" />
        </radialGradient>
        <radialGradient id="paint25_radial_18_17915" cx="0" cy="0" r="1"
            gradientUnits="userSpaceOnUse"
            gradientTransform="translate(15.1111 15.7045) rotate(22.5509) scale(8.87878 9.51457)">
            <stop stop-color="#FFD452" stop-opacity="0" />
            <stop offset="0.764099" stop-color="#FFD452" stop-opacity="0" />
            <stop offset="0.817657" stop-color="#FFD452" stop-opacity="0.792394" />
            <stop offset="0.862285" stop-color="#FFD452" stop-opacity="0.647633" />
            <stop offset="0.914382" stop-color="#FFD452" stop-opacity="0" />
        </radialGradient>
        <radialGradient id="paint26_radial_18_17915" cx="0" cy="0" r="1"
            gradientUnits="userSpaceOnUse"
            gradientTransform="translate(21.4579 12.0058) rotate(113.341) scale(3.1342 1.81114)">
            <stop stop-color="#FFB940" />
            <stop offset="0.827091" stop-color="#FFB940" stop-opacity="0.632017" />
            <stop offset="1" stop-color="#FFB940" stop-opacity="0" />
        </radialGradient>
        <radialGradient id="paint27_radial_18_17915" cx="0" cy="0" r="1"
            gradientUnits="userSpaceOnUse"
            gradientTransform="translate(20.5685 14.1601) scale(1.48861 5.30239)">
            <stop stop-color="#F19E2E" />
            <stop offset="0.794137" stop-color="#F19E2E" stop-opacity="0.142205" />
            <stop offset="1" stop-color="#F19E2E" stop-opacity="0" />
        </radialGradient>
        <radialGradient id="paint28_radial_18_17915" cx="0" cy="0" r="1"
            gradientUnits="userSpaceOnUse"
            gradientTransform="translate(20.7824 10.27) scale(1.3376 4.7645)">
            <stop stop-color="#F19E2E" />
            <stop offset="0.813927" stop-color="#F19E2E" stop-opacity="0.142205" />
            <stop offset="1" stop-color="#F19E2E" stop-opacity="0" />
        </radialGradient>
        <radialGradient id="paint29_radial_18_17915" cx="0" cy="0" r="1"
            gradientUnits="userSpaceOnUse"
            gradientTransform="translate(17.7775 25.3488) rotate(-100.66) scale(5.51861 19.4885)">
            <stop offset="0.22096" stop-color="#E78A77" />
            <stop offset="0.560216" stop-color="#E78A77" stop-opacity="0.405154" />
            <stop offset="1" stop-color="#E78A77" stop-opacity="0" />
        </radialGradient>
        <radialGradient id="paint30_radial_18_17915" cx="0" cy="0" r="1"
            gradientUnits="userSpaceOnUse"
            gradientTransform="translate(16.9503 9.32959) rotate(-45) scale(4.68726)">
            <stop stop-color="#F19E2E" />
            <stop offset="0.823798" stop-color="#F19E2E" />
            <stop offset="0.944018" stop-color="#F19E2E" stop-opacity="0.142205" />
            <stop offset="1" stop-color="#F19E2E" stop-opacity="0" />
        </radialGradient>
        <radialGradient id="paint31_radial_18_17915" cx="0" cy="0" r="1"
            gradientUnits="userSpaceOnUse"
            gradientTransform="translate(15.117 8.6926) rotate(-36.3268) scale(6.26323)">
            <stop offset="0.737982" stop-color="#D6A148" />
            <stop offset="0.928424" stop-color="#D6A148" stop-opacity="0.206216" />
            <stop offset="1" stop-color="#D6A148" stop-opacity="0" />
        </radialGradient>
        <radialGradient id="paint32_radial_18_17915" cx="0" cy="0" r="1"
            gradientUnits="userSpaceOnUse"
            gradientTransform="translate(19.7073 12.3701) rotate(-1.57655) scale(1.76846 5.8497)">
            <stop stop-color="#D6A148" />
            <stop offset="0.832676" stop-color="#D6A148" stop-opacity="0.206216" />
            <stop offset="1" stop-color="#D6A148" stop-opacity="0" />
        </radialGradient>
        <linearGradient id="paint33_linear_18_17915" x1="20.8729" y1="2.57538" x2="20.8729"
            y2="2.88788" gradientUnits="userSpaceOnUse">
            <stop stop-color="#DEAE54" />
            <stop offset="1" stop-color="#DEAE54" stop-opacity="0" />
        </linearGradient>
        <radialGradient id="paint34_radial_18_17915" cx="0" cy="0" r="1"
            gradientUnits="userSpaceOnUse"
            gradientTransform="translate(26.2402 8.0354) rotate(17.5535) scale(3.36416 4.79834)">
            <stop offset="0.618421" stop-color="#E78A77" />
            <stop offset="0.866633" stop-color="#E78A77" stop-opacity="0.202703" />
            <stop offset="1" stop-color="#E78A77" stop-opacity="0" />
        </radialGradient>
        <radialGradient id="paint35_radial_18_17915" cx="0" cy="0" r="1"
            gradientUnits="userSpaceOnUse"
            gradientTransform="translate(22.6339 13.8595) rotate(-180) scale(1.09548 7.40253)">
            <stop stop-color="#FFD452" />
            <stop offset="0.272643" stop-color="#FFD452" stop-opacity="0.792394" />
            <stop offset="0.584724" stop-color="#FFD452" stop-opacity="0.257984" />
            <stop offset="0.859883" stop-color="#FFD452" stop-opacity="0.0818195" />
            <stop offset="1" stop-color="#FFD452" stop-opacity="0" />
        </radialGradient>
        <radialGradient id="paint36_radial_18_17915" cx="0" cy="0" r="1"
            gradientUnits="userSpaceOnUse"
            gradientTransform="translate(23.5744 12.8387) rotate(180) scale(1.0972 6.13023)">
            <stop stop-color="#E78A77" />
            <stop offset="0.640533" stop-color="#E78A77" stop-opacity="0.202703" />
            <stop offset="0.818108" stop-color="#E78A77" stop-opacity="0.0490827" />
            <stop offset="1" stop-color="#E78A77" stop-opacity="0" />
        </radialGradient>
        <radialGradient id="paint37_radial_18_17915" cx="0" cy="0" r="1"
            gradientUnits="userSpaceOnUse"
            gradientTransform="translate(23.0303 19.1962) rotate(-174.806) scale(0.981715 5.485)">
            <stop stop-color="#E78A77" />
            <stop offset="0.640533" stop-color="#E78A77" stop-opacity="0.202703" />
            <stop offset="0.818108" stop-color="#E78A77" stop-opacity="0.0490827" />
            <stop offset="1" stop-color="#E78A77" stop-opacity="0" />
        </radialGradient>
        <radialGradient id="paint38_radial_18_17915" cx="0" cy="0" r="1"
            gradientUnits="userSpaceOnUse"
            gradientTransform="translate(17.1587 8.6426) rotate(154.683) scale(4.23797 5.37129)">
            <stop offset="0.761024" stop-color="#E27F4E" />
            <stop offset="0.88019" stop-color="#E27F4E" stop-opacity="0.29995" />
            <stop offset="0.948642" stop-color="#E27F4E" stop-opacity="0.104116" />
            <stop offset="1" stop-color="#E27F4E" stop-opacity="0" />
        </radialGradient>
        <radialGradient id="paint39_radial_18_17915" cx="0" cy="0" r="1"
            gradientUnits="userSpaceOnUse"
            gradientTransform="translate(20.7376 6.43685) rotate(-87.8789) scale(2.77109)">
            <stop stop-color="#E27F4E" />
            <stop offset="0.621351" stop-color="#E27F4E" stop-opacity="0.29995" />
            <stop offset="0.86383" stop-color="#E27F4E" stop-opacity="0.104116" />
            <stop offset="1" stop-color="#E27F4E" stop-opacity="0" />
        </radialGradient>
        <linearGradient id="paint40_linear_18_17915" x1="13.8672" y1="20.5128" x2="13.8672"
            y2="24.755" gradientUnits="userSpaceOnUse">
            <stop stop-color="#CE3057" />
            <stop offset="1" stop-color="#C51776" />
        </linearGradient>
        <linearGradient id="paint41_linear_18_17915" x1="14.7031" y1="23.0831" x2="14.2188"
            y2="23.0831" gradientUnits="userSpaceOnUse">
            <stop offset="0.451613" stop-color="#C30354" />
            <stop offset="1" stop-color="#C30354" stop-opacity="0" />
        </linearGradient>
        <radialGradient id="paint42_radial_18_17915" cx="0" cy="0" r="1"
            gradientUnits="userSpaceOnUse"
            gradientTransform="translate(14.1875 22.1925) rotate(90) scale(2.23437 0.671875)">
            <stop offset="0.153846" stop-color="#D84E7B" />
            <stop offset="1" stop-color="#D84E7B" stop-opacity="0" />
        </radialGradient>
        <linearGradient id="paint43_linear_18_17915" x1="15.2891" y1="20.5128" x2="15.2891"
            y2="24.755" gradientUnits="userSpaceOnUse">
            <stop stop-color="#CE3057" />
            <stop offset="1" stop-color="#C51776" />
        </linearGradient>
        <linearGradient id="paint44_linear_18_17915" x1="16.125" y1="23.0831" x2="15.6406"
            y2="23.0831" gradientUnits="userSpaceOnUse">
            <stop offset="0.451613" stop-color="#C30354" />
            <stop offset="1" stop-color="#C30354" stop-opacity="0" />
        </linearGradient>
        <linearGradient id="paint45_linear_18_17915" x1="14" y1="23.0831" x2="14.9375" y2="23.0831"
            gradientUnits="userSpaceOnUse">
            <stop offset="0.451613" stop-color="#C30354" />
            <stop offset="1" stop-color="#C30354" stop-opacity="0" />
        </linearGradient>
        <radialGradient id="paint46_radial_18_17915" cx="0" cy="0" r="1"
            gradientUnits="userSpaceOnUse"
            gradientTransform="translate(15.6094 22.1925) rotate(90) scale(2.23437 0.671875)">
            <stop offset="0.153846" stop-color="#D84E7B" />
            <stop offset="1" stop-color="#D84E7B" stop-opacity="0" />
        </radialGradient>
        <linearGradient id="paint47_linear_18_17915" x1="16.7109" y1="20.5128" x2="16.7109"
            y2="24.755" gradientUnits="userSpaceOnUse">
            <stop stop-color="#CE3057" />
            <stop offset="1" stop-color="#C51776" />
        </linearGradient>
        <linearGradient id="paint48_linear_18_17915" x1="15.7187" y1="23.0831" x2="16.4375"
            y2="23.0831" gradientUnits="userSpaceOnUse">
            <stop offset="0.302326" stop-color="#C30354" />
            <stop offset="1" stop-color="#C30354" stop-opacity="0" />
        </linearGradient>
        <radialGradient id="paint49_radial_18_17915" cx="0" cy="0" r="1"
            gradientUnits="userSpaceOnUse"
            gradientTransform="translate(17.0313 22.1925) rotate(90) scale(2.23437 0.671875)">
            <stop offset="0.153846" stop-color="#D84E7B" />
            <stop offset="1" stop-color="#D84E7B" stop-opacity="0" />
        </radialGradient>
        <linearGradient id="paint50_linear_18_17915" x1="13.8672" y1="25.5206" x2="13.8672"
            y2="26.7706" gradientUnits="userSpaceOnUse">
            <stop stop-color="#C91C51" />
            <stop offset="1" stop-color="#D2226C" />
        </linearGradient>
        <radialGradient id="paint51_radial_18_17915" cx="0" cy="0" r="1"
            gradientUnits="userSpaceOnUse"
            gradientTransform="translate(14.3594 25.9738) rotate(-180) scale(0.492187 0.476563)">
            <stop offset="0.365079" stop-color="#D54A76" />
            <stop offset="1" stop-color="#D54A76" stop-opacity="0" />
        </radialGradient>
        <radialGradient id="paint52_radial_18_17915" cx="0" cy="0" r="1"
            gradientUnits="userSpaceOnUse"
            gradientTransform="translate(14.2422 26.7081) rotate(-180) scale(0.71875 0.171875)">
            <stop offset="0.260869" stop-color="#D63F67" />
            <stop offset="1" stop-color="#D63F67" stop-opacity="0" />
        </radialGradient>
        <linearGradient id="paint53_linear_18_17915" x1="16.7109" y1="25.5206" x2="16.7109"
            y2="26.7706" gradientUnits="userSpaceOnUse">
            <stop stop-color="#C91C51" />
            <stop offset="1" stop-color="#D2226C" />
        </linearGradient>
        <radialGradient id="paint54_radial_18_17915" cx="0" cy="0" r="1"
            gradientUnits="userSpaceOnUse"
            gradientTransform="translate(17.2031 25.9738) rotate(-180) scale(0.492187 0.476563)">
            <stop offset="0.365079" stop-color="#D54A76" />
            <stop offset="1" stop-color="#D54A76" stop-opacity="0" />
        </radialGradient>
        <radialGradient id="paint55_radial_18_17915" cx="0" cy="0" r="1"
            gradientUnits="userSpaceOnUse"
            gradientTransform="translate(17.0859 26.7081) rotate(-180) scale(0.71875 0.171875)">
            <stop offset="0.260869" stop-color="#D63F67" />
            <stop offset="1" stop-color="#D63F67" stop-opacity="0" />
        </radialGradient>
        <linearGradient id="paint56_linear_18_17915" x1="5.12272" y1="21.0832" x2="5.12272"
            y2="25.1508" gradientUnits="userSpaceOnUse">
            <stop stop-color="#EBB13C" />
            <stop offset="1" stop-color="#E3914A" />
        </linearGradient>
        <radialGradient id="paint57_radial_18_17915" cx="0" cy="0" r="1"
            gradientUnits="userSpaceOnUse"
            gradientTransform="translate(5.68761 22.5363) rotate(90) scale(2.23266 1.1234)">
            <stop stop-color="#FEBA43" />
            <stop offset="0.334156" stop-color="#FEBA43" stop-opacity="0.810916" />
            <stop offset="0.862367" stop-color="#FEBA43" stop-opacity="0.113256" />
            <stop offset="1" stop-color="#FEBA43" stop-opacity="0" />
        </radialGradient>
        <linearGradient id="paint58_linear_18_17915" x1="6.16104" y1="23.026" x2="5.66797"
            y2="23.026" gradientUnits="userSpaceOnUse">
            <stop stop-color="#D3867C" stop-opacity="0.76" />
            <stop offset="0.585513" stop-color="#D3867C" stop-opacity="0.163458" />
            <stop offset="1" stop-color="#D3867C" stop-opacity="0" />
        </linearGradient>
        <linearGradient id="paint59_linear_18_17915" x1="4.17243" y1="23.026" x2="4.74092"
            y2="23.026" gradientUnits="userSpaceOnUse">
            <stop stop-color="#D3867C" />
            <stop offset="0.613639" stop-color="#D3867C" stop-opacity="0.163458" />
            <stop offset="1" stop-color="#D3867C" stop-opacity="0" />
        </linearGradient>
        <radialGradient id="paint60_radial_18_17915" cx="0" cy="0" r="1"
            gradientUnits="userSpaceOnUse"
            gradientTransform="translate(5.67577 22.1611) rotate(103.947) scale(3.0542 2.2674)">
            <stop offset="0.629938" stop-color="#D3867C" stop-opacity="0" />
            <stop offset="0.815882" stop-color="#D3867C" stop-opacity="0.163458" />
            <stop offset="1" stop-color="#D3867C" />
        </radialGradient>
        <radialGradient id="paint61_radial_18_17915" cx="0" cy="0" r="1"
            gradientUnits="userSpaceOnUse"
            gradientTransform="translate(6.40429 24.1337) rotate(-118.347) scale(3.81294 2.83067)">
            <stop offset="0.629938" stop-color="#D3867C" stop-opacity="0" />
            <stop offset="0.815882" stop-color="#D3867C" stop-opacity="0.163458" />
            <stop offset="0.884439" stop-color="#D3867C" stop-opacity="0.278581" />
            <stop offset="1" stop-color="#D3867C" />
        </radialGradient>
    </defs>
</svg>