<svg width="32" height="32" viewBox="0 0 32 32" fill="none" xmlns="http://www.w3.org/2000/svg">
    <path fill-rule="evenodd" clip-rule="evenodd"
        d="M19.2671 7.89624L17.4781 8.46265L18.2753 10.9809C18.368 11.2736 18.1101 11.5572 17.81 11.4927L14.655 10.8147L14.2607 12.6494L17.41 13.3261C17.7115 13.3909 17.8294 13.7582 17.6218 13.9864L15.409 16.4186L16.7971 17.6814L18.9999 15.2601C19.2074 15.032 19.5841 15.1146 19.6772 15.4086L20.7886 18.919L22.5776 18.3526L21.4551 14.8072C21.3624 14.5146 21.6204 14.2309 21.9205 14.2954L24.9839 14.9537L25.3781 13.119L22.3519 12.4688C22.0504 12.4039 21.9325 12.0367 22.1401 11.8085L24.1779 9.56851L22.7899 8.30573L20.7402 10.5587C20.5327 10.7867 20.1561 10.7042 20.063 10.4102L19.2671 7.89624ZM19.9487 14.1346C20.6111 14.1346 21.1479 13.5977 21.1479 12.9354C21.1479 12.2731 20.6111 11.7362 19.9487 11.7362C19.2864 11.7362 18.7495 12.2731 18.7495 12.9354C18.7495 13.5977 19.2864 14.1346 19.9487 14.1346Z"
        fill="#4D4259" />
    <path fill-rule="evenodd" clip-rule="evenodd"
        d="M19.2671 7.89624L17.4781 8.46265L18.2753 10.9809C18.368 11.2736 18.1101 11.5572 17.81 11.4927L14.655 10.8147L14.2607 12.6494L17.41 13.3261C17.7115 13.3909 17.8294 13.7582 17.6218 13.9864L15.409 16.4186L16.7971 17.6814L18.9999 15.2601C19.2074 15.032 19.5841 15.1146 19.6772 15.4086L20.7886 18.919L22.5776 18.3526L21.4551 14.8072C21.3624 14.5146 21.6204 14.2309 21.9205 14.2954L24.9839 14.9537L25.3781 13.119L22.3519 12.4688C22.0504 12.4039 21.9325 12.0367 22.1401 11.8085L24.1779 9.56851L22.7899 8.30573L20.7402 10.5587C20.5327 10.7867 20.1561 10.7042 20.063 10.4102L19.2671 7.89624ZM19.9487 14.1346C20.6111 14.1346 21.1479 13.5977 21.1479 12.9354C21.1479 12.2731 20.6111 11.7362 19.9487 11.7362C19.2864 11.7362 18.7495 12.2731 18.7495 12.9354C18.7495 13.5977 19.2864 14.1346 19.9487 14.1346Z"
        fill="url(#paint0_radial_236_100)" />
    <path fill-rule="evenodd" clip-rule="evenodd"
        d="M19.2671 7.89624L17.4781 8.46265L18.2753 10.9809C18.368 11.2736 18.1101 11.5572 17.81 11.4927L14.655 10.8147L14.2607 12.6494L17.41 13.3261C17.7115 13.3909 17.8294 13.7582 17.6218 13.9864L15.409 16.4186L16.7971 17.6814L18.9999 15.2601C19.2074 15.032 19.5841 15.1146 19.6772 15.4086L20.7886 18.919L22.5776 18.3526L21.4551 14.8072C21.3624 14.5146 21.6204 14.2309 21.9205 14.2954L24.9839 14.9537L25.3781 13.119L22.3519 12.4688C22.0504 12.4039 21.9325 12.0367 22.1401 11.8085L24.1779 9.56851L22.7899 8.30573L20.7402 10.5587C20.5327 10.7867 20.1561 10.7042 20.063 10.4102L19.2671 7.89624ZM19.9487 14.1346C20.6111 14.1346 21.1479 13.5977 21.1479 12.9354C21.1479 12.2731 20.6111 11.7362 19.9487 11.7362C19.2864 11.7362 18.7495 12.2731 18.7495 12.9354C18.7495 13.5977 19.2864 14.1346 19.9487 14.1346Z"
        fill="url(#paint1_linear_236_100)" />
    <path fill-rule="evenodd" clip-rule="evenodd"
        d="M19.2671 7.89624L17.4781 8.46265L18.2753 10.9809C18.368 11.2736 18.1101 11.5572 17.81 11.4927L14.655 10.8147L14.2607 12.6494L17.41 13.3261C17.7115 13.3909 17.8294 13.7582 17.6218 13.9864L15.409 16.4186L16.7971 17.6814L18.9999 15.2601C19.2074 15.032 19.5841 15.1146 19.6772 15.4086L20.7886 18.919L22.5776 18.3526L21.4551 14.8072C21.3624 14.5146 21.6204 14.2309 21.9205 14.2954L24.9839 14.9537L25.3781 13.119L22.3519 12.4688C22.0504 12.4039 21.9325 12.0367 22.1401 11.8085L24.1779 9.56851L22.7899 8.30573L20.7402 10.5587C20.5327 10.7867 20.1561 10.7042 20.063 10.4102L19.2671 7.89624ZM19.9487 14.1346C20.6111 14.1346 21.1479 13.5977 21.1479 12.9354C21.1479 12.2731 20.6111 11.7362 19.9487 11.7362C19.2864 11.7362 18.7495 12.2731 18.7495 12.9354C18.7495 13.5977 19.2864 14.1346 19.9487 14.1346Z"
        fill="url(#paint2_linear_236_100)" />
    <path fill-rule="evenodd" clip-rule="evenodd"
        d="M19.2671 7.89624L17.4781 8.46265L18.2753 10.9809C18.368 11.2736 18.1101 11.5572 17.81 11.4927L14.655 10.8147L14.2607 12.6494L17.41 13.3261C17.7115 13.3909 17.8294 13.7582 17.6218 13.9864L15.409 16.4186L16.7971 17.6814L18.9999 15.2601C19.2074 15.032 19.5841 15.1146 19.6772 15.4086L20.7886 18.919L22.5776 18.3526L21.4551 14.8072C21.3624 14.5146 21.6204 14.2309 21.9205 14.2954L24.9839 14.9537L25.3781 13.119L22.3519 12.4688C22.0504 12.4039 21.9325 12.0367 22.1401 11.8085L24.1779 9.56851L22.7899 8.30573L20.7402 10.5587C20.5327 10.7867 20.1561 10.7042 20.063 10.4102L19.2671 7.89624ZM19.9487 14.1346C20.6111 14.1346 21.1479 13.5977 21.1479 12.9354C21.1479 12.2731 20.6111 11.7362 19.9487 11.7362C19.2864 11.7362 18.7495 12.2731 18.7495 12.9354C18.7495 13.5977 19.2864 14.1346 19.9487 14.1346Z"
        fill="url(#paint3_linear_236_100)" />
    <path fill-rule="evenodd" clip-rule="evenodd"
        d="M19.2671 7.89624L17.4781 8.46265L18.2753 10.9809C18.368 11.2736 18.1101 11.5572 17.81 11.4927L14.655 10.8147L14.2607 12.6494L17.41 13.3261C17.7115 13.3909 17.8294 13.7582 17.6218 13.9864L15.409 16.4186L16.7971 17.6814L18.9999 15.2601C19.2074 15.032 19.5841 15.1146 19.6772 15.4086L20.7886 18.919L22.5776 18.3526L21.4551 14.8072C21.3624 14.5146 21.6204 14.2309 21.9205 14.2954L24.9839 14.9537L25.3781 13.119L22.3519 12.4688C22.0504 12.4039 21.9325 12.0367 22.1401 11.8085L24.1779 9.56851L22.7899 8.30573L20.7402 10.5587C20.5327 10.7867 20.1561 10.7042 20.063 10.4102L19.2671 7.89624ZM19.9487 14.1346C20.6111 14.1346 21.1479 13.5977 21.1479 12.9354C21.1479 12.2731 20.6111 11.7362 19.9487 11.7362C19.2864 11.7362 18.7495 12.2731 18.7495 12.9354C18.7495 13.5977 19.2864 14.1346 19.9487 14.1346Z"
        fill="url(#paint4_linear_236_100)" />
    <path fill-rule="evenodd" clip-rule="evenodd"
        d="M19.2671 7.89624L17.4781 8.46265L18.2753 10.9809C18.368 11.2736 18.1101 11.5572 17.81 11.4927L14.655 10.8147L14.2607 12.6494L17.41 13.3261C17.7115 13.3909 17.8294 13.7582 17.6218 13.9864L15.409 16.4186L16.7971 17.6814L18.9999 15.2601C19.2074 15.032 19.5841 15.1146 19.6772 15.4086L20.7886 18.919L22.5776 18.3526L21.4551 14.8072C21.3624 14.5146 21.6204 14.2309 21.9205 14.2954L24.9839 14.9537L25.3781 13.119L22.3519 12.4688C22.0504 12.4039 21.9325 12.0367 22.1401 11.8085L24.1779 9.56851L22.7899 8.30573L20.7402 10.5587C20.5327 10.7867 20.1561 10.7042 20.063 10.4102L19.2671 7.89624ZM19.9487 14.1346C20.6111 14.1346 21.1479 13.5977 21.1479 12.9354C21.1479 12.2731 20.6111 11.7362 19.9487 11.7362C19.2864 11.7362 18.7495 12.2731 18.7495 12.9354C18.7495 13.5977 19.2864 14.1346 19.9487 14.1346Z"
        fill="url(#paint5_linear_236_100)" />
    <path fill-rule="evenodd" clip-rule="evenodd"
        d="M19.2671 7.89624L17.4781 8.46265L18.2753 10.9809C18.368 11.2736 18.1101 11.5572 17.81 11.4927L14.655 10.8147L14.2607 12.6494L17.41 13.3261C17.7115 13.3909 17.8294 13.7582 17.6218 13.9864L15.409 16.4186L16.7971 17.6814L18.9999 15.2601C19.2074 15.032 19.5841 15.1146 19.6772 15.4086L20.7886 18.919L22.5776 18.3526L21.4551 14.8072C21.3624 14.5146 21.6204 14.2309 21.9205 14.2954L24.9839 14.9537L25.3781 13.119L22.3519 12.4688C22.0504 12.4039 21.9325 12.0367 22.1401 11.8085L24.1779 9.56851L22.7899 8.30573L20.7402 10.5587C20.5327 10.7867 20.1561 10.7042 20.063 10.4102L19.2671 7.89624ZM19.9487 14.1346C20.6111 14.1346 21.1479 13.5977 21.1479 12.9354C21.1479 12.2731 20.6111 11.7362 19.9487 11.7362C19.2864 11.7362 18.7495 12.2731 18.7495 12.9354C18.7495 13.5977 19.2864 14.1346 19.9487 14.1346Z"
        fill="url(#paint6_linear_236_100)" />
    <path fill-rule="evenodd" clip-rule="evenodd"
        d="M19.2671 7.89624L17.4781 8.46265L18.2753 10.9809C18.368 11.2736 18.1101 11.5572 17.81 11.4927L14.655 10.8147L14.2607 12.6494L17.41 13.3261C17.7115 13.3909 17.8294 13.7582 17.6218 13.9864L15.409 16.4186L16.7971 17.6814L18.9999 15.2601C19.2074 15.032 19.5841 15.1146 19.6772 15.4086L20.7886 18.919L22.5776 18.3526L21.4551 14.8072C21.3624 14.5146 21.6204 14.2309 21.9205 14.2954L24.9839 14.9537L25.3781 13.119L22.3519 12.4688C22.0504 12.4039 21.9325 12.0367 22.1401 11.8085L24.1779 9.56851L22.7899 8.30573L20.7402 10.5587C20.5327 10.7867 20.1561 10.7042 20.063 10.4102L19.2671 7.89624ZM19.9487 14.1346C20.6111 14.1346 21.1479 13.5977 21.1479 12.9354C21.1479 12.2731 20.6111 11.7362 19.9487 11.7362C19.2864 11.7362 18.7495 12.2731 18.7495 12.9354C18.7495 13.5977 19.2864 14.1346 19.9487 14.1346Z"
        fill="url(#paint7_radial_236_100)" />
    <path fill-rule="evenodd" clip-rule="evenodd"
        d="M19.2671 7.89624L17.4781 8.46265L18.2753 10.9809C18.368 11.2736 18.1101 11.5572 17.81 11.4927L14.655 10.8147L14.2607 12.6494L17.41 13.3261C17.7115 13.3909 17.8294 13.7582 17.6218 13.9864L15.409 16.4186L16.7971 17.6814L18.9999 15.2601C19.2074 15.032 19.5841 15.1146 19.6772 15.4086L20.7886 18.919L22.5776 18.3526L21.4551 14.8072C21.3624 14.5146 21.6204 14.2309 21.9205 14.2954L24.9839 14.9537L25.3781 13.119L22.3519 12.4688C22.0504 12.4039 21.9325 12.0367 22.1401 11.8085L24.1779 9.56851L22.7899 8.30573L20.7402 10.5587C20.5327 10.7867 20.1561 10.7042 20.063 10.4102L19.2671 7.89624ZM19.9487 14.1346C20.6111 14.1346 21.1479 13.5977 21.1479 12.9354C21.1479 12.2731 20.6111 11.7362 19.9487 11.7362C19.2864 11.7362 18.7495 12.2731 18.7495 12.9354C18.7495 13.5977 19.2864 14.1346 19.9487 14.1346Z"
        fill="url(#paint8_radial_236_100)" />
    <path fill-rule="evenodd" clip-rule="evenodd"
        d="M19.2671 7.89624L17.4781 8.46265L18.2753 10.9809C18.368 11.2736 18.1101 11.5572 17.81 11.4927L14.655 10.8147L14.2607 12.6494L17.41 13.3261C17.7115 13.3909 17.8294 13.7582 17.6218 13.9864L15.409 16.4186L16.7971 17.6814L18.9999 15.2601C19.2074 15.032 19.5841 15.1146 19.6772 15.4086L20.7886 18.919L22.5776 18.3526L21.4551 14.8072C21.3624 14.5146 21.6204 14.2309 21.9205 14.2954L24.9839 14.9537L25.3781 13.119L22.3519 12.4688C22.0504 12.4039 21.9325 12.0367 22.1401 11.8085L24.1779 9.56851L22.7899 8.30573L20.7402 10.5587C20.5327 10.7867 20.1561 10.7042 20.063 10.4102L19.2671 7.89624ZM19.9487 14.1346C20.6111 14.1346 21.1479 13.5977 21.1479 12.9354C21.1479 12.2731 20.6111 11.7362 19.9487 11.7362C19.2864 11.7362 18.7495 12.2731 18.7495 12.9354C18.7495 13.5977 19.2864 14.1346 19.9487 14.1346Z"
        fill="url(#paint9_radial_236_100)" />
    <path fill-rule="evenodd" clip-rule="evenodd"
        d="M19.2671 7.89624L17.4781 8.46265L18.2753 10.9809C18.368 11.2736 18.1101 11.5572 17.81 11.4927L14.655 10.8147L14.2607 12.6494L17.41 13.3261C17.7115 13.3909 17.8294 13.7582 17.6218 13.9864L15.409 16.4186L16.7971 17.6814L18.9999 15.2601C19.2074 15.032 19.5841 15.1146 19.6772 15.4086L20.7886 18.919L22.5776 18.3526L21.4551 14.8072C21.3624 14.5146 21.6204 14.2309 21.9205 14.2954L24.9839 14.9537L25.3781 13.119L22.3519 12.4688C22.0504 12.4039 21.9325 12.0367 22.1401 11.8085L24.1779 9.56851L22.7899 8.30573L20.7402 10.5587C20.5327 10.7867 20.1561 10.7042 20.063 10.4102L19.2671 7.89624ZM19.9487 14.1346C20.6111 14.1346 21.1479 13.5977 21.1479 12.9354C21.1479 12.2731 20.6111 11.7362 19.9487 11.7362C19.2864 11.7362 18.7495 12.2731 18.7495 12.9354C18.7495 13.5977 19.2864 14.1346 19.9487 14.1346Z"
        fill="url(#paint10_radial_236_100)" />
    <path fill-rule="evenodd" clip-rule="evenodd"
        d="M19.2671 7.89624L17.4781 8.46265L18.2753 10.9809C18.368 11.2736 18.1101 11.5572 17.81 11.4927L14.655 10.8147L14.2607 12.6494L17.41 13.3261C17.7115 13.3909 17.8294 13.7582 17.6218 13.9864L15.409 16.4186L16.7971 17.6814L18.9999 15.2601C19.2074 15.032 19.5841 15.1146 19.6772 15.4086L20.7886 18.919L22.5776 18.3526L21.4551 14.8072C21.3624 14.5146 21.6204 14.2309 21.9205 14.2954L24.9839 14.9537L25.3781 13.119L22.3519 12.4688C22.0504 12.4039 21.9325 12.0367 22.1401 11.8085L24.1779 9.56851L22.7899 8.30573L20.7402 10.5587C20.5327 10.7867 20.1561 10.7042 20.063 10.4102L19.2671 7.89624ZM19.9487 14.1346C20.6111 14.1346 21.1479 13.5977 21.1479 12.9354C21.1479 12.2731 20.6111 11.7362 19.9487 11.7362C19.2864 11.7362 18.7495 12.2731 18.7495 12.9354C18.7495 13.5977 19.2864 14.1346 19.9487 14.1346Z"
        fill="url(#paint11_radial_236_100)" />
    <path fill-rule="evenodd" clip-rule="evenodd"
        d="M19.2671 7.89624L17.4781 8.46265L18.2753 10.9809C18.368 11.2736 18.1101 11.5572 17.81 11.4927L14.655 10.8147L14.2607 12.6494L17.41 13.3261C17.7115 13.3909 17.8294 13.7582 17.6218 13.9864L15.409 16.4186L16.7971 17.6814L18.9999 15.2601C19.2074 15.032 19.5841 15.1146 19.6772 15.4086L20.7886 18.919L22.5776 18.3526L21.4551 14.8072C21.3624 14.5146 21.6204 14.2309 21.9205 14.2954L24.9839 14.9537L25.3781 13.119L22.3519 12.4688C22.0504 12.4039 21.9325 12.0367 22.1401 11.8085L24.1779 9.56851L22.7899 8.30573L20.7402 10.5587C20.5327 10.7867 20.1561 10.7042 20.063 10.4102L19.2671 7.89624ZM19.9487 14.1346C20.6111 14.1346 21.1479 13.5977 21.1479 12.9354C21.1479 12.2731 20.6111 11.7362 19.9487 11.7362C19.2864 11.7362 18.7495 12.2731 18.7495 12.9354C18.7495 13.5977 19.2864 14.1346 19.9487 14.1346Z"
        fill="url(#paint12_radial_236_100)" />
    <path fill-rule="evenodd" clip-rule="evenodd"
        d="M19.2671 7.89624L17.4781 8.46265L18.2753 10.9809C18.368 11.2736 18.1101 11.5572 17.81 11.4927L14.655 10.8147L14.2607 12.6494L17.41 13.3261C17.7115 13.3909 17.8294 13.7582 17.6218 13.9864L15.409 16.4186L16.7971 17.6814L18.9999 15.2601C19.2074 15.032 19.5841 15.1146 19.6772 15.4086L20.7886 18.919L22.5776 18.3526L21.4551 14.8072C21.3624 14.5146 21.6204 14.2309 21.9205 14.2954L24.9839 14.9537L25.3781 13.119L22.3519 12.4688C22.0504 12.4039 21.9325 12.0367 22.1401 11.8085L24.1779 9.56851L22.7899 8.30573L20.7402 10.5587C20.5327 10.7867 20.1561 10.7042 20.063 10.4102L19.2671 7.89624ZM19.9487 14.1346C20.6111 14.1346 21.1479 13.5977 21.1479 12.9354C21.1479 12.2731 20.6111 11.7362 19.9487 11.7362C19.2864 11.7362 18.7495 12.2731 18.7495 12.9354C18.7495 13.5977 19.2864 14.1346 19.9487 14.1346Z"
        fill="url(#paint13_radial_236_100)" />
    <path fill-rule="evenodd" clip-rule="evenodd"
        d="M19.2671 7.89624L17.4781 8.46265L18.2753 10.9809C18.368 11.2736 18.1101 11.5572 17.81 11.4927L14.655 10.8147L14.2607 12.6494L17.41 13.3261C17.7115 13.3909 17.8294 13.7582 17.6218 13.9864L15.409 16.4186L16.7971 17.6814L18.9999 15.2601C19.2074 15.032 19.5841 15.1146 19.6772 15.4086L20.7886 18.919L22.5776 18.3526L21.4551 14.8072C21.3624 14.5146 21.6204 14.2309 21.9205 14.2954L24.9839 14.9537L25.3781 13.119L22.3519 12.4688C22.0504 12.4039 21.9325 12.0367 22.1401 11.8085L24.1779 9.56851L22.7899 8.30573L20.7402 10.5587C20.5327 10.7867 20.1561 10.7042 20.063 10.4102L19.2671 7.89624ZM19.9487 14.1346C20.6111 14.1346 21.1479 13.5977 21.1479 12.9354C21.1479 12.2731 20.6111 11.7362 19.9487 11.7362C19.2864 11.7362 18.7495 12.2731 18.7495 12.9354C18.7495 13.5977 19.2864 14.1346 19.9487 14.1346Z"
        fill="url(#paint14_radial_236_100)" />
    <path fill-rule="evenodd" clip-rule="evenodd"
        d="M19.2671 7.89624L17.4781 8.46265L18.2753 10.9809C18.368 11.2736 18.1101 11.5572 17.81 11.4927L14.655 10.8147L14.2607 12.6494L17.41 13.3261C17.7115 13.3909 17.8294 13.7582 17.6218 13.9864L15.409 16.4186L16.7971 17.6814L18.9999 15.2601C19.2074 15.032 19.5841 15.1146 19.6772 15.4086L20.7886 18.919L22.5776 18.3526L21.4551 14.8072C21.3624 14.5146 21.6204 14.2309 21.9205 14.2954L24.9839 14.9537L25.3781 13.119L22.3519 12.4688C22.0504 12.4039 21.9325 12.0367 22.1401 11.8085L24.1779 9.56851L22.7899 8.30573L20.7402 10.5587C20.5327 10.7867 20.1561 10.7042 20.063 10.4102L19.2671 7.89624ZM19.9487 14.1346C20.6111 14.1346 21.1479 13.5977 21.1479 12.9354C21.1479 12.2731 20.6111 11.7362 19.9487 11.7362C19.2864 11.7362 18.7495 12.2731 18.7495 12.9354C18.7495 13.5977 19.2864 14.1346 19.9487 14.1346Z"
        fill="url(#paint15_radial_236_100)" />
    <path fill-rule="evenodd" clip-rule="evenodd"
        d="M19.9487 17.7564C22.6113 17.7564 24.7698 15.5979 24.7698 12.9353C24.7698 10.2727 22.6113 8.11421 19.9487 8.11421C17.2861 8.11421 15.1276 10.2727 15.1276 12.9353C15.1276 15.5979 17.2861 17.7564 19.9487 17.7564ZM19.9487 19.0564C23.3293 19.0564 26.0698 16.3159 26.0698 12.9353C26.0698 9.55472 23.3293 6.81421 19.9487 6.81421C16.5681 6.81421 13.8276 9.55472 13.8276 12.9353C13.8276 16.3159 16.5681 19.0564 19.9487 19.0564Z"
        fill="#A6A1AB" />
    <path fill-rule="evenodd" clip-rule="evenodd"
        d="M19.9487 17.7564C22.6113 17.7564 24.7698 15.5979 24.7698 12.9353C24.7698 10.2727 22.6113 8.11421 19.9487 8.11421C17.2861 8.11421 15.1276 10.2727 15.1276 12.9353C15.1276 15.5979 17.2861 17.7564 19.9487 17.7564ZM19.9487 19.0564C23.3293 19.0564 26.0698 16.3159 26.0698 12.9353C26.0698 9.55472 23.3293 6.81421 19.9487 6.81421C16.5681 6.81421 13.8276 9.55472 13.8276 12.9353C13.8276 16.3159 16.5681 19.0564 19.9487 19.0564Z"
        fill="url(#paint16_radial_236_100)" />
    <path fill-rule="evenodd" clip-rule="evenodd"
        d="M19.9487 17.7564C22.6113 17.7564 24.7698 15.5979 24.7698 12.9353C24.7698 10.2727 22.6113 8.11421 19.9487 8.11421C17.2861 8.11421 15.1276 10.2727 15.1276 12.9353C15.1276 15.5979 17.2861 17.7564 19.9487 17.7564ZM19.9487 19.0564C23.3293 19.0564 26.0698 16.3159 26.0698 12.9353C26.0698 9.55472 23.3293 6.81421 19.9487 6.81421C16.5681 6.81421 13.8276 9.55472 13.8276 12.9353C13.8276 16.3159 16.5681 19.0564 19.9487 19.0564Z"
        fill="url(#paint17_radial_236_100)" />
    <path fill-rule="evenodd" clip-rule="evenodd"
        d="M9.16082 10.1273L7.50195 9.76158L6.98718 12.0966C6.92736 12.368 6.59678 12.4736 6.39068 12.2872L4.22421 10.3277L3.08473 11.5876L5.24729 13.5435C5.45436 13.7308 5.38051 14.0721 5.11452 14.157L2.27892 15.0622L2.79554 16.6805L5.61838 15.7793C5.88428 15.6944 6.14219 15.9296 6.0821 16.2022L5.36451 19.4573L7.02337 19.823L7.74813 16.5355C7.80792 16.2641 8.13852 16.1585 8.3446 16.3449L10.4482 18.2475L11.5877 16.9877L9.50961 15.1082C9.30256 14.9209 9.3764 14.5796 9.64239 14.4947L12.2538 13.661L11.7372 12.0428L9.11066 12.8813C8.84474 12.9661 8.58683 12.731 8.64694 12.4584L9.16082 10.1273ZM6.87162 15.3264C7.39085 15.6262 8.05476 15.4483 8.35454 14.9291C8.65432 14.4098 8.47642 13.7459 7.95719 13.4461C7.43797 13.1464 6.77405 13.3243 6.47427 13.8435C6.17449 14.3627 6.3524 15.0266 6.87162 15.3264Z"
        fill="#4D4259" />
    <path fill-rule="evenodd" clip-rule="evenodd"
        d="M9.16082 10.1273L7.50195 9.76158L6.98718 12.0966C6.92736 12.368 6.59678 12.4736 6.39068 12.2872L4.22421 10.3277L3.08473 11.5876L5.24729 13.5435C5.45436 13.7308 5.38051 14.0721 5.11452 14.157L2.27892 15.0622L2.79554 16.6805L5.61838 15.7793C5.88428 15.6944 6.14219 15.9296 6.0821 16.2022L5.36451 19.4573L7.02337 19.823L7.74813 16.5355C7.80792 16.2641 8.13852 16.1585 8.3446 16.3449L10.4482 18.2475L11.5877 16.9877L9.50961 15.1082C9.30256 14.9209 9.3764 14.5796 9.64239 14.4947L12.2538 13.661L11.7372 12.0428L9.11066 12.8813C8.84474 12.9661 8.58683 12.731 8.64694 12.4584L9.16082 10.1273ZM6.87162 15.3264C7.39085 15.6262 8.05476 15.4483 8.35454 14.9291C8.65432 14.4098 8.47642 13.7459 7.95719 13.4461C7.43797 13.1464 6.77405 13.3243 6.47427 13.8435C6.17449 14.3627 6.3524 15.0266 6.87162 15.3264Z"
        fill="url(#paint18_radial_236_100)" />
    <path fill-rule="evenodd" clip-rule="evenodd"
        d="M9.16082 10.1273L7.50195 9.76158L6.98718 12.0966C6.92736 12.368 6.59678 12.4736 6.39068 12.2872L4.22421 10.3277L3.08473 11.5876L5.24729 13.5435C5.45436 13.7308 5.38051 14.0721 5.11452 14.157L2.27892 15.0622L2.79554 16.6805L5.61838 15.7793C5.88428 15.6944 6.14219 15.9296 6.0821 16.2022L5.36451 19.4573L7.02337 19.823L7.74813 16.5355C7.80792 16.2641 8.13852 16.1585 8.3446 16.3449L10.4482 18.2475L11.5877 16.9877L9.50961 15.1082C9.30256 14.9209 9.3764 14.5796 9.64239 14.4947L12.2538 13.661L11.7372 12.0428L9.11066 12.8813C8.84474 12.9661 8.58683 12.731 8.64694 12.4584L9.16082 10.1273ZM6.87162 15.3264C7.39085 15.6262 8.05476 15.4483 8.35454 14.9291C8.65432 14.4098 8.47642 13.7459 7.95719 13.4461C7.43797 13.1464 6.77405 13.3243 6.47427 13.8435C6.17449 14.3627 6.3524 15.0266 6.87162 15.3264Z"
        fill="url(#paint19_linear_236_100)" />
    <path fill-rule="evenodd" clip-rule="evenodd"
        d="M9.16082 10.1273L7.50195 9.76158L6.98718 12.0966C6.92736 12.368 6.59678 12.4736 6.39068 12.2872L4.22421 10.3277L3.08473 11.5876L5.24729 13.5435C5.45436 13.7308 5.38051 14.0721 5.11452 14.157L2.27892 15.0622L2.79554 16.6805L5.61838 15.7793C5.88428 15.6944 6.14219 15.9296 6.0821 16.2022L5.36451 19.4573L7.02337 19.823L7.74813 16.5355C7.80792 16.2641 8.13852 16.1585 8.3446 16.3449L10.4482 18.2475L11.5877 16.9877L9.50961 15.1082C9.30256 14.9209 9.3764 14.5796 9.64239 14.4947L12.2538 13.661L11.7372 12.0428L9.11066 12.8813C8.84474 12.9661 8.58683 12.731 8.64694 12.4584L9.16082 10.1273ZM6.87162 15.3264C7.39085 15.6262 8.05476 15.4483 8.35454 14.9291C8.65432 14.4098 8.47642 13.7459 7.95719 13.4461C7.43797 13.1464 6.77405 13.3243 6.47427 13.8435C6.17449 14.3627 6.3524 15.0266 6.87162 15.3264Z"
        fill="url(#paint20_linear_236_100)" />
    <path fill-rule="evenodd" clip-rule="evenodd"
        d="M9.16082 10.1273L7.50195 9.76158L6.98718 12.0966C6.92736 12.368 6.59678 12.4736 6.39068 12.2872L4.22421 10.3277L3.08473 11.5876L5.24729 13.5435C5.45436 13.7308 5.38051 14.0721 5.11452 14.157L2.27892 15.0622L2.79554 16.6805L5.61838 15.7793C5.88428 15.6944 6.14219 15.9296 6.0821 16.2022L5.36451 19.4573L7.02337 19.823L7.74813 16.5355C7.80792 16.2641 8.13852 16.1585 8.3446 16.3449L10.4482 18.2475L11.5877 16.9877L9.50961 15.1082C9.30256 14.9209 9.3764 14.5796 9.64239 14.4947L12.2538 13.661L11.7372 12.0428L9.11066 12.8813C8.84474 12.9661 8.58683 12.731 8.64694 12.4584L9.16082 10.1273ZM6.87162 15.3264C7.39085 15.6262 8.05476 15.4483 8.35454 14.9291C8.65432 14.4098 8.47642 13.7459 7.95719 13.4461C7.43797 13.1464 6.77405 13.3243 6.47427 13.8435C6.17449 14.3627 6.3524 15.0266 6.87162 15.3264Z"
        fill="url(#paint21_linear_236_100)" />
    <path fill-rule="evenodd" clip-rule="evenodd"
        d="M9.16082 10.1273L7.50195 9.76158L6.98718 12.0966C6.92736 12.368 6.59678 12.4736 6.39068 12.2872L4.22421 10.3277L3.08473 11.5876L5.24729 13.5435C5.45436 13.7308 5.38051 14.0721 5.11452 14.157L2.27892 15.0622L2.79554 16.6805L5.61838 15.7793C5.88428 15.6944 6.14219 15.9296 6.0821 16.2022L5.36451 19.4573L7.02337 19.823L7.74813 16.5355C7.80792 16.2641 8.13852 16.1585 8.3446 16.3449L10.4482 18.2475L11.5877 16.9877L9.50961 15.1082C9.30256 14.9209 9.3764 14.5796 9.64239 14.4947L12.2538 13.661L11.7372 12.0428L9.11066 12.8813C8.84474 12.9661 8.58683 12.731 8.64694 12.4584L9.16082 10.1273ZM6.87162 15.3264C7.39085 15.6262 8.05476 15.4483 8.35454 14.9291C8.65432 14.4098 8.47642 13.7459 7.95719 13.4461C7.43797 13.1464 6.77405 13.3243 6.47427 13.8435C6.17449 14.3627 6.3524 15.0266 6.87162 15.3264Z"
        fill="url(#paint22_linear_236_100)" />
    <path fill-rule="evenodd" clip-rule="evenodd"
        d="M9.16082 10.1273L7.50195 9.76158L6.98718 12.0966C6.92736 12.368 6.59678 12.4736 6.39068 12.2872L4.22421 10.3277L3.08473 11.5876L5.24729 13.5435C5.45436 13.7308 5.38051 14.0721 5.11452 14.157L2.27892 15.0622L2.79554 16.6805L5.61838 15.7793C5.88428 15.6944 6.14219 15.9296 6.0821 16.2022L5.36451 19.4573L7.02337 19.823L7.74813 16.5355C7.80792 16.2641 8.13852 16.1585 8.3446 16.3449L10.4482 18.2475L11.5877 16.9877L9.50961 15.1082C9.30256 14.9209 9.3764 14.5796 9.64239 14.4947L12.2538 13.661L11.7372 12.0428L9.11066 12.8813C8.84474 12.9661 8.58683 12.731 8.64694 12.4584L9.16082 10.1273ZM6.87162 15.3264C7.39085 15.6262 8.05476 15.4483 8.35454 14.9291C8.65432 14.4098 8.47642 13.7459 7.95719 13.4461C7.43797 13.1464 6.77405 13.3243 6.47427 13.8435C6.17449 14.3627 6.3524 15.0266 6.87162 15.3264Z"
        fill="url(#paint23_linear_236_100)" />
    <path fill-rule="evenodd" clip-rule="evenodd"
        d="M9.16082 10.1273L7.50195 9.76158L6.98718 12.0966C6.92736 12.368 6.59678 12.4736 6.39068 12.2872L4.22421 10.3277L3.08473 11.5876L5.24729 13.5435C5.45436 13.7308 5.38051 14.0721 5.11452 14.157L2.27892 15.0622L2.79554 16.6805L5.61838 15.7793C5.88428 15.6944 6.14219 15.9296 6.0821 16.2022L5.36451 19.4573L7.02337 19.823L7.74813 16.5355C7.80792 16.2641 8.13852 16.1585 8.3446 16.3449L10.4482 18.2475L11.5877 16.9877L9.50961 15.1082C9.30256 14.9209 9.3764 14.5796 9.64239 14.4947L12.2538 13.661L11.7372 12.0428L9.11066 12.8813C8.84474 12.9661 8.58683 12.731 8.64694 12.4584L9.16082 10.1273ZM6.87162 15.3264C7.39085 15.6262 8.05476 15.4483 8.35454 14.9291C8.65432 14.4098 8.47642 13.7459 7.95719 13.4461C7.43797 13.1464 6.77405 13.3243 6.47427 13.8435C6.17449 14.3627 6.3524 15.0266 6.87162 15.3264Z"
        fill="url(#paint24_linear_236_100)" />
    <path fill-rule="evenodd" clip-rule="evenodd"
        d="M9.16082 10.1273L7.50195 9.76158L6.98718 12.0966C6.92736 12.368 6.59678 12.4736 6.39068 12.2872L4.22421 10.3277L3.08473 11.5876L5.24729 13.5435C5.45436 13.7308 5.38051 14.0721 5.11452 14.157L2.27892 15.0622L2.79554 16.6805L5.61838 15.7793C5.88428 15.6944 6.14219 15.9296 6.0821 16.2022L5.36451 19.4573L7.02337 19.823L7.74813 16.5355C7.80792 16.2641 8.13852 16.1585 8.3446 16.3449L10.4482 18.2475L11.5877 16.9877L9.50961 15.1082C9.30256 14.9209 9.3764 14.5796 9.64239 14.4947L12.2538 13.661L11.7372 12.0428L9.11066 12.8813C8.84474 12.9661 8.58683 12.731 8.64694 12.4584L9.16082 10.1273ZM6.87162 15.3264C7.39085 15.6262 8.05476 15.4483 8.35454 14.9291C8.65432 14.4098 8.47642 13.7459 7.95719 13.4461C7.43797 13.1464 6.77405 13.3243 6.47427 13.8435C6.17449 14.3627 6.3524 15.0266 6.87162 15.3264Z"
        fill="url(#paint25_radial_236_100)" />
    <path fill-rule="evenodd" clip-rule="evenodd"
        d="M9.16082 10.1273L7.50195 9.76158L6.98718 12.0966C6.92736 12.368 6.59678 12.4736 6.39068 12.2872L4.22421 10.3277L3.08473 11.5876L5.24729 13.5435C5.45436 13.7308 5.38051 14.0721 5.11452 14.157L2.27892 15.0622L2.79554 16.6805L5.61838 15.7793C5.88428 15.6944 6.14219 15.9296 6.0821 16.2022L5.36451 19.4573L7.02337 19.823L7.74813 16.5355C7.80792 16.2641 8.13852 16.1585 8.3446 16.3449L10.4482 18.2475L11.5877 16.9877L9.50961 15.1082C9.30256 14.9209 9.3764 14.5796 9.64239 14.4947L12.2538 13.661L11.7372 12.0428L9.11066 12.8813C8.84474 12.9661 8.58683 12.731 8.64694 12.4584L9.16082 10.1273ZM6.87162 15.3264C7.39085 15.6262 8.05476 15.4483 8.35454 14.9291C8.65432 14.4098 8.47642 13.7459 7.95719 13.4461C7.43797 13.1464 6.77405 13.3243 6.47427 13.8435C6.17449 14.3627 6.3524 15.0266 6.87162 15.3264Z"
        fill="url(#paint26_radial_236_100)" />
    <path fill-rule="evenodd" clip-rule="evenodd"
        d="M9.16082 10.1273L7.50195 9.76158L6.98718 12.0966C6.92736 12.368 6.59678 12.4736 6.39068 12.2872L4.22421 10.3277L3.08473 11.5876L5.24729 13.5435C5.45436 13.7308 5.38051 14.0721 5.11452 14.157L2.27892 15.0622L2.79554 16.6805L5.61838 15.7793C5.88428 15.6944 6.14219 15.9296 6.0821 16.2022L5.36451 19.4573L7.02337 19.823L7.74813 16.5355C7.80792 16.2641 8.13852 16.1585 8.3446 16.3449L10.4482 18.2475L11.5877 16.9877L9.50961 15.1082C9.30256 14.9209 9.3764 14.5796 9.64239 14.4947L12.2538 13.661L11.7372 12.0428L9.11066 12.8813C8.84474 12.9661 8.58683 12.731 8.64694 12.4584L9.16082 10.1273ZM6.87162 15.3264C7.39085 15.6262 8.05476 15.4483 8.35454 14.9291C8.65432 14.4098 8.47642 13.7459 7.95719 13.4461C7.43797 13.1464 6.77405 13.3243 6.47427 13.8435C6.17449 14.3627 6.3524 15.0266 6.87162 15.3264Z"
        fill="url(#paint27_radial_236_100)" />
    <path fill-rule="evenodd" clip-rule="evenodd"
        d="M9.16082 10.1273L7.50195 9.76158L6.98718 12.0966C6.92736 12.368 6.59678 12.4736 6.39068 12.2872L4.22421 10.3277L3.08473 11.5876L5.24729 13.5435C5.45436 13.7308 5.38051 14.0721 5.11452 14.157L2.27892 15.0622L2.79554 16.6805L5.61838 15.7793C5.88428 15.6944 6.14219 15.9296 6.0821 16.2022L5.36451 19.4573L7.02337 19.823L7.74813 16.5355C7.80792 16.2641 8.13852 16.1585 8.3446 16.3449L10.4482 18.2475L11.5877 16.9877L9.50961 15.1082C9.30256 14.9209 9.3764 14.5796 9.64239 14.4947L12.2538 13.661L11.7372 12.0428L9.11066 12.8813C8.84474 12.9661 8.58683 12.731 8.64694 12.4584L9.16082 10.1273ZM6.87162 15.3264C7.39085 15.6262 8.05476 15.4483 8.35454 14.9291C8.65432 14.4098 8.47642 13.7459 7.95719 13.4461C7.43797 13.1464 6.77405 13.3243 6.47427 13.8435C6.17449 14.3627 6.3524 15.0266 6.87162 15.3264Z"
        fill="url(#paint28_radial_236_100)" />
    <path fill-rule="evenodd" clip-rule="evenodd"
        d="M9.16082 10.1273L7.50195 9.76158L6.98718 12.0966C6.92736 12.368 6.59678 12.4736 6.39068 12.2872L4.22421 10.3277L3.08473 11.5876L5.24729 13.5435C5.45436 13.7308 5.38051 14.0721 5.11452 14.157L2.27892 15.0622L2.79554 16.6805L5.61838 15.7793C5.88428 15.6944 6.14219 15.9296 6.0821 16.2022L5.36451 19.4573L7.02337 19.823L7.74813 16.5355C7.80792 16.2641 8.13852 16.1585 8.3446 16.3449L10.4482 18.2475L11.5877 16.9877L9.50961 15.1082C9.30256 14.9209 9.3764 14.5796 9.64239 14.4947L12.2538 13.661L11.7372 12.0428L9.11066 12.8813C8.84474 12.9661 8.58683 12.731 8.64694 12.4584L9.16082 10.1273ZM6.87162 15.3264C7.39085 15.6262 8.05476 15.4483 8.35454 14.9291C8.65432 14.4098 8.47642 13.7459 7.95719 13.4461C7.43797 13.1464 6.77405 13.3243 6.47427 13.8435C6.17449 14.3627 6.3524 15.0266 6.87162 15.3264Z"
        fill="url(#paint29_radial_236_100)" />
    <path fill-rule="evenodd" clip-rule="evenodd"
        d="M9.16082 10.1273L7.50195 9.76158L6.98718 12.0966C6.92736 12.368 6.59678 12.4736 6.39068 12.2872L4.22421 10.3277L3.08473 11.5876L5.24729 13.5435C5.45436 13.7308 5.38051 14.0721 5.11452 14.157L2.27892 15.0622L2.79554 16.6805L5.61838 15.7793C5.88428 15.6944 6.14219 15.9296 6.0821 16.2022L5.36451 19.4573L7.02337 19.823L7.74813 16.5355C7.80792 16.2641 8.13852 16.1585 8.3446 16.3449L10.4482 18.2475L11.5877 16.9877L9.50961 15.1082C9.30256 14.9209 9.3764 14.5796 9.64239 14.4947L12.2538 13.661L11.7372 12.0428L9.11066 12.8813C8.84474 12.9661 8.58683 12.731 8.64694 12.4584L9.16082 10.1273ZM6.87162 15.3264C7.39085 15.6262 8.05476 15.4483 8.35454 14.9291C8.65432 14.4098 8.47642 13.7459 7.95719 13.4461C7.43797 13.1464 6.77405 13.3243 6.47427 13.8435C6.17449 14.3627 6.3524 15.0266 6.87162 15.3264Z"
        fill="url(#paint30_radial_236_100)" />
    <path fill-rule="evenodd" clip-rule="evenodd"
        d="M9.16082 10.1273L7.50195 9.76158L6.98718 12.0966C6.92736 12.368 6.59678 12.4736 6.39068 12.2872L4.22421 10.3277L3.08473 11.5876L5.24729 13.5435C5.45436 13.7308 5.38051 14.0721 5.11452 14.157L2.27892 15.0622L2.79554 16.6805L5.61838 15.7793C5.88428 15.6944 6.14219 15.9296 6.0821 16.2022L5.36451 19.4573L7.02337 19.823L7.74813 16.5355C7.80792 16.2641 8.13852 16.1585 8.3446 16.3449L10.4482 18.2475L11.5877 16.9877L9.50961 15.1082C9.30256 14.9209 9.3764 14.5796 9.64239 14.4947L12.2538 13.661L11.7372 12.0428L9.11066 12.8813C8.84474 12.9661 8.58683 12.731 8.64694 12.4584L9.16082 10.1273ZM6.87162 15.3264C7.39085 15.6262 8.05476 15.4483 8.35454 14.9291C8.65432 14.4098 8.47642 13.7459 7.95719 13.4461C7.43797 13.1464 6.77405 13.3243 6.47427 13.8435C6.17449 14.3627 6.3524 15.0266 6.87162 15.3264Z"
        fill="url(#paint31_radial_236_100)" />
    <path fill-rule="evenodd" clip-rule="evenodd"
        d="M9.16082 10.1273L7.50195 9.76158L6.98718 12.0966C6.92736 12.368 6.59678 12.4736 6.39068 12.2872L4.22421 10.3277L3.08473 11.5876L5.24729 13.5435C5.45436 13.7308 5.38051 14.0721 5.11452 14.157L2.27892 15.0622L2.79554 16.6805L5.61838 15.7793C5.88428 15.6944 6.14219 15.9296 6.0821 16.2022L5.36451 19.4573L7.02337 19.823L7.74813 16.5355C7.80792 16.2641 8.13852 16.1585 8.3446 16.3449L10.4482 18.2475L11.5877 16.9877L9.50961 15.1082C9.30256 14.9209 9.3764 14.5796 9.64239 14.4947L12.2538 13.661L11.7372 12.0428L9.11066 12.8813C8.84474 12.9661 8.58683 12.731 8.64694 12.4584L9.16082 10.1273ZM6.87162 15.3264C7.39085 15.6262 8.05476 15.4483 8.35454 14.9291C8.65432 14.4098 8.47642 13.7459 7.95719 13.4461C7.43797 13.1464 6.77405 13.3243 6.47427 13.8435C6.17449 14.3627 6.3524 15.0266 6.87162 15.3264Z"
        fill="url(#paint32_radial_236_100)" />
    <path fill-rule="evenodd" clip-rule="evenodd"
        d="M5.29388 18.0591C7.32232 19.2303 9.91609 18.5353 11.0872 16.5068C12.2583 14.4784 11.5633 11.8846 9.53489 10.7135C7.50644 9.54236 4.91268 10.2374 3.74156 12.2658C2.57043 14.2942 3.26543 16.888 5.29388 18.0591ZM4.64388 19.185C7.2941 20.7151 10.6829 19.807 12.213 17.1568C13.7432 14.5066 12.8351 11.1178 10.1849 9.58765C7.53466 8.05754 4.14583 8.96557 2.61572 11.6158C1.08561 14.266 1.99365 17.6549 4.64388 19.185Z"
        fill="#A6A1AB" />
    <path fill-rule="evenodd" clip-rule="evenodd"
        d="M5.29388 18.0591C7.32232 19.2303 9.91609 18.5353 11.0872 16.5068C12.2583 14.4784 11.5633 11.8846 9.53489 10.7135C7.50644 9.54236 4.91268 10.2374 3.74156 12.2658C2.57043 14.2942 3.26543 16.888 5.29388 18.0591ZM4.64388 19.185C7.2941 20.7151 10.6829 19.807 12.213 17.1568C13.7432 14.5066 12.8351 11.1178 10.1849 9.58765C7.53466 8.05754 4.14583 8.96557 2.61572 11.6158C1.08561 14.266 1.99365 17.6549 4.64388 19.185Z"
        fill="url(#paint33_radial_236_100)" />
    <path fill-rule="evenodd" clip-rule="evenodd"
        d="M5.29388 18.0591C7.32232 19.2303 9.91609 18.5353 11.0872 16.5068C12.2583 14.4784 11.5633 11.8846 9.53489 10.7135C7.50644 9.54236 4.91268 10.2374 3.74156 12.2658C2.57043 14.2942 3.26543 16.888 5.29388 18.0591ZM4.64388 19.185C7.2941 20.7151 10.6829 19.807 12.213 17.1568C13.7432 14.5066 12.8351 11.1178 10.1849 9.58765C7.53466 8.05754 4.14583 8.96557 2.61572 11.6158C1.08561 14.266 1.99365 17.6549 4.64388 19.185Z"
        fill="url(#paint34_radial_236_100)" />
    <path
        d="M5.67139 19.2697C5.67139 18.1099 6.61159 17.1697 7.77139 17.1697H20.3526C21.5124 17.1697 22.4526 18.1099 22.4526 19.2697V27.5541C22.4526 28.7139 21.5124 29.6541 20.3526 29.6541H7.77139C6.61159 29.6541 5.67139 28.7139 5.67139 27.5541V19.2697Z"
        fill="url(#paint35_linear_236_100)" />
    <path
        d="M5.67139 19.2697C5.67139 18.1099 6.61159 17.1697 7.77139 17.1697H20.3526C21.5124 17.1697 22.4526 18.1099 22.4526 19.2697V27.5541C22.4526 28.7139 21.5124 29.6541 20.3526 29.6541H7.77139C6.61159 29.6541 5.67139 28.7139 5.67139 27.5541V19.2697Z"
        fill="url(#paint36_linear_236_100)" />
    <path
        d="M5.67139 19.2697C5.67139 18.1099 6.61159 17.1697 7.77139 17.1697H20.3526C21.5124 17.1697 22.4526 18.1099 22.4526 19.2697V27.5541C22.4526 28.7139 21.5124 29.6541 20.3526 29.6541H7.77139C6.61159 29.6541 5.67139 28.7139 5.67139 27.5541V19.2697Z"
        fill="url(#paint37_radial_236_100)" />
    <path
        d="M5.67139 19.2697C5.67139 18.1099 6.61159 17.1697 7.77139 17.1697H20.3526C21.5124 17.1697 22.4526 18.1099 22.4526 19.2697V27.5541C22.4526 28.7139 21.5124 29.6541 20.3526 29.6541H7.77139C6.61159 29.6541 5.67139 28.7139 5.67139 27.5541V19.2697Z"
        fill="url(#paint38_radial_236_100)" />
    <path
        d="M5.67139 19.2697C5.67139 18.1099 6.61159 17.1697 7.77139 17.1697H20.3526C21.5124 17.1697 22.4526 18.1099 22.4526 19.2697V27.5541C22.4526 28.7139 21.5124 29.6541 20.3526 29.6541H7.77139C6.61159 29.6541 5.67139 28.7139 5.67139 27.5541V19.2697Z"
        fill="url(#paint39_linear_236_100)" />
    <path
        d="M5.67139 19.2697C5.67139 18.1099 6.61159 17.1697 7.77139 17.1697H20.3526C21.5124 17.1697 22.4526 18.1099 22.4526 19.2697V27.5541C22.4526 28.7139 21.5124 29.6541 20.3526 29.6541H7.77139C6.61159 29.6541 5.67139 28.7139 5.67139 27.5541V19.2697Z"
        fill="url(#paint40_radial_236_100)" />
    <path
        d="M5.67139 19.2697C5.67139 18.1099 6.61159 17.1697 7.77139 17.1697H20.3526C21.5124 17.1697 22.4526 18.1099 22.4526 19.2697V27.5541C22.4526 28.7139 21.5124 29.6541 20.3526 29.6541H7.77139C6.61159 29.6541 5.67139 28.7139 5.67139 27.5541V19.2697Z"
        fill="url(#paint41_linear_236_100)" />
    <path
        d="M5.67139 19.2697C5.67139 18.1099 6.61159 17.1697 7.77139 17.1697H20.3526C21.5124 17.1697 22.4526 18.1099 22.4526 19.2697V27.5541C22.4526 28.7139 21.5124 29.6541 20.3526 29.6541H7.77139C6.61159 29.6541 5.67139 28.7139 5.67139 27.5541V19.2697Z"
        fill="url(#paint42_radial_236_100)" />
    <path
        d="M5.67139 19.2697C5.67139 18.1099 6.61159 17.1697 7.77139 17.1697H20.3526C21.5124 17.1697 22.4526 18.1099 22.4526 19.2697V27.5541C22.4526 28.7139 21.5124 29.6541 20.3526 29.6541H7.77139C6.61159 29.6541 5.67139 28.7139 5.67139 27.5541V19.2697Z"
        fill="url(#paint43_radial_236_100)" />
    <path
        d="M5.67139 19.2697C5.67139 18.1099 6.61159 17.1697 7.77139 17.1697H20.3526C21.5124 17.1697 22.4526 18.1099 22.4526 19.2697V27.5541C22.4526 28.7139 21.5124 29.6541 20.3526 29.6541H7.77139C6.61159 29.6541 5.67139 28.7139 5.67139 27.5541V19.2697Z"
        fill="url(#paint44_radial_236_100)" />
    <path
        d="M5.67139 19.2697C5.67139 18.1099 6.61159 17.1697 7.77139 17.1697H20.3526C21.5124 17.1697 22.4526 18.1099 22.4526 19.2697V27.5541C22.4526 28.7139 21.5124 29.6541 20.3526 29.6541H7.77139C6.61159 29.6541 5.67139 28.7139 5.67139 27.5541V19.2697Z"
        fill="url(#paint45_radial_236_100)" />
    <path
        d="M5.67139 19.2697C5.67139 18.1099 6.61159 17.1697 7.77139 17.1697H20.3526C21.5124 17.1697 22.4526 18.1099 22.4526 19.2697V27.5541C22.4526 28.7139 21.5124 29.6541 20.3526 29.6541H7.77139C6.61159 29.6541 5.67139 28.7139 5.67139 27.5541V19.2697Z"
        fill="url(#paint46_linear_236_100)" />
    <path
        d="M5.67139 19.2697C5.67139 18.1099 6.61159 17.1697 7.77139 17.1697H20.3526C21.5124 17.1697 22.4526 18.1099 22.4526 19.2697V27.5541C22.4526 28.7139 21.5124 29.6541 20.3526 29.6541H7.77139C6.61159 29.6541 5.67139 28.7139 5.67139 27.5541V19.2697Z"
        fill="url(#paint47_linear_236_100)" />
    <path
        d="M5.67139 19.2697C5.67139 18.1099 6.61159 17.1697 7.77139 17.1697H20.3526C21.5124 17.1697 22.4526 18.1099 22.4526 19.2697V27.5541C22.4526 28.7139 21.5124 29.6541 20.3526 29.6541H7.77139C6.61159 29.6541 5.67139 28.7139 5.67139 27.5541V19.2697Z"
        fill="url(#paint48_linear_236_100)" />
    <path
        d="M5.67139 19.2697C5.67139 18.1099 6.61159 17.1697 7.77139 17.1697H20.3526C21.5124 17.1697 22.4526 18.1099 22.4526 19.2697V27.5541C22.4526 28.7139 21.5124 29.6541 20.3526 29.6541H7.77139C6.61159 29.6541 5.67139 28.7139 5.67139 27.5541V19.2697Z"
        fill="url(#paint49_radial_236_100)" />
    <path
        d="M5.67139 19.2697C5.67139 18.1099 6.61159 17.1697 7.77139 17.1697H20.3526C21.5124 17.1697 22.4526 18.1099 22.4526 19.2697V27.5541C22.4526 28.7139 21.5124 29.6541 20.3526 29.6541H7.77139C6.61159 29.6541 5.67139 28.7139 5.67139 27.5541V19.2697Z"
        fill="url(#paint50_radial_236_100)" />
    <path
        d="M5.67139 19.2697C5.67139 18.1099 6.61159 17.1697 7.77139 17.1697H20.3526C21.5124 17.1697 22.4526 18.1099 22.4526 19.2697V27.5541C22.4526 28.7139 21.5124 29.6541 20.3526 29.6541H7.77139C6.61159 29.6541 5.67139 28.7139 5.67139 27.5541V19.2697Z"
        fill="url(#paint51_linear_236_100)" />
    <path
        d="M7.76514 22.6345C7.76514 22.3692 7.98025 22.1541 8.24561 22.1541H12.9175C13.1828 22.1541 13.3979 22.3692 13.3979 22.6345C13.3979 22.8999 13.1828 23.115 12.9175 23.115H8.24561C7.98025 23.115 7.76514 22.8999 7.76514 22.6345Z"
        fill="url(#paint52_linear_236_100)" />
    <path
        d="M7.76514 22.6345C7.76514 22.3692 7.98025 22.1541 8.24561 22.1541H12.9175C13.1828 22.1541 13.3979 22.3692 13.3979 22.6345C13.3979 22.8999 13.1828 23.115 12.9175 23.115H8.24561C7.98025 23.115 7.76514 22.8999 7.76514 22.6345Z"
        fill="url(#paint53_linear_236_100)" />
    <path
        d="M7.76514 22.6345C7.76514 22.3692 7.98025 22.1541 8.24561 22.1541H12.9175C13.1828 22.1541 13.3979 22.3692 13.3979 22.6345C13.3979 22.8999 13.1828 23.115 12.9175 23.115H8.24561C7.98025 23.115 7.76514 22.8999 7.76514 22.6345Z"
        fill="url(#paint54_radial_236_100)" />
    <path
        d="M7.76514 22.6345C7.76514 22.3692 7.98025 22.1541 8.24561 22.1541H12.9175C13.1828 22.1541 13.3979 22.3692 13.3979 22.6345C13.3979 22.8999 13.1828 23.115 12.9175 23.115H8.24561C7.98025 23.115 7.76514 22.8999 7.76514 22.6345Z"
        fill="url(#paint55_radial_236_100)" />
    <path
        d="M7.76514 24.4236C7.76514 24.1582 7.98025 23.9431 8.24561 23.9431H12.9175C13.1828 23.9431 13.3979 24.1582 13.3979 24.4236C13.3979 24.6889 13.1828 24.9041 12.9175 24.9041H8.24561C7.98025 24.9041 7.76514 24.6889 7.76514 24.4236Z"
        fill="url(#paint56_linear_236_100)" />
    <path
        d="M7.76514 24.4236C7.76514 24.1582 7.98025 23.9431 8.24561 23.9431H12.9175C13.1828 23.9431 13.3979 24.1582 13.3979 24.4236C13.3979 24.6889 13.1828 24.9041 12.9175 24.9041H8.24561C7.98025 24.9041 7.76514 24.6889 7.76514 24.4236Z"
        fill="url(#paint57_linear_236_100)" />
    <path
        d="M7.76514 24.4236C7.76514 24.1582 7.98025 23.9431 8.24561 23.9431H12.9175C13.1828 23.9431 13.3979 24.1582 13.3979 24.4236C13.3979 24.6889 13.1828 24.9041 12.9175 24.9041H8.24561C7.98025 24.9041 7.76514 24.6889 7.76514 24.4236Z"
        fill="url(#paint58_radial_236_100)" />
    <path
        d="M7.76514 24.4236C7.76514 24.1582 7.98025 23.9431 8.24561 23.9431H12.9175C13.1828 23.9431 13.3979 24.1582 13.3979 24.4236C13.3979 24.6889 13.1828 24.9041 12.9175 24.9041H8.24561C7.98025 24.9041 7.76514 24.6889 7.76514 24.4236Z"
        fill="url(#paint59_radial_236_100)" />
    <path
        d="M7.76514 26.2126C7.76514 25.9473 7.98025 25.7322 8.24561 25.7322H12.9175C13.1828 25.7322 13.3979 25.9473 13.3979 26.2126C13.3979 26.478 13.1828 26.6931 12.9175 26.6931H8.24561C7.98025 26.6931 7.76514 26.478 7.76514 26.2126Z"
        fill="url(#paint60_linear_236_100)" />
    <path
        d="M7.76514 26.2126C7.76514 25.9473 7.98025 25.7322 8.24561 25.7322H12.9175C13.1828 25.7322 13.3979 25.9473 13.3979 26.2126C13.3979 26.478 13.1828 26.6931 12.9175 26.6931H8.24561C7.98025 26.6931 7.76514 26.478 7.76514 26.2126Z"
        fill="url(#paint61_linear_236_100)" />
    <path
        d="M7.76514 26.2126C7.76514 25.9473 7.98025 25.7322 8.24561 25.7322H12.9175C13.1828 25.7322 13.3979 25.9473 13.3979 26.2126C13.3979 26.478 13.1828 26.6931 12.9175 26.6931H8.24561C7.98025 26.6931 7.76514 26.478 7.76514 26.2126Z"
        fill="url(#paint62_radial_236_100)" />
    <path
        d="M7.76514 26.2126C7.76514 25.9473 7.98025 25.7322 8.24561 25.7322H12.9175C13.1828 25.7322 13.3979 25.9473 13.3979 26.2126C13.3979 26.478 13.1828 26.6931 12.9175 26.6931H8.24561C7.98025 26.6931 7.76514 26.478 7.76514 26.2126Z"
        fill="url(#paint63_radial_236_100)" />
    <circle cx="19.48" cy="20.1619" r="1.05078" fill="url(#paint64_linear_236_100)" />
    <circle cx="19.48" cy="20.1619" r="1.05078" fill="url(#paint65_linear_236_100)" />
    <circle cx="19.48" cy="20.1619" r="1.05078" fill="url(#paint66_radial_236_100)" />
    <rect x="22.4526" y="20.5525" width="2.53125" height="5.64844"
        fill="url(#paint67_linear_236_100)" />
    <rect x="22.4526" y="20.5525" width="2.53125" height="5.64844"
        fill="url(#paint68_linear_236_100)" />
    <rect x="22.4526" y="20.5525" width="2.53125" height="5.64844"
        fill="url(#paint69_linear_236_100)" />
    <path
        d="M29.6714 18.3124C29.6714 17.8664 29.202 17.5763 28.8031 17.7758L25.5367 19.409C25.1979 19.5784 24.9839 19.9246 24.9839 20.3034V26.5512C24.9839 26.9262 25.1936 27.2696 25.5272 27.4408L28.7974 29.1195C29.1967 29.3245 29.6714 29.0346 29.6714 28.5857V18.3124Z"
        fill="url(#paint70_linear_236_100)" />
    <path
        d="M29.6714 18.3124C29.6714 17.8664 29.202 17.5763 28.8031 17.7758L25.5367 19.409C25.1979 19.5784 24.9839 19.9246 24.9839 20.3034V26.5512C24.9839 26.9262 25.1936 27.2696 25.5272 27.4408L28.7974 29.1195C29.1967 29.3245 29.6714 29.0346 29.6714 28.5857V18.3124Z"
        fill="url(#paint71_linear_236_100)" />
    <path
        d="M29.6714 18.3124C29.6714 17.8664 29.202 17.5763 28.8031 17.7758L25.5367 19.409C25.1979 19.5784 24.9839 19.9246 24.9839 20.3034V26.5512C24.9839 26.9262 25.1936 27.2696 25.5272 27.4408L28.7974 29.1195C29.1967 29.3245 29.6714 29.0346 29.6714 28.5857V18.3124Z"
        fill="url(#paint72_radial_236_100)" />
    <path
        d="M29.6714 18.3124C29.6714 17.8664 29.202 17.5763 28.8031 17.7758L25.5367 19.409C25.1979 19.5784 24.9839 19.9246 24.9839 20.3034V26.5512C24.9839 26.9262 25.1936 27.2696 25.5272 27.4408L28.7974 29.1195C29.1967 29.3245 29.6714 29.0346 29.6714 28.5857V18.3124Z"
        fill="url(#paint73_linear_236_100)" />
    <circle cx="19.4487" cy="25.865" r="1.05078" fill="url(#paint74_linear_236_100)" />
    <circle cx="19.4487" cy="25.865" r="1.05078" fill="url(#paint75_radial_236_100)" />
    <circle cx="19.4487" cy="25.865" r="1.05078" fill="url(#paint76_radial_236_100)" />
    <circle cx="19.4487" cy="25.865" r="1.05078" fill="url(#paint77_radial_236_100)" />
    <defs>
        <radialGradient id="paint0_radial_236_100" cx="0" cy="0" r="1"
            gradientUnits="userSpaceOnUse"
            gradientTransform="translate(20.4214 10.2166) rotate(93.9568) scale(8.72319 5.74492)">
            <stop offset="0.583383" stop-color="#3A3043" stop-opacity="0" />
            <stop offset="1" stop-color="#3A3043" />
        </radialGradient>
        <linearGradient id="paint1_linear_236_100" x1="18.5961" y1="8.27936" x2="18.9347"
            y2="9.31305" gradientUnits="userSpaceOnUse">
            <stop stop-color="#3A3043" />
            <stop offset="1" stop-color="#3A3043" stop-opacity="0" />
        </linearGradient>
        <linearGradient id="paint2_linear_236_100" x1="23.3903" y1="8.99225" x2="22.713" y2="9.6695"
            gradientUnits="userSpaceOnUse">
            <stop stop-color="#3A3043" />
            <stop offset="1" stop-color="#3A3043" stop-opacity="0" />
        </linearGradient>
        <linearGradient id="paint3_linear_236_100" x1="24.9943" y1="13.7865" x2="24.4774"
            y2="13.6795" gradientUnits="userSpaceOnUse">
            <stop stop-color="#3A3043" />
            <stop offset="1" stop-color="#3A3043" stop-opacity="0" />
        </linearGradient>
        <linearGradient id="paint4_linear_236_100" x1="21.6629" y1="17.8544" x2="21.3384"
            y2="16.7998" gradientUnits="userSpaceOnUse">
            <stop offset="0.401042" stop-color="#3A3043" />
            <stop offset="1" stop-color="#3A3043" stop-opacity="0" />
        </linearGradient>
        <linearGradient id="paint5_linear_236_100" x1="16.6818" y1="16.8528" x2="17.0364"
            y2="16.3917" gradientUnits="userSpaceOnUse">
            <stop offset="0.401042" stop-color="#3A3043" />
            <stop offset="1" stop-color="#3A3043" stop-opacity="0" />
        </linearGradient>
        <linearGradient id="paint6_linear_236_100" x1="15.2734" y1="11.6016" x2="15.8789"
            y2="11.8125" gradientUnits="userSpaceOnUse">
            <stop offset="0.401042" stop-color="#3A3043" />
            <stop offset="1" stop-color="#3A3043" stop-opacity="0" />
        </linearGradient>
        <radialGradient id="paint7_radial_236_100" cx="0" cy="0" r="1"
            gradientUnits="userSpaceOnUse"
            gradientTransform="translate(19.0411 8.54694) rotate(73.2562) scale(2.61427 0.431324)">
            <stop stop-color="#62596B" />
            <stop offset="0.179786" stop-color="#62596B" stop-opacity="0.860044" />
            <stop offset="0.78836" stop-color="#62596B" stop-opacity="0.131897" />
            <stop offset="1" stop-color="#62596B" stop-opacity="0" />
        </radialGradient>
        <radialGradient id="paint8_radial_236_100" cx="0" cy="0" r="1"
            gradientUnits="userSpaceOnUse"
            gradientTransform="translate(23.8259 13.1249) rotate(-168.191) scale(1.94597 0.331564)">
            <stop stop-color="#62596B" />
            <stop offset="0.238313" stop-color="#62596B" stop-opacity="0.888302" />
            <stop offset="0.795785" stop-color="#62596B" stop-opacity="0.157" />
            <stop offset="1" stop-color="#62596B" stop-opacity="0" />
        </radialGradient>
        <radialGradient id="paint9_radial_236_100" cx="0" cy="0" r="1"
            gradientUnits="userSpaceOnUse"
            gradientTransform="translate(21.6572 16.5891) rotate(-108.32) scale(2.25918 0.385459)">
            <stop stop-color="#62596B" />
            <stop offset="0.204234" stop-color="#62596B" stop-opacity="0.905963" />
            <stop offset="0.806455" stop-color="#62596B" stop-opacity="0.125721" />
            <stop offset="1" stop-color="#62596B" stop-opacity="0" />
        </radialGradient>
        <radialGradient id="paint10_radial_236_100" cx="0" cy="0" r="1"
            gradientUnits="userSpaceOnUse"
            gradientTransform="translate(15.8108 11.3936) rotate(12.4238) scale(2.50088 0.394132)">
            <stop stop-color="#62596B" />
            <stop offset="0.305138" stop-color="#62596B" stop-opacity="0.850661" />
            <stop offset="0.834706" stop-color="#62596B" stop-opacity="0.124121" />
            <stop offset="1" stop-color="#62596B" stop-opacity="0" />
        </radialGradient>
        <radialGradient id="paint11_radial_236_100" cx="0" cy="0" r="1"
            gradientUnits="userSpaceOnUse"
            gradientTransform="translate(19.9388 12.916) rotate(90) scale(1.65426 1.66846)">
            <stop offset="0.846528" stop-color="#62596B" />
            <stop offset="0.966956" stop-color="#62596B" stop-opacity="0.16" />
            <stop offset="1" stop-color="#62596B" stop-opacity="0" />
        </radialGradient>
        <radialGradient id="paint12_radial_236_100" cx="0" cy="0" r="1"
            gradientUnits="userSpaceOnUse"
            gradientTransform="translate(19.9516 12.91) rotate(90) scale(1.51453 1.52753)">
            <stop offset="0.835937" stop-color="#4D4259" />
            <stop offset="1" stop-color="#4D4259" stop-opacity="0" />
        </radialGradient>
        <radialGradient id="paint13_radial_236_100" cx="0" cy="0" r="1"
            gradientUnits="userSpaceOnUse"
            gradientTransform="translate(19.4815 12.0785) rotate(133.249) scale(0.949852 3.19053)">
            <stop stop-color="#4D4259" />
            <stop offset="0.715831" stop-color="#4D4259" stop-opacity="0.651066" />
            <stop offset="0.858933" stop-color="#4D4259" stop-opacity="0.236834" />
            <stop offset="1" stop-color="#4D4259" stop-opacity="0" />
        </radialGradient>
        <radialGradient id="paint14_radial_236_100" cx="0" cy="0" r="1"
            gradientUnits="userSpaceOnUse"
            gradientTransform="translate(20.97 13.9239) rotate(-61.206) scale(0.645489 2.16818)">
            <stop stop-color="#4D4259" />
            <stop offset="0.551836" stop-color="#4D4259" stop-opacity="0.651066" />
            <stop offset="0.740636" stop-color="#4D4259" stop-opacity="0.236834" />
            <stop offset="1" stop-color="#4D4259" stop-opacity="0" />
        </radialGradient>
        <radialGradient id="paint15_radial_236_100" cx="0" cy="0" r="1"
            gradientUnits="userSpaceOnUse"
            gradientTransform="translate(21.676 9.45866) rotate(39.1736) scale(0.722741 2.06872)">
            <stop stop-color="#3D3348" />
            <stop offset="0.4565" stop-color="#3D3348" stop-opacity="0.642031" />
            <stop offset="1" stop-color="#3D3348" stop-opacity="0" />
        </radialGradient>
        <radialGradient id="paint16_radial_236_100" cx="0" cy="0" r="1"
            gradientUnits="userSpaceOnUse"
            gradientTransform="translate(20.1892 12.7839) rotate(-39.7476) scale(5.86784)">
            <stop stop-color="#C0BEC3" stop-opacity="0" />
            <stop offset="0.770605" stop-color="#C0BEC3" stop-opacity="0" />
            <stop offset="0.880526" stop-color="#C0BEC3" stop-opacity="0.35" />
            <stop offset="0.922114" stop-color="#C0BEC3" stop-opacity="0.81" />
            <stop offset="0.9368" stop-color="#C0BEC3" />
            <stop offset="0.954689" stop-color="#C0BEC3" stop-opacity="0.913823" />
            <stop offset="0.975831" stop-color="#C0BEC3" stop-opacity="0.49" />
            <stop offset="1" stop-color="#C0BEC3" stop-opacity="0" />
        </radialGradient>
        <radialGradient id="paint17_radial_236_100" cx="0" cy="0" r="1"
            gradientUnits="userSpaceOnUse"
            gradientTransform="translate(20.1922 13.0238) rotate(136.237) scale(2.75521 19.259)">
            <stop stop-color="#A6A1AB" />
            <stop offset="0.470874" stop-color="#A6A1AB" stop-opacity="0.695748" />
            <stop offset="1" stop-color="#A6A1AB" stop-opacity="0" />
        </radialGradient>
        <radialGradient id="paint18_radial_236_100" cx="0" cy="0" r="1"
            gradientUnits="userSpaceOnUse"
            gradientTransform="translate(9.0155 12.4688) rotate(123.957) scale(7.89651 5.20049)">
            <stop offset="0.583383" stop-color="#3A3043" stop-opacity="0" />
            <stop offset="1" stop-color="#3A3043" />
        </radialGradient>
        <linearGradient id="paint19_linear_236_100" x1="8.46136" y1="10.1239" x2="8.25896"
            y2="11.0875" gradientUnits="userSpaceOnUse">
            <stop stop-color="#3A3043" />
            <stop offset="1" stop-color="#3A3043" stop-opacity="0" />
        </linearGradient>
        <linearGradient id="paint20_linear_236_100" x1="11.8971" y1="12.8527" x2="11.0597"
            y2="13.0771" gradientUnits="userSpaceOnUse">
            <stop stop-color="#3A3043" />
            <stop offset="1" stop-color="#3A3043" stop-opacity="0" />
        </linearGradient>
        <linearGradient id="paint21_linear_236_100" x1="10.9847" y1="17.3372" x2="10.6279"
            y2="17.0194" gradientUnits="userSpaceOnUse">
            <stop stop-color="#3A3043" />
            <stop offset="1" stop-color="#3A3043" stop-opacity="0" />
        </linearGradient>
        <linearGradient id="paint22_linear_236_100" x1="6.53184" y1="19.0184" x2="6.75478"
            y2="18.0448" gradientUnits="userSpaceOnUse">
            <stop offset="0.401042" stop-color="#3A3043" />
            <stop offset="1" stop-color="#3A3043" stop-opacity="0" />
        </linearGradient>
        <linearGradient id="paint23_linear_236_100" x1="3.08017" y1="15.9786" x2="3.5669"
            y2="15.7777" gradientUnits="userSpaceOnUse">
            <stop offset="0.401042" stop-color="#3A3043" />
            <stop offset="1" stop-color="#3A3043" stop-opacity="0" />
        </linearGradient>
        <linearGradient id="paint24_linear_236_100" x1="4.35285" y1="11.2245" x2="4.73204"
            y2="11.6639" gradientUnits="userSpaceOnUse">
            <stop offset="0.401042" stop-color="#3A3043" />
            <stop offset="1" stop-color="#3A3043" stop-opacity="0" />
        </linearGradient>
        <radialGradient id="paint25_radial_236_100" cx="0" cy="0" r="1"
            gradientUnits="userSpaceOnUse"
            gradientTransform="translate(8.68913 10.5351) rotate(103.256) scale(2.36652 0.390449)">
            <stop stop-color="#62596B" />
            <stop offset="0.179786" stop-color="#62596B" stop-opacity="0.860044" />
            <stop offset="0.78836" stop-color="#62596B" stop-opacity="0.131897" />
            <stop offset="1" stop-color="#62596B" stop-opacity="0" />
        </radialGradient>
        <radialGradient id="paint26_radial_236_100" cx="0" cy="0" r="1"
            gradientUnits="userSpaceOnUse"
            gradientTransform="translate(10.3682 16.2898) rotate(-138.191) scale(1.76156 0.300143)">
            <stop stop-color="#62596B" />
            <stop offset="0.238313" stop-color="#62596B" stop-opacity="0.888302" />
            <stop offset="0.795785" stop-color="#62596B" stop-opacity="0.157" />
            <stop offset="1" stop-color="#62596B" stop-opacity="0" />
        </radialGradient>
        <radialGradient id="paint27_radial_236_100" cx="0" cy="0" r="1"
            gradientUnits="userSpaceOnUse"
            gradientTransform="translate(4.86829 11.3047) rotate(42.4238) scale(2.26388 0.356782)">
            <stop stop-color="#62596B" />
            <stop offset="0.305138" stop-color="#62596B" stop-opacity="0.850661" />
            <stop offset="0.834706" stop-color="#62596B" stop-opacity="0.124121" />
            <stop offset="1" stop-color="#62596B" stop-opacity="0" />
        </radialGradient>
        <radialGradient id="paint28_radial_236_100" cx="0" cy="0" r="1"
            gradientUnits="userSpaceOnUse"
            gradientTransform="translate(7.41541 14.3666) rotate(120) scale(1.49749 1.51035)">
            <stop offset="0.846528" stop-color="#62596B" />
            <stop offset="0.966956" stop-color="#62596B" stop-opacity="0.16" />
            <stop offset="1" stop-color="#62596B" stop-opacity="0" />
        </radialGradient>
        <radialGradient id="paint29_radial_236_100" cx="0" cy="0" r="1"
            gradientUnits="userSpaceOnUse"
            gradientTransform="translate(7.38682 14.3861) rotate(118.86) scale(1.33461 1.34606)">
            <stop offset="0.835937" stop-color="#4D4259" />
            <stop offset="1" stop-color="#4D4259" stop-opacity="0" />
        </radialGradient>
        <radialGradient id="paint30_radial_236_100" cx="0" cy="0" r="1"
            gradientUnits="userSpaceOnUse"
            gradientTransform="translate(7.43598 13.503) rotate(163.249) scale(0.859837 2.88817)">
            <stop stop-color="#4D4259" />
            <stop offset="0.715831" stop-color="#4D4259" stop-opacity="0.651066" />
            <stop offset="0.858933" stop-color="#4D4259" stop-opacity="0.236834" />
            <stop offset="1" stop-color="#4D4259" stop-opacity="0" />
        </radialGradient>
        <radialGradient id="paint31_radial_236_100" cx="0" cy="0" r="1"
            gradientUnits="userSpaceOnUse"
            gradientTransform="translate(7.76764 15.6235) rotate(-31.206) scale(0.584318 1.96271)">
            <stop stop-color="#4D4259" />
            <stop offset="0.551836" stop-color="#4D4259" stop-opacity="0.651066" />
            <stop offset="0.740636" stop-color="#4D4259" stop-opacity="0.236834" />
            <stop offset="1" stop-color="#4D4259" stop-opacity="0" />
        </radialGradient>
        <radialGradient id="paint32_radial_236_100" cx="0" cy="0" r="1"
            gradientUnits="userSpaceOnUse"
            gradientTransform="translate(10.3421 12.4425) rotate(69.1736) scale(0.654249 1.87267)">
            <stop stop-color="#3D3348" />
            <stop offset="0.4565" stop-color="#3D3348" stop-opacity="0.642031" />
            <stop offset="1" stop-color="#3D3348" stop-opacity="0" />
        </radialGradient>
        <radialGradient id="paint33_radial_236_100" cx="0" cy="0" r="1"
            gradientUnits="userSpaceOnUse"
            gradientTransform="translate(7.7172 14.3204) rotate(-9.22994) scale(5.2574)">
            <stop stop-color="#C0BEC3" stop-opacity="0" />
            <stop offset="0.770605" stop-color="#C0BEC3" stop-opacity="0" />
            <stop offset="0.880526" stop-color="#C0BEC3" stop-opacity="0.35" />
            <stop offset="0.922114" stop-color="#C0BEC3" stop-opacity="0.81" />
            <stop offset="0.9368" stop-color="#C0BEC3" />
            <stop offset="0.954689" stop-color="#C0BEC3" stop-opacity="0.913823" />
            <stop offset="0.975831" stop-color="#C0BEC3" stop-opacity="0.49" />
            <stop offset="1" stop-color="#C0BEC3" stop-opacity="0" />
        </radialGradient>
        <radialGradient id="paint34_radial_236_100" cx="0" cy="0" r="1"
            gradientUnits="userSpaceOnUse"
            gradientTransform="translate(7.47788 14.3404) rotate(131.042) scale(3.90032 27.2633)">
            <stop stop-color="#A6A1AB" />
            <stop offset="0.470874" stop-color="#A6A1AB" stop-opacity="0.695748" />
            <stop offset="1" stop-color="#A6A1AB" stop-opacity="0" />
        </radialGradient>
        <linearGradient id="paint35_linear_236_100" x1="14.062" y1="17.1697" x2="14.062"
            y2="29.6541" gradientUnits="userSpaceOnUse">
            <stop stop-color="#BFB8C7" />
            <stop offset="0.9999" stop-color="#BFB4CB" />
            <stop offset="1" stop-color="#BFB8C7" stop-opacity="0" />
        </linearGradient>
        <linearGradient id="paint36_linear_236_100" x1="7.56144" y1="22.855" x2="5.78924"
            y2="22.855" gradientUnits="userSpaceOnUse">
            <stop stop-color="#B0A2BE" stop-opacity="0" />
            <stop offset="0.24359" stop-color="#B0A2BE" stop-opacity="0.133736" />
            <stop offset="1" stop-color="#B0A2BE" />
        </linearGradient>
        <radialGradient id="paint37_radial_236_100" cx="0" cy="0" r="1"
            gradientUnits="userSpaceOnUse"
            gradientTransform="translate(16.9736 18.1484) rotate(90) scale(0.990831 14.4315)">
            <stop stop-color="#DEDCE1" stop-opacity="0.67" />
            <stop offset="0.245738" stop-color="#DEDCE1" stop-opacity="0.587007" />
            <stop offset="0.441449" stop-color="#DEDCE1" stop-opacity="0.434143" />
            <stop offset="0.666064" stop-color="#DEDCE1" stop-opacity="0.198644" />
            <stop offset="0.910601" stop-color="#DEDCE1" stop-opacity="0.03" />
            <stop offset="1" stop-color="#DEDCE1" stop-opacity="0" />
        </radialGradient>
        <radialGradient id="paint38_radial_236_100" cx="0" cy="0" r="1"
            gradientUnits="userSpaceOnUse"
            gradientTransform="translate(21.0137 18.5416) rotate(115.769) scale(1.07705 2.43195)">
            <stop stop-color="#DEDCE1" stop-opacity="0.67" />
            <stop offset="0.245738" stop-color="#DEDCE1" stop-opacity="0.587007" />
            <stop offset="0.441449" stop-color="#DEDCE1" stop-opacity="0.434143" />
            <stop offset="0.666064" stop-color="#DEDCE1" stop-opacity="0.198644" />
            <stop offset="0.910601" stop-color="#DEDCE1" stop-opacity="0.03" />
            <stop offset="1" stop-color="#DEDCE1" stop-opacity="0" />
        </radialGradient>
        <linearGradient id="paint39_linear_236_100" x1="21.6713" y1="22.8598" x2="22.8531"
            y2="22.8598" gradientUnits="userSpaceOnUse">
            <stop stop-color="#B286D8" stop-opacity="0" />
            <stop offset="0.221848" stop-color="#B286D8" stop-opacity="0.0930413" />
            <stop offset="0.560562" stop-color="#B286D8" stop-opacity="0.354375" />
            <stop offset="1" stop-color="#B286D8" />
        </linearGradient>
        <radialGradient id="paint40_radial_236_100" cx="0" cy="0" r="1"
            gradientUnits="userSpaceOnUse"
            gradientTransform="translate(21.995 24.8977) rotate(180) scale(1.3672 17.1942)">
            <stop stop-color="#DEDCE1" stop-opacity="0.67" />
            <stop offset="0.239143" stop-color="#DEDCE1" stop-opacity="0.587007" />
            <stop offset="0.391813" stop-color="#DEDCE1" stop-opacity="0.434143" />
            <stop offset="0.674251" stop-color="#DEDCE1" stop-opacity="0.198644" />
            <stop offset="0.921076" stop-color="#DEDCE1" stop-opacity="0.03" />
            <stop offset="1" stop-color="#DEDCE1" stop-opacity="0" />
        </radialGradient>
        <linearGradient id="paint41_linear_236_100" x1="14.062" y1="28.728" x2="14.062" y2="29.6541"
            gradientUnits="userSpaceOnUse">
            <stop stop-color="#B0A2BE" stop-opacity="0" />
            <stop offset="0.312139" stop-color="#B0A2BE" stop-opacity="0.133736" />
            <stop offset="1" stop-color="#B0A2BE" />
        </linearGradient>
        <radialGradient id="paint42_radial_236_100" cx="0" cy="0" r="1"
            gradientUnits="userSpaceOnUse"
            gradientTransform="translate(21.8111 29.2437) rotate(-133.187) scale(1.46538 5.24074)">
            <stop stop-color="#B0A2BE" />
            <stop offset="0.749557" stop-color="#B0A2BE" stop-opacity="0.133736" />
            <stop offset="0.899442" stop-color="#B0A2BE" stop-opacity="0.0282472" />
            <stop offset="1" stop-color="#B0A2BE" stop-opacity="0" />
        </radialGradient>
        <radialGradient id="paint43_radial_236_100" cx="0" cy="0" r="1"
            gradientUnits="userSpaceOnUse"
            gradientTransform="translate(22.162 17.4861) rotate(123.357) scale(1.89561 6.78818)">
            <stop stop-color="#BEB8C4" />
            <stop offset="0.749557" stop-color="#BEB8C4" stop-opacity="0.133736" />
            <stop offset="0.899442" stop-color="#BEB8C4" stop-opacity="0.0282472" />
            <stop offset="1" stop-color="#BEB8C4" stop-opacity="0" />
        </radialGradient>
        <radialGradient id="paint44_radial_236_100" cx="0" cy="0" r="1"
            gradientUnits="userSpaceOnUse"
            gradientTransform="translate(5.43692 17.7276) rotate(32.052) scale(2.50948 8.95741)">
            <stop stop-color="#B0A2BE" />
            <stop offset="0.749557" stop-color="#B0A2BE" stop-opacity="0.133736" />
            <stop offset="0.899442" stop-color="#B0A2BE" stop-opacity="0.0282472" />
            <stop offset="1" stop-color="#B0A2BE" stop-opacity="0" />
        </radialGradient>
        <radialGradient id="paint45_radial_236_100" cx="0" cy="0" r="1"
            gradientUnits="userSpaceOnUse"
            gradientTransform="translate(5.85064 29.3658) rotate(-51.8448) scale(1.9573 7.00476)">
            <stop offset="0.202227" stop-color="#B0A2BE" />
            <stop offset="0.749557" stop-color="#B0A2BE" stop-opacity="0.133736" />
            <stop offset="0.899442" stop-color="#B0A2BE" stop-opacity="0.0282472" />
            <stop offset="1" stop-color="#B0A2BE" stop-opacity="0" />
        </radialGradient>
        <linearGradient id="paint46_linear_236_100" x1="14.062" y1="17.1697" x2="14.062"
            y2="17.8314" gradientUnits="userSpaceOnUse">
            <stop stop-color="#BFBDC1" />
            <stop offset="0.6056" stop-color="#BFBDC1" stop-opacity="0.164564" />
            <stop offset="1" stop-color="#BFBDC1" stop-opacity="0" />
        </linearGradient>
        <linearGradient id="paint47_linear_236_100" x1="14.2823" y1="28.5005" x2="14.2823"
            y2="29.8565" gradientUnits="userSpaceOnUse">
            <stop stop-color="#B286D8" stop-opacity="0" />
            <stop offset="0.221848" stop-color="#B286D8" stop-opacity="0.0930413" />
            <stop offset="0.560562" stop-color="#B286D8" stop-opacity="0.354375" />
            <stop offset="1" stop-color="#B286D8" />
        </linearGradient>
        <linearGradient id="paint48_linear_236_100" x1="22.4526" y1="24.085" x2="22.1455"
            y2="24.085" gradientUnits="userSpaceOnUse">
            <stop offset="0.0677264" stop-color="#BEB8C4" />
            <stop offset="0.659663" stop-color="#BEB8C4" stop-opacity="0.26958" />
            <stop offset="1" stop-color="#BEB8C4" stop-opacity="0" />
        </linearGradient>
        <radialGradient id="paint49_radial_236_100" cx="0" cy="0" r="1"
            gradientUnits="userSpaceOnUse"
            gradientTransform="translate(19.1221 20.4705) rotate(135) scale(1.32253 1.6905)">
            <stop offset="0.345243" stop-color="#AA9CB9" />
            <stop offset="0.868423" stop-color="#AA9CB9" stop-opacity="0.108452" />
            <stop offset="1" stop-color="#AA9CB9" stop-opacity="0" />
        </radialGradient>
        <radialGradient id="paint50_radial_236_100" cx="0" cy="0" r="1"
            gradientUnits="userSpaceOnUse"
            gradientTransform="translate(19.1565 26.1857) rotate(135) scale(1.36677)">
            <stop offset="0.420416" stop-color="#AA9CB9" />
            <stop offset="0.896106" stop-color="#AA9CB9" stop-opacity="0.148631" />
            <stop offset="1" stop-color="#AA9CB9" stop-opacity="0" />
        </radialGradient>
        <linearGradient id="paint51_linear_236_100" x1="5.64718" y1="23.8103" x2="6.04639"
            y2="23.8103" gradientUnits="userSpaceOnUse">
            <stop stop-color="#C5C1CA" />
            <stop offset="1" stop-color="#C5C1CA" stop-opacity="0" />
        </linearGradient>
        <linearGradient id="paint52_linear_236_100" x1="8.54639" y1="22.8103" x2="12.8901"
            y2="22.8103" gradientUnits="userSpaceOnUse">
            <stop stop-color="#3B284D" />
            <stop offset="1" stop-color="#32273F" />
        </linearGradient>
        <linearGradient id="paint53_linear_236_100" x1="10.5815" y1="22.1541" x2="10.5815"
            y2="23.0108" gradientUnits="userSpaceOnUse">
            <stop stop-color="#4A3E56" stop-opacity="0" />
            <stop offset="0.307101" stop-color="#4A3E56" stop-opacity="0.225232" />
            <stop offset="0.404662" stop-color="#4A3E56" stop-opacity="0.411642" />
            <stop offset="0.546939" stop-color="#4A3E56" stop-opacity="0.87" />
            <stop offset="0.67702" stop-color="#4A3E56" />
            <stop offset="0.815231" stop-color="#4A3E56" stop-opacity="0.78" />
            <stop offset="1" stop-color="#4A3E56" stop-opacity="0" />
        </linearGradient>
        <radialGradient id="paint54_radial_236_100" cx="0" cy="0" r="1"
            gradientUnits="userSpaceOnUse"
            gradientTransform="translate(10.7271 22.6345) rotate(180) scale(2.93926 1.67319)">
            <stop stop-color="#3B284D" stop-opacity="0" />
            <stop offset="0.911879" stop-color="#3B284D" stop-opacity="0.114429" />
            <stop offset="1" stop-color="#3B284D" />
        </radialGradient>
        <radialGradient id="paint55_radial_236_100" cx="0" cy="0" r="1"
            gradientUnits="userSpaceOnUse"
            gradientTransform="translate(10.4848 22.6345) scale(2.93039 1.66815)">
            <stop stop-color="#32273F" stop-opacity="0" />
            <stop offset="0.861963" stop-color="#32273F" stop-opacity="0.114429" />
            <stop offset="1" stop-color="#32273F" />
        </radialGradient>
        <linearGradient id="paint56_linear_236_100" x1="8.54639" y1="24.5994" x2="12.8901"
            y2="24.5994" gradientUnits="userSpaceOnUse">
            <stop stop-color="#3B284D" />
            <stop offset="1" stop-color="#32273F" />
        </linearGradient>
        <linearGradient id="paint57_linear_236_100" x1="10.5815" y1="23.9431" x2="10.5815"
            y2="24.7999" gradientUnits="userSpaceOnUse">
            <stop stop-color="#4A3E56" stop-opacity="0" />
            <stop offset="0.307101" stop-color="#4A3E56" stop-opacity="0.225232" />
            <stop offset="0.404662" stop-color="#4A3E56" stop-opacity="0.411642" />
            <stop offset="0.546939" stop-color="#4A3E56" stop-opacity="0.87" />
            <stop offset="0.67702" stop-color="#4A3E56" />
            <stop offset="0.815231" stop-color="#4A3E56" stop-opacity="0.78" />
            <stop offset="1" stop-color="#4A3E56" stop-opacity="0" />
        </linearGradient>
        <radialGradient id="paint58_radial_236_100" cx="0" cy="0" r="1"
            gradientUnits="userSpaceOnUse"
            gradientTransform="translate(10.7271 24.4236) rotate(180) scale(2.93926 1.67319)">
            <stop stop-color="#3B284D" stop-opacity="0" />
            <stop offset="0.911879" stop-color="#3B284D" stop-opacity="0.114429" />
            <stop offset="1" stop-color="#3B284D" />
        </radialGradient>
        <radialGradient id="paint59_radial_236_100" cx="0" cy="0" r="1"
            gradientUnits="userSpaceOnUse"
            gradientTransform="translate(10.4848 24.4236) scale(2.93039 1.66815)">
            <stop stop-color="#32273F" stop-opacity="0" />
            <stop offset="0.861963" stop-color="#32273F" stop-opacity="0.114429" />
            <stop offset="1" stop-color="#32273F" />
        </radialGradient>
        <linearGradient id="paint60_linear_236_100" x1="8.54639" y1="26.3884" x2="12.8901"
            y2="26.3884" gradientUnits="userSpaceOnUse">
            <stop stop-color="#3B284D" />
            <stop offset="1" stop-color="#32273F" />
        </linearGradient>
        <linearGradient id="paint61_linear_236_100" x1="10.5815" y1="25.7322" x2="10.5815"
            y2="26.5889" gradientUnits="userSpaceOnUse">
            <stop stop-color="#4A3E56" stop-opacity="0" />
            <stop offset="0.307101" stop-color="#4A3E56" stop-opacity="0.225232" />
            <stop offset="0.404662" stop-color="#4A3E56" stop-opacity="0.411642" />
            <stop offset="0.546939" stop-color="#4A3E56" stop-opacity="0.87" />
            <stop offset="0.67702" stop-color="#4A3E56" />
            <stop offset="0.815231" stop-color="#4A3E56" stop-opacity="0.78" />
            <stop offset="1" stop-color="#4A3E56" stop-opacity="0" />
        </linearGradient>
        <radialGradient id="paint62_radial_236_100" cx="0" cy="0" r="1"
            gradientUnits="userSpaceOnUse"
            gradientTransform="translate(10.7271 26.2126) rotate(180) scale(2.93926 1.67319)">
            <stop stop-color="#3B284D" stop-opacity="0" />
            <stop offset="0.911879" stop-color="#3B284D" stop-opacity="0.114429" />
            <stop offset="1" stop-color="#3B284D" />
        </radialGradient>
        <radialGradient id="paint63_radial_236_100" cx="0" cy="0" r="1"
            gradientUnits="userSpaceOnUse"
            gradientTransform="translate(10.4848 26.2126) scale(2.93039 1.66815)">
            <stop stop-color="#32273F" stop-opacity="0" />
            <stop offset="0.861963" stop-color="#32273F" stop-opacity="0.114429" />
            <stop offset="1" stop-color="#32273F" />
        </radialGradient>
        <linearGradient id="paint64_linear_236_100" x1="20.2383" y1="19.1111" x2="19.0696"
            y2="21.1199" gradientUnits="userSpaceOnUse">
            <stop stop-color="white" />
            <stop offset="0.93966" stop-color="#BA9FD1" />
        </linearGradient>
        <linearGradient id="paint65_linear_236_100" x1="19.2863" y1="20.0278" x2="18.3498"
            y2="19.6312" gradientUnits="userSpaceOnUse">
            <stop offset="0.11065" stop-color="#BCB6C1" stop-opacity="0" />
            <stop offset="0.86621" stop-color="#BCB6C1" />
        </linearGradient>
        <radialGradient id="paint66_radial_236_100" cx="0" cy="0" r="1"
            gradientUnits="userSpaceOnUse"
            gradientTransform="translate(19.48 20.1619) rotate(135) scale(0.907146)">
            <stop offset="0.690227" stop-color="#E1D7EB" />
            <stop offset="0.886886" stop-color="#E1D7EB" stop-opacity="0.526316" />
            <stop offset="1" stop-color="#E1D7EB" stop-opacity="0.35" />
        </radialGradient>
        <linearGradient id="paint67_linear_236_100" x1="23.7183" y1="20.5525" x2="23.7183"
            y2="24.9666" gradientUnits="userSpaceOnUse">
            <stop stop-color="#ADABAE" />
            <stop offset="1" stop-color="#9481A8" />
        </linearGradient>
        <linearGradient id="paint68_linear_236_100" x1="24.8276" y1="26.2712" x2="24.8276"
            y2="25.1072" gradientUnits="userSpaceOnUse">
            <stop stop-color="#9E75C2" />
            <stop offset="1" stop-color="#84699E" stop-opacity="0" />
        </linearGradient>
        <linearGradient id="paint69_linear_236_100" x1="25.3276" y1="25.2166" x2="24.2339"
            y2="25.2166" gradientUnits="userSpaceOnUse">
            <stop stop-color="#848087" />
            <stop offset="1" stop-color="#848087" stop-opacity="0" />
        </linearGradient>
        <linearGradient id="paint70_linear_236_100" x1="27.3276" y1="22.7791" x2="27.3276"
            y2="28.2791" gradientUnits="userSpaceOnUse">
            <stop stop-color="#343137" />
            <stop offset="1" stop-color="#402B54" />
        </linearGradient>
        <linearGradient id="paint71_linear_236_100" x1="26.7495" y1="28.201" x2="27.5464"
            y2="26.6541" gradientUnits="userSpaceOnUse">
            <stop stop-color="#694787" />
            <stop offset="1" stop-color="#442D59" stop-opacity="0" />
        </linearGradient>
        <radialGradient id="paint72_radial_236_100" cx="0" cy="0" r="1"
            gradientUnits="userSpaceOnUse"
            gradientTransform="translate(29.4214 22.3416) rotate(90) scale(5.96875 0.522634)">
            <stop offset="0.196335" stop-color="#5A5560" />
            <stop offset="0.830201" stop-color="#5A5560" stop-opacity="0.147901" />
            <stop offset="1" stop-color="#5A5560" stop-opacity="0" />
        </radialGradient>
        <linearGradient id="paint73_linear_236_100" x1="27.0615" y1="18.7646" x2="27.4596"
            y2="19.6754" gradientUnits="userSpaceOnUse">
            <stop stop-color="#464548" />
            <stop offset="0.660312" stop-color="#464548" stop-opacity="0.168084" />
            <stop offset="1" stop-color="#464548" stop-opacity="0" />
        </linearGradient>
        <linearGradient id="paint74_linear_236_100" x1="20.207" y1="24.8142" x2="19.0384"
            y2="26.823" gradientUnits="userSpaceOnUse">
            <stop stop-color="#FF4676" />
            <stop offset="1" stop-color="#BC3E68" />
        </linearGradient>
        <radialGradient id="paint75_radial_236_100" cx="0" cy="0" r="1"
            gradientUnits="userSpaceOnUse"
            gradientTransform="translate(19.9628 26.4393) rotate(-135.385) scale(1.8377 2.28294)">
            <stop offset="0.665345" stop-color="#B9526A" stop-opacity="0" />
            <stop offset="1" stop-color="#B9526A" />
        </radialGradient>
        <radialGradient id="paint76_radial_236_100" cx="0" cy="0" r="1"
            gradientUnits="userSpaceOnUse"
            gradientTransform="translate(19.6078 25.7628) rotate(-179.729) scale(0.941251)">
            <stop offset="0.61204" stop-color="#FF6285" />
            <stop offset="0.893649" stop-color="#FF6285" stop-opacity="0.15335" />
            <stop offset="1" stop-color="#FF6285" stop-opacity="0" />
        </radialGradient>
        <radialGradient id="paint77_radial_236_100" cx="0" cy="0" r="1"
            gradientUnits="userSpaceOnUse"
            gradientTransform="translate(19.4101 25.9221) rotate(157.27) scale(0.881378 0.936553)">
            <stop offset="0.558723" stop-color="#F4396B" />
            <stop offset="0.768215" stop-color="#F4396B" stop-opacity="0.610111" />
            <stop offset="0.890943" stop-color="#F4396B" stop-opacity="0.277991" />
            <stop offset="1" stop-color="#F4396B" stop-opacity="0" />
        </radialGradient>
    </defs>
</svg>