<svg width="32" height="32" viewBox="0 0 32 32" fill="none" xmlns="http://www.w3.org/2000/svg">
    <path
        d="M7.39062 27.0234C7.39062 28.6803 8.73377 30.0234 10.3906 30.0234H27.2422V4.97656C27.2422 3.31971 25.899 1.97656 24.2422 1.97656H4.84375H4.75781V1.97798C4.78635 1.97704 4.815 1.97656 4.84375 1.97656C6.25034 1.97656 7.39062 3.11684 7.39062 4.52344V27.0234Z"
        fill="url(#paint0_linear_18_21056)" />
    <path
        d="M7.39062 27.0234C7.39062 28.6803 8.73377 30.0234 10.3906 30.0234H27.2422V4.97656C27.2422 3.31971 25.899 1.97656 24.2422 1.97656H4.84375H4.75781V1.97798C4.78635 1.97704 4.815 1.97656 4.84375 1.97656C6.25034 1.97656 7.39062 3.11684 7.39062 4.52344V27.0234Z"
        fill="url(#paint1_linear_18_21056)" />
    <path
        d="M7.39062 27.0234C7.39062 28.6803 8.73377 30.0234 10.3906 30.0234H27.2422V4.97656C27.2422 3.31971 25.899 1.97656 24.2422 1.97656H4.84375H4.75781V1.97798C4.78635 1.97704 4.815 1.97656 4.84375 1.97656C6.25034 1.97656 7.39062 3.11684 7.39062 4.52344V27.0234Z"
        fill="url(#paint2_linear_18_21056)" />
    <path
        d="M7.39062 27.0234C7.39062 28.6803 8.73377 30.0234 10.3906 30.0234H27.2422V4.97656C27.2422 3.31971 25.899 1.97656 24.2422 1.97656H4.84375H4.75781V1.97798C4.78635 1.97704 4.815 1.97656 4.84375 1.97656C6.25034 1.97656 7.39062 3.11684 7.39062 4.52344V27.0234Z"
        fill="url(#paint3_radial_18_21056)" />
    <path
        d="M7.39062 27.0234C7.39062 28.6803 8.73377 30.0234 10.3906 30.0234H27.2422V4.97656C27.2422 3.31971 25.899 1.97656 24.2422 1.97656H4.84375H4.75781V1.97798C4.78635 1.97704 4.815 1.97656 4.84375 1.97656C6.25034 1.97656 7.39062 3.11684 7.39062 4.52344V27.0234Z"
        fill="url(#paint4_radial_18_21056)" />
    <path
        d="M27.2422 30.0234H10.3906C8.73377 30.0234 7.39062 28.6803 7.39062 27.0234V4.52344H27.2082C27.2306 4.67122 27.2422 4.82253 27.2422 4.97656V30.0234Z"
        fill="url(#paint5_linear_18_21056)" />
    <path
        d="M27.2422 30.0234H10.3906C8.73377 30.0234 7.39062 28.6803 7.39062 27.0234V4.52344H27.2082C27.2306 4.67122 27.2422 4.82253 27.2422 4.97656V30.0234Z"
        fill="url(#paint6_linear_18_21056)" />
    <path
        d="M27.2422 30.0234H10.3906C8.73377 30.0234 7.39062 28.6803 7.39062 27.0234V4.52344H27.2082C27.2306 4.67122 27.2422 4.82253 27.2422 4.97656V30.0234Z"
        fill="url(#paint7_linear_18_21056)" />
    <path
        d="M27.2422 30.0234H10.3906C8.73377 30.0234 7.39062 28.6803 7.39062 27.0234V4.52344H27.2082C27.2306 4.67122 27.2422 4.82253 27.2422 4.97656V30.0234Z"
        fill="url(#paint8_linear_18_21056)" />
    <path
        d="M27.2422 30.0234H10.3906C8.73377 30.0234 7.39062 28.6803 7.39062 27.0234V4.52344H27.2082C27.2306 4.67122 27.2422 4.82253 27.2422 4.97656V30.0234Z"
        fill="url(#paint9_linear_18_21056)" />
    <path
        d="M27.2422 30.0234H10.3906C8.73377 30.0234 7.39062 28.6803 7.39062 27.0234V4.52344H27.2082C27.2306 4.67122 27.2422 4.82253 27.2422 4.97656V30.0234Z"
        fill="url(#paint10_linear_18_21056)" />
    <path
        d="M27.2422 30.0234H10.3906C8.73377 30.0234 7.39062 28.6803 7.39062 27.0234V4.52344H27.2082C27.2306 4.67122 27.2422 4.82253 27.2422 4.97656V30.0234Z"
        fill="url(#paint11_linear_18_21056)" />
    <path
        d="M27.2422 30.0234H10.3906C8.73377 30.0234 7.39062 28.6803 7.39062 27.0234V4.52344H27.2082C27.2306 4.67122 27.2422 4.82253 27.2422 4.97656V30.0234Z"
        fill="url(#paint12_linear_18_21056)" />
    <path
        d="M27.2422 30.0234H10.3906C8.73377 30.0234 7.39062 28.6803 7.39062 27.0234V4.52344H27.2082C27.2306 4.67122 27.2422 4.82253 27.2422 4.97656V30.0234Z"
        fill="url(#paint13_linear_18_21056)" />
    <path
        d="M27.2422 30.0234H10.3906C8.73377 30.0234 7.39062 28.6803 7.39062 27.0234V4.52344H27.2082C27.2306 4.67122 27.2422 4.82253 27.2422 4.97656V30.0234Z"
        fill="url(#paint14_linear_18_21056)" />
    <path
        d="M4.84375 1.97656C3.43716 1.97656 2.29688 3.11684 2.29688 4.52344V5.22813C2.29688 5.28335 2.34165 5.32812 2.39688 5.32812H7.39062V4.52344C7.39062 3.11684 6.25034 1.97656 4.84375 1.97656Z"
        fill="url(#paint15_radial_18_21056)" />
    <path
        d="M4.84375 1.97656C3.43716 1.97656 2.29688 3.11684 2.29688 4.52344V5.22813C2.29688 5.28335 2.34165 5.32812 2.39688 5.32812H7.39062V4.52344C7.39062 3.11684 6.25034 1.97656 4.84375 1.97656Z"
        fill="url(#paint16_radial_18_21056)" />
    <path
        d="M4.84375 1.97656C3.43716 1.97656 2.29688 3.11684 2.29688 4.52344V5.22813C2.29688 5.28335 2.34165 5.32812 2.39688 5.32812H7.39062V4.52344C7.39062 3.11684 6.25034 1.97656 4.84375 1.97656Z"
        fill="url(#paint17_radial_18_21056)" />
    <path
        d="M4.84375 1.97656C3.43716 1.97656 2.29688 3.11684 2.29688 4.52344V5.22813C2.29688 5.28335 2.34165 5.32812 2.39688 5.32812H7.39062V4.52344C7.39062 3.11684 6.25034 1.97656 4.84375 1.97656Z"
        fill="url(#paint18_radial_18_21056)" />
    <path
        d="M4.84375 1.97656C3.43716 1.97656 2.29688 3.11684 2.29688 4.52344V5.22813C2.29688 5.28335 2.34165 5.32812 2.39688 5.32812H7.39062V4.52344C7.39062 3.11684 6.25034 1.97656 4.84375 1.97656Z"
        fill="url(#paint19_radial_18_21056)" />
    <path
        d="M4.84375 1.97656C3.43716 1.97656 2.29688 3.11684 2.29688 4.52344V5.22813C2.29688 5.28335 2.34165 5.32812 2.39688 5.32812H7.39062V4.52344C7.39062 3.11684 6.25034 1.97656 4.84375 1.97656Z"
        fill="url(#paint20_radial_18_21056)" fill-opacity="0.66" />
    <path
        d="M4.84375 1.97656C3.43716 1.97656 2.29688 3.11684 2.29688 4.52344V5.22813C2.29688 5.28335 2.34165 5.32812 2.39688 5.32812H7.39062V4.52344C7.39062 3.11684 6.25034 1.97656 4.84375 1.97656Z"
        fill="url(#paint21_radial_18_21056)" fill-opacity="0.66" />
    <path
        d="M4.84375 1.97656C3.43716 1.97656 2.29688 3.11684 2.29688 4.52344V5.22813C2.29688 5.28335 2.34165 5.32812 2.39688 5.32812H7.39062V4.52344C7.39062 3.11684 6.25034 1.97656 4.84375 1.97656Z"
        fill="url(#paint22_radial_18_21056)" fill-opacity="0.66" />
    <rect x="10.25" y="21.0898" width="9.00781" height="1.01172" rx="0.505859"
        fill="url(#paint23_linear_18_21056)" />
    <rect x="10.25" y="21.0898" width="9.00781" height="1.01172" rx="0.505859"
        fill="url(#paint24_linear_18_21056)" fill-opacity="0.91" />
    <rect x="10.25" y="21.0898" width="9.00781" height="1.01172" rx="0.505859"
        fill="url(#paint25_linear_18_21056)" fill-opacity="0.91" />
    <rect x="10.25" y="21.0898" width="9.00781" height="1.01172" rx="0.505859"
        fill="url(#paint26_linear_18_21056)" fill-opacity="0.91" />
    <rect x="10.25" y="21.0898" width="9.00781" height="1.01172" rx="0.505859"
        fill="url(#paint27_linear_18_21056)" fill-opacity="0.91" />
    <rect x="10.25" y="21.0898" width="9.00781" height="1.01172" rx="0.505859"
        fill="url(#paint28_linear_18_21056)" fill-opacity="0.91" />
    <rect x="10.25" y="21.0898" width="9.00781" height="1.01172" rx="0.505859"
        fill="url(#paint29_linear_18_21056)" fill-opacity="0.91" />
    <rect x="10.25" y="21.0898" width="9.00781" height="1.01172" rx="0.505859"
        fill="url(#paint30_linear_18_21056)" fill-opacity="0.91" />
    <rect x="10.25" y="21.0898" width="9.00781" height="1.01172" rx="0.505859"
        fill="url(#paint31_linear_18_21056)" fill-opacity="0.91" />
    <rect x="10.25" y="21.0898" width="9.00781" height="1.01172" rx="0.505859"
        fill="url(#paint32_linear_18_21056)" fill-opacity="0.91" />
    <rect x="10.25" y="18.0972" width="13.9062" height="1.01172" rx="0.505859"
        fill="url(#paint33_linear_18_21056)" />
    <rect x="10.25" y="18.0972" width="13.9062" height="1.01172" rx="0.505859"
        fill="url(#paint34_linear_18_21056)" fill-opacity="0.91" />
    <rect x="10.25" y="18.0972" width="13.9062" height="1.01172" rx="0.505859"
        fill="url(#paint35_linear_18_21056)" fill-opacity="0.91" />
    <rect x="10.25" y="18.0972" width="13.9062" height="1.01172" rx="0.505859"
        fill="url(#paint36_linear_18_21056)" fill-opacity="0.91" />
    <rect x="10.25" y="18.0972" width="13.9062" height="1.01172" rx="0.505859"
        fill="url(#paint37_linear_18_21056)" fill-opacity="0.91" />
    <rect x="10.25" y="18.0972" width="13.9062" height="1.01172" rx="0.505859"
        fill="url(#paint38_linear_18_21056)" fill-opacity="0.91" />
    <rect x="10.25" y="18.0972" width="13.9062" height="1.01172" rx="0.505859"
        fill="url(#paint39_linear_18_21056)" fill-opacity="0.91" />
    <rect x="10.25" y="18.0972" width="13.9062" height="1.01172" rx="0.505859"
        fill="url(#paint40_linear_18_21056)" fill-opacity="0.91" />
    <rect x="10.25" y="18.0972" width="13.9062" height="1.01172" rx="0.505859"
        fill="url(#paint41_linear_18_21056)" fill-opacity="0.91" />
    <rect x="10.25" y="18.0972" width="13.9062" height="1.01172" rx="0.505859"
        fill="url(#paint42_linear_18_21056)" fill-opacity="0.91" />
    <rect x="10.25" y="15.1055" width="13.9062" height="1.01172" rx="0.505859"
        fill="url(#paint43_linear_18_21056)" />
    <rect x="10.25" y="15.1055" width="13.9062" height="1.01172" rx="0.505859"
        fill="url(#paint44_linear_18_21056)" fill-opacity="0.91" />
    <rect x="10.25" y="15.1055" width="13.9062" height="1.01172" rx="0.505859"
        fill="url(#paint45_linear_18_21056)" fill-opacity="0.91" />
    <rect x="10.25" y="15.1055" width="13.9062" height="1.01172" rx="0.505859"
        fill="url(#paint46_linear_18_21056)" fill-opacity="0.91" />
    <rect x="10.25" y="15.1055" width="13.9062" height="1.01172" rx="0.505859"
        fill="url(#paint47_linear_18_21056)" fill-opacity="0.91" />
    <rect x="10.25" y="15.1055" width="13.9062" height="1.01172" rx="0.505859"
        fill="url(#paint48_linear_18_21056)" fill-opacity="0.91" />
    <rect x="10.25" y="15.1055" width="13.9062" height="1.01172" rx="0.505859"
        fill="url(#paint49_linear_18_21056)" fill-opacity="0.91" />
    <rect x="10.25" y="15.1055" width="13.9062" height="1.01172" rx="0.505859"
        fill="url(#paint50_linear_18_21056)" fill-opacity="0.91" />
    <rect x="10.25" y="15.1055" width="13.9062" height="1.01172" rx="0.505859"
        fill="url(#paint51_linear_18_21056)" fill-opacity="0.91" />
    <rect x="10.25" y="15.1055" width="13.9062" height="1.01172" rx="0.505859"
        fill="url(#paint52_linear_18_21056)" fill-opacity="0.91" />
    <rect x="10.25" y="12.1138" width="13.9062" height="1.01172" rx="0.505859"
        fill="url(#paint53_linear_18_21056)" />
    <rect x="10.25" y="12.1138" width="13.9062" height="1.01172" rx="0.505859"
        fill="url(#paint54_linear_18_21056)" fill-opacity="0.91" />
    <rect x="10.25" y="12.1138" width="13.9062" height="1.01172" rx="0.505859"
        fill="url(#paint55_linear_18_21056)" fill-opacity="0.91" />
    <rect x="10.25" y="12.1138" width="13.9062" height="1.01172" rx="0.505859"
        fill="url(#paint56_linear_18_21056)" fill-opacity="0.91" />
    <rect x="10.25" y="12.1138" width="13.9062" height="1.01172" rx="0.505859"
        fill="url(#paint57_linear_18_21056)" fill-opacity="0.91" />
    <rect x="10.25" y="12.1138" width="13.9062" height="1.01172" rx="0.505859"
        fill="url(#paint58_linear_18_21056)" fill-opacity="0.91" />
    <rect x="10.25" y="12.1138" width="13.9062" height="1.01172" rx="0.505859"
        fill="url(#paint59_linear_18_21056)" fill-opacity="0.91" />
    <rect x="10.25" y="12.1138" width="13.9062" height="1.01172" rx="0.505859"
        fill="url(#paint60_linear_18_21056)" fill-opacity="0.91" />
    <rect x="10.25" y="12.1138" width="13.9062" height="1.01172" rx="0.505859"
        fill="url(#paint61_linear_18_21056)" fill-opacity="0.91" />
    <rect x="10.25" y="12.1138" width="13.9062" height="1.01172" rx="0.505859"
        fill="url(#paint62_linear_18_21056)" fill-opacity="0.91" />
    <path
        d="M4.75781 1.97656H4.84375H8.47388V4.52344H7.39062C7.39062 3.11684 6.25034 1.97656 4.84375 1.97656C4.815 1.97656 4.78635 1.97704 4.75781 1.97798V1.97656Z"
        fill="url(#paint63_radial_18_21056)" />
    <path
        d="M4.75781 1.97656H4.84375H8.47388V4.52344H7.39062C7.39062 3.11684 6.25034 1.97656 4.84375 1.97656C4.815 1.97656 4.78635 1.97704 4.75781 1.97798V1.97656Z"
        fill="url(#paint64_radial_18_21056)" />
    <path
        d="M4.75781 1.97656H4.84375H8.47388V4.52344H7.39062C7.39062 3.11684 6.25034 1.97656 4.84375 1.97656C4.815 1.97656 4.78635 1.97704 4.75781 1.97798V1.97656Z"
        fill="url(#paint65_radial_18_21056)" />
    <path
        d="M4.75781 1.97656H4.84375H8.47388V4.52344H7.39062C7.39062 3.11684 6.25034 1.97656 4.84375 1.97656C4.815 1.97656 4.78635 1.97704 4.75781 1.97798V1.97656Z"
        fill="url(#paint66_radial_18_21056)" />
    <path
        d="M4.75781 1.97656H4.84375H8.47388V4.52344H7.39062C7.39062 3.11684 6.25034 1.97656 4.84375 1.97656C4.815 1.97656 4.78635 1.97704 4.75781 1.97798V1.97656Z"
        fill="url(#paint67_radial_18_21056)" />
    <path
        d="M24.2422 1.97656C25.899 1.97656 27.2422 3.31971 27.2422 4.97656V5.87747H18.9774V1.97656H24.2422Z"
        fill="url(#paint68_radial_18_21056)" />
    <path
        d="M24.2422 1.97656C25.899 1.97656 27.2422 3.31971 27.2422 4.97656V5.87747H18.9774V1.97656H24.2422Z"
        fill="url(#paint69_radial_18_21056)" />
    <path
        d="M24.2422 1.97656C25.899 1.97656 27.2422 3.31971 27.2422 4.97656V5.87747H18.9774V1.97656H24.2422Z"
        fill="url(#paint70_radial_18_21056)" />
    <path
        d="M24.2422 1.97656C25.899 1.97656 27.2422 3.31971 27.2422 4.97656V5.87747H18.9774V1.97656H24.2422Z"
        fill="url(#paint71_radial_18_21056)" />
    <path
        d="M24.2422 1.97656C25.899 1.97656 27.2422 3.31971 27.2422 4.97656V5.87747H18.9774V1.97656H24.2422Z"
        fill="url(#paint72_radial_18_21056)" />
    <path
        d="M24.2422 1.97656C25.899 1.97656 27.2422 3.31971 27.2422 4.97656V5.87747H18.9774V1.97656H24.2422Z"
        fill="url(#paint73_radial_18_21056)" />
    <path
        d="M24.2422 1.97656C25.899 1.97656 27.2422 3.31971 27.2422 4.97656V5.87747H18.9774V1.97656H24.2422Z"
        fill="url(#paint74_radial_18_21056)" />
    <path fill-rule="evenodd" clip-rule="evenodd"
        d="M14.0078 27.4141C14.0078 27.276 14.1198 27.1641 14.2578 27.1641H15.0184H30.1701C30.2272 27.1641 30.2734 27.2103 30.2734 27.2674C30.2734 28.7895 29.0395 30.0234 27.5174 30.0234H15.0184H11.0352C12.6449 30.0234 13.9305 29.0173 14.0039 27.4258L14.0078 27.4264V27.4141Z"
        fill="url(#paint75_linear_18_21056)" />
    <path fill-rule="evenodd" clip-rule="evenodd"
        d="M14.0078 27.4141C14.0078 27.276 14.1198 27.1641 14.2578 27.1641H15.0184H30.1701C30.2272 27.1641 30.2734 27.2103 30.2734 27.2674C30.2734 28.7895 29.0395 30.0234 27.5174 30.0234H15.0184H11.0352C12.6449 30.0234 13.9305 29.0173 14.0039 27.4258L14.0078 27.4264V27.4141Z"
        fill="url(#paint76_linear_18_21056)" />
    <path fill-rule="evenodd" clip-rule="evenodd"
        d="M14.0078 27.4141C14.0078 27.276 14.1198 27.1641 14.2578 27.1641H15.0184H30.1701C30.2272 27.1641 30.2734 27.2103 30.2734 27.2674C30.2734 28.7895 29.0395 30.0234 27.5174 30.0234H15.0184H11.0352C12.6449 30.0234 13.9305 29.0173 14.0039 27.4258L14.0078 27.4264V27.4141Z"
        fill="url(#paint77_linear_18_21056)" fill-opacity="0.61" />
    <path fill-rule="evenodd" clip-rule="evenodd"
        d="M14.0078 27.4141C14.0078 27.276 14.1198 27.1641 14.2578 27.1641H15.0184H30.1701C30.2272 27.1641 30.2734 27.2103 30.2734 27.2674C30.2734 28.7895 29.0395 30.0234 27.5174 30.0234H15.0184H11.0352C12.6449 30.0234 13.9305 29.0173 14.0039 27.4258L14.0078 27.4264V27.4141Z"
        fill="url(#paint78_linear_18_21056)" fill-opacity="0.61" />
    <path fill-rule="evenodd" clip-rule="evenodd"
        d="M14.0078 27.4141C14.0078 27.276 14.1198 27.1641 14.2578 27.1641H15.0184H30.1701C30.2272 27.1641 30.2734 27.2103 30.2734 27.2674C30.2734 28.7895 29.0395 30.0234 27.5174 30.0234H15.0184H11.0352C12.6449 30.0234 13.9305 29.0173 14.0039 27.4258L14.0078 27.4264V27.4141Z"
        fill="url(#paint79_linear_18_21056)" fill-opacity="0.61" />
    <path fill-rule="evenodd" clip-rule="evenodd"
        d="M14.0078 27.4141C14.0078 27.276 14.1198 27.1641 14.2578 27.1641H15.0184H30.1701C30.2272 27.1641 30.2734 27.2103 30.2734 27.2674C30.2734 28.7895 29.0395 30.0234 27.5174 30.0234H15.0184H11.0352C12.6449 30.0234 13.9305 29.0173 14.0039 27.4258L14.0078 27.4264V27.4141Z"
        fill="url(#paint80_linear_18_21056)" fill-opacity="0.61" />
    <path fill-rule="evenodd" clip-rule="evenodd"
        d="M14.0078 27.4141C14.0078 27.276 14.1198 27.1641 14.2578 27.1641H15.0184H30.1701C30.2272 27.1641 30.2734 27.2103 30.2734 27.2674C30.2734 28.7895 29.0395 30.0234 27.5174 30.0234H15.0184H11.0352C12.6449 30.0234 13.9305 29.0173 14.0039 27.4258L14.0078 27.4264V27.4141Z"
        fill="url(#paint81_linear_18_21056)" fill-opacity="0.61" />
    <path fill-rule="evenodd" clip-rule="evenodd"
        d="M14.0078 27.4141C14.0078 27.276 14.1198 27.1641 14.2578 27.1641H15.0184H30.1701C30.2272 27.1641 30.2734 27.2103 30.2734 27.2674C30.2734 28.7895 29.0395 30.0234 27.5174 30.0234H15.0184H11.0352C12.6449 30.0234 13.9305 29.0173 14.0039 27.4258L14.0078 27.4264V27.4141Z"
        fill="url(#paint82_linear_18_21056)" fill-opacity="0.61" />
    <defs>
        <linearGradient id="paint0_linear_18_21056" x1="8.99729" y1="16" x2="24.7109" y2="21.4297"
            gradientUnits="userSpaceOnUse">
            <stop stop-color="#FFBF82" />
            <stop offset="0.736387" stop-color="#FFD8A3" />
        </linearGradient>
        <linearGradient id="paint1_linear_18_21056" x1="16" y1="1.97656" x2="16" y2="8.67969"
            gradientUnits="userSpaceOnUse">
            <stop stop-color="#FFD27C" />
            <stop offset="1" stop-color="#FFD27C" stop-opacity="0" />
        </linearGradient>
        <linearGradient id="paint2_linear_18_21056" x1="16" y1="1.67969" x2="16" y2="3.42969"
            gradientUnits="userSpaceOnUse">
            <stop stop-color="#F9B76C" />
            <stop offset="1" stop-color="#FFC573" stop-opacity="0" />
        </linearGradient>
        <radialGradient id="paint3_radial_18_21056" cx="0" cy="0" r="1"
            gradientUnits="userSpaceOnUse"
            gradientTransform="translate(11.7668 30.0234) rotate(-90) scale(3.12594 5.10625)">
            <stop stop-color="#FFDA8D" />
            <stop offset="1" stop-color="#FFDA8D" stop-opacity="0" />
        </radialGradient>
        <radialGradient id="paint4_radial_18_21056" cx="0" cy="0" r="1"
            gradientUnits="userSpaceOnUse"
            gradientTransform="translate(21.8731 27.8693) rotate(-90) scale(2.76952 20.9414)">
            <stop stop-color="#FFDD93" />
            <stop offset="1" stop-color="#FFDD93" stop-opacity="0" />
        </radialGradient>
        <linearGradient id="paint5_linear_18_21056" x1="7.39063" y1="18.7771" x2="7.61906"
            y2="18.7771" gradientUnits="userSpaceOnUse">
            <stop stop-color="#DDA07F" />
            <stop offset="1" stop-color="#DDA07F" stop-opacity="0" />
        </linearGradient>
        <linearGradient id="paint6_linear_18_21056" x1="9.4821" y1="30.0234" x2="9.4821"
            y2="29.7536" gradientUnits="userSpaceOnUse">
            <stop stop-color="#DDA07F" />
            <stop offset="1" stop-color="#DDA07F" stop-opacity="0" />
        </linearGradient>
        <linearGradient id="paint7_linear_18_21056" x1="8.62513" y1="29.7827" x2="8.70717"
            y2="29.4273" gradientUnits="userSpaceOnUse">
            <stop stop-color="#DDA07F" />
            <stop offset="1" stop-color="#DDA07F" stop-opacity="0" />
        </linearGradient>
        <linearGradient id="paint8_linear_18_21056" x1="8.40794" y1="29.4183" x2="8.55534"
            y2="29.1661" gradientUnits="userSpaceOnUse">
            <stop stop-color="#DDA07F" />
            <stop offset="1" stop-color="#DDA07F" stop-opacity="0" />
        </linearGradient>
        <linearGradient id="paint9_linear_18_21056" x1="8.06753" y1="29.0362" x2="8.35834"
            y2="28.8376" gradientUnits="userSpaceOnUse">
            <stop stop-color="#DDA07F" />
            <stop offset="1" stop-color="#DDA07F" stop-opacity="0" />
        </linearGradient>
        <linearGradient id="paint10_linear_18_21056" x1="8.35124" y1="29.4121" x2="8.61367"
            y2="29.1426" gradientUnits="userSpaceOnUse">
            <stop stop-color="#DDA07F" />
            <stop offset="1" stop-color="#DDA07F" stop-opacity="0" />
        </linearGradient>
        <linearGradient id="paint11_linear_18_21056" x1="7.73111" y1="28.755" x2="8.06573"
            y2="28.6244" gradientUnits="userSpaceOnUse">
            <stop stop-color="#DDA07F" />
            <stop offset="1" stop-color="#DDA07F" stop-opacity="0" />
        </linearGradient>
        <linearGradient id="paint12_linear_18_21056" x1="8.8761" y1="29.8164" x2="9.05342"
            y2="29.4334" gradientUnits="userSpaceOnUse">
            <stop stop-color="#DDA07F" />
            <stop offset="1" stop-color="#DDA07F" stop-opacity="0" />
        </linearGradient>
        <linearGradient id="paint13_linear_18_21056" x1="7.61685" y1="28.4938" x2="7.97596"
            y2="28.404" gradientUnits="userSpaceOnUse">
            <stop stop-color="#DDA07F" />
            <stop offset="1" stop-color="#DDA07F" stop-opacity="0" />
        </linearGradient>
        <linearGradient id="paint14_linear_18_21056" x1="27.0794" y1="11.7798" x2="27.0208"
            y2="11.7798" gradientUnits="userSpaceOnUse">
            <stop stop-color="#FFE09D" />
            <stop offset="1" stop-color="#FEDD97" stop-opacity="0" />
        </linearGradient>
        <radialGradient id="paint15_radial_18_21056" cx="0" cy="0" r="1"
            gradientUnits="userSpaceOnUse"
            gradientTransform="translate(2.55469 5.32813) scale(3.90625 5.93677)">
            <stop stop-color="#EB9160" />
            <stop offset="1" stop-color="#C36241" />
        </radialGradient>
        <radialGradient id="paint16_radial_18_21056" cx="0" cy="0" r="1"
            gradientUnits="userSpaceOnUse"
            gradientTransform="translate(2.1389 4.01295) rotate(-3.36645) scale(0.339682 2.24835)">
            <stop stop-color="#CE7E69" />
            <stop offset="1" stop-color="#CE7E69" stop-opacity="0" />
        </radialGradient>
        <radialGradient id="paint17_radial_18_21056" cx="0" cy="0" r="1"
            gradientUnits="userSpaceOnUse"
            gradientTransform="translate(2.22866 3.44447) rotate(14.3003) scale(0.524909 4.41475)">
            <stop stop-color="#CE7E69" />
            <stop offset="1" stop-color="#CE7E69" stop-opacity="0" />
        </radialGradient>
        <radialGradient id="paint18_radial_18_21056" cx="0" cy="0" r="1"
            gradientUnits="userSpaceOnUse"
            gradientTransform="translate(2.50791 3.01561) rotate(34.3302) scale(0.495168 4.16461)">
            <stop stop-color="#CE7E69" />
            <stop offset="1" stop-color="#CE7E69" stop-opacity="0" />
        </radialGradient>
        <radialGradient id="paint19_radial_18_21056" cx="0" cy="0" r="1"
            gradientUnits="userSpaceOnUse"
            gradientTransform="translate(3.13624 2.33742) rotate(54.211) scale(0.528685 4.44651)">
            <stop stop-color="#CE7E69" />
            <stop offset="1" stop-color="#CE7E69" stop-opacity="0" />
        </radialGradient>
        <radialGradient id="paint20_radial_18_21056" cx="0" cy="0" r="1"
            gradientUnits="userSpaceOnUse"
            gradientTransform="translate(4.41284 1.88861) rotate(82.875) scale(0.482449 4.05764)">
            <stop stop-color="#CE7E69" />
            <stop offset="1" stop-color="#CE7E69" stop-opacity="0" />
        </radialGradient>
        <radialGradient id="paint21_radial_18_21056" cx="0" cy="0" r="1"
            gradientUnits="userSpaceOnUse"
            gradientTransform="translate(5.9442 2.06925) rotate(117.759) scale(0.432592 3.63832)">
            <stop stop-color="#CE7E69" />
            <stop offset="1" stop-color="#CE7E69" stop-opacity="0" />
        </radialGradient>
        <radialGradient id="paint22_radial_18_21056" cx="0" cy="0" r="1"
            gradientUnits="userSpaceOnUse"
            gradientTransform="translate(7.9892 3.52996) rotate(-175.13) scale(2.25462 18.9625)">
            <stop stop-color="#CE7E69" />
            <stop offset="0.395933" stop-color="#CE7E69" stop-opacity="0" />
        </radialGradient>
        <linearGradient id="paint23_linear_18_21056" x1="10.3664" y1="21.875" x2="18.4835"
            y2="21.875" gradientUnits="userSpaceOnUse">
            <stop stop-color="#D37E48" />
            <stop offset="1" stop-color="#DE8650" />
        </linearGradient>
        <linearGradient id="paint24_linear_18_21056" x1="14.7539" y1="21.1444" x2="14.7539"
            y2="21.25" gradientUnits="userSpaceOnUse">
            <stop stop-color="#F8A261" />
            <stop offset="1" stop-color="#F8A261" stop-opacity="0" />
        </linearGradient>
        <linearGradient id="paint25_linear_18_21056" x1="19.1263" y1="21.1094" x2="18.8567"
            y2="21.4336" gradientUnits="userSpaceOnUse">
            <stop stop-color="#F8A261" />
            <stop offset="0.820968" stop-color="#F89F61" stop-opacity="0" />
        </linearGradient>
        <linearGradient id="paint26_linear_18_21056" x1="19.1263" y1="21.1094" x2="18.9065"
            y2="21.3707" gradientUnits="userSpaceOnUse">
            <stop stop-color="#F8A261" />
            <stop offset="0.820968" stop-color="#F89F61" stop-opacity="0" />
        </linearGradient>
        <linearGradient id="paint27_linear_18_21056" x1="19.2578" y1="21.2031" x2="18.9036"
            y2="21.3984" gradientUnits="userSpaceOnUse">
            <stop stop-color="#F8A261" />
            <stop offset="0.820968" stop-color="#F89F61" stop-opacity="0" />
        </linearGradient>
        <linearGradient id="paint28_linear_18_21056" x1="14.7539" y1="22.1016" x2="14.7539"
            y2="21.9463" gradientUnits="userSpaceOnUse">
            <stop stop-color="#B86243" />
            <stop offset="1" stop-color="#B86243" stop-opacity="0" />
        </linearGradient>
        <linearGradient id="paint29_linear_18_21056" x1="10.7298" y1="22.1968" x2="10.8205"
            y2="22.0142" gradientUnits="userSpaceOnUse">
            <stop stop-color="#B86243" />
            <stop offset="1" stop-color="#B86243" stop-opacity="0" />
        </linearGradient>
        <linearGradient id="paint30_linear_18_21056" x1="10.4367" y1="22.1958" x2="10.6472"
            y2="21.9853" gradientUnits="userSpaceOnUse">
            <stop stop-color="#B86243" />
            <stop offset="1" stop-color="#B86243" stop-opacity="0" />
        </linearGradient>
        <linearGradient id="paint31_linear_18_21056" x1="18.9505" y1="22.1758" x2="18.8684"
            y2="21.9531" gradientUnits="userSpaceOnUse">
            <stop stop-color="#B86243" />
            <stop offset="1" stop-color="#B85843" stop-opacity="0" />
        </linearGradient>
        <linearGradient id="paint32_linear_18_21056" x1="19.2578" y1="21.9961" x2="19.1067"
            y2="21.8594" gradientUnits="userSpaceOnUse">
            <stop stop-color="#B86243" />
            <stop offset="1" stop-color="#B85843" stop-opacity="0" />
        </linearGradient>
        <linearGradient id="paint33_linear_18_21056" x1="10.4297" y1="18.8823" x2="22.9609"
            y2="18.8823" gradientUnits="userSpaceOnUse">
            <stop stop-color="#D37E48" />
            <stop offset="1" stop-color="#DE8650" />
        </linearGradient>
        <linearGradient id="paint34_linear_18_21056" x1="17.2031" y1="18.1517" x2="17.2031"
            y2="18.2573" gradientUnits="userSpaceOnUse">
            <stop stop-color="#F8A261" />
            <stop offset="1" stop-color="#F8A261" stop-opacity="0" />
        </linearGradient>
        <linearGradient id="paint35_linear_18_21056" x1="23.9531" y1="18.1167" x2="23.7243"
            y2="18.5417" gradientUnits="userSpaceOnUse">
            <stop stop-color="#F8A261" />
            <stop offset="0.820968" stop-color="#F89F61" stop-opacity="0" />
        </linearGradient>
        <linearGradient id="paint36_linear_18_21056" x1="23.9531" y1="18.1167" x2="23.7657"
            y2="18.4608" gradientUnits="userSpaceOnUse">
            <stop stop-color="#F8A261" />
            <stop offset="0.820968" stop-color="#F89F61" stop-opacity="0" />
        </linearGradient>
        <linearGradient id="paint37_linear_18_21056" x1="24.1563" y1="18.2104" x2="23.7428"
            y2="18.5624" gradientUnits="userSpaceOnUse">
            <stop stop-color="#F8A261" />
            <stop offset="0.820968" stop-color="#F89F61" stop-opacity="0" />
        </linearGradient>
        <linearGradient id="paint38_linear_18_21056" x1="17.2031" y1="19.1089" x2="17.2031"
            y2="18.9537" gradientUnits="userSpaceOnUse">
            <stop stop-color="#B86243" />
            <stop offset="1" stop-color="#B86243" stop-opacity="0" />
        </linearGradient>
        <linearGradient id="paint39_linear_18_21056" x1="10.9907" y1="19.2041" x2="11.0571"
            y2="18.9978" gradientUnits="userSpaceOnUse">
            <stop stop-color="#B86243" />
            <stop offset="1" stop-color="#B86243" stop-opacity="0" />
        </linearGradient>
        <linearGradient id="paint40_linear_18_21056" x1="10.5382" y1="19.2031" x2="10.7303"
            y2="18.9065" gradientUnits="userSpaceOnUse">
            <stop stop-color="#B86243" />
            <stop offset="1" stop-color="#B86243" stop-opacity="0" />
        </linearGradient>
        <linearGradient id="paint41_linear_18_21056" x1="23.6818" y1="19.1831" x2="23.6247"
            y2="18.9439" gradientUnits="userSpaceOnUse">
            <stop stop-color="#B86243" />
            <stop offset="1" stop-color="#B85843" stop-opacity="0" />
        </linearGradient>
        <linearGradient id="paint42_linear_18_21056" x1="24.1562" y1="19.0034" x2="24.0125"
            y2="18.8026" gradientUnits="userSpaceOnUse">
            <stop stop-color="#B86243" />
            <stop offset="1" stop-color="#B85843" stop-opacity="0" />
        </linearGradient>
        <linearGradient id="paint43_linear_18_21056" x1="10.4297" y1="15.8906" x2="22.9609"
            y2="15.8906" gradientUnits="userSpaceOnUse">
            <stop stop-color="#D37E48" />
            <stop offset="1" stop-color="#DE8650" />
        </linearGradient>
        <linearGradient id="paint44_linear_18_21056" x1="17.2031" y1="15.16" x2="17.2031"
            y2="15.2656" gradientUnits="userSpaceOnUse">
            <stop stop-color="#F8A261" />
            <stop offset="1" stop-color="#F8A261" stop-opacity="0" />
        </linearGradient>
        <linearGradient id="paint45_linear_18_21056" x1="23.9531" y1="15.125" x2="23.7243"
            y2="15.55" gradientUnits="userSpaceOnUse">
            <stop stop-color="#F8A261" />
            <stop offset="0.820968" stop-color="#F89F61" stop-opacity="0" />
        </linearGradient>
        <linearGradient id="paint46_linear_18_21056" x1="23.9531" y1="15.125" x2="23.7657"
            y2="15.4691" gradientUnits="userSpaceOnUse">
            <stop stop-color="#F8A261" />
            <stop offset="0.820968" stop-color="#F89F61" stop-opacity="0" />
        </linearGradient>
        <linearGradient id="paint47_linear_18_21056" x1="24.1563" y1="15.2187" x2="23.7428"
            y2="15.5707" gradientUnits="userSpaceOnUse">
            <stop stop-color="#F8A261" />
            <stop offset="0.820968" stop-color="#F89F61" stop-opacity="0" />
        </linearGradient>
        <linearGradient id="paint48_linear_18_21056" x1="17.2031" y1="16.1172" x2="17.2031"
            y2="15.962" gradientUnits="userSpaceOnUse">
            <stop stop-color="#B86243" />
            <stop offset="1" stop-color="#B86243" stop-opacity="0" />
        </linearGradient>
        <linearGradient id="paint49_linear_18_21056" x1="10.9907" y1="16.2124" x2="11.0571"
            y2="16.0061" gradientUnits="userSpaceOnUse">
            <stop stop-color="#B86243" />
            <stop offset="1" stop-color="#B86243" stop-opacity="0" />
        </linearGradient>
        <linearGradient id="paint50_linear_18_21056" x1="10.5382" y1="16.2114" x2="10.7303"
            y2="15.9148" gradientUnits="userSpaceOnUse">
            <stop stop-color="#B86243" />
            <stop offset="1" stop-color="#B86243" stop-opacity="0" />
        </linearGradient>
        <linearGradient id="paint51_linear_18_21056" x1="23.6818" y1="16.1914" x2="23.6247"
            y2="15.9522" gradientUnits="userSpaceOnUse">
            <stop stop-color="#B86243" />
            <stop offset="1" stop-color="#B85843" stop-opacity="0" />
        </linearGradient>
        <linearGradient id="paint52_linear_18_21056" x1="24.1562" y1="16.0117" x2="24.0125"
            y2="15.8109" gradientUnits="userSpaceOnUse">
            <stop stop-color="#B86243" />
            <stop offset="1" stop-color="#B85843" stop-opacity="0" />
        </linearGradient>
        <linearGradient id="paint53_linear_18_21056" x1="10.4297" y1="12.8989" x2="22.9609"
            y2="12.8989" gradientUnits="userSpaceOnUse">
            <stop stop-color="#D37E48" />
            <stop offset="1" stop-color="#DE8650" />
        </linearGradient>
        <linearGradient id="paint54_linear_18_21056" x1="17.2031" y1="12.1683" x2="17.2031"
            y2="12.2739" gradientUnits="userSpaceOnUse">
            <stop stop-color="#F8A261" />
            <stop offset="1" stop-color="#F8A261" stop-opacity="0" />
        </linearGradient>
        <linearGradient id="paint55_linear_18_21056" x1="23.9531" y1="12.1333" x2="23.7243"
            y2="12.5583" gradientUnits="userSpaceOnUse">
            <stop stop-color="#F8A261" />
            <stop offset="0.820968" stop-color="#F89F61" stop-opacity="0" />
        </linearGradient>
        <linearGradient id="paint56_linear_18_21056" x1="23.9531" y1="12.1333" x2="23.7657"
            y2="12.4774" gradientUnits="userSpaceOnUse">
            <stop stop-color="#F8A261" />
            <stop offset="0.820968" stop-color="#F89F61" stop-opacity="0" />
        </linearGradient>
        <linearGradient id="paint57_linear_18_21056" x1="24.1563" y1="12.2271" x2="23.7428"
            y2="12.579" gradientUnits="userSpaceOnUse">
            <stop stop-color="#F8A261" />
            <stop offset="0.820968" stop-color="#F89F61" stop-opacity="0" />
        </linearGradient>
        <linearGradient id="paint58_linear_18_21056" x1="17.2031" y1="13.1255" x2="17.2031"
            y2="12.9703" gradientUnits="userSpaceOnUse">
            <stop stop-color="#B86243" />
            <stop offset="1" stop-color="#B86243" stop-opacity="0" />
        </linearGradient>
        <linearGradient id="paint59_linear_18_21056" x1="10.9907" y1="13.2207" x2="11.0571"
            y2="13.0144" gradientUnits="userSpaceOnUse">
            <stop stop-color="#B86243" />
            <stop offset="1" stop-color="#B86243" stop-opacity="0" />
        </linearGradient>
        <linearGradient id="paint60_linear_18_21056" x1="10.5382" y1="13.2197" x2="10.7303"
            y2="12.9231" gradientUnits="userSpaceOnUse">
            <stop stop-color="#B86243" />
            <stop offset="1" stop-color="#B86243" stop-opacity="0" />
        </linearGradient>
        <linearGradient id="paint61_linear_18_21056" x1="23.6818" y1="13.1997" x2="23.6247"
            y2="12.9605" gradientUnits="userSpaceOnUse">
            <stop stop-color="#B86243" />
            <stop offset="1" stop-color="#B85843" stop-opacity="0" />
        </linearGradient>
        <linearGradient id="paint62_linear_18_21056" x1="24.1562" y1="13.02" x2="24.0125"
            y2="12.8192" gradientUnits="userSpaceOnUse">
            <stop stop-color="#B86243" />
            <stop offset="1" stop-color="#B85843" stop-opacity="0" />
        </linearGradient>
        <radialGradient id="paint63_radial_18_21056" cx="0" cy="0" r="1"
            gradientUnits="userSpaceOnUse"
            gradientTransform="translate(7.30984 4.30859) rotate(179.868) scale(0.330852 0.844251)">
            <stop stop-color="#DDA07F" />
            <stop offset="1" stop-color="#DD9E7F" stop-opacity="0" />
        </radialGradient>
        <radialGradient id="paint64_radial_18_21056" cx="0" cy="0" r="1"
            gradientUnits="userSpaceOnUse"
            gradientTransform="translate(7.05985 3.52734) rotate(158.562) scale(0.349744 0.892458)">
            <stop stop-color="#DDA07F" />
            <stop offset="1" stop-color="#DD9E7F" stop-opacity="0" />
        </radialGradient>
        <radialGradient id="paint65_radial_18_21056" cx="0" cy="0" r="1"
            gradientUnits="userSpaceOnUse"
            gradientTransform="translate(6.595 2.77734) rotate(133.506) scale(0.317754 0.810827)">
            <stop stop-color="#DDA07F" />
            <stop offset="1" stop-color="#DD9E7F" stop-opacity="0" />
        </radialGradient>
        <radialGradient id="paint66_radial_18_21056" cx="0" cy="0" r="1"
            gradientUnits="userSpaceOnUse"
            gradientTransform="translate(6.03345 2.40776) rotate(108.435) scale(0.312266 0.796825)">
            <stop stop-color="#DDA07F" />
            <stop offset="1" stop-color="#DD9E7F" stop-opacity="0" />
        </radialGradient>
        <radialGradient id="paint67_radial_18_21056" cx="0" cy="0" r="1"
            gradientUnits="userSpaceOnUse"
            gradientTransform="translate(5.75601 2.31841) rotate(108.435) scale(0.312266 0.796825)">
            <stop stop-color="#DDA07F" />
            <stop offset="1" stop-color="#DD9E7F" stop-opacity="0" />
        </radialGradient>
        <radialGradient id="paint68_radial_18_21056" cx="0" cy="0" r="1"
            gradientUnits="userSpaceOnUse"
            gradientTransform="translate(27.1191 3.92702) rotate(-180) scale(0.357191 4.44972)">
            <stop stop-color="#FFE09E" />
            <stop offset="0.583333" stop-color="#FEDD97" stop-opacity="0" />
        </radialGradient>
        <radialGradient id="paint69_radial_18_21056" cx="0" cy="0" r="1"
            gradientUnits="userSpaceOnUse"
            gradientTransform="translate(27.1191 3.92702) rotate(-180) scale(0.357191 4.44972)">
            <stop stop-color="#FFE09E" />
            <stop offset="0.583333" stop-color="#FEDD97" stop-opacity="0" />
        </radialGradient>
        <radialGradient id="paint70_radial_18_21056" cx="0" cy="0" r="1"
            gradientUnits="userSpaceOnUse"
            gradientTransform="translate(27.0916 3.63536) rotate(157.532) scale(0.763154 9.507)">
            <stop stop-color="#FFE09E" />
            <stop offset="0.583333" stop-color="#FEDD97" stop-opacity="0" />
        </radialGradient>
        <radialGradient id="paint71_radial_18_21056" cx="0" cy="0" r="1"
            gradientUnits="userSpaceOnUse"
            gradientTransform="translate(27.0916 3.63536) rotate(157.532) scale(0.763154 9.507)">
            <stop stop-color="#FFE09E" />
            <stop offset="0.583333" stop-color="#FEDD97" stop-opacity="0" />
        </radialGradient>
        <radialGradient id="paint72_radial_18_21056" cx="0" cy="0" r="1"
            gradientUnits="userSpaceOnUse"
            gradientTransform="translate(27.0916 3.63536) rotate(157.532) scale(0.763154 9.507)">
            <stop stop-color="#FFE09E" />
            <stop offset="0.583333" stop-color="#FEDD97" stop-opacity="0" />
        </radialGradient>
        <radialGradient id="paint73_radial_18_21056" cx="0" cy="0" r="1"
            gradientUnits="userSpaceOnUse"
            gradientTransform="translate(26.8718 3.35144) rotate(134.147) scale(0.802134 9.99259)">
            <stop stop-color="#FFE09E" />
            <stop offset="0.583333" stop-color="#FEDD97" stop-opacity="0" />
        </radialGradient>
        <radialGradient id="paint74_radial_18_21056" cx="0" cy="0" r="1"
            gradientUnits="userSpaceOnUse"
            gradientTransform="translate(26.636 2.76636) rotate(141.207) scale(0.860777 10.7231)">
            <stop stop-color="#FFE09E" />
            <stop offset="0.583333" stop-color="#FEDD97" stop-opacity="0" />
        </radialGradient>
        <linearGradient id="paint75_linear_18_21056" x1="20.6543" y1="27.1641" x2="20.6543"
            y2="30.0234" gradientUnits="userSpaceOnUse">
            <stop stop-color="#E58F4F" />
            <stop offset="1" stop-color="#EE9880" />
        </linearGradient>
        <linearGradient id="paint76_linear_18_21056" x1="18.4609" y1="30.0234" x2="18.4609"
            y2="29.1172" gradientUnits="userSpaceOnUse">
            <stop stop-color="#E07E98" />
            <stop offset="1" stop-color="#E07E98" stop-opacity="0" />
        </linearGradient>
        <linearGradient id="paint77_linear_18_21056" x1="20.6543" y1="27.1211" x2="20.6543"
            y2="27.2539" gradientUnits="userSpaceOnUse">
            <stop stop-color="#B96D34" />
            <stop offset="1" stop-color="#B96D34" stop-opacity="0" />
        </linearGradient>
        <linearGradient id="paint78_linear_18_21056" x1="20.5836" y1="29.9844" x2="20.5836"
            y2="29.9062" gradientUnits="userSpaceOnUse">
            <stop stop-color="#B96D34" />
            <stop offset="1" stop-color="#B96D34" stop-opacity="0" />
        </linearGradient>
        <linearGradient id="paint79_linear_18_21056" x1="28.3782" y1="29.8974" x2="28.3516"
            y2="29.7969" gradientUnits="userSpaceOnUse">
            <stop stop-color="#B96D34" />
            <stop offset="1" stop-color="#B96D34" stop-opacity="0" />
        </linearGradient>
        <linearGradient id="paint80_linear_18_21056" x1="28.9023" y1="29.7305" x2="28.8242"
            y2="29.6094" gradientUnits="userSpaceOnUse">
            <stop stop-color="#B95B34" />
            <stop offset="1" stop-color="#B96D34" stop-opacity="0" />
        </linearGradient>
        <linearGradient id="paint81_linear_18_21056" x1="29.6445" y1="29.0898" x2="29.5664"
            y2="29.0156" gradientUnits="userSpaceOnUse">
            <stop stop-color="#B95B34" />
            <stop offset="1" stop-color="#B96D34" stop-opacity="0" />
        </linearGradient>
        <linearGradient id="paint82_linear_18_21056" x1="30.0352" y1="28.5625" x2="29.9219"
            y2="28.4961" gradientUnits="userSpaceOnUse">
            <stop stop-color="#B95B34" />
            <stop offset="1" stop-color="#B96D34" stop-opacity="0" />
        </linearGradient>
    </defs>
</svg>