<svg width="32" height="32" viewBox="0 0 32 32" fill="none" xmlns="http://www.w3.org/2000/svg">
    <path
        d="M4.71191 9.21055C4.71191 8.30773 5.41826 7.58906 6.25716 7.2554C7.26735 6.85363 8.37517 6.03232 9.0584 4.34088C9.41907 3.448 10.2118 2.74487 11.1748 2.74487H18.979C19.9619 2.74487 20.7633 3.48079 21.1619 4.37935C21.8335 5.89361 22.9839 6.81439 24.0058 7.3119C24.8053 7.70116 25.4871 8.44982 25.4871 9.33911V12.5596C25.4871 19.5072 23.3129 23.7011 17.5836 28.515C16.4312 29.4832 14.7639 29.5343 13.5627 28.6275C8.29796 24.6535 4.71191 19.9466 4.71191 12.5596V9.21055Z"
        fill="#378AED" />
    <path
        d="M4.71191 9.21055C4.71191 8.30773 5.41826 7.58906 6.25716 7.2554C7.26735 6.85363 8.37517 6.03232 9.0584 4.34088C9.41907 3.448 10.2118 2.74487 11.1748 2.74487H18.979C19.9619 2.74487 20.7633 3.48079 21.1619 4.37935C21.8335 5.89361 22.9839 6.81439 24.0058 7.3119C24.8053 7.70116 25.4871 8.44982 25.4871 9.33911V12.5596C25.4871 19.5072 23.3129 23.7011 17.5836 28.515C16.4312 29.4832 14.7639 29.5343 13.5627 28.6275C8.29796 24.6535 4.71191 19.9466 4.71191 12.5596V9.21055Z"
        fill="url(#paint0_radial_18_24255)" />
    <path
        d="M4.71191 9.21055C4.71191 8.30773 5.41826 7.58906 6.25716 7.2554C7.26735 6.85363 8.37517 6.03232 9.0584 4.34088C9.41907 3.448 10.2118 2.74487 11.1748 2.74487H18.979C19.9619 2.74487 20.7633 3.48079 21.1619 4.37935C21.8335 5.89361 22.9839 6.81439 24.0058 7.3119C24.8053 7.70116 25.4871 8.44982 25.4871 9.33911V12.5596C25.4871 19.5072 23.3129 23.7011 17.5836 28.515C16.4312 29.4832 14.7639 29.5343 13.5627 28.6275C8.29796 24.6535 4.71191 19.9466 4.71191 12.5596V9.21055Z"
        fill="url(#paint1_radial_18_24255)" />
    <path
        d="M15.5122 29.2757V2.74487H18.9789C19.9619 2.74487 20.7633 3.48079 21.1618 4.37935C21.8334 5.89362 22.9838 6.81439 24.0057 7.3119C24.8053 7.70116 25.487 8.44981 25.487 9.33911V12.5596C25.487 19.5072 23.3128 23.7011 17.5835 28.515C16.986 29.0171 16.2499 29.2725 15.5122 29.2757Z"
        fill="#3C88F0" fill-opacity="0.5" />
    <path
        d="M15.5122 29.2634V2.74487H19.3805C20.3911 2.74487 21.2151 3.48079 21.6248 4.37935C22.3153 5.89362 23.4981 6.81439 24.5488 7.3119C25.3708 7.70116 26.0718 8.44981 26.0718 9.33911V12.5596C26.0718 19.5072 23.8364 23.7011 17.9458 28.515C17.2493 29.0842 16.3698 29.3364 15.5122 29.2634Z"
        fill="url(#paint2_radial_18_24255)" />
    <path
        d="M15.5122 29.2634V2.74487H19.3805C20.3911 2.74487 21.2151 3.48079 21.6248 4.37935C22.3153 5.89362 23.4981 6.81439 24.5488 7.3119C25.3708 7.70116 26.0718 8.44981 26.0718 9.33911V12.5596C26.0718 19.5072 23.8364 23.7011 17.9458 28.515C17.2493 29.0842 16.3698 29.3364 15.5122 29.2634Z"
        fill="url(#paint3_radial_18_24255)" />
    <path
        d="M15.5122 29.2634V2.74487H19.3805C20.3911 2.74487 21.2151 3.48079 21.6248 4.37935C22.3153 5.89362 23.4981 6.81439 24.5488 7.3119C25.3708 7.70116 26.0718 8.44981 26.0718 9.33911V12.5596C26.0718 19.5072 23.8364 23.7011 17.9458 28.515C17.2493 29.0842 16.3698 29.3364 15.5122 29.2634Z"
        fill="url(#paint4_radial_18_24255)" />
    <path
        d="M15.5122 29.2634V2.74487H19.3805C20.3911 2.74487 21.2151 3.48079 21.6248 4.37935C22.3153 5.89362 23.4981 6.81439 24.5488 7.3119C25.3708 7.70116 26.0718 8.44981 26.0718 9.33911V12.5596C26.0718 19.5072 23.8364 23.7011 17.9458 28.515C17.2493 29.0842 16.3698 29.3364 15.5122 29.2634Z"
        fill="url(#paint5_linear_18_24255)" />
    <path
        d="M15.5122 29.2634V2.74487H19.3805C20.3911 2.74487 21.2151 3.48079 21.6248 4.37935C22.3153 5.89362 23.4981 6.81439 24.5488 7.3119C25.3708 7.70116 26.0718 8.44981 26.0718 9.33911V12.5596C26.0718 19.5072 23.8364 23.7011 17.9458 28.515C17.2493 29.0842 16.3698 29.3364 15.5122 29.2634Z"
        fill="url(#paint6_linear_18_24255)" />
    <path fill-rule="evenodd" clip-rule="evenodd"
        d="M11.1746 2.04492H19.8496C21.1779 2.04492 22.181 3.00427 22.615 4.07876C23.2192 5.57452 24.1741 6.26623 25.0259 6.60501C26.0144 6.99815 27.0125 7.91317 27.0125 9.21059V12.5596C27.0125 20.2405 23.2541 25.1322 17.8834 29.1863C17.1793 29.7178 16.3446 29.9788 15.5121 29.9758C14.6796 29.9788 13.8448 29.7178 13.1407 29.1863C7.77006 25.1322 4.01172 20.2405 4.01172 12.5596V9.21059C4.01172 7.91317 5.00978 6.99815 5.99826 6.60501C6.85005 6.26623 7.80496 5.57452 8.40916 4.07876C8.84318 3.00427 9.84623 2.04492 11.1746 2.04492ZM15.5121 28.5757C16.0494 28.5786 16.5874 28.4105 17.04 28.0689C22.1987 24.1748 25.6125 19.6528 25.6125 12.5596V9.21059C25.6125 8.70239 25.1978 8.18005 24.5085 7.9059C23.3399 7.44112 22.0792 6.49022 21.3169 4.60311C21.0296 3.89184 20.4472 3.44492 19.8496 3.44492H11.1746C10.577 3.44492 9.99456 3.89184 9.70725 4.60311C8.94498 6.49022 7.68425 7.44112 6.51566 7.9059C5.82635 8.18005 5.41172 8.70239 5.41172 9.21059V12.5596C5.41172 19.6528 8.82546 24.1748 13.9842 28.0689C14.4367 28.4105 14.9748 28.5786 15.5121 28.5757Z"
        fill="url(#paint7_linear_18_24255)" />
    <path fill-rule="evenodd" clip-rule="evenodd"
        d="M11.1746 2.04492H19.8496C21.1779 2.04492 22.181 3.00427 22.615 4.07876C23.2192 5.57452 24.1741 6.26623 25.0259 6.60501C26.0144 6.99815 27.0125 7.91317 27.0125 9.21059V12.5596C27.0125 20.2405 23.2541 25.1322 17.8834 29.1863C17.1793 29.7178 16.3446 29.9788 15.5121 29.9758C14.6796 29.9788 13.8448 29.7178 13.1407 29.1863C7.77006 25.1322 4.01172 20.2405 4.01172 12.5596V9.21059C4.01172 7.91317 5.00978 6.99815 5.99826 6.60501C6.85005 6.26623 7.80496 5.57452 8.40916 4.07876C8.84318 3.00427 9.84623 2.04492 11.1746 2.04492ZM15.5121 28.5757C16.0494 28.5786 16.5874 28.4105 17.04 28.0689C22.1987 24.1748 25.6125 19.6528 25.6125 12.5596V9.21059C25.6125 8.70239 25.1978 8.18005 24.5085 7.9059C23.3399 7.44112 22.0792 6.49022 21.3169 4.60311C21.0296 3.89184 20.4472 3.44492 19.8496 3.44492H11.1746C10.577 3.44492 9.99456 3.89184 9.70725 4.60311C8.94498 6.49022 7.68425 7.44112 6.51566 7.9059C5.82635 8.18005 5.41172 8.70239 5.41172 9.21059V12.5596C5.41172 19.6528 8.82546 24.1748 13.9842 28.0689C14.4367 28.4105 14.9748 28.5786 15.5121 28.5757Z"
        fill="url(#paint8_radial_18_24255)" />
    <path fill-rule="evenodd" clip-rule="evenodd"
        d="M11.1746 2.04492H19.8496C21.1779 2.04492 22.181 3.00427 22.615 4.07876C23.2192 5.57452 24.1741 6.26623 25.0259 6.60501C26.0144 6.99815 27.0125 7.91317 27.0125 9.21059V12.5596C27.0125 20.2405 23.2541 25.1322 17.8834 29.1863C17.1793 29.7178 16.3446 29.9788 15.5121 29.9758C14.6796 29.9788 13.8448 29.7178 13.1407 29.1863C7.77006 25.1322 4.01172 20.2405 4.01172 12.5596V9.21059C4.01172 7.91317 5.00978 6.99815 5.99826 6.60501C6.85005 6.26623 7.80496 5.57452 8.40916 4.07876C8.84318 3.00427 9.84623 2.04492 11.1746 2.04492ZM15.5121 28.5757C16.0494 28.5786 16.5874 28.4105 17.04 28.0689C22.1987 24.1748 25.6125 19.6528 25.6125 12.5596V9.21059C25.6125 8.70239 25.1978 8.18005 24.5085 7.9059C23.3399 7.44112 22.0792 6.49022 21.3169 4.60311C21.0296 3.89184 20.4472 3.44492 19.8496 3.44492H11.1746C10.577 3.44492 9.99456 3.89184 9.70725 4.60311C8.94498 6.49022 7.68425 7.44112 6.51566 7.9059C5.82635 8.18005 5.41172 8.70239 5.41172 9.21059V12.5596C5.41172 19.6528 8.82546 24.1748 13.9842 28.0689C14.4367 28.4105 14.9748 28.5786 15.5121 28.5757Z"
        fill="url(#paint9_radial_18_24255)" />
    <path fill-rule="evenodd" clip-rule="evenodd"
        d="M11.1746 2.04492H19.8496C21.1779 2.04492 22.181 3.00427 22.615 4.07876C23.2192 5.57452 24.1741 6.26623 25.0259 6.60501C26.0144 6.99815 27.0125 7.91317 27.0125 9.21059V12.5596C27.0125 20.2405 23.2541 25.1322 17.8834 29.1863C17.1793 29.7178 16.3446 29.9788 15.5121 29.9758C14.6796 29.9788 13.8448 29.7178 13.1407 29.1863C7.77006 25.1322 4.01172 20.2405 4.01172 12.5596V9.21059C4.01172 7.91317 5.00978 6.99815 5.99826 6.60501C6.85005 6.26623 7.80496 5.57452 8.40916 4.07876C8.84318 3.00427 9.84623 2.04492 11.1746 2.04492ZM15.5121 28.5757C16.0494 28.5786 16.5874 28.4105 17.04 28.0689C22.1987 24.1748 25.6125 19.6528 25.6125 12.5596V9.21059C25.6125 8.70239 25.1978 8.18005 24.5085 7.9059C23.3399 7.44112 22.0792 6.49022 21.3169 4.60311C21.0296 3.89184 20.4472 3.44492 19.8496 3.44492H11.1746C10.577 3.44492 9.99456 3.89184 9.70725 4.60311C8.94498 6.49022 7.68425 7.44112 6.51566 7.9059C5.82635 8.18005 5.41172 8.70239 5.41172 9.21059V12.5596C5.41172 19.6528 8.82546 24.1748 13.9842 28.0689C14.4367 28.4105 14.9748 28.5786 15.5121 28.5757Z"
        fill="url(#paint10_radial_18_24255)" />
    <path fill-rule="evenodd" clip-rule="evenodd"
        d="M11.1746 2.04492H19.8496C21.1779 2.04492 22.181 3.00427 22.615 4.07876C23.2192 5.57452 24.1741 6.26623 25.0259 6.60501C26.0144 6.99815 27.0125 7.91317 27.0125 9.21059V12.5596C27.0125 20.2405 23.2541 25.1322 17.8834 29.1863C17.1793 29.7178 16.3446 29.9788 15.5121 29.9758C14.6796 29.9788 13.8448 29.7178 13.1407 29.1863C7.77006 25.1322 4.01172 20.2405 4.01172 12.5596V9.21059C4.01172 7.91317 5.00978 6.99815 5.99826 6.60501C6.85005 6.26623 7.80496 5.57452 8.40916 4.07876C8.84318 3.00427 9.84623 2.04492 11.1746 2.04492ZM15.5121 28.5757C16.0494 28.5786 16.5874 28.4105 17.04 28.0689C22.1987 24.1748 25.6125 19.6528 25.6125 12.5596V9.21059C25.6125 8.70239 25.1978 8.18005 24.5085 7.9059C23.3399 7.44112 22.0792 6.49022 21.3169 4.60311C21.0296 3.89184 20.4472 3.44492 19.8496 3.44492H11.1746C10.577 3.44492 9.99456 3.89184 9.70725 4.60311C8.94498 6.49022 7.68425 7.44112 6.51566 7.9059C5.82635 8.18005 5.41172 8.70239 5.41172 9.21059V12.5596C5.41172 19.6528 8.82546 24.1748 13.9842 28.0689C14.4367 28.4105 14.9748 28.5786 15.5121 28.5757Z"
        fill="url(#paint11_radial_18_24255)" />
    <path fill-rule="evenodd" clip-rule="evenodd"
        d="M11.1746 2.04492H19.8496C21.1779 2.04492 22.181 3.00427 22.615 4.07876C23.2192 5.57452 24.1741 6.26623 25.0259 6.60501C26.0144 6.99815 27.0125 7.91317 27.0125 9.21059V12.5596C27.0125 20.2405 23.2541 25.1322 17.8834 29.1863C17.1793 29.7178 16.3446 29.9788 15.5121 29.9758C14.6796 29.9788 13.8448 29.7178 13.1407 29.1863C7.77006 25.1322 4.01172 20.2405 4.01172 12.5596V9.21059C4.01172 7.91317 5.00978 6.99815 5.99826 6.60501C6.85005 6.26623 7.80496 5.57452 8.40916 4.07876C8.84318 3.00427 9.84623 2.04492 11.1746 2.04492ZM15.5121 28.5757C16.0494 28.5786 16.5874 28.4105 17.04 28.0689C22.1987 24.1748 25.6125 19.6528 25.6125 12.5596V9.21059C25.6125 8.70239 25.1978 8.18005 24.5085 7.9059C23.3399 7.44112 22.0792 6.49022 21.3169 4.60311C21.0296 3.89184 20.4472 3.44492 19.8496 3.44492H11.1746C10.577 3.44492 9.99456 3.89184 9.70725 4.60311C8.94498 6.49022 7.68425 7.44112 6.51566 7.9059C5.82635 8.18005 5.41172 8.70239 5.41172 9.21059V12.5596C5.41172 19.6528 8.82546 24.1748 13.9842 28.0689C14.4367 28.4105 14.9748 28.5786 15.5121 28.5757Z"
        fill="url(#paint12_radial_18_24255)" />
    <path fill-rule="evenodd" clip-rule="evenodd"
        d="M11.1746 2.04492H19.8496C21.1779 2.04492 22.181 3.00427 22.615 4.07876C23.2192 5.57452 24.1741 6.26623 25.0259 6.60501C26.0144 6.99815 27.0125 7.91317 27.0125 9.21059V12.5596C27.0125 20.2405 23.2541 25.1322 17.8834 29.1863C17.1793 29.7178 16.3446 29.9788 15.5121 29.9758C14.6796 29.9788 13.8448 29.7178 13.1407 29.1863C7.77006 25.1322 4.01172 20.2405 4.01172 12.5596V9.21059C4.01172 7.91317 5.00978 6.99815 5.99826 6.60501C6.85005 6.26623 7.80496 5.57452 8.40916 4.07876C8.84318 3.00427 9.84623 2.04492 11.1746 2.04492ZM15.5121 28.5757C16.0494 28.5786 16.5874 28.4105 17.04 28.0689C22.1987 24.1748 25.6125 19.6528 25.6125 12.5596V9.21059C25.6125 8.70239 25.1978 8.18005 24.5085 7.9059C23.3399 7.44112 22.0792 6.49022 21.3169 4.60311C21.0296 3.89184 20.4472 3.44492 19.8496 3.44492H11.1746C10.577 3.44492 9.99456 3.89184 9.70725 4.60311C8.94498 6.49022 7.68425 7.44112 6.51566 7.9059C5.82635 8.18005 5.41172 8.70239 5.41172 9.21059V12.5596C5.41172 19.6528 8.82546 24.1748 13.9842 28.0689C14.4367 28.4105 14.9748 28.5786 15.5121 28.5757Z"
        fill="url(#paint13_radial_18_24255)" />
    <path fill-rule="evenodd" clip-rule="evenodd"
        d="M11.1746 2.04492H19.8496C21.1779 2.04492 22.181 3.00427 22.615 4.07876C23.2192 5.57452 24.1741 6.26623 25.0259 6.60501C26.0144 6.99815 27.0125 7.91317 27.0125 9.21059V12.5596C27.0125 20.2405 23.2541 25.1322 17.8834 29.1863C17.1793 29.7178 16.3446 29.9788 15.5121 29.9758C14.6796 29.9788 13.8448 29.7178 13.1407 29.1863C7.77006 25.1322 4.01172 20.2405 4.01172 12.5596V9.21059C4.01172 7.91317 5.00978 6.99815 5.99826 6.60501C6.85005 6.26623 7.80496 5.57452 8.40916 4.07876C8.84318 3.00427 9.84623 2.04492 11.1746 2.04492ZM15.5121 28.5757C16.0494 28.5786 16.5874 28.4105 17.04 28.0689C22.1987 24.1748 25.6125 19.6528 25.6125 12.5596V9.21059C25.6125 8.70239 25.1978 8.18005 24.5085 7.9059C23.3399 7.44112 22.0792 6.49022 21.3169 4.60311C21.0296 3.89184 20.4472 3.44492 19.8496 3.44492H11.1746C10.577 3.44492 9.99456 3.89184 9.70725 4.60311C8.94498 6.49022 7.68425 7.44112 6.51566 7.9059C5.82635 8.18005 5.41172 8.70239 5.41172 9.21059V12.5596C5.41172 19.6528 8.82546 24.1748 13.9842 28.0689C14.4367 28.4105 14.9748 28.5786 15.5121 28.5757Z"
        fill="url(#paint14_radial_18_24255)" />
    <path fill-rule="evenodd" clip-rule="evenodd"
        d="M11.1746 2.04492H19.8496C21.1779 2.04492 22.181 3.00427 22.615 4.07876C23.2192 5.57452 24.1741 6.26623 25.0259 6.60501C26.0144 6.99815 27.0125 7.91317 27.0125 9.21059V12.5596C27.0125 20.2405 23.2541 25.1322 17.8834 29.1863C17.1793 29.7178 16.3446 29.9788 15.5121 29.9758C14.6796 29.9788 13.8448 29.7178 13.1407 29.1863C7.77006 25.1322 4.01172 20.2405 4.01172 12.5596V9.21059C4.01172 7.91317 5.00978 6.99815 5.99826 6.60501C6.85005 6.26623 7.80496 5.57452 8.40916 4.07876C8.84318 3.00427 9.84623 2.04492 11.1746 2.04492ZM15.5121 28.5757C16.0494 28.5786 16.5874 28.4105 17.04 28.0689C22.1987 24.1748 25.6125 19.6528 25.6125 12.5596V9.21059C25.6125 8.70239 25.1978 8.18005 24.5085 7.9059C23.3399 7.44112 22.0792 6.49022 21.3169 4.60311C21.0296 3.89184 20.4472 3.44492 19.8496 3.44492H11.1746C10.577 3.44492 9.99456 3.89184 9.70725 4.60311C8.94498 6.49022 7.68425 7.44112 6.51566 7.9059C5.82635 8.18005 5.41172 8.70239 5.41172 9.21059V12.5596C5.41172 19.6528 8.82546 24.1748 13.9842 28.0689C14.4367 28.4105 14.9748 28.5786 15.5121 28.5757Z"
        fill="url(#paint15_radial_18_24255)" />
    <path fill-rule="evenodd" clip-rule="evenodd"
        d="M11.1746 2.04492H19.8496C21.1779 2.04492 22.181 3.00427 22.615 4.07876C23.2192 5.57452 24.1741 6.26623 25.0259 6.60501C26.0144 6.99815 27.0125 7.91317 27.0125 9.21059V12.5596C27.0125 20.2405 23.2541 25.1322 17.8834 29.1863C17.1793 29.7178 16.3446 29.9788 15.5121 29.9758C14.6796 29.9788 13.8448 29.7178 13.1407 29.1863C7.77006 25.1322 4.01172 20.2405 4.01172 12.5596V9.21059C4.01172 7.91317 5.00978 6.99815 5.99826 6.60501C6.85005 6.26623 7.80496 5.57452 8.40916 4.07876C8.84318 3.00427 9.84623 2.04492 11.1746 2.04492ZM15.5121 28.5757C16.0494 28.5786 16.5874 28.4105 17.04 28.0689C22.1987 24.1748 25.6125 19.6528 25.6125 12.5596V9.21059C25.6125 8.70239 25.1978 8.18005 24.5085 7.9059C23.3399 7.44112 22.0792 6.49022 21.3169 4.60311C21.0296 3.89184 20.4472 3.44492 19.8496 3.44492H11.1746C10.577 3.44492 9.99456 3.89184 9.70725 4.60311C8.94498 6.49022 7.68425 7.44112 6.51566 7.9059C5.82635 8.18005 5.41172 8.70239 5.41172 9.21059V12.5596C5.41172 19.6528 8.82546 24.1748 13.9842 28.0689C14.4367 28.4105 14.9748 28.5786 15.5121 28.5757Z"
        fill="url(#paint16_radial_18_24255)" />
    <path fill-rule="evenodd" clip-rule="evenodd"
        d="M11.1746 2.04492H19.8496C21.1779 2.04492 22.181 3.00427 22.615 4.07876C23.2192 5.57452 24.1741 6.26623 25.0259 6.60501C26.0144 6.99815 27.0125 7.91317 27.0125 9.21059V12.5596C27.0125 20.2405 23.2541 25.1322 17.8834 29.1863C17.1793 29.7178 16.3446 29.9788 15.5121 29.9758C14.6796 29.9788 13.8448 29.7178 13.1407 29.1863C7.77006 25.1322 4.01172 20.2405 4.01172 12.5596V9.21059C4.01172 7.91317 5.00978 6.99815 5.99826 6.60501C6.85005 6.26623 7.80496 5.57452 8.40916 4.07876C8.84318 3.00427 9.84623 2.04492 11.1746 2.04492ZM15.5121 28.5757C16.0494 28.5786 16.5874 28.4105 17.04 28.0689C22.1987 24.1748 25.6125 19.6528 25.6125 12.5596V9.21059C25.6125 8.70239 25.1978 8.18005 24.5085 7.9059C23.3399 7.44112 22.0792 6.49022 21.3169 4.60311C21.0296 3.89184 20.4472 3.44492 19.8496 3.44492H11.1746C10.577 3.44492 9.99456 3.89184 9.70725 4.60311C8.94498 6.49022 7.68425 7.44112 6.51566 7.9059C5.82635 8.18005 5.41172 8.70239 5.41172 9.21059V12.5596C5.41172 19.6528 8.82546 24.1748 13.9842 28.0689C14.4367 28.4105 14.9748 28.5786 15.5121 28.5757Z"
        fill="url(#paint17_radial_18_24255)" />
    <path fill-rule="evenodd" clip-rule="evenodd"
        d="M11.1746 2.04492H19.8496C21.1779 2.04492 22.181 3.00427 22.615 4.07876C23.2192 5.57452 24.1741 6.26623 25.0259 6.60501C26.0144 6.99815 27.0125 7.91317 27.0125 9.21059V12.5596C27.0125 20.2405 23.2541 25.1322 17.8834 29.1863C17.1793 29.7178 16.3446 29.9788 15.5121 29.9758C14.6796 29.9788 13.8448 29.7178 13.1407 29.1863C7.77006 25.1322 4.01172 20.2405 4.01172 12.5596V9.21059C4.01172 7.91317 5.00978 6.99815 5.99826 6.60501C6.85005 6.26623 7.80496 5.57452 8.40916 4.07876C8.84318 3.00427 9.84623 2.04492 11.1746 2.04492ZM15.5121 28.5757C16.0494 28.5786 16.5874 28.4105 17.04 28.0689C22.1987 24.1748 25.6125 19.6528 25.6125 12.5596V9.21059C25.6125 8.70239 25.1978 8.18005 24.5085 7.9059C23.3399 7.44112 22.0792 6.49022 21.3169 4.60311C21.0296 3.89184 20.4472 3.44492 19.8496 3.44492H11.1746C10.577 3.44492 9.99456 3.89184 9.70725 4.60311C8.94498 6.49022 7.68425 7.44112 6.51566 7.9059C5.82635 8.18005 5.41172 8.70239 5.41172 9.21059V12.5596C5.41172 19.6528 8.82546 24.1748 13.9842 28.0689C14.4367 28.4105 14.9748 28.5786 15.5121 28.5757Z"
        fill="url(#paint18_radial_18_24255)" />
    <path fill-rule="evenodd" clip-rule="evenodd"
        d="M11.1746 2.04492H19.8496C21.1779 2.04492 22.181 3.00427 22.615 4.07876C23.2192 5.57452 24.1741 6.26623 25.0259 6.60501C26.0144 6.99815 27.0125 7.91317 27.0125 9.21059V12.5596C27.0125 20.2405 23.2541 25.1322 17.8834 29.1863C17.1793 29.7178 16.3446 29.9788 15.5121 29.9758C14.6796 29.9788 13.8448 29.7178 13.1407 29.1863C7.77006 25.1322 4.01172 20.2405 4.01172 12.5596V9.21059C4.01172 7.91317 5.00978 6.99815 5.99826 6.60501C6.85005 6.26623 7.80496 5.57452 8.40916 4.07876C8.84318 3.00427 9.84623 2.04492 11.1746 2.04492ZM15.5121 28.5757C16.0494 28.5786 16.5874 28.4105 17.04 28.0689C22.1987 24.1748 25.6125 19.6528 25.6125 12.5596V9.21059C25.6125 8.70239 25.1978 8.18005 24.5085 7.9059C23.3399 7.44112 22.0792 6.49022 21.3169 4.60311C21.0296 3.89184 20.4472 3.44492 19.8496 3.44492H11.1746C10.577 3.44492 9.99456 3.89184 9.70725 4.60311C8.94498 6.49022 7.68425 7.44112 6.51566 7.9059C5.82635 8.18005 5.41172 8.70239 5.41172 9.21059V12.5596C5.41172 19.6528 8.82546 24.1748 13.9842 28.0689C14.4367 28.4105 14.9748 28.5786 15.5121 28.5757Z"
        fill="url(#paint19_radial_18_24255)" />
    <path fill-rule="evenodd" clip-rule="evenodd"
        d="M11.1746 2.04492H19.8496C21.1779 2.04492 22.181 3.00427 22.615 4.07876C23.2192 5.57452 24.1741 6.26623 25.0259 6.60501C26.0144 6.99815 27.0125 7.91317 27.0125 9.21059V12.5596C27.0125 20.2405 23.2541 25.1322 17.8834 29.1863C17.1793 29.7178 16.3446 29.9788 15.5121 29.9758C14.6796 29.9788 13.8448 29.7178 13.1407 29.1863C7.77006 25.1322 4.01172 20.2405 4.01172 12.5596V9.21059C4.01172 7.91317 5.00978 6.99815 5.99826 6.60501C6.85005 6.26623 7.80496 5.57452 8.40916 4.07876C8.84318 3.00427 9.84623 2.04492 11.1746 2.04492ZM15.5121 28.5757C16.0494 28.5786 16.5874 28.4105 17.04 28.0689C22.1987 24.1748 25.6125 19.6528 25.6125 12.5596V9.21059C25.6125 8.70239 25.1978 8.18005 24.5085 7.9059C23.3399 7.44112 22.0792 6.49022 21.3169 4.60311C21.0296 3.89184 20.4472 3.44492 19.8496 3.44492H11.1746C10.577 3.44492 9.99456 3.89184 9.70725 4.60311C8.94498 6.49022 7.68425 7.44112 6.51566 7.9059C5.82635 8.18005 5.41172 8.70239 5.41172 9.21059V12.5596C5.41172 19.6528 8.82546 24.1748 13.9842 28.0689C14.4367 28.4105 14.9748 28.5786 15.5121 28.5757Z"
        fill="url(#paint20_radial_18_24255)" />
    <path fill-rule="evenodd" clip-rule="evenodd"
        d="M11.1746 2.04492H19.8496C21.1779 2.04492 22.181 3.00427 22.615 4.07876C23.2192 5.57452 24.1741 6.26623 25.0259 6.60501C26.0144 6.99815 27.0125 7.91317 27.0125 9.21059V12.5596C27.0125 20.2405 23.2541 25.1322 17.8834 29.1863C17.1793 29.7178 16.3446 29.9788 15.5121 29.9758C14.6796 29.9788 13.8448 29.7178 13.1407 29.1863C7.77006 25.1322 4.01172 20.2405 4.01172 12.5596V9.21059C4.01172 7.91317 5.00978 6.99815 5.99826 6.60501C6.85005 6.26623 7.80496 5.57452 8.40916 4.07876C8.84318 3.00427 9.84623 2.04492 11.1746 2.04492ZM15.5121 28.5757C16.0494 28.5786 16.5874 28.4105 17.04 28.0689C22.1987 24.1748 25.6125 19.6528 25.6125 12.5596V9.21059C25.6125 8.70239 25.1978 8.18005 24.5085 7.9059C23.3399 7.44112 22.0792 6.49022 21.3169 4.60311C21.0296 3.89184 20.4472 3.44492 19.8496 3.44492H11.1746C10.577 3.44492 9.99456 3.89184 9.70725 4.60311C8.94498 6.49022 7.68425 7.44112 6.51566 7.9059C5.82635 8.18005 5.41172 8.70239 5.41172 9.21059V12.5596C5.41172 19.6528 8.82546 24.1748 13.9842 28.0689C14.4367 28.4105 14.9748 28.5786 15.5121 28.5757Z"
        fill="url(#paint21_radial_18_24255)" />
    <path fill-rule="evenodd" clip-rule="evenodd"
        d="M11.1746 2.04492H19.8496C21.1779 2.04492 22.181 3.00427 22.615 4.07876C23.2192 5.57452 24.1741 6.26623 25.0259 6.60501C26.0144 6.99815 27.0125 7.91317 27.0125 9.21059V12.5596C27.0125 20.2405 23.2541 25.1322 17.8834 29.1863C17.1793 29.7178 16.3446 29.9788 15.5121 29.9758C14.6796 29.9788 13.8448 29.7178 13.1407 29.1863C7.77006 25.1322 4.01172 20.2405 4.01172 12.5596V9.21059C4.01172 7.91317 5.00978 6.99815 5.99826 6.60501C6.85005 6.26623 7.80496 5.57452 8.40916 4.07876C8.84318 3.00427 9.84623 2.04492 11.1746 2.04492ZM15.5121 28.5757C16.0494 28.5786 16.5874 28.4105 17.04 28.0689C22.1987 24.1748 25.6125 19.6528 25.6125 12.5596V9.21059C25.6125 8.70239 25.1978 8.18005 24.5085 7.9059C23.3399 7.44112 22.0792 6.49022 21.3169 4.60311C21.0296 3.89184 20.4472 3.44492 19.8496 3.44492H11.1746C10.577 3.44492 9.99456 3.89184 9.70725 4.60311C8.94498 6.49022 7.68425 7.44112 6.51566 7.9059C5.82635 8.18005 5.41172 8.70239 5.41172 9.21059V12.5596C5.41172 19.6528 8.82546 24.1748 13.9842 28.0689C14.4367 28.4105 14.9748 28.5786 15.5121 28.5757Z"
        fill="url(#paint22_radial_18_24255)" />
    <path fill-rule="evenodd" clip-rule="evenodd"
        d="M11.1746 2.04492H19.8496C21.1779 2.04492 22.181 3.00427 22.615 4.07876C23.2192 5.57452 24.1741 6.26623 25.0259 6.60501C26.0144 6.99815 27.0125 7.91317 27.0125 9.21059V12.5596C27.0125 20.2405 23.2541 25.1322 17.8834 29.1863C17.1793 29.7178 16.3446 29.9788 15.5121 29.9758C14.6796 29.9788 13.8448 29.7178 13.1407 29.1863C7.77006 25.1322 4.01172 20.2405 4.01172 12.5596V9.21059C4.01172 7.91317 5.00978 6.99815 5.99826 6.60501C6.85005 6.26623 7.80496 5.57452 8.40916 4.07876C8.84318 3.00427 9.84623 2.04492 11.1746 2.04492ZM15.5121 28.5757C16.0494 28.5786 16.5874 28.4105 17.04 28.0689C22.1987 24.1748 25.6125 19.6528 25.6125 12.5596V9.21059C25.6125 8.70239 25.1978 8.18005 24.5085 7.9059C23.3399 7.44112 22.0792 6.49022 21.3169 4.60311C21.0296 3.89184 20.4472 3.44492 19.8496 3.44492H11.1746C10.577 3.44492 9.99456 3.89184 9.70725 4.60311C8.94498 6.49022 7.68425 7.44112 6.51566 7.9059C5.82635 8.18005 5.41172 8.70239 5.41172 9.21059V12.5596C5.41172 19.6528 8.82546 24.1748 13.9842 28.0689C14.4367 28.4105 14.9748 28.5786 15.5121 28.5757Z"
        fill="url(#paint23_radial_18_24255)" />
    <defs>
        <radialGradient id="paint0_radial_18_24255" cx="0" cy="0" r="1"
            gradientUnits="userSpaceOnUse"
            gradientTransform="translate(18.8674 17.3786) rotate(141.62) scale(12.5994 17.6464)">
            <stop offset="0.80737" stop-color="#3782E8" stop-opacity="0" />
            <stop offset="0.927404" stop-color="#1C58B0" />
        </radialGradient>
        <radialGradient id="paint1_radial_18_24255" cx="0" cy="0" r="1"
            gradientUnits="userSpaceOnUse"
            gradientTransform="translate(7.27391 5.24803) rotate(45.0964) scale(4.99464 7.8218)">
            <stop offset="0.380841" stop-color="#1D5FBF" />
            <stop offset="0.716974" stop-color="#3782E8" stop-opacity="0" />
        </radialGradient>
        <radialGradient id="paint2_radial_18_24255" cx="0" cy="0" r="1"
            gradientUnits="userSpaceOnUse"
            gradientTransform="translate(15.5122 16.0103) scale(10.1192 22.4259)">
            <stop stop-color="#52C9FF" />
            <stop offset="1" stop-color="#59CBFF" />
        </radialGradient>
        <radialGradient id="paint3_radial_18_24255" cx="0" cy="0" r="1"
            gradientUnits="userSpaceOnUse"
            gradientTransform="translate(16.5896 14.0407) rotate(14.0054) scale(9.27938 15.9614)">
            <stop offset="0.809719" stop-color="#44AAFF" stop-opacity="0" />
            <stop offset="0.96638" stop-color="#1B7CE2" />
        </radialGradient>
        <radialGradient id="paint4_radial_18_24255" cx="0" cy="0" r="1"
            gradientUnits="userSpaceOnUse"
            gradientTransform="translate(24.8129 4.05795) rotate(135) scale(8.2168 10.9259)">
            <stop offset="0.400408" stop-color="#1B7CE2" />
            <stop offset="0.536679" stop-color="#44AAFF" stop-opacity="0" />
        </radialGradient>
        <linearGradient id="paint5_linear_18_24255" x1="19.4887" y1="11.4484" x2="19.4887"
            y2="2.74487" gradientUnits="userSpaceOnUse">
            <stop offset="0.809092" stop-color="#44AAFF" stop-opacity="0" />
            <stop offset="0.928331" stop-color="#1B7CE2" />
        </linearGradient>
        <linearGradient id="paint6_linear_18_24255" x1="19.4887" y1="11.4484" x2="28.9341"
            y2="11.4484" gradientUnits="userSpaceOnUse">
            <stop offset="0.518763" stop-color="#44AAFF" stop-opacity="0" />
            <stop offset="0.671016" stop-color="#1B7CE2" />
        </linearGradient>
        <linearGradient id="paint7_linear_18_24255" x1="4.83728" y1="17.8792" x2="22.7702"
            y2="4.83039" gradientUnits="userSpaceOnUse">
            <stop stop-color="#B8B3BE" />
            <stop offset="1" stop-color="#B9B4BE" />
        </linearGradient>
        <radialGradient id="paint8_radial_18_24255" cx="0" cy="0" r="1"
            gradientUnits="userSpaceOnUse"
            gradientTransform="translate(19.6843 11.9837) rotate(86.4064) scale(22.9655 18.9118)">
            <stop offset="0.794691" stop-color="#784298" stop-opacity="0" />
            <stop offset="0.881657" stop-color="#8D50B3" />
        </radialGradient>
        <radialGradient id="paint9_radial_18_24255" cx="0" cy="0" r="1"
            gradientUnits="userSpaceOnUse"
            gradientTransform="translate(19.198 6.06628) rotate(-63.435) scale(5.08135 4.18443)">
            <stop offset="0.708316" stop-color="#DCDADE" stop-opacity="0" />
            <stop offset="0.784493" stop-color="#DCDADE" />
            <stop offset="0.865772" stop-color="#DCDADE" stop-opacity="0" />
        </radialGradient>
        <radialGradient id="paint10_radial_18_24255" cx="0" cy="0" r="1"
            gradientUnits="userSpaceOnUse"
            gradientTransform="translate(17.3343 2.68905) rotate(59.6337) scale(6.53684)">
            <stop offset="0.213741" stop-color="#B8B3BE" />
            <stop offset="0.597743" stop-color="#B8B3BE" stop-opacity="0" />
        </radialGradient>
        <radialGradient id="paint11_radial_18_24255" cx="0" cy="0" r="1"
            gradientUnits="userSpaceOnUse"
            gradientTransform="translate(22.757 5.69923) rotate(128.848) scale(3.37679)">
            <stop offset="0.328211" stop-color="#B8B3BE" />
            <stop offset="0.597743" stop-color="#B8B3BE" stop-opacity="0" />
        </radialGradient>
        <radialGradient id="paint12_radial_18_24255" cx="0" cy="0" r="1"
            gradientUnits="userSpaceOnUse"
            gradientTransform="translate(23.2674 10.362) rotate(-48.7906) scale(5.15517 4.24522)">
            <stop offset="0.708316" stop-color="#DCDADE" stop-opacity="0" />
            <stop offset="0.784493" stop-color="#DCDADE" />
            <stop offset="0.865772" stop-color="#DCDADE" stop-opacity="0" />
        </radialGradient>
        <radialGradient id="paint13_radial_18_24255" cx="0" cy="0" r="1"
            gradientUnits="userSpaceOnUse"
            gradientTransform="translate(23.515 6.83444) rotate(113.962) scale(2.53706)">
            <stop offset="0.328211" stop-color="#B8B3BE" />
            <stop offset="0.597743" stop-color="#B8B3BE" stop-opacity="0" />
        </radialGradient>
        <radialGradient id="paint14_radial_18_24255" cx="0" cy="0" r="1"
            gradientUnits="userSpaceOnUse"
            gradientTransform="translate(26.2198 12.0232) rotate(-142.459) scale(4.71071)">
            <stop offset="0.328211" stop-color="#B8B3BE" />
            <stop offset="0.597743" stop-color="#B8B3BE" stop-opacity="0" />
        </radialGradient>
        <radialGradient id="paint15_radial_18_24255" cx="0" cy="0" r="1"
            gradientUnits="userSpaceOnUse"
            gradientTransform="translate(24.8997 4.13089) rotate(49.8991) scale(3.70512 2.86135)">
            <stop offset="0.661693" stop-color="#DCDADE" stop-opacity="0" />
            <stop offset="0.761178" stop-color="#DCDADE" />
            <stop offset="0.858998" stop-color="#DCDADE" stop-opacity="0" />
        </radialGradient>
        <radialGradient id="paint16_radial_18_24255" cx="0" cy="0" r="1"
            gradientUnits="userSpaceOnUse"
            gradientTransform="translate(23.6672 3.4572) rotate(58.0693) scale(2.46063)">
            <stop offset="0.328211" stop-color="#B8B3BE" />
            <stop offset="0.597743" stop-color="#B8B3BE" stop-opacity="0" />
        </radialGradient>
        <radialGradient id="paint17_radial_18_24255" cx="0" cy="0" r="1"
            gradientUnits="userSpaceOnUse"
            gradientTransform="translate(25.0292 6.06002) rotate(-59.8586) scale(1.08492 2.51263)">
            <stop offset="0.328211" stop-color="#B8B3BE" />
            <stop offset="0.597743" stop-color="#B8B3BE" stop-opacity="0" />
        </radialGradient>
        <radialGradient id="paint18_radial_18_24255" cx="0" cy="0" r="1"
            gradientUnits="userSpaceOnUse"
            gradientTransform="translate(26.7554 10.8769) rotate(90) scale(3.76894 0.292094)">
            <stop stop-color="#DDDBDF" stop-opacity="0.6" />
            <stop offset="1" stop-color="#DDDBDF" stop-opacity="0" />
        </radialGradient>
        <radialGradient id="paint19_radial_18_24255" cx="0" cy="0" r="1"
            gradientUnits="userSpaceOnUse"
            gradientTransform="translate(5.92855 12.0555) rotate(0.82699) scale(1.15742 5.27728)">
            <stop offset="0.528675" stop-color="#E8E7EA" stop-opacity="0.6" />
            <stop offset="0.664328" stop-color="#E8E7EA" stop-opacity="0" />
        </radialGradient>
        <radialGradient id="paint20_radial_18_24255" cx="0" cy="0" r="1"
            gradientUnits="userSpaceOnUse"
            gradientTransform="translate(7.73537 17.9484) rotate(-19.1621) scale(2.6957 8.26658)">
            <stop offset="0.528675" stop-color="#E8E7EA" stop-opacity="0.6" />
            <stop offset="0.664328" stop-color="#E8E7EA" stop-opacity="0" />
        </radialGradient>
        <radialGradient id="paint21_radial_18_24255" cx="0" cy="0" r="1"
            gradientUnits="userSpaceOnUse"
            gradientTransform="translate(11.1766 22.8095) rotate(-41.6335) scale(3.56716 10.939)">
            <stop offset="0.528675" stop-color="#E8E7EA" stop-opacity="0.6" />
            <stop offset="0.664328" stop-color="#E8E7EA" stop-opacity="0" />
        </radialGradient>
        <radialGradient id="paint22_radial_18_24255" cx="0" cy="0" r="1"
            gradientUnits="userSpaceOnUse"
            gradientTransform="translate(15.395 25.3429) rotate(-107.567) scale(5.14313)">
            <stop offset="0.528675" stop-color="#E8E7EA" stop-opacity="0.6" />
            <stop offset="0.664328" stop-color="#E8E7EA" stop-opacity="0" />
        </radialGradient>
        <radialGradient id="paint23_radial_18_24255" cx="0" cy="0" r="1"
            gradientUnits="userSpaceOnUse"
            gradientTransform="translate(6.07193 13.8973) scale(1.12908 4.95029)">
            <stop offset="0.528675" stop-color="#E8E7EA" stop-opacity="0.6" />
            <stop offset="0.664328" stop-color="#E8E7EA" stop-opacity="0" />
        </radialGradient>
    </defs>
</svg>