<svg width="32" height="32" viewBox="0 0 32 32" fill="none" xmlns="http://www.w3.org/2000/svg">
    <path
        d="M29.2332 2.27697C29.2608 2.27525 29.2879 2.28505 29.3081 2.30406L29.414 2.40399C29.434 2.42289 29.4453 2.44919 29.4453 2.47672L29.4453 2.59413C29.4453 2.61902 29.436 2.64302 29.4193 2.66143L23.8047 8.83203L22.875 7.90234L29.0631 2.30942C29.0799 2.29425 29.1013 2.28522 29.1239 2.28381L29.2332 2.27697Z"
        fill="#BFBAC4" />
    <path
        d="M29.2332 2.27697C29.2608 2.27525 29.2879 2.28505 29.3081 2.30406L29.414 2.40399C29.434 2.42289 29.4453 2.44919 29.4453 2.47672L29.4453 2.59413C29.4453 2.61902 29.436 2.64302 29.4193 2.66143L23.8047 8.83203L22.875 7.90234L29.0631 2.30942C29.0799 2.29425 29.1013 2.28522 29.1239 2.28381L29.2332 2.27697Z"
        fill="url(#paint0_linear_18_25245)" />
    <path
        d="M29.2332 2.27697C29.2608 2.27525 29.2879 2.28505 29.3081 2.30406L29.414 2.40399C29.434 2.42289 29.4453 2.44919 29.4453 2.47672L29.4453 2.59413C29.4453 2.61902 29.436 2.64302 29.4193 2.66143L23.8047 8.83203L22.875 7.90234L29.0631 2.30942C29.0799 2.29425 29.1013 2.28522 29.1239 2.28381L29.2332 2.27697Z"
        fill="url(#paint1_linear_18_25245)" />
    <rect x="22.3398" y="6.5" width="4.05482" height="6.14299" rx="0.6"
        transform="rotate(45 22.3398 6.5)" fill="#C4D4F8" />
    <rect x="22.3398" y="6.5" width="4.05482" height="6.14299" rx="0.6"
        transform="rotate(45 22.3398 6.5)" fill="url(#paint2_radial_18_25245)" />
    <rect x="22.3398" y="6.5" width="4.05482" height="6.14299" rx="0.6"
        transform="rotate(45 22.3398 6.5)" fill="url(#paint3_radial_18_25245)" />
    <path
        d="M17.7021 7.41904C18.1902 6.93089 18.9817 6.93088 19.4698 7.41904L24.288 12.2372C24.7761 12.7254 24.7761 13.5168 24.288 14.005L11.9269 26.3661C11.4387 26.8543 10.6472 26.8543 10.1591 26.3661L5.34091 21.5479C4.85276 21.0598 4.85276 20.2683 5.34091 19.7802L11.7772 13.3439L12.5611 13.2544L12.7199 12.4012L13.6626 11.4585L14.4465 11.369L14.6054 10.5157L15.5575 9.56356L16.3399 9.47568L16.4971 8.62399L17.7021 7.41904Z"
        fill="url(#paint4_linear_18_25245)" />
    <path
        d="M17.7021 7.41904C18.1902 6.93089 18.9817 6.93088 19.4698 7.41904L24.288 12.2372C24.7761 12.7254 24.7761 13.5168 24.288 14.005L11.9269 26.3661C11.4387 26.8543 10.6472 26.8543 10.1591 26.3661L5.34091 21.5479C4.85276 21.0598 4.85276 20.2683 5.34091 19.7802L11.7772 13.3439L12.5611 13.2544L12.7199 12.4012L13.6626 11.4585L14.4465 11.369L14.6054 10.5157L15.5575 9.56356L16.3399 9.47568L16.4971 8.62399L17.7021 7.41904Z"
        fill="url(#paint5_linear_18_25245)" />
    <path
        d="M17.7021 7.41904C18.1902 6.93089 18.9817 6.93088 19.4698 7.41904L24.288 12.2372C24.7761 12.7254 24.7761 13.5168 24.288 14.005L11.9269 26.3661C11.4387 26.8543 10.6472 26.8543 10.1591 26.3661L5.34091 21.5479C4.85276 21.0598 4.85276 20.2683 5.34091 19.7802L11.7772 13.3439L12.5611 13.2544L12.7199 12.4012L13.6626 11.4585L14.4465 11.369L14.6054 10.5157L15.5575 9.56356L16.3399 9.47568L16.4971 8.62399L17.7021 7.41904Z"
        fill="url(#paint6_linear_18_25245)" />
    <path
        d="M17.7021 7.41904C18.1902 6.93089 18.9817 6.93088 19.4698 7.41904L24.288 12.2372C24.7761 12.7254 24.7761 13.5168 24.288 14.005L11.9269 26.3661C11.4387 26.8543 10.6472 26.8543 10.1591 26.3661L5.34091 21.5479C4.85276 21.0598 4.85276 20.2683 5.34091 19.7802L11.7772 13.3439L12.5611 13.2544L12.7199 12.4012L13.6626 11.4585L14.4465 11.369L14.6054 10.5157L15.5575 9.56356L16.3399 9.47568L16.4971 8.62399L17.7021 7.41904Z"
        fill="url(#paint7_radial_18_25245)" />
    <path
        d="M17.7021 7.41904C18.1902 6.93089 18.9817 6.93088 19.4698 7.41904L24.288 12.2372C24.7761 12.7254 24.7761 13.5168 24.288 14.005L11.9269 26.3661C11.4387 26.8543 10.6472 26.8543 10.1591 26.3661L5.34091 21.5479C4.85276 21.0598 4.85276 20.2683 5.34091 19.7802L11.7772 13.3439L12.5611 13.2544L12.7199 12.4012L13.6626 11.4585L14.4465 11.369L14.6054 10.5157L15.5575 9.56356L16.3399 9.47568L16.4971 8.62399L17.7021 7.41904Z"
        fill="url(#paint8_radial_18_25245)" />
    <rect x="7.09766" y="21.7734" width="4.01062" height="4.56305"
        transform="rotate(45 7.09766 21.7734)" fill="#9395A6" />
    <rect x="7.09766" y="21.7734" width="4.01062" height="4.56305"
        transform="rotate(45 7.09766 21.7734)" fill="url(#paint9_radial_18_25245)" />
    <rect x="7.09766" y="21.7734" width="4.01062" height="4.56305"
        transform="rotate(45 7.09766 21.7734)" fill="url(#paint10_linear_18_25245)" />
    <rect x="7.09766" y="21.7734" width="4.01062" height="4.56305"
        transform="rotate(45 7.09766 21.7734)" fill="url(#paint11_linear_18_25245)" />
    <path
        d="M2.85309 24.1899C3.0874 23.9556 3.4673 23.9556 3.70161 24.1899L7.51715 28.0054C7.75146 28.2397 7.75146 28.6196 7.51715 28.854L7.43599 28.9351C7.20167 29.1694 6.82178 29.1694 6.58746 28.9351L2.77193 25.1196C2.53761 24.8853 2.53761 24.5054 2.77193 24.2711L2.85309 24.1899Z"
        fill="url(#paint12_linear_18_25245)" />
    <path
        d="M2.85309 24.1899C3.0874 23.9556 3.4673 23.9556 3.70161 24.1899L7.51715 28.0054C7.75146 28.2397 7.75146 28.6196 7.51715 28.854L7.43599 28.9351C7.20167 29.1694 6.82178 29.1694 6.58746 28.9351L2.77193 25.1196C2.53761 24.8853 2.53761 24.5054 2.77193 24.2711L2.85309 24.1899Z"
        fill="url(#paint13_linear_18_25245)" />
    <path
        d="M2.85309 24.1899C3.0874 23.9556 3.4673 23.9556 3.70161 24.1899L7.51715 28.0054C7.75146 28.2397 7.75146 28.6196 7.51715 28.854L7.43599 28.9351C7.20167 29.1694 6.82178 29.1694 6.58746 28.9351L2.77193 25.1196C2.53761 24.8853 2.53761 24.5054 2.77193 24.2711L2.85309 24.1899Z"
        fill="url(#paint14_linear_18_25245)" />
    <path
        d="M2.85309 24.1899C3.0874 23.9556 3.4673 23.9556 3.70161 24.1899L7.51715 28.0054C7.75146 28.2397 7.75146 28.6196 7.51715 28.854L7.43599 28.9351C7.20167 29.1694 6.82178 29.1694 6.58746 28.9351L2.77193 25.1196C2.53761 24.8853 2.53761 24.5054 2.77193 24.2711L2.85309 24.1899Z"
        fill="url(#paint15_linear_18_25245)" />
    <path
        d="M2.85309 24.1899C3.0874 23.9556 3.4673 23.9556 3.70161 24.1899L7.51715 28.0054C7.75146 28.2397 7.75146 28.6196 7.51715 28.854L7.43599 28.9351C7.20167 29.1694 6.82178 29.1694 6.58746 28.9351L2.77193 25.1196C2.53761 24.8853 2.53761 24.5054 2.77193 24.2711L2.85309 24.1899Z"
        fill="url(#paint16_radial_18_25245)" />
    <path
        d="M15.5547 9.56641L16.5 8.62109L17.7598 9.88083C17.955 10.0761 17.955 10.3927 17.7598 10.5879L17.5215 10.8261C17.3263 11.0214 17.0096 11.0214 16.8145 10.8261L15.5547 9.56641Z"
        fill="url(#paint17_linear_18_25245)" />
    <path
        d="M13.666 11.4551L14.6113 10.5098L15.8535 11.7519C16.0487 11.9472 16.0487 12.2638 15.8535 12.459L15.6152 12.6972C15.42 12.8925 15.1034 12.8925 14.9082 12.6972L13.666 11.4551Z"
        fill="url(#paint18_linear_18_25245)" />
    <path
        d="M12.7227 12.3984L11.7773 13.3438L13.0371 14.6035C13.2323 14.7987 13.549 14.7987 13.7441 14.6035L13.9824 14.3653C14.1776 14.17 14.1776 13.8534 13.9824 13.6582L12.7227 12.3984Z"
        fill="url(#paint19_linear_18_25245)" />
    <path
        d="M4.45876 18.7834C4.84928 18.3928 5.48245 18.3928 5.87297 18.7834L12.9236 25.834C13.3141 26.2245 13.3141 26.8577 12.9236 27.2482L12.4628 27.709C12.0723 28.0995 11.4391 28.0995 11.0486 27.709L3.99797 20.6584C3.60745 20.2678 3.60745 19.6347 3.99797 19.2442L4.45876 18.7834Z"
        fill="url(#paint20_linear_18_25245)" />
    <path
        d="M4.45876 18.7834C4.84928 18.3928 5.48245 18.3928 5.87297 18.7834L12.9236 25.834C13.3141 26.2245 13.3141 26.8577 12.9236 27.2482L12.4628 27.709C12.0723 28.0995 11.4391 28.0995 11.0486 27.709L3.99797 20.6584C3.60745 20.2678 3.60745 19.6347 3.99797 19.2442L4.45876 18.7834Z"
        fill="url(#paint21_linear_18_25245)" />
    <path
        d="M4.45876 18.7834C4.84928 18.3928 5.48245 18.3928 5.87297 18.7834L12.9236 25.834C13.3141 26.2245 13.3141 26.8577 12.9236 27.2482L12.4628 27.709C12.0723 28.0995 11.4391 28.0995 11.0486 27.709L3.99797 20.6584C3.60745 20.2678 3.60745 19.6347 3.99797 19.2442L4.45876 18.7834Z"
        fill="url(#paint22_linear_18_25245)" />
    <path
        d="M4.45876 18.7834C4.84928 18.3928 5.48245 18.3928 5.87297 18.7834L12.9236 25.834C13.3141 26.2245 13.3141 26.8577 12.9236 27.2482L12.4628 27.709C12.0723 28.0995 11.4391 28.0995 11.0486 27.709L3.99797 20.6584C3.60745 20.2678 3.60745 19.6347 3.99797 19.2442L4.45876 18.7834Z"
        fill="url(#paint23_linear_18_25245)" />
    <path
        d="M4.45876 18.7834C4.84928 18.3928 5.48245 18.3928 5.87297 18.7834L12.9236 25.834C13.3141 26.2245 13.3141 26.8577 12.9236 27.2482L12.4628 27.709C12.0723 28.0995 11.4391 28.0995 11.0486 27.709L3.99797 20.6584C3.60745 20.2678 3.60745 19.6347 3.99797 19.2442L4.45876 18.7834Z"
        fill="url(#paint24_radial_18_25245)" />
    <defs>
        <linearGradient id="paint0_linear_18_25245" x1="25.7148" y1="7.09375" x2="25.1992"
            y2="6.60937" gradientUnits="userSpaceOnUse">
            <stop offset="0.191707" stop-color="#A39CAD" />
            <stop offset="1" stop-color="#A39CAD" stop-opacity="0" />
        </linearGradient>
        <linearGradient id="paint1_linear_18_25245" x1="29.3711" y1="2.33594" x2="29.2246"
            y2="2.48242" gradientUnits="userSpaceOnUse">
            <stop offset="0.138889" stop-color="#C6C3CA" />
            <stop offset="1" stop-color="#C6C3CA" stop-opacity="0" />
        </linearGradient>
        <radialGradient id="paint2_radial_18_25245" cx="0" cy="0" r="1"
            gradientUnits="userSpaceOnUse"
            gradientTransform="translate(24.417 6.80936) rotate(88.52) scale(2.8874 2.4506)">
            <stop offset="0.251929" stop-color="#B6C9E3" stop-opacity="0" />
            <stop offset="1" stop-color="#9DADBF" />
        </radialGradient>
        <radialGradient id="paint3_radial_18_25245" cx="0" cy="0" r="1"
            gradientUnits="userSpaceOnUse"
            gradientTransform="translate(24.5275 6.69887) rotate(90) scale(0.53033 2.94501)">
            <stop stop-color="#E0F5FF" />
            <stop offset="1" stop-color="#C4DAE9" stop-opacity="0" />
        </radialGradient>
        <linearGradient id="paint4_linear_18_25245" x1="9.71484" y1="14.9375" x2="16.7148"
            y2="22.1875" gradientUnits="userSpaceOnUse">
            <stop stop-color="#B7C9DE" />
            <stop offset="1" stop-color="#C5C9FF" />
        </linearGradient>
        <linearGradient id="paint5_linear_18_25245" x1="18.8398" y1="20.25" x2="16.6523"
            y2="17.9375" gradientUnits="userSpaceOnUse">
            <stop offset="0.132228" stop-color="#B6B4E7" />
            <stop offset="1" stop-color="#C4CAFD" stop-opacity="0" />
        </linearGradient>
        <linearGradient id="paint6_linear_18_25245" x1="11.2461" y1="13" x2="12.3711" y2="14.125"
            gradientUnits="userSpaceOnUse">
            <stop offset="0.396552" stop-color="#AFBFC7" />
            <stop offset="1" stop-color="#AFBFC7" stop-opacity="0" />
        </linearGradient>
        <radialGradient id="paint7_radial_18_25245" cx="0" cy="0" r="1"
            gradientUnits="userSpaceOnUse"
            gradientTransform="translate(21.6367 10.2656) rotate(135) scale(1.12695 4.93041)">
            <stop stop-color="#E4F5FF" />
            <stop offset="1" stop-color="#CADFED" stop-opacity="0" />
        </radialGradient>
        <radialGradient id="paint8_radial_18_25245" cx="0" cy="0" r="1"
            gradientUnits="userSpaceOnUse"
            gradientTransform="translate(9.08985 22.625) rotate(-45) scale(1.5026 5.51141)">
            <stop stop-color="#CCE1FF" />
            <stop offset="1" stop-color="#CCE1FF" stop-opacity="0" />
        </radialGradient>
        <radialGradient id="paint9_radial_18_25245" cx="0" cy="0" r="1"
            gradientUnits="userSpaceOnUse"
            gradientTransform="translate(11.3845 23.1545) rotate(179.703) scale(4.2648 3.80133)">
            <stop stop-color="#8064AF" />
            <stop offset="1" stop-color="#7B5EAB" stop-opacity="0" />
        </radialGradient>
        <linearGradient id="paint10_linear_18_25245" x1="6.30216" y1="24.8339" x2="8.15279"
            y2="25.0051" gradientUnits="userSpaceOnUse">
            <stop stop-color="#9B9FAA" />
            <stop offset="1" stop-color="#9B9FAA" stop-opacity="0" />
        </linearGradient>
        <linearGradient id="paint11_linear_18_25245" x1="10.0697" y1="26.215" x2="10.0697"
            y2="25.3753" gradientUnits="userSpaceOnUse">
            <stop stop-color="#7C78A2" />
            <stop offset="1" stop-color="#7C78A2" stop-opacity="0" />
        </linearGradient>
        <linearGradient id="paint12_linear_18_25245" x1="2.7584" y1="25.3419" x2="7.81329"
            y2="25.3555" gradientUnits="userSpaceOnUse">
            <stop stop-color="#4B99D5" />
            <stop offset="1" stop-color="#377FE1" />
        </linearGradient>
        <linearGradient id="paint13_linear_18_25245" x1="5.74609" y1="28.375" x2="6.29297"
            y2="27.7187" gradientUnits="userSpaceOnUse">
            <stop offset="0.136974" stop-color="#4072D5" />
            <stop offset="1" stop-color="#4072D5" stop-opacity="0" />
        </linearGradient>
        <linearGradient id="paint14_linear_18_25245" x1="6.30859" y1="25.9063" x2="5.67578"
            y2="26.5625" gradientUnits="userSpaceOnUse">
            <stop offset="0.136974" stop-color="#3382BB" />
            <stop offset="1" stop-color="#3382BB" stop-opacity="0" />
        </linearGradient>
        <linearGradient id="paint15_linear_18_25245" x1="2.08984" y1="24.75" x2="3.21484"
            y2="24.2812" gradientUnits="userSpaceOnUse">
            <stop stop-color="#87B4D9" />
            <stop offset="1" stop-color="#87B4D9" stop-opacity="0" />
        </linearGradient>
        <radialGradient id="paint16_radial_18_25245" cx="0" cy="0" r="1"
            gradientUnits="userSpaceOnUse"
            gradientTransform="translate(5.80859 26.9063) rotate(135) scale(0.287262 2.05312)">
            <stop stop-color="#5CA7F1" />
            <stop offset="1" stop-color="#5CA7F1" stop-opacity="0" />
        </radialGradient>
        <linearGradient id="paint17_linear_18_25245" x1="12.25" y1="12.9023" x2="13.8594"
            y2="14.5273" gradientUnits="userSpaceOnUse">
            <stop stop-color="#607DB9" />
            <stop offset="1" stop-color="#326CCD" />
        </linearGradient>
        <linearGradient id="paint18_linear_18_25245" x1="12.25" y1="12.9023" x2="13.8594"
            y2="14.5273" gradientUnits="userSpaceOnUse">
            <stop stop-color="#607DB9" />
            <stop offset="1" stop-color="#326CCD" />
        </linearGradient>
        <linearGradient id="paint19_linear_18_25245" x1="12.25" y1="12.9023" x2="13.8594"
            y2="14.5273" gradientUnits="userSpaceOnUse">
            <stop stop-color="#607DB9" />
            <stop offset="1" stop-color="#326CCD" />
        </linearGradient>
        <linearGradient id="paint20_linear_18_25245" x1="4.00779" y1="20.9682" x2="13.4412"
            y2="20.9937" gradientUnits="userSpaceOnUse">
            <stop stop-color="#4B99D5" />
            <stop offset="1" stop-color="#377FE1" />
        </linearGradient>
        <linearGradient id="paint21_linear_18_25245" x1="9.58341" y1="26.6286" x2="10.4335"
            y2="25.6876" gradientUnits="userSpaceOnUse">
            <stop offset="0.24272" stop-color="#4072D5" />
            <stop offset="1" stop-color="#4072D5" stop-opacity="0" />
        </linearGradient>
        <linearGradient id="paint22_linear_18_25245" x1="10.6331" y1="22.0215" x2="9.45219"
            y2="23.2462" gradientUnits="userSpaceOnUse">
            <stop offset="0.136974" stop-color="#4DBDFE" />
            <stop offset="1" stop-color="#4DBDFE" stop-opacity="0" />
        </linearGradient>
        <linearGradient id="paint23_linear_18_25245" x1="2.76014" y1="19.8637" x2="4.8596"
            y2="18.9889" gradientUnits="userSpaceOnUse">
            <stop stop-color="#87B4D9" />
            <stop offset="1" stop-color="#87B4D9" stop-opacity="0" />
        </linearGradient>
        <radialGradient id="paint24_radial_18_25245" cx="0" cy="0" r="1"
            gradientUnits="userSpaceOnUse"
            gradientTransform="translate(10.0585 23.5313) rotate(135.081) scale(1.0415 6.54526)">
            <stop stop-color="#6EC8FF" />
            <stop offset="1" stop-color="#34B0EE" stop-opacity="0" />
        </radialGradient>
    </defs>
</svg>