<svg width="32" height="32" viewBox="0 0 32 32" fill="none" xmlns="http://www.w3.org/2000/svg">
    <path
        d="M15.3748 2.51469C8.38207 2.84475 3 8.8659 3 15.8672V27.3794C3 29.0997 4.40054 30.5 6.1212 30.5H25.8788C27.5994 30.5 29 29.0997 29 27.3794V15.4972C29.01 8.11575 22.8376 2.16463 15.3748 2.51469Z"
        fill="url(#paint0_linear_18_13450)" />
    <path
        d="M15.3748 2.51469C8.38207 2.84475 3 8.8659 3 15.8672V27.3794C3 29.0997 4.40054 30.5 6.1212 30.5H25.8788C27.5994 30.5 29 29.0997 29 27.3794V15.4972C29.01 8.11575 22.8376 2.16463 15.3748 2.51469Z"
        fill="url(#paint1_radial_18_13450)" />
    <path
        d="M15.3748 2.51469C8.38207 2.84475 3 8.8659 3 15.8672V27.3794C3 29.0997 4.40054 30.5 6.1212 30.5H25.8788C27.5994 30.5 29 29.0997 29 27.3794V15.4972C29.01 8.11575 22.8376 2.16463 15.3748 2.51469Z"
        fill="url(#paint2_linear_18_13450)" />
    <path
        d="M15.3748 2.51469C8.38207 2.84475 3 8.8659 3 15.8672V27.3794C3 29.0997 4.40054 30.5 6.1212 30.5H25.8788C27.5994 30.5 29 29.0997 29 27.3794V15.4972C29.01 8.11575 22.8376 2.16463 15.3748 2.51469Z"
        fill="url(#paint3_linear_18_13450)" />
    <path
        d="M15.3748 2.51469C8.38207 2.84475 3 8.8659 3 15.8672V27.3794C3 29.0997 4.40054 30.5 6.1212 30.5H25.8788C27.5994 30.5 29 29.0997 29 27.3794V15.4972C29.01 8.11575 22.8376 2.16463 15.3748 2.51469Z"
        fill="url(#paint4_radial_18_13450)" />
    <path fill-rule="evenodd" clip-rule="evenodd"
        d="M27 15.4946C27 21.5698 22.0751 26.4946 16 26.4946C9.92487 26.4946 5 21.5698 5 15.4946C5 9.4195 9.92487 4.49463 16 4.49463C22.0751 4.49463 27 9.4195 27 15.4946ZM25 15.4946C25 20.4652 20.9706 24.4946 16 24.4946C11.0294 24.4946 7 20.4652 7 15.4946C7 10.5241 11.0294 6.49463 16 6.49463C20.9706 6.49463 25 10.5241 25 15.4946Z"
        fill="url(#paint5_linear_18_13450)" />
    <path fill-rule="evenodd" clip-rule="evenodd"
        d="M27 15.4946C27 21.5698 22.0751 26.4946 16 26.4946C9.92487 26.4946 5 21.5698 5 15.4946C5 9.4195 9.92487 4.49463 16 4.49463C22.0751 4.49463 27 9.4195 27 15.4946ZM25 15.4946C25 20.4652 20.9706 24.4946 16 24.4946C11.0294 24.4946 7 20.4652 7 15.4946C7 10.5241 11.0294 6.49463 16 6.49463C20.9706 6.49463 25 10.5241 25 15.4946Z"
        fill="url(#paint6_radial_18_13450)" />
    <path fill-rule="evenodd" clip-rule="evenodd"
        d="M27 15.4946C27 21.5698 22.0751 26.4946 16 26.4946C9.92487 26.4946 5 21.5698 5 15.4946C5 9.4195 9.92487 4.49463 16 4.49463C22.0751 4.49463 27 9.4195 27 15.4946ZM25 15.4946C25 20.4652 20.9706 24.4946 16 24.4946C11.0294 24.4946 7 20.4652 7 15.4946C7 10.5241 11.0294 6.49463 16 6.49463C20.9706 6.49463 25 10.5241 25 15.4946Z"
        fill="url(#paint7_radial_18_13450)" />
    <path
        d="M16 24.4934C20.9706 24.4934 25 20.464 25 15.4934C25 10.5228 20.9706 6.49341 16 6.49341C11.0294 6.49341 7 10.5228 7 15.4934C7 20.464 11.0294 24.4934 16 24.4934Z"
        fill="url(#paint8_radial_18_13450)" />
    <path
        d="M16 24.4934C20.9706 24.4934 25 20.464 25 15.4934C25 10.5228 20.9706 6.49341 16 6.49341C11.0294 6.49341 7 10.5228 7 15.4934C7 20.464 11.0294 24.4934 16 24.4934Z"
        fill="url(#paint9_linear_18_13450)" />
    <path
        d="M16 24.4934C20.9706 24.4934 25 20.464 25 15.4934C25 10.5228 20.9706 6.49341 16 6.49341C11.0294 6.49341 7 10.5228 7 15.4934C7 20.464 11.0294 24.4934 16 24.4934Z"
        fill="url(#paint10_radial_18_13450)" />
    <path
        d="M16 24.4934C20.9706 24.4934 25 20.464 25 15.4934C25 10.5228 20.9706 6.49341 16 6.49341C11.0294 6.49341 7 10.5228 7 15.4934C7 20.464 11.0294 24.4934 16 24.4934Z"
        fill="url(#paint11_radial_18_13450)" />
    <path
        d="M16 24.4934C20.9706 24.4934 25 20.464 25 15.4934C25 10.5228 20.9706 6.49341 16 6.49341C11.0294 6.49341 7 10.5228 7 15.4934C7 20.464 11.0294 24.4934 16 24.4934Z"
        fill="url(#paint12_radial_18_13450)" />
    <path
        d="M16 24.4934C20.9706 24.4934 25 20.464 25 15.4934C25 10.5228 20.9706 6.49341 16 6.49341C11.0294 6.49341 7 10.5228 7 15.4934C7 20.464 11.0294 24.4934 16 24.4934Z"
        fill="url(#paint13_radial_18_13450)" />
    <path
        d="M16 24.4934C20.9706 24.4934 25 20.464 25 15.4934C25 10.5228 20.9706 6.49341 16 6.49341C11.0294 6.49341 7 10.5228 7 15.4934C7 20.464 11.0294 24.4934 16 24.4934Z"
        fill="url(#paint14_radial_18_13450)" />
    <path
        d="M16 24.4934C20.9706 24.4934 25 20.464 25 15.4934C25 10.5228 20.9706 6.49341 16 6.49341C11.0294 6.49341 7 10.5228 7 15.4934C7 20.464 11.0294 24.4934 16 24.4934Z"
        fill="url(#paint15_radial_18_13450)" />
    <path
        d="M16 24.4934C20.9706 24.4934 25 20.464 25 15.4934C25 10.5228 20.9706 6.49341 16 6.49341C11.0294 6.49341 7 10.5228 7 15.4934C7 20.464 11.0294 24.4934 16 24.4934Z"
        fill="url(#paint16_radial_18_13450)" />
    <path
        d="M16 24.4934C20.9706 24.4934 25 20.464 25 15.4934C25 10.5228 20.9706 6.49341 16 6.49341C11.0294 6.49341 7 10.5228 7 15.4934C7 20.464 11.0294 24.4934 16 24.4934Z"
        fill="url(#paint17_radial_18_13450)" />
    <path
        d="M16 24.4934C20.9706 24.4934 25 20.464 25 15.4934C25 10.5228 20.9706 6.49341 16 6.49341C11.0294 6.49341 7 10.5228 7 15.4934C7 20.464 11.0294 24.4934 16 24.4934Z"
        fill="url(#paint18_radial_18_13450)" />
    <path
        d="M16 24.4934C20.9706 24.4934 25 20.464 25 15.4934C25 10.5228 20.9706 6.49341 16 6.49341C11.0294 6.49341 7 10.5228 7 15.4934C7 20.464 11.0294 24.4934 16 24.4934Z"
        fill="url(#paint19_radial_18_13450)" />
    <path
        d="M16 24.4934C20.9706 24.4934 25 20.464 25 15.4934C25 10.5228 20.9706 6.49341 16 6.49341C11.0294 6.49341 7 10.5228 7 15.4934C7 20.464 11.0294 24.4934 16 24.4934Z"
        fill="url(#paint20_radial_18_13450)" />
    <path
        d="M16 24.4934C20.9706 24.4934 25 20.464 25 15.4934C25 10.5228 20.9706 6.49341 16 6.49341C11.0294 6.49341 7 10.5228 7 15.4934C7 20.464 11.0294 24.4934 16 24.4934Z"
        fill="url(#paint21_radial_18_13450)" />
    <path
        d="M16 24.4934C20.9706 24.4934 25 20.464 25 15.4934C25 10.5228 20.9706 6.49341 16 6.49341C11.0294 6.49341 7 10.5228 7 15.4934C7 20.464 11.0294 24.4934 16 24.4934Z"
        fill="url(#paint22_radial_18_13450)" />
    <path
        d="M16 24.4934C20.9706 24.4934 25 20.464 25 15.4934C25 10.5228 20.9706 6.49341 16 6.49341C11.0294 6.49341 7 10.5228 7 15.4934C7 20.464 11.0294 24.4934 16 24.4934Z"
        fill="url(#paint23_radial_18_13450)" />
    <path
        d="M16 19.4946C15.45 19.4946 15 19.0446 15 18.4946V12.4946C15 11.9446 15.45 11.4946 16 11.4946C16.55 11.4946 17 11.9446 17 12.4946V18.4946C17 19.0546 16.55 19.4946 16 19.4946Z"
        fill="url(#paint24_linear_18_13450)" />
    <path
        d="M16 19.4946C15.45 19.4946 15 19.0446 15 18.4946V12.4946C15 11.9446 15.45 11.4946 16 11.4946C16.55 11.4946 17 11.9446 17 12.4946V18.4946C17 19.0546 16.55 19.4946 16 19.4946Z"
        fill="url(#paint25_linear_18_13450)" />
    <path
        d="M16 19.4946C15.45 19.4946 15 19.0446 15 18.4946V12.4946C15 11.9446 15.45 11.4946 16 11.4946C16.55 11.4946 17 11.9446 17 12.4946V18.4946C17 19.0546 16.55 19.4946 16 19.4946Z"
        fill="url(#paint26_linear_18_13450)" />
    <path
        d="M16 9.49463C16.5523 9.49463 17 9.04691 17 8.49463C17 7.94234 16.5523 7.49463 16 7.49463C15.4477 7.49463 15 7.94234 15 8.49463C15 9.04691 15.4477 9.49463 16 9.49463Z"
        fill="url(#paint27_linear_18_13450)" />
    <path
        d="M16 9.49463C16.5523 9.49463 17 9.04691 17 8.49463C17 7.94234 16.5523 7.49463 16 7.49463C15.4477 7.49463 15 7.94234 15 8.49463C15 9.04691 15.4477 9.49463 16 9.49463Z"
        fill="url(#paint28_radial_18_13450)" />
    <path
        d="M16 23.4946C16.5523 23.4946 17 23.0469 17 22.4946C17 21.9423 16.5523 21.4946 16 21.4946C15.4477 21.4946 15 21.9423 15 22.4946C15 23.0469 15.4477 23.4946 16 23.4946Z"
        fill="url(#paint29_linear_18_13450)" />
    <path
        d="M16 23.4946C16.5523 23.4946 17 23.0469 17 22.4946C17 21.9423 16.5523 21.4946 16 21.4946C15.4477 21.4946 15 21.9423 15 22.4946C15 23.0469 15.4477 23.4946 16 23.4946Z"
        fill="url(#paint30_radial_18_13450)" />
    <path
        d="M20.95 11.5547C21.5022 11.5547 21.95 11.107 21.95 10.5547C21.95 10.0024 21.5022 9.55469 20.95 9.55469C20.3977 9.55469 19.95 10.0024 19.95 10.5547C19.95 11.107 20.3977 11.5547 20.95 11.5547Z"
        fill="url(#paint31_linear_18_13450)" />
    <path
        d="M20.95 11.5547C21.5022 11.5547 21.95 11.107 21.95 10.5547C21.95 10.0024 21.5022 9.55469 20.95 9.55469C20.3977 9.55469 19.95 10.0024 19.95 10.5547C19.95 11.107 20.3977 11.5547 20.95 11.5547Z"
        fill="url(#paint32_radial_18_13450)" />
    <path
        d="M11.05 21.4448C11.6023 21.4448 12.05 20.9971 12.05 20.4448C12.05 19.8925 11.6023 19.4448 11.05 19.4448C10.4978 19.4448 10.05 19.8925 10.05 20.4448C10.05 20.9971 10.4978 21.4448 11.05 21.4448Z"
        fill="url(#paint33_linear_18_13450)" />
    <path
        d="M11.05 21.4448C11.6023 21.4448 12.05 20.9971 12.05 20.4448C12.05 19.8925 11.6023 19.4448 11.05 19.4448C10.4978 19.4448 10.05 19.8925 10.05 20.4448C10.05 20.9971 10.4978 21.4448 11.05 21.4448Z"
        fill="url(#paint34_radial_18_13450)" />
    <path
        d="M23.4346 16.3913C23.9305 16.1483 24.1355 15.5492 23.8924 15.0533C23.6493 14.5574 23.0503 14.3525 22.5544 14.5955C22.0585 14.8386 21.8535 15.4376 22.0966 15.9335C22.3397 16.4294 22.9387 16.6344 23.4346 16.3913Z"
        fill="url(#paint35_linear_18_13450)" />
    <path
        d="M23.4346 16.3913C23.9305 16.1483 24.1355 15.5492 23.8924 15.0533C23.6493 14.5574 23.0503 14.3525 22.5544 14.5955C22.0585 14.8386 21.8535 15.4376 22.0966 15.9335C22.3397 16.4294 22.9387 16.6344 23.4346 16.3913Z"
        fill="url(#paint36_radial_18_13450)" />
    <path
        d="M9.43508 16.3913C9.93098 16.1483 10.1359 15.5492 9.89288 15.0533C9.64982 14.5574 9.05078 14.3525 8.55488 14.5955C8.05899 14.8386 7.85402 15.4376 8.09708 15.9335C8.34014 16.4294 8.93919 16.6344 9.43508 16.3913Z"
        fill="url(#paint37_linear_18_13450)" />
    <path
        d="M9.43508 16.3913C9.93098 16.1483 10.1359 15.5492 9.89288 15.0533C9.64982 14.5574 9.05078 14.3525 8.55488 14.5955C8.05899 14.8386 7.85402 15.4376 8.09708 15.9335C8.34014 16.4294 8.93919 16.6344 9.43508 16.3913Z"
        fill="url(#paint38_radial_18_13450)" />
    <path
        d="M21.8858 20.7704C22.0646 20.2479 21.7859 19.6794 21.2634 19.5006C20.7409 19.3218 20.1724 19.6005 19.9936 20.123C19.8148 20.6455 20.0935 21.214 20.616 21.3928C21.1385 21.5716 21.707 21.2929 21.8858 20.7704Z"
        fill="url(#paint39_linear_18_13450)" />
    <path
        d="M21.8858 20.7704C22.0646 20.2479 21.7859 19.6794 21.2634 19.5006C20.7409 19.3218 20.1724 19.6005 19.9936 20.123C19.8148 20.6455 20.0935 21.214 20.616 21.3928C21.1385 21.5716 21.707 21.2929 21.8858 20.7704Z"
        fill="url(#paint40_radial_18_13450)" />
    <path
        d="M11.9962 10.8744C12.1749 10.3519 11.8963 9.78337 11.3738 9.6046C10.8513 9.42582 10.2827 9.70448 10.104 10.227C9.9252 10.7495 10.2039 11.318 10.7264 11.4968C11.2489 11.6756 11.8174 11.3969 11.9962 10.8744Z"
        fill="url(#paint41_linear_18_13450)" />
    <path
        d="M11.9962 10.8744C12.1749 10.3519 11.8963 9.78337 11.3738 9.6046C10.8513 9.42582 10.2827 9.70448 10.104 10.227C9.9252 10.7495 10.2039 11.318 10.7264 11.4968C11.2489 11.6756 11.8174 11.3969 11.9962 10.8744Z"
        fill="url(#paint42_radial_18_13450)" />
    <defs>
        <linearGradient id="paint0_linear_18_13450" x1="16.0018" y1="30.505" x2="16.0018"
            y2="2.49969" gradientUnits="userSpaceOnUse">
            <stop stop-color="#43B0F2" />
            <stop offset="1" stop-color="#56BFE3" />
        </linearGradient>
        <radialGradient id="paint1_radial_18_13450" cx="0" cy="0" r="1"
            gradientUnits="userSpaceOnUse"
            gradientTransform="translate(16 16) rotate(90) scale(14.5 14.25)">
            <stop offset="0.720833" stop-color="#2967A3" />
            <stop offset="0.8" stop-color="#2967A3" stop-opacity="0" />
        </radialGradient>
        <linearGradient id="paint2_linear_18_13450" x1="16" y1="2.5" x2="16" y2="30.5"
            gradientUnits="userSpaceOnUse">
            <stop offset="0.948661" stop-color="#3984B5" stop-opacity="0" />
            <stop offset="1" stop-color="#3984B5" />
        </linearGradient>
        <linearGradient id="paint3_linear_18_13450" x1="31.5" y1="18" x2="1" y2="18"
            gradientUnits="userSpaceOnUse">
            <stop offset="0.0758197" stop-color="#79F1FD" />
            <stop offset="0.118852" stop-color="#79F1FD" stop-opacity="0" />
            <stop offset="0.889344" stop-color="#3984B5" stop-opacity="0" />
            <stop offset="0.932377" stop-color="#3984B5" />
        </linearGradient>
        <radialGradient id="paint4_radial_18_13450" cx="0" cy="0" r="1"
            gradientUnits="userSpaceOnUse"
            gradientTransform="translate(15 23) rotate(-86.0995) scale(22.0511 16.4717)">
            <stop offset="0.885861" stop-color="#79F1FD" stop-opacity="0" />
            <stop offset="0.954691" stop-color="#79F1FD" />
        </radialGradient>
        <linearGradient id="paint5_linear_18_13450" x1="9.73035" y1="6.26662" x2="22.6777"
            y2="25.599" gradientUnits="userSpaceOnUse">
            <stop stop-color="#6B656F" />
            <stop offset="1" stop-color="#6D6671" />
        </linearGradient>
        <radialGradient id="paint6_radial_18_13450" cx="0" cy="0" r="1"
            gradientUnits="userSpaceOnUse"
            gradientTransform="translate(19.4852 15.4946) rotate(-180) scale(14.4852 13.0117)">
            <stop offset="0.910159" stop-color="#4A4B54" stop-opacity="0" />
            <stop offset="1" stop-color="#4A4B54" />
        </radialGradient>
        <radialGradient id="paint7_radial_18_13450" cx="0" cy="0" r="1"
            gradientUnits="userSpaceOnUse"
            gradientTransform="translate(16 15.5) rotate(90) scale(12.4946)">
            <stop offset="0.620266" stop-color="#3B3C43" stop-opacity="0.5" />
            <stop offset="0.685294" stop-color="#3B3C43" stop-opacity="0.2" />
            <stop offset="0.748555" stop-color="#827E85" stop-opacity="0.2" />
            <stop offset="0.79543" stop-color="#827E85" />
            <stop offset="0.831055" stop-color="#827E85" stop-opacity="0.5" />
            <stop offset="0.895385" stop-color="#3B3C43" stop-opacity="0.2" />
            <stop offset="0.937903" stop-color="#3B3C43" stop-opacity="0.5" />
        </radialGradient>
        <radialGradient id="paint8_radial_18_13450" cx="0" cy="0" r="1"
            gradientUnits="userSpaceOnUse"
            gradientTransform="translate(13.5732 10.995) rotate(79.8079) scale(13.7148 18.9999)">
            <stop stop-color="#C7BDCE" />
            <stop offset="1" stop-color="#A49BA9" />
        </radialGradient>
        <linearGradient id="paint9_linear_18_13450" x1="12.5883" y1="26.3186" x2="16" y2="15.4934"
            gradientUnits="userSpaceOnUse">
            <stop stop-color="#9E96A2" />
            <stop offset="1" stop-color="#9E96A2" stop-opacity="0" />
        </linearGradient>
        <radialGradient id="paint10_radial_18_13450" cx="0" cy="0" r="1"
            gradientUnits="userSpaceOnUse" gradientTransform="translate(15.5 19) rotate(-90)">
            <stop offset="0.0735294" stop-color="#85758D" />
            <stop offset="1" stop-color="#85758D" stop-opacity="0" />
        </radialGradient>
        <radialGradient id="paint11_radial_18_13450" cx="0" cy="0" r="1"
            gradientUnits="userSpaceOnUse"
            gradientTransform="translate(15.5 18) rotate(-90) scale(2 1.5)">
            <stop offset="0.0735294" stop-color="#85758D" />
            <stop offset="1" stop-color="#85758D" stop-opacity="0" />
        </radialGradient>
        <radialGradient id="paint12_radial_18_13450" cx="0" cy="0" r="1"
            gradientUnits="userSpaceOnUse"
            gradientTransform="translate(11 20.5) rotate(-45) scale(1.41421)">
            <stop offset="0.640625" stop-color="#85758D" />
            <stop offset="0.791666" stop-color="#85758D" stop-opacity="0" />
        </radialGradient>
        <radialGradient id="paint13_radial_18_13450" cx="0" cy="0" r="1"
            gradientUnits="userSpaceOnUse"
            gradientTransform="translate(21 10.5) rotate(-180) scale(1.5)">
            <stop offset="0.640625" stop-color="#85758D" />
            <stop offset="0.791666" stop-color="#85758D" stop-opacity="0" />
        </radialGradient>
        <radialGradient id="paint14_radial_18_13450" cx="0" cy="0" r="1"
            gradientUnits="userSpaceOnUse"
            gradientTransform="translate(16 22.5) rotate(-90) scale(1.5)">
            <stop offset="0.640625" stop-color="#85758D" />
            <stop offset="0.791666" stop-color="#85758D" stop-opacity="0" />
        </radialGradient>
        <radialGradient id="paint15_radial_18_13450" cx="0" cy="0" r="1"
            gradientUnits="userSpaceOnUse"
            gradientTransform="translate(21 20.5) rotate(-135) scale(1.41421)">
            <stop offset="0.640625" stop-color="#85758D" />
            <stop offset="0.791666" stop-color="#85758D" stop-opacity="0" />
        </radialGradient>
        <radialGradient id="paint16_radial_18_13450" cx="0" cy="0" r="1"
            gradientUnits="userSpaceOnUse"
            gradientTransform="translate(21 20.5) rotate(-135) scale(1.41421)">
            <stop offset="0.640625" stop-color="#85758D" />
            <stop offset="0.791666" stop-color="#85758D" stop-opacity="0" />
        </radialGradient>
        <radialGradient id="paint17_radial_18_13450" cx="0" cy="0" r="1"
            gradientUnits="userSpaceOnUse"
            gradientTransform="translate(11 10.5) rotate(45) scale(1.41421)">
            <stop offset="0.640625" stop-color="#85758D" />
            <stop offset="0.791666" stop-color="#85758D" stop-opacity="0" />
        </radialGradient>
        <radialGradient id="paint18_radial_18_13450" cx="0" cy="0" r="1"
            gradientUnits="userSpaceOnUse"
            gradientTransform="translate(23 15.5) rotate(180) scale(1.5)">
            <stop offset="0.640625" stop-color="#85758D" />
            <stop offset="0.791666" stop-color="#85758D" stop-opacity="0" />
        </radialGradient>
        <radialGradient id="paint19_radial_18_13450" cx="0" cy="0" r="1"
            gradientUnits="userSpaceOnUse" gradientTransform="translate(9 15.5) scale(1.5)">
            <stop offset="0.640625" stop-color="#85758D" />
            <stop offset="0.791666" stop-color="#85758D" stop-opacity="0" />
        </radialGradient>
        <radialGradient id="paint20_radial_18_13450" cx="0" cy="0" r="1"
            gradientUnits="userSpaceOnUse"
            gradientTransform="translate(16 8.5) rotate(-90) scale(1.5)">
            <stop offset="0.640625" stop-color="#85758D" />
            <stop offset="0.791666" stop-color="#85758D" stop-opacity="0" />
        </radialGradient>
        <radialGradient id="paint21_radial_18_13450" cx="0" cy="0" r="1"
            gradientUnits="userSpaceOnUse"
            gradientTransform="translate(15.5 16) rotate(-90) scale(2 1.5)">
            <stop offset="0.0735294" stop-color="#85758D" />
            <stop offset="1" stop-color="#85758D" stop-opacity="0" />
        </radialGradient>
        <radialGradient id="paint22_radial_18_13450" cx="0" cy="0" r="1"
            gradientUnits="userSpaceOnUse"
            gradientTransform="translate(15.5 14) rotate(-90) scale(2 1.5)">
            <stop offset="0.0735294" stop-color="#85758D" />
            <stop offset="1" stop-color="#85758D" stop-opacity="0" />
        </radialGradient>
        <radialGradient id="paint23_radial_18_13450" cx="0" cy="0" r="1"
            gradientUnits="userSpaceOnUse"
            gradientTransform="translate(15.5 16) rotate(-90) scale(4 1.29688)">
            <stop offset="0.0735294" stop-color="#85758D" />
            <stop offset="0.847656" stop-color="#85758D" stop-opacity="0" />
        </radialGradient>
        <linearGradient id="paint24_linear_18_13450" x1="16" y1="11.4946" x2="16" y2="19.4946"
            gradientUnits="userSpaceOnUse">
            <stop stop-color="#EAE1EF" />
            <stop offset="1" stop-color="#E7DBEE" />
        </linearGradient>
        <linearGradient id="paint25_linear_18_13450" x1="13.563" y1="14.309" x2="16" y2="14.309"
            gradientUnits="userSpaceOnUse">
            <stop stop-color="#9C90A3" />
            <stop offset="1" stop-color="#807586" stop-opacity="0" />
        </linearGradient>
        <linearGradient id="paint26_linear_18_13450" x1="16.28" y1="19.9498" x2="16.28" y2="18.2664"
            gradientUnits="userSpaceOnUse">
            <stop stop-color="#807586" />
            <stop offset="1" stop-color="#807586" stop-opacity="0" />
        </linearGradient>
        <linearGradient id="paint27_linear_18_13450" x1="15.3125" y1="9.1507" x2="17" y2="8.0257"
            gradientUnits="userSpaceOnUse">
            <stop stop-color="#B1236A" />
            <stop offset="1" stop-color="#FC6572" />
        </linearGradient>
        <radialGradient id="paint28_radial_18_13450" cx="0" cy="0" r="1"
            gradientUnits="userSpaceOnUse" gradientTransform="translate(16 8.49463) rotate(90)">
            <stop offset="0.747437" stop-color="#E93A76" />
            <stop offset="0.860718" stop-color="#E93A76" stop-opacity="0" />
        </radialGradient>
        <linearGradient id="paint29_linear_18_13450" x1="15.1959" y1="22.0678" x2="16.7995"
            y2="23.3256" gradientUnits="userSpaceOnUse">
            <stop stop-color="#48424C" />
            <stop offset="1" stop-color="#8B898D" />
        </linearGradient>
        <radialGradient id="paint30_radial_18_13450" cx="0" cy="0" r="1"
            gradientUnits="userSpaceOnUse" gradientTransform="translate(16 22.4946) rotate(90)">
            <stop offset="0.747437" stop-color="#6C656F" />
            <stop offset="0.860718" stop-color="#6C656F" stop-opacity="0" />
        </radialGradient>
        <linearGradient id="paint31_linear_18_13450" x1="20.1458" y1="10.1278" x2="21.7495"
            y2="11.3856" gradientUnits="userSpaceOnUse">
            <stop stop-color="#48424C" />
            <stop offset="1" stop-color="#8B898D" />
        </linearGradient>
        <radialGradient id="paint32_radial_18_13450" cx="0" cy="0" r="1"
            gradientUnits="userSpaceOnUse" gradientTransform="translate(20.95 10.5547) rotate(90)">
            <stop offset="0.747437" stop-color="#6C656F" />
            <stop offset="0.860718" stop-color="#6C656F" stop-opacity="0" />
        </radialGradient>
        <linearGradient id="paint33_linear_18_13450" x1="10.2459" y1="20.0179" x2="11.8496"
            y2="21.2758" gradientUnits="userSpaceOnUse">
            <stop stop-color="#48424C" />
            <stop offset="1" stop-color="#8B898D" />
        </linearGradient>
        <radialGradient id="paint34_radial_18_13450" cx="0" cy="0" r="1"
            gradientUnits="userSpaceOnUse" gradientTransform="translate(11.05 20.4448) rotate(90)">
            <stop offset="0.747437" stop-color="#6C656F" />
            <stop offset="0.860718" stop-color="#6C656F" stop-opacity="0" />
        </radialGradient>
        <linearGradient id="paint35_linear_18_13450" x1="22.0846" y1="15.464" x2="24.0781"
            y2="15.8877" gradientUnits="userSpaceOnUse">
            <stop stop-color="#48424C" />
            <stop offset="1" stop-color="#8B898D" />
        </linearGradient>
        <radialGradient id="paint36_radial_18_13450" cx="0" cy="0" r="1"
            gradientUnits="userSpaceOnUse"
            gradientTransform="translate(22.9945 15.4934) rotate(63.8885)">
            <stop offset="0.747437" stop-color="#6C656F" />
            <stop offset="0.860718" stop-color="#6C656F" stop-opacity="0" />
        </radialGradient>
        <linearGradient id="paint37_linear_18_13450" x1="8.0851" y1="15.464" x2="10.0786"
            y2="15.8877" gradientUnits="userSpaceOnUse">
            <stop stop-color="#48424C" />
            <stop offset="1" stop-color="#8B898D" />
        </linearGradient>
        <radialGradient id="paint38_radial_18_13450" cx="0" cy="0" r="1"
            gradientUnits="userSpaceOnUse"
            gradientTransform="translate(8.99498 15.4934) rotate(63.8885)">
            <stop offset="0.747437" stop-color="#6C656F" />
            <stop offset="0.860718" stop-color="#6C656F" stop-opacity="0" />
        </radialGradient>
        <linearGradient id="paint39_linear_18_13450" x1="20.2756" y1="21.0693" x2="21.9847"
            y2="19.9592" gradientUnits="userSpaceOnUse">
            <stop stop-color="#48424C" />
            <stop offset="1" stop-color="#8B898D" />
        </linearGradient>
        <radialGradient id="paint40_radial_18_13450" cx="0" cy="0" r="1"
            gradientUnits="userSpaceOnUse"
            gradientTransform="translate(20.9397 20.4467) rotate(18.8879)">
            <stop offset="0.747437" stop-color="#6C656F" />
            <stop offset="0.860718" stop-color="#6C656F" stop-opacity="0" />
        </radialGradient>
        <linearGradient id="paint41_linear_18_13450" x1="10.3859" y1="11.1733" x2="12.095"
            y2="10.0632" gradientUnits="userSpaceOnUse">
            <stop stop-color="#48424C" />
            <stop offset="1" stop-color="#8B898D" />
        </linearGradient>
        <radialGradient id="paint42_radial_18_13450" cx="0" cy="0" r="1"
            gradientUnits="userSpaceOnUse"
            gradientTransform="translate(11.0501 10.5507) rotate(18.8879)">
            <stop offset="0.747437" stop-color="#6C656F" />
            <stop offset="0.860718" stop-color="#6C656F" stop-opacity="0" />
        </radialGradient>
    </defs>
</svg>