<svg width="32" height="32" viewBox="0 0 32 32" fill="none" xmlns="http://www.w3.org/2000/svg">
    <path fill-rule="evenodd" clip-rule="evenodd"
        d="M18.0703 8.50781C18.0703 5.00087 20.8707 2.11719 24.375 2.11719C27.8793 2.11719 30.6797 5.00087 30.6797 8.50781V9.59369C30.6797 10.3531 30.0641 10.9687 29.3047 10.9687C28.5453 10.9687 27.9297 10.3531 27.9297 9.59369V8.50781C27.9297 6.47465 26.3159 4.86719 24.375 4.86719C22.4341 4.86719 20.8203 6.47465 20.8203 8.50781V14.0703C20.8203 14.8297 20.2047 15.4453 19.4453 15.4453C18.6859 15.4453 18.0703 14.8297 18.0703 14.0703V8.50781Z"
        fill="#C2C2C6" />
    <path fill-rule="evenodd" clip-rule="evenodd"
        d="M18.0703 8.50781C18.0703 5.00087 20.8707 2.11719 24.375 2.11719C27.8793 2.11719 30.6797 5.00087 30.6797 8.50781V9.59369C30.6797 10.3531 30.0641 10.9687 29.3047 10.9687C28.5453 10.9687 27.9297 10.3531 27.9297 9.59369V8.50781C27.9297 6.47465 26.3159 4.86719 24.375 4.86719C22.4341 4.86719 20.8203 6.47465 20.8203 8.50781V14.0703C20.8203 14.8297 20.2047 15.4453 19.4453 15.4453C18.6859 15.4453 18.0703 14.8297 18.0703 14.0703V8.50781Z"
        fill="url(#paint0_radial_18_23558)" />
    <path fill-rule="evenodd" clip-rule="evenodd"
        d="M18.0703 8.50781C18.0703 5.00087 20.8707 2.11719 24.375 2.11719C27.8793 2.11719 30.6797 5.00087 30.6797 8.50781V9.59369C30.6797 10.3531 30.0641 10.9687 29.3047 10.9687C28.5453 10.9687 27.9297 10.3531 27.9297 9.59369V8.50781C27.9297 6.47465 26.3159 4.86719 24.375 4.86719C22.4341 4.86719 20.8203 6.47465 20.8203 8.50781V14.0703C20.8203 14.8297 20.2047 15.4453 19.4453 15.4453C18.6859 15.4453 18.0703 14.8297 18.0703 14.0703V8.50781Z"
        fill="url(#paint1_radial_18_23558)" />
    <path fill-rule="evenodd" clip-rule="evenodd"
        d="M18.0703 8.50781C18.0703 5.00087 20.8707 2.11719 24.375 2.11719C27.8793 2.11719 30.6797 5.00087 30.6797 8.50781V9.59369C30.6797 10.3531 30.0641 10.9687 29.3047 10.9687C28.5453 10.9687 27.9297 10.3531 27.9297 9.59369V8.50781C27.9297 6.47465 26.3159 4.86719 24.375 4.86719C22.4341 4.86719 20.8203 6.47465 20.8203 8.50781V14.0703C20.8203 14.8297 20.2047 15.4453 19.4453 15.4453C18.6859 15.4453 18.0703 14.8297 18.0703 14.0703V8.50781Z"
        fill="url(#paint2_radial_18_23558)" fill-opacity="0.66" />
    <path fill-rule="evenodd" clip-rule="evenodd"
        d="M18.0703 8.50781C18.0703 5.00087 20.8707 2.11719 24.375 2.11719C27.8793 2.11719 30.6797 5.00087 30.6797 8.50781V9.59369C30.6797 10.3531 30.0641 10.9687 29.3047 10.9687C28.5453 10.9687 27.9297 10.3531 27.9297 9.59369V8.50781C27.9297 6.47465 26.3159 4.86719 24.375 4.86719C22.4341 4.86719 20.8203 6.47465 20.8203 8.50781V14.0703C20.8203 14.8297 20.2047 15.4453 19.4453 15.4453C18.6859 15.4453 18.0703 14.8297 18.0703 14.0703V8.50781Z"
        fill="url(#paint3_radial_18_23558)" />
    <path fill-rule="evenodd" clip-rule="evenodd"
        d="M18.0703 8.50781C18.0703 5.00087 20.8707 2.11719 24.375 2.11719C27.8793 2.11719 30.6797 5.00087 30.6797 8.50781V9.59369C30.6797 10.3531 30.0641 10.9687 29.3047 10.9687C28.5453 10.9687 27.9297 10.3531 27.9297 9.59369V8.50781C27.9297 6.47465 26.3159 4.86719 24.375 4.86719C22.4341 4.86719 20.8203 6.47465 20.8203 8.50781V14.0703C20.8203 14.8297 20.2047 15.4453 19.4453 15.4453C18.6859 15.4453 18.0703 14.8297 18.0703 14.0703V8.50781Z"
        fill="url(#paint4_linear_18_23558)" />
    <path fill-rule="evenodd" clip-rule="evenodd"
        d="M18.0703 8.50781C18.0703 5.00087 20.8707 2.11719 24.375 2.11719C27.8793 2.11719 30.6797 5.00087 30.6797 8.50781V9.59369C30.6797 10.3531 30.0641 10.9687 29.3047 10.9687C28.5453 10.9687 27.9297 10.3531 27.9297 9.59369V8.50781C27.9297 6.47465 26.3159 4.86719 24.375 4.86719C22.4341 4.86719 20.8203 6.47465 20.8203 8.50781V14.0703C20.8203 14.8297 20.2047 15.4453 19.4453 15.4453C18.6859 15.4453 18.0703 14.8297 18.0703 14.0703V8.50781Z"
        fill="url(#paint5_linear_18_23558)" />
    <path fill-rule="evenodd" clip-rule="evenodd"
        d="M18.0703 8.50781C18.0703 5.00087 20.8707 2.11719 24.375 2.11719C27.8793 2.11719 30.6797 5.00087 30.6797 8.50781V9.59369C30.6797 10.3531 30.0641 10.9687 29.3047 10.9687C28.5453 10.9687 27.9297 10.3531 27.9297 9.59369V8.50781C27.9297 6.47465 26.3159 4.86719 24.375 4.86719C22.4341 4.86719 20.8203 6.47465 20.8203 8.50781V14.0703C20.8203 14.8297 20.2047 15.4453 19.4453 15.4453C18.6859 15.4453 18.0703 14.8297 18.0703 14.0703V8.50781Z"
        fill="url(#paint6_linear_18_23558)" />
    <path fill-rule="evenodd" clip-rule="evenodd"
        d="M18.0703 8.50781C18.0703 5.00087 20.8707 2.11719 24.375 2.11719C27.8793 2.11719 30.6797 5.00087 30.6797 8.50781V9.59369C30.6797 10.3531 30.0641 10.9687 29.3047 10.9687C28.5453 10.9687 27.9297 10.3531 27.9297 9.59369V8.50781C27.9297 6.47465 26.3159 4.86719 24.375 4.86719C22.4341 4.86719 20.8203 6.47465 20.8203 8.50781V14.0703C20.8203 14.8297 20.2047 15.4453 19.4453 15.4453C18.6859 15.4453 18.0703 14.8297 18.0703 14.0703V8.50781Z"
        fill="url(#paint7_linear_18_23558)" />
    <path fill-rule="evenodd" clip-rule="evenodd"
        d="M18.0703 8.50781C18.0703 5.00087 20.8707 2.11719 24.375 2.11719C27.8793 2.11719 30.6797 5.00087 30.6797 8.50781V9.59369C30.6797 10.3531 30.0641 10.9687 29.3047 10.9687C28.5453 10.9687 27.9297 10.3531 27.9297 9.59369V8.50781C27.9297 6.47465 26.3159 4.86719 24.375 4.86719C22.4341 4.86719 20.8203 6.47465 20.8203 8.50781V14.0703C20.8203 14.8297 20.2047 15.4453 19.4453 15.4453C18.6859 15.4453 18.0703 14.8297 18.0703 14.0703V8.50781Z"
        fill="url(#paint8_linear_18_23558)" />
    <path fill-rule="evenodd" clip-rule="evenodd"
        d="M18.0703 8.50781C18.0703 5.00087 20.8707 2.11719 24.375 2.11719C27.8793 2.11719 30.6797 5.00087 30.6797 8.50781V9.59369C30.6797 10.3531 30.0641 10.9687 29.3047 10.9687C28.5453 10.9687 27.9297 10.3531 27.9297 9.59369V8.50781C27.9297 6.47465 26.3159 4.86719 24.375 4.86719C22.4341 4.86719 20.8203 6.47465 20.8203 8.50781V14.0703C20.8203 14.8297 20.2047 15.4453 19.4453 15.4453C18.6859 15.4453 18.0703 14.8297 18.0703 14.0703V8.50781Z"
        fill="url(#paint9_linear_18_23558)" />
    <path fill-rule="evenodd" clip-rule="evenodd"
        d="M18.0703 8.50781C18.0703 5.00087 20.8707 2.11719 24.375 2.11719C27.8793 2.11719 30.6797 5.00087 30.6797 8.50781V9.59369C30.6797 10.3531 30.0641 10.9687 29.3047 10.9687C28.5453 10.9687 27.9297 10.3531 27.9297 9.59369V8.50781C27.9297 6.47465 26.3159 4.86719 24.375 4.86719C22.4341 4.86719 20.8203 6.47465 20.8203 8.50781V14.0703C20.8203 14.8297 20.2047 15.4453 19.4453 15.4453C18.6859 15.4453 18.0703 14.8297 18.0703 14.0703V8.50781Z"
        fill="url(#paint10_linear_18_23558)" />
    <path fill-rule="evenodd" clip-rule="evenodd"
        d="M18.0703 8.50781C18.0703 5.00087 20.8707 2.11719 24.375 2.11719C27.8793 2.11719 30.6797 5.00087 30.6797 8.50781V9.59369C30.6797 10.3531 30.0641 10.9687 29.3047 10.9687C28.5453 10.9687 27.9297 10.3531 27.9297 9.59369V8.50781C27.9297 6.47465 26.3159 4.86719 24.375 4.86719C22.4341 4.86719 20.8203 6.47465 20.8203 8.50781V14.0703C20.8203 14.8297 20.2047 15.4453 19.4453 15.4453C18.6859 15.4453 18.0703 14.8297 18.0703 14.0703V8.50781Z"
        fill="url(#paint11_linear_18_23558)" />
    <path fill-rule="evenodd" clip-rule="evenodd"
        d="M18.0703 8.50781C18.0703 5.00087 20.8707 2.11719 24.375 2.11719C27.8793 2.11719 30.6797 5.00087 30.6797 8.50781V9.59369C30.6797 10.3531 30.0641 10.9687 29.3047 10.9687C28.5453 10.9687 27.9297 10.3531 27.9297 9.59369V8.50781C27.9297 6.47465 26.3159 4.86719 24.375 4.86719C22.4341 4.86719 20.8203 6.47465 20.8203 8.50781V14.0703C20.8203 14.8297 20.2047 15.4453 19.4453 15.4453C18.6859 15.4453 18.0703 14.8297 18.0703 14.0703V8.50781Z"
        fill="url(#paint12_linear_18_23558)" />
    <path fill-rule="evenodd" clip-rule="evenodd"
        d="M18.0703 8.50781C18.0703 5.00087 20.8707 2.11719 24.375 2.11719C27.8793 2.11719 30.6797 5.00087 30.6797 8.50781V9.59369C30.6797 10.3531 30.0641 10.9687 29.3047 10.9687C28.5453 10.9687 27.9297 10.3531 27.9297 9.59369V8.50781C27.9297 6.47465 26.3159 4.86719 24.375 4.86719C22.4341 4.86719 20.8203 6.47465 20.8203 8.50781V14.0703C20.8203 14.8297 20.2047 15.4453 19.4453 15.4453C18.6859 15.4453 18.0703 14.8297 18.0703 14.0703V8.50781Z"
        fill="url(#paint13_linear_18_23558)" />
    <rect x="2.42383" y="11.125" width="21.9375" height="18.8438" rx="3"
        fill="url(#paint14_linear_18_23558)" />
    <rect x="2.42383" y="11.125" width="21.9375" height="18.8438" rx="3"
        fill="url(#paint15_radial_18_23558)" />
    <rect x="2.42383" y="11.125" width="21.9375" height="18.8438" rx="3"
        fill="url(#paint16_linear_18_23558)" />
    <rect x="2.42383" y="11.125" width="21.9375" height="18.8438" rx="3"
        fill="url(#paint17_linear_18_23558)" />
    <rect x="2.42383" y="11.125" width="21.9375" height="18.8438" rx="3"
        fill="url(#paint18_linear_18_23558)" />
    <rect x="2.42383" y="11.125" width="21.9375" height="18.8438" rx="3"
        fill="url(#paint19_linear_18_23558)" />
    <rect x="2.42383" y="11.125" width="21.9375" height="18.8438" rx="3"
        fill="url(#paint20_linear_18_23558)" />
    <rect x="2.42383" y="11.125" width="21.9375" height="18.8438" rx="3"
        fill="url(#paint21_linear_18_23558)" />
    <rect x="2.42383" y="11.125" width="21.9375" height="18.8438" rx="3"
        fill="url(#paint22_linear_18_23558)" />
    <rect x="2.42383" y="11.125" width="21.9375" height="18.8438" rx="3"
        fill="url(#paint23_radial_18_23558)" />
    <rect x="2.42383" y="11.125" width="21.9375" height="18.8438" rx="3"
        fill="url(#paint24_linear_18_23558)" />
    <rect x="2.42383" y="11.125" width="21.9375" height="18.8438" rx="3"
        fill="url(#paint25_linear_18_23558)" />
    <rect x="2.42383" y="11.125" width="21.9375" height="18.8438" rx="3"
        fill="url(#paint26_linear_18_23558)" />
    <rect x="2.42383" y="11.125" width="21.9375" height="18.8438" rx="3"
        fill="url(#paint27_linear_18_23558)" />
    <rect x="2.42383" y="11.125" width="21.9375" height="18.8438" rx="3"
        fill="url(#paint28_linear_18_23558)" />
    <rect x="2.42383" y="11.125" width="21.9375" height="18.8438" rx="3"
        fill="url(#paint29_linear_18_23558)" />
    <rect x="2.42383" y="11.125" width="21.9375" height="18.8438" rx="3"
        fill="url(#paint30_linear_18_23558)" />
    <path fill-rule="evenodd" clip-rule="evenodd"
        d="M13.3789 17.6621C13.0434 17.6621 12.7715 17.9341 12.7715 18.2695C12.7715 18.4843 12.8815 18.6748 13.0578 18.7856L13.3834 18.99L13.7064 18.7815C13.8791 18.67 13.9863 18.4817 13.9863 18.2695C13.9863 17.9341 13.7144 17.6621 13.3789 17.6621ZM8.77148 18.2695C8.77148 15.7249 10.8343 13.6621 13.3789 13.6621C15.9236 13.6621 17.9863 15.7249 17.9863 18.2695C17.9863 19.4624 17.5321 20.5486 16.791 21.3653V23.7735C16.791 25.6504 15.2695 27.1719 13.3926 27.1719C11.5157 27.1719 9.99414 25.6504 9.99414 23.7735V21.3952C9.23679 20.5751 8.77148 19.4771 8.77148 18.2695Z"
        fill="url(#paint31_radial_18_23558)" />
    <path fill-rule="evenodd" clip-rule="evenodd"
        d="M13.3789 17.6621C13.0434 17.6621 12.7715 17.9341 12.7715 18.2695C12.7715 18.4843 12.8815 18.6748 13.0578 18.7856L13.3834 18.99L13.7064 18.7815C13.8791 18.67 13.9863 18.4817 13.9863 18.2695C13.9863 17.9341 13.7144 17.6621 13.3789 17.6621ZM8.77148 18.2695C8.77148 15.7249 10.8343 13.6621 13.3789 13.6621C15.9236 13.6621 17.9863 15.7249 17.9863 18.2695C17.9863 19.4624 17.5321 20.5486 16.791 21.3653V23.7735C16.791 25.6504 15.2695 27.1719 13.3926 27.1719C11.5157 27.1719 9.99414 25.6504 9.99414 23.7735V21.3952C9.23679 20.5751 8.77148 19.4771 8.77148 18.2695Z"
        fill="url(#paint32_radial_18_23558)" />
    <path fill-rule="evenodd" clip-rule="evenodd"
        d="M13.3789 17.6621C13.0434 17.6621 12.7715 17.9341 12.7715 18.2695C12.7715 18.4843 12.8815 18.6748 13.0578 18.7856L13.3834 18.99L13.7064 18.7815C13.8791 18.67 13.9863 18.4817 13.9863 18.2695C13.9863 17.9341 13.7144 17.6621 13.3789 17.6621ZM8.77148 18.2695C8.77148 15.7249 10.8343 13.6621 13.3789 13.6621C15.9236 13.6621 17.9863 15.7249 17.9863 18.2695C17.9863 19.4624 17.5321 20.5486 16.791 21.3653V23.7735C16.791 25.6504 15.2695 27.1719 13.3926 27.1719C11.5157 27.1719 9.99414 25.6504 9.99414 23.7735V21.3952C9.23679 20.5751 8.77148 19.4771 8.77148 18.2695Z"
        fill="url(#paint33_radial_18_23558)" />
    <path fill-rule="evenodd" clip-rule="evenodd"
        d="M13.3789 17.6621C13.0434 17.6621 12.7715 17.9341 12.7715 18.2695C12.7715 18.4843 12.8815 18.6748 13.0578 18.7856L13.3834 18.99L13.7064 18.7815C13.8791 18.67 13.9863 18.4817 13.9863 18.2695C13.9863 17.9341 13.7144 17.6621 13.3789 17.6621ZM8.77148 18.2695C8.77148 15.7249 10.8343 13.6621 13.3789 13.6621C15.9236 13.6621 17.9863 15.7249 17.9863 18.2695C17.9863 19.4624 17.5321 20.5486 16.791 21.3653V23.7735C16.791 25.6504 15.2695 27.1719 13.3926 27.1719C11.5157 27.1719 9.99414 25.6504 9.99414 23.7735V21.3952C9.23679 20.5751 8.77148 19.4771 8.77148 18.2695Z"
        fill="url(#paint34_radial_18_23558)" />
    <path
        d="M14.791 20.4619C15.5102 19.9977 15.9863 19.1892 15.9863 18.2695C15.9863 16.8295 14.819 15.6621 13.3789 15.6621C11.9388 15.6621 10.7715 16.8295 10.7715 18.2695C10.7715 19.2008 11.2597 20.018 11.9941 20.4793V23.7735C11.9941 24.5458 12.6202 25.1719 13.3926 25.1719C14.1649 25.1719 14.791 24.5458 14.791 23.7735V20.4619Z"
        fill="url(#paint35_radial_18_23558)" />
    <defs>
        <radialGradient id="paint0_radial_18_23558" cx="0" cy="0" r="1"
            gradientUnits="userSpaceOnUse"
            gradientTransform="translate(24.5312 8.15619) rotate(-91.6531) scale(5.41626 5.81234)">
            <stop offset="0.556487" stop-color="#AB83C0" />
            <stop offset="1" stop-color="#CBBBDC" stop-opacity="0" />
        </radialGradient>
        <radialGradient id="paint1_radial_18_23558" cx="0" cy="0" r="1"
            gradientUnits="userSpaceOnUse"
            gradientTransform="translate(29.3047 11.4062) rotate(-90) scale(2.21875 8.81238)">
            <stop offset="0.110772" stop-color="#B57FD6" />
            <stop offset="1" stop-color="#B57FD6" stop-opacity="0" />
        </radialGradient>
        <radialGradient id="paint2_radial_18_23558" cx="0" cy="0" r="1"
            gradientUnits="userSpaceOnUse"
            gradientTransform="translate(29.5779 4.86498) rotate(136.619) scale(5.03422 6.9169)">
            <stop offset="0.215771" stop-color="#EDECF3" />
            <stop offset="1" stop-color="#EDECF3" stop-opacity="0" />
        </radialGradient>
        <radialGradient id="paint3_radial_18_23558" cx="0" cy="0" r="1"
            gradientUnits="userSpaceOnUse"
            gradientTransform="translate(18.3053 17.0938) rotate(-80.1038) scale(9.41782 6.79597)">
            <stop stop-color="#EDECF3" />
            <stop offset="1" stop-color="#EDECF3" stop-opacity="0" />
        </radialGradient>
        <linearGradient id="paint4_linear_18_23558" x1="31.6546" y1="8.20473" x2="30.5371"
            y2="8.44172" gradientUnits="userSpaceOnUse">
            <stop stop-color="#8E8E93" />
            <stop offset="1" stop-color="#8F8E93" stop-opacity="0" />
        </linearGradient>
        <linearGradient id="paint5_linear_18_23558" x1="31.7309" y1="9.0975" x2="30.3853"
            y2="8.99301" gradientUnits="userSpaceOnUse">
            <stop stop-color="#8E8E93" />
            <stop offset="1" stop-color="#8F8E93" stop-opacity="0" />
        </linearGradient>
        <linearGradient id="paint6_linear_18_23558" x1="24.375" y1="1.9392" x2="24.375" y2="3.51196"
            gradientUnits="userSpaceOnUse">
            <stop stop-color="#C2C2C6" />
            <stop offset="1" stop-color="#C2C2C6" stop-opacity="0" />
        </linearGradient>
        <linearGradient id="paint7_linear_18_23558" x1="17.6033" y1="7.90575" x2="20.1199"
            y2="7.90575" gradientUnits="userSpaceOnUse">
            <stop stop-color="#C2C2C6" />
            <stop offset="1" stop-color="#C2C2C6" stop-opacity="0" />
        </linearGradient>
        <linearGradient id="paint8_linear_18_23558" x1="24.375" y1="-0.936797" x2="24.375"
            y2="2.86607" gradientUnits="userSpaceOnUse">
            <stop offset="0.640625" stop-color="#8E8E93" />
            <stop offset="1" stop-color="#8F8E93" stop-opacity="0" />
        </linearGradient>
        <linearGradient id="paint9_linear_18_23558" x1="17.0925" y1="1.32031" x2="21.5503"
            y2="4.46018" gradientUnits="userSpaceOnUse">
            <stop offset="0.640625" stop-color="#8E8E93" />
            <stop offset="1" stop-color="#8F8E93" stop-opacity="0" />
        </linearGradient>
        <linearGradient id="paint10_linear_18_23558" x1="16.2927" y1="8.78125" x2="19.1279"
            y2="8.78125" gradientUnits="userSpaceOnUse">
            <stop offset="0.583333" stop-color="#8E8E93" />
            <stop offset="1" stop-color="#8F8E93" stop-opacity="0" />
        </linearGradient>
        <linearGradient id="paint11_linear_18_23558" x1="22.3897" y1="1.48754" x2="22.9997"
            y2="3.51188" gradientUnits="userSpaceOnUse">
            <stop stop-color="#8E8E93" />
            <stop offset="1" stop-color="#8F8E93" stop-opacity="0" />
        </linearGradient>
        <linearGradient id="paint12_linear_18_23558" x1="29.2852" y1="3.51196" x2="28.9455"
            y2="4.10648" gradientUnits="userSpaceOnUse">
            <stop stop-color="#8E8E93" />
            <stop offset="1" stop-color="#8F8E93" stop-opacity="0" />
        </linearGradient>
        <linearGradient id="paint13_linear_18_23558" x1="30.7403" y1="5.08876" x2="29.792"
            y2="5.79982" gradientUnits="userSpaceOnUse">
            <stop stop-color="#8E8E93" />
            <stop offset="1" stop-color="#8F8E93" stop-opacity="0" />
        </linearGradient>
        <linearGradient id="paint14_linear_18_23558" x1="7.54883" y1="14.1875" x2="14.4863"
            y2="29.9688" gradientUnits="userSpaceOnUse">
            <stop stop-color="#FFC74E" />
            <stop offset="1" stop-color="#F7864E" />
        </linearGradient>
        <radialGradient id="paint15_radial_18_23558" cx="0" cy="0" r="1"
            gradientUnits="userSpaceOnUse"
            gradientTransform="translate(23.7988 29.9687) rotate(-132.274) scale(3.25195 7.57598)">
            <stop stop-color="#FF8650" />
            <stop offset="1" stop-color="#FF8650" stop-opacity="0" />
        </radialGradient>
        <linearGradient id="paint16_linear_18_23558" x1="13.3926" y1="10.8125" x2="13.3926"
            y2="12.3125" gradientUnits="userSpaceOnUse">
            <stop stop-color="#F3D04E" />
            <stop offset="1" stop-color="#F3D04E" stop-opacity="0" />
        </linearGradient>
        <linearGradient id="paint17_linear_18_23558" x1="13.3926" y1="11.125" x2="13.3926"
            y2="12.0207" gradientUnits="userSpaceOnUse">
            <stop stop-color="#FFD744" />
            <stop offset="1" stop-color="#FFD744" stop-opacity="0" />
        </linearGradient>
        <linearGradient id="paint18_linear_18_23558" x1="3.80928" y1="11.125" x2="5.14034"
            y2="12.5542" gradientUnits="userSpaceOnUse">
            <stop stop-color="#FFD744" />
            <stop offset="1" stop-color="#FFD744" stop-opacity="0" />
        </linearGradient>
        <linearGradient id="paint19_linear_18_23558" x1="23.7554" y1="11.125" x2="22.7001"
            y2="12.4475" gradientUnits="userSpaceOnUse">
            <stop stop-color="#FFD744" />
            <stop offset="1" stop-color="#FFD744" stop-opacity="0" />
        </linearGradient>
        <linearGradient id="paint20_linear_18_23558" x1="2.42383" y1="20.0011" x2="3.88792"
            y2="20.0011" gradientUnits="userSpaceOnUse">
            <stop stop-color="#BA7A35" />
            <stop offset="1" stop-color="#BA7A35" stop-opacity="0" />
        </linearGradient>
        <linearGradient id="paint21_linear_18_23558" x1="2.94272" y1="11.125" x2="4.45504"
            y2="12.1559" gradientUnits="userSpaceOnUse">
            <stop stop-color="#BA7A35" />
            <stop offset="1" stop-color="#BA7A35" stop-opacity="0" />
        </linearGradient>
        <linearGradient id="paint22_linear_18_23558" x1="2.42383" y1="29.264" x2="3.74061"
            y2="27.7426" gradientUnits="userSpaceOnUse">
            <stop stop-color="#BA7A35" />
            <stop offset="1" stop-color="#BA7A35" stop-opacity="0" />
        </linearGradient>
        <radialGradient id="paint23_radial_18_23558" cx="0" cy="0" r="1"
            gradientUnits="userSpaceOnUse"
            gradientTransform="translate(24.0488 11.125) rotate(126.254) scale(2.32513 5.25171)">
            <stop stop-color="#FFF760" />
            <stop offset="1" stop-color="#FFF760" stop-opacity="0" />
        </radialGradient>
        <linearGradient id="paint24_linear_18_23558" x1="13.3926" y1="30.3415" x2="13.3926"
            y2="28.5457" gradientUnits="userSpaceOnUse">
            <stop stop-color="#E55D6C" />
            <stop offset="1" stop-color="#E55D6C" stop-opacity="0" />
        </linearGradient>
        <linearGradient id="paint25_linear_18_23558" x1="2.42383" y1="29.9688" x2="4.42602"
            y2="28.4186" gradientUnits="userSpaceOnUse">
            <stop offset="0.260417" stop-color="#E55E5D" />
            <stop offset="1" stop-color="#E55D6C" stop-opacity="0" />
        </linearGradient>
        <linearGradient id="paint26_linear_18_23558" x1="1.83614" y1="20.2299" x2="3.20004"
            y2="20.2299" gradientUnits="userSpaceOnUse">
            <stop stop-color="#E55E5D" />
            <stop offset="1" stop-color="#E55D6C" stop-opacity="0" />
        </linearGradient>
        <linearGradient id="paint27_linear_18_23558" x1="25.7089" y1="20.2299" x2="23.6229"
            y2="20.2299" gradientUnits="userSpaceOnUse">
            <stop stop-color="#E55D72" />
            <stop offset="1" stop-color="#E55D6C" stop-opacity="0" />
        </linearGradient>
        <linearGradient id="paint28_linear_18_23558" x1="24.5346" y1="20.5469" x2="22.8205"
            y2="20.5469" gradientUnits="userSpaceOnUse">
            <stop offset="0.291667" stop-color="#FFC55D" />
            <stop offset="1" stop-color="#FFC55D" stop-opacity="0" />
        </linearGradient>
        <linearGradient id="paint29_linear_18_23558" x1="24.3613" y1="29.4192" x2="23.0248"
            y2="28.1701" gradientUnits="userSpaceOnUse">
            <stop stop-color="#FFB95D" />
            <stop offset="1" stop-color="#FFC55D" stop-opacity="0" />
        </linearGradient>
        <linearGradient id="paint30_linear_18_23558" x1="23.9547" y1="12.2317" x2="22.8765"
            y2="12.936" gradientUnits="userSpaceOnUse">
            <stop stop-color="#FFB95D" />
            <stop offset="1" stop-color="#FFC55D" stop-opacity="0" />
        </linearGradient>
        <radialGradient id="paint31_radial_18_23558" cx="0" cy="0" r="1"
            gradientUnits="userSpaceOnUse"
            gradientTransform="translate(13.7067 18.3695) rotate(95.6522) scale(3.3278 3.09996)">
            <stop offset="0.765625" stop-color="#D98A40" />
            <stop offset="1" stop-color="#D98A40" stop-opacity="0" />
        </radialGradient>
        <radialGradient id="paint32_radial_18_23558" cx="0" cy="0" r="1"
            gradientUnits="userSpaceOnUse"
            gradientTransform="translate(14.0319 22.4248) rotate(-87.6141) scale(3.09125 1.61082)">
            <stop offset="0.765625" stop-color="#D98A40" />
            <stop offset="1" stop-color="#D98A40" stop-opacity="0" />
        </radialGradient>
        <radialGradient id="paint33_radial_18_23558" cx="0" cy="0" r="1"
            gradientUnits="userSpaceOnUse"
            gradientTransform="translate(12.4501 17.8583) rotate(43.1524) scale(2.84574)">
            <stop offset="0.677083" stop-color="#FFCD63" />
            <stop offset="1" stop-color="#FFCD63" stop-opacity="0" />
        </radialGradient>
        <radialGradient id="paint34_radial_18_23558" cx="0" cy="0" r="1"
            gradientUnits="userSpaceOnUse"
            gradientTransform="translate(12.6369 22.0889) rotate(-90.507) scale(3.58138 1.56807)">
            <stop stop-color="#FFCD63" />
            <stop offset="0.0260417" stop-color="#FFCD63" />
            <stop offset="1" stop-color="#FFCD63" stop-opacity="0" />
        </radialGradient>
        <radialGradient id="paint35_radial_18_23558" cx="0" cy="0" r="1"
            gradientUnits="userSpaceOnUse"
            gradientTransform="translate(10.7715 18.6875) rotate(34.0609) scale(5.69121 7.82719)">
            <stop offset="0.21669" stop-color="#564F80" />
            <stop offset="1" stop-color="#473154" />
        </radialGradient>
    </defs>
</svg>