<svg width="32" height="32" viewBox="0 0 32 32" fill="none" xmlns="http://www.w3.org/2000/svg">
    <path
        d="M17.8174 9.80603H5.23828V13.4735H7.74306L14.1984 14.3779C14.2422 14.384 14.2867 14.3843 14.3306 14.3788L21.4848 13.4735C21.4848 11.448 19.8429 9.80603 17.8174 9.80603Z"
        fill="url(#paint0_linear_18_20313)" />
    <path
        d="M17.8174 9.80603H5.23828V13.4735H7.74306L14.1984 14.3779C14.2422 14.384 14.2867 14.3843 14.3306 14.3788L21.4848 13.4735C21.4848 11.448 19.8429 9.80603 17.8174 9.80603Z"
        fill="url(#paint1_linear_18_20313)" />
    <path
        d="M17.8174 9.80603H5.23828V13.4735H7.74306L14.1984 14.3779C14.2422 14.384 14.2867 14.3843 14.3306 14.3788L21.4848 13.4735C21.4848 11.448 19.8429 9.80603 17.8174 9.80603Z"
        fill="url(#paint2_radial_18_20313)" />
    <path fill-rule="evenodd" clip-rule="evenodd"
        d="M17.6586 11.0942H7.08398V10.0942H17.6586C18.6763 10.0942 19.5798 10.3799 20.232 10.9973C20.8886 11.6189 21.2271 12.5166 21.2271 13.6103H20.2271C20.2271 12.7257 19.9586 12.1154 19.5446 11.7235C19.1262 11.3275 18.4956 11.0942 17.6586 11.0942Z"
        fill="url(#paint3_radial_18_20313)" />
    <path fill-rule="evenodd" clip-rule="evenodd"
        d="M17.6586 11.0942H7.08398V10.0942H17.6586C18.6763 10.0942 19.5798 10.3799 20.232 10.9973C20.8886 11.6189 21.2271 12.5166 21.2271 13.6103H20.2271C20.2271 12.7257 19.9586 12.1154 19.5446 11.7235C19.1262 11.3275 18.4956 11.0942 17.6586 11.0942Z"
        fill="url(#paint4_radial_18_20313)" />
    <path fill-rule="evenodd" clip-rule="evenodd"
        d="M17.6586 11.0942H7.08398V10.0942H17.6586C18.6763 10.0942 19.5798 10.3799 20.232 10.9973C20.8886 11.6189 21.2271 12.5166 21.2271 13.6103H20.2271C20.2271 12.7257 19.9586 12.1154 19.5446 11.7235C19.1262 11.3275 18.4956 11.0942 17.6586 11.0942Z"
        fill="url(#paint5_radial_18_20313)" />
    <path fill-rule="evenodd" clip-rule="evenodd"
        d="M17.6586 11.0942H7.08398V10.0942H17.6586C18.6763 10.0942 19.5798 10.3799 20.232 10.9973C20.8886 11.6189 21.2271 12.5166 21.2271 13.6103H20.2271C20.2271 12.7257 19.9586 12.1154 19.5446 11.7235C19.1262 11.3275 18.4956 11.0942 17.6586 11.0942Z"
        fill="url(#paint6_radial_18_20313)" />
    <path fill-rule="evenodd" clip-rule="evenodd"
        d="M17.6586 11.0942H7.08398V10.0942H17.6586C18.6763 10.0942 19.5798 10.3799 20.232 10.9973C20.8886 11.6189 21.2271 12.5166 21.2271 13.6103H20.2271C20.2271 12.7257 19.9586 12.1154 19.5446 11.7235C19.1262 11.3275 18.4956 11.0942 17.6586 11.0942Z"
        fill="url(#paint7_radial_18_20313)" fill-opacity="0.5" />
    <path fill-rule="evenodd" clip-rule="evenodd"
        d="M17.6586 11.0942H7.08398V10.0942H17.6586C18.6763 10.0942 19.5798 10.3799 20.232 10.9973C20.8886 11.6189 21.2271 12.5166 21.2271 13.6103H20.2271C20.2271 12.7257 19.9586 12.1154 19.5446 11.7235C19.1262 11.3275 18.4956 11.0942 17.6586 11.0942Z"
        fill="url(#paint8_radial_18_20313)" fill-opacity="0.5" />
    <path fill-rule="evenodd" clip-rule="evenodd"
        d="M17.6586 11.0942H7.08398V10.0942H17.6586C18.6763 10.0942 19.5798 10.3799 20.232 10.9973C20.8886 11.6189 21.2271 12.5166 21.2271 13.6103H20.2271C20.2271 12.7257 19.9586 12.1154 19.5446 11.7235C19.1262 11.3275 18.4956 11.0942 17.6586 11.0942Z"
        fill="url(#paint9_radial_18_20313)" fill-opacity="0.5" />
    <path fill-rule="evenodd" clip-rule="evenodd"
        d="M17.6586 11.0942H7.08398V10.0942H17.6586C18.6763 10.0942 19.5798 10.3799 20.232 10.9973C20.8886 11.6189 21.2271 12.5166 21.2271 13.6103H20.2271C20.2271 12.7257 19.9586 12.1154 19.5446 11.7235C19.1262 11.3275 18.4956 11.0942 17.6586 11.0942Z"
        fill="url(#paint10_radial_18_20313)" />
    <path fill-rule="evenodd" clip-rule="evenodd"
        d="M17.6586 11.0942H7.08398V10.0942H17.6586C18.6763 10.0942 19.5798 10.3799 20.232 10.9973C20.8886 11.6189 21.2271 12.5166 21.2271 13.6103H20.2271C20.2271 12.7257 19.9586 12.1154 19.5446 11.7235C19.1262 11.3275 18.4956 11.0942 17.6586 11.0942Z"
        fill="url(#paint11_radial_18_20313)" fill-opacity="0.5" />
    <path
        d="M29.9119 14.2365C29.9119 13.9051 29.6433 13.6365 29.3119 13.6365H26.9535V21.1833H29.3119C29.6433 21.1833 29.9119 20.9147 29.9119 20.5833V14.2365Z"
        fill="#4C3F5B" />
    <path
        d="M29.9119 14.2365C29.9119 13.9051 29.6433 13.6365 29.3119 13.6365H26.9535V21.1833H29.3119C29.6433 21.1833 29.9119 20.9147 29.9119 20.5833V14.2365Z"
        fill="url(#paint12_linear_18_20313)" />
    <path
        d="M29.9119 14.2365C29.9119 13.9051 29.6433 13.6365 29.3119 13.6365H26.9535V21.1833H29.3119C29.6433 21.1833 29.9119 20.9147 29.9119 20.5833V14.2365Z"
        fill="url(#paint13_linear_18_20313)" />
    <path
        d="M29.9119 14.2365C29.9119 13.9051 29.6433 13.6365 29.3119 13.6365H26.9535V21.1833H29.3119C29.6433 21.1833 29.9119 20.9147 29.9119 20.5833V14.2365Z"
        fill="url(#paint14_radial_18_20313)" />
    <path
        d="M29.9119 14.2365C29.9119 13.9051 29.6433 13.6365 29.3119 13.6365H26.9535V21.1833H29.3119C29.6433 21.1833 29.9119 20.9147 29.9119 20.5833V14.2365Z"
        fill="url(#paint15_radial_18_20313)" />
    <path
        d="M27.7441 13.8735C27.7441 13.6526 27.565 13.4735 27.3441 13.4735H24.4951C24.219 13.4735 23.9951 13.6974 23.9951 13.9735V21.4441H27.3441C27.565 21.4441 27.7441 21.265 27.7441 21.0441V13.8735Z"
        fill="url(#paint16_linear_18_20313)" />
    <path
        d="M27.7441 13.8735C27.7441 13.6526 27.565 13.4735 27.3441 13.4735H24.4951C24.219 13.4735 23.9951 13.6974 23.9951 13.9735V21.4441H27.3441C27.565 21.4441 27.7441 21.265 27.7441 21.0441V13.8735Z"
        fill="url(#paint17_linear_18_20313)" />
    <path
        d="M4.22339 8.99915H5.67275C6.11458 8.99915 6.47275 9.35732 6.47275 9.79915V13.4803C6.47275 13.9221 6.11458 14.2803 5.67275 14.2803H4.22339V8.99915Z"
        fill="url(#paint18_linear_18_20313)" />
    <path
        d="M4.22339 8.99915H5.67275C6.11458 8.99915 6.47275 9.35732 6.47275 9.79915V13.4803C6.47275 13.9221 6.11458 14.2803 5.67275 14.2803H4.22339V8.99915Z"
        fill="url(#paint19_linear_18_20313)" />
    <path
        d="M4.22339 8.99915H5.67275C6.11458 8.99915 6.47275 9.35732 6.47275 9.79915V13.4803C6.47275 13.9221 6.11458 14.2803 5.67275 14.2803H4.22339V8.99915Z"
        fill="url(#paint20_radial_18_20313)" />
    <path
        d="M4.22339 8.99915H5.67275C6.11458 8.99915 6.47275 9.35732 6.47275 9.79915V13.4803C6.47275 13.9221 6.11458 14.2803 5.67275 14.2803H4.22339V8.99915Z"
        fill="url(#paint21_radial_18_20313)" />
    <path
        d="M2.08813 8.93398C2.08813 8.34433 2.56613 7.86633 3.15578 7.86633C3.74542 7.86633 4.22342 8.34433 4.22342 8.93398V14.3455C4.22342 14.9352 3.74542 15.4132 3.15578 15.4132C2.56613 15.4132 2.08813 14.9352 2.08813 14.3455V8.93398Z"
        fill="url(#paint22_linear_18_20313)" />
    <path
        d="M2.08813 8.93398C2.08813 8.34433 2.56613 7.86633 3.15578 7.86633C3.74542 7.86633 4.22342 8.34433 4.22342 8.93398V14.3455C4.22342 14.9352 3.74542 15.4132 3.15578 15.4132C2.56613 15.4132 2.08813 14.9352 2.08813 14.3455V8.93398Z"
        fill="url(#paint23_linear_18_20313)" />
    <path
        d="M2.08813 8.93398C2.08813 8.34433 2.56613 7.86633 3.15578 7.86633C3.74542 7.86633 4.22342 8.34433 4.22342 8.93398V14.3455C4.22342 14.9352 3.74542 15.4132 3.15578 15.4132C2.56613 15.4132 2.08813 14.9352 2.08813 14.3455V8.93398Z"
        fill="url(#paint24_radial_18_20313)" />
    <path
        d="M2.08813 8.93398C2.08813 8.34433 2.56613 7.86633 3.15578 7.86633C3.74542 7.86633 4.22342 8.34433 4.22342 8.93398V14.3455C4.22342 14.9352 3.74542 15.4132 3.15578 15.4132C2.56613 15.4132 2.08813 14.9352 2.08813 14.3455V8.93398Z"
        fill="url(#paint25_radial_18_20313)" />
    <path
        d="M7.08398 13.9735C7.08398 13.6974 7.30784 13.4735 7.58398 13.4735H25.4184C25.6946 13.4735 25.9184 13.6974 25.9184 13.9735V26.2188H7.08398V13.9735Z"
        fill="url(#paint26_radial_18_20313)" />
    <path
        d="M7.08398 13.9735C7.08398 13.6974 7.30784 13.4735 7.58398 13.4735H25.4184C25.6946 13.4735 25.9184 13.6974 25.9184 13.9735V26.2188H7.08398V13.9735Z"
        fill="url(#paint27_linear_18_20313)" />
    <path
        d="M7.08398 13.9735C7.08398 13.6974 7.30784 13.4735 7.58398 13.4735H25.4184C25.6946 13.4735 25.9184 13.6974 25.9184 13.9735V26.2188H7.08398V13.9735Z"
        fill="url(#paint28_linear_18_20313)" />
    <path
        d="M7.08398 13.9735C7.08398 13.6974 7.30784 13.4735 7.58398 13.4735H25.4184C25.6946 13.4735 25.9184 13.6974 25.9184 13.9735V26.2188H7.08398V13.9735Z"
        fill="url(#paint29_linear_18_20313)" />
    <path
        d="M7.08398 13.9735C7.08398 13.6974 7.30784 13.4735 7.58398 13.4735H25.4184C25.6946 13.4735 25.9184 13.6974 25.9184 13.9735V26.2188H7.08398V13.9735Z"
        fill="url(#paint30_linear_18_20313)" fill-opacity="0.31" />
    <path
        d="M20.8684 21.3269H22.2288C22.4497 21.3269 22.6288 21.1478 22.6288 20.9268V18.1572C22.6288 17.9363 22.4497 17.7572 22.2288 17.7572H20.8684V21.3269Z"
        fill="#A89FB2" />
    <path
        d="M9.0481 15.7839C9.0481 15.0523 9.60896 14.4592 10.3008 14.4592H20.0638C20.7557 14.4592 21.3166 15.0523 21.3166 15.7839V23.1928C21.3166 23.9244 20.7557 24.5175 20.0638 24.5175H10.3008C9.60896 24.5175 9.0481 23.9244 9.0481 23.1928V15.7839Z"
        fill="url(#paint31_radial_18_20313)" />
    <path
        d="M9.0481 15.7839C9.0481 15.0523 9.60896 14.4592 10.3008 14.4592H20.0638C20.7557 14.4592 21.3166 15.0523 21.3166 15.7839V23.1928C21.3166 23.9244 20.7557 24.5175 20.0638 24.5175H10.3008C9.60896 24.5175 9.0481 23.9244 9.0481 23.1928V15.7839Z"
        fill="url(#paint32_radial_18_20313)" />
    <path
        d="M9.0481 15.7839C9.0481 15.0523 9.60896 14.4592 10.3008 14.4592H20.0638C20.7557 14.4592 21.3166 15.0523 21.3166 15.7839V23.1928C21.3166 23.9244 20.7557 24.5175 20.0638 24.5175H10.3008C9.60896 24.5175 9.0481 23.9244 9.0481 23.1928V15.7839Z"
        fill="url(#paint33_radial_18_20313)" />
    <path
        d="M9.0481 15.7839C9.0481 15.0523 9.60896 14.4592 10.3008 14.4592H20.0638C20.7557 14.4592 21.3166 15.0523 21.3166 15.7839V23.1928C21.3166 23.9244 20.7557 24.5175 20.0638 24.5175H10.3008C9.60896 24.5175 9.0481 23.9244 9.0481 23.1928V15.7839Z"
        fill="url(#paint34_radial_18_20313)" />
    <path
        d="M9.0481 15.7839C9.0481 15.0523 9.60896 14.4592 10.3008 14.4592H20.0638C20.7557 14.4592 21.3166 15.0523 21.3166 15.7839V23.1928C21.3166 23.9244 20.7557 24.5175 20.0638 24.5175H10.3008C9.60896 24.5175 9.0481 23.9244 9.0481 23.1928V15.7839Z"
        fill="url(#paint35_radial_18_20313)" />
    <path
        d="M9.0481 15.7839C9.0481 15.0523 9.60896 14.4592 10.3008 14.4592H20.0638C20.7557 14.4592 21.3166 15.0523 21.3166 15.7839V23.1928C21.3166 23.9244 20.7557 24.5175 20.0638 24.5175H10.3008C9.60896 24.5175 9.0481 23.9244 9.0481 23.1928V15.7839Z"
        fill="url(#paint36_radial_18_20313)" />
    <path
        d="M9.0481 15.7839C9.0481 15.0523 9.60896 14.4592 10.3008 14.4592H20.0638C20.7557 14.4592 21.3166 15.0523 21.3166 15.7839V23.1928C21.3166 23.9244 20.7557 24.5175 20.0638 24.5175H10.3008C9.60896 24.5175 9.0481 23.9244 9.0481 23.1928V15.7839Z"
        fill="url(#paint37_radial_18_20313)" />
    <path
        d="M9.0481 15.7839C9.0481 15.0523 9.60896 14.4592 10.3008 14.4592H20.0638C20.7557 14.4592 21.3166 15.0523 21.3166 15.7839V23.1928C21.3166 23.9244 20.7557 24.5175 20.0638 24.5175H10.3008C9.60896 24.5175 9.0481 23.9244 9.0481 23.1928V15.7839Z"
        fill="url(#paint38_radial_18_20313)" />
    <path
        d="M9.0481 15.7839C9.0481 15.0523 9.60896 14.4592 10.3008 14.4592H20.0638C20.7557 14.4592 21.3166 15.0523 21.3166 15.7839V23.1928C21.3166 23.9244 20.7557 24.5175 20.0638 24.5175H10.3008C9.60896 24.5175 9.0481 23.9244 9.0481 23.1928V15.7839Z"
        fill="url(#paint39_radial_18_20313)" />
    <path
        d="M9.37415 15.9449C9.37415 15.2821 9.9114 14.7449 10.5741 14.7449H19.9263C20.5891 14.7449 21.1263 15.2821 21.1263 15.9449V22.6565C21.1263 23.3192 20.5891 23.8565 19.9263 23.8565H10.5741C9.91141 23.8565 9.37415 23.3192 9.37415 22.6565V15.9449Z"
        fill="url(#paint40_linear_18_20313)" />
    <path
        d="M9.37415 15.9449C9.37415 15.2821 9.9114 14.7449 10.5741 14.7449H19.9263C20.5891 14.7449 21.1263 15.2821 21.1263 15.9449V22.6565C21.1263 23.3192 20.5891 23.8565 19.9263 23.8565H10.5741C9.91141 23.8565 9.37415 23.3192 9.37415 22.6565V15.9449Z"
        fill="url(#paint41_linear_18_20313)" />
    <path
        d="M9.37415 15.9449C9.37415 15.2821 9.9114 14.7449 10.5741 14.7449H19.9263C20.5891 14.7449 21.1263 15.2821 21.1263 15.9449V22.6565C21.1263 23.3192 20.5891 23.8565 19.9263 23.8565H10.5741C9.91141 23.8565 9.37415 23.3192 9.37415 22.6565V15.9449Z"
        fill="url(#paint42_radial_18_20313)" />
    <path
        d="M9.37415 15.9449C9.37415 15.2821 9.9114 14.7449 10.5741 14.7449H19.9263C20.5891 14.7449 21.1263 15.2821 21.1263 15.9449V22.6565C21.1263 23.3192 20.5891 23.8565 19.9263 23.8565H10.5741C9.91141 23.8565 9.37415 23.3192 9.37415 22.6565V15.9449Z"
        fill="url(#paint43_linear_18_20313)" fill-opacity="0.35" />
    <path
        d="M9.37415 15.9449C9.37415 15.2821 9.9114 14.7449 10.5741 14.7449H19.9263C20.5891 14.7449 21.1263 15.2821 21.1263 15.9449V22.6565C21.1263 23.3192 20.5891 23.8565 19.9263 23.8565H10.5741C9.91141 23.8565 9.37415 23.3192 9.37415 22.6565V15.9449Z"
        fill="url(#paint44_linear_18_20313)" fill-opacity="0.46" />
    <path
        d="M9.37415 15.9449C9.37415 15.2821 9.9114 14.7449 10.5741 14.7449H19.9263C20.5891 14.7449 21.1263 15.2821 21.1263 15.9449V22.6565C21.1263 23.3192 20.5891 23.8565 19.9263 23.8565H10.5741C9.91141 23.8565 9.37415 23.3192 9.37415 22.6565V15.9449Z"
        fill="url(#paint45_linear_18_20313)" fill-opacity="0.46" />
    <path
        d="M9.37415 15.9449C9.37415 15.2821 9.9114 14.7449 10.5741 14.7449H19.9263C20.5891 14.7449 21.1263 15.2821 21.1263 15.9449V22.6565C21.1263 23.3192 20.5891 23.8565 19.9263 23.8565H10.5741C9.91141 23.8565 9.37415 23.3192 9.37415 22.6565V15.9449Z"
        fill="url(#paint46_linear_18_20313)" fill-opacity="0.46" />
    <path
        d="M10.7107 16.9978C10.7107 16.5007 11.1136 16.0978 11.6107 16.0978H18.8897C19.3867 16.0978 19.7897 16.5007 19.7897 16.9978V21.6036C19.7897 22.1007 19.3867 22.5036 18.8897 22.5036H11.6107C11.1136 22.5036 10.7107 22.1007 10.7107 21.6036V16.9978Z"
        fill="url(#paint47_linear_18_20313)" />
    <path
        d="M10.7107 16.9978C10.7107 16.5007 11.1136 16.0978 11.6107 16.0978H18.8897C19.3867 16.0978 19.7897 16.5007 19.7897 16.9978V21.6036C19.7897 22.1007 19.3867 22.5036 18.8897 22.5036H11.6107C11.1136 22.5036 10.7107 22.1007 10.7107 21.6036V16.9978Z"
        fill="url(#paint48_radial_18_20313)" />
    <path
        d="M10.7107 16.9978C10.7107 16.5007 11.1136 16.0978 11.6107 16.0978H18.8897C19.3867 16.0978 19.7897 16.5007 19.7897 16.9978V21.6036C19.7897 22.1007 19.3867 22.5036 18.8897 22.5036H11.6107C11.1136 22.5036 10.7107 22.1007 10.7107 21.6036V16.9978Z"
        fill="url(#paint49_linear_18_20313)" />
    <path
        d="M6.77832 25.5931C6.77832 25.3722 6.95741 25.1931 7.17832 25.1931H25.824C26.0449 25.1931 26.224 25.3722 26.224 25.5931V27.5778C26.224 28.6824 25.3286 29.5778 24.224 29.5778H8.77832C7.67375 29.5778 6.77832 28.6824 6.77832 27.5778V25.5931Z"
        fill="url(#paint50_linear_18_20313)" />
    <path
        d="M6.77832 25.5931C6.77832 25.3722 6.95741 25.1931 7.17832 25.1931H25.824C26.0449 25.1931 26.224 25.3722 26.224 25.5931V27.5778C26.224 28.6824 25.3286 29.5778 24.224 29.5778H8.77832C7.67375 29.5778 6.77832 28.6824 6.77832 27.5778V25.5931Z"
        fill="url(#paint51_linear_18_20313)" />
    <path
        d="M6.77832 25.5931C6.77832 25.3722 6.95741 25.1931 7.17832 25.1931H25.824C26.0449 25.1931 26.224 25.3722 26.224 25.5931V27.5778C26.224 28.6824 25.3286 29.5778 24.224 29.5778H8.77832C7.67375 29.5778 6.77832 28.6824 6.77832 27.5778V25.5931Z"
        fill="url(#paint52_linear_18_20313)" />
    <path
        d="M6.77832 25.5931C6.77832 25.3722 6.95741 25.1931 7.17832 25.1931H25.824C26.0449 25.1931 26.224 25.3722 26.224 25.5931V27.5778C26.224 28.6824 25.3286 29.5778 24.224 29.5778H8.77832C7.67375 29.5778 6.77832 28.6824 6.77832 27.5778V25.5931Z"
        fill="url(#paint53_linear_18_20313)" />
    <path
        d="M6.77832 25.5931C6.77832 25.3722 6.95741 25.1931 7.17832 25.1931H25.824C26.0449 25.1931 26.224 25.3722 26.224 25.5931V27.5778C26.224 28.6824 25.3286 29.5778 24.224 29.5778H8.77832C7.67375 29.5778 6.77832 28.6824 6.77832 27.5778V25.5931Z"
        fill="url(#paint54_linear_18_20313)" />
    <path
        d="M6.77832 25.5931C6.77832 25.3722 6.95741 25.1931 7.17832 25.1931H25.824C26.0449 25.1931 26.224 25.3722 26.224 25.5931V27.5778C26.224 28.6824 25.3286 29.5778 24.224 29.5778H8.77832C7.67375 29.5778 6.77832 28.6824 6.77832 27.5778V25.5931Z"
        fill="url(#paint55_linear_18_20313)" />
    <path
        d="M6.77832 25.5931C6.77832 25.3722 6.95741 25.1931 7.17832 25.1931H25.824C26.0449 25.1931 26.224 25.3722 26.224 25.5931V27.5778C26.224 28.6824 25.3286 29.5778 24.224 29.5778H8.77832C7.67375 29.5778 6.77832 28.6824 6.77832 27.5778V25.5931Z"
        fill="url(#paint56_linear_18_20313)" />
    <path
        d="M12.6504 27.4016C12.6504 27.0641 12.9241 26.7904 13.2616 26.7904H14.696C15.0336 26.7904 15.3073 27.0641 15.3073 27.4016C15.3073 27.7392 15.0336 28.0129 14.696 28.0129H13.2616C12.9241 28.0129 12.6504 27.7392 12.6504 27.4016Z"
        fill="url(#paint57_linear_18_20313)" />
    <path
        d="M19.3414 27.3854C19.3414 27.777 19.024 28.0945 18.6324 28.0945C18.2408 28.0945 17.9233 27.777 17.9233 27.3854C17.9233 26.9938 18.2408 26.6764 18.6324 26.6764C19.024 26.6764 19.3414 26.9938 19.3414 27.3854Z"
        fill="url(#paint58_linear_18_20313)" />
    <path
        d="M19.3414 27.3854C19.3414 27.777 19.024 28.0945 18.6324 28.0945C18.2408 28.0945 17.9233 27.777 17.9233 27.3854C17.9233 26.9938 18.2408 26.6764 18.6324 26.6764C19.024 26.6764 19.3414 26.9938 19.3414 27.3854Z"
        fill="url(#paint59_radial_18_20313)" />
    <path d="M7.63794 25.7188H25.5442" stroke="url(#paint60_radial_18_20313)" stroke-width="0.2"
        stroke-linecap="round" />
    <path
        d="M12.719 27.2886C12.719 27.0164 12.9448 26.7985 13.2169 26.8083L14.8316 26.8663C15.0901 26.8756 15.2949 27.0879 15.2949 27.3466C15.2949 27.6189 15.0691 27.8367 14.7971 27.827L13.1823 27.7689C12.9238 27.7596 12.719 27.5473 12.719 27.2886Z"
        fill="url(#paint61_radial_18_20313)" fill-opacity="0.2" />
    <path d="M11.4377 16.6406H18.9629C19.1286 16.6406 19.2629 16.7749 19.2629 16.9406V21.5938"
        stroke="url(#paint62_linear_18_20313)" stroke-width="0.3" stroke-linecap="round" />
    <path
        d="M21.1262 21.0855H22.4866C22.7075 21.0855 22.8866 20.9064 22.8866 20.6855V17.9159C22.8866 17.6949 22.7075 17.5159 22.4866 17.5159H21.1262V21.0855Z"
        fill="#EEE8F6" />
    <path
        d="M21.1262 21.0855H22.4866C22.7075 21.0855 22.8866 20.9064 22.8866 20.6855V17.9159C22.8866 17.6949 22.7075 17.5159 22.4866 17.5159H21.1262V21.0855Z"
        fill="url(#paint63_linear_18_20313)" />
    <defs>
        <linearGradient id="paint0_linear_18_20313" x1="9.33798" y1="13.5604" x2="20.6935"
            y2="13.5604" gradientUnits="userSpaceOnUse">
            <stop stop-color="#5B496D" />
            <stop offset="1" stop-color="#48424E" />
        </linearGradient>
        <linearGradient id="paint1_linear_18_20313" x1="19.9305" y1="14.7109" x2="20.1495"
            y2="11.63" gradientUnits="userSpaceOnUse">
            <stop stop-color="#2F2738" />
            <stop offset="1" stop-color="#62596B" stop-opacity="0" />
        </linearGradient>
        <radialGradient id="paint2_radial_18_20313" cx="0" cy="0" r="1"
            gradientUnits="userSpaceOnUse"
            gradientTransform="translate(19.3759 18.3951) rotate(170.08) scale(6.19527 7.15632)">
            <stop stop-color="#4C4353" />
            <stop offset="1" stop-color="#302839" stop-opacity="0" />
        </radialGradient>
        <radialGradient id="paint3_radial_18_20313" cx="0" cy="0" r="1"
            gradientUnits="userSpaceOnUse"
            gradientTransform="translate(12.7291 10.5942) rotate(-180) scale(5.17255 0.553983)">
            <stop stop-color="#69656E" />
            <stop offset="1" stop-color="#69656E" stop-opacity="0" />
        </radialGradient>
        <radialGradient id="paint4_radial_18_20313" cx="0" cy="0" r="1"
            gradientUnits="userSpaceOnUse"
            gradientTransform="translate(14.945 10.5942) rotate(-180) scale(3.97932 0.426187)">
            <stop stop-color="#69656E" />
            <stop offset="1" stop-color="#69656E" stop-opacity="0" />
        </radialGradient>
        <radialGradient id="paint5_radial_18_20313" cx="0" cy="0" r="1"
            gradientUnits="userSpaceOnUse"
            gradientTransform="translate(18.4718 10.5942) rotate(-178.779) scale(4.56728 0.489158)">
            <stop stop-color="#69656E" />
            <stop offset="1" stop-color="#69656E" stop-opacity="0" />
        </radialGradient>
        <radialGradient id="paint6_radial_18_20313" cx="0" cy="0" r="1"
            gradientUnits="userSpaceOnUse"
            gradientTransform="translate(20.1677 10.8619) rotate(120.069) scale(0.849367 12.3412)">
            <stop stop-color="#4B4351" />
            <stop offset="0.557292" stop-color="#4A4350" stop-opacity="0" />
        </radialGradient>
        <radialGradient id="paint7_radial_18_20313" cx="0" cy="0" r="1"
            gradientUnits="userSpaceOnUse"
            gradientTransform="translate(20.6112 13.7703) rotate(-90) scale(2.99252 0.448379)">
            <stop stop-color="#69656E" />
            <stop offset="1" stop-color="#69656E" stop-opacity="0" />
        </radialGradient>
        <radialGradient id="paint8_radial_18_20313" cx="0" cy="0" r="1"
            gradientUnits="userSpaceOnUse"
            gradientTransform="translate(20.2111 11.7398) rotate(-124.789) scale(1.03096 0.41283)">
            <stop stop-color="#69656E" />
            <stop offset="1" stop-color="#69656E" stop-opacity="0" />
        </radialGradient>
        <radialGradient id="paint9_radial_18_20313" cx="0" cy="0" r="1"
            gradientUnits="userSpaceOnUse"
            gradientTransform="translate(19.9883 11.3566) rotate(-137.07) scale(1.04683 0.419183)">
            <stop stop-color="#69656E" />
            <stop offset="1" stop-color="#69656E" stop-opacity="0" />
        </radialGradient>
        <radialGradient id="paint10_radial_18_20313" cx="0" cy="0" r="1"
            gradientUnits="userSpaceOnUse"
            gradientTransform="translate(21.0837 11.3612) rotate(158.412) scale(1.31682 19.1332)">
            <stop stop-color="#4B4351" />
            <stop offset="0.557292" stop-color="#4A4350" stop-opacity="0" />
        </radialGradient>
        <radialGradient id="paint11_radial_18_20313" cx="0" cy="0" r="1"
            gradientUnits="userSpaceOnUse"
            gradientTransform="translate(19.5872 11.0268) rotate(-153.884) scale(0.982662 0.393489)">
            <stop stop-color="#69656E" />
            <stop offset="1" stop-color="#69656E" stop-opacity="0" />
        </radialGradient>
        <linearGradient id="paint12_linear_18_20313" x1="28.4327" y1="13.6365" x2="28.4327"
            y2="15.8126" gradientUnits="userSpaceOnUse">
            <stop stop-color="#635571" />
            <stop offset="1" stop-color="#635571" stop-opacity="0" />
        </linearGradient>
        <linearGradient id="paint13_linear_18_20313" x1="29.0285" y1="21.1833" x2="29.0285"
            y2="20.5938" gradientUnits="userSpaceOnUse">
            <stop stop-color="#5C4075" />
            <stop offset="1" stop-color="#5C4075" stop-opacity="0" />
        </linearGradient>
        <radialGradient id="paint14_radial_18_20313" cx="0" cy="0" r="1"
            gradientUnits="userSpaceOnUse"
            gradientTransform="translate(27.5442 16.7188) scale(2.8125 1.59375)">
            <stop offset="0.216667" stop-color="#544B5E" />
            <stop offset="1" stop-color="#544B5E" stop-opacity="0" />
        </radialGradient>
        <radialGradient id="paint15_radial_18_20313" cx="0" cy="0" r="1"
            gradientUnits="userSpaceOnUse"
            gradientTransform="translate(29.5285 16.7501) rotate(90) scale(2.64062 0.453125)">
            <stop stop-color="#6E6777" />
            <stop offset="1" stop-color="#6E6777" stop-opacity="0" />
        </radialGradient>
        <linearGradient id="paint16_linear_18_20313" x1="25.8696" y1="17.4588" x2="25.8696"
            y2="21.4441" gradientUnits="userSpaceOnUse">
            <stop stop-color="#EBE9ED" />
            <stop offset="1" stop-color="#AC98C1" />
        </linearGradient>
        <linearGradient id="paint17_linear_18_20313" x1="25.8696" y1="13.4735" x2="25.8696"
            y2="14.5938" gradientUnits="userSpaceOnUse">
            <stop stop-color="#D7D7D7" />
            <stop offset="1" stop-color="#D7D7D7" stop-opacity="0" />
        </linearGradient>
        <linearGradient id="paint18_linear_18_20313" x1="5.34807" y1="8.99915" x2="5.34807"
            y2="14.2803" gradientUnits="userSpaceOnUse">
            <stop stop-color="#ACABAD" />
            <stop offset="1" stop-color="#9588A2" />
        </linearGradient>
        <linearGradient id="paint19_linear_18_20313" x1="4.91295" y1="14.504" x2="4.91295"
            y2="13.235" gradientUnits="userSpaceOnUse">
            <stop stop-color="#8D73A7" />
            <stop offset="1" stop-color="#8D73A7" stop-opacity="0" />
        </linearGradient>
        <radialGradient id="paint20_radial_18_20313" cx="0" cy="0" r="1"
            gradientUnits="userSpaceOnUse"
            gradientTransform="translate(4.05071 10.9574) scale(3.85567 2.26295)">
            <stop offset="0.135802" stop-color="#B4B0B8" />
            <stop offset="1" stop-color="#AEABB0" stop-opacity="0" />
        </radialGradient>
        <radialGradient id="paint21_radial_18_20313" cx="0" cy="0" r="1"
            gradientUnits="userSpaceOnUse"
            gradientTransform="translate(6.14936 10.9737) rotate(90) scale(2.76567 0.801294)">
            <stop stop-color="#D3D0D6" />
            <stop offset="1" stop-color="#ABA7AF" stop-opacity="0" />
        </radialGradient>
        <linearGradient id="paint22_linear_18_20313" x1="3.15578" y1="7.86633" x2="3.15578"
            y2="15.4132" gradientUnits="userSpaceOnUse">
            <stop stop-color="#58456A" />
            <stop offset="1" stop-color="#3C274E" />
        </linearGradient>
        <linearGradient id="paint23_linear_18_20313" x1="2.08813" y1="12.5281" x2="3.15578"
            y2="12.5281" gradientUnits="userSpaceOnUse">
            <stop stop-color="#6D6A70" />
            <stop offset="1" stop-color="#4A4352" stop-opacity="0" />
        </linearGradient>
        <radialGradient id="paint24_radial_18_20313" cx="0" cy="0" r="1"
            gradientUnits="userSpaceOnUse"
            gradientTransform="translate(3.42187 12.1719) rotate(90) scale(2.89062 0.513889)">
            <stop offset="0.119792" stop-color="#58565B" />
            <stop offset="0.979167" stop-color="#7A6E87" stop-opacity="0" />
        </radialGradient>
        <radialGradient id="paint25_radial_18_20313" cx="0" cy="0" r="1"
            gradientUnits="userSpaceOnUse"
            gradientTransform="translate(3.39062 10.3438) rotate(90) scale(3.46875 1.15611)">
            <stop offset="0.134328" stop-color="#7A6E87" stop-opacity="0.8" />
            <stop offset="0.406716" stop-color="#7A6E87" stop-opacity="0.2" />
            <stop offset="0.765625" stop-color="#7A6E87" stop-opacity="0" />
        </radialGradient>
        <radialGradient id="paint26_radial_18_20313" cx="0" cy="0" r="1"
            gradientUnits="userSpaceOnUse"
            gradientTransform="translate(16.5012 14.2501) rotate(90) scale(10.943 11.2696)">
            <stop offset="0.32555" stop-color="#C1BEC4" />
            <stop offset="1" stop-color="#B7B2BE" />
        </radialGradient>
        <linearGradient id="paint27_linear_18_20313" x1="7.82541" y1="25.2188" x2="15.7004"
            y2="18.6876" gradientUnits="userSpaceOnUse">
            <stop offset="0.494612" stop-color="#A59CAD" />
            <stop offset="1" stop-color="#A59CAD" stop-opacity="0" />
        </linearGradient>
        <linearGradient id="paint28_linear_18_20313" x1="16.5012" y1="13.4735" x2="16.5012"
            y2="14.5938" gradientUnits="userSpaceOnUse">
            <stop stop-color="#B3B3B4" />
            <stop offset="1" stop-color="#B3B3B4" stop-opacity="0" />
        </linearGradient>
        <linearGradient id="paint29_linear_18_20313" x1="5.79563" y1="20.9509" x2="7.64512"
            y2="20.9509" gradientUnits="userSpaceOnUse">
            <stop stop-color="#CCC7D3" stop-opacity="0.79" />
            <stop offset="1" stop-color="#FEFEFF" stop-opacity="0" />
        </linearGradient>
        <linearGradient id="paint30_linear_18_20313" x1="25.484" y1="21.9358" x2="24.1272"
            y2="21.9358" gradientUnits="userSpaceOnUse">
            <stop stop-color="white" />
            <stop offset="0.0001" stop-color="white" />
            <stop offset="0.626246" stop-color="#CDC8D3" stop-opacity="0" />
        </linearGradient>
        <radialGradient id="paint31_radial_18_20313" cx="0" cy="0" r="1"
            gradientUnits="userSpaceOnUse"
            gradientTransform="translate(10.907 20.328) rotate(-90.6997) scale(4.86492 2.78324)">
            <stop offset="0.0572917" stop-color="#8F849C" />
            <stop offset="0.901042" stop-color="#8F849C" stop-opacity="0" />
        </radialGradient>
        <radialGradient id="paint32_radial_18_20313" cx="0" cy="0" r="1"
            gradientUnits="userSpaceOnUse"
            gradientTransform="translate(12.8085 23.1702) rotate(1.70576) scale(4.04252 1.57189)">
            <stop offset="0.0572917" stop-color="#8F849C" />
            <stop offset="0.901042" stop-color="#8F849C" stop-opacity="0" />
        </radialGradient>
        <radialGradient id="paint33_radial_18_20313" cx="0" cy="0" r="1"
            gradientUnits="userSpaceOnUse"
            gradientTransform="translate(12.8085 23.1702) rotate(1.70576) scale(4.04252 1.57189)">
            <stop offset="0.0572917" stop-color="#8F849C" />
            <stop offset="0.901042" stop-color="#8F849C" stop-opacity="0" />
        </radialGradient>
        <radialGradient id="paint34_radial_18_20313" cx="0" cy="0" r="1"
            gradientUnits="userSpaceOnUse"
            gradientTransform="translate(15.589 23.1502) scale(3.90071 1.51675)">
            <stop offset="0.0572917" stop-color="#8F849C" />
            <stop offset="0.901042" stop-color="#8F849C" stop-opacity="0" />
        </radialGradient>
        <radialGradient id="paint35_radial_18_20313" cx="0" cy="0" r="1"
            gradientUnits="userSpaceOnUse"
            gradientTransform="translate(15.589 23.1502) scale(3.90071 1.51675)">
            <stop offset="0.0572917" stop-color="#8F849C" />
            <stop offset="0.901042" stop-color="#8F849C" stop-opacity="0" />
        </radialGradient>
        <radialGradient id="paint36_radial_18_20313" cx="0" cy="0" r="1"
            gradientUnits="userSpaceOnUse"
            gradientTransform="translate(17.1824 23.1502) scale(4.00815 1.55853)">
            <stop offset="0.0572917" stop-color="#8F849C" />
            <stop offset="0.901042" stop-color="#8F849C" stop-opacity="0" />
        </radialGradient>
        <radialGradient id="paint37_radial_18_20313" cx="0" cy="0" r="1"
            gradientUnits="userSpaceOnUse"
            gradientTransform="translate(19.6669 22.7384) rotate(-66.0375) scale(1.66891 1.84225)">
            <stop offset="0.0572917" stop-color="#8F849C" />
            <stop offset="0.901042" stop-color="#8F849C" stop-opacity="0" />
        </radialGradient>
        <radialGradient id="paint38_radial_18_20313" cx="0" cy="0" r="1"
            gradientUnits="userSpaceOnUse"
            gradientTransform="translate(17.7494 23.09) rotate(5.58113) scale(3.19589 1.18839)">
            <stop offset="0.0572917" stop-color="#8F849C" />
            <stop offset="0.901042" stop-color="#8F849C" stop-opacity="0" />
        </radialGradient>
        <radialGradient id="paint39_radial_18_20313" cx="0" cy="0" r="1"
            gradientUnits="userSpaceOnUse"
            gradientTransform="translate(10.5505 22.8695) rotate(-87.5169) scale(1.82841 1.9415)">
            <stop offset="0.0572917" stop-color="#8F849C" />
            <stop offset="0.901042" stop-color="#8F849C" stop-opacity="0" />
        </radialGradient>
        <linearGradient id="paint40_linear_18_20313" x1="15.2502" y1="19.3007" x2="15.2502"
            y2="23.8565" gradientUnits="userSpaceOnUse">
            <stop stop-color="#E3E0E7" />
            <stop offset="1" stop-color="#C9B7DC" />
            <stop offset="1" stop-color="#C9B7DC" />
        </linearGradient>
        <linearGradient id="paint41_linear_18_20313" x1="21.9192" y1="20.7501" x2="20.5129"
            y2="20.7501" gradientUnits="userSpaceOnUse">
            <stop offset="0.243902" stop-color="#F2EDF7" />
            <stop offset="1" stop-color="#E5E2E9" stop-opacity="0" />
        </linearGradient>
        <radialGradient id="paint42_radial_18_20313" cx="0" cy="0" r="1"
            gradientUnits="userSpaceOnUse"
            gradientTransform="translate(20.7629 15.0938) rotate(135) scale(0.83969 1.08303)">
            <stop stop-color="#F3F0F5" />
            <stop offset="1" stop-color="#F3F0F5" stop-opacity="0" />
        </radialGradient>
        <linearGradient id="paint43_linear_18_20313" x1="15.2502" y1="23.6865" x2="15.2502"
            y2="23.122" gradientUnits="userSpaceOnUse">
            <stop stop-color="#8C7D9C" />
            <stop offset="1" stop-color="#B5A3C8" stop-opacity="0" />
        </linearGradient>
        <linearGradient id="paint44_linear_18_20313" x1="21.1263" y1="18.9511" x2="20.2797"
            y2="18.9511" gradientUnits="userSpaceOnUse">
            <stop offset="0.203125" stop-color="#8E7D9C" />
            <stop offset="1" stop-color="#B5A3C8" stop-opacity="0" />
        </linearGradient>
        <linearGradient id="paint45_linear_18_20313" x1="9.37415" y1="18.9511" x2="9.61734"
            y2="18.9511" gradientUnits="userSpaceOnUse">
            <stop offset="0.203125" stop-color="#8E7D9C" stop-opacity="0.79" />
            <stop offset="1" stop-color="#B5A3C8" stop-opacity="0" />
        </linearGradient>
        <linearGradient id="paint46_linear_18_20313" x1="16.5954" y1="14.6525" x2="16.5954"
            y2="14.939" gradientUnits="userSpaceOnUse">
            <stop offset="0.203125" stop-color="#8E7D9C" stop-opacity="0.79" />
            <stop offset="1" stop-color="#B5A3C8" stop-opacity="0" />
        </linearGradient>
        <linearGradient id="paint47_linear_18_20313" x1="10.7107" y1="21.0626" x2="18.5442"
            y2="18.7501" gradientUnits="userSpaceOnUse">
            <stop stop-color="#564669" />
            <stop offset="1" stop-color="#4C4257" />
        </linearGradient>
        <radialGradient id="paint48_radial_18_20313" cx="0" cy="0" r="1"
            gradientUnits="userSpaceOnUse"
            gradientTransform="translate(19.4973 16.4688) rotate(143.13) scale(0.625 0.88581)">
            <stop stop-color="#6B6671" />
            <stop offset="1" stop-color="#6B6671" stop-opacity="0" />
        </radialGradient>
        <linearGradient id="paint49_linear_18_20313" x1="10.7107" y1="19.5001" x2="11.2317"
            y2="19.5001" gradientUnits="userSpaceOnUse">
            <stop stop-color="#615470" />
            <stop offset="1" stop-color="#615470" stop-opacity="0" />
        </linearGradient>
        <linearGradient id="paint50_linear_18_20313" x1="6.77832" y1="28.2189" x2="18.3879"
            y2="28.2189" gradientUnits="userSpaceOnUse">
            <stop stop-color="#5F4876" />
            <stop offset="1" stop-color="#46404E" />
        </linearGradient>
        <linearGradient id="paint51_linear_18_20313" x1="26.224" y1="27.9376" x2="24.4191"
            y2="27.9376" gradientUnits="userSpaceOnUse">
            <stop offset="0.307429" stop-color="#565558" />
            <stop offset="1" stop-color="#565558" stop-opacity="0" />
        </linearGradient>
        <linearGradient id="paint52_linear_18_20313" x1="26.224" y1="27.9376" x2="25.2941"
            y2="27.9376" gradientUnits="userSpaceOnUse">
            <stop stop-color="#3E3A41" />
            <stop offset="1" stop-color="#3E3A41" stop-opacity="0" />
        </linearGradient>
        <linearGradient id="paint53_linear_18_20313" x1="16.5012" y1="25.1931" x2="16.5012"
            y2="25.7955" gradientUnits="userSpaceOnUse">
            <stop stop-color="#40324F" />
            <stop offset="1" stop-color="#40324F" stop-opacity="0" />
        </linearGradient>
        <linearGradient id="paint54_linear_18_20313" x1="7.11342" y1="27.3854" x2="9.81495"
            y2="27.3854" gradientUnits="userSpaceOnUse">
            <stop stop-color="#53376E" />
            <stop offset="1" stop-color="#40324F" stop-opacity="0" />
        </linearGradient>
        <linearGradient id="paint55_linear_18_20313" x1="8.8891" y1="28.9957" x2="8.8891"
            y2="27.9109" gradientUnits="userSpaceOnUse">
            <stop stop-color="#53376E" />
            <stop offset="1" stop-color="#40324F" stop-opacity="0" />
        </linearGradient>
        <linearGradient id="paint56_linear_18_20313" x1="6.57538" y1="27.3855" x2="7.41913"
            y2="27.3855" gradientUnits="userSpaceOnUse">
            <stop stop-color="#97909F" />
            <stop offset="1" stop-color="#68587B" stop-opacity="0" />
        </linearGradient>
        <linearGradient id="paint57_linear_18_20313" x1="13.9788" y1="26.7904" x2="13.9788"
            y2="28.0129" gradientUnits="userSpaceOnUse">
            <stop stop-color="#B2ABB9" />
            <stop offset="1" stop-color="#AB97BF" />
        </linearGradient>
        <linearGradient id="paint58_linear_18_20313" x1="18.6324" y1="26.6764" x2="18.6324"
            y2="28.0945" gradientUnits="userSpaceOnUse">
            <stop stop-color="#F02D55" />
            <stop offset="1" stop-color="#DD1E7D" />
        </linearGradient>
        <radialGradient id="paint59_radial_18_20313" cx="0" cy="0" r="1"
            gradientUnits="userSpaceOnUse"
            gradientTransform="translate(18.9348 27.1876) rotate(132.661) scale(0.446198)">
            <stop stop-color="#FF6384" />
            <stop offset="1" stop-color="#FF6384" stop-opacity="0" />
        </radialGradient>
        <radialGradient id="paint60_radial_18_20313" cx="0" cy="0" r="1"
            gradientUnits="userSpaceOnUse"
            gradientTransform="translate(12.6647 25.9062) rotate(180) scale(2.09675 2.92544)">
            <stop stop-color="#656566" />
            <stop offset="1" stop-color="#624F75" />
        </radialGradient>
        <radialGradient id="paint61_radial_18_20313" cx="0" cy="0" r="1"
            gradientUnits="userSpaceOnUse"
            gradientTransform="translate(14.4486 27.1423) rotate(-88.9045) scale(0.351979 0.940042)">
            <stop offset="0.484375" stop-color="white" />
            <stop offset="1" stop-color="white" stop-opacity="0" />
        </radialGradient>
        <linearGradient id="paint62_linear_18_20313" x1="14.5442" y1="20.5313" x2="19.2629"
            y2="16.6406" gradientUnits="userSpaceOnUse">
            <stop stop-color="#5B4D6A" />
            <stop offset="0.752978" stop-color="#68636F" />
        </linearGradient>
        <linearGradient id="paint63_linear_18_20313" x1="22.5128" y1="21.2501" x2="22.5128"
            y2="20.6095" gradientUnits="userSpaceOnUse">
            <stop offset="0.292682" stop-color="#DACFE5" />
            <stop offset="1" stop-color="#DACFE5" stop-opacity="0" />
        </linearGradient>
    </defs>
</svg>